<?xml version="1.0"?>
<svg xmlns="http://www.w3.org/2000/svg" id="Layer_1" enable-background="new 0 0 60 60" height="512px" viewBox="0 0 60 60" width="512px" class=""><g><path d="m14.343 11.021c-4.668 0-8.466 3.804-8.466 8.48s3.798 8.48 8.466 8.48 8.466-3.804 8.466-8.48-3.798-8.48-8.466-8.48z" data-original="#000000" class="active-path" data-old_color="#000000" fill="#04458F"/><path d="m41.829 60h18.171v-3.965c0-5.087-4.075-9.226-9.085-9.226s-9.086 4.139-9.086 9.226z" data-original="#000000" class="active-path" data-old_color="#000000" fill="#04458F"/><path d="m50.915 34.365c-2.833 0-5.139 2.341-5.139 5.218s2.306 5.218 5.139 5.218 5.138-2.341 5.138-5.218-2.305-5.218-5.138-5.218z" data-original="#000000" class="active-path" data-old_color="#000000" fill="#04458F"/><path d="m41.829 25.635h18.171v-3.965c0-5.087-4.075-9.226-9.085-9.226s-9.086 4.138-9.086 9.226z" data-original="#000000" class="active-path" data-old_color="#000000" fill="#04458F"/><path d="m50.915 0c-2.833 0-5.139 2.341-5.139 5.218s2.306 5.218 5.139 5.218 5.138-2.341 5.138-5.218-2.305-5.218-5.138-5.218z" data-original="#000000" class="active-path" data-old_color="#000000" fill="#04458F"/><path d="m39.011 32.845-3.471-2.889 3.49-3.055c.226-.198.355-.483.355-.783 0-.894-1.053-1.371-1.726-.783l-4.105 3.593h-5.248c-.579 0-1.048.469-1.048 1.048s.469 1.048 1.048 1.048h5.263l4.109 3.421c.678.564 1.706.082 1.706-.799v-.001c.002-.31-.135-.603-.373-.8z" data-original="#000000" class="active-path" data-old_color="#000000" fill="#04458F"/><path d="m15.94 37.893v-7.02c-1.058.151-2.136.151-3.194 0v7.02l1.598 2.076z" data-original="#000000" class="active-path" data-old_color="#000000" fill="#04458F"/><path d="m20.601 29.101c-.54.358-1.112.648-1.699.902v8.408c0 .336-.111.661-.314.925l-3.077 3.999c-.58.756-1.752.755-2.333.001l-3.078-3.999c-.203-.264-.314-.59-.314-.926v-8.408c-.587-.254-1.16-.545-1.699-.902-4.868 2.164-8.087 7.03-8.087 12.342v5.418h4.655v-3.944c0-.831.663-1.503 1.48-1.503s1.48.672 1.48 1.503v3.944h13.455v-3.944c0-.831.663-1.503 1.48-1.503s1.48.672 1.48 1.503v3.944h4.655v-5.418c.001-5.312-3.218-10.178-8.084-12.342z" data-original="#000000" class="active-path" data-old_color="#000000" fill="#04458F"/></g> </svg>
