<?xml version="1.0"?>
<svg xmlns="http://www.w3.org/2000/svg" xmlns:xlink="http://www.w3.org/1999/xlink" version="1.1" id="Capa_1" x="0px" y="0px" viewBox="0 0 512 512" style="enable-background:new 0 0 512 512;" xml:space="preserve" width="512px" height="512px" class=""><g><path style="fill:#194C80" d="M506.368,225.259c-3.473-1.861-7.689-1.656-10.965,0.533L384,300.075v-1.408  C384,257.429,350.571,224,309.333,224l0,0H74.667C33.429,224,0,257.429,0,298.667l0,0v128c0,41.237,33.429,74.667,74.667,74.667  h234.667c41.237,0,74.667-33.429,74.667-74.667v-1.408l111.424,74.283c4.904,3.264,11.526,1.934,14.789-2.971  c1.164-1.749,1.785-3.803,1.786-5.904v-256C512.002,230.732,509.837,227.116,506.368,225.259z" data-original="#607D8B" class="" data-old_color="#607D8B"/><g>
	<circle style="fill:#04458F" cx="288" cy="106.667" r="96" data-original="#455A64" class="active-path" data-old_color="#455A64"/>
	<circle style="fill:#04458F" cx="74.667" cy="128" r="74.667" data-original="#455A64" class="active-path" data-old_color="#455A64"/>
</g></g> </svg>
