<svg id="Layer_1" data-name="Layer 1" xmlns="http://www.w3.org/2000/svg" viewBox="0 0 62.98 62.99"><defs><style>.cls-1{fill:none;stroke:#00c588;stroke-miterlimit:10;stroke-width:0.98px;}.cls-2{fill:#00c588;}.cls-3{fill:#fff;}</style></defs><title>Tablet_(Medical)</title><rect class="cls-1" x="0.49" y="0.49" width="62" height="62.01" rx="6.78" ry="6.78"/><path class="cls-2" d="M32.86,43A8.4,8.4,0,0,0,41,51.42V34.64A8.4,8.4,0,0,0,32.86,43Z" transform="translate(-0.51 -0.5)"/><path class="cls-2" d="M41.67,34.64V51.42a8.39,8.39,0,0,0,0-16.78Z" transform="translate(-0.51 -0.5)"/><rect class="cls-2" x="11.96" y="19.28" width="33.39" height="12.81" rx="6.11" ry="6.11" transform="translate(-10.31 23.76) rotate(-39.75)"/><path class="cls-3" d="M20.86,25.46h9.5a0,0,0,0,1,0,0V35.6a0,0,0,0,1,0,0H19.87A4.57,4.57,0,0,1,15.3,31v0A5.57,5.57,0,0,1,20.86,25.46Z" transform="translate(-14.75 21.15) rotate(-39.75)"/></svg>