<svg id="Layer_1" data-name="Layer 1" xmlns="http://www.w3.org/2000/svg" viewBox="0 0 63 63"><defs><style>.cls-1{fill:#00c588;}.cls-2{fill:#fff;}</style></defs><title>Tablet_(Medical)</title><rect class="cls-1" width="63" height="63" rx="6.89" ry="6.89"/><path class="cls-2" d="M32.82,43.26a8.4,8.4,0,0,0,8.11,8.39V34.87A8.4,8.4,0,0,0,32.82,43.26Z" transform="translate(-0.46 -0.73)"/><path class="cls-2" d="M41.63,34.87V51.65a8.39,8.39,0,0,0,0-16.78Z" transform="translate(-0.46 -0.73)"/><rect class="cls-2" x="11.92" y="19.51" width="33.39" height="12.81" rx="6.11" ry="6.11" transform="translate(-10.41 23.56) rotate(-39.75)"/><path class="cls-1" d="M20.82,25.69h9.5a0,0,0,0,1,0,0V35.83a0,0,0,0,1,0,0H19.83a4.57,4.57,0,0,1-4.57-4.57v0A5.57,5.57,0,0,1,20.82,25.69Z" transform="translate(-14.86 20.95) rotate(-39.75)"/></svg>