<svg id="Layer_1" data-name="Layer 1" xmlns="http://www.w3.org/2000/svg" viewBox="0 0 61.99 61.99"><defs><style>.cls-1,.cls-3{fill:none;stroke:#f94c3b;stroke-miterlimit:10;}.cls-1{stroke-width:0.49px;}.cls-2{fill:#f94c3b;}.cls-3{stroke-width:2.52px;}.cls-4{fill:#fff;}</style></defs><title>Bitsat</title><rect class="cls-1" x="0.24" y="0.24" width="61.5" height="61.51" rx="6.73" ry="6.73"/><polygon class="cls-2" points="20.8 49.78 23.84 49.33 24.29 52.16 21.25 52.6 20.8 49.78"/><polygon class="cls-2" points="17.81 28.01 20.86 27.56 21.3 30.39 18.26 30.83 17.81 28.01"/><path class="cls-3" d="M30.65,42.24A9.09,9.09,0,0,1,20.51,50a8.88,8.88,0,0,1-8.09-9.71,9.09,9.09,0,0,1,10.14-7.75A8.88,8.88,0,0,1,30.65,42.24Z" transform="translate(-1.04 -1)"/><path class="cls-2" d="M31.39,10.42a5.23,5.23,0,0,1,7,1.73,4.77,4.77,0,0,1-1.81,6.69,5.23,5.23,0,0,1-7-1.73A4.77,4.77,0,0,1,31.39,10.42Z" transform="translate(-1.04 -1)"/><path class="cls-2" d="M18.7,37.21a5.23,5.23,0,0,1,7,1.73,4.77,4.77,0,0,1-1.81,6.69,5.23,5.23,0,0,1-7-1.73A4.77,4.77,0,0,1,18.7,37.21Z" transform="translate(-1.04 -1)"/><path class="cls-2" d="M47.88,35.28a5.2,5.2,0,0,1,6.79,2.34,4.8,4.8,0,0,1-2.45,6.5,5.2,5.2,0,0,1-6.79-2.34A4.8,4.8,0,0,1,47.88,35.28Z" transform="translate(-1.04 -1)"/><path class="cls-2" d="M35,16.73a1.21,1.21,0,0,1,1.62.36L50.55,38.33a1.1,1.1,0,0,1-.37,1.55h0a1.2,1.2,0,0,1-1.61-.36L34.63,18.28A1.1,1.1,0,0,1,35,16.73Z" transform="translate(-1.04 -1)"/><path class="cls-4" d="M31.66,19.26c.85.36,1.38,1,1.2,1.37L25.4,36.78c-.19.4-1,.43-1.87.07h0c-.85-.36-1.39-1-1.2-1.37l7.46-16.14c.18-.4,1-.43,1.87-.07Z" transform="translate(-1.04 -1)"/><path class="cls-2" d="M32.81,16.8a1,1,0,0,1,.55,1.37L23.54,39.44A1.11,1.11,0,0,1,22.1,40h0a1,1,0,0,1-.55-1.38l9.83-21.26a1.1,1.1,0,0,1,1.43-.53Z" transform="translate(-1.04 -1)"/><polygon class="cls-2" points="11.28 43.07 10.82 40.16 7.87 40.59 8.33 43.5 11.28 43.07"/><polygon class="cls-2" points="33.79 39.79 33.33 36.88 30.38 37.31 30.84 40.22 33.79 39.79"/><polygon class="cls-2" points="29.39 35.3 27.46 33 29.79 31.22 31.71 33.52 29.39 35.3"/><polygon class="cls-2" points="11.74 49.04 9.82 46.74 12.14 44.96 14.06 47.26 11.74 49.04"/><polygon class="cls-2" points="28.21 46.67 25.81 48.51 27.67 50.74 30.07 48.9 28.21 46.67"/><polygon class="cls-2" points="13.99 29.64 11.59 31.48 13.45 33.71 15.85 31.87 13.99 29.64"/><polygon class="cls-2" points="15.8 48.48 18.66 49.55 17.58 52.21 14.71 51.14 15.8 48.48"/><polygon class="cls-2" points="11.05 38.11 12.18 35.37 9.4 34.33 8.28 37.07 11.05 38.11"/><polygon class="cls-2" points="32.26 46.05 33.38 43.3 30.61 42.27 29.48 45.01 32.26 46.05"/></svg>