<svg xmlns="http://www.w3.org/2000/svg" viewBox="0 0 164.38 162.78"><defs><style>.cls-1{isolation:isolate;}.cls-13,.cls-2,.cls-27{fill:none;}.cls-2{stroke:#37ddd1;stroke-width:1.5px;}.cls-10,.cls-11,.cls-12,.cls-13,.cls-14,.cls-2,.cls-9{stroke-miterlimit:10;}.cls-12,.cls-3{fill:#11b24b;}.cls-4{fill:#4c4d79;}.cls-5{fill:#bcd531;}.cls-6{fill:#e6e9ee;}.cls-7{fill:#ee3988;}.cls-8{fill:#10b2a7;mix-blend-mode:screen;}.cls-9{fill:#ccc;}.cls-10,.cls-11,.cls-12,.cls-14,.cls-27,.cls-9{stroke:#fff;stroke-width:0.5px;}.cls-10,.cls-24{fill:#c8db29;}.cls-11,.cls-23{fill:#cc66b8;}.cls-13{stroke:#000;stroke-width:0.25px;}.cls-14,.cls-17{fill:#0190c8;}.cls-15{fill:#fbcdb4;}.cls-16{fill:#f7f7c9;}.cls-18{fill:#37ddd1;}.cls-19{fill:#fff;}.cls-20{fill:#a4fdff;}.cls-21{fill:#fbb03b;}.cls-22{fill:#f266a9;}.cls-25{fill:#afaf04;}.cls-26{fill:#00bc3f;}.cls-27{stroke-linecap:round;stroke-linejoin:round;}</style></defs><title>comparative Analytics-1_FINAL_Updated-2</title><g class="cls-1"><g id="Layer_1" data-name="Layer 1"><circle class="cls-2" cx="82.91" cy="81.43" r="79.63"/><circle class="cls-3" cx="144.52" cy="31.81" r="10.17"/><path class="cls-4" d="M150.21,32.45l3-.76a7.74,7.74,0,0,0-4.25-4.53l-1.56,2.7A4.64,4.64,0,0,1,150.21,32.45Z" transform="translate(-1.41 -2.46)"/><path class="cls-5" d="M141.29,34.26a4.61,4.61,0,0,1,.58-2.21l-2.64-1.53A7.66,7.66,0,0,0,145.47,42V38.87A4.63,4.63,0,0,1,141.29,34.26Z" transform="translate(-1.41 -2.46)"/><path class="cls-6" d="M145.93,29.61a4.55,4.55,0,0,1,.49.05l1.6-2.78a7.48,7.48,0,0,0-8.31,2.86l2.67,1.55A4.6,4.6,0,0,1,145.93,29.61Z" transform="translate(-1.41 -2.46)"/><path class="cls-7" d="M153.44,32.58l-3,.75a4.69,4.69,0,0,1,.09.93,4.63,4.63,0,0,1-4.18,4.61V42a7.63,7.63,0,0,0,7-9.39Z" transform="translate(-1.41 -2.46)"/><path class="cls-5" d="M142.46,38.92" transform="translate(-1.41 -2.46)"/><path class="cls-4" d="M150.21,32.45l3-.76a7.74,7.74,0,0,0-4.25-4.53l-1.56,2.7A4.64,4.64,0,0,1,150.21,32.45Z" transform="translate(-1.41 -2.46)"/><path class="cls-5" d="M141.29,34.26a4.61,4.61,0,0,1,.58-2.21l-2.64-1.53A7.66,7.66,0,0,0,145.47,42V38.87A4.63,4.63,0,0,1,141.29,34.26Z" transform="translate(-1.41 -2.46)"/><path class="cls-6" d="M145.93,29.61a4.55,4.55,0,0,1,.49.05l1.6-2.78a7.48,7.48,0,0,0-8.31,2.86l2.67,1.55A4.6,4.6,0,0,1,145.93,29.61Z" transform="translate(-1.41 -2.46)"/><path class="cls-7" d="M153.44,32.58l-3,.75a4.69,4.69,0,0,1,.09.93,4.63,4.63,0,0,1-4.18,4.61V42a7.63,7.63,0,0,0,7-9.39Z" transform="translate(-1.41 -2.46)"/><ellipse class="cls-8" cx="144.52" cy="31.81" rx="5.79" ry="5.8"/><path class="cls-9" d="M83.65,32.37V25.75A57.91,57.91,0,0,0,25.73,83.67h6.62A51.29,51.29,0,0,1,83.65,32.37Z" transform="translate(-1.41 -2.46)"/><path class="cls-9" d="M83.81,39V32.37A51.29,51.29,0,0,0,32.51,83.67h6.62A44.68,44.68,0,0,1,83.81,39Z" transform="translate(-1.41 -2.46)"/><path class="cls-10" d="M83.81,50.91V45.61A38.06,38.06,0,0,0,45.75,83.67H51A32.76,32.76,0,0,1,83.81,50.91Z" transform="translate(-1.41 -2.46)"/><path class="cls-10" d="M83.81,56.2V50.91A32.76,32.76,0,0,0,51,83.67h5.29A27.47,27.47,0,0,1,83.81,56.2Z" transform="translate(-1.41 -2.46)"/><path class="cls-10" d="M83.81,61.49V56.2A27.47,27.47,0,0,0,56.34,83.67h5.29A22.17,22.17,0,0,1,83.81,61.49Z" transform="translate(-1.41 -2.46)"/><path class="cls-10" d="M39.13,83.67h6.62A38.06,38.06,0,0,1,83.81,45.61V39A44.68,44.68,0,0,0,39.13,83.67Z" transform="translate(-1.41 -2.46)"/><path class="cls-10" d="M83.81,66.79V61.49A22.17,22.17,0,0,0,61.63,83.67h5.29A16.88,16.88,0,0,1,83.81,66.79Z" transform="translate(-1.41 -2.46)"/><path class="cls-10" d="M83.81,72.08V66.79A16.88,16.88,0,0,0,66.93,83.67h5.29A11.58,11.58,0,0,1,83.81,72.08Z" transform="translate(-1.41 -2.46)"/><path class="cls-10" d="M83.81,77.38V72.08A11.58,11.58,0,0,0,72.22,83.67h5.29A6.29,6.29,0,0,1,83.81,77.38Z" transform="translate(-1.41 -2.46)"/><path class="cls-10" d="M83.81,77.38a6.29,6.29,0,0,0-6.29,6.29h6.29Z" transform="translate(-1.41 -2.46)"/><path class="cls-11" d="M32.51,83.67H25.89a57.91,57.91,0,0,0,57.91,57.91V135A51.29,51.29,0,0,1,32.51,83.67Z" transform="translate(-1.41 -2.46)"/><path class="cls-11" d="M45.75,83.81H39c0,24.65,20.35,44.63,45.45,44.63v-6.61C63.09,121.82,45.75,104.8,45.75,83.81Z" transform="translate(-1.41 -2.46)"/><path class="cls-11" d="M39,83.67h-6.7c0,28.3,23.23,51.24,51.89,51.24v-6.61C59.28,128.29,39,108.31,39,83.67Z" transform="translate(-1.41 -2.46)"/><path class="cls-11" d="M84.17,121.68v-5.29A32.94,32.94,0,0,1,51,83.67H45.67C45.67,104.66,62.9,121.68,84.17,121.68Z" transform="translate(-1.41 -2.46)"/><path class="cls-11" d="M56.56,83.67H51.2a32.94,32.94,0,0,0,33.14,32.73V111.1A27.61,27.61,0,0,1,56.56,83.67Z" transform="translate(-1.41 -2.46)"/><path class="cls-11" d="M61.77,83.67H56.42A27.61,27.61,0,0,0,84.2,111.1v-5.29A22.29,22.29,0,0,1,61.77,83.67Z" transform="translate(-1.41 -2.46)"/><path class="cls-11" d="M67.15,83.67H61.79a22.29,22.29,0,0,0,22.43,22.15v-5.29A17,17,0,0,1,67.15,83.67Z" transform="translate(-1.41 -2.46)"/><path class="cls-11" d="M72.25,83.67H66.82a17.09,17.09,0,0,0,17.3,16.86V95.24A11.73,11.73,0,0,1,72.25,83.67Z" transform="translate(-1.41 -2.46)"/><path class="cls-11" d="M77.74,83.67H72.38A11.64,11.64,0,0,0,84.1,95.24V89.95A6.32,6.32,0,0,1,77.74,83.67Z" transform="translate(-1.41 -2.46)"/><path class="cls-11" d="M77.43,83.67h0a6.32,6.32,0,0,0,6.36,6.28V83.67Z" transform="translate(-1.41 -2.46)"/><path class="cls-9" d="M135.1,83.67h6.62A57.91,57.91,0,0,0,83.81,25.75v6.62A51.29,51.29,0,0,1,135.1,83.67Z" transform="translate(-1.41 -2.46)"/><path class="cls-9" d="M83.81,32.37V39a44.68,44.68,0,0,1,44.68,44.68h6.62A51.29,51.29,0,0,0,83.81,32.37Z" transform="translate(-1.41 -2.46)"/><path class="cls-9" d="M121.86,83.67h6.62A44.68,44.68,0,0,0,83.81,39v6.62A38.06,38.06,0,0,1,121.86,83.67Z" transform="translate(-1.41 -2.46)"/><path class="cls-9" d="M116.57,83.67h5.29A38.06,38.06,0,0,0,83.81,45.61v5.29A32.76,32.76,0,0,1,116.57,83.67Z" transform="translate(-1.41 -2.46)"/><path class="cls-12" d="M111.27,83.67h5.29A32.76,32.76,0,0,0,83.81,50.91V56.2A27.47,27.47,0,0,1,111.27,83.67Z" transform="translate(-1.41 -2.46)"/><path class="cls-12" d="M106,83.67h5.29A27.47,27.47,0,0,0,83.81,56.2v5.29A22.17,22.17,0,0,1,106,83.67Z" transform="translate(-1.41 -2.46)"/><path class="cls-12" d="M100.68,83.67H106A22.17,22.17,0,0,0,83.81,61.49v5.29A16.88,16.88,0,0,1,100.68,83.67Z" transform="translate(-1.41 -2.46)"/><path class="cls-12" d="M95.39,83.67h5.29A16.88,16.88,0,0,0,83.81,66.79v5.29A11.58,11.58,0,0,1,95.39,83.67Z" transform="translate(-1.41 -2.46)"/><path class="cls-12" d="M90.09,83.67h5.29A11.58,11.58,0,0,0,83.81,72.08v5.29A6.29,6.29,0,0,1,90.09,83.67Z" transform="translate(-1.41 -2.46)"/><path class="cls-12" d="M83.81,77.38v6.29h6.29A6.29,6.29,0,0,0,83.81,77.38Z" transform="translate(-1.41 -2.46)"/><path class="cls-9" d="M135.1,83.67h0A51.29,51.29,0,0,1,83.81,135v6.62a57.91,57.91,0,0,0,57.91-57.91Z" transform="translate(-1.41 -2.46)"/><polygon class="cls-13" points="127.07 81.21 133.69 81.21 133.69 81.21 127.07 81.21 127.07 81.21"/><polygon class="cls-13" points="120.45 81.21 127.07 81.21 127.07 81.21 120.45 81.21 120.45 81.21"/><polygon class="cls-13" points="115.16 81.21 120.45 81.21 120.45 81.21 115.16 81.21 115.16 81.21"/><rect class="cls-13" x="109.86" y="81.21" width="5.29"/><rect class="cls-13" x="104.57" y="81.21" width="5.29"/><polygon class="cls-13" points="99.27 81.21 104.57 81.21 104.57 81.21 99.27 81.21 99.27 81.21"/><polygon class="cls-13" points="93.98 81.21 99.27 81.21 99.27 81.21 93.98 81.21 93.98 81.21"/><polygon class="cls-13" points="88.68 81.21 88.68 81.21 93.98 81.21 93.98 81.21 88.68 81.21"/><polygon class="cls-13" points="88.68 81.21 88.68 81.21 82.39 81.21 88.68 81.21"/><path class="cls-9" d="M128.48,83.67a44.68,44.68,0,0,1-44.68,44.68V135A51.29,51.29,0,0,0,135.1,83.67Z" transform="translate(-1.41 -2.46)"/><path class="cls-9" d="M121.86,83.67a38.06,38.06,0,0,1-38.06,38.06v6.62a44.68,44.68,0,0,0,44.68-44.68Z" transform="translate(-1.41 -2.46)"/><path class="cls-14" d="M116.57,83.67a32.76,32.76,0,0,1-32.76,32.76v5.29a38.06,38.06,0,0,0,38.06-38.06Z" transform="translate(-1.41 -2.46)"/><polygon class="cls-13" points="109.86 81.21 115.16 81.21 115.16 81.21 109.86 81.21 109.86 81.21"/><polygon class="cls-13" points="104.57 81.21 104.57 81.21 109.86 81.21 109.86 81.21 104.57 81.21"/><rect class="cls-13" x="99.27" y="81.21" width="5.29"/><rect class="cls-13" x="93.98" y="81.21" width="5.29"/><polygon class="cls-13" points="88.68 81.21 93.98 81.21 93.98 81.21 88.68 81.21 88.68 81.21"/><polygon class="cls-13" points="88.68 81.21 88.68 81.21 82.39 81.21 88.68 81.21"/><path class="cls-14" d="M116.57,83.67h-5.29a27.47,27.47,0,0,1-27.47,27.47v5.29A32.76,32.76,0,0,0,116.57,83.67Z" transform="translate(-1.41 -2.46)"/><polygon class="cls-13" points="104.57 81.21 109.86 81.21 109.86 81.21 104.57 81.21 104.57 81.21"/><polygon class="cls-13" points="99.27 81.21 104.57 81.21 104.57 81.21 99.27 81.21 99.27 81.21"/><polygon class="cls-13" points="93.98 81.21 99.27 81.21 99.27 81.21 93.98 81.21 93.98 81.21"/><polygon class="cls-13" points="88.68 81.21 93.98 81.21 93.98 81.21 88.68 81.21 88.68 81.21"/><polygon class="cls-13" points="88.68 81.21 88.68 81.21 82.39 81.21 88.68 81.21"/><path class="cls-14" d="M106,83.67a22.17,22.17,0,0,1-22.17,22.17v5.29a27.47,27.47,0,0,0,27.47-27.47Z" transform="translate(-1.41 -2.46)"/><polygon class="cls-13" points="99.27 81.21 104.57 81.21 104.57 81.21 99.27 81.21 99.27 81.21"/><rect class="cls-13" x="93.98" y="81.21" width="5.29"/><rect class="cls-13" x="88.68" y="81.21" width="5.29"/><polygon class="cls-13" points="88.68 81.21 88.68 81.21 82.39 81.21 88.68 81.21"/><path class="cls-14" d="M100.68,83.67a16.88,16.88,0,0,1-16.88,16.88v5.29A22.17,22.17,0,0,0,106,83.67Z" transform="translate(-1.41 -2.46)"/><polygon class="cls-13" points="93.98 81.21 99.27 81.21 99.27 81.21 93.98 81.21 93.98 81.21"/><polygon class="cls-13" points="88.68 81.21 93.98 81.21 93.98 81.21 88.68 81.21 88.68 81.21"/><polygon class="cls-13" points="88.68 81.21 88.68 81.21 82.39 81.21 88.68 81.21"/><path class="cls-14" d="M95.39,83.67A11.58,11.58,0,0,1,83.81,95.25v5.29a16.88,16.88,0,0,0,16.88-16.88Z" transform="translate(-1.41 -2.46)"/><rect class="cls-13" x="88.68" y="81.21" width="5.29"/><polygon class="cls-13" points="88.68 81.21 88.68 81.21 82.39 81.21 88.68 81.21"/><path class="cls-14" d="M90.09,83.67A6.29,6.29,0,0,1,83.81,90v5.29A11.58,11.58,0,0,0,95.39,83.67Z" transform="translate(-1.41 -2.46)"/><path class="cls-14" d="M83.81,90a6.29,6.29,0,0,0,6.29-6.29H83.81Z" transform="translate(-1.41 -2.46)"/><path class="cls-15" d="M143.09,130c0,1.06-.31,1.92-.68,1.92s-.71-.86-.71-1.92.33-1.88.71-1.88S143.09,128.93,143.09,130Z" transform="translate(-1.41 -2.46)"/><path class="cls-16" d="M141.56,131.25h.52s0,.66.31.66h-.83Z" transform="translate(-1.41 -2.46)"/><path class="cls-17" d="M146.07,142.09a12,12,0,0,0-.84,1,2.07,2.07,0,0,0-.32,1.15h-.46a2.47,2.47,0,0,1,.37-1.37,11.89,11.89,0,0,1,.81-1,2.37,2.37,0,0,0,.5-.69h-1.67v-.46h2.19A2,2,0,0,1,146.07,142.09Z" transform="translate(-1.41 -2.46)"/><path class="cls-17" d="M149.69,143.09a1.25,1.25,0,0,1-2.5,0V142a1.25,1.25,0,0,1,2.5,0Zm-.47-1.07a.75.75,0,0,0-.23-.55.79.79,0,0,0-1.11,0,.75.75,0,0,0-.23.55v1.07a.78.78,0,0,0,1.57,0Z" transform="translate(-1.41 -2.46)"/><path class="cls-17" d="M151.33,141.72a.6.6,0,1,1-.43-.18A.58.58,0,0,1,151.33,141.72Zm1.38-.28-2,2.88-.37-.26,2-2.88Zm-1.8.55a.15.15,0,0,0-.11,0,.15.15,0,0,0,0,.11.15.15,0,0,0,0,.11.15.15,0,0,0,.11,0,.15.15,0,0,0,.11,0,.15.15,0,0,0,0-.11.15.15,0,0,0,0-.11A.15.15,0,0,0,150.9,142Zm1.64.94a.61.61,0,0,1,0,.86.61.61,0,0,1-.86-.86.61.61,0,0,1,.86,0Zm-.43.27a.16.16,0,0,0-.11.26.15.15,0,0,0,.11,0,.15.15,0,0,0,.11,0,.15.15,0,0,0,0-.22A.16.16,0,0,0,152.12,143.21Z" transform="translate(-1.41 -2.46)"/><path class="cls-17" d="M143.9,148.84l.34.31a1.94,1.94,0,0,1-1.32.57,1.8,1.8,0,0,1,0-3.59,1.94,1.94,0,0,1,1.32.57l-.34.31a1.47,1.47,0,0,0-1-.42,1.34,1.34,0,0,0,0,2.67A1.47,1.47,0,0,0,143.9,148.84Z" transform="translate(-1.41 -2.46)"/><path class="cls-17" d="M146,147.24a1.25,1.25,0,1,1-.88.37A1.2,1.2,0,0,1,146,147.24Zm-.55.7a.78.78,0,1,0,.55-.23A.76.76,0,0,0,145.44,147.93Z" transform="translate(-1.41 -2.46)"/><path class="cls-17" d="M148.35,147.73a.81.81,0,0,1,.63-.36v.47a.58.58,0,0,0-.39.16.74.74,0,0,0-.23.52v1.16h-.45v-2.26h.45Z" transform="translate(-1.41 -2.46)"/><path class="cls-17" d="M150,148v1.65h-.46v-2.26H150v.26a.56.56,0,0,1,.57-.39.72.72,0,0,1,.58.26,1,1,0,0,1,.22.65v1.47h-.45v-1.45a.45.45,0,0,0-.14-.33.47.47,0,0,0-.34-.14.47.47,0,0,0-.34.14A.5.5,0,0,0,150,148Z" transform="translate(-1.41 -2.46)"/><path class="cls-17" d="M152.83,149.17a.64.64,0,0,0,.42.1.76.76,0,0,0,.56-.23l.12-.14.46.16a3.05,3.05,0,0,1-.24.31,1.25,1.25,0,1,1-.11-1.87l.11.1.13.14L154,148Zm.76-1.41a.64.64,0,0,0-.34-.06.78.78,0,0,0-.78.78.66.66,0,0,0,.06.35Z" transform="translate(-1.41 -2.46)"/><path class="cls-17" d="M155.41,147.73a.81.81,0,0,1,.63-.36v.47a.58.58,0,0,0-.39.16.74.74,0,0,0-.23.52v1.16H155v-2.26h.45Z" transform="translate(-1.41 -2.46)"/><path class="cls-17" d="M148.89,118.67a10.17,10.17,0,1,0,10.17,10.17A10.17,10.17,0,0,0,148.89,118.67Z" transform="translate(-1.41 -2.46)"/><path class="cls-18" d="M164.13,81.59a1.66,1.66,0,1,0,1.66,1.66A1.66,1.66,0,0,0,164.13,81.59Z" transform="translate(-1.41 -2.46)"/><path class="cls-18" d="M4.67,81.59a1.66,1.66,0,1,0,1.66,1.66A1.66,1.66,0,0,0,4.67,81.59Z" transform="translate(-1.41 -2.46)"/><path class="cls-18" d="M86.06,163.58a1.66,1.66,0,1,0-1.66,1.66A1.66,1.66,0,0,0,86.06,163.58Z" transform="translate(-1.41 -2.46)"/><path class="cls-18" d="M86.06,4.12A1.66,1.66,0,1,0,84.4,5.78,1.66,1.66,0,0,0,86.06,4.12Z" transform="translate(-1.41 -2.46)"/><path class="cls-19" d="M145.39,126.43l-1.67,0a.89.89,0,0,0-.66.18,1.86,1.86,0,0,0-.32.85h-.34l.23-2.27,3.63.08v.47a6.15,6.15,0,0,0-1,1.78,6.86,6.86,0,0,0-.35,2.07c0,.19,0,.43,0,.71s0,.48,0,.58a1.34,1.34,0,0,1-.23.82.84.84,0,0,1-1.21,0,1,1,0,0,1-.19-.68,4.9,4.9,0,0,1,.51-1.76A26,26,0,0,1,145.39,126.43Z" transform="translate(-1.41 -2.46)"/><path class="cls-19" d="M148.83,132a1.49,1.49,0,0,1-.76-.23,1.87,1.87,0,0,1-.6-.61A3.82,3.82,0,0,1,147,130a6.09,6.09,0,0,1,.06-2.91,3.93,3.93,0,0,1,.55-1.18,1.93,1.93,0,0,1,.63-.58,1.47,1.47,0,0,1,.76-.2,1.56,1.56,0,0,1,.77.22,1.73,1.73,0,0,1,.59.6,4,4,0,0,1,.49,1.2,5.77,5.77,0,0,1,.14,1.46,4.76,4.76,0,0,1-.64,2.48A1.71,1.71,0,0,1,148.83,132Zm.69-3.43v-.46a9.77,9.77,0,0,0-.09-2.12c-.08-.29-.24-.43-.48-.44s-.41.13-.5.42a9.81,9.81,0,0,0-.18,2.11V129a9.8,9.8,0,0,0,.09,2.11q.12.43.48.44t.5-.42a9.78,9.78,0,0,0,.18-2.11Z" transform="translate(-1.41 -2.46)"/><path class="cls-19" d="M151.79,128.84a1,1,0,0,1,.31-.72,1,1,0,0,1,.76-.29,1.09,1.09,0,0,1,.51.13.8.8,0,0,1,.34.37,1.1,1.1,0,0,1,.11.52,1.19,1.19,0,0,1-.14.52,1,1,0,0,1-.39.4,1.06,1.06,0,0,1-.54.13,1,1,0,0,1-.7-.31A1,1,0,0,1,151.79,128.84Zm.48,0a1.11,1.11,0,0,0,.13.65.47.47,0,0,0,.8,0,1.35,1.35,0,0,0,.16-.67,1.24,1.24,0,0,0-.11-.61.42.42,0,0,0-.39-.23.47.47,0,0,0-.42.23A1.3,1.3,0,0,0,152.27,128.87Zm3.21-1.1L153,132.4l0,0h-.22l0,0,2.48-4.63,0,0h.22Zm-1.13,3.52a1,1,0,0,1,.31-.72,1,1,0,0,1,.76-.29,1.09,1.09,0,0,1,.51.13.8.8,0,0,1,.34.37,1.14,1.14,0,0,1,.11.51,1.17,1.17,0,0,1-.14.51,1,1,0,0,1-.38.4,1,1,0,0,1-.55.14.94.94,0,0,1-.7-.31A1,1,0,0,1,154.35,131.29Zm.48,0a1.57,1.57,0,0,0,0,.45.58.58,0,0,0,.17.3.44.44,0,0,0,.29.11.46.46,0,0,0,.42-.24,1.35,1.35,0,0,0,.16-.68,1.28,1.28,0,0,0-.11-.61.42.42,0,0,0-.39-.24.48.48,0,0,0-.42.22A1.21,1.21,0,0,0,154.83,131.33Z" transform="translate(-1.41 -2.46)"/><path class="cls-4" d="M150.21,32.45l3-.76a7.74,7.74,0,0,0-4.25-4.53l-1.56,2.7A4.64,4.64,0,0,1,150.21,32.45Z" transform="translate(-1.41 -2.46)"/><path class="cls-5" d="M141.29,34.26a4.61,4.61,0,0,1,.58-2.21l-2.64-1.53A7.66,7.66,0,0,0,145.47,42V38.87A4.63,4.63,0,0,1,141.29,34.26Z" transform="translate(-1.41 -2.46)"/><path class="cls-6" d="M145.93,29.61a4.55,4.55,0,0,1,.49.05l1.6-2.78a7.48,7.48,0,0,0-8.31,2.86l2.67,1.55A4.6,4.6,0,0,1,145.93,29.61Z" transform="translate(-1.41 -2.46)"/><path class="cls-7" d="M153.44,32.58l-3,.75a4.69,4.69,0,0,1,.09.93,4.63,4.63,0,0,1-4.18,4.61V42a7.63,7.63,0,0,0,7-9.39Z" transform="translate(-1.41 -2.46)"/><path class="cls-5" d="M142.46,38.92" transform="translate(-1.41 -2.46)"/><path class="cls-4" d="M150.21,32.45l3-.76a7.74,7.74,0,0,0-4.25-4.53l-1.56,2.7A4.64,4.64,0,0,1,150.21,32.45Z" transform="translate(-1.41 -2.46)"/><path class="cls-20" d="M141.29,34.26a4.61,4.61,0,0,1,.58-2.21l-2.64-1.53A7.66,7.66,0,0,0,145.47,42V38.87A4.63,4.63,0,0,1,141.29,34.26Z" transform="translate(-1.41 -2.46)"/><path class="cls-21" d="M145.93,29.61a4.55,4.55,0,0,1,.49.05l1.6-2.78a7.48,7.48,0,0,0-8.31,2.86l2.67,1.55A4.6,4.6,0,0,1,145.93,29.61Z" transform="translate(-1.41 -2.46)"/><path class="cls-22" d="M153.44,32.58l-3,.75a4.69,4.69,0,0,1,.09.93,4.63,4.63,0,0,1-4.18,4.61V42a7.63,7.63,0,0,0,7-9.39Z" transform="translate(-1.41 -2.46)"/><path class="cls-23" d="M2.94,140.08l1.28,3.52H3.73l-.45-1.24H2.35l-.45,1.24H1.41l1.28-3.52Zm.18,1.82-.3-.82-.3.82Z" transform="translate(-1.41 -2.46)"/><path class="cls-23" d="M5.49,143.59l-1.08-2.26h.51l.68,1.47.68-1.47H6.8l-1.08,2.26Z" transform="translate(-1.41 -2.46)"/><path class="cls-23" d="M8,143.08a.64.64,0,0,0,.42.1.76.76,0,0,0,.56-.23l.12-.14.46.16a2.9,2.9,0,0,1-.24.31,1.25,1.25,0,1,1-.11-1.87l.11.1.13.14-.23.23Zm.76-1.41a.64.64,0,0,0-.34-.06.78.78,0,0,0-.78.78.65.65,0,0,0,.06.35Z" transform="translate(-1.41 -2.46)"/><path class="cls-23" d="M10.54,141.64a.81.81,0,0,1,.63-.36v.47a.58.58,0,0,0-.4.16.74.74,0,0,0-.23.52v1.16h-.45v-2.26h.45Z" transform="translate(-1.41 -2.46)"/><path class="cls-23" d="M13.63,141.49v-.16h.46v2.26h-.46v-.28a1,1,0,0,1-.76.34,1.25,1.25,0,1,1,0-2.5A1,1,0,0,1,13.63,141.49Zm0,1.08v-.33a.73.73,0,0,0-.21-.39.79.79,0,0,0-1.11,0,.78.78,0,0,0,.55,1.34.76.76,0,0,0,.55-.23A.74.74,0,0,0,13.63,142.57Z" transform="translate(-1.41 -2.46)"/><path class="cls-23" d="M16.8,141.49v-.16h.46V143a1.38,1.38,0,0,1-.36,1,1.38,1.38,0,0,1-1.77,0,3,3,0,0,1-.24-.3l.45-.16.12.14a.76.76,0,0,0,.55.23q.54,0,.75-.71a.76.76,0,0,1-.73.41,1.22,1.22,0,0,1-.88-.36,1.17,1.17,0,0,1-.37-.87A1.25,1.25,0,0,1,16,141.15,1,1,0,0,1,16.8,141.49Zm0,.74a.74.74,0,0,0-.21-.38.78.78,0,1,0,0,1.11.74.74,0,0,0,.21-.37Z" transform="translate(-1.41 -2.46)"/><path class="cls-23" d="M18.74,143.08a.64.64,0,0,0,.42.1.76.76,0,0,0,.56-.23l.12-.14.46.16a2.9,2.9,0,0,1-.24.31,1.25,1.25,0,1,1-.11-1.87l.11.1.13.14-.23.23Zm.76-1.41a.64.64,0,0,0-.34-.06.78.78,0,0,0-.78.78.65.65,0,0,0,.06.35Z" transform="translate(-1.41 -2.46)"/><path class="cls-23" d="M23.49,141.15a1.25,1.25,0,1,1-.88.37A1.2,1.2,0,0,1,23.49,141.15Zm-.56.7a.78.78,0,1,0,.56-.23A.76.76,0,0,0,22.93,141.85Z" transform="translate(-1.41 -2.46)"/><path class="cls-23" d="M25.88,141.78v1.81h-.46v-1.81h-.2v-.46h.2v-.41a.72.72,0,0,1,.22-.48.68.68,0,0,1,.48-.19,1.45,1.45,0,0,1,.41.09l-.15.43a1,1,0,0,0-.24-.08.27.27,0,0,0-.18.08.26.26,0,0,0-.08.17v.39h.41v.46Z" transform="translate(-1.41 -2.46)"/><path class="cls-23" d="M3.18,145.48,4.46,149H4l-.45-1.24H2.6L2.14,149H1.66l1.28-3.52Zm.18,1.82-.3-.82-.3.82Z" transform="translate(-1.41 -2.46)"/><path class="cls-23" d="M5.5,145.48V149H5v-3.52Z" transform="translate(-1.41 -2.46)"/><path class="cls-23" d="M6.74,145.48V149H6.28v-3.52Z" transform="translate(-1.41 -2.46)"/><path class="cls-23" d="M9.85,147.19a1.53,1.53,0,0,1-.6-.36.78.78,0,0,1-.23-.57.82.82,0,0,1,1.4-.58,1,1,0,0,1,.23.42l-.41.16a.81.81,0,0,0-.14-.26.37.37,0,0,0-.52.52,1.16,1.16,0,0,0,.33.22,1.74,1.74,0,0,1,.7.42,1,1,0,0,1,.32.77,1.1,1.1,0,0,1-1.87.78,1.23,1.23,0,0,1-.33-.71l.44-.16a.9.9,0,0,0,.2.55.64.64,0,1,0,.91-.91A1.33,1.33,0,0,0,9.85,147.19Z" transform="translate(-1.41 -2.46)"/><path class="cls-23" d="M11.76,146.73v-.85h.45v.85h.41v.45h-.41V149h-.45v-1.81h-.41v-.45Z" transform="translate(-1.41 -2.46)"/><path class="cls-23" d="M14.16,149a.93.93,0,0,1-.69-.26.91.91,0,0,1-.27-.66v-1.37h.46v1.36a.45.45,0,0,0,.14.34.49.49,0,0,0,.36.14.47.47,0,0,0,.34-.14.46.46,0,0,0,.14-.34v-1.36h.46v1.38a.9.9,0,0,1-.94.92Z" transform="translate(-1.41 -2.46)"/><path class="cls-23" d="M17.79,146.89v-1.41h.46V149h-.46v-.28a1,1,0,0,1-.77.34,1.25,1.25,0,0,1,0-2.5A1,1,0,0,1,17.79,146.89Zm0,1.08v-.34a.73.73,0,0,0-.21-.39.78.78,0,1,0,0,1.11A.73.73,0,0,0,17.79,148Z" transform="translate(-1.41 -2.46)"/><path class="cls-23" d="M19.73,148.48a.64.64,0,0,0,.42.1.76.76,0,0,0,.56-.23l.12-.14.46.16a2.9,2.9,0,0,1-.24.31,1.25,1.25,0,1,1-.11-1.87l.11.1.13.14-.23.23Zm.76-1.41a.64.64,0,0,0-.34-.06.78.78,0,0,0-.78.78.65.65,0,0,0,.06.35Z" transform="translate(-1.41 -2.46)"/><path class="cls-23" d="M22.32,147.34V149h-.46v-2.26h.46V147a.56.56,0,0,1,.57-.39.72.72,0,0,1,.58.26,1,1,0,0,1,.22.65V149h-.45v-1.45a.45.45,0,0,0-.14-.33.47.47,0,0,0-.34-.14.47.47,0,0,0-.34.14A.51.51,0,0,0,22.32,147.34Z" transform="translate(-1.41 -2.46)"/><path class="cls-23" d="M24.69,146.73v-.85h.45v.85h.41v.45h-.41V149h-.45v-1.81h-.41v-.45Z" transform="translate(-1.41 -2.46)"/><path class="cls-23" d="M26.56,148.51a.27.27,0,0,0,.19.08.27.27,0,0,0,.27-.28.26.26,0,0,0-.08-.19,1.58,1.58,0,0,0-.23-.17,1.58,1.58,0,0,1-.35-.24.59.59,0,0,1-.18-.43.62.62,0,0,1,.62-.62.58.58,0,0,1,.42.17.55.55,0,0,1,.15.27l-.44.13a.2.2,0,0,0,0-.07.14.14,0,0,0-.11,0,.16.16,0,0,0-.11.27l.19.13a1.8,1.8,0,0,1,.4.27.73.73,0,0,1,0,1,.72.72,0,0,1-1,0,.71.71,0,0,1-.19-.37l.45-.1A.28.28,0,0,0,26.56,148.51Z" transform="translate(-1.41 -2.46)"/><ellipse class="cls-19" cx="144.52" cy="31.81" rx="5.79" ry="5.8"/><path class="cls-24" d="M21.55,24.1A10.17,10.17,0,1,0,31.72,34.26,10.17,10.17,0,0,0,21.55,24.1Z" transform="translate(-1.41 -2.46)"/><path class="cls-19" d="M24.4,34.38a3.18,3.18,0,0,1-5.7,0h0a2.06,2.06,0,0,0-1.78,1.84v2.64a2,2,0,0,0,1.65,1.59h6a1.82,1.82,0,0,0,1.56-1.69V36A2.06,2.06,0,0,0,24.4,34.38Z" transform="translate(-1.41 -2.46)"/><circle class="cls-19" cx="25.99" cy="28.76" r="1.87"/><path class="cls-19" d="M29.21,32.71a1.29,1.29,0,0,1,1.12,1.14V35.5a1.24,1.24,0,0,1-1,1l-2.7,0a2,2,0,0,0-1.81-2.26,2.39,2.39,0,0,0,.4-1.37c0-.15.3-.13.49-.16A2.17,2.17,0,0,0,29.21,32.71Z" transform="translate(-1.41 -2.46)"/><circle class="cls-19" cx="14.28" cy="28.64" r="1.87"/><path class="cls-19" d="M13.89,32.6a1.29,1.29,0,0,0-1.12,1.14v1.64a1.24,1.24,0,0,0,1,1l2.7,0a2.16,2.16,0,0,1,1.81-2.26,3.88,3.88,0,0,1-.4-1.37.83.83,0,0,0-.49-.16A2.17,2.17,0,0,1,13.89,32.6Z" transform="translate(-1.41 -2.46)"/><circle class="cls-19" cx="20.18" cy="30.12" r="3.1"/><path class="cls-25" d="M17.25,7.52,18.53,11H18l-.45-1.24h-.93L16.21,11h-.49L17,7.52Zm.18,1.82-.3-.82-.3.82Z" transform="translate(-1.41 -2.46)"/><path class="cls-25" d="M19.64,7.52V11h-.46V7.52Z" transform="translate(-1.41 -2.46)"/><path class="cls-25" d="M21.44,9.91H21V11h-.45V7.52h1a1.21,1.21,0,0,1,.72.35,1.2,1.2,0,0,1,0,1.69,1,1,0,0,1-.37.27l.78,1.2h-.55ZM21,8V9.45h.42a.74.74,0,0,0,0-1.48Z" transform="translate(-1.41 -2.46)"/><path class="cls-25" d="M24.08,10.42l-.51,1.05h-.43l.28-1.05Z" transform="translate(-1.41 -2.46)"/><path class="cls-25" d="M15.34,14.63a1.53,1.53,0,0,1-.61-.36.78.78,0,0,1-.23-.57.82.82,0,0,1,1.4-.58,1,1,0,0,1,.23.42l-.41.16a.8.8,0,0,0-.14-.26.37.37,0,0,0-.52,0,.37.37,0,0,0,0,.52,1.16,1.16,0,0,0,.33.22,1.74,1.74,0,0,1,.7.42,1.1,1.1,0,1,1-1.55,1.55,1.23,1.23,0,0,1-.33-.71l.44-.16a.9.9,0,0,0,.2.55.64.64,0,0,0,.91-.91A1.34,1.34,0,0,0,15.34,14.63Z" transform="translate(-1.41 -2.46)"/><path class="cls-25" d="M17.25,14.17v-.85h.45v.85h.41v.45H17.7v1.81h-.45V14.63h-.41v-.45Z" transform="translate(-1.41 -2.46)"/><path class="cls-25" d="M20.63,14.33v-.16h.46v2.26h-.46v-.28a1,1,0,0,1-.76.34,1.25,1.25,0,1,1,0-2.5A1,1,0,0,1,20.63,14.33Zm0,1.08v-.33a.72.72,0,0,0-.21-.39.78.78,0,1,0,0,1.11A.72.72,0,0,0,20.63,15.41Z" transform="translate(-1.41 -2.46)"/><path class="cls-25" d="M22.09,14.17v-.85h.45v.85H23v.45h-.41v1.81h-.45V14.63h-.41v-.45Z" transform="translate(-1.41 -2.46)"/><path class="cls-25" d="M24.25,15.92a.64.64,0,0,0,.42.1.76.76,0,0,0,.56-.23l.12-.14.46.16a3.05,3.05,0,0,1-.24.31,1.25,1.25,0,1,1-.11-1.87l.11.1.13.14-.23.23ZM25,14.52a.64.64,0,0,0-.34-.06.78.78,0,0,0-.78.78.66.66,0,0,0,.06.35Z" transform="translate(-1.41 -2.46)"/><path class="cls-25" d="M27.13,15.82l-.51,1.05h-.43l.28-1.05Z" transform="translate(-1.41 -2.46)"/><path class="cls-25" d="M12.11,21l.34.31a1.94,1.94,0,0,1-1.32.57,1.8,1.8,0,0,1,0-3.59,1.94,1.94,0,0,1,1.32.57l-.34.31a1.47,1.47,0,0,0-1-.42,1.34,1.34,0,0,0,0,2.67A1.47,1.47,0,0,0,12.11,21Z" transform="translate(-1.41 -2.46)"/><path class="cls-25" d="M13.61,18.74a.32.32,0,0,1,0,.45.32.32,0,0,1-.45,0,.32.32,0,0,1,0-.45.32.32,0,0,1,.45,0Zm0,.84v2.26h-.46V19.57Z" transform="translate(-1.41 -2.46)"/><path class="cls-25" d="M14.63,19.57v-.85h.45v.85h.41V20h-.41v1.81h-.45V20h-.41v-.45Z" transform="translate(-1.41 -2.46)"/><path class="cls-25" d="M16.71,22.59h-.48l.6-1.26L16,19.57h.51l.57,1.24.57-1.24h.51Z" transform="translate(-1.41 -2.46)"/><path class="cls-25" d="M21.09,20.71h-.42v1.13h-.45V18.32h1a1.21,1.21,0,0,1,.72.35,1.2,1.2,0,0,1,0,1.69,1,1,0,0,1-.37.27l.78,1.2h-.55Zm-.42-1.93v1.48h.42a.74.74,0,0,0,0-1.48Z" transform="translate(-1.41 -2.46)"/><path class="cls-25" d="M24.83,19.73v-.16h.46v2.26h-.46v-.28a1,1,0,0,1-.76.34,1.25,1.25,0,1,1,0-2.5A1,1,0,0,1,24.83,19.73Zm0,1.08v-.33a.72.72,0,0,0-.21-.39.78.78,0,1,0,0,1.11A.72.72,0,0,0,24.83,20.81Z" transform="translate(-1.41 -2.46)"/><path class="cls-25" d="M26.53,20.18v1.65h-.46V19.57h.46v.26a.56.56,0,0,1,.57-.39.72.72,0,0,1,.58.26,1,1,0,0,1,.22.65v1.47h-.45V20.38a.45.45,0,0,0-.14-.34.47.47,0,0,0-.34-.14.48.48,0,0,0-.34.14A.51.51,0,0,0,26.53,20.18Z" transform="translate(-1.41 -2.46)"/><path class="cls-25" d="M30.08,19.57l-.61.76.85,1.5h-.54l-.62-1.13,0,0v1.1h-.46V18.72h.46V20l.35-.43Z" transform="translate(-1.41 -2.46)"/><path class="cls-25" d="M31.25,21.35a.27.27,0,0,0,.19.08.27.27,0,0,0,.27-.27.26.26,0,0,0-.08-.19,1.62,1.62,0,0,0-.24-.17,1.58,1.58,0,0,1-.35-.24.59.59,0,0,1-.18-.43.6.6,0,0,1,.18-.44.59.59,0,0,1,.43-.18.57.57,0,0,1,.42.17.55.55,0,0,1,.15.27l-.44.13a.2.2,0,0,0,0-.07.14.14,0,0,0-.11,0,.15.15,0,0,0-.11,0,.16.16,0,0,0,0,.23l.19.13a1.83,1.83,0,0,1,.4.27.73.73,0,0,1-.51,1.24.7.7,0,0,1-.51-.22.7.7,0,0,1-.19-.37l.45-.1A.28.28,0,0,0,31.25,21.35Z" transform="translate(-1.41 -2.46)"/><path class="cls-26" d="M142.54,7.1l1.28,3.52h-.48l-.45-1.24H142l-.45,1.24H141L142.3,7.1Zm.18,1.82-.3-.82-.3.82Z" transform="translate(-1.41 -2.46)"/><path class="cls-26" d="M144.86,7.1v3.52h-.46V7.1Z" transform="translate(-1.41 -2.46)"/><path class="cls-26" d="M146.1,7.1v3.52h-.46V7.1Z" transform="translate(-1.41 -2.46)"/><path class="cls-26" d="M148.81,7.1v3.52h-.46V7.1Z" transform="translate(-1.41 -2.46)"/><path class="cls-26" d="M150.14,9v1.65h-.46V8.36h.46v.26a.56.56,0,0,1,.57-.39.72.72,0,0,1,.58.26,1,1,0,0,1,.22.65v1.47h-.45V9.16a.45.45,0,0,0-.14-.34.47.47,0,0,0-.34-.14.48.48,0,0,0-.34.14A.51.51,0,0,0,150.14,9Z" transform="translate(-1.41 -2.46)"/><path class="cls-26" d="M154.22,8.51V7.1h.46v3.52h-.46v-.28a1,1,0,0,1-.77.34,1.25,1.25,0,0,1-.88-2.14,1.2,1.2,0,0,1,.88-.37A1,1,0,0,1,154.22,8.51Zm0,1.08V9.26a.73.73,0,0,0-.21-.39.78.78,0,0,0-1.11,0,.76.76,0,0,0-.23.55A.78.78,0,0,0,154,10,.73.73,0,0,0,154.22,9.59Z" transform="translate(-1.41 -2.46)"/><path class="cls-26" d="M155.93,7.52a.32.32,0,0,1,0,.45.32.32,0,0,1-.45,0,.32.32,0,0,1,0-.45.32.32,0,0,1,.45,0Zm0,.84v2.26h-.46V8.36Z" transform="translate(-1.41 -2.46)"/><path class="cls-26" d="M158.65,8.51V8.36h.46v2.26h-.46v-.28a1,1,0,0,1-.76.34,1.25,1.25,0,1,1,0-2.5A1,1,0,0,1,158.65,8.51Zm0,1.08V9.26a.72.72,0,0,0-.21-.39.78.78,0,1,0,0,1.11A.72.72,0,0,0,158.65,9.59Z" transform="translate(-1.41 -2.46)"/><path class="cls-26" d="M140.55,14.21a1.53,1.53,0,0,1-.61-.36.78.78,0,0,1-.23-.57.82.82,0,0,1,1.4-.58,1,1,0,0,1,.23.42l-.41.16a.8.8,0,0,0-.14-.26.37.37,0,0,0-.52,0,.37.37,0,0,0,0,.52,1.16,1.16,0,0,0,.33.22,1.74,1.74,0,0,1,.7.42,1.1,1.1,0,1,1-1.55,1.55,1.23,1.23,0,0,1-.33-.71l.44-.16a.9.9,0,0,0,.2.55.64.64,0,0,0,.91-.91A1.34,1.34,0,0,0,140.55,14.21Z" transform="translate(-1.41 -2.46)"/><path class="cls-26" d="M142.75,12.5V16h-.46V12.5Z" transform="translate(-1.41 -2.46)"/><path class="cls-26" d="M145.46,13.91v-.16h.46V16h-.46v-.28a1,1,0,0,1-.76.34,1.25,1.25,0,1,1,0-2.5A1,1,0,0,1,145.46,13.91Zm0,1.08v-.33a.72.72,0,0,0-.21-.39.78.78,0,1,0,0,1.11A.72.72,0,0,0,145.46,15Z" transform="translate(-1.41 -2.46)"/><path class="cls-26" d="M147.15,15.74V16h-.45V12.5h.45v1.41a1,1,0,0,1,.77-.34,1.25,1.25,0,0,1,0,2.5A1,1,0,0,1,147.15,15.74Zm0-1.09V15a.74.74,0,0,0,.21.38.78.78,0,1,0,0-1.11A.74.74,0,0,0,147.15,14.65Z" transform="translate(-1.41 -2.46)"/><path class="cls-26" d="M149.88,14.45h1.47v.46h-1.47Z" transform="translate(-1.41 -2.46)"/><path class="cls-26" d="M153.11,15.35V13.76h.46v1.55a.28.28,0,0,0,.27.28c.18,0,.27-.11.27-.34v-1.5h.46v1.58a.71.71,0,0,1-.21.49.7.7,0,0,1-.51.22.65.65,0,0,1-.5-.21.66.66,0,0,1-.5.21.73.73,0,0,1-.73-.71V13.76h.45v1.5q0,.34.27.34a.27.27,0,0,0,.19-.08A.26.26,0,0,0,153.11,15.35Z" transform="translate(-1.41 -2.46)"/><path class="cls-26" d="M155.81,12.92a.32.32,0,0,1,0,.45.32.32,0,0,1-.45,0,.32.32,0,0,1,0-.45.32.32,0,0,1,.45,0Zm0,.84V16h-.46V13.76Z" transform="translate(-1.41 -2.46)"/><path class="cls-26" d="M157,15.53a.27.27,0,0,0,.19.08.27.27,0,0,0,.27-.27.26.26,0,0,0-.08-.19,1.62,1.62,0,0,0-.24-.17,1.58,1.58,0,0,1-.35-.24.59.59,0,0,1-.18-.43.6.6,0,0,1,.18-.44.59.59,0,0,1,.43-.18.57.57,0,0,1,.42.17.55.55,0,0,1,.15.27l-.44.13a.2.2,0,0,0,0-.07.14.14,0,0,0-.11,0,.15.15,0,0,0-.11,0,.16.16,0,0,0,0,.23l.19.13a1.83,1.83,0,0,1,.4.27.73.73,0,0,1-.51,1.24.7.7,0,0,1-.51-.22.7.7,0,0,1-.19-.37l.45-.1A.28.28,0,0,0,157,15.53Z" transform="translate(-1.41 -2.46)"/><path class="cls-26" d="M159.28,15.5a.64.64,0,0,0,.42.1.76.76,0,0,0,.56-.23l.12-.14.46.16a3.05,3.05,0,0,1-.24.31,1.25,1.25,0,1,1-.11-1.87l.11.1.13.14-.23.23ZM160,14.1a.64.64,0,0,0-.34-.06.78.78,0,0,0-.78.78.66.66,0,0,0,.06.35Z" transform="translate(-1.41 -2.46)"/><path class="cls-26" d="M137.8,20.29v1.13h-.45V17.9h1a1.21,1.21,0,0,1,.72.35,1.2,1.2,0,0,1-.84,2Zm0-1.93v1.48h.42a.74.74,0,0,0,0-1.48Z" transform="translate(-1.41 -2.46)"/><path class="cls-26" d="M140.66,20.9a.64.64,0,0,0,.42.1.76.76,0,0,0,.56-.23l.12-.14.46.16a3.05,3.05,0,0,1-.24.31,1.25,1.25,0,1,1-.11-1.87l.11.1.13.14-.23.23Zm.76-1.41a.64.64,0,0,0-.34-.06.78.78,0,0,0-.78.78.66.66,0,0,0,.06.35Z" transform="translate(-1.41 -2.46)"/><path class="cls-26" d="M143.25,19.46a.81.81,0,0,1,.63-.36v.47a.58.58,0,0,0-.39.16.74.74,0,0,0-.23.52v1.16h-.45V19.16h.45Z" transform="translate(-1.41 -2.46)"/><path class="cls-26" d="M145,19.61v1.81h-.46V19.61h-.2v-.45h.2v-.41a.72.72,0,0,1,.21-.48.68.68,0,0,1,.48-.19,1.45,1.45,0,0,1,.41.09l-.15.43a.93.93,0,0,0-.24-.08.27.27,0,0,0-.18.08.25.25,0,0,0-.08.17v.39h.41v.45Z" transform="translate(-1.41 -2.46)"/><path class="cls-26" d="M147.07,19a1.25,1.25,0,1,1-.88.37A1.2,1.2,0,0,1,147.07,19Zm-.55.7a.76.76,0,0,0-.23.55.78.78,0,0,0,1.57,0,.78.78,0,0,0-1.34-.55Z" transform="translate(-1.41 -2.46)"/><path class="cls-26" d="M149.43,19.46a.81.81,0,0,1,.63-.36v.47a.58.58,0,0,0-.39.16.74.74,0,0,0-.23.52v1.16H149V19.16h.45Z" transform="translate(-1.41 -2.46)"/><path class="cls-26" d="M150.59,19.16H151v.21a.5.5,0,0,1,.51-.33.38.38,0,0,1,.42.38.54.54,0,0,1,.59-.38q.48,0,.48.58v1.8h-.46V19.83c0-.22-.09-.33-.27-.33a.27.27,0,0,0-.19.08c-.05.05-.08.23-.08.53v1.31h-.46V19.83q0-.33-.27-.33a.27.27,0,0,0-.19.08.6.6,0,0,0-.08.36v1.49h-.45Z" transform="translate(-1.41 -2.46)"/><path class="cls-26" d="M155.75,19.31v-.16h.46v2.26h-.46v-.28a1,1,0,0,1-.76.34,1.25,1.25,0,1,1,0-2.5A1,1,0,0,1,155.75,19.31Zm0,1.08v-.33a.72.72,0,0,0-.21-.39.78.78,0,1,0,0,1.11A.72.72,0,0,0,155.75,20.39Z" transform="translate(-1.41 -2.46)"/><path class="cls-26" d="M157.45,19.76v1.65H157V19.16h.46v.26A.56.56,0,0,1,158,19a.72.72,0,0,1,.58.26,1,1,0,0,1,.22.65v1.47h-.45V20a.45.45,0,0,0-.14-.34.47.47,0,0,0-.34-.14.48.48,0,0,0-.34.14A.51.51,0,0,0,157.45,19.76Z" transform="translate(-1.41 -2.46)"/><path class="cls-26" d="M161.39,20.64l.46.16a3.05,3.05,0,0,1-.24.31,1.25,1.25,0,1,1,0-1.77,3.27,3.27,0,0,1,.24.3l-.46.17-.12-.14a.78.78,0,1,0,0,1.11Z" transform="translate(-1.41 -2.46)"/><path class="cls-26" d="M163.15,20.9a.64.64,0,0,0,.42.1.76.76,0,0,0,.56-.23l.12-.14.46.16a3.05,3.05,0,0,1-.24.31,1.25,1.25,0,1,1-.11-1.87l.11.1.13.14-.23.23Zm.76-1.41a.64.64,0,0,0-.34-.06.78.78,0,0,0-.78.78.66.66,0,0,0,.06.35Z" transform="translate(-1.41 -2.46)"/><circle class="cls-23" cx="17.65" cy="127.93" r="10.06"/><rect class="cls-19" x="11.21" y="120.8" width="0.66" height="14.38" rx="0.24" ry="0.24"/><path class="cls-27" d="M14.33,137.23s4.73-28.43,9.89,0" transform="translate(-1.41 -2.46)"/><rect class="cls-19" x="19.01" y="130.68" width="0.6" height="13.36" rx="0.22" ry="0.22" transform="translate(155.26 115.59) rotate(90)"/><rect class="cls-19" x="20.74" y="122.43" width="0.93" height="15.95" transform="translate(150.2 106.74) rotate(90)"/><circle class="cls-23" cx="12.49" cy="127.95" r="0.31"/><circle class="cls-23" cx="13.7" cy="127.95" r="0.31"/><circle class="cls-23" cx="14.77" cy="127.95" r="0.31"/><circle class="cls-23" cx="16.02" cy="127.95" r="0.31"/><circle class="cls-23" cx="17.13" cy="127.95" r="0.31"/><circle class="cls-23" cx="18.24" cy="127.95" r="0.31"/><circle class="cls-23" cx="19.35" cy="127.95" r="0.31"/><circle class="cls-23" cx="20.56" cy="127.95" r="0.31"/><circle class="cls-23" cx="21.67" cy="127.95" r="0.31"/><circle class="cls-23" cx="22.77" cy="127.95" r="0.31"/><circle class="cls-23" cx="23.88" cy="127.95" r="0.31"/><circle class="cls-23" cx="24.99" cy="127.95" r="0.31"/><circle class="cls-23" cx="26.1" cy="127.95" r="0.31"/><circle class="cls-23" cx="27.21" cy="127.95" r="0.31"/></g></g></svg>