<svg id="Layer_1" data-name="Layer 1" xmlns="http://www.w3.org/2000/svg" viewBox="0 0 63 63"><defs><style>.cls-1,.cls-5{fill:none;}.cls-1,.cls-4,.cls-5{stroke:#fb397d;stroke-miterlimit:10;}.cls-1{stroke-width:0.98px;}.cls-2{fill:#fb397d;}.cls-3,.cls-4{fill:#fff;}.cls-4{stroke-width:0.5px;}.cls-5{stroke-width:3.43px;}</style></defs><title>IIT JEE - Advanced</title><rect class="cls-1" x="0.49" y="0.49" width="62.02" height="62.02" rx="6.78" ry="6.78"/><path class="cls-2" d="M26.22,25.47S33.89,14.36,43.74,12l8.6,8.14s-5.16,16.43-24.56,25l-9.06-7.8L19.65,35A28.67,28.67,0,0,0,9,38.3S13.44,21.67,26.22,25.47Z" transform="translate(-0.6 -0.5)"/><path class="cls-2" d="M52.82,19,45,11.65s4.69-2.5,8.87-1.67C53.86,10,54.07,17.07,52.82,19Z" transform="translate(-0.6 -0.5)"/><path class="cls-2" d="M18.16,38.15l8.79,7.39s-5.25,10.38-17,8C9.92,53.55,9.15,42.85,18.16,38.15Z" transform="translate(-0.6 -0.5)"/><path class="cls-3" d="M18.25,40.55,24,45.68s-3.46,7.2-11.24,5.55C12.81,51.23,12.3,43.81,18.25,40.55Z" transform="translate(-0.6 -0.5)"/><path class="cls-3" d="M18.28,42.63l3.58,3.16s-2.13,4.44-6.92,3.42C14.93,49.21,14.61,44.64,18.28,42.63Z" transform="translate(-0.6 -0.5)"/><circle class="cls-3" cx="40.95" cy="21.79" r="2.66"/><circle class="cls-4" cx="37.13" cy="38.3" r="12.09"/><rect class="cls-2" x="34.7" y="29.09" width="2.6" height="1.7" transform="translate(-3.64 3.58) rotate(-6.23)"/><rect class="cls-2" x="29.01" y="32.59" width="2.6" height="1.7" transform="translate(-14.89 39.82) rotate(-56.58)"/><rect class="cls-2" x="44.74" y="36.59" width="2.6" height="1.7" transform="translate(13.8 87.14) rotate(-96.89)"/><rect class="cls-2" x="41.36" y="30.69" width="2.6" height="1.7" transform="translate(27.26 -19.91) rotate(37.33)"/><rect class="cls-2" x="30.8" y="44.76" width="2.6" height="1.7" transform="translate(32.7 -10.65) rotate(36.37)"/><rect class="cls-2" x="27.4" y="39.1" width="2.6" height="1.7" transform="translate(64.23 6.07) rotate(82.95)"/><rect class="cls-2" x="43.04" y="43.06" width="2.6" height="1.7" transform="translate(105.16 32.39) rotate(125.11)"/><rect class="cls-2" x="37.36" y="46.4" width="2.6" height="1.7" transform="translate(-6.2 4.71) rotate(-7.18)"/><circle class="cls-5" cx="37.33" cy="38.58" r="6.54" transform="translate(-10.24 64.09) rotate(-74.93)"/></svg>