<svg id="Layer_1" data-name="Layer 1" xmlns="http://www.w3.org/2000/svg" viewBox="0 0 62.98 62.99"><defs><style>.cls-1,.cls-3,.cls-4,.cls-5{fill:none;stroke:#736ded;stroke-miterlimit:10;}.cls-1{stroke-width:0.98px;}.cls-2{fill:#736ded;}.cls-3{stroke-width:3.83px;}.cls-4{stroke-width:1.44px;}.cls-5{stroke-width:1.92px;}</style></defs><title>iit jee - Mains</title><rect class="cls-1" x="0.49" y="0.49" width="62" height="62.01" rx="6.78" ry="6.78"/><rect class="cls-2" x="34.44" y="8.01" width="4.22" height="2.75" transform="translate(-1.54 13.27) rotate(-21.3)"/><rect class="cls-2" x="27.02" y="15.88" width="4.22" height="2.75" transform="translate(2.95 38.82) rotate(-71.65)"/><rect class="cls-2" x="54.24" y="14.72" width="2.75" height="4.22" transform="translate(-3.03 19.42) rotate(-20.04)"/><rect class="cls-2" x="46.27" y="6.96" width="2.75" height="4.22" transform="translate(20.58 49.08) rotate(-67.75)"/><rect class="cls-2" x="35.62" y="33.61" width="2.75" height="4.22" transform="translate(-10.36 56.56) rotate(-68.7)"/><rect class="cls-2" x="27.96" y="26.13" width="2.75" height="4.22" transform="translate(-8.03 10.02) rotate(-18.35)"/><rect class="cls-2" x="53.37" y="26.36" width="4.22" height="2.75" transform="translate(9.79 69.7) rotate(-69.96)"/><rect class="cls-2" x="45.98" y="34.27" width="4.22" height="2.75" transform="translate(-10.55 20.22) rotate(-22.25)"/><circle class="cls-3" cx="41.65" cy="21.7" r="11.82"/><rect class="cls-2" x="38.73" y="15.77" width="1.94" height="1.26" transform="translate(-3.88 14.9) rotate(-21.3)"/><rect class="cls-2" x="35.32" y="19.39" width="1.94" height="1.26" transform="translate(5.23 47.52) rotate(-71.65)"/><rect class="cls-2" x="47.84" y="18.86" width="1.26" height="1.94" transform="translate(-4.49 17.16) rotate(-20.04)"/><rect class="cls-2" x="44.17" y="15.29" width="1.26" height="1.94" transform="translate(12.15 50.92) rotate(-67.75)"/><rect class="cls-2" x="39.28" y="27.54" width="1.26" height="1.94" transform="translate(-1.79 54.69) rotate(-68.7)"/><rect class="cls-2" x="35.76" y="24.1" width="1.26" height="1.94" transform="translate(-6.68 12.08) rotate(-18.35)"/><rect class="cls-2" x="47.44" y="24.21" width="1.94" height="1.26" transform="translate(7.85 61.16) rotate(-69.96)"/><rect class="cls-2" x="44.04" y="27.85" width="1.94" height="1.26" transform="translate(-8.06 18.52) rotate(-22.25)"/><circle class="cls-4" cx="41.71" cy="21.72" r="5.4"/><circle class="cls-2" cx="41.76" cy="21.73" r="2.08"/><rect class="cls-2" x="34.09" y="39.39" width="2.5" height="1.63" transform="translate(-12.82 14.94) rotate(-21.3)"/><rect class="cls-2" x="29.7" y="44.05" width="2.5" height="1.63" transform="translate(-22.01 59.46) rotate(-71.65)"/><rect class="cls-2" x="45.81" y="43.36" width="1.63" height="2.5" transform="translate(-13.09 18.03) rotate(-20.04)"/><rect class="cls-2" x="41.09" y="38.77" width="1.63" height="2.5" transform="translate(-11.63 63) rotate(-67.75)"/><rect class="cls-2" x="34.79" y="54.54" width="1.63" height="2.5" transform="translate(-29.94 68.05) rotate(-68.7)"/><rect class="cls-2" x="30.32" y="50.11" width="1.63" height="2.5" transform="translate(-17.15 14.15) rotate(-21.28)"/><rect class="cls-2" x="45.3" y="50.25" width="2.5" height="1.63" transform="translate(-18 76.65) rotate(-69.96)"/><rect class="cls-2" x="40.92" y="54.93" width="2.5" height="1.63" transform="translate(-18.6 19.48) rotate(-22.25)"/><circle class="cls-5" cx="38.24" cy="47.23" r="6.95"/><circle class="cls-2" cx="38.24" cy="47.23" r="3.86"/><rect class="cls-2" x="22.79" y="32.74" width="1.59" height="1.04" transform="translate(-11.1 10.19) rotate(-21.3)"/><rect class="cls-2" x="19.99" y="35.71" width="1.59" height="1.04" transform="translate(-20.78 43.91) rotate(-71.65)"/><rect class="cls-2" x="30.16" y="35.31" width="1.04" height="1.59" transform="translate(-11.15 12.05) rotate(-20.04)"/><rect class="cls-2" x="27.25" y="32.35" width="1.04" height="1.59" transform="translate(-14.05 45.65) rotate(-67.75)"/><rect class="cls-2" x="23.22" y="42.32" width="1.04" height="1.59" transform="translate(-25.69 48.92) rotate(-68.7)"/><rect class="cls-2" x="20.33" y="39.5" width="1.04" height="1.59" transform="translate(-12.26 7.97) rotate(-18.35)"/><rect class="cls-2" x="29.91" y="39.59" width="1.59" height="1.04" transform="translate(-18.12 54.57) rotate(-69.96)"/><rect class="cls-2" x="27.07" y="42.53" width="1.59" height="1.04" transform="translate(-14.86 13.11) rotate(-22.25)"/><circle class="cls-4" cx="25.11" cy="37.51" r="4.22"/><circle class="cls-2" cx="25.16" cy="37.52" r="2.23"/><rect class="cls-2" x="13.83" y="13.27" width="2.81" height="1.83" transform="translate(-2.08 1.09) rotate(-6.23)"/><rect class="cls-2" x="7.69" y="17.05" width="2.81" height="1.83" transform="translate(-11.54 15.01) rotate(-56.58)"/><rect class="cls-2" x="25.16" y="20.87" width="1.83" height="2.81" transform="translate(-3.11 2.64) rotate(-6.89)"/><rect class="cls-2" x="21.51" y="14.5" width="1.83" height="2.81" transform="translate(-4.45 23.44) rotate(-52.67)"/><rect class="cls-2" x="10.11" y="29.69" width="1.83" height="2.81" transform="translate(-21.18 20.88) rotate(-53.63)"/><rect class="cls-2" x="6.44" y="23.58" width="1.83" height="2.81" transform="translate(-3.64 0.44) rotate(-7.05)"/><rect class="cls-2" x="22.83" y="28.35" width="2.81" height="1.83" transform="translate(-14.27 31.61) rotate(-54.89)"/><rect class="cls-2" x="16.7" y="31.94" width="2.81" height="1.83" transform="matrix(0.99, -0.13, 0.13, 0.99, -4.6, 1.87)"/><circle class="cls-5" cx="16.67" cy="23.51" r="7.8" transform="translate(-11 32.84) rotate(-74.93)"/><circle class="cls-2" cx="16.74" cy="23.55" r="3.83" transform="translate(-10.99 32.94) rotate(-74.93)"/></svg>