<?xml version="1.0" encoding="utf-8"?>
<!-- Generator: Adobe Illustrator 21.0.0, SVG Export Plug-In . SVG Version: 6.00 Build 0)  -->
<svg version="1.1" id="Layer_1" xmlns="http://www.w3.org/2000/svg" xmlns:xlink="http://www.w3.org/1999/xlink" x="0px" y="0px"
	 viewBox="0 0 63 63" style="enable-background:new 0 0 63 63;" xml:space="preserve">
<style type="text/css">
	.st0{fill:#02B7E4;}
	.st1{fill:none;stroke:#FFFFFF;stroke-width:2.4;stroke-miterlimit:10;}
	.st2{fill:#FFFFFF;}
</style>
<title>94. Stethescope_(Medical)</title>
<g>
	<path class="st0" d="M6.9,0h49.2C59.9,0,63,3.1,63,6.9v49.2c0,3.8-3.1,6.9-6.9,6.9H6.9C3.1,63,0,59.9,0,56.1V6.9C0,3.1,3.1,0,6.9,0
		z"/>
	<path class="st1" d="M26.1,8.9c3.1,0,5.7,2.6,5.7,5.7v10.1c0,4.2-3.4,7.6-7.7,7.7h-5c-4.6,0-8.4-3.8-8.4-8.4v-9.3
		c0-3.1,2.6-5.7,5.7-5.7"/>
	<path class="st1" d="M34.7,39.1V48c0,3.7-2.3,6.8-5,6.8h-3.3c-3,0-5.5-3.4-5.5-7.5V32.6"/>
	<path class="st1" d="M34.7,47.7v-8.9c0-3.7,2.3-6.8,5-6.8H43c3,0,5.5,3.4,5.5,7.5v9"/>
	<circle class="st1" cx="48.6" cy="51.5" r="3.6"/>
	<circle class="st2" cx="25.2" cy="8.8" r="2.1"/>
	<circle class="st2" cx="17.2" cy="8.8" r="2.1"/>
</g>
</svg>
