<svg id="Layer_1" data-name="Layer 1" xmlns="http://www.w3.org/2000/svg" viewBox="0 0 62.98 62.99"><defs><style>.cls-1,.cls-2{fill:none;stroke:#02b7e4;stroke-miterlimit:10;}.cls-1{stroke-width:0.98px;}.cls-2{stroke-width:2.4px;}.cls-3{fill:#02b7e4;}</style></defs><title>Stethescope_(Medical)</title><rect class="cls-1" x="0.49" y="0.49" width="62" height="62.01" rx="6.78" ry="6.78"/><path class="cls-2" d="M26.54,9.82a5.72,5.72,0,0,1,5.7,5.7V25.58a7.68,7.68,0,0,1-7.66,7.66h-5a8.43,8.43,0,0,1-8.41-8.41V15.53a5.72,5.72,0,0,1,5.7-5.7" transform="translate(-0.41 -0.51)"/><path class="cls-2" d="M35.14,40v8.93c0,3.74-2.27,6.8-5,6.8H26.85c-3,0-5.53-3.36-5.53-7.47V33.54" transform="translate(-0.41 -0.51)"/><path class="cls-2" d="M35.12,48.59V39.66c0-3.74,2.27-6.8,5-6.8h3.26c3,0,5.53,3.36,5.53,7.47v8.95" transform="translate(-0.41 -0.51)"/><circle class="cls-2" cx="48.57" cy="51.9" r="3.6"/><circle class="cls-3" cx="25.18" cy="9.19" r="2.1"/><circle class="cls-3" cx="17.16" cy="9.19" r="2.1"/></svg>