<svg id="Layer_1" data-name="Layer 1" xmlns="http://www.w3.org/2000/svg" xmlns:xlink="http://www.w3.org/1999/xlink" viewBox="0 0 92.5 39.67"><defs><style>.cls-1{fill:#fff;}.cls-2{fill:#a3a3a3;}.cls-3{fill:url(#radial-gradient);}.cls-4{fill:#5e57ea;}.cls-5{fill:none;stroke:#5e57ea;}.cls-5,.cls-6{stroke-miterlimit:10;}.cls-6{fill:gray;stroke:gray;}</style><radialGradient id="radial-gradient" cx="20.83" cy="20.65" fx="28.917070360787278" r="8.35" gradientTransform="translate(-3.61 13.88) rotate(-19.28) scale(1 0.7)" gradientUnits="userSpaceOnUse"><stop offset="0.29" stop-color="#f4f4f4"/><stop offset="0.29" stop-color="#f1f1f4"/><stop offset="0.31" stop-color="#cfcdf2"/><stop offset="0.33" stop-color="#b1aef0"/><stop offset="0.35" stop-color="#9792ee"/><stop offset="0.37" stop-color="#827cec"/><stop offset="0.39" stop-color="#726beb"/><stop offset="0.43" stop-color="#6660eb"/><stop offset="0.47" stop-color="#6059ea"/><stop offset="0.59" stop-color="#5e57ea"/><stop offset="0.65" stop-color="#6d66ea"/><stop offset="0.76" stop-color="#938fe8"/><stop offset="0.91" stop-color="#d1d0e7"/><stop offset="0.96" stop-color="#e6e6e6"/></radialGradient></defs><title>Skyget logo_(without slogan)_WITHOUT dropshadow-2</title><rect class="cls-1" width="92.5" height="39.67" rx="19.83" ry="19.83"/><path class="cls-2" d="M15.34,21.67s-1.49,2-1.14,3.41c0,0,.47,1.29,2.39,1a7.16,7.16,0,0,0,3.08-1.27,23.42,23.42,0,0,1,4.17-2.44.64.64,0,0,0,.38-.33c.35-.71,1.11-2.61-.69-2.92a.53.53,0,0,0-.2,0,8.4,8.4,0,0,0-3.58,2.06,12.62,12.62,0,0,1-3.53,1.93S14.93,23.52,15.34,21.67Z" transform="translate(-1.23 -1.04)"/><path class="cls-2" d="M25.37,19.61a2,2,0,0,0-1.94-.53s.8,0,.93,1a5.36,5.36,0,0,1-.3,1.78,13.89,13.89,0,0,1-1,2.22s-2.83,3.73-3.77,4.19l-2.6,2s-.52.91.52.73c0,0,2.71-2,3.47-2.69,0,0,.84-.29.52.37L20,30.16s-.16.8.59.46L22.2,29s.59-.46.34.25-.3,1.28.55.87c0,0,2.07-2.07,2.41-3.35,0,0,2-4.39-.14-7.15" transform="translate(-1.23 -1.04)"/><rect class="cls-2" x="14.35" y="31.55" width="1.95" height="0.75" rx="0.38" ry="0.38" transform="translate(-18.35 16.7) rotate(-40.74)"/><rect class="cls-2" x="18.01" y="31.2" width="1.95" height="0.75" rx="0.38" ry="0.38" transform="translate(-17.23 19.01) rotate(-40.74)"/><rect class="cls-2" x="15.78" y="32.55" width="1.95" height="0.75" rx="0.38" ry="0.38" transform="translate(-18.65 17.87) rotate(-40.74)"/><rect class="cls-2" x="16.08" y="31.66" width="1.49" height="0.36" rx="0.18" ry="0.18" transform="translate(-17.93 17.66) rotate(-40.74)"/><rect class="cls-2" x="18.06" y="30.35" width="1.49" height="0.36" rx="0.18" ry="0.18" transform="translate(-16.6 18.63) rotate(-40.74)"/><rect class="cls-2" x="17.04" y="32.93" width="1.49" height="0.36" rx="0.18" ry="0.18" transform="translate(-18.53 18.59) rotate(-40.74)"/><rect class="cls-2" x="19.57" y="31.26" width="1.49" height="0.36" rx="0.18" ry="0.18" transform="translate(-16.83 19.84) rotate(-40.74)"/><rect class="cls-2" x="20.98" y="29.84" width="1.49" height="0.36" rx="0.18" ry="0.18" transform="translate(-16.33 24.87) rotate(-47.73)"/><rect class="cls-2" x="19.51" y="29.01" width="1.49" height="0.36" rx="0.18" ry="0.18" transform="translate(-15.37 19.25) rotate(-40.74)"/><rect class="cls-2" x="20.64" y="31.03" width="1.95" height="0.75" rx="0.38" ry="0.38" transform="translate(-16.7 21.55) rotate(-42.08)"/><rect class="cls-2" x="18.13" y="32.79" width="1.95" height="0.75" rx="0.38" ry="0.38" transform="translate(-18.53 20.32) rotate(-42.08)"/><path class="cls-2" d="M13.19,21.45s-.11,3.34,1.34,4.07c0,0-.61-3.35,3-6.42l4.3-3.9.56,2.51,3.72-8.18L16.6,11.77l2.54.74S16.7,14.8,16.53,15a11.36,11.36,0,0,0-1.25,1.4s-.72,1.06-1.06,1.71a11.2,11.2,0,0,0-.87,2.24,7.49,7.49,0,0,0-.16,1.1" transform="translate(-1.23 -1.04)"/><rect class="cls-2" x="21.76" y="26.08" width="1.95" height="0.75" rx="0.38" ry="0.38" transform="translate(-13.38 25.88) rotate(-50.07)"/><rect class="cls-2" x="23.3" y="23.34" width="1.95" height="0.75" rx="0.38" ry="0.38" transform="translate(-7.29 37.88) rotate(-70.95)"/><path class="cls-2" d="M13.93,21.71c.22-2.38,3.71-8.26,8.19-9.68.45.23,1.56,1.2.93,1.37C18.8,14.58,13.66,20.94,13.93,21.71Z" transform="translate(-1.23 -1.04)"/><polyline class="cls-2" points="21.55 12.45 21.76 13.82 23.54 9.58 18.42 10.87 20.14 11.26"/><rect class="cls-2" x="22.94" y="27.3" width="1.95" height="0.75" rx="0.38" ry="0.38" transform="translate(-13.73 30.06) rotate(-54.55)"/><rect class="cls-2" x="24.12" y="20.7" width="1.95" height="0.7" rx="0.35" ry="0.35" transform="translate(5.9 47.41) rotate(-96.74)"/><rect class="cls-2" x="24.31" y="24.49" width="1.95" height="0.75" rx="0.38" ry="0.38" transform="translate(-7.7 39.61) rotate(-70.95)"/><path class="cls-3" d="M15.26,21.05s-1.49,2-1.14,3.41c0,0,.47,1.29,2.39,1a7.16,7.16,0,0,0,3.08-1.27,23.42,23.42,0,0,1,4.17-2.44.64.64,0,0,0,.38-.33c.35-.71,1.11-2.61-.69-2.92a.53.53,0,0,0-.2,0,8.4,8.4,0,0,0-3.58,2.06,12.62,12.62,0,0,1-3.53,1.93S14.85,22.9,15.26,21.05Z" transform="translate(-1.23 -1.04)"/><path class="cls-4" d="M25.28,19a2,2,0,0,0-1.94-.53s.8,0,.93,1a5.36,5.36,0,0,1-.3,1.78,13.89,13.89,0,0,1-1,2.22s-2.83,3.73-3.77,4.19l-2.6,2s-.52.91.52.73c0,0,2.71-2,3.47-2.69,0,0,.84-.29.52.37l-1.18,1.39s-.16.8.59.46l1.64-1.62s.59-.46.34.25-.3,1.28.55.87c0,0,2.07-2.07,2.41-3.35,0,0,2-4.39-.14-7.15" transform="translate(-1.23 -1.04)"/><rect class="cls-4" x="14.27" y="30.93" width="1.95" height="0.75" rx="0.38" ry="0.38" transform="translate(-17.97 16.5) rotate(-40.74)"/><rect class="cls-4" x="17.93" y="30.58" width="1.95" height="0.75" rx="0.38" ry="0.38" transform="translate(-16.85 18.8) rotate(-40.74)"/><rect class="cls-4" x="15.69" y="31.93" width="1.95" height="0.75" rx="0.38" ry="0.38" transform="translate(-18.27 17.67) rotate(-40.74)"/><rect class="cls-4" x="15.99" y="31.04" width="1.49" height="0.36" rx="0.18" ry="0.18" transform="translate(-17.55 17.45) rotate(-40.74)"/><rect class="cls-4" x="17.97" y="29.74" width="1.49" height="0.36" rx="0.18" ry="0.18" transform="translate(-16.22 18.43) rotate(-40.74)"/><rect class="cls-4" x="16.95" y="32.32" width="1.49" height="0.36" rx="0.18" ry="0.18" transform="translate(-18.15 18.39) rotate(-40.74)"/><rect class="cls-4" x="19.48" y="30.64" width="1.49" height="0.36" rx="0.18" ry="0.18" transform="translate(-16.44 19.63) rotate(-40.74)"/><rect class="cls-4" x="20.89" y="29.22" width="1.49" height="0.36" rx="0.18" ry="0.18" transform="translate(-15.9 24.6) rotate(-47.73)"/><rect class="cls-4" x="19.42" y="28.39" width="1.49" height="0.36" rx="0.18" ry="0.18" transform="translate(-14.99 19.05) rotate(-40.74)"/><rect class="cls-4" x="20.55" y="30.41" width="1.95" height="0.75" rx="0.38" ry="0.38" transform="translate(-16.31 21.33) rotate(-42.08)"/><rect class="cls-4" x="18.05" y="32.17" width="1.95" height="0.75" rx="0.38" ry="0.38" transform="translate(-18.14 20.1) rotate(-42.08)"/><path class="cls-4" d="M13.1,20.83S13,24.17,14.44,24.9c0,0-.61-3.35,3-6.42l4.3-3.9.56,2.51L26,8.92l-9.48,2.23,2.54.74s-2.44,2.29-2.61,2.5a11.36,11.36,0,0,0-1.25,1.4s-.72,1.06-1.06,1.71a11.2,11.2,0,0,0-.87,2.24,7.49,7.49,0,0,0-.16,1.1" transform="translate(-1.23 -1.04)"/><rect class="cls-1" x="21.67" y="25.47" width="1.95" height="0.75" rx="0.38" ry="0.38" transform="translate(-12.93 25.59) rotate(-50.07)"/><rect class="cls-1" x="23.21" y="22.72" width="1.95" height="0.75" rx="0.38" ry="0.38" transform="translate(-6.77 37.38) rotate(-70.95)"/><path class="cls-1" d="M13.84,21.1c.22-2.38,3.71-8.26,8.19-9.68.45.23,1.56,1.2.93,1.37C18.71,14,13.57,20.32,13.84,21.1Z" transform="translate(-1.23 -1.04)"/><polyline class="cls-1" points="21.47 11.84 21.68 13.21 23.45 8.96 18.33 10.25 20.06 10.64"/><rect class="cls-1" x="22.85" y="26.68" width="1.95" height="0.75" rx="0.38" ry="0.38" transform="translate(-13.26 29.74) rotate(-54.55)"/><rect class="cls-1" x="24.03" y="20.08" width="1.95" height="0.7" rx="0.35" ry="0.35" transform="translate(6.42 46.63) rotate(-96.74)"/><rect class="cls-1" x="24.22" y="23.87" width="1.95" height="0.75" rx="0.38" ry="0.38" transform="translate(-7.17 39.11) rotate(-70.95)"/><path class="cls-5" d="M28.29,27.57V9.45h.62V25.64l5.48-7.48h.76l-3.3,4.54,3.3,4.54h-.76l-2.94-4Z" transform="translate(-1.23 -1.04)"/><circle class="cls-5" cx="78.33" cy="10.76" r="2.72"/><path class="cls-4" d="M78.46,13.33V10.25h1.37a1.82,1.82,0,0,1,.63.08.68.68,0,0,1,.34.29.87.87,0,0,1,.13.46.77.77,0,0,1-.21.55,1.07,1.07,0,0,1-.66.29,1.09,1.09,0,0,1,.25.15,2.16,2.16,0,0,1,.34.41l.54.84h-.51l-.41-.64q-.18-.28-.29-.42a.91.91,0,0,0-.21-.21.62.62,0,0,0-.19-.08h-.7v1.37Zm.41-1.72h.88a1.31,1.31,0,0,0,.44-.06.46.46,0,0,0,.24-.19.5.5,0,0,0,.08-.28.46.46,0,0,0-.16-.36.74.74,0,0,0-.5-.14h-1Z" transform="translate(-1.23 -1.04)"/><path class="cls-6" d="M50.09,30.32l.51-.42a5.24,5.24,0,0,0,6.67,0,3.66,3.66,0,0,0,1.39-2.86v-2.2a5.1,5.1,0,0,1-2,1.73,5.82,5.82,0,0,1-2.74.68,5.68,5.68,0,0,1-3.83-1.37,4.19,4.19,0,0,1,0-6.57A5.71,5.71,0,0,1,53.95,18a5.83,5.83,0,0,1,2.75.7,4.9,4.9,0,0,1,2,1.76V18.17h.7v8.88a4.2,4.2,0,0,1-1.59,3.29,5.68,5.68,0,0,1-3.83,1.37A5.6,5.6,0,0,1,50.09,30.32Zm.53-4.86a5.26,5.26,0,0,0,6.66,0,3.63,3.63,0,0,0,0-5.72,5.26,5.26,0,0,0-6.66,0,3.64,3.64,0,0,0,0,5.72Z" transform="translate(-1.23 -1.04)"/><path class="cls-6" d="M70.93,25.48l.46.42a5.8,5.8,0,0,1-3.78,1.37,5.69,5.69,0,0,1-3.83-1.36,4.2,4.2,0,0,1,0-6.57A5.67,5.67,0,0,1,67.62,18a5.79,5.79,0,0,1,3.8,1.38l-7.12,6.12a4.77,4.77,0,0,0,3.32,1.19A4.91,4.91,0,0,0,70.93,25.48ZM63.84,25,70.4,19.4a5.15,5.15,0,0,0-6.11.36,3.66,3.66,0,0,0-1.39,2.86A3.54,3.54,0,0,0,63.84,25Z" transform="translate(-1.23 -1.04)"/><path class="cls-6" d="M74.12,27.05V14.46h.7v3.71h2.8v.6h-2.8v8.28Z" transform="translate(-1.23 -1.04)"/><path class="cls-5" d="M39.72,32.31,42.47,27,38,18.21h.69l4.17,8.09L47,18.21h.69L40.4,32.31Z" transform="translate(-1.23 -1.04)"/></svg>