<svg id="Layer_1" data-name="Layer 1" xmlns="http://www.w3.org/2000/svg" xmlns:xlink="http://www.w3.org/1999/xlink" viewBox="0 0 135 48.85"><defs><style>.cls-1{fill:#a3a3a3;}.cls-2{fill:url(#radial-gradient);}.cls-3{fill:#5e57ea;}.cls-4{fill:#fff;}.cls-5,.cls-6{fill:none;stroke:#5e57ea;}.cls-5,.cls-6,.cls-7{stroke-miterlimit:10;}.cls-5{stroke-width:2px;}.cls-7{fill:gray;stroke:gray;stroke-width:3px;}</style><radialGradient id="radial-gradient" cx="23.59" cy="33.3" fx="39.3243148243636" r="16.24" gradientTransform="translate(-6.37 19.09) rotate(-19.28) scale(1 0.7)" gradientUnits="userSpaceOnUse"><stop offset="0.29" stop-color="#f4f4f4"/><stop offset="0.29" stop-color="#f1f1f4"/><stop offset="0.31" stop-color="#cfcdf2"/><stop offset="0.33" stop-color="#b1aef0"/><stop offset="0.35" stop-color="#9792ee"/><stop offset="0.37" stop-color="#827cec"/><stop offset="0.39" stop-color="#726beb"/><stop offset="0.43" stop-color="#6660eb"/><stop offset="0.47" stop-color="#6059ea"/><stop offset="0.59" stop-color="#5e57ea"/><stop offset="0.65" stop-color="#6d66ea"/><stop offset="0.76" stop-color="#938fe8"/><stop offset="0.91" stop-color="#d1d0e7"/><stop offset="0.96" stop-color="#e6e6e6"/></radialGradient></defs><title>Skyget_logo-1_(without slogan)_(without BG Box)_svg</title><path class="cls-1" d="M12.85,36s-2.91,3.93-2.22,6.64c0,0,.91,2.51,4.64,1.88a13.93,13.93,0,0,0,6-2.48s5.44-3.9,8.1-4.75a1.25,1.25,0,0,0,.75-.64c.68-1.37,2.15-5.08-1.33-5.67a1,1,0,0,0-.39,0,16.34,16.34,0,0,0-7,4S17,38.28,14.55,38.72C14.55,38.72,12,39.54,12.85,36Z" transform="translate(-8.49 -10.97)"/><path class="cls-1" d="M32.34,31.94a3.86,3.86,0,0,0-3.78-1s1.55,0,1.81,2a10.42,10.42,0,0,1-.58,3.47,27,27,0,0,1-2,4.32S22.24,48,20.43,48.87l-5,4s-1,1.77,1,1.42c0,0,5.28-3.91,6.74-5.24,0,0,1.63-.56,1,.72l-2.3,2.7S21.54,54,23,53.35l3.19-3.14s1.15-.89.66.49-.58,2.48,1.06,1.68c0,0,4-4,4.69-6.51,0,0,3.86-8.53-.27-13.91" transform="translate(-8.49 -10.97)"/><rect class="cls-1" x="10.92" y="55.16" width="3.79" height="1.47" rx="0.73" ry="0.73" transform="translate(-41.86 10.94) rotate(-40.74)"/><rect class="cls-1" x="18.04" y="54.48" width="3.79" height="1.47" rx="0.73" ry="0.73" transform="translate(-39.69 15.41) rotate(-40.74)"/><rect class="cls-1" x="13.69" y="57.1" width="3.79" height="1.47" rx="0.73" ry="0.73" transform="translate(-42.45 13.21) rotate(-40.74)"/><rect class="cls-1" x="14.27" y="55.37" width="2.89" height="0.71" rx="0.35" ry="0.35" transform="translate(-41.04 12.79) rotate(-40.74)"/><rect class="cls-1" x="18.12" y="52.84" width="2.89" height="0.71" rx="0.35" ry="0.35" transform="translate(-38.46 14.69) rotate(-40.74)"/><rect class="cls-1" x="16.14" y="57.85" width="2.89" height="0.71" rx="0.35" ry="0.35" transform="translate(-42.21 14.61) rotate(-40.74)"/><rect class="cls-1" x="21.06" y="54.6" width="2.89" height="0.71" rx="0.35" ry="0.35" transform="translate(-38.9 17.03) rotate(-40.74)"/><rect class="cls-1" x="23.81" y="51.84" width="2.89" height="0.71" rx="0.35" ry="0.35" transform="translate(-38.84 24.8) rotate(-47.73)"/><rect class="cls-1" x="20.95" y="50.23" width="2.89" height="0.71" rx="0.35" ry="0.35" transform="translate(-36.07 15.9) rotate(-40.74)"/><rect class="cls-1" x="23.14" y="54.15" width="3.79" height="1.47" rx="0.73" ry="0.73" transform="translate(-38.82 19.96) rotate(-42.08)"/><rect class="cls-1" x="18.27" y="57.58" width="3.79" height="1.47" rx="0.73" ry="0.73" transform="translate(-42.37 17.58) rotate(-42.08)"/><path class="cls-1" d="M8.66,35.52S8.44,42,11.26,43.44c0,0-1.2-6.51,5.75-12.49l8.37-7.58,1.1,4.89,7.24-15.91L15.29,16.7l4.94,1.43S15.48,22.58,15.15,23a22.09,22.09,0,0,0-2.42,2.72S11.33,27.76,10.66,29A21.78,21.78,0,0,0,9,33.38a14.55,14.55,0,0,0-.32,2.15" transform="translate(-8.49 -10.97)"/><rect class="cls-1" x="25.32" y="44.53" width="3.79" height="1.47" rx="0.73" ry="0.73" transform="translate(-33.45 26.11) rotate(-50.07)"/><rect class="cls-1" x="28.32" y="39.19" width="3.79" height="1.47" rx="0.73" ry="0.73" transform="translate(-25.87 44.48) rotate(-70.95)"/><path class="cls-1" d="M10.09,36C10.52,31.41,17.31,20,26,17.21c.87.44,3,2.33,1.81,2.67C19.57,22.17,9.57,34.53,10.09,36Z" transform="translate(-8.49 -10.97)"/><polyline class="cls-1" points="18.82 9.07 19.23 11.74 22.68 3.49 12.73 5.99 16.08 6.76"/><rect class="cls-1" x="27.62" y="46.89" width="3.79" height="1.47" rx="0.73" ry="0.73" transform="translate(-34.89 33.07) rotate(-54.55)"/><rect class="cls-1" x="29.91" y="34.07" width="3.79" height="1.36" rx="0.68" ry="0.68" transform="translate(-7.46 59.45) rotate(-96.74)"/><rect class="cls-1" x="30.28" y="41.43" width="3.79" height="1.47" rx="0.73" ry="0.73" transform="translate(-26.67 47.84) rotate(-70.95)"/><path class="cls-2" d="M12.68,34.75s-2.91,3.93-2.22,6.64c0,0,.91,2.51,4.64,1.88a13.93,13.93,0,0,0,6-2.48s5.44-3.9,8.1-4.75a1.25,1.25,0,0,0,.75-.64c.68-1.37,2.15-5.08-1.33-5.67a1,1,0,0,0-.39,0,16.34,16.34,0,0,0-7,4s-4.41,3.32-6.87,3.76C14.39,37.52,11.88,38.34,12.68,34.75Z" transform="translate(-8.49 -10.97)"/><path class="cls-3" d="M32.17,30.74a3.86,3.86,0,0,0-3.78-1s1.55,0,1.81,2a10.42,10.42,0,0,1-.58,3.47,27,27,0,0,1-2,4.32s-5.51,7.26-7.33,8.15l-5,4s-1,1.77,1,1.42c0,0,5.28-3.91,6.74-5.24,0,0,1.63-.56,1,.72l-2.3,2.7s-.31,1.55,1.15.89L26,49s1.15-.89.66.49-.58,2.48,1.06,1.68c0,0,4-4,4.69-6.51,0,0,3.86-8.53-.27-13.91" transform="translate(-8.49 -10.97)"/><rect class="cls-3" x="10.76" y="53.96" width="3.79" height="1.47" rx="0.73" ry="0.73" transform="translate(-41.11 10.54) rotate(-40.74)"/><rect class="cls-3" x="17.87" y="53.28" width="3.79" height="1.47" rx="0.73" ry="0.73" transform="translate(-38.95 15.02) rotate(-40.74)"/><rect class="cls-3" x="13.53" y="55.9" width="3.79" height="1.47" rx="0.73" ry="0.73" transform="translate(-41.71 12.82) rotate(-40.74)"/><rect class="cls-3" x="14.11" y="54.17" width="2.89" height="0.71" rx="0.35" ry="0.35" transform="translate(-40.3 12.39) rotate(-40.74)"/><rect class="cls-3" x="17.96" y="51.64" width="2.89" height="0.71" rx="0.35" ry="0.35" transform="translate(-37.72 14.29) rotate(-40.74)"/><rect class="cls-3" x="15.98" y="56.65" width="2.89" height="0.71" rx="0.35" ry="0.35" transform="translate(-41.47 14.21) rotate(-40.74)"/><rect class="cls-3" x="20.89" y="53.4" width="2.89" height="0.71" rx="0.35" ry="0.35" transform="translate(-38.16 16.63) rotate(-40.74)"/><rect class="cls-3" x="23.64" y="50.64" width="2.89" height="0.71" rx="0.35" ry="0.35" transform="translate(-38.01 24.29) rotate(-47.73)"/><rect class="cls-3" x="20.78" y="49.03" width="2.89" height="0.71" rx="0.35" ry="0.35" transform="translate(-35.33 15.5) rotate(-40.74)"/><rect class="cls-3" x="22.98" y="52.95" width="3.79" height="1.47" rx="0.73" ry="0.73" transform="translate(-38.05 19.54) rotate(-42.08)"/><rect class="cls-3" x="18.1" y="56.38" width="3.79" height="1.47" rx="0.73" ry="0.73" transform="translate(-41.61 17.16) rotate(-42.08)"/><path class="cls-3" d="M8.49,34.32s-.22,6.49,2.61,7.92c0,0-1.2-6.51,5.75-12.49l8.37-7.58,1.1,4.89,7.24-15.91L15.12,15.5l4.94,1.43S15.31,21.38,15,21.78a22.09,22.09,0,0,0-2.42,2.72s-1.39,2.06-2.06,3.32A21.78,21.78,0,0,0,8.8,32.18a14.55,14.55,0,0,0-.32,2.15" transform="translate(-8.49 -10.97)"/><rect class="cls-4" x="25.15" y="43.33" width="3.79" height="1.47" rx="0.73" ry="0.73" transform="translate(-32.59 25.56) rotate(-50.07)"/><rect class="cls-4" x="28.15" y="37.99" width="3.79" height="1.47" rx="0.73" ry="0.73" transform="translate(-24.85 43.51) rotate(-70.95)"/><path class="cls-4" d="M9.93,34.84c.42-4.63,7.21-16.06,15.93-18.83.87.44,3,2.33,1.81,2.67C19.4,21,9.41,33.33,9.93,34.84Z" transform="translate(-8.49 -10.97)"/><polyline class="cls-4" points="18.65 7.87 19.06 10.54 22.51 2.29 12.56 4.79 15.92 5.56"/><rect class="cls-4" x="27.45" y="45.69" width="3.79" height="1.47" rx="0.73" ry="0.73" transform="matrix(0.58, -0.81, 0.81, 0.58, -33.98, 32.43)"/><rect class="cls-4" x="29.75" y="32.87" width="3.79" height="1.36" rx="0.68" ry="0.68" transform="translate(-6.45 57.94) rotate(-96.74)"/><rect class="cls-4" x="30.11" y="40.23" width="3.79" height="1.47" rx="0.73" ry="0.73" transform="translate(-25.65 46.87) rotate(-70.95)"/><path class="cls-5" d="M38,47.42V12.2h1.2V43.66L49.87,29.12h1.48l-6.42,8.83,6.42,8.83H49.87L44.15,39Z" transform="translate(-8.49 -10.97)"/><circle class="cls-6" cx="129.21" cy="5.79" r="5.29"/><path class="cls-3" d="M135.58,19.74v-6h2.66a3.54,3.54,0,0,1,1.22.16,1.33,1.33,0,0,1,.67.57,1.7,1.7,0,0,1,.25.9,1.51,1.51,0,0,1-.41,1.07,2.09,2.09,0,0,1-1.27.56,2.06,2.06,0,0,1,.48.3,4.09,4.09,0,0,1,.66.8l1,1.63h-1l-.79-1.25q-.35-.54-.57-.83a1.8,1.8,0,0,0-.4-.4,1.2,1.2,0,0,0-.36-.16,2.39,2.39,0,0,0-.44,0h-.92v2.66Zm.79-3.35h1.7a2.55,2.55,0,0,0,.85-.11.9.9,0,0,0,.47-.36,1,1,0,0,0,.16-.54.89.89,0,0,0-.31-.7,1.44,1.44,0,0,0-1-.27h-1.9Z" transform="translate(-8.49 -10.97)"/><path class="cls-7" d="M80.41,52.78l1-.81a10.19,10.19,0,0,0,13,0,7.11,7.11,0,0,0,2.7-5.57V42.14a9.93,9.93,0,0,1-3.85,3.36,11.33,11.33,0,0,1-5.32,1.33,11,11,0,0,1-7.45-2.66,8.15,8.15,0,0,1,0-12.78,11.09,11.09,0,0,1,7.45-2.64,11.34,11.34,0,0,1,5.35,1.35,9.51,9.51,0,0,1,3.83,3.43V29.15h1.36V46.42a8.17,8.17,0,0,1-3.09,6.4,11,11,0,0,1-7.45,2.66A10.87,10.87,0,0,1,80.41,52.78Zm1-9.45a10.23,10.23,0,0,0,13,0,7.07,7.07,0,0,0,0-11.12,10.23,10.23,0,0,0-13,0,7.07,7.07,0,0,0,0,11.12Z" transform="translate(-8.49 -10.97)"/><path class="cls-7" d="M120.93,43.35l.89.81a11.29,11.29,0,0,1-7.34,2.66A11.06,11.06,0,0,1,107,44.19a8.16,8.16,0,0,1,0-12.78,11,11,0,0,1,7.44-2.66,11.26,11.26,0,0,1,7.39,2.69L108,43.34a9.27,9.27,0,0,0,6.45,2.31A9.56,9.56,0,0,0,120.93,43.35Zm-13.77-.86,12.74-11a10,10,0,0,0-11.88.7,7.11,7.11,0,0,0-2.7,5.57A6.88,6.88,0,0,0,107.16,42.5Z" transform="translate(-8.49 -10.97)"/><path class="cls-7" d="M127.14,46.42V21.94h1.36v7.21H134v1.17H128.5v16.1Z" transform="translate(-8.49 -10.97)"/><path class="cls-5" d="M60.24,56.64,65.6,46.25l-8.77-17h1.34L66.27,45l8.12-15.74h1.34L61.58,56.64Z" transform="translate(-8.49 -10.97)"/></svg>