<svg id="Layer_1" data-name="Layer 1" xmlns="http://www.w3.org/2000/svg" viewBox="0 0 64 64"><defs><style>.cls-1{fill:#fff;stroke:#f8af15;}.cls-1,.cls-3{stroke-miterlimit:10;}.cls-2{fill:#f8af15;}.cls-3{fill:none;stroke:#fff;stroke-width:2px;}</style></defs><title>Heart_(Medical)</title><rect class="cls-1" x="0.5" y="0.5" width="63" height="63" rx="6.89" ry="6.89"/><path class="cls-2" d="M51,12.82c-9.83-4.74-16.91,3.41-19,6.21-2.06-2.8-9.13-10.95-19-6.21-8.93,5.57-9.94,22.83,18.76,40,0,0,.14.17.21.13s.21-.13.21-.13C61,35.64,60,18.39,51,12.82Z" transform="translate(-0.08 -0.14)"/><polyline class="cls-3" points="8.85 32.23 13 32.23 15.52 34.23 18.56 29.23 22.2 38.23 27.06 25.23 30.7 37.23 34.34 29.23 35.95 32.23 56.19 32.23"/></svg>