<svg id="Layer_1" data-name="Layer 1" xmlns="http://www.w3.org/2000/svg" viewBox="0 0 63 63"><defs><style>.cls-1{fill:#f8af15;}.cls-2{fill:#fff;}.cls-3{fill:none;stroke:#f8af15;stroke-miterlimit:10;stroke-width:2px;}</style></defs><title>94. icons_(Medical)</title><rect class="cls-1" width="63" height="63" rx="6.89" ry="6.89"/><path class="cls-2" d="M51,12.82c-9.83-4.74-16.91,3.41-19,6.21-2.06-2.8-9.13-10.95-19-6.21-8.93,5.57-9.94,22.83,18.76,40,0,0,.14.17.21.13s.21-.13.21-.13C61,35.64,60,18.39,51,12.82Z" transform="translate(-0.58 -0.64)"/><polyline class="cls-3" points="8.35 31.73 12.5 31.73 15.02 33.73 18.06 28.73 21.7 37.73 26.56 24.73 30.2 36.73 33.84 28.73 35.45 31.73 55.69 31.73"/></svg>