<svg id="Layer_1" data-name="Layer 1" xmlns="http://www.w3.org/2000/svg" xmlns:xlink="http://www.w3.org/1999/xlink" viewBox="0 0 92.5 39.67"><defs><radialGradient id="radial-gradient" cx="20.19" cy="17.99" fx="28.28373702745327" r="8.35" gradientTransform="translate(-3.03 12.77) rotate(-19.28) scale(1 0.7)" gradientUnits="userSpaceOnUse"><stop offset="0.29" stop-color="#f4f4f4"/><stop offset="0.29" stop-color="#f1f1f4"/><stop offset="0.31" stop-color="#cfcdf2"/><stop offset="0.33" stop-color="#b1aef0"/><stop offset="0.35" stop-color="#9792ee"/><stop offset="0.37" stop-color="#827cec"/><stop offset="0.39" stop-color="#726beb"/><stop offset="0.43" stop-color="#6660eb"/><stop offset="0.47" stop-color="#6059ea"/><stop offset="0.59" stop-color="#5e57ea"/><stop offset="0.65" stop-color="#6d66ea"/><stop offset="0.76" stop-color="#938fe8"/><stop offset="0.91" stop-color="#d1d0e7"/><stop offset="0.96" stop-color="#e6e6e6"/></radialGradient></defs><title>Skyget logo_(with slogan)_WITHOUT dropshadow</title><rect width="92.5" height="39.67" rx="19.83" ry="19.83" style="fill:#fff"/><path d="M14.71,19s-1.49,2-1.14,3.41c0,0,.47,1.29,2.39,1A7.16,7.16,0,0,0,19,22.12a23.42,23.42,0,0,1,4.17-2.44.64.64,0,0,0,.38-.33c.35-.71,1.11-2.61-.69-2.92a.53.53,0,0,0-.2,0,8.4,8.4,0,0,0-3.58,2.06,12.62,12.62,0,0,1-3.53,1.93S14.3,20.86,14.71,19Z" transform="translate(-0.89 -1.18)" style="fill:#a3a3a3"/><path d="M24.73,17a2,2,0,0,0-1.94-.53s.8,0,.93,1a5.36,5.36,0,0,1-.3,1.78,13.89,13.89,0,0,1-1,2.22s-2.83,3.73-3.77,4.19l-2.6,2s-.52.91.52.73c0,0,2.71-2,3.47-2.69,0,0,.84-.29.52.37L19.34,27.5s-.16.8.59.46l1.64-1.62s.59-.46.34.25-.3,1.28.55.87c0,0,2.07-2.07,2.41-3.35,0,0,2-4.39-.14-7.15" transform="translate(-0.89 -1.18)" style="fill:#a3a3a3"/><rect x="13.72" y="28.89" width="1.95" height="0.75" rx="0.38" ry="0.38" transform="translate(-16.43 15.5) rotate(-40.74)" style="fill:#a3a3a3"/><rect x="17.38" y="28.54" width="1.95" height="0.75" rx="0.38" ry="0.38" transform="translate(-15.32 17.8) rotate(-40.74)" style="fill:#a3a3a3"/><rect x="15.15" y="29.89" width="1.95" height="0.75" rx="0.38" ry="0.38" transform="translate(-16.74 16.67) rotate(-40.74)" style="fill:#a3a3a3"/><rect x="15.44" y="29" width="1.49" height="0.36" rx="0.18" ry="0.18" transform="translate(-16.02 16.46) rotate(-40.74)" style="fill:#a3a3a3"/><rect x="17.42" y="27.7" width="1.49" height="0.36" rx="0.18" ry="0.18" transform="translate(-14.69 17.43) rotate(-40.74)" style="fill:#a3a3a3"/><rect x="16.4" y="30.28" width="1.49" height="0.36" rx="0.18" ry="0.18" transform="translate(-16.62 17.39) rotate(-40.74)" style="fill:#a3a3a3"/><rect x="18.93" y="28.61" width="1.49" height="0.36" rx="0.18" ry="0.18" transform="translate(-14.91 18.64) rotate(-40.74)" style="fill:#a3a3a3"/><rect x="20.35" y="27.18" width="1.49" height="0.36" rx="0.18" ry="0.18" transform="translate(-14.24 23.39) rotate(-47.73)" style="fill:#a3a3a3"/><rect x="18.87" y="26.36" width="1.49" height="0.36" rx="0.18" ry="0.18" transform="matrix(0.76, -0.65, 0.65, 0.76, -13.46, 18.05)" style="fill:#a3a3a3"/><rect x="20" y="28.37" width="1.95" height="0.75" rx="0.38" ry="0.38" transform="translate(-14.75 20.29) rotate(-42.08)" style="fill:#a3a3a3"/><rect x="17.5" y="30.13" width="1.95" height="0.75" rx="0.38" ry="0.38" transform="translate(-16.58 19.07) rotate(-42.08)" style="fill:#a3a3a3"/><path d="M12.56,18.79s-.11,3.34,1.34,4.07c0,0-.61-3.35,3-6.42l4.3-3.9.56,2.51,3.72-8.18L16,9.11l2.54.74s-2.44,2.29-2.61,2.5a11.36,11.36,0,0,0-1.25,1.4s-.72,1.06-1.06,1.71a11.2,11.2,0,0,0-.87,2.24,7.49,7.49,0,0,0-.16,1.1" transform="translate(-0.89 -1.18)" style="fill:#a3a3a3"/><rect x="21.12" y="23.43" width="1.95" height="0.75" rx="0.38" ry="0.38" transform="translate(-11.23 24.29) rotate(-50.07)" style="fill:#a3a3a3"/><rect x="22.67" y="20.68" width="1.95" height="0.75" rx="0.38" ry="0.38" transform="translate(-4.87 35.35) rotate(-70.95)" style="fill:#a3a3a3"/><path d="M13.29,19.06c.22-2.38,3.71-8.26,8.19-9.68.45.23,1.56,1.2.93,1.37C18.17,11.93,13,18.28,13.29,19.06Z" transform="translate(-0.89 -1.18)" style="fill:#a3a3a3"/><polyline points="21.25 9.65 21.46 11.02 23.24 6.78 18.12 8.07 19.84 8.46" style="fill:#a3a3a3"/><rect x="22.3" y="24.64" width="1.95" height="0.75" rx="0.38" ry="0.38" transform="translate(-11.5 28.29) rotate(-54.55)" style="fill:#a3a3a3"/><rect x="23.49" y="18.05" width="1.95" height="0.7" rx="0.35" ry="0.35" transform="translate(8.17 43.67) rotate(-96.74)" style="fill:#a3a3a3"/><rect x="23.67" y="21.83" width="1.95" height="0.75" rx="0.38" ry="0.38" transform="translate(-5.28 37.08) rotate(-70.95)" style="fill:#a3a3a3"/><path d="M14.62,18.4s-1.49,2-1.14,3.41c0,0,.47,1.29,2.39,1a7.16,7.16,0,0,0,3.08-1.27,23.42,23.42,0,0,1,4.17-2.44.64.64,0,0,0,.38-.33c.35-.71,1.11-2.61-.69-2.92a.53.53,0,0,0-.2,0A8.4,8.4,0,0,0,19,17.88a12.62,12.62,0,0,1-3.53,1.93S14.21,20.24,14.62,18.4Z" transform="translate(-0.89 -1.18)" style="fill:url(#radial-gradient)"/><path d="M24.65,16.33a2,2,0,0,0-1.94-.53s.8,0,.93,1a5.36,5.36,0,0,1-.3,1.78,13.89,13.89,0,0,1-1,2.22S19.46,24.59,18.52,25l-2.6,2s-.52.91.52.73c0,0,2.71-2,3.47-2.69,0,0,.84-.29.52.37l-1.18,1.39s-.16.8.59.46l1.64-1.62s.59-.46.34.25-.3,1.28.55.87c0,0,2.07-2.07,2.41-3.35,0,0,2-4.39-.14-7.15" transform="translate(-0.89 -1.18)" style="fill:#5e57ea"/><rect x="13.63" y="28.28" width="1.95" height="0.75" rx="0.38" ry="0.38" transform="translate(-16.05 15.3) rotate(-40.74)" style="fill:#5e57ea"/><rect x="17.29" y="27.93" width="1.95" height="0.75" rx="0.38" ry="0.38" transform="translate(-14.94 17.6) rotate(-40.74)" style="fill:#5e57ea"/><rect x="15.06" y="29.27" width="1.95" height="0.75" rx="0.38" ry="0.38" transform="translate(-16.36 16.47) rotate(-40.74)" style="fill:#5e57ea"/><rect x="15.36" y="28.38" width="1.49" height="0.36" rx="0.18" ry="0.18" transform="translate(-15.63 16.25) rotate(-40.74)" style="fill:#5e57ea"/><rect x="17.34" y="27.08" width="1.49" height="0.36" rx="0.18" ry="0.18" transform="translate(-14.3 17.23) rotate(-40.74)" style="fill:#5e57ea"/><rect x="16.32" y="29.66" width="1.49" height="0.36" rx="0.18" ry="0.18" transform="translate(-16.23 17.19) rotate(-40.74)" style="fill:#5e57ea"/><rect x="18.85" y="27.99" width="1.49" height="0.36" rx="0.18" ry="0.18" transform="translate(-14.53 18.43) rotate(-40.74)" style="fill:#5e57ea"/><rect x="20.26" y="26.57" width="1.49" height="0.36" rx="0.18" ry="0.18" transform="translate(-13.81 23.12) rotate(-47.73)" style="fill:#5e57ea"/><rect x="18.79" y="25.74" width="1.49" height="0.36" rx="0.18" ry="0.18" transform="translate(-13.08 17.85) rotate(-40.74)" style="fill:#5e57ea"/><rect x="19.92" y="27.76" width="1.95" height="0.75" rx="0.38" ry="0.38" transform="translate(-14.36 20.08) rotate(-42.08)" style="fill:#5e57ea"/><rect x="17.41" y="29.52" width="1.95" height="0.75" rx="0.38" ry="0.38" transform="translate(-16.19 18.85) rotate(-42.08)" style="fill:#5e57ea"/><path d="M12.47,18.18s-.11,3.34,1.34,4.07c0,0-.61-3.35,3-6.42l4.3-3.9.56,2.51,3.72-8.18L15.88,8.49l2.54.74s-2.44,2.29-2.61,2.5a11.36,11.36,0,0,0-1.25,1.4s-.72,1.06-1.06,1.71a11.2,11.2,0,0,0-.87,2.24,7.49,7.49,0,0,0-.16,1.1" transform="translate(-0.89 -1.18)" style="fill:#5e57ea"/><rect x="21.04" y="22.81" width="1.95" height="0.75" rx="0.38" ry="0.38" transform="translate(-10.79 24.01) rotate(-50.07)" style="fill:#fff"/><rect x="22.58" y="20.06" width="1.95" height="0.75" rx="0.38" ry="0.38" transform="translate(-4.35 34.85) rotate(-70.95)" style="fill:#fff"/><path d="M13.21,18.44c.22-2.38,3.71-8.26,8.19-9.68.45.23,1.56,1.2.93,1.37C18.08,11.31,12.94,17.66,13.21,18.44Z" transform="translate(-0.89 -1.18)" style="fill:#fff"/><polyline points="21.17 9.04 21.38 10.41 23.15 6.16 18.03 7.45 19.76 7.84" style="fill:#fff"/><rect x="22.22" y="24.02" width="1.95" height="0.75" rx="0.38" ry="0.38" transform="translate(-11.03 27.96) rotate(-54.55)" style="fill:#fff"/><rect x="23.4" y="17.43" width="1.95" height="0.7" rx="0.35" ry="0.35" transform="translate(8.68 42.89) rotate(-96.74)" style="fill:#fff"/><rect x="23.59" y="21.21" width="1.95" height="0.75" rx="0.38" ry="0.38" transform="translate(-4.76 36.58) rotate(-70.95)" style="fill:#fff"/><path d="M27.66,24.91V6.8h.62V23l5.48-7.48h.76L31.21,20l3.3,4.54h-.76l-2.94-4Z" transform="translate(-0.89 -1.18)" style="fill:none;stroke:#5e57ea;stroke-miterlimit:10"/><circle cx="78.03" cy="7.96" r="2.72" style="fill:none;stroke:#5e57ea;stroke-miterlimit:10"/><path d="M77.83,10.68V7.6H79.2a1.82,1.82,0,0,1,.63.08.69.69,0,0,1,.34.29.88.88,0,0,1,.13.46.78.78,0,0,1-.21.55,1.07,1.07,0,0,1-.66.29,1,1,0,0,1,.25.15,2.13,2.13,0,0,1,.34.41l.54.84H80L79.63,10c-.12-.19-.22-.33-.29-.42a.93.93,0,0,0-.21-.21.63.63,0,0,0-.19-.08h-.7v1.37ZM78.24,9h.88a1.31,1.31,0,0,0,.44-.06.46.46,0,0,0,.24-.19.5.5,0,0,0,.08-.28.46.46,0,0,0-.16-.36.74.74,0,0,0-.5-.14h-1Z" transform="translate(-0.89 -1.18)" style="fill:#5e57ea"/><path d="M14.41,35.4h-.29V33.21L13.5,34.7h-.17l-.61-1.49V35.4h-.27V32.86h.4l.59,1.42L14,32.86h.41Z" transform="translate(-0.89 -1.18)" style="fill:#666"/><path d="M16.26,35.4H16v-.2l-.1.08-.12.08-.16.07a.76.76,0,0,1-.21,0,.49.49,0,0,1-.38-.17.62.62,0,0,1-.16-.44.68.68,0,0,1,.08-.35.57.57,0,0,1,.23-.21,1.13,1.13,0,0,1,.36-.1l.45,0v0a.43.43,0,0,0,0-.18.26.26,0,0,0-.1-.11.37.37,0,0,0-.14-.05h-.17a1,1,0,0,0-.24,0l-.28.1h0v-.33l.24-.06a1.47,1.47,0,0,1,.3,0,1.22,1.22,0,0,1,.3,0,.57.57,0,0,1,.22.11.51.51,0,0,1,.14.2.86.86,0,0,1,0,.31ZM16,34.93V34.4l-.3,0a1.26,1.26,0,0,0-.27,0,.42.42,0,0,0-.19.12.39.39,0,0,0,0,.47.36.36,0,0,0,.26.08.55.55,0,0,0,.27-.07A1.2,1.2,0,0,0,16,34.93Z" transform="translate(-0.89 -1.18)" style="fill:#666"/><path d="M18,34.85a.55.55,0,0,1-.19.43.74.74,0,0,1-.51.17,1.08,1.08,0,0,1-.34,0,1.42,1.42,0,0,1-.26-.11v-.36h0a1.07,1.07,0,0,0,.29.18.8.8,0,0,0,.31.07.51.51,0,0,0,.29-.07.24.24,0,0,0,.1-.22.23.23,0,0,0-.06-.17.47.47,0,0,0-.22-.1l-.15,0-.17,0a.57.57,0,0,1-.31-.2.53.53,0,0,1-.09-.32.58.58,0,0,1,0-.22.53.53,0,0,1,.13-.19.6.6,0,0,1,.21-.13.83.83,0,0,1,.29,0,1.11,1.11,0,0,1,.3,0,1,1,0,0,1,.25.1v.34h0a1,1,0,0,0-.26-.15.8.8,0,0,0-.3-.06.47.47,0,0,0-.26.07.22.22,0,0,0-.1.2.23.23,0,0,0,.06.18.47.47,0,0,0,.2.1l.17,0,.16,0a.56.56,0,0,1,.3.18A.51.51,0,0,1,18,34.85Z" transform="translate(-0.89 -1.18)" style="fill:#666"/><path d="M19.23,35.39l-.17,0H18.9a.47.47,0,0,1-.38-.16.78.78,0,0,1-.13-.5v-1h-.19V33.5h.19v-.55h.28v.55h.57v.27h-.57v.87c0,.1,0,.18,0,.24a.42.42,0,0,0,0,.16.21.21,0,0,0,.09.1.37.37,0,0,0,.17,0l.14,0,.11,0h0Z" transform="translate(-0.89 -1.18)" style="fill:#666"/><path d="M20.95,34.48H19.73a.92.92,0,0,0,0,.31.58.58,0,0,0,.13.21.49.49,0,0,0,.18.12.64.64,0,0,0,.23,0,.82.82,0,0,0,.34-.08.8.8,0,0,0,.24-.15h0v.35l-.29.11a1,1,0,0,1-.31,0,.82.82,0,0,1-.64-.26,1.06,1.06,0,0,1-.23-.73,1.15,1.15,0,0,1,.22-.74.71.71,0,0,1,.58-.28.62.62,0,0,1,.52.23,1,1,0,0,1,.18.64Zm-.27-.25a.63.63,0,0,0-.11-.39.4.4,0,0,0-.33-.14.45.45,0,0,0-.36.15.63.63,0,0,0-.15.38Z" transform="translate(-0.89 -1.18)" style="fill:#666"/><path d="M22.4,33.85h0l-.12,0h-.14a.51.51,0,0,0-.25.07,1.15,1.15,0,0,0-.23.17V35.4h-.28V33.5h.28v.28a1.37,1.37,0,0,1,.29-.22.56.56,0,0,1,.26-.06h.1l.1,0Z" transform="translate(-0.89 -1.18)" style="fill:#666"/><path d="M25.16,33.5l-1,2.61h-.3l.31-.8-.66-1.82h.3l.51,1.42.51-1.42Z" transform="translate(-0.89 -1.18)" style="fill:#666"/><path d="M26.9,34.45a1.18,1.18,0,0,1-.21.74.71.71,0,0,1-1.11,0,1.42,1.42,0,0,1,0-1.47.71.71,0,0,1,1.11,0A1.19,1.19,0,0,1,26.9,34.45Zm-.29,0a1,1,0,0,0-.13-.55.43.43,0,0,0-.7,0,1.26,1.26,0,0,0,0,1.1.42.42,0,0,0,.7,0A1,1,0,0,0,26.62,34.45Z" transform="translate(-0.89 -1.18)" style="fill:#666"/><path d="M28.7,35.4h-.28v-.21a1.35,1.35,0,0,1-.27.2.59.59,0,0,1-.28.07.49.49,0,0,1-.41-.18.85.85,0,0,1-.15-.54V33.5h.28v1.09a2.27,2.27,0,0,0,0,.25.5.5,0,0,0,.05.18.25.25,0,0,0,.1.11.4.4,0,0,0,.19,0,.52.52,0,0,0,.24-.07,1.07,1.07,0,0,0,.24-.17V33.5h.28Z" transform="translate(-0.89 -1.18)" style="fill:#666"/><path d="M30.28,33.85h0l-.12,0H30a.51.51,0,0,0-.25.07,1.15,1.15,0,0,0-.23.17V35.4h-.28V33.5h.28v.28a1.37,1.37,0,0,1,.29-.22.56.56,0,0,1,.26-.06h.1l.1,0Z" transform="translate(-0.89 -1.18)" style="fill:#666"/><path d="M31.72,34.85a.55.55,0,0,1-.19.43.74.74,0,0,1-.51.17,1.08,1.08,0,0,1-.34,0,1.42,1.42,0,0,1-.26-.11v-.36h0a1.07,1.07,0,0,0,.29.18.8.8,0,0,0,.31.07.51.51,0,0,0,.29-.07.24.24,0,0,0,.1-.22.23.23,0,0,0-.06-.17.47.47,0,0,0-.22-.1l-.15,0-.17,0a.57.57,0,0,1-.31-.2.53.53,0,0,1-.09-.32.58.58,0,0,1,0-.22.53.53,0,0,1,.13-.19.6.6,0,0,1,.21-.13.83.83,0,0,1,.29,0,1.11,1.11,0,0,1,.3,0,1,1,0,0,1,.25.1v.34h0a1,1,0,0,0-.26-.15.8.8,0,0,0-.3-.06.47.47,0,0,0-.26.07.22.22,0,0,0-.1.2.23.23,0,0,0,.06.18.47.47,0,0,0,.2.1l.17,0,.16,0a.56.56,0,0,1,.3.18A.51.51,0,0,1,31.72,34.85Z" transform="translate(-0.89 -1.18)" style="fill:#666"/><path d="M33.5,34.48H32.29a.92.92,0,0,0,0,.31.58.58,0,0,0,.13.21.49.49,0,0,0,.18.12.64.64,0,0,0,.23,0,.82.82,0,0,0,.34-.08.8.8,0,0,0,.24-.15h0v.35l-.29.11a1,1,0,0,1-.31,0,.82.82,0,0,1-.64-.26,1.06,1.06,0,0,1-.23-.73,1.15,1.15,0,0,1,.22-.74.71.71,0,0,1,.58-.28.62.62,0,0,1,.52.23,1,1,0,0,1,.18.64Zm-.27-.25a.63.63,0,0,0-.11-.39.4.4,0,0,0-.33-.14.45.45,0,0,0-.36.15.63.63,0,0,0-.15.38Z" transform="translate(-0.89 -1.18)" style="fill:#666"/><path d="M34.21,35.4h-.28V32.75h.28Z" transform="translate(-0.89 -1.18)" style="fill:#666"/><path d="M35.65,33.06h0l-.12,0-.13,0a.33.33,0,0,0-.26.09.51.51,0,0,0-.08.33v.06h.5v.27H35V35.4h-.28V33.77h-.19V33.5h.19v-.06a.81.81,0,0,1,.15-.52.51.51,0,0,1,.42-.18h.17l.14,0Z" transform="translate(-0.89 -1.18)" style="fill:#666"/><path d="M37.19,33.18h-.31v-.33h.31Zm0,2.23h-.28V33.5h.28Z" transform="translate(-0.89 -1.18)" style="fill:#666"/><path d="M39.1,35.4h-.28V34.32a2.18,2.18,0,0,0,0-.25.5.5,0,0,0,0-.18.23.23,0,0,0-.11-.11.4.4,0,0,0-.18,0,.51.51,0,0,0-.24.07A1.2,1.2,0,0,0,38,34V35.4h-.28V33.5H38v.21a1.13,1.13,0,0,1,.27-.19.63.63,0,0,1,.29-.07.48.48,0,0,1,.41.19.88.88,0,0,1,.14.54Z" transform="translate(-0.89 -1.18)" style="fill:#666"/><path d="M42.17,35.4H40.72V32.86h1.45v.3H41v.7h1.16v.3H41v.95h1.16Z" transform="translate(-0.89 -1.18)" style="fill:#666"/><path d="M44,35.4h-.28V34.32a2.18,2.18,0,0,0,0-.25.5.5,0,0,0,0-.18.23.23,0,0,0-.11-.11.4.4,0,0,0-.18,0,.51.51,0,0,0-.24.07,1.2,1.2,0,0,0-.24.17V35.4h-.28V33.5h.28v.21a1.13,1.13,0,0,1,.27-.19.63.63,0,0,1,.29-.07.48.48,0,0,1,.41.19.88.88,0,0,1,.14.54Z" transform="translate(-0.89 -1.18)" style="fill:#666"/><path d="M45.39,35.39l-.17,0h-.17a.47.47,0,0,1-.38-.16.78.78,0,0,1-.13-.5v-1h-.19V33.5h.19v-.55h.28v.55h.57v.27h-.57v.87c0,.1,0,.18,0,.24a.43.43,0,0,0,0,.16.21.21,0,0,0,.09.1.36.36,0,0,0,.17,0l.14,0,.11,0h0Z" transform="translate(-0.89 -1.18)" style="fill:#666"/><path d="M46.76,33.85h0l-.12,0h-.14a.51.51,0,0,0-.25.07A1.15,1.15,0,0,0,46,34V35.4h-.28V33.5H46v.28a1.37,1.37,0,0,1,.29-.22.56.56,0,0,1,.26-.06h.11l.1,0Z" transform="translate(-0.89 -1.18)" style="fill:#666"/><path d="M48.25,35.4H48v-.2l-.1.08-.12.08-.16.07a.76.76,0,0,1-.21,0,.49.49,0,0,1-.38-.17.62.62,0,0,1-.16-.44.68.68,0,0,1,.08-.35.57.57,0,0,1,.23-.21,1.12,1.12,0,0,1,.36-.1l.45,0v0a.44.44,0,0,0,0-.18.27.27,0,0,0-.1-.11.37.37,0,0,0-.14-.05h-.17a1,1,0,0,0-.24,0l-.28.1h0v-.33l.24-.06a1.48,1.48,0,0,1,.3,0,1.21,1.21,0,0,1,.3,0,.57.57,0,0,1,.22.11.51.51,0,0,1,.14.2.86.86,0,0,1,0,.31ZM48,34.93V34.4l-.3,0a1.24,1.24,0,0,0-.27,0,.43.43,0,0,0-.19.12.39.39,0,0,0,0,.47.36.36,0,0,0,.26.08.55.55,0,0,0,.27-.07A1.2,1.2,0,0,0,48,34.93Z" transform="translate(-0.89 -1.18)" style="fill:#666"/><path d="M50.17,35.4h-.28V34.32a2,2,0,0,0,0-.25.5.5,0,0,0,0-.18.24.24,0,0,0-.11-.11.4.4,0,0,0-.18,0,.51.51,0,0,0-.24.07,1.21,1.21,0,0,0-.24.17V35.4h-.28V33.5h.28v.21a1.13,1.13,0,0,1,.27-.19.62.62,0,0,1,.29-.07.48.48,0,0,1,.41.19.88.88,0,0,1,.14.54Z" transform="translate(-0.89 -1.18)" style="fill:#666"/><path d="M51.92,35.29l-.26.12a.82.82,0,0,1-.27,0,.87.87,0,0,1-.33-.06.67.67,0,0,1-.26-.18.85.85,0,0,1-.17-.31,1.45,1.45,0,0,1-.06-.44,1.11,1.11,0,0,1,.22-.73.73.73,0,0,1,.59-.27.89.89,0,0,1,.28,0,1.33,1.33,0,0,1,.25.11V34h0a1,1,0,0,0-.26-.18.63.63,0,0,0-.26-.06.44.44,0,0,0-.37.18A1.13,1.13,0,0,0,51,35a.44.44,0,0,0,.38.18l.17,0,.16-.07.11-.08.08-.07h0Z" transform="translate(-0.89 -1.18)" style="fill:#666"/><path d="M53.66,34.48H52.45a.91.91,0,0,0,0,.31.58.58,0,0,0,.13.21.48.48,0,0,0,.18.12.63.63,0,0,0,.23,0,.94.94,0,0,0,.58-.23h0v.35l-.29.11a1,1,0,0,1-.31,0,.82.82,0,0,1-.64-.26,1.05,1.05,0,0,1-.23-.73,1.15,1.15,0,0,1,.22-.74.71.71,0,0,1,.58-.28.62.62,0,0,1,.52.23,1,1,0,0,1,.18.64Zm-.27-.25a.62.62,0,0,0-.11-.39.4.4,0,0,0-.33-.14.45.45,0,0,0-.36.15.63.63,0,0,0-.15.38Z" transform="translate(-0.89 -1.18)" style="fill:#666"/><path d="M55.26,34.85a.55.55,0,0,1-.19.43.74.74,0,0,1-.51.17,1.09,1.09,0,0,1-.34,0,1.39,1.39,0,0,1-.26-.11v-.36h0a1.08,1.08,0,0,0,.29.18.8.8,0,0,0,.31.07.52.52,0,0,0,.29-.07.24.24,0,0,0,.1-.22.24.24,0,0,0-.06-.17.48.48,0,0,0-.22-.1l-.15,0-.17,0a.57.57,0,0,1-.31-.2A.54.54,0,0,1,54,34a.6.6,0,0,1,0-.22.54.54,0,0,1,.13-.19.61.61,0,0,1,.21-.13.83.83,0,0,1,.29,0,1.11,1.11,0,0,1,.3,0,1,1,0,0,1,.25.1v.34h0a1,1,0,0,0-.26-.15.8.8,0,0,0-.3-.06.46.46,0,0,0-.26.07.22.22,0,0,0-.11.2.23.23,0,0,0,.06.18.47.47,0,0,0,.2.1l.17,0,.16,0a.56.56,0,0,1,.3.18A.5.5,0,0,1,55.26,34.85Z" transform="translate(-0.89 -1.18)" style="fill:#666"/><path d="M57.6,34.45h-.92v-.31h.92Z" transform="translate(-0.89 -1.18)" style="fill:#666"/><path d="M60.64,35.4H59.19V32.86h1.45v.3H59.48v.7h1.16v.3H59.48v.95h1.16Z" transform="translate(-0.89 -1.18)" style="fill:#666"/><path d="M62.46,35.4h-.28V34.32a2,2,0,0,0,0-.25.5.5,0,0,0,0-.18.24.24,0,0,0-.11-.11.4.4,0,0,0-.18,0,.51.51,0,0,0-.24.07,1.21,1.21,0,0,0-.24.17V35.4h-.28V33.5h.28v.21a1.13,1.13,0,0,1,.27-.19.62.62,0,0,1,.29-.07.48.48,0,0,1,.41.19.88.88,0,0,1,.14.54Z" transform="translate(-0.89 -1.18)" style="fill:#666"/><path d="M64.34,35.19a1.1,1.1,0,0,1-.19.71.72.72,0,0,1-.59.23l-.26,0L63.06,36v-.33h0l.22.08a1,1,0,0,0,.3,0,.61.61,0,0,0,.24,0,.34.34,0,0,0,.14-.11.4.4,0,0,0,.07-.16.93.93,0,0,0,0-.21v-.17a1.08,1.08,0,0,1-.24.17.66.66,0,0,1-.29.06.54.54,0,0,1-.47-.25,1.19,1.19,0,0,1-.17-.7,1.34,1.34,0,0,1,.06-.42,1,1,0,0,1,.16-.31.68.68,0,0,1,.23-.19.62.62,0,0,1,.27-.07.74.74,0,0,1,.24,0l.21.1,0-.08h.26Zm-.28-.31v-1l-.21-.08-.19,0a.42.42,0,0,0-.36.18.85.85,0,0,0-.13.52,1,1,0,0,0,.1.49.35.35,0,0,0,.32.17.61.61,0,0,0,.24-.05A.86.86,0,0,0,64.06,34.88Z" transform="translate(-0.89 -1.18)" style="fill:#666"/><path d="M66.23,35.19a1.1,1.1,0,0,1-.19.71.72.72,0,0,1-.59.23l-.26,0L64.95,36v-.33h0l.22.08a1,1,0,0,0,.3,0,.61.61,0,0,0,.24,0,.34.34,0,0,0,.14-.11.4.4,0,0,0,.07-.16.93.93,0,0,0,0-.21v-.17a1.08,1.08,0,0,1-.24.17.66.66,0,0,1-.29.06.54.54,0,0,1-.47-.25,1.19,1.19,0,0,1-.17-.7,1.34,1.34,0,0,1,.06-.42A1,1,0,0,1,65,33.7a.68.68,0,0,1,.23-.19.62.62,0,0,1,.27-.07.74.74,0,0,1,.24,0l.21.1,0-.08h.26ZM66,34.88v-1l-.21-.08-.19,0a.42.42,0,0,0-.36.18.85.85,0,0,0-.13.52,1,1,0,0,0,.1.49.35.35,0,0,0,.32.17.61.61,0,0,0,.24-.05A.86.86,0,0,0,66,34.88Z" transform="translate(-0.89 -1.18)" style="fill:#666"/><path d="M67.23,35.4h-.35v-.49h.35Z" transform="translate(-0.89 -1.18)" style="fill:#666"/><path d="M70.57,33.85V34a2,2,0,0,1,0,.37,1.55,1.55,0,0,1-.12.39l.56.63H70.6L70.27,35a1.07,1.07,0,0,1-.35.34.75.75,0,0,1-.37.1.69.69,0,0,1-.51-.21.75.75,0,0,1-.2-.54.83.83,0,0,1,0-.27,1,1,0,0,1,.09-.2.77.77,0,0,1,.13-.15l.16-.12a.87.87,0,0,1-.23-.25.68.68,0,0,1,0-.53A.58.58,0,0,1,69.1,33a.55.55,0,0,1,.19-.13.68.68,0,0,1,.26-.05A.58.58,0,0,1,70,33a.5.5,0,0,1,.16.38,1,1,0,0,1,0,.17.54.54,0,0,1-.06.17.63.63,0,0,1-.13.16.75.75,0,0,1-.23.13l.55.62a.93.93,0,0,0,0-.15,1.6,1.6,0,0,0,0-.17q0-.1,0-.21c0-.08,0-.15,0-.2Zm-.45,1-.71-.8-.09.07a.55.55,0,0,0-.09.11.59.59,0,0,0-.07.16.79.79,0,0,0,0,.21.61.61,0,0,0,.13.4.44.44,0,0,0,.36.15.54.54,0,0,0,.27-.08A.62.62,0,0,0,70.13,34.87Zm-.29-1.5a.37.37,0,0,0-.08-.26.29.29,0,0,0-.44,0,.39.39,0,0,0-.09.26.44.44,0,0,0,.06.23.88.88,0,0,0,.25.23.46.46,0,0,0,.22-.17A.54.54,0,0,0,69.84,33.37Z" transform="translate(-0.89 -1.18)" style="fill:#666"/><path d="M74.19,35.4H73.9V33.21l-.61,1.49h-.17l-.61-1.49V35.4h-.27V32.86h.4l.59,1.42.57-1.42h.41Z" transform="translate(-0.89 -1.18)" style="fill:#666"/><path d="M76.14,34.48H74.93a.91.91,0,0,0,0,.31.58.58,0,0,0,.13.21.48.48,0,0,0,.18.12.63.63,0,0,0,.23,0,.94.94,0,0,0,.58-.23h0v.35l-.29.11a1,1,0,0,1-.31,0,.82.82,0,0,1-.64-.26,1.05,1.05,0,0,1-.23-.73,1.15,1.15,0,0,1,.22-.74.71.71,0,0,1,.58-.28.62.62,0,0,1,.52.23,1,1,0,0,1,.18.64Zm-.27-.25a.62.62,0,0,0-.11-.39.4.4,0,0,0-.33-.14.45.45,0,0,0-.36.15.63.63,0,0,0-.15.38Z" transform="translate(-0.89 -1.18)" style="fill:#666"/><path d="M77.9,35.4h-.28v-.2a1,1,0,0,1-.25.19.61.61,0,0,1-.28.07.54.54,0,0,1-.47-.26,1.31,1.31,0,0,1-.17-.73,1.43,1.43,0,0,1,.06-.43,1,1,0,0,1,.16-.32.68.68,0,0,1,.23-.2.6.6,0,0,1,.28-.07.79.79,0,0,1,.23,0,1,1,0,0,1,.21.1v-.83h.28Zm-.28-.47v-1.1l-.2-.08-.19,0a.42.42,0,0,0-.36.19.93.93,0,0,0-.13.53,1.07,1.07,0,0,0,.1.52.34.34,0,0,0,.32.18.54.54,0,0,0,.24-.06A1,1,0,0,0,77.63,34.93Z" transform="translate(-0.89 -1.18)" style="fill:#666"/><path d="M78.75,33.18h-.31v-.33h.31Zm0,2.23h-.28V33.5h.28Z" transform="translate(-0.89 -1.18)" style="fill:#666"/><path d="M79.74,35.4h-.35v-.49h.35Z" transform="translate(-0.89 -1.18)" style="fill:#666"/><path d="M49.46,27.67l.51-.42a5.24,5.24,0,0,0,6.68,0A3.65,3.65,0,0,0,58,24.4v-2.2a5.11,5.11,0,0,1-2,1.73,5.83,5.83,0,0,1-2.74.68,5.67,5.67,0,0,1-3.83-1.37,4.19,4.19,0,0,1,0-6.57,5.71,5.71,0,0,1,3.83-1.36,5.83,5.83,0,0,1,2.75.7,4.89,4.89,0,0,1,2,1.76V15.52h.7V24.4a4.2,4.2,0,0,1-1.59,3.29,5.68,5.68,0,0,1-3.83,1.37A5.59,5.59,0,0,1,49.46,27.67ZM50,22.81a5.26,5.26,0,0,0,6.66,0,3.64,3.64,0,0,0,0-5.72,5.26,5.26,0,0,0-6.66,0,3.64,3.64,0,0,0,0,5.72Z" transform="translate(-0.89 -1.18)" style="fill:gray;stroke:gray;stroke-miterlimit:10"/><path d="M70.29,22.82l.46.42A5.8,5.8,0,0,1,67,24.61a5.69,5.69,0,0,1-3.83-1.36,4.2,4.2,0,0,1,0-6.57A5.67,5.67,0,0,1,67,15.31a5.79,5.79,0,0,1,3.8,1.38l-7.12,6.12A4.77,4.77,0,0,0,67,24,4.92,4.92,0,0,0,70.29,22.82Zm-7.08-.44,6.55-5.64a5.15,5.15,0,0,0-6.11.36A3.66,3.66,0,0,0,62.27,20,3.54,3.54,0,0,0,63.21,22.38Z" transform="translate(-0.89 -1.18)" style="fill:gray;stroke:gray;stroke-miterlimit:10"/><path d="M73.49,24.4V11.8h.7v3.71H77v.6h-2.8V24.4Z" transform="translate(-0.89 -1.18)" style="fill:gray;stroke:gray;stroke-miterlimit:10"/><path d="M39.08,29.65l2.76-5.34-4.51-8.76H38l4.17,8.09,4.18-8.09H47l-7.28,14.1Z" transform="translate(-0.89 -1.18)" style="fill:none;stroke:#5e57ea;stroke-miterlimit:10"/></svg>