<svg id="Layer_1" data-name="Layer 1" xmlns="http://www.w3.org/2000/svg" xmlns:xlink="http://www.w3.org/1999/xlink" viewBox="0 0 144.46 94"><defs><style>.cls-1{fill:#fff;}.cls-2{fill:#a3a3a3;}.cls-3{fill:url(#radial-gradient);}.cls-4{fill:#f16a34;}.cls-5{fill:none;}.cls-5,.cls-6{stroke:#f16a34;stroke-miterlimit:10;}.cls-6{fill:gray;}</style><radialGradient id="radial-gradient" cx="-53.98" cy="691.39" fx="-45.885962727540985" r="8.35" gradientTransform="matrix(0.94, -0.33, 0.23, 0.66, -66.4, -435.1)" gradientUnits="userSpaceOnUse"><stop offset="0.29" stop-color="#f1f1f4"/><stop offset="0.29" stop-color="#f4f4f4"/><stop offset="0.31" stop-color="#ffd2a6"/><stop offset="0.33" stop-color="#ffa278"/><stop offset="0.35" stop-color="#f19c69"/><stop offset="0.37" stop-color="#f16a34"/><stop offset="0.39" stop-color="#f16a34"/><stop offset="0.43" stop-color="#f16a34"/><stop offset="0.47" stop-color="#f16a34"/><stop offset="0.59" stop-color="#f16a34"/><stop offset="0.65" stop-color="#f16a34"/><stop offset="0.76" stop-color="#f16a34"/><stop offset="0.91" stop-color="#d1d0e7"/><stop offset="0.96" stop-color="#e6e6e6"/></radialGradient></defs><rect class="cls-1" x="23.23" y="23" width="92" height="40" rx="18.89"/><path class="cls-2" d="M36.87,40.76s-1.49,2-1.14,3.41c0,0,.47,1.29,2.39,1a7.1,7.1,0,0,0,3.11-1.31,23.21,23.21,0,0,1,4.17-2.44.6.6,0,0,0,.38-.33c.35-.71,1.11-2.61-.69-2.92a.67.67,0,0,0-.2,0,8.47,8.47,0,0,0-3.66,2.07,12.51,12.51,0,0,1-3.53,1.93S36.46,42.6,36.87,40.76Z"/><path class="cls-2" d="M46.89,38.7A2,2,0,0,0,45,38.17a1,1,0,0,1,.93,1,5.37,5.37,0,0,1-.3,1.78,13.83,13.83,0,0,1-1,2.22s-2.83,3.73-3.77,4.19l-2.6,2s-.52.91.52.73c0,0,2.71-2,3.47-2.69,0,0,.84-.29.52.37l-1.18,1.39s-.16.8.59.46L43.77,48s.59-.46.34.25-.3,1.28.55.87c0,0,2.07-2.07,2.41-3.35,0,0,2-4.39-.14-7.15"/><path class="cls-2" d="M36.15,51.11l.9-.78a.38.38,0,0,1,.54,0h0a.38.38,0,0,1-.05.53l-.9.77a.37.37,0,0,1-.53,0h0a.38.38,0,0,1,0-.53Z"/><path class="cls-2" d="M39.82,50.76l.9-.78a.39.39,0,0,1,.54,0h0a.38.38,0,0,1,0,.53l-.9.78a.37.37,0,0,1-.53,0h0A.39.39,0,0,1,39.82,50.76Z"/><path class="cls-2" d="M37.58,52.11l.9-.78a.37.37,0,0,1,.53,0h0a.37.37,0,0,1,0,.53l-.9.78a.38.38,0,0,1-.53,0h0A.37.37,0,0,1,37.58,52.11Z"/><path class="cls-2" d="M37.8,51.15l.85-.74a.17.17,0,0,1,.25,0h0a.19.19,0,0,1,0,.25h0l-.86.74a.17.17,0,0,1-.25,0h0a.17.17,0,0,1,0-.25Z"/><path class="cls-2" d="M39.78,49.85l.85-.74a.2.2,0,0,1,.26,0h0a.2.2,0,0,1,0,.26h0l-.86.73a.18.18,0,0,1-.25,0h0a.17.17,0,0,1,0-.25Z"/><path class="cls-2" d="M38.76,52.43l.85-.74a.2.2,0,0,1,.26,0h0a.19.19,0,0,1,0,.26h0L39,52.7a.18.18,0,0,1-.25,0h0a.19.19,0,0,1,0-.26Z"/><path class="cls-2" d="M41.29,51l.86-.74a.2.2,0,0,1,.26,0h0a.2.2,0,0,1,0,.26l-.86.73a.18.18,0,0,1-.26,0h0a.19.19,0,0,1,0-.25Z"/><path class="cls-2" d="M42.73,49.4l.76-.84a.2.2,0,0,1,.26,0h0a.2.2,0,0,1,0,.26l-.76.83a.19.19,0,0,1-.26,0h0a.19.19,0,0,1,0-.26Z"/><path class="cls-2" d="M41.23,48.51l.86-.74a.19.19,0,0,1,.25,0h0a.17.17,0,0,1,0,.25h0l-.85.73a.18.18,0,0,1-.26,0h0a.19.19,0,0,1,0-.25Z"/><path class="cls-2" d="M42.44,50.62l.89-.8a.38.38,0,0,1,.53,0h0a.38.38,0,0,1,0,.53h0l-.88.8a.39.39,0,0,1-.54,0h0A.38.38,0,0,1,42.44,50.62Z"/><path class="cls-2" d="M40,52.38l.88-.8a.38.38,0,0,1,.53,0h0a.37.37,0,0,1,0,.53h0l-.88.8a.38.38,0,0,1-.53,0h0A.37.37,0,0,1,40,52.38Z"/><path class="cls-2" d="M34.71,40.53s-.11,3.34,1.34,4.07c0,0-.61-3.35,3-6.42l4.3-3.9.56,2.51,3.72-8.18-9.48,2.23,2.54.74s-2.44,2.29-2.61,2.5a11.9,11.9,0,0,0-1.25,1.4s-.72,1.06-1.06,1.71a11.06,11.06,0,0,0-.87,2.24,8.1,8.1,0,0,0-.16,1.1"/><path class="cls-2" d="M43.59,45.77l.77-.92a.37.37,0,0,1,.52-.05h0a.38.38,0,0,1,0,.53l-.77.92a.38.38,0,0,1-.53,0h0A.37.37,0,0,1,43.59,45.77Z"/><path class="cls-2" d="M45.25,43.24l.38-1.13a.38.38,0,0,1,.48-.23h0a.37.37,0,0,1,.23.48h0L46,43.48a.39.39,0,0,1-.48.24h0A.38.38,0,0,1,45.25,43.24Z"/><path class="cls-2" d="M35.45,40.8c.22-2.38,3.71-8.26,8.19-9.68.45.23,1.56,1.2.93,1.37C40.32,33.7,35.23,40,35.45,40.8Z"/><polyline class="cls-2" points="44.3 32.57 44.51 33.94 46.29 29.7 41.17 30.99 42.9 31.38"/><path class="cls-2" d="M44.64,47.23l.69-1a.37.37,0,0,1,.52-.09h0a.36.36,0,0,1,.08.52h0l-.69,1a.38.38,0,0,1-.52.09h0A.37.37,0,0,1,44.64,47.23Z"/><path class="cls-2" d="M46.35,40.8l-.15-1.24a.36.36,0,0,1,.31-.39h0a.35.35,0,0,1,.39.31l.15,1.24a.36.36,0,0,1-.31.39h0A.36.36,0,0,1,46.35,40.8Z"/><path class="cls-2" d="M46.25,44.39l.39-1.13a.38.38,0,0,1,.48-.23h0a.37.37,0,0,1,.23.48h0L47,44.63a.37.37,0,0,1-.47.24h0a.38.38,0,0,1-.23-.48Z"/><path class="cls-3" d="M36.78,40.14s-1.49,2-1.14,3.41c0,0,.47,1.29,2.39,1a7.21,7.21,0,0,0,3.08-1.27,23.35,23.35,0,0,1,4.12-2.48.6.6,0,0,0,.38-.33c.35-.71,1.11-2.61-.69-2.92h-.2a8.48,8.48,0,0,0-3.49,2.08,12.51,12.51,0,0,1-3.53,1.93S36.37,42,36.78,40.14Z"/><path class="cls-4" d="M46.81,38.08a2,2,0,0,0-1.94-.53,1,1,0,0,1,.93,1,5.37,5.37,0,0,1-.3,1.78,13.83,13.83,0,0,1-1,2.22s-2.83,3.73-3.77,4.19l-2.6,2s-.52.91.52.73c0,0,2.71-2,3.47-2.69,0,0,.84-.29.52.37l-1.18,1.39s-.16.8.59.46l1.64-1.62s.59-.46.34.25-.3,1.28.55.87c0,0,2.07-2.07,2.41-3.35,0,0,2-4.39-.14-7.15"/><path class="cls-4" d="M36.08,50.49l.9-.77a.38.38,0,0,1,.53,0h0a.39.39,0,0,1,0,.53l-.9.78A.39.39,0,0,1,36,51h0A.39.39,0,0,1,36.08,50.49Z"/><path class="cls-4" d="M39.73,50.15l.9-.78a.38.38,0,0,1,.53,0h0a.37.37,0,0,1,0,.53h0l-.9.78a.37.37,0,0,1-.53,0h0A.37.37,0,0,1,39.73,50.15Z"/><path class="cls-4" d="M37.5,51.48l.9-.78a.38.38,0,0,1,.53,0h0a.39.39,0,0,1,0,.53l-.9.78a.38.38,0,0,1-.54,0h0A.38.38,0,0,1,37.5,51.48Z"/><path class="cls-4" d="M37.72,50.54l.85-.74a.19.19,0,0,1,.26,0h0a.18.18,0,0,1,0,.25h0l-.86.74a.17.17,0,0,1-.25,0h0a.17.17,0,0,1,0-.25Z"/><path class="cls-4" d="M39.69,49.22l.86-.73a.18.18,0,0,1,.25,0h0a.17.17,0,0,1,0,.25h0l-.85.74a.18.18,0,0,1-.25,0h0a.17.17,0,0,1,0-.25Z"/><path class="cls-4" d="M38.67,51.8l.86-.74a.18.18,0,0,1,.25,0h0a.17.17,0,0,1,0,.25h0l-.86.73a.17.17,0,0,1-.25,0h0a.18.18,0,0,1,0-.25Z"/><path class="cls-4" d="M41.2,50.14l.86-.73a.18.18,0,0,1,.25,0h0a.18.18,0,0,1,0,.25h0l-.85.74a.2.2,0,0,1-.26,0h0a.2.2,0,0,1,0-.26Z"/><path class="cls-4" d="M42.65,48.79l.76-.84a.19.19,0,0,1,.26,0h0a.18.18,0,0,1,0,.25h0l-.76.84a.19.19,0,0,1-.26,0h0A.18.18,0,0,1,42.65,48.79Z"/><path class="cls-4" d="M41.15,47.88l.85-.74a.2.2,0,0,1,.26,0h0a.2.2,0,0,1,0,.26h0l-.86.74a.19.19,0,0,1-.25,0h0a.18.18,0,0,1,0-.26Z"/><path class="cls-4" d="M42.37,50l.88-.8a.38.38,0,0,1,.53,0h0a.38.38,0,0,1,0,.54h0l-.88.8a.37.37,0,0,1-.53,0h0a.37.37,0,0,1,0-.53Z"/><path class="cls-4" d="M39.85,51.76l.89-.8a.38.38,0,0,1,.53,0h0a.37.37,0,0,1,0,.53l-.88.8a.37.37,0,0,1-.54,0h0A.38.38,0,0,1,39.85,51.76Z"/><path class="cls-4" d="M34.63,39.92S34.52,43.26,36,44c0,0-.61-3.35,3-6.42l4.26-3.87.56,2.51L47.51,28,38,30.26l2.54.74S38.13,33.29,38,33.5a11.9,11.9,0,0,0-1.25,1.4S36,36,35.65,36.61a11.06,11.06,0,0,0-.87,2.24,8.1,8.1,0,0,0-.16,1.1"/><path class="cls-1" d="M43.5,45.14l.77-.91a.37.37,0,0,1,.53,0h0a.37.37,0,0,1,0,.53h0l-.76.91a.38.38,0,0,1-.53.05h0a.38.38,0,0,1,0-.53Z"/><path class="cls-1" d="M45.16,42.61l.38-1.12a.38.38,0,0,1,.48-.24h0a.37.37,0,0,1,.23.48h0l-.39,1.12a.37.37,0,0,1-.48.24h0A.37.37,0,0,1,45.16,42.61Z"/><path class="cls-1" d="M35.37,40.18c.22-2.38,3.71-8.26,8.19-9.68.45.23,1.56,1.2.93,1.37C40.23,33.05,35.1,39.41,35.37,40.18Z"/><polyline class="cls-1" points="44.22 31.96 44.43 33.33 46.2 29.08 41.08 30.37 42.81 30.76"/><path class="cls-1" d="M44.7,46.4l.69-1a.37.37,0,0,1,.52-.09h0a.38.38,0,0,1,.09.53h0l-.69,1a.38.38,0,0,1-.53.09h0a.37.37,0,0,1-.08-.53Z"/><path class="cls-1" d="M46.25,40.18l-.14-1.25a.34.34,0,0,1,.3-.38h0a.34.34,0,0,1,.39.3L47,40.09a.34.34,0,0,1-.31.39h0a.33.33,0,0,1-.38-.3Z"/><path class="cls-1" d="M46.17,43.76l.39-1.12A.38.38,0,0,1,47,42.4h0a.38.38,0,0,1,.23.48L46.88,44a.38.38,0,0,1-.48.23h0a.38.38,0,0,1-.23-.48Z"/><path class="cls-5" d="M49.82,46.7V28.54h.62V44.7l5.48-7.48h.76l-3.3,4.54,3.3,4.54h-.76L53,42.3Z"/><circle class="cls-5" cx="101.08" cy="30.88" r="2.72"/><path class="cls-4" d="M100,32.42V29.34h1.37a1.88,1.88,0,0,1,.63.08.74.74,0,0,1,.34.29.84.84,0,0,1,.13.46.76.76,0,0,1-.23.53,1.08,1.08,0,0,1-.66.29,1,1,0,0,1,.25.15,1.9,1.9,0,0,1,.34.41l.54.84h-.47l-.41-.64a3.55,3.55,0,0,0-.29-.42,1,1,0,0,0-.21-.21.64.64,0,0,0-.19-.08h-.7v1.37Zm.41-1.72h.83a1.3,1.3,0,0,0,.44-.06.41.41,0,0,0,.24-.19.46.46,0,0,0,.08-.28.42.42,0,0,0-.16-.36.69.69,0,0,0-.5-.14h-1Z"/><path class="cls-4" d="M34.62,57.15V54.32H36v.31H34.93v.81H36v.26H34.93v1.08H36v.31Z"/><path class="cls-4" d="M36.48,57.15V55.38h.27v.32a.75.75,0,0,1,.25-.25.68.68,0,0,1,.34-.08.58.58,0,0,1,.45.17A.65.65,0,0,1,38,56v1.2h-.28v-1a.63.63,0,0,0-.1-.4.39.39,0,0,0-.32-.13.45.45,0,0,0-.23,0,.45.45,0,0,0-.24.3,1.61,1.61,0,0,0,0,.31v.91Z"/><path class="cls-4" d="M40,55.38v1.74a1.41,1.41,0,0,1,0,.41.48.48,0,0,1-.12.22.63.63,0,0,1-.28.2,1,1,0,0,1-.38.07.87.87,0,0,1-.58-.18.71.71,0,0,1-.22-.52h.31a.4.4,0,0,0,.13.31.54.54,0,0,0,.35.07.67.67,0,0,0,.28-.06.42.42,0,0,0,.18-.17.44.44,0,0,0,.05-.15,1,1,0,0,0,0-.25v-.3a.64.64,0,0,1-.25.29.59.59,0,0,1-.34.1.68.68,0,0,1-.56-.26,1.22,1.22,0,0,1,0-1.37.69.69,0,0,1,.56-.25.6.6,0,0,1,.35.1.62.62,0,0,1,.24.29v-.33Zm-.27.89a.71.71,0,0,0-.15-.48.51.51,0,0,0-.73,0h0l0,0a.72.72,0,0,0-.14.47.78.78,0,0,0,.14.49.48.48,0,0,0,.4.17.45.45,0,0,0,.39-.17A.75.75,0,0,0,39.75,56.27Z"/><path class="cls-4" d="M42.09,55.38v1.74a1.41,1.41,0,0,1,0,.41.48.48,0,0,1-.12.22.63.63,0,0,1-.28.2,1,1,0,0,1-.38.07.87.87,0,0,1-.58-.18.71.71,0,0,1-.22-.52h.31a.4.4,0,0,0,.13.31.52.52,0,0,0,.36.11.67.67,0,0,0,.28-.06.42.42,0,0,0,.18-.17.44.44,0,0,0,0-.15,1,1,0,0,0,0-.25v-.3a.64.64,0,0,1-.25.29.59.59,0,0,1-.34.1.68.68,0,0,1-.56-.26,1.22,1.22,0,0,1,0-1.37.69.69,0,0,1,.56-.25.6.6,0,0,1,.35.1.62.62,0,0,1,.24.29v-.33Zm-.27.89a.71.71,0,0,0-.15-.48.51.51,0,0,0-.73,0h0l0,0a.72.72,0,0,0-.14.47.78.78,0,0,0,.14.49.48.48,0,0,0,.4.17.45.45,0,0,0,.39-.17A.75.75,0,0,0,41.82,56.27Z"/><path class="cls-4" d="M42.63,57a.23.23,0,0,1,.06-.16.2.2,0,0,1,.28,0l0,0a.24.24,0,0,1,0,.32.22.22,0,0,1-.3,0A.23.23,0,0,1,42.63,57Z"/><path class="cls-4" d="M46.41,57.15l-.25-.33a1.13,1.13,0,0,1-.37.28.87.87,0,0,1-.42.1.74.74,0,0,1-.56-.22.86.86,0,0,1-.06-1,1.56,1.56,0,0,1,.45-.4l-.11-.13a1,1,0,0,1-.13-.22A1,1,0,0,1,45,55a.61.61,0,0,1,.17-.43.63.63,0,0,1,.43-.17.56.56,0,0,1,.43.16.68.68,0,0,1,0,.81,1.14,1.14,0,0,1-.36.33l.57.74.15-.19.16-.25.19.23-.16.23-.17.2.42.54ZM46,56.59l-.63-.83-.08.06a1.33,1.33,0,0,0-.29.29.54.54,0,0,0-.08.28.55.55,0,0,0,.14.37.45.45,0,0,0,.34.15.6.6,0,0,0,.29-.08A1.23,1.23,0,0,0,46,56.59Zm-.52-1.17.11-.07a.62.62,0,0,0,.18-.18.43.43,0,0,0,.06-.22.29.29,0,0,0-.08-.23.31.31,0,0,0-.44,0,.35.35,0,0,0-.08.24.33.33,0,0,0,0,.14.54.54,0,0,0,.07.13Z"/><path class="cls-4" d="M49.47,57.26l-.81-2-.33,1.92H48l.53-2.94.91,2.34.91-2.34.53,2.94h-.3l-.38-2Z"/><path class="cls-4" d="M52.72,56.31H51.44a.69.69,0,0,0,.15.46.5.5,0,0,0,.68.07.8.8,0,0,0,.23-.29l.21.15a.8.8,0,0,1-.75.48.74.74,0,0,1-.6-.27,1.17,1.17,0,0,1,0-1.38.73.73,0,0,1,.58-.26.69.69,0,0,1,.57.25,1,1,0,0,1,.21.69Zm-.3-.24a.54.54,0,0,0-.14-.36.45.45,0,0,0-.35-.13.48.48,0,0,0-.34.13.6.6,0,0,0-.16.36Z"/><path class="cls-4" d="M54.65,54.15v3h-.27v-.32a.64.64,0,0,1-.25.29.59.59,0,0,1-.34.1.68.68,0,0,1-.56-.26,1.24,1.24,0,0,1,0-1.38.68.68,0,0,1,.56-.26.6.6,0,0,1,.35.1.7.7,0,0,1,.24.3V54.15Zm-.27,2.12a.67.67,0,0,0-.15-.47.53.53,0,0,0-.78,0,.68.68,0,0,0-.14.46.84.84,0,0,0,.14.51.47.47,0,0,0,.39.19.48.48,0,0,0,.4-.17A.69.69,0,0,0,54.38,56.27Z"/><path class="cls-4" d="M55.23,57a.23.23,0,0,1,.06-.16.2.2,0,0,1,.28,0l0,0a.24.24,0,0,1,0,.32.22.22,0,0,1-.3,0A.23.23,0,0,1,55.23,57Z"/><path class="cls-4" d="M57.33,56.11h.83v.31h-.83Z"/><path class="cls-4" d="M61.37,57.15H59.8v-2.6h1.57v.31H60.12v.71h1.26v.31H60.12v1h1.26Z"/><path class="cls-4" d="M63.35,57.15h-.3V56a1,1,0,0,0,0-.25.41.41,0,0,0,0-.18.22.22,0,0,0-.12-.11.67.67,0,0,0-.2,0,.59.59,0,0,0-.26.07,1.45,1.45,0,0,0-.26.17v1.46h-.3v-2h.3v.22a1.37,1.37,0,0,1,.29-.2.67.67,0,0,1,.31-.07.53.53,0,0,1,.44.19.82.82,0,0,1,.15.55Z"/><path class="cls-4" d="M64.86,57.13h-.37a.56.56,0,0,1-.42-.16.75.75,0,0,1-.14-.52v-1h-.2v-.28h.2v-.56h.3v.56h.62v.28h-.62v1.13a.43.43,0,0,0,0,.16.24.24,0,0,0,.1.1h.46Z"/><path class="cls-4" d="M66.34,55.55h-.28a.64.64,0,0,0-.27.07,1.38,1.38,0,0,0-.25.17v1.39h-.31v-2h.3v.29a1.66,1.66,0,0,1,.32-.22.68.68,0,0,1,.28-.07h.21Z"/><path class="cls-4" d="M68,57.15h-.3v-.21l-.11.08-.13.08-.17.07H67a.58.58,0,0,1-.41-.17.66.66,0,0,1-.17-.45.74.74,0,0,1,.09-.36.59.59,0,0,1,.25-.22,1.09,1.09,0,0,1,.39-.11h.49a.31.31,0,0,0,0-.19.23.23,0,0,0-.1-.12.38.38,0,0,0-.15,0H67l-.3.1h0v-.33l.26-.06h.66a.55.55,0,0,1,.24.12.51.51,0,0,1,.15.21.7.7,0,0,1,0,.32Zm-.3-.48v-.54h-.33a1.57,1.57,0,0,0-.3,0,.46.46,0,0,0-.21.13.39.39,0,0,0,0,.48.41.41,0,0,0,.28.09.59.59,0,0,0,.29-.07,1.09,1.09,0,0,0,.27-.11Z"/><path class="cls-4" d="M70,57.15h-.3V56a1,1,0,0,0,0-.25.41.41,0,0,0,0-.18.22.22,0,0,0-.12-.11.67.67,0,0,0-.2,0,.59.59,0,0,0-.26.07,1.45,1.45,0,0,0-.26.17v1.46h-.3v-2h.3v.22a1.37,1.37,0,0,1,.29-.2.67.67,0,0,1,.31-.07.53.53,0,0,1,.44.19.82.82,0,0,1,.15.55Z"/><path class="cls-4" d="M71.94,57a1.48,1.48,0,0,1-.29.12h-.29a1.13,1.13,0,0,1-.36-.06.77.77,0,0,1-.28-.19.92.92,0,0,1-.18-.32,1.74,1.74,0,0,1-.06-.45,1.13,1.13,0,0,1,.24-.75.82.82,0,0,1,.64-.27h.3a1.11,1.11,0,0,1,.27.12v.48h0a1,1,0,0,0-.29-.18.72.72,0,0,0-.29-.06.48.48,0,0,0-.41.19.9.9,0,0,0-.15.55.87.87,0,0,0,.15.54.48.48,0,0,0,.41.19h.19l.17-.07.12-.08.1-.08h0Z"/><path class="cls-4" d="M73.83,56.2H72.51a.81.81,0,0,0,0,.31.64.64,0,0,0,.14.22.63.63,0,0,0,.2.13.53.53,0,0,0,.25,0,.91.91,0,0,0,.37-.08.76.76,0,0,0,.26-.16h0V57l-.31.12a1.53,1.53,0,0,1-1-.26,1,1,0,0,1-.25-.75,1.17,1.17,0,0,1,.24-.76.81.81,0,0,1,.63-.28.7.7,0,0,1,.56.23,1,1,0,0,1,.2.65ZM73.54,56a.59.59,0,0,0-.12-.4.43.43,0,0,0-.36-.14.48.48,0,0,0-.39.16.71.71,0,0,0-.16.39Z"/><path class="cls-4" d="M77,57.15H75.47v-2.6H77v.31H75.78v.71H77v.31H75.78v1H77Z"/><path class="cls-4" d="M79.07,57.15h-.38l-.46-.75-.51.75h-.35l.7-1-.69-1h.38l.51.74.51-.74h.35l-.7,1Z"/><path class="cls-4" d="M80.86,57.15h-.3v-.21l-.11.08-.13.08-.17.07h-.23a.58.58,0,0,1-.41-.17.66.66,0,0,1-.17-.45.74.74,0,0,1,.09-.36.59.59,0,0,1,.25-.22,1.09,1.09,0,0,1,.39-.11h.49a.31.31,0,0,0,0-.19.23.23,0,0,0-.1-.12.38.38,0,0,0-.15,0h-.45l-.3.1h0v-.33l.26-.06h.66a.55.55,0,0,1,.24.12.51.51,0,0,1,.15.21.7.7,0,0,1,0,.32Zm-.3-.48v-.54h-.33a1.57,1.57,0,0,0-.3,0,.46.46,0,0,0-.21.13.39.39,0,0,0,0,.48.41.41,0,0,0,.28.09.59.59,0,0,0,.29-.07,1.09,1.09,0,0,0,.27-.11Z"/><path class="cls-4" d="M84.05,57.15h-.3V55.79a.61.61,0,0,0,0-.19.2.2,0,0,0-.11-.11.34.34,0,0,0-.2,0,.55.55,0,0,0-.25.07,1.44,1.44,0,0,0-.25.18v1.45h-.3V55.78a.61.61,0,0,0,0-.19.2.2,0,0,0-.11-.11.34.34,0,0,0-.2,0,.55.55,0,0,0-.25.07,1.38,1.38,0,0,0-.25.17v1.46h-.3v-2h.3v.22a1.79,1.79,0,0,1,.28-.2.63.63,0,0,1,.3-.07.55.55,0,0,1,.31.08.53.53,0,0,1,.19.23,2,2,0,0,1,.33-.24.71.71,0,0,1,.32-.07.49.49,0,0,1,.44.19.93.93,0,0,1,.14.54Z"/><path class="cls-4" d="M85.91,56.58a.54.54,0,0,1-.2.44.84.84,0,0,1-.55.17,1.18,1.18,0,0,1-.37,0,1.62,1.62,0,0,1-.28-.11V56.7h0a1.5,1.5,0,0,0,.32.19,1,1,0,0,0,.33.07.64.64,0,0,0,.31-.07.27.27,0,0,0,0-.39.48.48,0,0,0-.23-.1h-.36a.63.63,0,0,1-.33-.2.53.53,0,0,1-.1-.32.89.89,0,0,1,0-.23.52.52,0,0,1,.14-.19.76.76,0,0,1,.23-.13.81.81,0,0,1,.31,0h.33a1.08,1.08,0,0,1,.27.1v.35h0a1,1,0,0,0-.28-.16.87.87,0,0,0-.32-.06.55.55,0,0,0-.28.07.24.24,0,0,0-.11.21.24.24,0,0,0,.07.18.62.62,0,0,0,.22.1h.36a.64.64,0,0,1,.32.18A.48.48,0,0,1,85.91,56.58Z"/><path class="cls-4" d="M89.1,57.15H87.52v-2.6h1.57v.31H87.84v.71H89.1v.31H87.84v1H89.1Z"/><path class="cls-4" d="M91.13,57.15h-.38l-.52-.75-.51.75h-.35l.7-1-.69-1h.38l.51.74.51-.74h.35l-.71,1Z"/><path class="cls-4" d="M93.1,56.15a1.54,1.54,0,0,1-.06.43,1.06,1.06,0,0,1-.18.33.82.82,0,0,1-.25.2.6.6,0,0,1-.3.07h-.25a.94.94,0,0,1-.23-.1v.82h-.3V55.19h.3v.21a1.27,1.27,0,0,1,.27-.18.71.71,0,0,1,.32-.07.6.6,0,0,1,.5.27A1.32,1.32,0,0,1,93.1,56.15Zm-.31,0a1,1,0,0,0-.11-.53.37.37,0,0,0-.34-.17.58.58,0,0,0-.26.06,1.32,1.32,0,0,0-.25.16v1.11l.22.09h.21a.48.48,0,0,0,.39-.19.87.87,0,0,0,.14-.52Z"/><path class="cls-4" d="M95.07,56.2H93.75a.81.81,0,0,0,0,.31.64.64,0,0,0,.14.22.63.63,0,0,0,.2.13h.25a.91.91,0,0,0,.37-.08.76.76,0,0,0,.26-.16h0V57l-.31.12a1.53,1.53,0,0,1-1-.26,1,1,0,0,1-.25-.75,1.17,1.17,0,0,1,.24-.76.81.81,0,0,1,.63-.28.7.7,0,0,1,.56.23,1,1,0,0,1,.2.65ZM94.78,56a.59.59,0,0,0-.12-.4.43.43,0,0,0-.36-.14.48.48,0,0,0-.39.16.71.71,0,0,0-.16.39Z"/><path class="cls-4" d="M96.64,55.55h-.28a.64.64,0,0,0-.27.07,1.38,1.38,0,0,0-.25.17v1.39h-.3v-2h.3v.29a1.66,1.66,0,0,1,.32-.22.68.68,0,0,1,.28-.07h.22Z"/><path class="cls-4" d="M97.86,57.13h-.37a.56.56,0,0,1-.42-.16.75.75,0,0,1-.14-.52v-1h-.2v-.28h.2v-.56h.3v.56h.62v.28h-.62v1.13a.43.43,0,0,0,0,.16.24.24,0,0,0,.1.1h.46Z"/><path class="cls-4" d="M98.71,57.15h-.38v-.5h.38Z"/><path class="cls-4" d="M99.91,57.15h-.38v-.5h.38Z"/><path class="cls-6" d="M71.61,49.41l.51-.42a5.25,5.25,0,0,0,6.68,0,3.63,3.63,0,0,0,1.43-2.85v-2.2a5.15,5.15,0,0,1-2,1.76,5.79,5.79,0,0,1-2.74.68A5.72,5.72,0,0,1,71.66,45,4.19,4.19,0,0,1,71,39.12a4.37,4.37,0,0,1,.68-.68,5.71,5.71,0,0,1,3.83-1.36,5.79,5.79,0,0,1,2.74.62,4.87,4.87,0,0,1,2,1.76v-2.2h.7v8.88a4.19,4.19,0,0,1-1.59,3.29,5.7,5.7,0,0,1-3.83,1.37A5.59,5.59,0,0,1,71.61,49.41Zm.53-4.86a5.27,5.27,0,0,0,6.66,0,3.64,3.64,0,0,0,.61-5.11,3.52,3.52,0,0,0-.61-.61,5.27,5.27,0,0,0-6.66,0,3.64,3.64,0,0,0-.61,5.11A3.91,3.91,0,0,0,72.14,44.55Z"/><path class="cls-6" d="M92.45,44.56l.46.42a5.8,5.8,0,0,1-3.78,1.37A5.71,5.71,0,0,1,85.3,45a4.2,4.2,0,0,1,0-6.57,5.72,5.72,0,0,1,3.83-1.37,5.81,5.81,0,0,1,3.8,1.38l-7.12,6.12a4.77,4.77,0,0,0,3.33,1.15A4.91,4.91,0,0,0,92.45,44.56Zm-7.08-.44,6.55-5.64a5.16,5.16,0,0,0-6.11.36,3.69,3.69,0,0,0-1.39,2.86A3.56,3.56,0,0,0,85.37,44.12Z"/><path class="cls-6" d="M95.64,46.14V33.55h.7v3.71h2.8v.6h-2.8v8.28Z"/><path class="cls-5" d="M61.23,51.4,64,46.06,59.48,37.3h.69l4.17,8.09,4.18-8.09h.71l-7.3,14.1Z"/></svg>