<svg id="Layer_1" data-name="Layer 1" xmlns="http://www.w3.org/2000/svg" xmlns:xlink="http://www.w3.org/1999/xlink" viewBox="0 0 135.02 58.53"><defs><style>.cls-1{fill:#a3a3a3;}.cls-2{fill:url(#radial-gradient);}.cls-3{fill:#5e57ea;}.cls-4{fill:#fff;}.cls-5,.cls-6{fill:none;stroke:#5e57ea;}.cls-5,.cls-6,.cls-8{stroke-miterlimit:10;}.cls-5{stroke-width:2px;}.cls-7{fill:#666;}.cls-8{fill:gray;stroke:gray;stroke-width:3px;}</style><radialGradient id="radial-gradient" cx="19.17" cy="32.73" fx="34.90764815769307" r="16.24" gradientTransform="translate(-6.49 17.44) rotate(-19.28) scale(1 0.7)" gradientUnits="userSpaceOnUse"><stop offset="0.29" stop-color="#f4f4f4"/><stop offset="0.29" stop-color="#f1f1f4"/><stop offset="0.31" stop-color="#cfcdf2"/><stop offset="0.33" stop-color="#b1aef0"/><stop offset="0.35" stop-color="#9792ee"/><stop offset="0.37" stop-color="#827cec"/><stop offset="0.39" stop-color="#726beb"/><stop offset="0.43" stop-color="#6660eb"/><stop offset="0.47" stop-color="#6059ea"/><stop offset="0.59" stop-color="#5e57ea"/><stop offset="0.65" stop-color="#6d66ea"/><stop offset="0.76" stop-color="#938fe8"/><stop offset="0.91" stop-color="#d1d0e7"/><stop offset="0.96" stop-color="#e6e6e6"/></radialGradient></defs><title>Skyget_logo-1_(with slogan)_without BG box</title><path class="cls-1" d="M8.51,34.72s-2.91,3.93-2.22,6.64c0,0,.91,2.51,4.64,1.88a13.93,13.93,0,0,0,6-2.48S22.35,36.86,25,36a1.25,1.25,0,0,0,.75-.64c.68-1.37,2.15-5.08-1.33-5.67a1,1,0,0,0-.39,0,16.34,16.34,0,0,0-7,4S12.68,37,10.22,37.48C10.22,37.48,7.71,38.31,8.51,34.72Z" transform="translate(-4.14 -9.74)"/><path class="cls-1" d="M28,30.71a3.86,3.86,0,0,0-3.78-1s1.55,0,1.81,2a10.42,10.42,0,0,1-.58,3.47,27,27,0,0,1-2,4.32s-5.51,7.26-7.33,8.15l-5,4s-1,1.77,1,1.42c0,0,5.28-3.91,6.74-5.24,0,0,1.63-.56,1,.72l-2.3,2.7s-.31,1.55,1.15.89L21.85,49s1.15-.89.66.49-.58,2.48,1.06,1.68c0,0,4-4,4.69-6.51,0,0,3.86-8.53-.27-13.91" transform="translate(-4.14 -9.74)"/><rect class="cls-1" x="6.59" y="53.93" width="3.79" height="1.47" rx="0.73" ry="0.73" transform="translate(-37.76 9.04) rotate(-40.74)"/><rect class="cls-1" x="13.7" y="53.25" width="3.79" height="1.47" rx="0.73" ry="0.73" transform="translate(-35.59 13.52) rotate(-40.74)"/><rect class="cls-1" x="9.36" y="55.87" width="3.79" height="1.47" rx="0.73" ry="0.73" transform="translate(-38.35 11.32) rotate(-40.74)"/><rect class="cls-1" x="9.94" y="54.14" width="2.89" height="0.71" rx="0.35" ry="0.35" transform="translate(-36.94 10.9) rotate(-40.74)"/><rect class="cls-1" x="13.79" y="51.61" width="2.89" height="0.71" rx="0.35" ry="0.35" transform="translate(-34.36 12.8) rotate(-40.74)"/><rect class="cls-1" x="11.81" y="56.62" width="2.89" height="0.71" rx="0.35" ry="0.35" transform="translate(-38.11 12.72) rotate(-40.74)"/><rect class="cls-1" x="16.73" y="53.37" width="2.89" height="0.71" rx="0.35" ry="0.35" transform="translate(-34.8 15.14) rotate(-40.74)"/><rect class="cls-1" x="19.48" y="50.61" width="2.89" height="0.71" rx="0.35" ry="0.35" transform="translate(-35 22.43) rotate(-47.73)"/><rect class="cls-1" x="16.61" y="49" width="2.89" height="0.71" rx="0.35" ry="0.35" transform="translate(-31.97 14.01) rotate(-40.74)"/><rect class="cls-1" x="18.81" y="52.92" width="3.79" height="1.47" rx="0.73" ry="0.73" transform="translate(-34.76 17.97) rotate(-42.08)"/><rect class="cls-1" x="13.93" y="56.34" width="3.79" height="1.47" rx="0.73" ry="0.73" transform="translate(-38.31 15.59) rotate(-42.08)"/><path class="cls-1" d="M4.32,34.29s-.22,6.49,2.61,7.92c0,0-1.2-6.51,5.75-12.49L21,22.14,22.14,27l7.24-15.91L11,15.47,15.9,16.9s-4.75,4.45-5.08,4.85a22.09,22.09,0,0,0-2.42,2.72S7,26.53,6.33,27.79a21.78,21.78,0,0,0-1.69,4.35,14.55,14.55,0,0,0-.32,2.15" transform="translate(-4.14 -9.74)"/><rect class="cls-1" x="20.99" y="43.3" width="3.79" height="1.47" rx="0.73" ry="0.73" transform="translate(-29.71 23.58) rotate(-50.07)"/><rect class="cls-1" x="23.99" y="37.96" width="3.79" height="1.47" rx="0.73" ry="0.73" transform="translate(-23.28 40.79) rotate(-70.95)"/><path class="cls-1" d="M5.76,34.8C6.18,30.18,13,18.75,21.69,16c.87.44,3,2.33,1.81,2.67C15.23,20.94,5.24,33.3,5.76,34.8Z" transform="translate(-4.14 -9.74)"/><polyline class="cls-1" points="18.83 9.07 19.24 11.74 22.69 3.49 12.74 5.99 16.1 6.76"/><rect class="cls-1" x="23.28" y="45.66" width="3.79" height="1.47" rx="0.73" ry="0.73" transform="translate(-31.36 30.25) rotate(-54.55)"/><rect class="cls-1" x="25.58" y="32.84" width="3.79" height="1.36" rx="0.68" ry="0.68" transform="translate(-6.73 55) rotate(-96.74)"/><rect class="cls-1" x="25.94" y="40.19" width="3.79" height="1.47" rx="0.73" ry="0.73" transform="translate(-24.07 44.14) rotate(-70.95)"/><path class="cls-2" d="M8.35,33.52s-2.91,3.93-2.22,6.64c0,0,.91,2.51,4.64,1.88a13.93,13.93,0,0,0,6-2.48s5.44-3.9,8.1-4.75a1.25,1.25,0,0,0,.75-.64c.68-1.37,2.15-5.08-1.33-5.67a1,1,0,0,0-.39,0,16.34,16.34,0,0,0-7,4s-4.41,3.32-6.87,3.76C10.05,36.28,7.55,37.11,8.35,33.52Z" transform="translate(-4.14 -9.74)"/><path class="cls-3" d="M27.84,29.51a3.86,3.86,0,0,0-3.78-1s1.55,0,1.81,2A10.42,10.42,0,0,1,25.29,34a27,27,0,0,1-2,4.32s-5.51,7.26-7.33,8.15l-5,4s-1,1.77,1,1.42c0,0,5.28-3.91,6.74-5.24,0,0,1.63-.56,1,.72L17.35,50s-.31,1.55,1.15.89l3.19-3.14s1.15-.89.66.49-.58,2.48,1.06,1.68c0,0,4-4,4.69-6.51,0,0,3.86-8.53-.27-13.91" transform="translate(-4.14 -9.74)"/><rect class="cls-3" x="6.42" y="52.73" width="3.79" height="1.47" rx="0.73" ry="0.73" transform="matrix(0.76, -0.65, 0.65, 0.76, -37.01, 8.64)"/><rect class="cls-3" x="13.54" y="52.05" width="3.79" height="1.47" rx="0.73" ry="0.73" transform="matrix(0.76, -0.65, 0.65, 0.76, -34.85, 13.12)"/><rect class="cls-3" x="9.19" y="54.67" width="3.79" height="1.47" rx="0.73" ry="0.73" transform="translate(-37.61 10.92) rotate(-40.74)"/><rect class="cls-3" x="9.77" y="52.94" width="2.89" height="0.71" rx="0.35" ry="0.35" transform="translate(-36.2 10.5) rotate(-40.74)"/><rect class="cls-3" x="13.62" y="50.41" width="2.89" height="0.71" rx="0.35" ry="0.35" transform="translate(-33.61 12.4) rotate(-40.74)"/><rect class="cls-3" x="11.64" y="55.42" width="2.89" height="0.71" rx="0.35" ry="0.35" transform="translate(-37.37 12.32) rotate(-40.74)"/><rect class="cls-3" x="16.56" y="52.17" width="2.89" height="0.71" rx="0.35" ry="0.35" transform="translate(-34.05 14.74) rotate(-40.74)"/><rect class="cls-3" x="19.31" y="49.41" width="2.89" height="0.71" rx="0.35" ry="0.35" transform="translate(-34.17 21.91) rotate(-47.73)"/><rect class="cls-3" x="16.45" y="47.8" width="2.89" height="0.71" rx="0.35" ry="0.35" transform="translate(-31.23 13.61) rotate(-40.74)"/><rect class="cls-3" x="18.64" y="51.72" width="3.79" height="1.47" rx="0.73" ry="0.73" transform="translate(-34 17.55) rotate(-42.08)"/><rect class="cls-3" x="13.77" y="55.14" width="3.79" height="1.47" rx="0.73" ry="0.73" transform="translate(-37.55 15.17) rotate(-42.08)"/><path class="cls-3" d="M4.16,33.09S3.94,39.58,6.76,41c0,0-1.2-6.51,5.75-12.49l8.37-7.58L22,25.83,29.21,9.92,10.79,14.27l4.94,1.43S11,20.15,10.65,20.55a22.09,22.09,0,0,0-2.42,2.72s-1.39,2.06-2.06,3.32a21.78,21.78,0,0,0-1.69,4.35,14.55,14.55,0,0,0-.32,2.15" transform="translate(-4.14 -9.74)"/><rect class="cls-4" x="20.82" y="42.1" width="3.79" height="1.47" rx="0.73" ry="0.73" transform="translate(-28.85 23.03) rotate(-50.07)"/><rect class="cls-4" x="23.82" y="36.76" width="3.79" height="1.47" rx="0.73" ry="0.73" transform="translate(-22.26 39.82) rotate(-70.95)"/><path class="cls-4" d="M5.59,33.6C6,29,12.81,17.55,21.53,14.77c.87.44,3,2.33,1.81,2.67C15.07,19.74,5.07,32.1,5.59,33.6Z" transform="translate(-4.14 -9.74)"/><polyline class="cls-4" points="18.67 7.87 19.07 10.54 22.53 2.29 12.57 4.79 15.93 5.56"/><rect class="cls-4" x="23.12" y="44.46" width="3.79" height="1.47" rx="0.73" ry="0.73" transform="translate(-30.45 29.61) rotate(-54.55)"/><rect class="cls-4" x="25.41" y="31.64" width="3.79" height="1.36" rx="0.68" ry="0.68" transform="translate(-5.72 53.49) rotate(-96.74)"/><rect class="cls-4" x="25.78" y="38.99" width="3.79" height="1.47" rx="0.73" ry="0.73" transform="translate(-23.05 43.18) rotate(-70.95)"/><path class="cls-5" d="M33.69,46.18V11h1.2V42.43L45.54,27.88H47l-6.42,8.83L47,45.54H45.54l-5.72-7.78Z" transform="translate(-4.14 -9.74)"/><circle class="cls-6" cx="129.23" cy="5.79" r="5.29"/><path class="cls-3" d="M131.25,18.51v-6h2.66a3.54,3.54,0,0,1,1.22.16,1.34,1.34,0,0,1,.67.57,1.7,1.7,0,0,1,.25.9,1.5,1.5,0,0,1-.41,1.07,2.09,2.09,0,0,1-1.27.56,2.05,2.05,0,0,1,.48.3,4.11,4.11,0,0,1,.66.8l1,1.63h-1l-.79-1.25q-.35-.54-.57-.83a1.82,1.82,0,0,0-.4-.4,1.2,1.2,0,0,0-.36-.16,2.39,2.39,0,0,0-.44,0H132v2.66Zm.79-3.35h1.7a2.55,2.55,0,0,0,.85-.11.9.9,0,0,0,.47-.36,1,1,0,0,0,.16-.54.89.89,0,0,0-.31-.7,1.44,1.44,0,0,0-1-.27H132Z" transform="translate(-4.14 -9.74)"/><path class="cls-7" d="M4.14,66.59v-5.5H6.8v.6H4.74v1.58H6.8v.61H4.74V66H6.8v.61Z" transform="translate(-4.14 -9.74)"/><path class="cls-7" d="M7.76,66.59V63.15h.53v.53a1.39,1.39,0,0,1,.49-.49A1.33,1.33,0,0,1,9.44,63a1.16,1.16,0,0,1,.87.32,1.23,1.23,0,0,1,.31.9v2.34h-.55v-2a1.23,1.23,0,0,0-.2-.78.75.75,0,0,0-.62-.25,1,1,0,0,0-.44.1.9.9,0,0,0-.33.27.86.86,0,0,0-.14.31,2.83,2.83,0,0,0,0,.6v1.78Z" transform="translate(-4.14 -9.74)"/><path class="cls-7" d="M14.64,63.15v3.38a3.2,3.2,0,0,1-.07.8,1.16,1.16,0,0,1-.23.42,1.37,1.37,0,0,1-.54.39,2,2,0,0,1-.73.13,1.63,1.63,0,0,1-1.12-.36,1.33,1.33,0,0,1-.42-1h.61v0a.74.74,0,0,0,.24.6,1,1,0,0,0,.69.21,1.23,1.23,0,0,0,.55-.11A.79.79,0,0,0,14,67.3a.94.94,0,0,0,.1-.3,2.89,2.89,0,0,0,0-.48v-.58a1.42,1.42,0,0,1-.48.57,1.18,1.18,0,0,1-.67.2,1.35,1.35,0,0,1-1.09-.5,2.38,2.38,0,0,1,0-2.67A1.32,1.32,0,0,1,12.94,63a1.23,1.23,0,0,1,.69.19,1.3,1.3,0,0,1,.47.57v-.64Zm-.52,1.73a1.42,1.42,0,0,0-.29-.93,1,1,0,0,0-1.52,0,1.39,1.39,0,0,0-.27.91,1.49,1.49,0,0,0,.27,1,1,1,0,0,0,.78.34.93.93,0,0,0,.76-.33A1.41,1.41,0,0,0,14.11,64.88Z" transform="translate(-4.14 -9.74)"/><path class="cls-7" d="M18.67,63.15v3.38a3.2,3.2,0,0,1-.07.8,1.16,1.16,0,0,1-.23.42,1.37,1.37,0,0,1-.54.39,2,2,0,0,1-.73.13A1.63,1.63,0,0,1,16,67.91a1.33,1.33,0,0,1-.42-1h.61v0a.74.74,0,0,0,.24.6,1,1,0,0,0,.69.21,1.23,1.23,0,0,0,.55-.11A.79.79,0,0,0,18,67.3a.94.94,0,0,0,.1-.3,2.89,2.89,0,0,0,0-.48v-.58a1.42,1.42,0,0,1-.48.57,1.18,1.18,0,0,1-.67.2,1.35,1.35,0,0,1-1.09-.5,2.38,2.38,0,0,1,0-2.67A1.32,1.32,0,0,1,17,63a1.23,1.23,0,0,1,.69.19,1.3,1.3,0,0,1,.47.57v-.64Zm-.52,1.73a1.42,1.42,0,0,0-.29-.93,1,1,0,0,0-1.52,0,1.39,1.39,0,0,0-.27.91,1.49,1.49,0,0,0,.27,1,1,1,0,0,0,.78.34.93.93,0,0,0,.76-.33A1.41,1.41,0,0,0,18.14,64.88Z" transform="translate(-4.14 -9.74)"/><path class="cls-7" d="M19.71,66.22a.45.45,0,0,1,.12-.32.38.38,0,0,1,.29-.13.39.39,0,0,1,.29.13.45.45,0,0,1,.12.32.43.43,0,0,1-.12.31.39.39,0,0,1-.3.13.38.38,0,0,1-.29-.13A.43.43,0,0,1,19.71,66.22Z" transform="translate(-4.14 -9.74)"/><path class="cls-7" d="M27.06,66.59,26.58,66a2.37,2.37,0,0,1-.72.55,1.85,1.85,0,0,1-.82.19A1.43,1.43,0,0,1,24,66.26a1.56,1.56,0,0,1-.41-1.12,1.58,1.58,0,0,1,.29-.91,2.9,2.9,0,0,1,.87-.78l-.21-.25a1.57,1.57,0,0,1-.24-.44,1.42,1.42,0,0,1-.08-.48,1.12,1.12,0,0,1,.32-.83,1.13,1.13,0,0,1,.84-.32,1.12,1.12,0,0,1,.83.32,1.14,1.14,0,0,1,.31.84,1.29,1.29,0,0,1-.22.73,2.43,2.43,0,0,1-.7.64l1.1,1.45c.09-.11.19-.24.29-.38l.31-.48.37.44a5.48,5.48,0,0,1-.31.46,4.53,4.53,0,0,1-.34.4l.81,1.06Zm-.82-1.08L25,63.9l-.15.11a2.31,2.31,0,0,0-.57.56,1,1,0,0,0-.16.55,1,1,0,0,0,.26.72.86.86,0,0,0,.66.29,1.19,1.19,0,0,0,.57-.15A2.66,2.66,0,0,0,26.24,65.5Zm-1-2.28.22-.14a1.16,1.16,0,0,0,.35-.36.84.84,0,0,0,.12-.44.63.63,0,0,0-.16-.45.56.56,0,0,0-.43-.17.55.55,0,0,0-.43.18.65.65,0,0,0-.17.46.81.81,0,0,0,0,.27.86.86,0,0,0,.14.24Z" transform="translate(-4.14 -9.74)"/><path class="cls-7" d="M33,66.8l-1.57-4-.63,3.74h-.59l1-5.72L33,65.42l1.77-4.55,1,5.72h-.59l-.64-3.74Z" transform="translate(-4.14 -9.74)"/><path class="cls-7" d="M39.34,65h-2.5V65a1.33,1.33,0,0,0,.29.89,1,1,0,0,0,1.33.15,1.59,1.59,0,0,0,.45-.56l.41.3a1.77,1.77,0,0,1-.61.7,1.55,1.55,0,0,1-.85.24,1.46,1.46,0,0,1-1.17-.52,2,2,0,0,1-.44-1.36,2,2,0,0,1,.44-1.32A1.43,1.43,0,0,1,37.83,63a1.37,1.37,0,0,1,1.11.49,2,2,0,0,1,.41,1.33Zm-.58-.48a1,1,0,0,0-.28-.7.93.93,0,0,0-.68-.25.9.9,0,0,0-.66.26,1.07,1.07,0,0,0-.3.69Z" transform="translate(-4.14 -9.74)"/><path class="cls-7" d="M43.1,60.77v5.82h-.52V66a1.45,1.45,0,0,1-.48.57,1.16,1.16,0,0,1-.66.2,1.34,1.34,0,0,1-1.09-.51,2.41,2.41,0,0,1,0-2.7,1.32,1.32,0,0,1,1.08-.5,1.2,1.2,0,0,1,.68.19,1.37,1.37,0,0,1,.47.58v-3Zm-.52,4.12a1.4,1.4,0,0,0-.29-.93,1,1,0,0,0-.77-.35.92.92,0,0,0-.75.32,1.33,1.33,0,0,0-.27.88,1.61,1.61,0,0,0,.27,1,.89.89,0,0,0,.75.36,1,1,0,0,0,.78-.34A1.42,1.42,0,0,0,42.57,64.89Z" transform="translate(-4.14 -9.74)"/><path class="cls-7" d="M44.27,66.22a.45.45,0,0,1,.12-.32.38.38,0,0,1,.29-.13.39.39,0,0,1,.29.13.45.45,0,0,1,.12.32.43.43,0,0,1-.12.31.39.39,0,0,1-.3.13.38.38,0,0,1-.29-.13A.43.43,0,0,1,44.27,66.22Z" transform="translate(-4.14 -9.74)"/><path class="cls-7" d="M48.3,64.58h1.61v.59H48.3Z" transform="translate(-4.14 -9.74)"/><path class="cls-7" d="M56.16,66.59H53.1V61.53h3.06v.6H53.72v1.39h2.44v.6H53.72V66h2.44Z" transform="translate(-4.14 -9.74)"/><path class="cls-7" d="M60,66.59h-.59V64.43a4,4,0,0,0,0-.49,1,1,0,0,0-.1-.36.49.49,0,0,0-.22-.21.89.89,0,0,0-.38-.07,1.14,1.14,0,0,0-.5.13,2.54,2.54,0,0,0-.5.33v2.83h-.59V62.79h.59v.42a2.34,2.34,0,0,1,.57-.39,1.39,1.39,0,0,1,.6-.14,1,1,0,0,1,.86.37,1.67,1.67,0,0,1,.3,1.07Z" transform="translate(-4.14 -9.74)"/><path class="cls-7" d="M62.95,66.56l-.36.08-.35,0a1,1,0,0,1-.81-.31,1.49,1.49,0,0,1-.28-1v-2h-.4v-.54h.4V61.71h.59v1.09h1.21v.54H61.74v1.73c0,.2,0,.35,0,.47a.81.81,0,0,0,.09.31A.44.44,0,0,0,62,66a.82.82,0,0,0,.37.06,1.07,1.07,0,0,0,.3,0l.22-.08h0Z" transform="translate(-4.14 -9.74)"/><path class="cls-7" d="M65.83,63.49h0l-.25,0-.29,0a1.13,1.13,0,0,0-.52.13,2.44,2.44,0,0,0-.49.34v2.69h-.59V62.79h.59v.56a2.87,2.87,0,0,1,.62-.43,1.25,1.25,0,0,1,.54-.13h.22l.21,0Z" transform="translate(-4.14 -9.74)"/><path class="cls-7" d="M69,66.59h-.58v-.4l-.21.16a1.5,1.5,0,0,1-.26.17,1.62,1.62,0,0,1-.78.18,1.07,1.07,0,0,1-.8-.34,1.2,1.2,0,0,1-.33-.87,1.28,1.28,0,0,1,.17-.7,1.16,1.16,0,0,1,.49-.42,2.44,2.44,0,0,1,.76-.21c.3,0,.62-.06,1-.08V64a.82.82,0,0,0-.07-.36.53.53,0,0,0-.2-.22.75.75,0,0,0-.3-.11l-.37,0a2.27,2.27,0,0,0-.51.07,3.82,3.82,0,0,0-.59.19h0v-.65l.49-.11a3.44,3.44,0,0,1,.64-.06,2.75,2.75,0,0,1,.64.07,1.21,1.21,0,0,1,.47.23,1,1,0,0,1,.3.4A1.61,1.61,0,0,1,69,64Zm-.58-.93V64.6l-.63.05a3,3,0,0,0-.58.1.92.92,0,0,0-.41.24.64.64,0,0,0-.16.45.63.63,0,0,0,.18.49.79.79,0,0,0,.55.17,1.22,1.22,0,0,0,.56-.13A2.4,2.4,0,0,0,68.39,65.66Z" transform="translate(-4.14 -9.74)"/><path class="cls-7" d="M73,66.59h-.59V64.43a4.08,4.08,0,0,0,0-.49,1,1,0,0,0-.1-.36.49.49,0,0,0-.22-.21.88.88,0,0,0-.38-.07,1.14,1.14,0,0,0-.5.13,2.59,2.59,0,0,0-.5.33v2.83H70.1V62.79h.59v.42a2.34,2.34,0,0,1,.57-.39,1.39,1.39,0,0,1,.6-.14,1,1,0,0,1,.86.37,1.67,1.67,0,0,1,.3,1.07Z" transform="translate(-4.14 -9.74)"/><path class="cls-7" d="M76.72,66.35a3.54,3.54,0,0,1-.56.24,1.81,1.81,0,0,1-.56.08,1.91,1.91,0,0,1-.69-.12,1.4,1.4,0,0,1-.54-.36,1.67,1.67,0,0,1-.35-.62,2.76,2.76,0,0,1-.12-.87,2.13,2.13,0,0,1,.47-1.46,1.58,1.58,0,0,1,1.24-.53,1.92,1.92,0,0,1,.59.09,2.94,2.94,0,0,1,.53.22v.71h0a2.21,2.21,0,0,0-.55-.35,1.42,1.42,0,0,0-.56-.12,1,1,0,0,0-.79.37,2.12,2.12,0,0,0,0,2.13.94.94,0,0,0,.79.37,1.34,1.34,0,0,0,.36-.05,1.49,1.49,0,0,0,.33-.13l.24-.15.18-.14h0Z" transform="translate(-4.14 -9.74)"/><path class="cls-7" d="M80.39,64.76H77.82a1.74,1.74,0,0,0,.1.61,1.15,1.15,0,0,0,.26.43,1,1,0,0,0,.38.24,1.42,1.42,0,0,0,.49.08,1.81,1.81,0,0,0,.72-.15,1.74,1.74,0,0,0,.51-.3h0v.7a4.63,4.63,0,0,1-.61.23,2.29,2.29,0,0,1-.65.09,1.78,1.78,0,0,1-1.35-.51,2,2,0,0,1-.49-1.45,2.2,2.2,0,0,1,.47-1.48,1.53,1.53,0,0,1,1.23-.55,1.35,1.35,0,0,1,1.09.45,1.91,1.91,0,0,1,.38,1.27Zm-.57-.49a1.2,1.2,0,0,0-.23-.78.86.86,0,0,0-.7-.27,1,1,0,0,0-.75.3,1.22,1.22,0,0,0-.32.75Z" transform="translate(-4.14 -9.74)"/><path class="cls-7" d="M86.63,66.59H83.57V61.53h3.06v.6H84.19v1.39h2.44v.6H84.19V66h2.44Z" transform="translate(-4.14 -9.74)"/><path class="cls-7" d="M90.58,66.59h-.74l-1-1.46-1,1.46h-.68l1.36-1.89-1.35-1.9h.74l1,1.43,1-1.43h.69l-1.37,1.87Z" transform="translate(-4.14 -9.74)"/><path class="cls-7" d="M94.05,66.59h-.58v-.4l-.21.16a1.47,1.47,0,0,1-.26.17,1.61,1.61,0,0,1-.78.18,1.07,1.07,0,0,1-.8-.34,1.2,1.2,0,0,1-.33-.87,1.28,1.28,0,0,1,.17-.7,1.16,1.16,0,0,1,.49-.42,2.45,2.45,0,0,1,.76-.21q.45-.05,1-.08V64a.82.82,0,0,0-.07-.36.54.54,0,0,0-.2-.22.76.76,0,0,0-.3-.11l-.36,0a2.29,2.29,0,0,0-.51.07,3.83,3.83,0,0,0-.59.19h0v-.65l.5-.11a3.43,3.43,0,0,1,.64-.06,2.75,2.75,0,0,1,.64.07,1.21,1.21,0,0,1,.47.23,1,1,0,0,1,.3.4,1.61,1.61,0,0,1,.1.61Zm-.58-.93V64.6l-.63.05a3,3,0,0,0-.58.1.93.93,0,0,0-.41.24.64.64,0,0,0-.16.45.63.63,0,0,0,.18.49.79.79,0,0,0,.55.17A1.22,1.22,0,0,0,93,66,2.46,2.46,0,0,0,93.47,65.66Z" transform="translate(-4.14 -9.74)"/><path class="cls-7" d="M100.26,66.59h-.59V64.43c0-.16,0-.32,0-.47a1.09,1.09,0,0,0-.09-.36.5.5,0,0,0-.21-.22A.81.81,0,0,0,99,63.3a1,1,0,0,0-.49.13,3,3,0,0,0-.49.34c0,.05,0,.11,0,.18s0,.14,0,.21v2.43h-.59V64.43q0-.25,0-.48a1.07,1.07,0,0,0-.09-.36.49.49,0,0,0-.21-.22.82.82,0,0,0-.39-.07,1,1,0,0,0-.48.13,2.91,2.91,0,0,0-.48.33v2.83h-.59V62.79h.59v.42a2.54,2.54,0,0,1,.55-.39,1.26,1.26,0,0,1,.58-.14,1.07,1.07,0,0,1,.6.16,1,1,0,0,1,.37.45,2.94,2.94,0,0,1,.65-.47,1.41,1.41,0,0,1,.63-.14,1,1,0,0,1,.85.38,1.78,1.78,0,0,1,.27,1.06Z" transform="translate(-4.14 -9.74)"/><path class="cls-7" d="M103.88,65.5a1.06,1.06,0,0,1-.4.85,1.62,1.62,0,0,1-1.08.33,2.37,2.37,0,0,1-.71-.1,3,3,0,0,1-.54-.22v-.72h0a2.3,2.3,0,0,0,.62.36,1.76,1.76,0,0,0,.65.13,1.15,1.15,0,0,0,.61-.14.47.47,0,0,0,.22-.43.45.45,0,0,0-.12-.34,1,1,0,0,0-.46-.2l-.33-.07-.37-.09a1.2,1.2,0,0,1-.65-.39,1,1,0,0,1-.19-.63,1.13,1.13,0,0,1,.09-.44,1.07,1.07,0,0,1,.27-.37,1.25,1.25,0,0,1,.44-.25,1.83,1.83,0,0,1,.6-.09,2.49,2.49,0,0,1,.63.08,2.27,2.27,0,0,1,.53.2v.68h0a2,2,0,0,0-.55-.3,1.73,1.73,0,0,0-.63-.12,1,1,0,0,0-.54.13.44.44,0,0,0-.22.4.44.44,0,0,0,.13.35,1,1,0,0,0,.42.19l.36.08.34.08a1.21,1.21,0,0,1,.63.35A1,1,0,0,1,103.88,65.5Z" transform="translate(-4.14 -9.74)"/><path class="cls-7" d="M110.07,66.59H107V61.53h3.06v.6h-2.44v1.39h2.44v.6h-2.44V66h2.44Z" transform="translate(-4.14 -9.74)"/><path class="cls-7" d="M114,66.59h-.74l-1-1.46-1,1.46h-.68L112,64.7l-1.35-1.9h.74l1,1.43,1-1.43H114l-1.37,1.87Z" transform="translate(-4.14 -9.74)"/><path class="cls-7" d="M117.85,64.65a2.78,2.78,0,0,1-.12.84,1.87,1.87,0,0,1-.34.65,1.45,1.45,0,0,1-.48.39,1.32,1.32,0,0,1-.59.14,1.74,1.74,0,0,1-.49-.07,1.93,1.93,0,0,1-.45-.2V68h-.59V62.79h.59v.4a2.28,2.28,0,0,1,.53-.36,1.4,1.4,0,0,1,.62-.14,1.12,1.12,0,0,1,1,.52A2.54,2.54,0,0,1,117.85,64.65Zm-.6,0a2,2,0,0,0-.22-1,.73.73,0,0,0-.66-.34,1.2,1.2,0,0,0-.51.12,2.27,2.27,0,0,0-.49.31v2.15a2.26,2.26,0,0,0,.43.17,1.67,1.67,0,0,0,.41,0,.91.91,0,0,0,.76-.36A1.75,1.75,0,0,0,117.25,64.66Z" transform="translate(-4.14 -9.74)"/><path class="cls-7" d="M121.68,64.76h-2.57a1.74,1.74,0,0,0,.1.61,1.15,1.15,0,0,0,.26.43,1,1,0,0,0,.38.24,1.42,1.42,0,0,0,.49.08,1.81,1.81,0,0,0,.72-.15,1.74,1.74,0,0,0,.51-.3h0v.7a4.63,4.63,0,0,1-.61.23,2.29,2.29,0,0,1-.65.09,1.78,1.78,0,0,1-1.35-.51,2,2,0,0,1-.49-1.45,2.2,2.2,0,0,1,.47-1.48,1.53,1.53,0,0,1,1.23-.55,1.35,1.35,0,0,1,1.09.45,1.91,1.91,0,0,1,.38,1.27Zm-.57-.49a1.2,1.2,0,0,0-.23-.78.86.86,0,0,0-.7-.27,1,1,0,0,0-.75.3,1.22,1.22,0,0,0-.32.75Z" transform="translate(-4.14 -9.74)"/><path class="cls-7" d="M124.74,63.49h0l-.25,0-.29,0a1.13,1.13,0,0,0-.52.13,2.44,2.44,0,0,0-.49.34v2.69h-.59V62.79h.59v.56a2.89,2.89,0,0,1,.62-.43,1.25,1.25,0,0,1,.54-.13h.22l.21,0Z" transform="translate(-4.14 -9.74)"/><path class="cls-7" d="M127.1,66.56l-.36.08-.35,0a1,1,0,0,1-.81-.31,1.48,1.48,0,0,1-.28-1v-2h-.4v-.54h.4V61.71h.59v1.09h1.21v.54h-1.21v1.73c0,.2,0,.35,0,.47a.81.81,0,0,0,.09.31.44.44,0,0,0,.19.2.82.82,0,0,0,.37.06,1.06,1.06,0,0,0,.3,0l.22-.08h0Z" transform="translate(-4.14 -9.74)"/><path class="cls-7" d="M128.77,66.59H128v-1h.75Z" transform="translate(-4.14 -9.74)"/><path class="cls-7" d="M131.09,66.59h-.75v-1h.75Z" transform="translate(-4.14 -9.74)"/><path class="cls-8" d="M76.08,51.55l1-.81a10.19,10.19,0,0,0,13,0,7.11,7.11,0,0,0,2.7-5.57V40.9a9.94,9.94,0,0,1-3.85,3.36,11.34,11.34,0,0,1-5.32,1.33,11,11,0,0,1-7.45-2.66,8.15,8.15,0,0,1,0-12.78,11.09,11.09,0,0,1,7.45-2.64,11.34,11.34,0,0,1,5.35,1.35,9.52,9.52,0,0,1,3.83,3.43V27.92h1.36V45.19A8.17,8.17,0,0,1,91,51.59a11,11,0,0,1-7.45,2.66A10.87,10.87,0,0,1,76.08,51.55Zm1-9.45a10.23,10.23,0,0,0,13,0,7.07,7.07,0,0,0,0-11.12,10.23,10.23,0,0,0-13,0,7.07,7.07,0,0,0,0,11.12Z" transform="translate(-4.14 -9.74)"/><path class="cls-8" d="M116.6,42.12l.89.81a11.29,11.29,0,0,1-7.34,2.66A11.07,11.07,0,0,1,102.71,43a8.16,8.16,0,0,1,0-12.78,11,11,0,0,1,7.44-2.66,11.26,11.26,0,0,1,7.39,2.69L103.7,42.11a9.27,9.27,0,0,0,6.45,2.31A9.56,9.56,0,0,0,116.6,42.12Zm-13.77-.86,12.74-11a10,10,0,0,0-11.88.7,7.11,7.11,0,0,0-2.7,5.57A6.88,6.88,0,0,0,102.82,41.26Z" transform="translate(-4.14 -9.74)"/><path class="cls-8" d="M122.8,45.19V20.7h1.36v7.21h5.45v1.17h-5.45v16.1Z" transform="translate(-4.14 -9.74)"/><path class="cls-5" d="M55.91,55.41,61.27,45,52.5,28h1.34l8.1,15.74L70.06,28H71.4L57.24,55.41Z" transform="translate(-4.14 -9.74)"/></svg>