<svg id="Layer_1" data-name="Layer 1" xmlns="http://www.w3.org/2000/svg" xmlns:xlink="http://www.w3.org/1999/xlink" viewBox="0 0 40 40"><defs><style>.cls-1{fill:url(#Degradado_sin_nombre_2);}.cls-2{fill:#fff;}</style><radialGradient id="Degradado_sin_nombre_2" cx="-1" cy="40.13" r="73.96" gradientUnits="userSpaceOnUse"><stop offset="0" stop-color="#f3ec55"/><stop offset="0.24" stop-color="#e48242"/><stop offset="0.4" stop-color="#d25867"/><stop offset="0.49" stop-color="#c94379"/><stop offset="1" stop-color="#4056a6"/></radialGradient></defs><rect class="cls-1" width="40" height="40"/><path class="cls-2" d="M20,11c2.93,0,3.27,0,4.43.06a6.13,6.13,0,0,1,2,.38,3.63,3.63,0,0,1,2.08,2.08,6.13,6.13,0,0,1,.38,2C29,16.73,29,17.07,29,20s0,3.28-.06,4.43a6.13,6.13,0,0,1-.38,2,3.63,3.63,0,0,1-2.08,2.08,6.13,6.13,0,0,1-2,.38C23.27,29,22.93,29,20,29s-3.27,0-4.43-.06a6.13,6.13,0,0,1-2-.38,3.63,3.63,0,0,1-2.08-2.08,6.13,6.13,0,0,1-.38-2C11,23.28,11,22.93,11,20s0-3.27.06-4.43a6.13,6.13,0,0,1,.38-2,3.63,3.63,0,0,1,2.08-2.08,6.13,6.13,0,0,1,2-.38C16.73,11,17.07,11,20,11m0-2c-3,0-3.35,0-4.52.07a7.93,7.93,0,0,0-2.66.51,5.52,5.52,0,0,0-3.21,3.21,7.93,7.93,0,0,0-.51,2.66C9.05,16.65,9,17,9,20s0,3.35.07,4.52a7.93,7.93,0,0,0,.51,2.66,5.52,5.52,0,0,0,3.21,3.21,7.93,7.93,0,0,0,2.66.51C16.65,31,17,31,20,31s3.35,0,4.52-.07a7.93,7.93,0,0,0,2.66-.51,5.52,5.52,0,0,0,3.21-3.21,7.93,7.93,0,0,0,.51-2.66C31,23.35,31,23,31,20s0-3.35-.07-4.52a7.93,7.93,0,0,0-.51-2.66,5.52,5.52,0,0,0-3.21-3.21,7.93,7.93,0,0,0-2.66-.51C23.35,9.05,23,9,20,9"/><path class="cls-2" d="M20,14.37A5.63,5.63,0,1,0,25.63,20,5.63,5.63,0,0,0,20,14.37m0,9.29A3.66,3.66,0,1,1,23.66,20,3.66,3.66,0,0,1,20,23.66"/><path class="cls-2" d="M27.17,14.15a1.32,1.32,0,1,1-1.32-1.32,1.32,1.32,0,0,1,1.32,1.32"/></svg>