<svg id="Layer_1" data-name="Layer 1" xmlns="http://www.w3.org/2000/svg" viewBox="0 0 40 40"><defs><style>.cls-1{fill:#47c7ef;}.cls-2{fill:#ffc907;}.cls-3{fill:#ef384a;}.cls-4{fill:#66be68;}.cls-5{fill:#45c7f0;}.cls-6{fill:#ef3a4b;}.cls-7{fill:#231f20;}</style></defs><path class="cls-1" d="M26.19,16.4,7.89,30.59a3,3,0,0,1-1.18-2.41V4.62A3,3,0,0,1,7.89,2.2Z"/><path class="cls-2" d="M31.72,19.06l-4.46,2.55-3.87-.48L22.08,16.4l.68-4.53,4.53-.67,4.46,2.55a3.07,3.07,0,0,1,0,5.32Z"/><path class="cls-3" d="M27.29,21.6l-16,9.24a3.05,3.05,0,0,1-3.43-.25L22.08,16.4Z"/><path class="cls-4" d="M27.29,11.2l-5.2,5.2L7.89,2.2A3,3,0,0,1,11.32,2Z"/><path class="cls-5" d="M10.17,28.18a3.81,3.81,0,0,0,.05.59L7.89,30.59a3,3,0,0,1-1.18-2.41V4.62A3,3,0,0,1,7.89,2.2L10.22,4a4,4,0,0,0-.05.6Z"/><path class="cls-6" d="M11.52,30.72l-.2.12a3.05,3.05,0,0,1-3.43-.25l2.28-2.31a3,3,0,0,0,1.18,2.29h0l.17.13Z"/><path class="cls-4" d="M11.35,2.2h0a3.06,3.06,0,0,0-1.18,2.31L7.89,2.2A3,3,0,0,1,11.32,2l.2.12Z"/><path class="cls-7" d="M8.09,36.8A3.81,3.81,0,0,1,6.8,37a2.18,2.18,0,0,1-1.58-.55,2.21,2.21,0,0,1-.59-1.57,2.12,2.12,0,0,1,2.29-2.18,2.6,2.6,0,0,1,1,.19l-.13.45a2.21,2.21,0,0,0-.94-.19,1.58,1.58,0,0,0-1.69,1.7,1.54,1.54,0,0,0,1.63,1.7,1.8,1.8,0,0,0,.72-.11V35.21H6.7v-.44H8.09Z"/><path class="cls-7" d="M11.68,35.45a1.48,1.48,0,0,1-1.51,1.61A1.44,1.44,0,0,1,8.72,35.5a1.48,1.48,0,0,1,1.5-1.61A1.44,1.44,0,0,1,11.68,35.45Zm-2.4,0c0,.66.38,1.16.92,1.16s.92-.49.92-1.17c0-.51-.26-1.17-.91-1.17S9.28,34.91,9.28,35.48Z"/><path class="cls-7" d="M15.12,35.45a1.48,1.48,0,0,1-1.51,1.61,1.44,1.44,0,0,1-1.45-1.56,1.48,1.48,0,0,1,1.5-1.61A1.44,1.44,0,0,1,15.12,35.45Zm-2.4,0c0,.66.38,1.16.92,1.16s.92-.49.92-1.17c0-.51-.26-1.17-.91-1.17S12.72,34.91,12.72,35.48Z"/><path class="cls-7" d="M18.42,34c0,.22,0,.46,0,.83v1.76A1.74,1.74,0,0,1,18,37.93a1.6,1.6,0,0,1-1.1.37,2,2,0,0,1-1-.25l.14-.42a1.75,1.75,0,0,0,.89.23c.56,0,1-.29,1-1v-.34h0a1.09,1.09,0,0,1-1,.51A1.35,1.35,0,0,1,15.6,35.5,1.45,1.45,0,0,1,17,33.89a1,1,0,0,1,.95.53h0l0-.46Zm-.57,1.2a.64.64,0,0,0,0-.25.8.8,0,0,0-.77-.59c-.52,0-.9.45-.9,1.15s.3,1.09.9,1.09a.81.81,0,0,0,.76-.57,1,1,0,0,0,0-.29Z"/><path class="cls-7" d="M19.32,32.55h.55V37h-.55Z"/><path class="cls-7" d="M21.1,35.57a1,1,0,0,0,1,1,2,2,0,0,0,.84-.15l.09.39a2.41,2.41,0,0,1-1,.19,1.41,1.41,0,0,1-1.49-1.53A1.47,1.47,0,0,1,22,33.89a1.29,1.29,0,0,1,1.26,1.43c0,.11,0,.2,0,.25Zm1.61-.39a.78.78,0,0,0-.76-.89.9.9,0,0,0-.84.89Z"/><path class="cls-7" d="M25.28,32.82a6.66,6.66,0,0,1,1-.08,1.75,1.75,0,0,1,1.18.35,1.11,1.11,0,0,1,.37.88,1.25,1.25,0,0,1-.32.9,1.75,1.75,0,0,1-1.29.47,2,2,0,0,1-.44,0V37h-.54Zm.54,2a1.47,1.47,0,0,0,.45,0c.66,0,1.06-.32,1.06-.9s-.4-.83-1-.83a1.94,1.94,0,0,0-.51,0Z"/><path class="cls-7" d="M28.56,32.55h.55V37h-.55Z"/><path class="cls-7" d="M31.71,37l0-.38h0a1.16,1.16,0,0,1-.93.45.86.86,0,0,1-.92-.87c0-.73.65-1.14,1.82-1.13V35a.62.62,0,0,0-.69-.7,1.58,1.58,0,0,0-.79.22L30,34.16a1.89,1.89,0,0,1,1-.27c.93,0,1.15.63,1.15,1.24v1.13a4,4,0,0,0,.05.73Zm-.08-1.55c-.6,0-1.28.1-1.28.68a.49.49,0,0,0,.52.53.76.76,0,0,0,.73-.51.51.51,0,0,0,0-.17Z"/><path class="cls-7" d="M33.2,34l.67,1.79c.06.2.14.44.19.62h0c.06-.18.12-.41.2-.63l.6-1.78h.58l-.83,2.16a4.43,4.43,0,0,1-1,1.89,1.38,1.38,0,0,1-.67.36l-.14-.46a1.48,1.48,0,0,0,.48-.27,1.74,1.74,0,0,0,.47-.61.51.51,0,0,0,0-.14.38.38,0,0,0,0-.14L32.6,34Z"/></svg>