<svg id="Layer_1" data-name="Layer 1" xmlns="http://www.w3.org/2000/svg" viewBox="0 0 40 40"><defs><style>.cls-1{fill:#ce202a;}.cls-2{fill:#fff;}</style></defs><rect class="cls-1" width="40" height="40"/><path class="cls-2" d="M13.6,21.86a.47.47,0,0,0,.68-.34c.07-.24.21-.85.28-1.1a.65.65,0,0,0-.2-.76,4,4,0,0,1-.9-2.67,6.47,6.47,0,0,1,6.72-6.54c3.67,0,5.68,2.24,5.68,5.23,0,3.93-1.74,7.25-4.33,7.25a2.11,2.11,0,0,1-2.15-2.62c.41-1.73,1.2-3.6,1.2-4.85a1.82,1.82,0,0,0-1.84-2c-1.46,0-2.63,1.51-2.63,3.53a5.2,5.2,0,0,0,.44,2.16s-1.49,6.32-1.76,7.43a15.3,15.3,0,0,0,0,5.19.19.19,0,0,0,.33.08,14.83,14.83,0,0,0,2.46-4.47c.17-.61,1-3.75,1-3.75a3.91,3.91,0,0,0,3.33,1.7c4.39,0,7.36-4,7.36-9.35,0-4-3.42-7.82-8.63-7.82-6.49,0-9.75,4.65-9.75,8.53C10.81,19,11.69,21.08,13.6,21.86Z"/></svg>