<svg id="Layer_1" data-name="Layer 1" xmlns="http://www.w3.org/2000/svg" viewBox="0 0 40 40"><defs><style>.cls-1{fill:#81c568;}.cls-2{fill:#fff;fill-rule:evenodd;}</style></defs><rect class="cls-1" x="-0.07" y="-0.04" width="40.08" height="40.08"/><path class="cls-2" d="M31,19.44a10.8,10.8,0,0,0-21.57-.19c0,.15,0,.31,0,.47a10.65,10.65,0,0,0,1.55,5.53L9,31l6-1.9a10.8,10.8,0,0,0,16-9.37A2.72,2.72,0,0,0,31,19.44ZM20.17,28.72a9.1,9.1,0,0,1-5-1.49l-3.48,1.11L12.82,25a8.9,8.9,0,0,1-1.73-5.28,8.49,8.49,0,0,1,.05-.88A9.08,9.08,0,0,1,29.21,19c0,.24,0,.47,0,.71A9,9,0,0,1,20.17,28.72Z"/><path class="cls-2" d="M25.11,21.88c-.27-.13-1.56-.77-1.81-.85s-.42-.14-.59.13-.69.85-.84,1-.31.2-.58.07a7.22,7.22,0,0,1-2.12-1.31,7.63,7.63,0,0,1-1.47-1.81c-.16-.26,0-.4.11-.53s.26-.31.4-.46l.1-.13c.06-.1.1-.19.16-.31a.46.46,0,0,0,0-.46c-.06-.14-.59-1.43-.82-1.95s-.43-.44-.59-.44l-.51,0a1,1,0,0,0-.7.32,2.93,2.93,0,0,0-.93,2.2,3.37,3.37,0,0,0,.14.89A6,6,0,0,0,16,20.06a10.89,10.89,0,0,0,4.52,4c2.69,1,2.69.69,3.18.65a2.64,2.64,0,0,0,1.78-1.25,2.27,2.27,0,0,0,.16-1.25A1.59,1.59,0,0,0,25.11,21.88Z"/></svg>