<svg id="Layer_1" data-name="Layer 1" xmlns="http://www.w3.org/2000/svg" viewBox="0 0 40 40"><defs><style>.cls-1{fill:#c22b27;}.cls-2{fill:#fff;}</style></defs><rect class="cls-1" width="40" height="40"/><path class="cls-2" d="M35.34,12.24A4,4,0,0,0,32.51,9.4C30,8.72,20,8.72,20,8.72s-10,0-12.51.68a4,4,0,0,0-2.83,2.84A42.22,42.22,0,0,0,4,20a42.22,42.22,0,0,0,.67,7.76A4,4,0,0,0,7.49,30.6c2.5.68,12.51.68,12.51.68s10,0,12.51-.68a4,4,0,0,0,2.83-2.84A42.22,42.22,0,0,0,36,20,42.22,42.22,0,0,0,35.34,12.24Z"/><polygon class="cls-1" points="16.73 24.76 16.73 15.24 25.09 20 16.73 24.76"/></svg>