<?xml version="1.0" encoding="iso-8859-1"?>
<!-- Generator: Adobe Illustrator 19.0.0, SVG Export Plug-In . SVG Version: 6.00 Build 0)  -->
<svg version="1.1" id="Capa_1" xmlns="http://www.w3.org/2000/svg" xmlns:xlink="http://www.w3.org/1999/xlink" x="0px" y="0px"
	 viewBox="0 0 512 512" style="enable-background:new 0 0 512 512;" xml:space="preserve">
<circle style="fill:#0073D9;" cx="256" cy="256" r="256"/>
<path style="fill:#003C7D;" d="M512,256c0-1.437-0.031-2.867-0.054-4.299L374.689,114.127c-5.923-6.397-14.375-10.42-23.727-10.42
	h-47.946L240.068,60.5l3.669,43.207h-47.946c-17.804,0-32.372,14.567-32.372,32.372V144h-60.086C81.15,144,63,162.15,63,184.333
	v121.333c0,11.281,4.696,21.517,12.228,28.855l177.692,177.44c1.027,0.012,2.05,0.039,3.08,0.039C397.385,512,512,397.385,512,256z"
	/>
<path style="fill:#FEE572;" d="M350.962,265.833H195.791c-17.804,0-32.372-14.567-32.372-32.372v-97.383
	c0-17.804,14.567-32.372,32.372-32.372h47.946L240.068,60.5l62.947,43.207h47.946c17.805,0,32.372,14.567,32.372,32.372v97.383
	C383.333,251.266,368.766,265.833,350.962,265.833z"/>
<path style="fill:#FCBF14;" d="M383.33,136.08v97.38c0,17.81-14.56,32.37-32.37,32.37h-77.58V83.36l29.64,20.35h47.94
	C368.77,103.71,383.33,118.27,383.33,136.08z"/>
<path style="fill:#00DEC1;" d="M253.458,215.5h155.171c17.804,0,32.372,14.567,32.372,32.372v97.383
	c0,17.805-14.567,32.372-32.372,32.372h-47.946l3.669,43.207l-62.947-43.207h-47.946c-17.805,0-32.372-14.567-32.372-32.372v-97.383
	C221.086,230.067,235.653,215.5,253.458,215.5z"/>
<path style="fill:#00AC95;" d="M441,247.87v97.38c0,17.81-14.57,32.38-32.37,32.38h-47.95l3.67,43.2L337,402.06V215.5h71.63
	C426.43,215.5,441,230.07,441,247.87z"/>
<path style="fill:#FFFFFF;" d="M296.667,144H103.333C81.15,144,63,162.15,63,184.333v121.333C63,327.85,81.15,346,103.333,346
	h59.738l-4.571,53.833L236.929,346h59.738C318.85,346,337,327.85,337,305.667V184.333C337,162.15,318.85,144,296.667,144z"/>
<path style="fill:#FFF7D6;" d="M337,184.33v121.34c0,22.18-18.15,40.33-40.33,40.33h-59.74L200,371.35V144h96.67
	C318.85,144,337,162.15,337,184.33z"/>
<g>
	<path style="fill:#E02424;" d="M111.264,242.524v29.016h-8.801v-45.277h6.824l23.595,29.717v-29.653h8.8v45.213h-7.142
		L111.264,242.524z"/>
	<path style="fill:#E02424;" d="M185.748,263.823v7.716h-31.439v-45.277h30.865v7.716h-22.065v10.905h19.067v7.142h-19.067v11.797
		h22.639V263.823z"/>
	<path style="fill:#E02424;" d="M211.447,226.39h8.099l5.101,14.987l5.102-14.987h8.163l-7.716,20.598l5.739,14.476l12.818-35.202
		h9.566l-18.43,45.277h-7.398l-7.844-19.004l-7.844,19.004h-7.397l-18.302-45.277h9.438l12.881,35.202l5.612-14.476L211.447,226.39z
		"/>
</g>
<g>
	<path style="fill:#9D1514;" d="M248.749,226.265l-12.814,35.202l-5.738-14.479l7.717-20.6h-8.168l-5.096,14.992l-5.104-14.992
		h-8.099l7.587,20.6l-5.608,14.479l-12.883-35.202H200v22.006l9.406,23.266h7.396l7.847-19.003l7.84,19.003h7.396l18.43-45.272
		L248.749,226.265L248.749,226.265z"/>
	<path style="fill:#9D1514;" d="M292.052,238.124c-0.298-0.297-0.84-0.701-1.626-1.212c-0.787-0.51-1.744-1.009-2.87-1.498
		c-1.127-0.489-2.349-0.903-3.667-1.244c-1.318-0.339-2.658-0.51-4.018-0.51c-2.423,0-4.231,0.446-5.42,1.339
		c-1.191,0.893-1.786,2.147-1.786,3.762c0,0.936,0.223,1.712,0.67,2.328c0.447,0.617,1.095,1.159,1.945,1.626
		c0.85,0.468,1.923,0.893,3.22,1.275c1.297,0.382,2.795,0.787,4.496,1.211c2.21,0.596,4.219,1.234,6.027,1.914
		c1.806,0.68,3.337,1.53,4.591,2.551c1.254,1.02,2.221,2.243,2.902,3.667c0.679,1.425,1.02,3.178,1.02,5.261
		c0,2.423-0.457,4.496-1.371,6.217c-0.915,1.722-2.147,3.115-3.699,4.177c-1.552,1.063-3.338,1.84-5.357,2.328
		c-2.02,0.488-4.135,0.733-6.345,0.733c-3.402,0-6.76-0.51-10.076-1.53c-3.316-1.02-6.292-2.465-8.928-4.336l3.89-7.589
		c0.383,0.382,1.073,0.883,2.073,1.499c0.999,0.617,2.178,1.234,3.539,1.85c1.361,0.617,2.87,1.138,4.528,1.562
		c1.658,0.425,3.358,0.638,5.102,0.638c4.846,0,7.27-1.552,7.27-4.655c0-0.978-0.277-1.807-0.829-2.488
		c-0.553-0.679-1.339-1.275-2.359-1.785c-1.021-0.51-2.254-0.978-3.699-1.403c-1.446-0.424-3.061-0.892-4.846-1.403
		c-2.168-0.594-4.05-1.244-5.644-1.945c-1.594-0.701-2.923-1.53-3.986-2.487c-1.063-0.956-1.86-2.062-2.391-3.316
		c-0.532-1.254-0.797-2.752-0.797-4.496c0-2.295,0.424-4.336,1.276-6.122c0.85-1.785,2.03-3.273,3.539-4.464
		c1.509-1.19,3.262-2.094,5.261-2.711c1.998-0.616,4.146-0.925,6.441-0.925c3.189,0,6.122,0.501,8.801,1.499
		c2.678,0.999,5.016,2.179,7.015,3.54L292.052,238.124z"/>
</g>
<g>
</g>
<g>
</g>
<g>
</g>
<g>
</g>
<g>
</g>
<g>
</g>
<g>
</g>
<g>
</g>
<g>
</g>
<g>
</g>
<g>
</g>
<g>
</g>
<g>
</g>
<g>
</g>
<g>
</g>
</svg>
