<svg id="Layer_1" data-name="Layer 1" xmlns="http://www.w3.org/2000/svg" viewBox="0 0 265.56 85.16"><defs><style>.cls-1{fill:#00b2e3;}.cls-2{fill:#808184;}.cls-12,.cls-13,.cls-14,.cls-15,.cls-16,.cls-17,.cls-3,.cls-9{fill:none;stroke-miterlimit:10;}.cls-3{stroke:#00b2e3;}.cls-4{fill:#01dac5;}.cls-5{fill:#4c9ec9;}.cls-6{fill:#77a240;}.cls-7{fill:#72a241;}.cls-8{fill:#78a440;}.cls-13,.cls-9{stroke:#df7626;}.cls-10{fill:#e07726;}.cls-11{fill:#fff;}.cls-12{stroke:#e07726;}.cls-12,.cls-13{stroke-width:0.5px;}.cls-14{stroke:#e82957;}.cls-15{stroke:#302ce5;}.cls-16{stroke:#2e3192;stroke-width:0.75px;}.cls-17{stroke:#267f0d;}.cls-18{fill:#2e3192;}</style></defs><title>Skyget-MPCBi Icons_FINAL_SVG (outline)</title><path class="cls-1" d="M90.25,90v-2a12.63,12.63,0,0,0,9.08-3.56A11.59,11.59,0,0,0,103,75.8a11.76,11.76,0,0,0-1.6-5.95,21.75,21.75,0,0,0-3.81-4.9l-4.47-4.28a20.14,20.14,0,0,1-3.84-5.15A13.65,13.65,0,0,1,87.75,49a13.41,13.41,0,0,1,4.3-10.07,14.5,14.5,0,0,1,10.4-4.12v1.91a12.6,12.6,0,0,0-9.08,3.58A11.66,11.66,0,0,0,89.66,49,11.89,11.89,0,0,0,91.22,55,21,21,0,0,0,95,59.88l4.49,4.3a20.73,20.73,0,0,1,3.86,5.13,14,14,0,0,1-2.7,16.62A14.5,14.5,0,0,1,90.25,90Z" transform="translate(-5.06 -20.4)"/><path class="cls-1" d="M113.78,91V34.82h1.91V85l17-23.21H135L124.78,75.88,135,90h-2.35l-9.12-12.4Z" transform="translate(-5.06 -20.4)"/><path class="cls-1" d="M143,105.55,151.6,89l-14-27.17h2.13l12.93,25.11,13-25.11h2.13l-22.57,43.75Z" transform="translate(-5.06 -20.4)"/><path class="cls-2" d="M175,100.33l1.4-1.32a12.87,12.87,0,0,0,22-9V83a14.82,14.82,0,0,1-5.4,5.48,14.68,14.68,0,0,1-22.24-12.61A14.11,14.11,0,0,1,175,65.44a14.79,14.79,0,0,1,23.31,3.49V61.81h1.91V90a14.81,14.81,0,0,1-14.78,14.78A14,14,0,0,1,175,100.33Zm1.43-15.4a12.82,12.82,0,1,0,18.16-18.09,12.82,12.82,0,0,0-18.16,0,12.74,12.74,0,0,0,0,18.13Z" transform="translate(-5.06 -20.4)"/><path class="cls-2" d="M231.77,85,233,86.29a14.55,14.55,0,0,1-10.29,4.34A14.72,14.72,0,0,1,212.3,65.48a14.22,14.22,0,0,1,10.43-4.34,14.53,14.53,0,0,1,10.36,4.39L213.68,84.94a12,12,0,0,0,9,3.77A12.33,12.33,0,0,0,231.77,85Zm-19.31-1.4L230.32,65.7a12.19,12.19,0,0,0-7.57-2.65,12.81,12.81,0,0,0-10.29,20.51Z" transform="translate(-5.06 -20.4)"/><path class="cls-2" d="M240.47,90V50h1.91V61.81H250v1.91h-7.65V90Z" transform="translate(-5.06 -20.4)"/><circle class="cls-3" cx="249.25" cy="16.3" r="15.8"/><path class="cls-1" d="M247.45,45.61V27.71h7.94a10.55,10.55,0,0,1,3.64.48,4,4,0,0,1,2,1.7,5.08,5.08,0,0,1,.74,2.7,4.5,4.5,0,0,1-1.23,3.21,6.24,6.24,0,0,1-3.81,1.66,6.13,6.13,0,0,1,1.43.89,12.27,12.27,0,0,1,2,2.38l3.11,4.87h-3l-2.37-3.72q-1-1.61-1.71-2.47a5.39,5.39,0,0,0-1.2-1.2,3.56,3.56,0,0,0-1.08-.48,7.14,7.14,0,0,0-1.32-.09h-2.75v7.95Zm2.37-10h5.09a7.64,7.64,0,0,0,2.54-.34,2.7,2.7,0,0,0,1.39-1.07,2.91,2.91,0,0,0,.48-1.61,2.67,2.67,0,0,0-.92-2.09,4.32,4.32,0,0,0-2.91-.82h-5.66Z" transform="translate(-5.06 -20.4)"/><circle class="cls-4" cx="45.51" cy="85.28" r="4.72" transform="translate(-38.87 9.65) rotate(-27.06)"/><circle class="cls-4" cx="53.32" cy="77.58" r="2.68" transform="translate(-34.51 12.35) rotate(-27.06)"/><circle class="cls-4" cx="48.51" cy="67.25" r="2.93" transform="translate(-30.34 9.04) rotate(-27.06)"/><circle class="cls-4" cx="37.38" cy="81.13" r="1.91" transform="translate(-37.88 5.49) rotate(-27.06)"/><circle class="cls-4" cx="41.75" cy="69.98" r="1.59" transform="translate(-32.33 6.26) rotate(-27.06)"/><rect class="cls-4" x="37.2" y="81.96" width="5.86" height="1.27" transform="translate(33.83 -29.62) rotate(25.14)"/><rect class="cls-4" x="47.45" y="80.16" width="5.86" height="1.27" transform="translate(-46.86 36.57) rotate(-43.56)"/><rect class="cls-4" x="41.56" y="68.36" width="5.86" height="1.03" transform="translate(-25.81 -1.18) rotate(-19.86)"/><rect class="cls-4" x="40.88" y="75.03" width="12.37" height="1.22" transform="translate(123.15 18.45) rotate(97.5)"/><path class="cls-5" d="M28.78,42.4" transform="translate(-5.06 -20.4)"/><path class="cls-5" d="M28.59,41.61" transform="translate(-5.06 -20.4)"/><path class="cls-5" d="M27.94,42.94c-1.1-.09-8.78-.41-8.22,8a2.65,2.65,0,0,0,.1.55,9.63,9.63,0,0,1-.56,6.22.17.17,0,0,0,.07.22l.69.42a.17.17,0,0,0,.25-.08,10.14,10.14,0,0,0,.84-5.13v0c-.05-.22-1.3-4.9,1-7.07l.31-.33A6.89,6.89,0,0,1,28,44C28.16,44.05,28,42.95,27.94,42.94Z" transform="translate(-5.06 -20.4)"/><polygon class="cls-5" points="23.01 22.56 23.05 23.68 22.82 23.63 21.9 22.76 22.82 22.54 23.01 22.56"/><path class="cls-6" d="M22.18,54.66c1.11.08,8.78.34,8.15-8.08,0-.19-.85-4,.41-6.77a.17.17,0,0,0-.07-.22L30,39.18a.17.17,0,0,0-.25.08,10.14,10.14,0,0,0-.8,5.13s1.35,4.91-1,7.1l-.3.33a6.89,6.89,0,0,1-5.61,1.74C22,53.55,22.1,54.66,22.18,54.66Z" transform="translate(-5.06 -20.4)"/><line class="cls-6" x1="17.2" y1="33.2" x2="17.18" y2="33.18"/><path class="cls-7" d="M28.45,45.17c-.86-.14-7.15-.95-7.16,5.93h0c0,.08.19,3,.86,3.62l.63,0c.15-.16,0-.35,0-.38-.22-.57-2-5.59,2.3-7.88,0,0,.07,0,0,0-.59.62-2.78,3.14-1.92,5.35a0,0,0,0,0,0,0A3.67,3.67,0,0,0,26,48.35s-.06-1.94,2.43-3.13A0,0,0,0,0,28.45,45.17Z" transform="translate(-5.06 -20.4)"/><path class="cls-6" d="M19.6,52.7l.15,1a3.27,3.27,0,0,0-3.31,1.67l-.7-.64A4.64,4.64,0,0,1,19.6,52.7Z" transform="translate(-5.06 -20.4)"/><path class="cls-5" d="M30.49,44l-.22-.88a2.59,2.59,0,0,0,2.91-1.25l.7.63A3.49,3.49,0,0,1,30.49,44Z" transform="translate(-5.06 -20.4)"/><polygon class="cls-8" points="24.26 30.15 21.56 27.69 21.88 27.06 24.72 29.65 24.26 30.15"/><polygon class="cls-8" points="23.22 31.96 21 29.93 21.51 29.48 23.68 31.46 23.22 31.96"/><polygon class="cls-8" points="21.21 33.49 18.87 31.36 19.5 31.01 21.67 32.99 21.21 33.49"/><rect class="cls-8" x="28.57" y="45.38" width="0.68" height="3.17" transform="translate(-30.33 16.29) rotate(-47.64)"/><ellipse class="cls-9" cx="12.7" cy="52.76" rx="2.31" ry="2.37"/><ellipse class="cls-10" cx="22.08" cy="48.79" rx="4.09" ry="4.19"/><ellipse class="cls-11" cx="22.08" cy="48.79" rx="0.72" ry="0.74"/><rect class="cls-10" x="8.55" y="41.73" width="21.34" height="0.99"/><line class="cls-12" x1="10.49" y1="42.06" x2="10.49" y2="53.63"/><line class="cls-12" x1="25.85" y1="48.34" x2="25.85" y2="54.13"/><path class="cls-13" d="M19.59,74.53s5.15-10.72,6.21-8.29" transform="translate(-5.06 -20.4)"/><rect class="cls-10" x="23.75" y="53.63" width="3.88" height="3.97"/><path class="cls-14" d="M39.5,97.61A33.94,33.94,0,0,1,5.56,63.67" transform="translate(-5.06 -20.4)"/><path class="cls-14" d="M54.55,94.1a33.8,33.8,0,0,1-15,3.51" transform="translate(-5.06 -20.4)"/><path class="cls-14" d="M77,64.5c3,21-14,38-36.5,38.33A36.42,36.42,0,0,1,28.66,101" transform="translate(-5.06 -20.4)"/><path class="cls-15" d="M39.5,92.83" transform="translate(-5.06 -20.4)"/><path class="cls-14" d="M10.17,59.89a28.5,28.5,0,0,1,17.29-24" transform="translate(-5.06 -20.4)"/><path class="cls-14" d="M36.35,91.53c-15.69-1.23-27.41-16-26.18-31.64" transform="translate(-5.06 -20.4)"/><rect class="cls-16" x="62.03" y="64.93" width="9.08" height="9.08" transform="translate(-5.45 -20.02) rotate(-0.33)"/><circle class="cls-16" cx="63.32" cy="66.62" r="3.95" transform="translate(-5.44 -20.03) rotate(-0.33)"/><path class="cls-17" d="M71.5,63.23" transform="translate(-5.06 -20.4)"/><path class="cls-18" d="M67.42,72.37H58.1v-.29l4.78-5L58.1,61.88V61.6h9l.28,2.69H67a2.33,2.33,0,0,0-.7-1.57,2.47,2.47,0,0,0-1.62-.47H60.47l3.9,4.27L60,71.12h4.84a3.36,3.36,0,0,0,1.82-.4,2.92,2.92,0,0,0,1-1.49l.34.06Z" transform="translate(-5.06 -20.4)"/></svg>