<svg id="Layer_1" data-name="Layer 1" xmlns="http://www.w3.org/2000/svg" viewBox="0 0 239.39 113.85"><defs><style>.cls-1{fill:#00b2e3;}.cls-2{fill:#808184;}.cls-3{fill:none;stroke:#00b2e3;stroke-miterlimit:10;}.cls-4{fill:#4d4d4d;}</style></defs><title>Skyget-MPCBi Icons_FINAL_(SVG)</title><path class="cls-1" d="M24.22,97.41V94.74A16.94,16.94,0,0,0,36.4,90a15.55,15.55,0,0,0,5-11.67,15.78,15.78,0,0,0-2.15-8,29.15,29.15,0,0,0-5.11-6.58l-6-5.75A27,27,0,0,1,23,51.1a18.32,18.32,0,0,1-2.12-8.73,18,18,0,0,1,5.77-13.51,19.45,19.45,0,0,1,14-5.52v2.56a16.9,16.9,0,0,0-12.18,4.8,15.64,15.64,0,0,0-5,11.71,16,16,0,0,0,2.09,8,28.21,28.21,0,0,0,5.08,6.57l6,5.77a27.81,27.81,0,0,1,5.18,6.88,18.81,18.81,0,0,1-3.62,22.29A19.45,19.45,0,0,1,24.22,97.41Z" transform="translate(-20.42 -22.76)"/><path class="cls-1" d="M55.78,98.69V23.33h2.56V90.66L81.13,59.53h3.16L70.54,78.42,84.29,97.31H81.13L68.9,80.67Z" transform="translate(-20.42 -22.76)"/><path class="cls-1" d="M95,118.21,106.51,96,87.74,59.53H90.6l17.34,33.68,17.38-33.68h2.86L97.9,118.21Z" transform="translate(-20.42 -22.76)"/><path class="cls-2" d="M137.85,111.21l1.87-1.78a17.26,17.26,0,0,0,29.49-12.13V87.94A19.89,19.89,0,0,1,162,95.28a19.7,19.7,0,0,1-29.84-16.92,18.93,18.93,0,0,1,5.82-14,19.84,19.84,0,0,1,31.27,4.69V59.53h2.56V97.31A19.87,19.87,0,0,1,152,117.13,18.84,18.84,0,0,1,137.85,111.21Zm1.92-20.67a17.19,17.19,0,1,0,24.36-24.26,17.2,17.2,0,0,0-24.36,0,17.09,17.09,0,0,0,0,24.31Z" transform="translate(-20.42 -22.76)"/><path class="cls-2" d="M214.06,90.6l1.68,1.78a19.52,19.52,0,0,1-13.81,5.82,19.76,19.76,0,0,1-19.79-19.73,19.86,19.86,0,0,1,19.81-19.83,19.49,19.49,0,0,1,13.89,5.89l-26,26a16.07,16.07,0,0,0,12.13,5.06A16.53,16.53,0,0,0,214.06,90.6Zm-25.91-1.87,24-24A16.34,16.34,0,0,0,202,61.21,17.35,17.35,0,0,0,184.7,78.47,16.5,16.5,0,0,0,188.15,88.73Z" transform="translate(-20.42 -22.76)"/><path class="cls-2" d="M225.73,97.31V43.75h2.56V59.53h10.26v2.56H228.29V97.31Z" transform="translate(-20.42 -22.76)"/><circle class="cls-3" cx="226.57" cy="12.82" r="12.32"/><path class="cls-1" d="M241.63,42.53v-14h6.19a8.23,8.23,0,0,1,2.84.38,3.1,3.1,0,0,1,1.55,1.33,4,4,0,0,1,.58,2.1,3.51,3.51,0,0,1-1,2.5,4.87,4.87,0,0,1-3,1.29,4.78,4.78,0,0,1,1.11.69,9.61,9.61,0,0,1,1.53,1.86l2.43,3.8H251.6l-1.85-2.9q-.81-1.26-1.33-1.92a4.2,4.2,0,0,0-.94-.93,2.78,2.78,0,0,0-.84-.37,5.61,5.61,0,0,0-1-.07h-2.14v6.2Zm1.85-7.8h4a5.94,5.94,0,0,0,2-.26,2.1,2.1,0,0,0,1.08-.84,2.26,2.26,0,0,0,.37-1.25,2.08,2.08,0,0,0-.72-1.63,3.36,3.36,0,0,0-2.27-.64h-4.42Z" transform="translate(-20.42 -22.76)"/><path class="cls-4" d="M20.42,133.33V122.54h5v1.17H21.55v3.09h3.89V128H21.55v4.13h3.89v1.19Z" transform="translate(-20.42 -22.76)"/><path class="cls-4" d="M27.25,133.33v-6.74h1v1a2.65,2.65,0,0,1,.92-1,2.42,2.42,0,0,1,1.25-.32,2.14,2.14,0,0,1,1.65.63,2.48,2.48,0,0,1,.59,1.76v4.59h-1v-4a2.49,2.49,0,0,0-.38-1.52,1.38,1.38,0,0,0-1.17-.5,1.81,1.81,0,0,0-.83.19,1.67,1.67,0,0,0-.62.53,1.72,1.72,0,0,0-.27.6,5.8,5.8,0,0,0-.08,1.18v3.49Z" transform="translate(-20.42 -22.76)"/><path class="cls-4" d="M40.21,126.59v6.62a6.52,6.52,0,0,1-.13,1.56,2.28,2.28,0,0,1-.43.83,2.58,2.58,0,0,1-1,.76,3.57,3.57,0,0,1-1.38.25,3,3,0,0,1-2.11-.7,2.66,2.66,0,0,1-.79-2H35.5V134a1.49,1.49,0,0,0,.46,1.17,1.9,1.9,0,0,0,1.31.41,2.23,2.23,0,0,0,1-.22,1.51,1.51,0,0,0,.66-.67,1.89,1.89,0,0,0,.2-.58,5.82,5.82,0,0,0,.06-1V132a2.75,2.75,0,0,1-.9,1.11,2.16,2.16,0,0,1-1.25.39,2.51,2.51,0,0,1-2.06-1,4.83,4.83,0,0,1,0-5.24,2.46,2.46,0,0,1,2-1,2.26,2.26,0,0,1,1.3.38,2.55,2.55,0,0,1,.88,1.12v-1.25Zm-1,3.39a2.87,2.87,0,0,0-.55-1.83,1.88,1.88,0,0,0-2.87-.05,2.79,2.79,0,0,0-.51,1.79,3,3,0,0,0,.52,1.89,1.75,1.75,0,0,0,1.47.66,1.72,1.72,0,0,0,1.43-.65A2.84,2.84,0,0,0,39.23,130Z" transform="translate(-20.42 -22.76)"/><path class="cls-4" d="M52.36,133.33l-.92-1.25a4.52,4.52,0,0,1-1.35,1.09,3.37,3.37,0,0,1-1.54.37,2.64,2.64,0,0,1-2-.85,3.12,3.12,0,0,1-.78-2.2,3.17,3.17,0,0,1,.54-1.79,5.54,5.54,0,0,1,1.64-1.54l-.39-.49a3.13,3.13,0,0,1-.46-.85,2.89,2.89,0,0,1-.15-.94,2.25,2.25,0,0,1,.61-1.63,2.09,2.09,0,0,1,1.58-.63,2.06,2.06,0,0,1,1.57.62,2.28,2.28,0,0,1,.59,1.64,2.61,2.61,0,0,1-.41,1.44,4.65,4.65,0,0,1-1.32,1.26l2.07,2.84q.26-.32.54-.74t.59-.94l.7.86a10.57,10.57,0,0,1-.58.9,8.7,8.7,0,0,1-.63.78l1.52,2.07Zm-1.55-2.13L48.51,128l-.28.21a4.44,4.44,0,0,0-1.08,1.09,2,2,0,0,0-.3,1.08,2.08,2.08,0,0,0,.5,1.42,1.59,1.59,0,0,0,1.25.57,2.19,2.19,0,0,0,1.07-.29A5.07,5.07,0,0,0,50.81,131.2Zm-1.91-4.48.42-.27a2.21,2.21,0,0,0,.67-.7,1.69,1.69,0,0,0,.22-.85,1.27,1.27,0,0,0-.31-.89,1.05,1.05,0,0,0-.81-.33,1,1,0,0,0-.81.35,1.31,1.31,0,0,0-.31.9,1.63,1.63,0,0,0,.09.53,1.67,1.67,0,0,0,.26.48Z" transform="translate(-20.42 -22.76)"/><path class="cls-4" d="M63.58,133.75l-3-7.75-1.2,7.33H58.32l1.93-11.21L63.58,131l3.33-8.92,1.93,11.21H67.74L66.53,126Z" transform="translate(-20.42 -22.76)"/><path class="cls-4" d="M75.52,130.13H70.8v.1a2.67,2.67,0,0,0,.55,1.75,1.82,1.82,0,0,0,2.5.3,3.09,3.09,0,0,0,.85-1.1l.77.59a3.41,3.41,0,0,1-1.14,1.38,2.84,2.84,0,0,1-1.61.46,2.71,2.71,0,0,1-2.2-1,4.05,4.05,0,0,1-.84-2.67,3.94,3.94,0,0,1,.83-2.59,2.65,2.65,0,0,1,2.14-1,2.54,2.54,0,0,1,2.09,1,4.06,4.06,0,0,1,.77,2.62Zm-1.09-.94a2.07,2.07,0,0,0-.52-1.37,1.72,1.72,0,0,0-1.29-.48,1.66,1.66,0,0,0-1.24.5,2.15,2.15,0,0,0-.57,1.35Z" transform="translate(-20.42 -22.76)"/><path class="cls-4" d="M82.59,121.91v11.42h-1v-1.22a2.81,2.81,0,0,1-.91,1.12,2.13,2.13,0,0,1-1.25.39,2.5,2.5,0,0,1-2.06-1,4.89,4.89,0,0,1,0-5.29,2.46,2.46,0,0,1,2-1,2.2,2.2,0,0,1,1.29.38,2.66,2.66,0,0,1,.88,1.13v-5.95Zm-1,8.08a2.81,2.81,0,0,0-.55-1.82,1.77,1.77,0,0,0-1.46-.69,1.72,1.72,0,0,0-1.41.63,2.68,2.68,0,0,0-.51,1.73,3.25,3.25,0,0,0,.51,1.95,1.66,1.66,0,0,0,1.42.7,1.77,1.77,0,0,0,1.47-.66A2.87,2.87,0,0,0,81.6,130Z" transform="translate(-20.42 -22.76)"/><path class="cls-4" d="M84.48,123.34a.87.87,0,0,1,.22-.59.68.68,0,0,1,.53-.25.67.67,0,0,1,.52.25.89.89,0,0,1,.22.6.86.86,0,0,1-.21.59.68.68,0,0,1-.53.24.69.69,0,0,1-.53-.24A.87.87,0,0,1,84.48,123.34Zm.24,10v-6.74h1v6.74Z" transform="translate(-20.42 -22.76)"/><path class="cls-4" d="M91.7,129.39h3v1.16h-3Z" transform="translate(-20.42 -22.76)"/><path class="cls-4" d="M106.53,133.33h-5.77v-9.92h5.77v1.17h-4.61v2.72h4.61v1.17h-4.61v3.69h4.61Z" transform="translate(-20.42 -22.76)"/><path class="cls-4" d="M113.78,133.33h-1.11v-4.24a8.18,8.18,0,0,0-.05-1,1.93,1.93,0,0,0-.19-.7A.94.94,0,0,0,112,127a1.61,1.61,0,0,0-.72-.14,2.08,2.08,0,0,0-.95.25,4.73,4.73,0,0,0-.95.65v5.56h-1.11v-7.44h1.11v.83a4.46,4.46,0,0,1,1.07-.76,2.53,2.53,0,0,1,1.14-.27,1.92,1.92,0,0,1,1.62.73,3.38,3.38,0,0,1,.56,2.09Z" transform="translate(-20.42 -22.76)"/><path class="cls-4" d="M119.33,133.26a5.39,5.39,0,0,1-.68.15,4.11,4.11,0,0,1-.66.06,1.9,1.9,0,0,1-1.53-.61,3,3,0,0,1-.52-2v-4h-.75v-1.05h.75v-2.14H117v2.14h2.28v1.05H117v3.39c0,.39,0,.7,0,.92a1.65,1.65,0,0,0,.16.62.85.85,0,0,0,.36.39,1.5,1.5,0,0,0,.69.12,1.94,1.94,0,0,0,.56-.09l.42-.15h.06Z" transform="translate(-20.42 -22.76)"/><path class="cls-4" d="M124.76,127.25h-.06a3.48,3.48,0,0,0-.48-.1,4.26,4.26,0,0,0-.55,0,2.06,2.06,0,0,0-1,.26,4.49,4.49,0,0,0-.92.66v5.28h-1.11v-7.44h1.11V127a5.34,5.34,0,0,1,1.16-.85,2.28,2.28,0,0,1,1-.25l.42,0,.39.06Z" transform="translate(-20.42 -22.76)"/><path class="cls-4" d="M130.7,133.33h-1.1v-.79l-.4.32a2.79,2.79,0,0,1-.49.32,2.94,2.94,0,0,1-1.48.36,2,2,0,0,1-1.51-.67,2.4,2.4,0,0,1-.62-1.7,2.59,2.59,0,0,1,.32-1.37,2.21,2.21,0,0,1,.92-.82,4.47,4.47,0,0,1,1.44-.41q.84-.11,1.81-.16v-.19a1.66,1.66,0,0,0-.13-.71,1.05,1.05,0,0,0-.38-.44,1.45,1.45,0,0,0-.56-.21,4.24,4.24,0,0,0-.69-.05,4.19,4.19,0,0,0-1,.13,7,7,0,0,0-1.11.38h-.06V126q.32-.1.94-.22a6.25,6.25,0,0,1,1.21-.12,5,5,0,0,1,1.21.13,2.24,2.24,0,0,1,.89.44,2,2,0,0,1,.56.79,3.27,3.27,0,0,1,.19,1.21Zm-1.1-1.83v-2.07l-1.19.1a5.51,5.51,0,0,0-1.08.19,1.75,1.75,0,0,0-.77.48,1.51,1.51,0,0,0,0,1.85,1.46,1.46,0,0,0,1,.32,2.23,2.23,0,0,0,1.06-.26A4.72,4.72,0,0,0,129.6,131.5Z" transform="translate(-20.42 -22.76)"/><path class="cls-4" d="M138.32,133.33h-1.11v-4.24a8.18,8.18,0,0,0-.05-1,1.93,1.93,0,0,0-.19-.7.94.94,0,0,0-.42-.42,1.61,1.61,0,0,0-.72-.14,2.08,2.08,0,0,0-.95.25,4.73,4.73,0,0,0-.95.65v5.56h-1.11v-7.44h1.11v.83A4.46,4.46,0,0,1,135,126a2.53,2.53,0,0,1,1.14-.27,1.92,1.92,0,0,1,1.62.73,3.38,3.38,0,0,1,.56,2.09Z" transform="translate(-20.42 -22.76)"/><path class="cls-4" d="M145.31,132.86a6.66,6.66,0,0,1-1.05.47,3.29,3.29,0,0,1-1.06.17,3.49,3.49,0,0,1-1.31-.24,2.64,2.64,0,0,1-1-.72,3.31,3.31,0,0,1-.66-1.21,5.62,5.62,0,0,1-.24-1.71,4.28,4.28,0,0,1,.89-2.87,2.92,2.92,0,0,1,2.34-1,3.51,3.51,0,0,1,1.11.18,5.34,5.34,0,0,1,1,.44v1.39h-.06a4.12,4.12,0,0,0-1-.69,2.57,2.57,0,0,0-1.05-.24,1.76,1.76,0,0,0-1.49.72,4.31,4.31,0,0,0,0,4.17,1.75,1.75,0,0,0,1.5.72,2.47,2.47,0,0,0,.68-.1,2.77,2.77,0,0,0,.62-.26,5,5,0,0,0,.45-.3l.34-.27h.06Z" transform="translate(-20.42 -22.76)"/><path class="cls-4" d="M152.23,129.74h-4.84a3.55,3.55,0,0,0,.18,1.2,2.28,2.28,0,0,0,.5.84,2,2,0,0,0,.73.48,2.59,2.59,0,0,0,.93.16,3.29,3.29,0,0,0,1.35-.3,3.23,3.23,0,0,0,1-.6h.06v1.37a8.44,8.44,0,0,1-1.14.45,4.12,4.12,0,0,1-1.22.18,3.29,3.29,0,0,1-2.55-1,4.07,4.07,0,0,1-.92-2.85,4.43,4.43,0,0,1,.88-2.9,2.85,2.85,0,0,1,2.31-1.07,2.5,2.5,0,0,1,2,.88,3.84,3.84,0,0,1,.72,2.5Zm-1.08-1a2.41,2.41,0,0,0-.44-1.53,1.58,1.58,0,0,0-1.31-.54,1.8,1.8,0,0,0-1.41.59,2.45,2.45,0,0,0-.6,1.47Z" transform="translate(-20.42 -22.76)"/><path class="cls-4" d="M164,133.33h-5.77v-9.92H164v1.17h-4.61v2.72H164v1.17h-4.61v3.69H164Z" transform="translate(-20.42 -22.76)"/><path class="cls-4" d="M171.44,133.33H170l-1.87-2.86-1.88,2.86H165l2.57-3.71L165,125.88h1.39l1.85,2.81,1.86-2.81h1.29l-2.58,3.67Z" transform="translate(-20.42 -22.76)"/><path class="cls-4" d="M178,133.33h-1.1v-.79l-.4.32a2.81,2.81,0,0,1-.49.32,2.94,2.94,0,0,1-1.48.36,2,2,0,0,1-1.51-.67,2.4,2.4,0,0,1-.62-1.7,2.59,2.59,0,0,1,.32-1.37,2.22,2.22,0,0,1,.91-.82,4.48,4.48,0,0,1,1.44-.41q.84-.11,1.81-.16v-.19a1.66,1.66,0,0,0-.13-.71,1,1,0,0,0-.38-.44,1.44,1.44,0,0,0-.56-.21,4.24,4.24,0,0,0-.69-.05,4.19,4.19,0,0,0-1,.13,7,7,0,0,0-1.11.38H173V126q.32-.1.94-.22a6.24,6.24,0,0,1,1.21-.12,5,5,0,0,1,1.21.13,2.23,2.23,0,0,1,.89.44,2,2,0,0,1,.56.79,3.26,3.26,0,0,1,.19,1.21Zm-1.1-1.83v-2.07l-1.19.1a5.51,5.51,0,0,0-1.09.19,1.75,1.75,0,0,0-.77.48,1.51,1.51,0,0,0,0,1.85,1.47,1.47,0,0,0,1,.32,2.24,2.24,0,0,0,1.06-.26A4.71,4.71,0,0,0,176.89,131.5Z" transform="translate(-20.42 -22.76)"/><path class="cls-4" d="M189.71,133.33H188.6v-4.24q0-.48,0-.93a2.18,2.18,0,0,0-.16-.71A1,1,0,0,0,188,127a1.48,1.48,0,0,0-.73-.15,1.88,1.88,0,0,0-.93.26,5.7,5.7,0,0,0-.93.67c0,.1,0,.22,0,.36s0,.27,0,.4v4.76h-1.11v-4.24c0-.33,0-.64,0-.94a2.17,2.17,0,0,0-.16-.71.94.94,0,0,0-.39-.43,1.51,1.51,0,0,0-.73-.14,1.86,1.86,0,0,0-.91.25,5.35,5.35,0,0,0-.91.65v5.56h-1.11v-7.44h1.11v.83a4.84,4.84,0,0,1,1-.76,2.3,2.3,0,0,1,1.1-.27,2,2,0,0,1,1.14.32,1.92,1.92,0,0,1,.7.89,5.48,5.48,0,0,1,1.22-.92,2.56,2.56,0,0,1,1.18-.28,1.81,1.81,0,0,1,1.6.74,3.61,3.61,0,0,1,.51,2.08Z" transform="translate(-20.42 -22.76)"/><path class="cls-4" d="M196.53,131.18a2.13,2.13,0,0,1-.74,1.67,3,3,0,0,1-2,.65,4.34,4.34,0,0,1-1.34-.2,5.53,5.53,0,0,1-1-.43v-1.41h.06a4.3,4.3,0,0,0,1.16.71,3.25,3.25,0,0,0,1.23.26,2.09,2.09,0,0,0,1.14-.27.93.93,0,0,0,.41-.84.91.91,0,0,0-.22-.67,1.89,1.89,0,0,0-.86-.39l-.61-.14L193,130a2.25,2.25,0,0,1-1.23-.76,2.06,2.06,0,0,1-.36-1.24,2.26,2.26,0,0,1,.17-.87,2.09,2.09,0,0,1,.51-.73,2.36,2.36,0,0,1,.84-.5,3.34,3.34,0,0,1,1.14-.18,4.52,4.52,0,0,1,1.19.16,4.1,4.1,0,0,1,1,.4v1.34h-.06a3.82,3.82,0,0,0-1-.6,3.16,3.16,0,0,0-1.19-.24,1.88,1.88,0,0,0-1,.26.87.87,0,0,0-.42.78.9.9,0,0,0,.25.69,1.86,1.86,0,0,0,.8.38l.69.16.63.15a2.26,2.26,0,0,1,1.19.69A2,2,0,0,1,196.53,131.18Z" transform="translate(-20.42 -22.76)"/><path class="cls-4" d="M208.21,133.33h-5.77v-9.92h5.77v1.17H203.6v2.72h4.61v1.17H203.6v3.69h4.61Z" transform="translate(-20.42 -22.76)"/><path class="cls-4" d="M215.66,133.33h-1.39l-1.87-2.86-1.88,2.86h-1.29l2.57-3.71-2.54-3.73h1.39l1.85,2.81,1.86-2.81h1.29l-2.58,3.67Z" transform="translate(-20.42 -22.76)"/><path class="cls-4" d="M222.88,129.52a5.66,5.66,0,0,1-.23,1.66,3.76,3.76,0,0,1-.65,1.27,2.75,2.75,0,0,1-.92.76,2.41,2.41,0,0,1-1.11.27,3.15,3.15,0,0,1-.93-.13,3.58,3.58,0,0,1-.84-.39v3.12H217.1V125.88h1.11v.78a4.25,4.25,0,0,1,1-.7,2.53,2.53,0,0,1,1.17-.28,2.09,2.09,0,0,1,1.85,1A5.14,5.14,0,0,1,222.88,129.52Zm-1.14,0a4,4,0,0,0-.41-2,1.36,1.36,0,0,0-1.25-.67,2.19,2.19,0,0,0-1,.23,4.29,4.29,0,0,0-.92.61v4.22a4,4,0,0,0,.81.33,3.11,3.11,0,0,0,.77.09,1.69,1.69,0,0,0,1.44-.71A3.53,3.53,0,0,0,221.74,129.55Z" transform="translate(-20.42 -22.76)"/><path class="cls-4" d="M230.1,129.74h-4.84a3.54,3.54,0,0,0,.18,1.2,2.27,2.27,0,0,0,.5.84,1.94,1.94,0,0,0,.73.48,2.59,2.59,0,0,0,.93.16,3.29,3.29,0,0,0,1.35-.3,3.24,3.24,0,0,0,1-.6H230v1.37a8.45,8.45,0,0,1-1.14.45,4.11,4.11,0,0,1-1.22.18,3.29,3.29,0,0,1-2.55-1,4.07,4.07,0,0,1-.92-2.85,4.44,4.44,0,0,1,.88-2.9,2.84,2.84,0,0,1,2.31-1.07,2.5,2.5,0,0,1,2,.88,3.84,3.84,0,0,1,.72,2.5Zm-1.08-1a2.41,2.41,0,0,0-.44-1.53,1.58,1.58,0,0,0-1.31-.54,1.8,1.8,0,0,0-1.42.59,2.45,2.45,0,0,0-.6,1.47Z" transform="translate(-20.42 -22.76)"/><path class="cls-4" d="M235.88,127.25h-.06a3.51,3.51,0,0,0-.48-.1,4.28,4.28,0,0,0-.55,0,2.06,2.06,0,0,0-1,.26,4.5,4.5,0,0,0-.92.66v5.28h-1.11v-7.44h1.11V127a5.34,5.34,0,0,1,1.16-.85,2.28,2.28,0,0,1,1-.25l.42,0,.39.06Z" transform="translate(-20.42 -22.76)"/><path class="cls-4" d="M240.33,133.26a5.38,5.38,0,0,1-.68.15,4.11,4.11,0,0,1-.66.06,1.9,1.9,0,0,1-1.53-.61,3,3,0,0,1-.52-2v-4h-.75v-1.05h.75v-2.14H238v2.14h2.28v1.05H238v3.39c0,.39,0,.7,0,.92a1.64,1.64,0,0,0,.17.62.84.84,0,0,0,.36.39,1.5,1.5,0,0,0,.69.12,2,2,0,0,0,.56-.09l.42-.15h.06Z" transform="translate(-20.42 -22.76)"/></svg>