<svg id="Layer_1" data-name="Layer 1" xmlns="http://www.w3.org/2000/svg" xmlns:xlink="http://www.w3.org/1999/xlink" viewBox="0 0 128.65 128.65"><defs><style>.cls-1{fill:url(#linear-gradient);}.cls-2{fill:#fff;}</style><linearGradient id="linear-gradient" y1="64.32" x2="128.65" y2="64.32" gradientUnits="userSpaceOnUse"><stop offset="0" stop-color="#943ef9"/><stop offset="0.1" stop-color="#983ff7" stop-opacity="0.99"/><stop offset="0.2" stop-color="#a543ef" stop-opacity="0.96"/><stop offset="0.3" stop-color="#ba4ae3" stop-opacity="0.91"/><stop offset="0.41" stop-color="#d753d2" stop-opacity="0.84"/><stop offset="0.51" stop-color="#fc5fbd" stop-opacity="0.76"/><stop offset="0.52" stop-color="#ff60bb" stop-opacity="0.75"/><stop offset="0.57" stop-color="#ed5ac6" stop-opacity="0.79"/><stop offset="0.7" stop-color="#c64edc" stop-opacity="0.88"/><stop offset="0.82" stop-color="#ab45ec" stop-opacity="0.95"/><stop offset="0.92" stop-color="#9a40f6" stop-opacity="0.99"/><stop offset="0.99" stop-color="#943ef9"/></linearGradient></defs><title>Qualified Test (full Syllabus)</title><circle class="cls-1" cx="64.32" cy="64.32" r="64.32"/><circle class="cls-2" cx="64.32" cy="64.32" r="37.35"/><path class="cls-2" d="M75.78,123.5a37.36,37.36,0,0,0-4.42-3.44,40.89,40.89,0,0,0-4.88-2.79,33.43,33.43,0,0,0-5.23-2,30.44,30.44,0,0,0-5.49-1.11h-.05A53.11,53.11,0,0,1,35.3,102.75a54,54,0,0,1-13.54-19A22.93,22.93,0,0,1,20.7,81l-1-2.77a13.64,13.64,0,0,1-.66-2.87c-.14-1-.27-1.94-.37-2.91a59.73,59.73,0,0,1,0-11.71A49.38,49.38,0,0,1,21.1,49.34a45.17,45.17,0,0,1,5.22-10.45h0a47,47,0,0,1,5.23-6.69,51.59,51.59,0,0,1,6.25-5.73c1.09-.9,2.29-1.67,3.44-2.48s2.39-1.52,3.67-2.13a45.39,45.39,0,0,1,7.82-3.24,45.36,45.36,0,0,0-7.8,3.29c-1.27.62-2.44,1.43-3.65,2.15s-2.33,1.59-3.42,2.5a51.45,51.45,0,0,0-6.2,5.76A46.88,46.88,0,0,0,26.51,39h0a44.91,44.91,0,0,0-5.12,10.42,49,49,0,0,0-2.32,11.38,59.31,59.31,0,0,0,.1,11.62c.1,1,.23,1.93.38,2.88a13.2,13.2,0,0,0,.66,2.81l1,2.74a22.54,22.54,0,0,0,1.06,2.7,53.33,53.33,0,0,0,13.5,18.67A52.41,52.41,0,0,0,55.9,113.29h-.05a31.3,31.3,0,0,1,5.66,1.1,34.33,34.33,0,0,1,5.38,2.06,41.83,41.83,0,0,1,5,2.82,38.18,38.18,0,0,1,4.58,3.52Z" transform="translate(-3.89 -1.41)"/><path class="cls-2" d="M57,112.81s1.25-8.09-6.28-10.67c0,0-1.77,6.58,3.77,10.3Z" transform="translate(-3.89 -1.41)"/><path class="cls-2" d="M48.69,110.23s3-7.6-3.71-11.81c0,0-3.21,6,1.34,10.88Z" transform="translate(-3.89 -1.41)"/><path class="cls-2" d="M41.21,106.16s4.23-7-1.75-12.26c0,0-4.14,5.41-.44,11Z" transform="translate(-3.89 -1.41)"/><path class="cls-2" d="M34.24,100.55s4.83-5.53.37-11.1c0,0-4.5,4.13-2.09,9.61Z" transform="translate(-3.89 -1.41)"/><path class="cls-2" d="M28.66,94.17s5.59-4.76,2-10.93c0,0-5.06,3.43-3.48,9.2Z" transform="translate(-3.89 -1.41)"/><path class="cls-2" d="M24.43,87s6.13-3.35,4-9.79c0,0-5.38,2.21-5,7.89Z" transform="translate(-3.89 -1.41)"/><path class="cls-2" d="M21,79s6.57-2.35,5.45-9.06c0,0-5.65,1.35-6.19,7Z" transform="translate(-3.89 -1.41)"/><path class="cls-2" d="M19.29,70.83s6.91-1,7.13-7.8c0,0-5.81.2-7.46,5.65Z" transform="translate(-3.89 -1.41)"/><path class="cls-2" d="M19.15,61.87s7,.3,8.46-6.33c0,0-5.75-.88-8.38,4.16Z" transform="translate(-3.89 -1.41)"/><path class="cls-2" d="M20.49,53.58s7.28.82,9.32-5.17A7.88,7.88,0,0,0,21,51.61Z" transform="translate(-3.89 -1.41)"/><path class="cls-2" d="M23.41,45.2s7,2.12,10.11-3.39a7.88,7.88,0,0,0-9.21,1.55Z" transform="translate(-3.89 -1.41)"/><path class="cls-2" d="M27.74,37.06s6.25,3.83,10.63-.73a9.34,9.34,0,0,0-9.79-.17Z" transform="translate(-3.89 -1.41)"/><path class="cls-2" d="M33,31s6,4.24,10.66,0a9.34,9.34,0,0,0-9.75-.83Z" transform="translate(-3.89 -1.41)"/><path class="cls-2" d="M40,25.23s3.87,4.63,8.5,2.22a7.69,7.69,0,0,0-7.6-2.7Z" transform="translate(-3.89 -1.41)"/><path class="cls-2" d="M47.2,21s3.08,5.19,8,3.55a7.69,7.69,0,0,0-7.07-3.88Z" transform="translate(-3.89 -1.41)"/><path class="cls-2" d="M52.13,19.08c0,.41,3.88,2.25,7.48-2,0,0-2.11-1.77-5.78,0C53.83,17.11,52.13,18.6,52.13,19.08Z" transform="translate(-3.89 -1.41)"/><path class="cls-2" d="M47.91,20.37s-1.7-6.33,4.08-9c0,0,1.22,5-1.22,6.87C50.77,18.2,48.32,20.85,47.91,20.37Z" transform="translate(-3.89 -1.41)"/><path class="cls-2" d="M40.49,24.66s-2.86-6.6,2.38-9.87A7.61,7.61,0,0,1,40.49,24.66Z" transform="translate(-3.89 -1.41)"/><path class="cls-2" d="M33.69,29.76s-4.22-5.65.75-10A7.16,7.16,0,0,1,35,28.47Z" transform="translate(-3.89 -1.41)"/><path class="cls-2" d="M27.84,36.36s-5-5.24-.88-10.21a7.52,7.52,0,0,1,2.18,8.17Z" transform="translate(-3.89 -1.41)"/><path class="cls-2" d="M23.28,44.12s-5.72-4.42-2.79-10.41A8.37,8.37,0,0,1,24.23,42Z" transform="translate(-3.89 -1.41)"/><path class="cls-2" d="M20.29,52.29a7.91,7.91,0,0,1-4.76-9.59,7.39,7.39,0,0,1,5,7.55Z" transform="translate(-3.89 -1.41)"/><path class="cls-2" d="M18.38,61.13s-7.08-2.25-6.26-9.19a7.88,7.88,0,0,1,6.46,6.8Z" transform="translate(-3.89 -1.41)"/><path class="cls-2" d="M18.24,69.84s-7.08-.75-7.89-7.89c0,0,6.6.34,7.62,5.31Z" transform="translate(-3.89 -1.41)"/><path class="cls-2" d="M19.74,78.41s-7.35.75-9.32-6.53c0,0,6.46-1,8.57,3.95Z" transform="translate(-3.89 -1.41)"/><path class="cls-2" d="M22.74,86.72s-8,1.29-10.61-5c0,0,6.4-2,9.32,2.45Z" transform="translate(-3.89 -1.41)"/><path class="cls-2" d="M27.16,94.2s-7.42,3.06-11.64-3.06c0,0,5.72-3.13,9.93.75Z" transform="translate(-3.89 -1.41)"/><path class="cls-2" d="M32.67,100.94s-6.53,4.29-11.84-1c0,0,5.17-4.08,9.87-.88Z" transform="translate(-3.89 -1.41)"/><path class="cls-2" d="M39.34,106.58s-5.85,5.72-12,1c0,0,3.95-5,9.8-2.59Z" transform="translate(-3.89 -1.41)"/><path class="cls-2" d="M47,111.14s-4.76,6.74-12,3c0,0,3.67-5.65,9.46-4.35Z" transform="translate(-3.89 -1.41)"/><path class="cls-2" d="M55.26,114s-3.06,7.48-11.3,5.24c0,0,2.31-6.19,8.3-5.92Z" transform="translate(-3.89 -1.41)"/><path class="cls-2" d="M60.54,122.78a38.16,38.16,0,0,1,4.58-3.52,41.8,41.8,0,0,1,5-2.82,34.3,34.3,0,0,1,5.37-2.06,31.26,31.26,0,0,1,5.66-1.1H81.1a52.37,52.37,0,0,0,20.13-11.07,53.34,53.34,0,0,0,13.49-18.67,22.63,22.63,0,0,0,1.06-2.7l1-2.73a13.23,13.23,0,0,0,.66-2.81c.15-1,.28-1.92.38-2.88a59.36,59.36,0,0,0,.1-11.62,49.07,49.07,0,0,0-2.32-11.38A44.92,44.92,0,0,0,110.48,39h0a46.88,46.88,0,0,0-5.15-6.69,51.44,51.44,0,0,0-6.19-5.76c-1.08-.91-2.27-1.68-3.41-2.5s-2.37-1.53-3.65-2.15a45.32,45.32,0,0,0-7.79-3.29,45.35,45.35,0,0,1,7.82,3.24c1.28.61,2.45,1.41,3.67,2.13s2.35,1.58,3.44,2.48a51.58,51.58,0,0,1,6.25,5.73,47,47,0,0,1,5.22,6.69h0a45.19,45.19,0,0,1,5.22,10.45,49.41,49.41,0,0,1,2.41,11.44,59.78,59.78,0,0,1,0,11.7c-.09,1-.22,1.94-.36,2.91a13.68,13.68,0,0,1-.66,2.87l-1,2.77a23,23,0,0,1-1.06,2.74,54,54,0,0,1-13.53,19,53.07,53.07,0,0,1-20.4,11.38h-.06a30.4,30.4,0,0,0-5.49,1.11,33.39,33.39,0,0,0-5.22,2,40.86,40.86,0,0,0-4.88,2.79,37.34,37.34,0,0,0-4.42,3.44Z" transform="translate(-3.89 -1.41)"/><path class="cls-2" d="M80,112.81s-1.25-8.09,6.28-10.67c0,0,1.77,6.58-3.76,10.3Z" transform="translate(-3.89 -1.41)"/><path class="cls-2" d="M88.31,110.23s-3-7.6,3.71-11.81c0,0,3.21,6-1.34,10.88Z" transform="translate(-3.89 -1.41)"/><path class="cls-2" d="M95.77,106.16s-4.23-7,1.75-12.26c0,0,4.14,5.41.44,11Z" transform="translate(-3.89 -1.41)"/><path class="cls-2" d="M102.74,100.55s-4.83-5.53-.37-11.1c0,0,4.5,4.13,2.09,9.61Z" transform="translate(-3.89 -1.41)"/><path class="cls-2" d="M108.32,94.17s-5.58-4.76-2-10.93c0,0,5.05,3.43,3.47,9.2Z" transform="translate(-3.89 -1.41)"/><path class="cls-2" d="M112.54,87s-6.12-3.35-4-9.79c0,0,5.37,2.21,5,7.89Z" transform="translate(-3.89 -1.41)"/><path class="cls-2" d="M115.94,79s-6.57-2.35-5.45-9.06c0,0,5.65,1.35,6.19,7Z" transform="translate(-3.89 -1.41)"/><path class="cls-2" d="M117.69,70.83s-6.91-1-7.13-7.8c0,0,5.81.2,7.45,5.65Z" transform="translate(-3.89 -1.41)"/><path class="cls-2" d="M117.82,61.87s-7,.3-8.46-6.33c0,0,5.74-.88,8.38,4.16Z" transform="translate(-3.89 -1.41)"/><path class="cls-2" d="M116.49,53.58s-7.28.82-9.32-5.17a7.87,7.87,0,0,1,8.77,3.2Z" transform="translate(-3.89 -1.41)"/><path class="cls-2" d="M113.57,45.2s-7,2.12-10.1-3.39a7.87,7.87,0,0,1,9.21,1.55Z" transform="translate(-3.89 -1.41)"/><path class="cls-2" d="M109.24,37.06s-6.24,3.83-10.63-.73a9.33,9.33,0,0,1,9.78-.17Z" transform="translate(-3.89 -1.41)"/><path class="cls-2" d="M104,31s-6,4.24-10.65,0a9.33,9.33,0,0,1,9.75-.83Z" transform="translate(-3.89 -1.41)"/><path class="cls-2" d="M97,25.23s-3.87,4.63-8.49,2.22a7.68,7.68,0,0,1,7.59-2.7Z" transform="translate(-3.89 -1.41)"/><path class="cls-2" d="M89.79,21s-3.08,5.19-8,3.55a7.69,7.69,0,0,1,7.06-3.88Z" transform="translate(-3.89 -1.41)"/><path class="cls-2" d="M84.87,19.08c0,.41-3.88,2.25-7.48-2,0,0,2.11-1.77,5.78,0C83.17,17.11,84.87,18.6,84.87,19.08Z" transform="translate(-3.89 -1.41)"/><path class="cls-2" d="M89.08,20.37s1.7-6.33-4.08-9c0,0-1.22,5,1.22,6.87C86.23,18.2,88.67,20.85,89.08,20.37Z" transform="translate(-3.89 -1.41)"/><path class="cls-2" d="M96.49,24.66s2.86-6.6-2.38-9.87A7.61,7.61,0,0,0,96.49,24.66Z" transform="translate(-3.89 -1.41)"/><path class="cls-2" d="M103.29,29.76s4.22-5.65-.75-10a7.17,7.17,0,0,0-.54,8.71Z" transform="translate(-3.89 -1.41)"/><path class="cls-2" d="M109.14,36.36s5-5.24.88-10.21a7.52,7.52,0,0,0-2.18,8.17Z" transform="translate(-3.89 -1.41)"/><path class="cls-2" d="M113.7,44.12s5.71-4.42,2.79-10.41a8.37,8.37,0,0,0-3.74,8.3Z" transform="translate(-3.89 -1.41)"/><path class="cls-2" d="M116.69,52.29a7.91,7.91,0,0,0,4.76-9.59,7.39,7.39,0,0,0-5,7.55Z" transform="translate(-3.89 -1.41)"/><path class="cls-2" d="M118.59,61.13s7.07-2.25,6.26-9.19a7.88,7.88,0,0,0-6.46,6.8Z" transform="translate(-3.89 -1.41)"/><path class="cls-2" d="M118.73,69.84s7.07-.75,7.89-7.89c0,0-6.6.34-7.62,5.31Z" transform="translate(-3.89 -1.41)"/><path class="cls-2" d="M117.23,78.41s7.34.75,9.32-6.53c0,0-6.46-1-8.57,3.95Z" transform="translate(-3.89 -1.41)"/><path class="cls-2" d="M114.24,86.72s8,1.29,10.61-5c0,0-6.39-2-9.32,2.45Z" transform="translate(-3.89 -1.41)"/><path class="cls-2" d="M109.82,94.2s7.41,3.06,11.63-3.06c0,0-5.71-3.13-9.93.75Z" transform="translate(-3.89 -1.41)"/><path class="cls-2" d="M104.31,100.94s6.53,4.29,11.83-1c0,0-5.17-4.08-9.86-.88Z" transform="translate(-3.89 -1.41)"/><path class="cls-2" d="M97.65,106.58s5.85,5.72,12,1c0,0-3.94-5-9.79-2.59Z" transform="translate(-3.89 -1.41)"/><path class="cls-2" d="M90,111.14s4.76,6.74,12,3c0,0-3.67-5.65-9.45-4.35Z" transform="translate(-3.89 -1.41)"/><path class="cls-2" d="M81.74,114s3.06,7.48,11.29,5.24c0,0-2.31-6.19-8.3-5.92Z" transform="translate(-3.89 -1.41)"/></svg>