<svg id="Layer_1_1_" enable-background="new 0 0 64 64" height="512" viewBox="0 0 64 64" width="512" xmlns="http://www.w3.org/2000/svg"><g><path d="m43 9h12v12h-12z" fill="#fcc84d"/></g><g><path d="m47 9h4v5h-4z" fill="#c8a25f"/></g><g><path d="m27 39.213c0-6.024-5.107-10.83-11.141-10.148-4.622.522-8.358 4.396-8.81 9.123-.32 3.346.946 6.396 3.118 8.471 1.188 1.134 1.833 2.74 1.833 4.401v1.94h10v-1.936c0-1.635.6-3.245 1.777-4.353 1.98-1.864 3.223-4.531 3.223-7.498z" fill="#ffe38f"/></g><g><path d="m18 47h-2v-3.437c0-1.228.788-2.302 2.007-2.736 1.25-.445 2.308-1.807 1.911-3.547-.244-1.07-1.127-1.953-2.198-2.198-.939-.215-1.858-.011-2.588.57-.719.574-1.132 1.43-1.132 2.348h-2c0-1.53.687-2.956 1.884-3.911 1.198-.955 2.76-1.307 4.281-.956 1.831.418 3.284 1.871 3.703 3.702.57 2.499-.801 5.025-3.19 5.877-.412.146-.678.48-.678.851z" fill="#ff8088"/></g><g><path d="m16 49h2v2h-2z" fill="#ff8088"/></g><g><path d="m49 29c-.726 0-1.457-.057-2.173-.168l.308-1.977c.605.095 1.223.143 1.836.145.015-.001.029-.001.042-.001v1.001l.204.977c-.071.015-.144.023-.217.023zm2.202-.174-.312-1.975c.618-.098 1.233-.246 1.83-.439l.617 1.902c-.696.226-1.415.399-2.135.512zm-6.513-.503c-.696-.225-1.379-.507-2.031-.838l.906-1.783c.558.284 1.144.525 1.74.719zm10.677-.851-.91-1.781c.556-.284 1.095-.615 1.602-.984l1.179 1.615c-.592.431-1.222.818-1.871 1.15zm-14.581-1.134c-.593-.431-1.155-.91-1.671-1.426l1.413-1.414c.442.44.924.852 1.433 1.221zm18.118-1.442-1.415-1.414c.442-.442.854-.925 1.224-1.433l1.617 1.178c-.43.591-.91 1.153-1.426 1.669zm-21.217-1.648c-.432-.592-.819-1.221-1.151-1.869l1.78-.912c.285.557.617 1.095.986 1.602zm23.792-1.893-1.781-.91c.285-.558.527-1.143.72-1.738l1.902.617c-.225.697-.508 1.379-.841 2.031zm-25.788-2.003c-.227-.694-.399-1.412-.515-2.136l1.975-.314c.099.619.248 1.235.441 1.829zm27.14-2.164-1.976-.311c.097-.617.146-1.249.146-1.877l2-.053v.053c0 .732-.057 1.468-.17 2.188zm-27.83-2.162v-.026c0-.723.056-1.448.166-2.159l1.977.307c-.095.608-.143 1.232-.143 1.852zm25.846-1.953c-.1-.619-.249-1.233-.444-1.827l1.899-.625c.229.693.403 1.411.52 2.134zm-23.271-1.757-1.903-.613c.224-.693.505-1.376.836-2.031l1.784.904c-.284.562-.525 1.148-.717 1.74zm22.099-1.804c-.285-.554-.618-1.092-.99-1.6l1.613-1.182c.434.591.822 1.22 1.155 1.867zm-20.4-1.541-1.619-1.174c.429-.592.907-1.154 1.421-1.672l1.419 1.41c-.442.444-.853.928-1.221 1.436zm18.183-1.486c-.446-.442-.93-.853-1.437-1.219l1.172-1.621c.59.427 1.153.904 1.673 1.42zm-15.535-1.176-1.182-1.613c.588-.431 1.216-.818 1.866-1.153l.916 1.777c-.557.287-1.096.619-1.6.989zm12.493-1.022c-.562-.283-1.148-.523-1.743-.715l.612-1.904c.694.224 1.377.504 2.031.834zm-9.156-.692-.623-1.9c.688-.226 1.406-.4 2.133-.519l.32 1.975c-.624.101-1.24.25-1.83.444zm5.583-.455c-.606-.093-1.225-.14-1.842-.14l-.04-2h.04c.718 0 1.439.055 2.145.163z" fill="#759acc"/></g><g><path d="m1 37h3v2h-3z" fill="#ffe38f"/></g><g><path d="m30 37h3v2h-3z" fill="#ffe38f"/></g><g><path d="m5.747 26.247h2v3h-2z" fill="#ffe38f" transform="matrix(.707 -.707 .707 .707 -17.644 12.898)"/></g><g><path d="m25.753 26.747h3v2h-3z" fill="#ffe38f" transform="matrix(.707 -.707 .707 .707 -11.638 27.398)"/></g><g><path d="m16 23h2v3h-2z" fill="#ffe38f"/></g><path d="m53 39.5-4-6-4 6h3v10.5h-17v2h18c.552 0 1-.447 1-1v-11.5z" fill="#858e99"/><g><path d="m13 59 .088.265c.545 1.633 2.073 2.735 3.795 2.735h.234c1.722 0 3.25-1.102 3.795-2.735l.088-.265z" fill="#5b6d80"/></g><g><path d="m21 57h-8c-.552 0-1-.448-1-1 0-.552.448-1 1-1h8c.552 0 1 .448 1 1 0 .552-.448 1-1 1z" fill="#5b6d80"/></g></svg>