<svg xmlns="http://www.w3.org/2000/svg" viewBox="0 0 325.22 333.41"><defs><style>.cls-1{isolation:isolate;}.cls-2,.cls-27,.cls-7{fill:none;}.cls-2{stroke:#884cdf;}.cls-2,.cls-3,.cls-4,.cls-5,.cls-6,.cls-7,.cls-8{stroke-miterlimit:10;}.cls-2,.cls-27{stroke-width:2px;}.cls-3{fill:#ccc;}.cls-27,.cls-3,.cls-4,.cls-5,.cls-6,.cls-8{stroke:#fff;}.cls-3,.cls-4,.cls-5,.cls-6,.cls-7,.cls-8{stroke-width:0.5px;}.cls-15,.cls-4{fill:#c8db29;}.cls-10,.cls-5{fill:#cc66b8;}.cls-17,.cls-6{fill:#11b24b;}.cls-7{stroke:#000;}.cls-13,.cls-8{fill:#0190c8;}.cls-9{fill:#884cdf;}.cls-11{fill:#fbcdb4;}.cls-12{fill:#f7f7c9;}.cls-14{fill:#fff;}.cls-16{fill:#afaf04;}.cls-18{fill:#4c4d79;}.cls-19{fill:#bcd531;}.cls-20{fill:#e6e9ee;}.cls-21{fill:#ee3988;}.cls-22{fill:#10b2a7;mix-blend-mode:screen;}.cls-23{fill:#a4fdff;}.cls-24{fill:#fbb03b;}.cls-25{fill:#f266a9;}.cls-26{fill:#00bc3f;}.cls-27{stroke-linecap:round;stroke-linejoin:round;}</style></defs><title>comparative Analytics_FINAL_241118_(SVG)</title><g class="cls-1"><g id="Layer_1" data-name="Layer 1"><circle class="cls-2" cx="161.07" cy="173.26" r="154.97"/><path class="cls-3" d="M184.2,92.65V79.77A112.7,112.7,0,0,0,71.5,192.47H84.38A99.82,99.82,0,0,1,184.2,92.65Z" transform="translate(-24.45 -19.64)"/><path class="cls-3" d="M184.52,105.53V92.65A99.82,99.82,0,0,0,84.7,192.47H97.58A86.94,86.94,0,0,1,184.52,105.53Z" transform="translate(-24.45 -19.64)"/><path class="cls-4" d="M184.52,128.72v-10.3a74.06,74.06,0,0,0-74.06,74.06h10.3A63.76,63.76,0,0,1,184.52,128.72Z" transform="translate(-24.45 -19.64)"/><path class="cls-4" d="M184.52,139v-10.3a63.76,63.76,0,0,0-63.76,63.76h10.3A53.45,53.45,0,0,1,184.52,139Z" transform="translate(-24.45 -19.64)"/><path class="cls-4" d="M184.52,149.32V139a53.45,53.45,0,0,0-53.45,53.45h10.3A43.15,43.15,0,0,1,184.52,149.32Z" transform="translate(-24.45 -19.64)"/><path class="cls-4" d="M97.58,192.47h12.88a74.06,74.06,0,0,1,74.06-74.06V105.53A86.94,86.94,0,0,0,97.58,192.47Z" transform="translate(-24.45 -19.64)"/><path class="cls-4" d="M184.52,159.63v-10.3a43.15,43.15,0,0,0-43.15,43.15h10.3A32.84,32.84,0,0,1,184.52,159.63Z" transform="translate(-24.45 -19.64)"/><path class="cls-4" d="M184.52,169.93v-10.3a32.84,32.84,0,0,0-32.84,32.84H162A22.54,22.54,0,0,1,184.52,169.93Z" transform="translate(-24.45 -19.64)"/><path class="cls-4" d="M184.52,180.24v-10.3A22.54,22.54,0,0,0,162,192.47h10.3A12.24,12.24,0,0,1,184.52,180.24Z" transform="translate(-24.45 -19.64)"/><path class="cls-4" d="M184.52,180.24a12.24,12.24,0,0,0-12.24,12.24h12.24Z" transform="translate(-24.45 -19.64)"/><path class="cls-5" d="M84.7,192.47H71.82a112.7,112.7,0,0,0,112.7,112.7V292.29A99.82,99.82,0,0,1,84.7,192.47Z" transform="translate(-24.45 -19.64)"/><path class="cls-5" d="M110.46,192.75H97.36c0,48,39.6,86.84,88.45,86.84V266.73C144.19,266.73,110.46,233.61,110.46,192.75Z" transform="translate(-24.45 -19.64)"/><path class="cls-5" d="M97.4,192.47h-13c0,55.07,45.21,99.71,101,99.71V279.32C136.78,279.32,97.4,240.43,97.4,192.47Z" transform="translate(-24.45 -19.64)"/><path class="cls-5" d="M185.22,266.45V256.16c-35.62,0-64.5-28.51-64.5-63.69H110.29C110.29,233.33,143.84,266.45,185.22,266.45Z" transform="translate(-24.45 -19.64)"/><path class="cls-5" d="M131.49,192.47H121.06c0,35.17,28.88,63.69,64.5,63.69V245.86C155.7,245.86,131.49,222,131.49,192.47Z" transform="translate(-24.45 -19.64)"/><path class="cls-5" d="M141.64,192.47H131.21c0,29.49,24.21,53.39,54.08,53.39V235.57C161.18,235.57,141.64,216.28,141.64,192.47Z" transform="translate(-24.45 -19.64)"/><path class="cls-5" d="M152.1,192.47H141.67c0,23.8,19.54,43.1,43.65,43.1V225.28A33,33,0,0,1,152.1,192.47Z" transform="translate(-24.45 -19.64)"/><path class="cls-5" d="M162,192.47H151.47c0,18.12,15.08,32.81,33.68,32.81V215C172.38,215,162,204.91,162,192.47Z" transform="translate(-24.45 -19.64)"/><path class="cls-5" d="M172.7,192.47H162.28A22.66,22.66,0,0,0,185.08,215V204.69A12.3,12.3,0,0,1,172.7,192.47Z" transform="translate(-24.45 -19.64)"/><path class="cls-5" d="M172.12,192.47h0a12.3,12.3,0,0,0,12.38,12.22V192.47Z" transform="translate(-24.45 -19.64)"/><path class="cls-3" d="M284.34,192.47h12.88a112.7,112.7,0,0,0-112.7-112.7V92.65A99.82,99.82,0,0,1,284.34,192.47Z" transform="translate(-24.45 -19.64)"/><path class="cls-3" d="M184.52,92.65v12.88a86.94,86.94,0,0,1,86.94,86.94h12.88A99.82,99.82,0,0,0,184.52,92.65Z" transform="translate(-24.45 -19.64)"/><path class="cls-3" d="M258.58,192.47h12.88a86.94,86.94,0,0,0-86.94-86.94v12.88A74.06,74.06,0,0,1,258.58,192.47Z" transform="translate(-24.45 -19.64)"/><path class="cls-3" d="M248.27,192.47h10.3a74.06,74.06,0,0,0-74.06-74.06v10.3A63.76,63.76,0,0,1,248.27,192.47Z" transform="translate(-24.45 -19.64)"/><path class="cls-6" d="M238,192.47h10.3a63.76,63.76,0,0,0-63.76-63.76V139A53.45,53.45,0,0,1,238,192.47Z" transform="translate(-24.45 -19.64)"/><path class="cls-6" d="M227.66,192.47H238A53.45,53.45,0,0,0,184.52,139v10.3A43.15,43.15,0,0,1,227.66,192.47Z" transform="translate(-24.45 -19.64)"/><path class="cls-6" d="M217.36,192.47h10.3a43.15,43.15,0,0,0-43.15-43.15v10.3A32.84,32.84,0,0,1,217.36,192.47Z" transform="translate(-24.45 -19.64)"/><path class="cls-6" d="M207.06,192.47h10.3a32.84,32.84,0,0,0-32.84-32.84v10.3A22.54,22.54,0,0,1,207.06,192.47Z" transform="translate(-24.45 -19.64)"/><path class="cls-6" d="M196.75,192.47h10.3a22.54,22.54,0,0,0-22.54-22.54v10.3A12.24,12.24,0,0,1,196.75,192.47Z" transform="translate(-24.45 -19.64)"/><path class="cls-6" d="M184.52,180.24v12.24h12.24A12.24,12.24,0,0,0,184.52,180.24Z" transform="translate(-24.45 -19.64)"/><path class="cls-3" d="M284.34,192.47h0a99.82,99.82,0,0,1-99.82,99.82v12.88a112.7,112.7,0,0,0,112.7-112.7Z" transform="translate(-24.45 -19.64)"/><polygon class="cls-7" points="247 172.83 259.88 172.83 259.88 172.83 247 172.83 247 172.83"/><polygon class="cls-7" points="234.12 172.83 247 172.83 247 172.83 234.12 172.83 234.12 172.83"/><polygon class="cls-7" points="223.82 172.83 234.12 172.83 234.12 172.83 223.82 172.83 223.82 172.83"/><rect class="cls-7" x="213.51" y="172.83" width="10.3"/><rect class="cls-7" x="203.21" y="172.83" width="10.3"/><polygon class="cls-7" points="192.91 172.83 203.21 172.83 203.21 172.83 192.91 172.83 192.91 172.83"/><polygon class="cls-7" points="182.6 172.83 192.91 172.83 192.91 172.83 182.6 172.83 182.6 172.83"/><polygon class="cls-7" points="172.3 172.83 172.3 172.83 182.6 172.83 182.6 172.83 172.3 172.83"/><polygon class="cls-7" points="172.3 172.83 172.3 172.83 160.06 172.83 172.3 172.83"/><path class="cls-3" d="M271.46,192.47a86.94,86.94,0,0,1-86.94,86.94v12.88a99.82,99.82,0,0,0,99.82-99.82Z" transform="translate(-24.45 -19.64)"/><path class="cls-3" d="M258.58,192.47a74.06,74.06,0,0,1-74.06,74.06v12.88a86.94,86.94,0,0,0,86.94-86.94Z" transform="translate(-24.45 -19.64)"/><path class="cls-8" d="M248.27,192.47a63.76,63.76,0,0,1-63.76,63.76v10.3a74.06,74.06,0,0,0,74.06-74.06Z" transform="translate(-24.45 -19.64)"/><polygon class="cls-7" points="213.51 172.83 223.82 172.83 223.82 172.83 213.51 172.83 213.51 172.83"/><polygon class="cls-7" points="203.21 172.83 203.21 172.83 213.51 172.83 213.51 172.83 203.21 172.83"/><rect class="cls-7" x="192.91" y="172.83" width="10.3"/><rect class="cls-7" x="182.6" y="172.83" width="10.3"/><polygon class="cls-7" points="172.3 172.83 182.6 172.83 182.6 172.83 172.3 172.83 172.3 172.83"/><polygon class="cls-7" points="172.3 172.83 172.3 172.83 160.06 172.83 172.3 172.83"/><path class="cls-8" d="M248.27,192.47H238a53.45,53.45,0,0,1-53.45,53.45v10.3A63.76,63.76,0,0,0,248.27,192.47Z" transform="translate(-24.45 -19.64)"/><polygon class="cls-7" points="203.21 172.83 213.51 172.83 213.51 172.83 203.21 172.83 203.21 172.83"/><polygon class="cls-7" points="192.91 172.83 203.21 172.83 203.21 172.83 192.91 172.83 192.91 172.83"/><polygon class="cls-7" points="182.6 172.83 192.91 172.83 192.91 172.83 182.6 172.83 182.6 172.83"/><polygon class="cls-7" points="172.3 172.83 182.6 172.83 182.6 172.83 172.3 172.83 172.3 172.83"/><polygon class="cls-7" points="172.3 172.83 172.3 172.83 160.06 172.83 172.3 172.83"/><path class="cls-8" d="M227.66,192.47a43.15,43.15,0,0,1-43.15,43.15v10.3A53.45,53.45,0,0,0,238,192.47Z" transform="translate(-24.45 -19.64)"/><polygon class="cls-7" points="192.91 172.83 203.21 172.83 203.21 172.83 192.91 172.83 192.91 172.83"/><rect class="cls-7" x="182.6" y="172.83" width="10.3"/><rect class="cls-7" x="172.3" y="172.83" width="10.3"/><polygon class="cls-7" points="172.3 172.83 172.3 172.83 160.06 172.83 172.3 172.83"/><path class="cls-8" d="M217.36,192.47a32.84,32.84,0,0,1-32.84,32.84v10.3a43.15,43.15,0,0,0,43.15-43.15Z" transform="translate(-24.45 -19.64)"/><polygon class="cls-7" points="182.6 172.83 192.91 172.83 192.91 172.83 182.6 172.83 182.6 172.83"/><polygon class="cls-7" points="172.3 172.83 182.6 172.83 182.6 172.83 172.3 172.83 172.3 172.83"/><polygon class="cls-7" points="172.3 172.83 172.3 172.83 160.06 172.83 172.3 172.83"/><path class="cls-8" d="M207.06,192.47A22.54,22.54,0,0,1,184.52,215v10.3a32.84,32.84,0,0,0,32.84-32.84Z" transform="translate(-24.45 -19.64)"/><rect class="cls-7" x="172.3" y="172.83" width="10.3"/><polygon class="cls-7" points="172.3 172.83 172.3 172.83 160.06 172.83 172.3 172.83"/><path class="cls-8" d="M196.75,192.47a12.24,12.24,0,0,1-12.24,12.24V215a22.54,22.54,0,0,0,22.54-22.54Z" transform="translate(-24.45 -19.64)"/><path class="cls-8" d="M184.52,204.71a12.24,12.24,0,0,0,12.24-12.24H184.52Z" transform="translate(-24.45 -19.64)"/><path class="cls-9" d="M340.83,186.58a5.07,5.07,0,1,0,5.07,5.07A5.07,5.07,0,0,0,340.83,186.58Z" transform="translate(-24.45 -19.64)"/><path class="cls-9" d="M30.51,186.58a5.07,5.07,0,1,0,5.07,5.07A5.07,5.07,0,0,0,30.51,186.58Z" transform="translate(-24.45 -19.64)"/><path class="cls-9" d="M190.74,348a5.07,5.07,0,1,0-5.07,5.07A5.07,5.07,0,0,0,190.74,348Z" transform="translate(-24.45 -19.64)"/><path class="cls-9" d="M190.74,37.66a5.07,5.07,0,1,0-5.07,5.07A5.07,5.07,0,0,0,190.74,37.66Z" transform="translate(-24.45 -19.64)"/><circle class="cls-10" cx="52.68" cy="263.78" r="0.61"/><path class="cls-11" d="M293.42,302.18c0,2.69-.77,4.87-1.73,4.87s-1.81-2.18-1.81-4.87.85-4.76,1.81-4.76S293.42,299.49,293.42,302.18Z" transform="translate(-24.45 -19.64)"/><path class="cls-12" d="M289.55,305.36h1.33s0,1.66.77,1.66h-2.1Z" transform="translate(-24.45 -19.64)"/><path class="cls-13" d="M301.27,332.85a30.81,30.81,0,0,0-2.14,2.63,5.26,5.26,0,0,0-.81,2.92h-1.17a6.27,6.27,0,0,1,.92-3.48,30.31,30.31,0,0,1,2-2.53,6,6,0,0,0,1.28-1.75h-4.23v-1.15h5.54A5.14,5.14,0,0,1,301.27,332.85Z" transform="translate(-24.45 -19.64)"/><path class="cls-13" d="M310.11,335.37a3.17,3.17,0,0,1-6.33,0v-2.72a3.17,3.17,0,0,1,6.33,0Zm-1.18-2.72a1.9,1.9,0,0,0-.58-1.4,2,2,0,0,0-2.81,0,1.9,1.9,0,0,0-.58,1.4v2.72a2,2,0,0,0,4,0Z" transform="translate(-24.45 -19.64)"/><path class="cls-13" d="M314,331.91a1.53,1.53,0,1,1-1.08-.45A1.48,1.48,0,0,1,314,331.91Zm3.49-.7-5.11,7.3-.95-.66,5.11-7.3Zm-4.57,1.39a.39.39,0,0,0-.39.39.38.38,0,0,0,.11.28.38.38,0,0,0,.28.11.39.39,0,0,0,.28-.11.38.38,0,0,0,.12-.28.37.37,0,0,0-.12-.28A.39.39,0,0,0,312.9,332.6Zm4.17,2.39a1.54,1.54,0,1,1-1.09-.45A1.47,1.47,0,0,1,317.07,335Zm-1.09.69a.39.39,0,0,0-.39.39.38.38,0,0,0,.11.28.38.38,0,0,0,.28.11.39.39,0,0,0,.28-.11.38.38,0,0,0,.12-.28.37.37,0,0,0-.12-.28A.39.39,0,0,0,316,335.68Z" transform="translate(-24.45 -19.64)"/><path class="cls-13" d="M296.19,350l.86.77a4.91,4.91,0,0,1-3.35,1.44,4.55,4.55,0,0,1,0-9.11,4.92,4.92,0,0,1,3.35,1.44l-.86.79a3.71,3.71,0,0,0-2.48-1.06,3.39,3.39,0,0,0,0,6.78A3.71,3.71,0,0,0,296.19,350Z" transform="translate(-24.45 -19.64)"/><path class="cls-13" d="M301.2,345.88a3.18,3.18,0,1,1-2.24.93A3,3,0,0,1,301.2,345.88Zm-1.41,1.77a2,2,0,1,0,1.41-.58A1.92,1.92,0,0,0,299.8,347.65Z" transform="translate(-24.45 -19.64)"/><path class="cls-13" d="M306.88,347.12a2,2,0,0,1,1.59-.92v1.2a1.47,1.47,0,0,0-1,.41,1.88,1.88,0,0,0-.58,1.33v2.95h-1.15v-5.73h1.15Z" transform="translate(-24.45 -19.64)"/><path class="cls-13" d="M310.72,347.89v4.19h-1.16v-5.73h1.16V347a1.41,1.41,0,0,1,1.45-1,1.82,1.82,0,0,1,1.48.66,2.57,2.57,0,0,1,.57,1.66v3.73h-1.15V348.4a1.14,1.14,0,0,0-.36-.85,1.23,1.23,0,0,0-1.72,0A1.29,1.29,0,0,0,310.72,347.89Z" transform="translate(-24.45 -19.64)"/><path class="cls-13" d="M317.66,350.78a1.62,1.62,0,0,0,1.05.26,1.93,1.93,0,0,0,1.41-.58l.29-.34,1.15.41a7.63,7.63,0,0,1-.61.77,3.17,3.17,0,1,1-.27-4.74l.27.25.32.35-.58.58Zm1.93-3.56a1.64,1.64,0,0,0-.87-.15,2,2,0,0,0-2,2,1.65,1.65,0,0,0,.15.88Z" transform="translate(-24.45 -19.64)"/><path class="cls-13" d="M323.92,347.12a2,2,0,0,1,1.59-.92v1.2a1.47,1.47,0,0,0-1,.41,1.88,1.88,0,0,0-.58,1.33v2.95h-1.15v-5.73h1.15Z" transform="translate(-24.45 -19.64)"/><path class="cls-13" d="M308.13,273.48a25.77,25.77,0,1,0,25.77,25.77A25.77,25.77,0,0,0,308.13,273.48Z" transform="translate(-24.45 -19.64)"/><path class="cls-14" d="M299.21,293.1,295,293a2.25,2.25,0,0,0-1.67.45,4.73,4.73,0,0,0-.81,2.16l-.86,0,.57-5.76,9.2.2,0,1.21a15.58,15.58,0,0,0-2.42,4.51,17.37,17.37,0,0,0-.89,5.24q0,.71,0,1.81t0,1.47a3.41,3.41,0,0,1-.57,2.07A1.87,1.87,0,0,1,296,307a1.85,1.85,0,0,1-1.47-.64,2.56,2.56,0,0,1-.49-1.73,12.44,12.44,0,0,1,1.3-4.45A65.71,65.71,0,0,1,299.21,293.1Z" transform="translate(-24.45 -19.64)"/><path class="cls-14" d="M307.91,307.25a3.79,3.79,0,0,1-1.93-.58,4.76,4.76,0,0,1-1.53-1.54,9.77,9.77,0,0,1-1.25-3,15.49,15.49,0,0,1,.16-7.38,10,10,0,0,1,1.39-3,4.87,4.87,0,0,1,1.6-1.48,3.71,3.71,0,0,1,1.93-.5,3.93,3.93,0,0,1,2,.56,4.34,4.34,0,0,1,1.5,1.51,10,10,0,0,1,1.25,3.05,14.63,14.63,0,0,1,.36,3.69,12.05,12.05,0,0,1-1.61,6.28A4.35,4.35,0,0,1,307.91,307.25Zm1.75-8.7,0-1.16a24.82,24.82,0,0,0-.22-5.37q-.31-1.09-1.21-1.11T307,292a24.86,24.86,0,0,0-.45,5.35l0,1.16,0,1.16a24.86,24.86,0,0,0,.22,5.36q.31,1.1,1.22,1.12t1.26-1.06a24.83,24.83,0,0,0,.45-5.35Z" transform="translate(-24.45 -19.64)"/><path class="cls-14" d="M315.42,299.2a2.59,2.59,0,0,1,.79-1.83,2.53,2.53,0,0,1,1.93-.75,2.77,2.77,0,0,1,1.29.33,2,2,0,0,1,.87.93,2.82,2.82,0,0,1,.28,1.3,3,3,0,0,1-.36,1.32,2.4,2.4,0,0,1-1,1,2.68,2.68,0,0,1-1.37.34,2.39,2.39,0,0,1-1.76-.78A2.56,2.56,0,0,1,315.42,299.2Zm1.21.09a2.81,2.81,0,0,0,.34,1.64,1.18,1.18,0,0,0,2-.09,3.43,3.43,0,0,0,.41-1.71,3.13,3.13,0,0,0-.29-1.55,1.07,1.07,0,0,0-1-.59,1.18,1.18,0,0,0-1.07.59A3.26,3.26,0,0,0,316.63,299.28Zm8.14-2.78-6.3,11.74-.09,0h-.55l0-.08,6.3-11.74.08-.05h.57Zm-2.86,8.92a2.6,2.6,0,0,1,.79-1.83,2.52,2.52,0,0,1,1.93-.75,2.78,2.78,0,0,1,1.29.33,2,2,0,0,1,.87.93,2.85,2.85,0,0,1,.28,1.3,3,3,0,0,1-.35,1.3,2.41,2.41,0,0,1-1,1,2.64,2.64,0,0,1-1.39.35,2.38,2.38,0,0,1-1.77-.78A2.58,2.58,0,0,1,321.91,305.42Zm1.21.09a4.07,4.07,0,0,0,.11,1.13,1.46,1.46,0,0,0,.44.75,1.18,1.18,0,0,0,1.79-.32,3.38,3.38,0,0,0,.41-1.72,3.23,3.23,0,0,0-.28-1.54,1.06,1.06,0,0,0-1-.6,1.21,1.21,0,0,0-1.05.56A3.1,3.1,0,0,0,323.12,305.51Z" transform="translate(-24.45 -19.64)"/><path class="cls-15" d="M70.76,61.67A25.77,25.77,0,1,0,96.53,87.44,25.77,25.77,0,0,0,70.76,61.67Z" transform="translate(-24.45 -19.64)"/><path class="cls-14" d="M78,87.74a8.05,8.05,0,0,1-14.46-.1h0A5.21,5.21,0,0,0,59,92.3V99a5,5,0,0,0,4.19,4H78.33a4.61,4.61,0,0,0,4-4.28v-6.9A5.22,5.22,0,0,0,78,87.74Z" transform="translate(-24.45 -19.64)"/><circle class="cls-14" cx="61.14" cy="60.08" r="4.74"/><path class="cls-14" d="M90.17,83.51A3.27,3.27,0,0,1,93,86.41v4.16a3.14,3.14,0,0,1-2.65,2.5l-6.84.11c.12-2.91-1.6-5.49-4.59-5.73a6.05,6.05,0,0,0,1-3.48c.07-.38.75-.33,1.25-.41C81.2,83.55,85.18,88.83,90.17,83.51Z" transform="translate(-24.45 -19.64)"/><circle class="cls-14" cx="31.46" cy="59.78" r="4.74"/><path class="cls-14" d="M51.34,83.21a3.27,3.27,0,0,0-2.85,2.9v4.16a3.14,3.14,0,0,0,2.65,2.5l6.84.11a5.47,5.47,0,0,1,4.59-5.73,9.84,9.84,0,0,1-1-3.48,2.1,2.1,0,0,0-1.25-.41S56.34,88.53,51.34,83.21Z" transform="translate(-24.45 -19.64)"/><circle class="cls-14" cx="46.43" cy="63.51" r="7.86"/><path class="cls-16" d="M60.3,19.64l3.24,8.91H62.31L61.17,25.4H58.8l-1.14,3.15H56.43l3.24-8.91Zm.45,4.61L60,22.16l-.76,2.09Z" transform="translate(-24.45 -19.64)"/><path class="cls-16" d="M66,19.64v8.91H64.88V19.64Z" transform="translate(-24.45 -19.64)"/><path class="cls-16" d="M70.32,25.7H69.26v2.85H68.11V19.64h2.53a3.08,3.08,0,0,1,1.82.89,3,3,0,0,1,0,4.29,2.51,2.51,0,0,1-.94.69l2,3H72.1Zm-1.05-4.9v3.74h1.05a1.87,1.87,0,0,0,0-3.74Z" transform="translate(-24.45 -19.64)"/><path class="cls-16" d="M76.73,27l-1.29,2.67h-1.1L75.06,27Z" transform="translate(-24.45 -19.64)"/><path class="cls-16" d="M55.76,37.67a3.87,3.87,0,0,1-1.53-.91,2,2,0,0,1-.59-1.46,2.09,2.09,0,0,1,3.56-1.47,2.56,2.56,0,0,1,.58,1.06l-1,.41a2,2,0,0,0-.35-.67.95.95,0,0,0-1.32,0,.89.89,0,0,0-.27.66.9.9,0,0,0,.27.66,3,3,0,0,0,.85.55,4.38,4.38,0,0,1,1.78,1.07,2.65,2.65,0,0,1,.82,2,2.78,2.78,0,0,1-4.75,2,3.12,3.12,0,0,1-.82-1.8l1.12-.41a2.3,2.3,0,0,0,.52,1.4,1.63,1.63,0,0,0,2.31-2.31A3.38,3.38,0,0,0,55.76,37.67Z" transform="translate(-24.45 -19.64)"/><path class="cls-16" d="M60.29,36.51V34.36h1.15v2.15h1v1.15h-1v4.58H60.29V37.67h-1V36.51Z" transform="translate(-24.45 -19.64)"/><path class="cls-16" d="M68.55,36.91v-.4h1.16v5.74H68.55v-.72a2.62,2.62,0,0,1-1.94.86,3.17,3.17,0,1,1,0-6.34A2.63,2.63,0,0,1,68.55,36.91Zm0,2.73V38.8a1.87,1.87,0,0,0-.53-1,2,2,0,1,0,0,2.81A1.87,1.87,0,0,0,68.55,39.65Z" transform="translate(-24.45 -19.64)"/><path class="cls-16" d="M72,36.51V34.36h1.15v2.15h1v1.15h-1v4.58H72V37.67h-1V36.51Z" transform="translate(-24.45 -19.64)"/><path class="cls-16" d="M77.14,40.95a1.62,1.62,0,0,0,1.05.26,1.93,1.93,0,0,0,1.41-.58l.3-.35,1.15.41a7.41,7.41,0,0,1-.61.77,3.17,3.17,0,1,1-.27-4.74l.27.25.32.35-.58.58Zm1.93-3.56a1.63,1.63,0,0,0-.87-.15,2,2,0,0,0-2,2,1.65,1.65,0,0,0,.15.87Z" transform="translate(-24.45 -19.64)"/><path class="cls-16" d="M84.16,40.7l-1.29,2.67h-1.1l.71-2.67Z" transform="translate(-24.45 -19.64)"/><path class="cls-16" d="M47.87,53.81l.86.77A4.92,4.92,0,0,1,45.39,56a4.55,4.55,0,0,1,0-9.11,4.92,4.92,0,0,1,3.35,1.44l-.86.79a3.72,3.72,0,0,0-2.48-1.06,3.39,3.39,0,0,0,0,6.78A3.71,3.71,0,0,0,47.87,53.81Z" transform="translate(-24.45 -19.64)"/><path class="cls-16" d="M51.37,48.08a.81.81,0,0,1,0,1.15.81.81,0,0,1-1.14,0,.81.81,0,0,1,0-1.15.81.81,0,0,1,1.14,0Zm0,2.12v5.73H50.22V50.2Z" transform="translate(-24.45 -19.64)"/><path class="cls-16" d="M53.65,50.2V48h1.15V50.2h1v1.15h-1v4.58H53.65V51.35h-1V50.2Z" transform="translate(-24.45 -19.64)"/><path class="cls-16" d="M58.65,57.86H57.43L59,54.66,56.83,50.2h1.3l1.45,3.14L61,50.2h1.29Z" transform="translate(-24.45 -19.64)"/><path class="cls-16" d="M69.74,53.08H68.68v2.85H67.53V47h2.53a3.08,3.08,0,0,1,1.82.89,3,3,0,0,1,0,4.29,2.51,2.51,0,0,1-.94.69l2,3h-1.4Zm-1.05-4.9v3.74h1.05a1.87,1.87,0,0,0,0-3.74Z" transform="translate(-24.45 -19.64)"/><path class="cls-16" d="M78.92,50.6v-.4h1.16v5.74H78.92v-.72a2.62,2.62,0,0,1-1.94.86,3.17,3.17,0,1,1,0-6.34A2.63,2.63,0,0,1,78.92,50.6Zm0,2.73v-.85a1.87,1.87,0,0,0-.53-1,2,2,0,1,0,0,2.81A1.87,1.87,0,0,0,78.92,53.34Z" transform="translate(-24.45 -19.64)"/><path class="cls-16" d="M82.93,51.74v4.19H81.77V50.2h1.16v.67a1.41,1.41,0,0,1,1.45-1,1.82,1.82,0,0,1,1.48.66,2.57,2.57,0,0,1,.56,1.66v3.73H85.27V52.25a1.15,1.15,0,0,0-.36-.85,1.23,1.23,0,0,0-1.72,0A1.32,1.32,0,0,0,82.93,51.74Z" transform="translate(-24.45 -19.64)"/><path class="cls-16" d="M91.65,50.2,90.1,52.12l2.16,3.81H90.88l-1.56-2.86-.05.06v2.8H88.11V48h1.16v3.24l.89-1.09Z" transform="translate(-24.45 -19.64)"/><path class="cls-16" d="M94.31,54.7a.68.68,0,0,0,.49.2.69.69,0,0,0,.69-.7.66.66,0,0,0-.2-.48,4,4,0,0,0-.6-.43,4,4,0,0,1-.89-.6A1.56,1.56,0,0,1,94.92,50a1.45,1.45,0,0,1,1.08.43,1.38,1.38,0,0,1,.39.69l-1.12.32a.52.52,0,0,0-.08-.18.36.36,0,0,0-.27-.1.41.41,0,0,0-.41.41.38.38,0,0,0,.12.28,3.92,3.92,0,0,0,.48.34,4.58,4.58,0,0,1,1,.69,1.84,1.84,0,1,1-2.61,2.61,1.81,1.81,0,0,1-.49-.93l1.15-.25A.7.7,0,0,0,94.31,54.7Z" transform="translate(-24.45 -19.64)"/><circle class="cls-17" cx="279.14" cy="70.33" r="25.77"/><path class="cls-18" d="M314.42,85.37,322,83.45A19.62,19.62,0,0,0,311.2,72l-3.95,6.86A11.77,11.77,0,0,1,314.42,85.37Z" transform="translate(-24.45 -19.64)"/><path class="cls-19" d="M291.83,90a11.69,11.69,0,0,1,1.47-5.59L286.6,80.5a19.41,19.41,0,0,0,15.82,29v-7.87A11.74,11.74,0,0,1,291.83,90Z" transform="translate(-24.45 -19.64)"/><path class="cls-20" d="M303.59,78.18a11.52,11.52,0,0,1,1.25.13l4.06-7.06a18.95,18.95,0,0,0-21.06,7.25l6.78,3.92A11.67,11.67,0,0,1,303.59,78.18Z" transform="translate(-24.45 -19.64)"/><path class="cls-21" d="M322.61,85.72l-7.5,1.91a11.88,11.88,0,0,1,.24,2.35,11.74,11.74,0,0,1-10.59,11.68v7.87a19.33,19.33,0,0,0,17.85-23.81Z" transform="translate(-24.45 -19.64)"/><path class="cls-19" d="M294.79,101.77" transform="translate(-24.45 -19.64)"/><path class="cls-18" d="M314.42,85.37,322,83.45A19.62,19.62,0,0,0,311.2,72l-3.95,6.86A11.77,11.77,0,0,1,314.42,85.37Z" transform="translate(-24.45 -19.64)"/><path class="cls-19" d="M291.83,90a11.69,11.69,0,0,1,1.47-5.59L286.6,80.5a19.41,19.41,0,0,0,15.82,29v-7.87A11.74,11.74,0,0,1,291.83,90Z" transform="translate(-24.45 -19.64)"/><path class="cls-20" d="M303.59,78.18a11.52,11.52,0,0,1,1.25.13l4.06-7.06a18.95,18.95,0,0,0-21.06,7.25l6.78,3.92A11.67,11.67,0,0,1,303.59,78.18Z" transform="translate(-24.45 -19.64)"/><path class="cls-21" d="M322.61,85.72l-7.5,1.91a11.88,11.88,0,0,1,.24,2.35,11.74,11.74,0,0,1-10.59,11.68v7.87a19.33,19.33,0,0,0,17.85-23.81Z" transform="translate(-24.45 -19.64)"/><ellipse class="cls-22" cx="279.14" cy="70.33" rx="14.66" ry="14.71"/><path class="cls-18" d="M314.42,85.37,322,83.45A19.62,19.62,0,0,0,311.2,72l-3.95,6.86A11.77,11.77,0,0,1,314.42,85.37Z" transform="translate(-24.45 -19.64)"/><path class="cls-19" d="M291.83,90a11.69,11.69,0,0,1,1.47-5.59L286.6,80.5a19.41,19.41,0,0,0,15.82,29v-7.87A11.74,11.74,0,0,1,291.83,90Z" transform="translate(-24.45 -19.64)"/><path class="cls-20" d="M303.59,78.18a11.52,11.52,0,0,1,1.25.13l4.06-7.06a18.95,18.95,0,0,0-21.06,7.25l6.78,3.92A11.67,11.67,0,0,1,303.59,78.18Z" transform="translate(-24.45 -19.64)"/><path class="cls-21" d="M322.61,85.72l-7.5,1.91a11.88,11.88,0,0,1,.24,2.35,11.74,11.74,0,0,1-10.59,11.68v7.87a19.33,19.33,0,0,0,17.85-23.81Z" transform="translate(-24.45 -19.64)"/><path class="cls-19" d="M294.79,101.77" transform="translate(-24.45 -19.64)"/><path class="cls-18" d="M314.42,85.37,322,83.45A19.62,19.62,0,0,0,311.2,72l-3.95,6.86A11.77,11.77,0,0,1,314.42,85.37Z" transform="translate(-24.45 -19.64)"/><path class="cls-23" d="M291.83,90a11.69,11.69,0,0,1,1.47-5.59L286.6,80.5a19.41,19.41,0,0,0,15.82,29v-7.87A11.74,11.74,0,0,1,291.83,90Z" transform="translate(-24.45 -19.64)"/><path class="cls-24" d="M303.59,78.18a11.52,11.52,0,0,1,1.25.13l4.06-7.06a18.95,18.95,0,0,0-21.06,7.25l6.78,3.92A11.67,11.67,0,0,1,303.59,78.18Z" transform="translate(-24.45 -19.64)"/><path class="cls-25" d="M322.61,85.72l-7.5,1.91a11.88,11.88,0,0,1,.24,2.35,11.74,11.74,0,0,1-10.59,11.68v7.87a19.33,19.33,0,0,0,17.85-23.81Z" transform="translate(-24.45 -19.64)"/><ellipse class="cls-14" cx="279.14" cy="70.33" rx="14.66" ry="14.71"/><path class="cls-26" d="M295.86,21.12,299.1,30h-1.22l-1.15-3.15h-2.36L293.23,30H292l3.24-8.91Zm.45,4.61-.76-2.09-.76,2.09Z" transform="translate(-24.45 -19.64)"/><path class="cls-26" d="M301.45,21.11V30h-1.16V21.11Z" transform="translate(-24.45 -19.64)"/><path class="cls-26" d="M304.29,21.11V30h-1.16V21.11Z" transform="translate(-24.45 -19.64)"/><path class="cls-26" d="M311.17,21.12V30H310V21.12Z" transform="translate(-24.45 -19.64)"/><path class="cls-26" d="M314.24,25.84V30h-1.16V24.3h1.16V25a1.41,1.41,0,0,1,1.45-1,1.82,1.82,0,0,1,1.48.66,2.57,2.57,0,0,1,.57,1.66V30h-1.15V26.35a1.15,1.15,0,0,0-.36-.85,1.23,1.23,0,0,0-1.72,0A1.28,1.28,0,0,0,314.24,25.84Z" transform="translate(-24.45 -19.64)"/><path class="cls-26" d="M324.29,24.69V21.12h1.16V30h-1.16v-.71a2.62,2.62,0,0,1-1.94.86,3.17,3.17,0,0,1,0-6.35A2.62,2.62,0,0,1,324.29,24.69Zm0,2.74v-.85a1.85,1.85,0,0,0-.54-1,2,2,0,1,0,0,2.81A1.85,1.85,0,0,0,324.29,27.43Z" transform="translate(-24.45 -19.64)"/><path class="cls-26" d="M328.34,22.18a.81.81,0,0,1,0,1.15.81.81,0,0,1-1.14,0,.81.81,0,0,1,0-1.15.81.81,0,0,1,1.14,0Zm0,2.12V30h-1.15V24.3Z" transform="translate(-24.45 -19.64)"/><path class="cls-26" d="M334.94,24.7v-.4h1.16V30h-1.16v-.72a2.62,2.62,0,0,1-1.94.86,3.17,3.17,0,1,1,0-6.34A2.63,2.63,0,0,1,334.94,24.7Zm0,2.73v-.85a1.87,1.87,0,0,0-.54-1,2,2,0,1,0,0,2.81A1.87,1.87,0,0,0,334.94,27.43Z" transform="translate(-24.45 -19.64)"/><path class="cls-26" d="M291.09,39.14a3.87,3.87,0,0,1-1.54-.91,2,2,0,0,1-.59-1.46,2.09,2.09,0,0,1,3.56-1.47,2.56,2.56,0,0,1,.58,1.06l-1,.41a2,2,0,0,0-.35-.67.94.94,0,0,0-1.32,0,.89.89,0,0,0-.27.66.9.9,0,0,0,.27.66,3,3,0,0,0,.85.55A4.39,4.39,0,0,1,293,39.07a2.65,2.65,0,0,1,.82,2,2.78,2.78,0,0,1-4.75,2,3.12,3.12,0,0,1-.82-1.8l1.12-.41a2.3,2.3,0,0,0,.52,1.4,1.63,1.63,0,0,0,2.31-2.31A3.38,3.38,0,0,0,291.09,39.14Z" transform="translate(-24.45 -19.64)"/><path class="cls-26" d="M296.4,34.8v8.92h-1.16V34.8Z" transform="translate(-24.45 -19.64)"/><path class="cls-26" d="M303,38.39V38h1.16v5.74H303V43a2.62,2.62,0,0,1-1.94.86,3.17,3.17,0,1,1,0-6.34A2.63,2.63,0,0,1,303,38.39Zm0,2.73v-.85a1.87,1.87,0,0,0-.54-1,2,2,0,1,0,0,2.81A1.87,1.87,0,0,0,303,41.12Z" transform="translate(-24.45 -19.64)"/><path class="cls-26" d="M307,43v.71h-1.15V34.81H307v3.58a2.62,2.62,0,0,1,1.94-.86,3.17,3.17,0,0,1,0,6.35A2.62,2.62,0,0,1,307,43Zm0-2.76v.9a1.86,1.86,0,0,0,.53,1,2,2,0,0,0,2.82,0,2,2,0,0,0-1.41-3.39,1.92,1.92,0,0,0-1.41.58A1.86,1.86,0,0,0,307,40.25Z" transform="translate(-24.45 -19.64)"/><path class="cls-26" d="M313.61,39.75h3.72V40.9h-3.72Z" transform="translate(-24.45 -19.64)"/><path class="cls-26" d="M321.5,42V38h1.15v3.94a.69.69,0,0,0,.21.51.67.67,0,0,0,.49.2q.69,0,.69-.85V38h1.16v4a1.8,1.8,0,0,1-.54,1.25,1.77,1.77,0,0,1-1.3.55,1.65,1.65,0,0,1-1.26-.53,1.68,1.68,0,0,1-1.27.53A1.85,1.85,0,0,1,319,42V38h1.15v3.8q0,.85.69.85a.68.68,0,0,0,.49-.2A.66.66,0,0,0,321.5,42Z" transform="translate(-24.45 -19.64)"/><path class="cls-26" d="M328,35.86A.81.81,0,0,1,328,37a.81.81,0,0,1-1.14,0,.81.81,0,0,1,0-1.15.81.81,0,0,1,1.14,0Zm0,2.12v5.73H326.9V38Z" transform="translate(-24.45 -19.64)"/><path class="cls-26" d="M330.79,42.49a.7.7,0,0,0,1,0,.67.67,0,0,0,.2-.5.66.66,0,0,0-.2-.48,4,4,0,0,0-.6-.43,4.05,4.05,0,0,1-.89-.6,1.56,1.56,0,0,1,1.1-2.66,1.45,1.45,0,0,1,1.07.43,1.39,1.39,0,0,1,.39.69l-1.12.32a.5.5,0,0,0-.08-.18.36.36,0,0,0-.27-.1.41.41,0,0,0-.41.41.39.39,0,0,0,.12.28,3.9,3.9,0,0,0,.48.34,4.58,4.58,0,0,1,1,.69A1.84,1.84,0,1,1,330,43.3a1.81,1.81,0,0,1-.49-.93l1.15-.25A.69.69,0,0,0,330.79,42.49Z" transform="translate(-24.45 -19.64)"/><path class="cls-26" d="M336.25,42.42a1.62,1.62,0,0,0,1.05.26,1.93,1.93,0,0,0,1.41-.58l.29-.35,1.15.41a7.49,7.49,0,0,1-.61.77,3.17,3.17,0,1,1-.27-4.74l.27.25.32.35-.58.58Zm1.93-3.56a1.63,1.63,0,0,0-.87-.15,2,2,0,0,0-2,2,1.65,1.65,0,0,0,.15.87Z" transform="translate(-24.45 -19.64)"/><path class="cls-26" d="M284.4,54.55V57.4h-1.15V48.49h2.53a3.08,3.08,0,0,1,1.82.89,3,3,0,0,1-2.14,5.17Zm0-4.9v3.74h1.05a1.87,1.87,0,0,0,0-3.74Z" transform="translate(-24.45 -19.64)"/><path class="cls-26" d="M291.36,56.11a1.62,1.62,0,0,0,1.05.26,1.93,1.93,0,0,0,1.41-.58l.29-.35,1.15.41a7.49,7.49,0,0,1-.61.77,3.17,3.17,0,1,1-.27-4.74l.27.25.32.35-.58.58Zm1.93-3.56a1.63,1.63,0,0,0-.87-.15,2,2,0,0,0-2,2,1.65,1.65,0,0,0,.15.87Z" transform="translate(-24.45 -19.64)"/><path class="cls-26" d="M297.62,52.45a2,2,0,0,1,1.59-.92v1.2a1.47,1.47,0,0,0-1,.41,1.88,1.88,0,0,0-.58,1.33V57.4h-1.15V51.67h1.15Z" transform="translate(-24.45 -19.64)"/><path class="cls-26" d="M301.8,52.82v4.59h-1.16V52.82h-.51V51.67h.51v-1a1.83,1.83,0,0,1,.55-1.23,1.72,1.72,0,0,1,1.21-.49,3.64,3.64,0,0,1,1,.24l-.38,1.09a2.37,2.37,0,0,0-.62-.21.67.67,0,0,0-.45.19.64.64,0,0,0-.2.44v1h1v1.15Z" transform="translate(-24.45 -19.64)"/><path class="cls-26" d="M306.75,51.21a3.18,3.18,0,1,1-2.24.93A3,3,0,0,1,306.75,51.21ZM305.35,53a2,2,0,1,0,1.41-.58A1.92,1.92,0,0,0,305.35,53Z" transform="translate(-24.45 -19.64)"/><path class="cls-26" d="M312.43,52.45a2,2,0,0,1,1.59-.92v1.2a1.47,1.47,0,0,0-1,.41,1.88,1.88,0,0,0-.58,1.33V57.4h-1.15V51.67h1.15Z" transform="translate(-24.45 -19.64)"/><path class="cls-26" d="M315.11,51.67h1.15v.53a1.26,1.26,0,0,1,1.29-.84,1,1,0,0,1,1.06,1,1.36,1.36,0,0,1,1.5-1q1.21,0,1.21,1.48V57.4h-1.16v-4q0-.85-.69-.85a.68.68,0,0,0-.49.2q-.21.2-.21,1.35V57.4h-1.15v-4q0-.85-.69-.85a.68.68,0,0,0-.49.2,1.51,1.51,0,0,0-.2.91V57.4h-1.15Z" transform="translate(-24.45 -19.64)"/><path class="cls-26" d="M327.89,52.07v-.4h1.16v5.74h-1.16v-.72a2.62,2.62,0,0,1-1.94.86,3.17,3.17,0,1,1,0-6.34A2.63,2.63,0,0,1,327.89,52.07Zm0,2.73V54a1.87,1.87,0,0,0-.54-1,2,2,0,1,0,0,2.81A1.87,1.87,0,0,0,327.89,54.81Z" transform="translate(-24.45 -19.64)"/><path class="cls-26" d="M331.9,53.21V57.4h-1.16V51.67h1.16v.67a1.41,1.41,0,0,1,1.45-1,1.82,1.82,0,0,1,1.48.66,2.57,2.57,0,0,1,.57,1.66V57.4h-1.15V53.72a1.15,1.15,0,0,0-.36-.85,1.23,1.23,0,0,0-1.72,0A1.28,1.28,0,0,0,331.9,53.21Z" transform="translate(-24.45 -19.64)"/><path class="cls-26" d="M341.6,55.44l1.15.41a7.49,7.49,0,0,1-.61.77,3.17,3.17,0,1,1,0-4.49,7.83,7.83,0,0,1,.61.76l-1.15.42-.3-.35a2,2,0,1,0,0,2.81Z" transform="translate(-24.45 -19.64)"/><path class="cls-26" d="M345.77,56.11a1.62,1.62,0,0,0,1.05.26,1.93,1.93,0,0,0,1.41-.58l.29-.35,1.15.41a7.49,7.49,0,0,1-.61.77,3.17,3.17,0,1,1-.27-4.74l.27.25.32.35-.58.58Zm1.93-3.56a1.63,1.63,0,0,0-.87-.15,2,2,0,0,0-2,2,1.65,1.65,0,0,0,.15.87Z" transform="translate(-24.45 -19.64)"/><path class="cls-10" d="M28.32,319.15l3.24,8.91H30.34l-1.15-3.15H26.83l-1.14,3.15H24.45l3.24-8.91Zm.45,4.61L28,321.67l-.76,2.09Z" transform="translate(-24.45 -19.64)"/><path class="cls-10" d="M34.44,328.06l-2.73-5.73H33l1.72,3.72,1.73-3.72h1.3L35,328.06Z" transform="translate(-24.45 -19.64)"/><path class="cls-10" d="M40.39,326.77a1.62,1.62,0,0,0,1.05.26,1.93,1.93,0,0,0,1.41-.58l.3-.34,1.15.41a7.54,7.54,0,0,1-.61.77,3.17,3.17,0,1,1-.27-4.74l.27.25.32.35-.58.58Zm1.93-3.56a1.64,1.64,0,0,0-.87-.15,2,2,0,0,0-2,2,1.65,1.65,0,0,0,.15.88Z" transform="translate(-24.45 -19.64)"/><path class="cls-10" d="M46.65,323.11a2,2,0,0,1,1.59-.92v1.2a1.47,1.47,0,0,0-1,.41,1.88,1.88,0,0,0-.58,1.33v2.95H45.5v-5.73h1.15Z" transform="translate(-24.45 -19.64)"/><path class="cls-10" d="M54.19,322.73v-.4h1.16v5.74H54.19v-.72a2.62,2.62,0,0,1-1.94.86,3.17,3.17,0,1,1,0-6.34A2.63,2.63,0,0,1,54.19,322.73Zm0,2.73v-.85a1.87,1.87,0,0,0-.53-1,2,2,0,1,0,0,2.81A1.87,1.87,0,0,0,54.19,325.47Z" transform="translate(-24.45 -19.64)"/><path class="cls-10" d="M61.92,322.73v-.39h1.16v4.26a3.49,3.49,0,0,1-.91,2.58,3.49,3.49,0,0,1-4.49,0,7.31,7.31,0,0,1-.61-.77l1.15-.41.3.34a1.92,1.92,0,0,0,1.4.58q1.38,0,1.9-1.8a1.91,1.91,0,0,1-1.85,1,3.1,3.1,0,0,1-2.24-.9A3,3,0,0,1,56.8,325,3.17,3.17,0,0,1,60,321.87,2.63,2.63,0,0,1,61.92,322.73Zm0,1.87a1.86,1.86,0,0,0-.53-1,2,2,0,1,0,0,2.81,1.86,1.86,0,0,0,.53-.95Z" transform="translate(-24.45 -19.64)"/><path class="cls-10" d="M66.56,326.77a1.62,1.62,0,0,0,1.05.26,1.93,1.93,0,0,0,1.41-.58l.3-.34,1.15.41a7.54,7.54,0,0,1-.61.77,3.17,3.17,0,1,1-.27-4.74l.27.25.32.35-.58.58Zm1.93-3.56a1.64,1.64,0,0,0-.87-.15,2,2,0,0,0-2,2,1.65,1.65,0,0,0,.15.88Z" transform="translate(-24.45 -19.64)"/><path class="cls-10" d="M78.59,321.87a3.18,3.18,0,1,1-2.24.93A3.05,3.05,0,0,1,78.59,321.87Zm-1.41,1.77a2,2,0,1,0,1.41-.58A1.92,1.92,0,0,0,77.18,323.64Z" transform="translate(-24.45 -19.64)"/><path class="cls-10" d="M84.37,323.48v4.59H83.21v-4.59H82.7v-1.15h.51v-1a1.83,1.83,0,0,1,.55-1.23,1.72,1.72,0,0,1,1.21-.49,3.65,3.65,0,0,1,1,.24l-.38,1.09a2.41,2.41,0,0,0-.62-.21.67.67,0,0,0-.45.2.64.64,0,0,0-.2.44v1h1v1.15Z" transform="translate(-24.45 -19.64)"/><path class="cls-10" d="M29.22,332.84l3.24,8.91H31.24l-1.15-3.15H27.73l-1.14,3.15H25.36l3.24-8.91Zm.45,4.61-.76-2.09-.76,2.09Z" transform="translate(-24.45 -19.64)"/><path class="cls-10" d="M34.81,332.84v8.92H33.65v-8.92Z" transform="translate(-24.45 -19.64)"/><path class="cls-10" d="M37.65,332.84v8.92H36.5v-8.92Z" transform="translate(-24.45 -19.64)"/><path class="cls-10" d="M45.53,337.18a3.87,3.87,0,0,1-1.53-.91,2,2,0,0,1-.59-1.46A2.09,2.09,0,0,1,47,333.35a2.55,2.55,0,0,1,.58,1.06l-1,.41a2.05,2.05,0,0,0-.35-.67.94.94,0,0,0-1.32,0,.94.94,0,0,0,0,1.32,3,3,0,0,0,.85.55,4.38,4.38,0,0,1,1.78,1.07,2.65,2.65,0,0,1,.82,2,2.78,2.78,0,0,1-4.75,2,3.12,3.12,0,0,1-.82-1.8l1.12-.41a2.3,2.3,0,0,0,.52,1.4,1.63,1.63,0,0,0,2.31-2.31A3.38,3.38,0,0,0,45.53,337.18Z" transform="translate(-24.45 -19.64)"/><path class="cls-10" d="M50.07,336v-2.15h1.15V336h1v1.15h-1v4.58H50.07v-4.58H49V336Z" transform="translate(-24.45 -19.64)"/><path class="cls-10" d="M55.88,341.83a2.36,2.36,0,0,1-1.75-.66,2.31,2.31,0,0,1-.68-1.66V336h1.16v3.44a1.16,1.16,0,0,0,.36.85,1.24,1.24,0,0,0,.9.36,1.19,1.19,0,0,0,.86-.35,1.15,1.15,0,0,0,.36-.85V336h1.15v3.49a2.29,2.29,0,0,1-2.37,2.32Z" transform="translate(-24.45 -19.64)"/><path class="cls-10" d="M64.78,336.42v-3.58h1.16v8.91H64.78V341a2.63,2.63,0,0,1-1.94.86,3.17,3.17,0,0,1,0-6.35A2.63,2.63,0,0,1,64.78,336.42Zm0,2.74v-.85a1.85,1.85,0,0,0-.54-1,2,2,0,1,0,0,2.81A1.85,1.85,0,0,0,64.78,339.16Z" transform="translate(-24.45 -19.64)"/><path class="cls-10" d="M69.41,340.45a1.62,1.62,0,0,0,1.05.26,1.93,1.93,0,0,0,1.41-.58l.3-.34,1.15.41a7.54,7.54,0,0,1-.61.77,3.17,3.17,0,1,1-.27-4.74l.27.25.32.35-.58.58Zm1.93-3.56a1.64,1.64,0,0,0-.87-.15,2,2,0,0,0-2,2,1.65,1.65,0,0,0,.15.88Z" transform="translate(-24.45 -19.64)"/><path class="cls-10" d="M75.68,337.56v4.19H74.52V336h1.16v.67a1.41,1.41,0,0,1,1.45-1,1.82,1.82,0,0,1,1.48.66,2.57,2.57,0,0,1,.56,1.66v3.73H78v-3.68a1.14,1.14,0,0,0-.36-.85,1.23,1.23,0,0,0-1.72,0A1.32,1.32,0,0,0,75.68,337.56Z" transform="translate(-24.45 -19.64)"/><path class="cls-10" d="M81.37,336v-2.15h1.15V336h1v1.15h-1v4.58H81.37v-4.58h-1V336Z" transform="translate(-24.45 -19.64)"/><path class="cls-10" d="M85.81,340.52a.68.68,0,0,0,.49.2A.69.69,0,0,0,87,340a.66.66,0,0,0-.2-.48,4,4,0,0,0-.6-.43,4,4,0,0,1-.89-.6,1.5,1.5,0,0,1-.46-1.1,1.56,1.56,0,0,1,1.56-1.56,1.45,1.45,0,0,1,1.08.43,1.38,1.38,0,0,1,.39.68l-1.12.32a.51.51,0,0,0-.08-.18.36.36,0,0,0-.27-.1.41.41,0,0,0-.29.69,3.81,3.81,0,0,0,.48.34,4.58,4.58,0,0,1,1,.69A1.84,1.84,0,1,1,85,341.33a1.81,1.81,0,0,1-.49-.93l1.15-.25A.71.71,0,0,0,85.81,340.52Z" transform="translate(-24.45 -19.64)"/><circle class="cls-10" cx="43.69" cy="274.94" r="25.51"/><rect class="cls-14" x="27.38" y="256.87" width="1.69" height="36.44" rx="0.62" ry="0.62"/><path class="cls-27" d="M56.15,311.94s12-72.05,25.07,0" transform="translate(-24.45 -19.64)"/><rect class="cls-14" x="68.02" y="295.34" width="1.52" height="33.85" rx="0.57" ry="0.57" transform="translate(356.6 223.84) rotate(90)"/><rect class="cls-14" x="72.41" y="274.41" width="2.36" height="40.44" transform="translate(343.77 201.4) rotate(90)"/><circle class="cls-10" cx="30.61" cy="274.99" r="0.79"/><circle class="cls-10" cx="33.68" cy="274.99" r="0.79"/><circle class="cls-10" cx="36.39" cy="274.99" r="0.79"/><circle class="cls-10" cx="39.56" cy="274.99" r="0.79"/><circle class="cls-10" cx="42.37" cy="274.99" r="0.79"/><circle class="cls-10" cx="45.18" cy="274.99" r="0.79"/><circle class="cls-10" cx="47.99" cy="274.99" r="0.79"/><circle class="cls-10" cx="51.06" cy="274.99" r="0.79"/><circle class="cls-10" cx="53.87" cy="274.99" r="0.79"/><circle class="cls-10" cx="56.68" cy="274.99" r="0.79"/><circle class="cls-10" cx="59.49" cy="274.99" r="0.79"/><circle class="cls-10" cx="62.3" cy="274.99" r="0.79"/><circle class="cls-10" cx="65.12" cy="274.99" r="0.79"/></g></g></svg>