<svg id="Capa_1" enable-background="new 0 0 512 512" height="512" viewBox="0 0 512 512" width="512" xmlns="http://www.w3.org/2000/svg"><path d="m285.36 20.604h-174.1c-11.379 0-20.604 9.225-20.604 20.604v20.604h215.308v-20.605c0-11.379-9.225-20.603-20.604-20.603z" fill="#a0adea"/><path d="m381.167 92.716c0-22.758-18.449-41.207-41.207-41.207h-283.3c-22.758 0-41.207 18.449-41.207 41.207v378.076c0 22.759 18.449 41.208 41.207 41.208h283.3c22.758 0 41.207-18.449 41.207-41.207z" fill="#e2b788"/><path d="m381.167 92.716v378.076c0 22.757-18.451 41.207-41.207 41.207h-30.905c22.757 0 41.207-18.451 41.207-41.207v-378.076c0-22.757-18.451-41.207-41.207-41.207h30.905c22.756 0 41.207 18.451 41.207 41.207z" fill="#d19369"/><path d="m46.358 421.344v44.813c0 8.534 6.918 15.453 15.453 15.453h272.998c8.534 0 15.453-6.918 15.453-15.453v-45.328z" fill="#e2e2e2"/><path d="m350.262 430.77c0 11.379-9.225 20.604-20.604 20.604h-262.696c-11.379 0-20.604-9.225-20.604-20.604v-337.899c0-5.69 4.612-10.302 10.302-10.302h283.3c5.69 0 10.302 4.612 10.302 10.302z" fill="#fff"/><path d="m220.459 113.32h-44.298c-8.534 0-15.453-6.918-15.453-15.453v-82.414c0-8.535 6.919-15.453 15.453-15.453h44.298c8.534 0 15.453 6.918 15.453 15.453v82.414c-.001 8.535-6.919 15.453-15.453 15.453z" fill="#caedff"/><path d="m455.34 168.95h-169.98c-22.758 0-41.207 18.449-41.207 41.207v79.324c0 22.758 18.449 41.207 41.207 41.207h49.449c8.534 0 15.453 6.918 15.453 15.453v37.013c0 4.589 5.548 6.887 8.793 3.642l47.056-47.056c5.796-5.796 13.657-9.052 21.853-9.052h27.376c22.758 0 41.207-18.449 41.207-41.207v-79.324c0-22.758-18.449-41.207-41.207-41.207z" fill="#ffe299"/><path d="m496.547 210.157v79.324c0 22.757-18.45 41.207-41.207 41.207h-27.372c-8.2 0-16.06 3.255-21.86 9.055l-47.048 47.048c-3.245 3.245-8.798.948-8.798-3.637v-18.471l24.941-24.941c5.8-5.8 13.66-9.055 21.86-9.055h27.372c22.757 0 41.207-18.451 41.207-41.207v-79.324c0-22.757-18.45-41.207-41.207-41.207h30.905c22.757.001 41.207 18.451 41.207 41.208z" fill="#f4be67"/><path d="m326.567 202.431h-15.453c-15.621 0-28.33 12.709-28.33 28.33v58.72c0 4.268 3.459 7.726 7.726 7.726s7.726-3.459 7.726-7.726v-14.079h41.207v14.079c0 4.268 3.459 7.726 7.726 7.726s7.726-3.459 7.726-7.726v-58.72c.002-15.621-12.707-28.33-28.328-28.33zm-28.33 57.518v-29.188c0-7.101 5.777-12.877 12.877-12.877h15.453c7.101 0 12.877 5.777 12.877 12.877v29.188z" fill="#f9a0a0"/><path d="m406.406 227.155h-26.785c-4.268 0-7.726-3.459-7.726-7.726s3.459-7.726 7.726-7.726h26.785c4.268 0 7.726 3.459 7.726 7.726s-3.458 7.726-7.726 7.726z" fill="#f4be67"/><path d="m450.704 227.155h-14.423c-4.268 0-7.726-3.459-7.726-7.726s3.459-7.726 7.726-7.726h14.423c4.268 0 7.726 3.459 7.726 7.726s-3.458 7.726-7.726 7.726z" fill="#f4be67"/><path d="m450.704 258.06h-26.784c-4.268 0-7.726-3.459-7.726-7.726s3.459-7.726 7.726-7.726h26.785c4.268 0 7.726 3.459 7.726 7.726s-3.459 7.726-7.727 7.726z" fill="#f4be67"/><path d="m394.044 258.06h-14.423c-4.268 0-7.726-3.459-7.726-7.726s3.459-7.726 7.726-7.726h14.423c4.268 0 7.726 3.459 7.726 7.726s-3.458 7.726-7.726 7.726z" fill="#f4be67"/><path d="m406.406 288.966h-26.785c-4.268 0-7.726-3.459-7.726-7.726s3.459-7.726 7.726-7.726h26.785c4.268 0 7.726 3.459 7.726 7.726s-3.458 7.726-7.726 7.726z" fill="#f4be67"/><path d="m450.704 288.966h-14.423c-4.268 0-7.726-3.459-7.726-7.726s3.459-7.726 7.726-7.726h14.423c4.268 0 7.726 3.459 7.726 7.726s-3.458 7.726-7.726 7.726z" fill="#f4be67"/><path d="m177.107 242.441-6.598-5.731c5.813-7.868 9.258-17.587 9.258-28.098 0-26.13-21.259-47.388-47.388-47.388s-47.389 21.258-47.389 47.388 21.258 47.388 47.388 47.388c10.033 0 19.34-3.143 27.009-8.483l7.587 6.59c1.463 1.271 3.267 1.893 5.063 1.893 2.16 0 4.309-.9 5.836-2.66 2.799-3.221 2.456-8.102-.766-10.899zm-44.729-1.894c-17.61 0-31.936-14.326-31.936-31.936s14.326-31.936 31.936-31.936 31.936 14.326 31.936 31.936c0 6.639-2.038 12.81-5.519 17.924l-5.211-4.526c-3.221-2.798-8.103-2.457-10.899.767-2.799 3.221-2.456 8.102.767 10.899l3.716 3.228c-4.425 2.323-9.455 3.644-14.79 3.644z" fill="#85d387"/><g fill="#9e9e9e"><path d="m167.404 286.905h-71.082c-4.268 0-7.726-3.459-7.726-7.726s3.459-7.726 7.726-7.726h71.082c4.268 0 7.726 3.459 7.726 7.726s-3.458 7.726-7.726 7.726z"/><path d="m157.103 317.811h-60.781c-4.268 0-7.726-3.459-7.726-7.726s3.459-7.726 7.726-7.726h60.781c4.268 0 7.726 3.459 7.726 7.726s-3.459 7.726-7.726 7.726z"/><path d="m136.499 348.716h-40.177c-4.268 0-7.726-3.459-7.726-7.726s3.459-7.726 7.726-7.726h40.177c4.268 0 7.726 3.459 7.726 7.726s-3.458 7.726-7.726 7.726z"/><path d="m272.483 412.588c-4.268 0-7.726-3.459-7.726-7.726v-14.423c0-4.268 3.459-7.726 7.726-7.726 4.268 0 7.726 3.459 7.726 7.726v14.423c0 4.267-3.459 7.726-7.726 7.726z"/><path d="m303.388 412.588c-4.268 0-7.726-3.459-7.726-7.726v-14.423c0-4.268 3.459-7.726 7.726-7.726s7.726 3.459 7.726 7.726v14.423c.001 4.267-3.458 7.726-7.726 7.726z"/><path d="m241.577 412.588c-4.268 0-7.726-3.459-7.726-7.726v-14.423c0-4.268 3.459-7.726 7.726-7.726s7.726 3.459 7.726 7.726v14.423c.001 4.267-3.458 7.726-7.726 7.726z"/><path d="m154.527 412.588h-57.69c-4.268 0-7.726-3.459-7.726-7.726s3.459-7.726 7.726-7.726h57.69c4.268 0 7.726 3.459 7.726 7.726s-3.458 7.726-7.726 7.726z"/></g></svg>