<?xml version="1.0"?>
<svg xmlns="http://www.w3.org/2000/svg" xmlns:xlink="http://www.w3.org/1999/xlink" version="1.1" id="Capa_1" x="0px" y="0px" viewBox="0 0 423.157 423.157" style="enable-background:new 0 0 423.157 423.157;" xml:space="preserve" width="512px" height="512px" class=""><g><g>
	<g>
		<path d="M413.998,172.435H283.799l-59.201-56.08v-15.432h77.41c3.621,0,6.557-2.936,6.557-6.557V24.852    c0-3.621-2.936-6.557-6.557-6.557h-81.75v0.001h-15.001c-3.7,0-6.699,2.999-6.699,6.699v91.361l-59.201,56.08H9.159    c-5.058,0-9.159,4.101-9.159,9.159v46.606c0,5.058,4.101,9.158,9.159,9.158h95.074c2.858,0,5.609-1.096,7.685-3.062l93.301-88.381    c3.566-3.378,9.152-3.378,12.719,0l93.301,88.381c2.076,1.966,4.826,3.062,7.684,3.062h95.076c5.057,0,9.158-4.101,9.158-9.158    v-46.606C423.156,176.536,419.055,172.435,413.998,172.435z" data-original="#000000" class="active-path" data-old_color="#000000" fill="#FFFFFF"/>
	</g>
</g><g>
	<g>
		<path d="M299.605,259.209l-80.898-76.354c-4.002-3.778-10.256-3.778-14.259,0l-80.898,76.354    c-2.194,2.071-3.438,4.955-3.438,7.973v126.716c0,6.055,4.908,10.963,10.963,10.963H173.9v-49.203    c0-3.792,3.074-6.865,6.865-6.865h61.625c3.791,0,6.865,3.073,6.865,6.865v49.203h42.825c6.055,0,10.963-4.908,10.963-10.963    V267.182C303.043,264.164,301.801,261.281,299.605,259.209z M211.578,295.433c-18.256,0-33.057-14.799-33.057-33.057    c0-18.256,14.8-33.056,33.057-33.056c18.256,0,33.057,14.8,33.057,33.056C244.635,280.635,229.834,295.433,211.578,295.433z" data-original="#000000" class="active-path" data-old_color="#000000" fill="#FFFFFF"/>
	</g>
</g><g>
	<g>
		<path d="M218.84,245.816h-7.822c-1.436,0-2.6,1.164-2.6,2.6v12.186h-11.724c-1.436,0-2.6,1.164-2.6,2.6v7.821    c0,1.436,1.164,2.599,2.6,2.599h19.954c2.646,0,4.791-2.144,4.791-4.789v-20.416C221.439,246.98,220.275,245.816,218.84,245.816z" data-original="#000000" class="active-path" data-old_color="#000000" fill="#FFFFFF"/>
	</g>
</g><g>
	<g>
		<path d="M416.375,262.378h-79.668c-3.744,0-6.779,3.036-6.779,6.781v100.889c0,3.744,3.035,6.78,6.779,6.78h79.668    c3.744,0,6.781-3.036,6.781-6.78V269.158C423.156,265.413,420.119,262.378,416.375,262.378z M390.783,332.639    c0,3.287-2.664,5.953-5.953,5.953h-16.578c-3.287,0-5.953-2.666-5.953-5.953v-26.073c0-3.287,2.666-5.952,5.953-5.952h16.578    c3.289,0,5.953,2.665,5.953,5.952V332.639z" data-original="#000000" class="active-path" data-old_color="#000000" fill="#FFFFFF"/>
	</g>
</g><g>
	<g>
		<path d="M86.449,262.377H6.781c-3.745,0-6.78,3.036-6.78,6.781v100.889c-0.001,3.744,3.035,6.78,6.78,6.78h79.668    c3.745,0,6.78-3.036,6.78-6.78V269.158C93.229,265.413,90.193,262.377,86.449,262.377z M60.857,332.638    c0,3.287-2.665,5.953-5.953,5.953H38.325c-3.288,0-5.952-2.666-5.952-5.953v-26.073c0-3.287,2.665-5.952,5.952-5.952h16.579    c3.288,0,5.953,2.665,5.953,5.952V332.638z" data-original="#000000" class="active-path" data-old_color="#000000" fill="#FFFFFF"/>
	</g>
</g></g> </svg>
