<svg height="464pt" viewBox="0 0 464 464" width="464pt" xmlns="http://www.w3.org/2000/svg"><path d="m448 344c0 22.089844-17.910156 40-40 40s-40-17.910156-40-40 17.910156-40 40-40 40 17.910156 40 40zm0 0" fill="#57b7eb"/><path d="m376 384h64c13.253906 0 24 10.746094 24 24v56h-112v-56c0-13.253906 10.746094-24 24-24zm0 0" fill="#57b7eb"/><path d="m424 368c-22.089844 0-40-17.910156-40-40 .035156-6.644531 1.769531-13.171875 5.039062-18.960938-15.324218 7.945313-23.824218 24.820313-21.085937 41.863282 2.742187 17.042968 16.101563 30.402344 33.144531 33.144531 17.042969 2.738281 33.917969-5.761719 41.863282-21.085937-5.789063 3.269531-12.316407 5.003906-18.960938 5.039062zm0 0" fill="#4891d3"/><path d="m408 440c-17.671875 0-32-14.328125-32-32 0-13.253906 10.746094-24 24-24h-24c-13.253906 0-24 10.746094-24 24v56h112v-24zm0 0" fill="#4891d3"/><path d="m352 176c0 97.203125-78.796875 176-176 176s-176-78.796875-176-176 78.796875-176 176-176 176 78.796875 176 176zm0 0" fill="#f9e109"/><path d="m240 296c-65.464844-.164062-125.429688-36.652344-155.664062-94.71875-30.234376-58.066406-25.742188-128.113281 11.664062-181.839844-65.171875 33.429688-102.824219 103.726563-94.539062 176.503906 8.285156 72.773438 60.773437 132.8125 131.792968 150.738282 71.015625 17.929687 145.710938-10 187.546875-70.125-24.984375 12.867187-52.699219 19.535156-80.800781 19.441406zm0 0" fill="#fcbc04"/><path d="m176 0v176h176c0-97.203125-78.796875-176-176-176zm0 0" fill="#a1d51c"/><path d="m448 24c0 13.253906-10.746094 24-24 24s-24-10.746094-24-24 10.746094-24 24-24 24 10.746094 24 24zm0 0" fill="#c4f236"/><path d="m408 48h32c8.835938 0 16 7.164062 16 16v32h-64v-32c0-8.835938 7.164062-16 16-16zm0 0" fill="#c4f236"/><path d="m440 40c-9.46875.011719-18.0625-5.546875-21.933594-14.1875-3.871094-8.644531-2.300781-18.753906 4.011719-25.8125-10.722656.910156-19.527344 8.847656-21.542969 19.417969-2.019531 10.574219 3.25 21.195312 12.886719 25.984375 9.636719 4.792968 21.285156 2.585937 28.5-5.402344zm0 0" fill="#a1d51c"/><path d="m424 80c-8.835938 0-16-7.164062-16-16s7.164062-16 16-16h-16c-8.835938 0-16 7.164062-16 16v32h64v-16zm0 0" fill="#a1d51c"/><path d="m232 120c-3.316406.023438-6.304688-2-7.511719-5.085938-1.207031-3.089843-.382812-6.605468 2.070313-8.835937l91.441406-83.757813c4.371094-4.011718 10.070312-6.261718 16-6.320312h34c4.417969 0 8 3.582031 8 8s-3.582031 8-8 8h-33.761719c-2.007812-.015625-3.949219.726562-5.4375 2.078125l-91.359375 83.84375c-1.507812 1.316406-3.4375 2.054687-5.441406 2.078125zm0 0" fill="#39519d"/><path d="m320 424h-53.519531c-9.542969 0-18.183594-5.652344-22-14.398438l-51.839844-118.402343c-1.769531-4.0625.09375-8.792969 4.160156-10.558594 4.0625-1.769531 8.792969.09375 10.558594 4.160156l51.761719 118.398438c1.273437 2.925781 4.167968 4.8125 7.359375 4.800781h53.519531c4.417969 0 8 3.582031 8 8s-3.582031 8-8 8zm0 0" fill="#39519d"/><g fill="#a1d51c"><path d="m48 232c-2.125.011719-4.171875-.824219-5.679688-2.320312-1.515624-1.5-2.367187-3.546876-2.367187-5.679688s.851563-4.179688 2.367187-5.679688l88-88c3.136719-3.136718 8.222657-3.136718 11.359376 0 3.136718 3.136719 3.136718 8.222657 0 11.359376l-88 88c-1.507813 1.496093-3.554688 2.332031-5.679688 2.320312zm0 0"/><path d="m136 216c0 8.835938-7.164062 16-16 16s-16-7.164062-16-16 7.164062-16 16-16 16 7.164062 16 16zm0 0"/><path d="m72 152c0 8.835938-7.164062 16-16 16s-16-7.164062-16-16 7.164062-16 16-16 16 7.164062 16 16zm0 0"/></g><path d="m280 232h-80c-4.417969 0-8-3.582031-8-8s3.582031-8 8-8h80c4.417969 0 8 3.582031 8 8s-3.582031 8-8 8zm0 0" fill="#39519d"/><path d="m280 264h-40c-4.417969 0-8-3.582031-8-8s3.582031-8 8-8h40c4.417969 0 8 3.582031 8 8s-3.582031 8-8 8zm0 0" fill="#39519d"/><path d="m0 376h48v88h-48zm0 0" fill="#c4f236"/><path d="m80 408h48v56h-48zm0 0" fill="#f9e109"/><path d="m160 432h48v32h-48zm0 0" fill="#c4f236"/><path d="m104 384c-4.417969 0-8-3.582031-8-8v-96c0-4.417969 3.582031-8 8-8s8 3.582031 8 8v96c0 4.417969-3.582031 8-8 8zm0 0" fill="#39519d"/><path d="m144 64h-32c-4.417969 0-8-3.582031-8-8s3.582031-8 8-8h32c4.417969 0 8 3.582031 8 8s-3.582031 8-8 8zm0 0" fill="#39519d"/><path d="m144 96h-64c-4.417969 0-8-3.582031-8-8s3.582031-8 8-8h64c4.417969 0 8 3.582031 8 8s-3.582031 8-8 8zm0 0" fill="#39519d"/><path d="m0 376h24v88h-24zm0 0" fill="#a1d51c"/><path d="m80 408h24v56h-24zm0 0" fill="#fcbc04"/><path d="m160 432h24v32h-24zm0 0" fill="#a1d51c"/></svg>