<?xml version="1.0" encoding="utf-8"?>
<!-- Generator: Adobe Illustrator 21.0.0, SVG Export Plug-In . SVG Version: 6.00 Build 0)  -->
<svg version="1.1" id="Layer_1" xmlns="http://www.w3.org/2000/svg" xmlns:xlink="http://www.w3.org/1999/xlink" x="0px" y="0px"
	 viewBox="0 0 291.3 61.2" style="enable-background:new 0 0 291.3 61.2;" xml:space="preserve">
<style type="text/css">
	.st0{fill:#F96EC1;}
	.st1{fill:#DB5A9A;}
	.st2{fill:#FFFFFF;}
	.st3{fill:none;stroke:#EF186B;stroke-width:0.13;stroke-miterlimit:10;}
	.st4{fill:none;stroke:#FFFFFF;stroke-width:0.61;stroke-linecap:round;stroke-linejoin:round;}
	.st5{fill:none;stroke:#EF186B;stroke-width:0.14;stroke-miterlimit:10;}
	.st6{fill:none;stroke:#FFFFFF;stroke-width:0.97;stroke-miterlimit:10;}
	.st7{fill:none;stroke:#FFFFFF;stroke-width:0.69;stroke-linecap:round;stroke-linejoin:round;}
	.st8{fill:none;stroke:#FFFFFF;stroke-width:2.77;stroke-linecap:round;stroke-linejoin:round;}
</style>
<title>Full Syllabus Upcoming</title>
<path class="st0" d="M16.3,7.7c3.5-1.1,7.2-1.6,10.9-1.5h239.9c11.8,0.1,21.5,8.4,22.9,19.2v0.2c0.1,0.7,0,26.2,0,34.4
	c0,0.2-0.2,0.4-0.4,0.4c-0.1,0-0.3-0.1-0.3-0.2c-1.5-3.3-5-8.9-16.4-11c-0.3,0-1.8-0.2-1.8-0.2c-3.9-0.4-16.2-0.6-29.4-0.6
	c-9.2,0-16.9,0.1-16.9,0.1h-2.4c-0.8,0-1.6,0-2.4-0.1l0,0c-9.3,0-125.9,0.1-166.1,0.1H31.3c-19,0-28.8-9.8-28.8-21.9v-1.2
	C2.5,17.4,7,10.6,16.3,7.7z"/>
<path class="st1" d="M14.9,2.9c3.6-1.1,7.3-1.6,11-1.6H267c11.2,0,20.8,8,22.8,18.9c0.1,0.8,0.2,1.6,0.2,2.4c0,5.7,0,29.6,0,37.3
	c0,0.2-0.1,0.3-0.3,0.3c-0.1,0-0.3-0.1-0.3-0.2c-1.3-3.9-5.2-11.3-17.1-13.6l-1.4-0.2c-3.9-0.4-16.2-0.6-29.6-0.6
	c-9.3,0-17,0.1-17,0.1H222c-0.8,0-1.6,0-2.4-0.1l0,0c-9.3,0-126.5,0.1-166.9,0.1H30c-19.1,0-29-10.3-29-23v-1.2
	C1,13.2,5.5,6,14.9,2.9z"/>
<path class="st2" d="M88.6,24.2c-0.6-0.2-1.2-0.5-1.6-1c-0.4-0.4-0.6-1-0.6-1.5c0-1.2,1-2.2,2.2-2.2c0.6,0,1.1,0.2,1.5,0.6
	c0.3,0.3,0.5,0.7,0.6,1.2l-1.1,0.4c-0.1-0.3-0.2-0.5-0.4-0.7c-0.4-0.4-1-0.4-1.4,0c-0.2,0.2-0.3,0.4-0.3,0.7c0,0.3,0.1,0.5,0.3,0.7
	c0.3,0.2,0.6,0.4,0.9,0.6c0.7,0.2,1.3,0.6,1.9,1.1s0.9,1.3,0.9,2.1c0,1.6-1.3,2.9-2.9,2.9c-0.8,0-1.5-0.3-2.1-0.9
	c-0.5-0.5-0.8-1.2-0.9-1.9l1.2-0.5c0,0.5,0.2,1.1,0.5,1.5c0.7,0.6,1.8,0.6,2.4-0.1s0.6-1.7,0-2.3C89.4,24.6,89,24.3,88.6,24.2z"/>
<path class="st2" d="M95.2,29.1c-0.7,0-1.3-0.2-1.8-0.7s-0.7-1.1-0.7-1.7V23h1.2v3.6c0,0.3,0.1,0.7,0.4,0.9c0.3,0.3,0.6,0.4,0.9,0.4
	s0.7-0.1,0.9-0.4c0.2-0.2,0.4-0.6,0.4-0.9V23h1.2v3.7C97.7,28,96.7,29.1,95.2,29.1C95.3,29.1,95.2,29.1,95.2,29.1L95.2,29.1z"/>
<path class="st2" d="M104.7,23.4V23h1.2v4.5c0.1,1-0.3,2-1,2.7c-1.4,1.1-3.4,1.1-4.7,0c-0.2-0.3-0.4-0.5-0.6-0.8l1.2-0.4l0.3,0.4
	c0.4,0.4,0.9,0.6,1.5,0.6c1,0,1.6-0.6,2-1.9c-0.4,0.7-1.2,1.2-2,1.1c-0.9,0-1.7-0.3-2.4-1c-0.6-0.6-1-1.4-1-2.3
	c0-1.8,1.5-3.3,3.3-3.3c0.1,0,0.1,0,0.2,0C103.4,22.5,104.2,22.8,104.7,23.4z M104.7,25.4c-0.1-0.4-0.3-0.7-0.6-1
	c-0.8-0.8-2.2-0.8-3,0s-0.8,2.2,0,3s2.1,0.8,2.9,0c0.3-0.3,0.5-0.6,0.6-1L104.7,25.4L104.7,25.4z"/>
<path class="st2" d="M112.9,23.4V23h1.2v4.5c0.1,1-0.3,2-1,2.7c-1.4,1.1-3.4,1.1-4.7,0c-0.2-0.3-0.4-0.5-0.6-0.8L109,29l0.3,0.4
	c0.4,0.4,0.9,0.6,1.5,0.6c1,0,1.6-0.6,2-1.9c-0.4,0.7-1.2,1.2-2,1.1c-0.9,0-1.7-0.3-2.4-1c-0.6-0.6-1-1.4-1-2.3
	c0-1.8,1.5-3.3,3.3-3.3l0,0C111.6,22.4,112.4,22.7,112.9,23.4z M112.9,25.4c-0.1-0.4-0.3-0.7-0.6-1c-0.8-0.8-2.2-0.8-3,0
	s-0.8,2.2,0,3s2.1,0.8,2.9,0c0.3-0.3,0.5-0.6,0.6-1L112.9,25.4L112.9,25.4z"/>
<path class="st2" d="M117.8,27.6c0.3,0.2,0.7,0.3,1.1,0.3c0.6,0,1.1-0.2,1.5-0.6l0.3-0.4l1.2,0.4c-0.2,0.3-0.4,0.6-0.6,0.8
	c-1.3,1.3-3.4,1.3-4.7,0c-1.3-1.3-1.3-3.4,0-4.7c1.2-1.2,3.1-1.3,4.4-0.3l0.3,0.3l0.3,0.4l-0.6,0.6L117.8,27.6z M119.8,23.9
	c-0.3-0.1-0.6-0.2-0.9-0.2c-1.2,0-2.1,0.9-2.1,2.1c0,0.3,0,0.6,0.2,0.9L119.8,23.9z"/>
<path class="st2" d="M124.5,27.7c0.1,0.1,0.3,0.2,0.5,0.2c0.4,0,0.7-0.3,0.7-0.7l0,0c0-0.2-0.1-0.4-0.2-0.5
	c-0.2-0.2-0.4-0.3-0.6-0.5c-0.3-0.2-0.6-0.4-0.9-0.6c-0.3-0.3-0.5-0.7-0.5-1.1c0-0.9,0.7-1.6,1.6-1.6c0.4,0,0.8,0.2,1.1,0.5
	c0.2,0.2,0.3,0.4,0.4,0.7l-1.2,0.3c0-0.1,0-0.1-0.1-0.2s-0.2-0.1-0.3-0.1c-0.2,0-0.4,0.2-0.4,0.4l0,0c0,0.1,0,0.2,0.1,0.3
	c0.2,0.1,0.3,0.3,0.5,0.4c0.4,0.2,0.7,0.4,1,0.7c0.8,0.7,0.9,1.9,0.2,2.7c-0.7,0.8-1.9,0.9-2.7,0.2c-0.1-0.1-0.1-0.1-0.2-0.2
	c-0.3-0.3-0.5-0.6-0.5-1l1.2-0.3C124.4,27.4,124.4,27.6,124.5,27.7z"/>
<path class="st2" d="M129.3,22.9v-2.3h1.2v2.3h1.1v1.2h-1.1V29h-1.2v-4.8h-1.1V23h1.1V22.9z"/>
<path class="st2" d="M134.3,20.7c0.3,0.3,0.3,0.9,0,1.2l0,0c-0.3,0.3-0.9,0.3-1.2,0s-0.3-0.9,0-1.2l0,0
	C133.5,20.4,134,20.4,134.3,20.7z M134.3,22.9v6h-1.2v-6H134.3z"/>
<path class="st2" d="M139.2,22.4c1.8,0,3.4,1.5,3.4,3.3s-1.5,3.4-3.3,3.4s-3.4-1.5-3.4-3.3c0-0.9,0.3-1.7,1-2.4
	C137.4,22.8,138.3,22.4,139.2,22.4z M137.7,24.3c-0.8,0.8-0.8,2.1,0,3c0.8,0.8,2.1,0.8,3,0c0.8-0.8,0.8-2.1,0-3
	c-0.4-0.4-0.9-0.6-1.5-0.6C138.6,23.7,138.1,23.9,137.7,24.3z"/>
<path class="st2" d="M145.1,24.6V29h-1.2v-6h1.2v0.7c0.2-0.6,0.9-1.1,1.5-1c0.6,0,1.2,0.2,1.6,0.7c0.4,0.5,0.6,1.1,0.6,1.7V29h-1.2
	v-3.9c0-0.3-0.1-0.7-0.4-0.9c-0.5-0.5-1.3-0.5-1.8,0C145.3,24.3,145.2,24.4,145.1,24.6z"/>
<path class="st2" d="M151.8,27.7c0.1,0.1,0.3,0.2,0.5,0.2c0.4,0,0.7-0.3,0.7-0.7c0-0.2-0.1-0.4-0.2-0.5c-0.2-0.2-0.4-0.3-0.6-0.5
	c-0.3-0.2-0.6-0.4-0.9-0.6c-0.3-0.3-0.5-0.7-0.5-1.1c0-0.9,0.7-1.6,1.6-1.6c0.4,0,0.8,0.2,1.1,0.5c0.2,0.2,0.3,0.4,0.4,0.7l-1.2,0.3
	c0-0.1,0-0.1-0.1-0.2s-0.2-0.1-0.3-0.1c-0.2,0-0.4,0.2-0.4,0.4c0,0.1,0,0.2,0.1,0.3c0.2,0.1,0.3,0.3,0.5,0.4
	c0.4,0.2,0.7,0.4,1.1,0.7c0.8,0.7,0.9,1.9,0.1,2.7c-0.7,0.8-1.9,0.9-2.7,0.1l-0.1-0.1c-0.3-0.3-0.5-0.6-0.5-1l1.2-0.3
	C151.7,27.4,151.7,27.6,151.8,27.7z"/>
<path class="st2" d="M165.1,23.4V23h1.2v6h-1.2v-0.8c-0.5,0.6-1.2,0.9-2,0.9c-1.8,0-3.3-1.5-3.3-3.3s1.5-3.3,3.3-3.3
	C163.9,22.4,164.6,22.8,165.1,23.4z M165.1,26.2v-0.9c-0.1-0.4-0.3-0.7-0.6-1c-0.8-0.8-2.2-0.8-3,0s-0.8,2.2,0,3s2.1,0.8,2.9,0
	C164.9,27,165.1,26.7,165.1,26.2z"/>
<path class="st2" d="M169.3,23.8c0.4-0.6,1-1,1.7-1V24c-0.4,0-0.8,0.2-1.1,0.4c-0.4,0.4-0.6,0.9-0.6,1.4V29h-1.2v-6h1.2L169.3,23.8
	L169.3,23.8z"/>
<path class="st2" d="M174,27.6c0.3,0.2,0.7,0.3,1.1,0.3c0.6,0,1.1-0.2,1.5-0.6l0.3-0.4l1.2,0.4c-0.2,0.3-0.4,0.6-0.6,0.8
	c-1.3,1.3-3.4,1.3-4.7,0s-1.3-3.4,0-4.7c1.2-1.2,3.1-1.3,4.4-0.3l0.3,0.3l0.3,0.4l-0.6,0.6L174,27.6z M176,23.9
	c-0.3-0.1-0.6-0.2-0.9-0.2c-1.2,0-2.1,0.9-2.1,2.1c0,0.3,0,0.6,0.2,0.9L176,23.9z"/>
<path class="st2" d="M187,27.2v-7.6h1.2v7.6c0.1,0.1,0.1,0.2,0.2,0.3c0.2,0.2,0.6,0.4,0.9,0.4c0.3,0,0.7-0.1,0.9-0.4
	c0.2-0.2,0.4-0.6,0.4-0.9v-7h1.2v7c0,1.4-1.1,2.4-2.5,2.4c-0.6,0-1.3-0.2-1.7-0.7c-0.4,0.5-1.1,0.7-1.7,0.7c-0.7,0-1.3-0.3-1.8-0.7
	c-0.5-0.4-0.7-1.1-0.7-1.7v-7h1.2v7c0,0.3,0.1,0.7,0.4,0.9c0.5,0.5,1.3,0.5,1.8,0C186.9,27.4,186.9,27.3,187,27.2z"/>
<path class="st2" d="M194.9,27.6c0.3,0.2,0.7,0.3,1.1,0.3c0.6,0,1.1-0.2,1.5-0.6l0.3-0.4l1.2,0.4c-0.2,0.3-0.4,0.6-0.6,0.8
	c-1.3,1.3-3.4,1.3-4.7,0s-1.3-3.4,0-4.7c1.2-1.2,3.1-1.3,4.4-0.3l0.3,0.3l0.3,0.4l-0.6,0.6L194.9,27.6z M196.9,23.9
	c-0.3-0.1-0.6-0.2-0.9-0.2c-1.2,0-2.1,0.9-2.1,2.1c0,0.3,0,0.6,0.2,0.9L196.9,23.9z"/>
<path class="st2" d="M201.6,19.6V29h-1.2v-9.4H201.6z"/>
<path class="st2" d="M208.1,26.9l1.2,0.4c-0.2,0.3-0.4,0.6-0.6,0.8c-1.3,1.3-3.4,1.3-4.7,0s-1.3-3.4,0-4.7s3.4-1.3,4.7,0l0,0
	c0.2,0.3,0.4,0.5,0.6,0.8l-1.2,0.5l-0.3-0.4c-0.8-0.8-2.2-0.8-3,0s-0.8,2.2,0,3s2.1,0.8,2.9,0L208.1,26.9z"/>
<path class="st2" d="M213.7,22.4c1.8,0,3.4,1.5,3.4,3.3s-1.5,3.4-3.3,3.4s-3.4-1.5-3.4-3.3c0-0.9,0.3-1.7,1-2.4
	C212,22.8,212.8,22.4,213.7,22.4z M212.3,24.3c-0.8,0.8-0.8,2.1,0,3c0.8,0.8,2.1,0.8,3,0c0.8-0.8,0.8-2.1,0-3
	c-0.4-0.4-0.9-0.6-1.5-0.6C213.2,23.7,212.6,23.9,212.3,24.3L212.3,24.3z"/>
<path class="st2" d="M218.5,22.9h1.2v0.6c0.2-0.6,0.8-0.9,1.4-0.9c0.5-0.1,1,0.3,1.1,0.9v0.1c0.2-0.7,0.9-1.1,1.6-1
	c0.9,0,1.3,0.5,1.3,1.5V29h-1.2v-4.3c0-0.6-0.2-0.9-0.7-0.9c-0.2,0-0.4,0.1-0.5,0.2s-0.2,0.6-0.2,1.4V29h-1.2v-4.2
	c0-0.6-0.2-0.9-0.7-0.9c-0.2,0-0.4,0.1-0.5,0.2c-0.2,0.3-0.3,0.7-0.2,1v4h-1.2v-6.2H218.5z"/>
<path class="st2" d="M228.7,27.6c0.3,0.2,0.7,0.3,1.1,0.3c0.6,0,1.1-0.2,1.5-0.6l0.3-0.4l1.2,0.4c-0.2,0.3-0.4,0.6-0.6,0.8
	c-1.3,1.3-3.4,1.3-4.7,0s-1.3-3.4,0-4.7c1.2-1.2,3.1-1.3,4.4-0.3l0.3,0.3l0.3,0.4l-0.6,0.6L228.7,27.6z M230.7,23.8
	c-0.3-0.1-0.6-0.2-0.9-0.2c-1.2,0-2.1,0.9-2.1,2.1l0,0c0,0.3,0,0.6,0.2,0.9L230.7,23.8z"/>
<path class="st2" d="M239.5,27.6c0.2,0.2,0.3,0.4,0.3,0.6c0,0.5-0.4,0.9-0.8,0.9c-0.5,0-0.9-0.4-0.9-0.8l0,0c0-0.2,0.1-0.4,0.3-0.6
	C238.6,27.3,239.2,27.3,239.5,27.6z"/>
<path class="st2" d="M246.1,27.6c0.2,0.2,0.3,0.4,0.3,0.6c0,0.5-0.4,0.9-0.8,0.9c-0.5,0-0.9-0.4-0.9-0.8l0,0c0-0.2,0.1-0.4,0.3-0.6
	C245.2,27.3,245.8,27.3,246.1,27.6z"/>
<path class="st2" d="M252.7,27.6c0.2,0.2,0.3,0.4,0.3,0.6c0,0.5-0.4,0.9-0.8,0.9c-0.5,0-0.9-0.4-0.9-0.8l0,0c0-0.2,0.1-0.4,0.3-0.6
	C251.8,27.3,252.3,27.3,252.7,27.6z"/>
<path class="st3" d="M47.7,21.7"/>
<path class="st3" d="M47.1,13"/>
<line class="st4" x1="58.7" y1="7.4" x2="58.7" y2="35.6"/>
<path class="st5" d="M42,20.4"/>
<path class="st6" d="M40.5,19.3c-0.4,0.5-0.8,1-1.3,1.5L39.1,21"/>
<polygon class="st2" points="39,19.6 39.3,20.8 40.3,21.3 37.7,22.1 "/>
<path class="st5" d="M41.4,11.2"/>
<path class="st5" d="M37.8,6.7"/>
<path class="st7" d="M41.4,11.2c0.8,2.1,0.7,4.5-0.2,6.6"/>
<path class="st2" d="M48.5,24.5c-1.1-0.3-2.3,0-3.2,0.7l-10.5,6.3c-0.4,2-2.1,3.4-5.5,2.4L24,31.4v-1.3l5.9,2.7c1,0.5,2.1,0.3,3-0.3
	c1.2-1,1.3-2.9,0.2-4c-0.3-0.3-0.6-0.5-0.9-0.7l-7.8-3.6c-0.3-0.1-0.6-0.1-0.8-0.1L15.5,25c-0.6,0-1,0.4-1,1v9.9
	c0,0.6,0.5,1.1,1.1,1.1c0,0,0,0,0.1,0h5l11.5,4.5c0.4,0.1,0.8,0.1,1.2-0.2l15.1-11.4c1.1-0.7,1.8-1.8,1.9-3
	C50.4,25.7,49.6,24.7,48.5,24.5z"/>
<path class="st2" d="M34.3,28.4l7.7-3.7c0.8-0.3,1.7-0.3,2.5,0.1L35,30.5C34.8,29.8,34.6,29.1,34.3,28.4z"/>
<path class="st6" d="M25.2,9.5c0.3-0.5,0.6-0.9,1-1.4l0.4-0.3"/>
<polygon class="st2" points="26.7,9.2 26.3,8.1 25.3,7.5 27.9,6.7 "/>
<path class="st7" d="M36.1,22.8c-4.7,1.8-9.9-0.6-11.7-5.3c-0.8-2.1-0.8-4.4,0-6.5"/>
<path class="st7" d="M29.4,6c2.8-1.2,5.9-0.9,8.4,0.7"/>
<polyline class="st8" points="28.9,13.6 33,18.6 42.2,5.3 "/>
</svg>
