<svg id="Layer_1" data-name="Layer 1" xmlns="http://www.w3.org/2000/svg" xmlns:xlink="http://www.w3.org/1999/xlink" viewBox="0 0 224.89 234.56"><defs><style>.cls-1{stroke:#333;fill:url(#linear-gradient);}.cls-1,.cls-2,.cls-5{stroke-miterlimit:10;stroke-width:0.75px;}.cls-2,.cls-3{fill:#fff;}.cls-2{stroke:#4d4d4d;}.cls-4{fill:#666;}.cls-5{fill:#b7b2b7;stroke:#000;}.cls-6{fill:#fff3f3;opacity:0.44;}</style><linearGradient id="linear-gradient" x1="123.77" y1="209.07" x2="87.25" y2="1.95" gradientUnits="userSpaceOnUse"><stop offset="0" stop-color="#fff"/><stop offset="1" stop-color="#666"/></linearGradient></defs><title>appointment-missed-GRAY</title><circle class="cls-1" cx="105.51" cy="105.51" r="105.14"/><circle class="cls-2" cx="105.51" cy="105.51" r="72.04"/><path class="cls-3" d="M207.9,114.13c-.13-112.1-168.15-111.93-168,0H26.55c.13-129.35,194-129.18,193.9,0Z" transform="translate(-17.17 -5.91)"/><rect x="101.37" y="37.77" width="5.83" height="69.75"/><rect x="104.22" y="102.42" width="6.51" height="39.05" transform="translate(124.55 -42.87) rotate(53.55)"/><rect class="cls-4" x="71.68" y="68.87" width="8.01" height="7.01" transform="translate(-46 73.1) rotate(-47.36)"/><rect class="cls-4" x="86.7" y="54.85" width="8.01" height="7.01" transform="translate(-33.16 68.25) rotate(-41.19)"/><rect class="cls-4" x="104.72" y="45.84" width="8.01" height="7.01" transform="translate(-27.58 35.56) rotate(-20.63)"/><rect class="cls-4" x="132.26" y="45.34" width="7.01" height="8.01" transform="translate(46.08 168.37) rotate(-79.85)"/><rect class="cls-4" x="151.28" y="53.41" width="7.01" height="8.01" transform="translate(10.5 156.84) rotate(-60)"/><rect class="cls-4" x="167.3" y="68.37" width="7.01" height="8.01" transform="matrix(0.74, -0.67, 0.67, 0.74, -21.37, 127.98)"/><rect class="cls-4" x="177.31" y="85.39" width="7.01" height="8.01" transform="translate(-37.87 74.77) rotate(-23.83)"/><rect class="cls-4" x="180.32" y="107.42" width="7.01" height="8.01" transform="translate(-21.11 0.87) rotate(-2.09)"/><rect class="cls-4" x="177.87" y="132.23" width="8.01" height="7.01" transform="translate(-25.24 254.01) rotate(-69.91)"/><rect class="cls-4" x="60.97" y="128.93" width="7.01" height="8.01" transform="translate(-69.24 36.22) rotate(-26.2)"/><rect class="cls-4" x="71.41" y="146.62" width="7.01" height="8.01" transform="translate(-86.18 57.61) rotate(-32.37)"/><rect class="cls-4" x="86.15" y="160.37" width="7.01" height="8.01" transform="translate(-112.71 130.91) rotate(-52.93)"/><rect class="cls-4" x="60.66" y="85.89" width="8.01" height="7.01" transform="translate(-58.12 115.39) rotate(-70.93)"/><rect class="cls-4" x="57.16" y="107.42" width="7.01" height="8.01" transform="translate(-21.2 -3.63) rotate(-2.09)"/><polygon class="cls-5" points="135.61 83.05 179.92 158.62 224.23 234.18 135.61 234.18 47 234.18 91.31 158.62 135.61 83.05"/><path d="M149.88,205.57a5.74,5.74,0,0,1,4,1.43,5.27,5.27,0,0,1,1.56,4.09,4.07,4.07,0,0,1-1.56,3.2,5.43,5.43,0,0,1-3.64,1.33,5.16,5.16,0,0,1-3.69-1.62,5,5,0,0,1-1.66-3.59,4.56,4.56,0,0,1,1.48-3.4A4.84,4.84,0,0,1,149.88,205.57Zm-4.65-57.9a4.23,4.23,0,0,1,1.43-3.18,5.06,5.06,0,0,1,3.61-1.35,4.3,4.3,0,0,1,3.41,1.55,5.07,5.07,0,0,1,1.34,3.37q0,4.53-1,21.76t-1.14,20.66a20.58,20.58,0,0,1-.59,4.8,2.05,2.05,0,0,1-2.23,1.38q-2.08,0-2.23-2.71Z" transform="translate(-17.17 -5.91)"/><path class="cls-6" d="M199.34,184.86l-49-86.95L71.17,235.09S136.08,150.65,199.34,184.86Z" transform="translate(-17.17 -5.91)"/></svg>