<?xml version="1.0" encoding="utf-8"?>
<!-- Generator: Adobe Illustrator 21.0.0, SVG Export Plug-In . SVG Version: 6.00 Build 0)  -->
<svg version="1.1" id="Layer_1" xmlns="http://www.w3.org/2000/svg" xmlns:xlink="http://www.w3.org/1999/xlink" x="0px" y="0px"
	 viewBox="0 0 291.5 61" style="enable-background:new 0 0 291.5 61;" xml:space="preserve">
<style type="text/css">
	.st0{fill:#85A03C;}
	.st1{fill:#AAC66D;}
	.st2{fill:#FFFFFF;}
	.st3{fill:none;stroke:#EF186B;stroke-width:0.13;stroke-miterlimit:10;}
	.st4{fill:none;stroke:#FFFFFF;stroke-width:0.61;stroke-linecap:round;stroke-linejoin:round;}
	.st5{fill:none;stroke:#EF186B;stroke-width:0.14;stroke-miterlimit:10;}
	.st6{fill:none;stroke:#FFFFFF;stroke-width:0.97;stroke-miterlimit:10;}
	.st7{fill:none;stroke:#FFFFFF;stroke-width:0.69;stroke-linecap:round;stroke-linejoin:round;}
	.st8{fill:none;stroke:#FFFFFF;stroke-width:2.77;stroke-linecap:round;stroke-linejoin:round;}
</style>
<title>Mock Upcoming</title>
<path class="st0" d="M16.5,7.7c3.5-1.1,7.2-1.6,10.9-1.5h239.9c11.8,0.1,21.5,8.4,22.9,19.2v0.2c0.1,0.7,0,26.2,0,34.4
	c0,0.2-0.2,0.4-0.4,0.4c-0.1,0-0.3-0.1-0.3-0.2c-1.5-3.3-5-8.9-16.4-11c-0.3,0-1.8-0.2-1.8-0.2c-3.9-0.4-16.2-0.6-29.4-0.6
	c-9.2,0-16.9,0.1-16.9,0.1h-2.4c-0.8,0-1.6,0-2.4-0.1l0,0c-9.3,0-125.9,0.1-166.1,0.1H31.5c-19,0-28.8-9.8-28.8-21.9v-1.2
	C2.7,17.5,7.2,10.7,16.5,7.7z"/>
<path class="st1" d="M15.1,3c3.6-1.1,7.3-1.6,11-1.6h241.1c11.2,0,20.8,8,22.8,18.9c0.1,0.8,0.2,1.6,0.2,2.4c0,5.7,0,29.6,0,37.3
	c0,0.2-0.1,0.3-0.3,0.3c-0.1,0-0.3-0.1-0.3-0.2c-1.3-3.9-5.2-11.3-17.1-13.6l-1.4-0.2c-3.9-0.4-16.2-0.6-29.6-0.6
	c-9.3,0-17,0.1-17,0.1h-2.4c-0.8,0-1.6,0-2.4-0.1l0,0c-9.3,0-126.5,0.1-166.9,0.1H30.2c-19.1,0-29-10.3-29-23v-1.2
	C1.2,13.2,5.7,6,15.1,3z"/>
<path class="st2" d="M77.4,24.8c-0.7-0.2-1.3-0.5-1.8-1c-0.4-0.4-0.7-0.9-0.7-1.5s0.3-1.2,0.7-1.5c1-0.9,2.5-0.9,3.4,0
	c0.3,0.3,0.5,0.7,0.7,1.2l-1.2,0.4c-0.1-0.3-0.2-0.5-0.4-0.7c-0.4-0.4-1.1-0.4-1.5,0c-0.4,0.3-0.4,0.9-0.1,1.3l0.1,0.1
	c0.3,0.2,0.6,0.4,1,0.6c0.8,0.2,1.5,0.6,2.1,1.1s1,1.3,1,2.1c0,0.8-0.4,1.6-1,2.1c-1.3,1.1-3.3,1.1-4.6,0c-0.5-0.5-0.9-1.2-1-1.9
	l1.3-0.4c0,0.5,0.2,1.1,0.6,1.5c0.8,0.8,2,0.8,2.8,0.1c0.7-0.6,0.7-1.6,0.2-2.3c-0.1-0.1-0.1-0.1-0.2-0.2
	C78.4,25.3,77.9,25,77.4,24.8z"/>
<path class="st2" d="M84.8,29.7c-0.7,0-1.4-0.2-2-0.7c-0.5-0.4-0.8-1.1-0.8-1.8v-3.7h1.3v3.6c0,0.3,0.2,0.7,0.4,0.9
	c0.3,0.3,0.7,0.4,1.1,0.4s0.7-0.1,1-0.4c0.3-0.2,0.4-0.6,0.4-0.9v-3.6h1.3v3.7c0,0.7-0.3,1.3-0.8,1.8C86.2,29.5,85.5,29.7,84.8,29.7
	z"/>
<path class="st2" d="M95.3,24v-0.4h1.3V28c0.1,1-0.3,2-1.1,2.7c-1.6,1.2-3.7,1.2-5.2,0c-0.3-0.3-0.5-0.5-0.7-0.8l1.3-0.4l0.3,0.4
	c0.4,0.4,1,0.6,1.6,0.6c1.1,0,2-0.8,2.2-1.9c-0.4,0.8-1.3,1.2-2.2,1.1c-1,0-1.9-0.3-2.6-1c-0.7-0.6-1.1-1.4-1.1-2.3s0.4-1.8,1.1-2.4
	c0.7-0.7,1.6-1,2.6-1C93.9,23.1,94.7,23.4,95.3,24z M95.3,26c-0.1-0.4-0.3-0.7-0.6-1c-0.9-0.8-2.3-0.8-3.3,0
	c-0.8,0.7-0.9,1.9-0.3,2.7c0.1,0.1,0.2,0.2,0.3,0.3c0.9,0.8,2.3,0.8,3.3,0c0.3-0.3,0.5-0.6,0.6-1V26z"/>
<path class="st2" d="M104.4,24v-0.4h1.3V28c0.1,1-0.3,2-1.1,2.7c-1.6,1.2-3.7,1.2-5.2,0c-0.3-0.3-0.5-0.5-0.7-0.8l1.3-0.4l0.3,0.4
	c0.4,0.4,1,0.6,1.6,0.6c1.1,0,2-0.8,2.2-1.9c-0.4,0.8-1.3,1.2-2.2,1.1c-1,0-1.9-0.3-2.6-1c-0.7-0.6-1.1-1.4-1.1-2.3s0.4-1.8,1.1-2.4
	c0.7-0.7,1.6-1,2.6-1C103,23.1,103.8,23.4,104.4,24z M104.4,26c-0.1-0.4-0.3-0.7-0.6-1c-0.9-0.8-2.3-0.8-3.3,0
	c-0.8,0.7-0.9,1.9-0.3,2.7c0.1,0.1,0.2,0.2,0.3,0.3c0.9,0.8,2.3,0.8,3.3,0c0.3-0.3,0.5-0.6,0.6-1V26z"/>
<path class="st2" d="M109.8,28.2c0.4,0.2,0.8,0.3,1.2,0.3c0.6,0,1.2-0.2,1.6-0.6l0.3-0.4l1.3,0.4c-0.2,0.3-0.5,0.6-0.7,0.8
	c-1.5,1.3-3.7,1.3-5.2,0c-1.3-1.1-1.5-3.1-0.3-4.4c0.1-0.1,0.2-0.2,0.3-0.3c0.7-0.7,1.6-1,2.6-1c0.8,0,1.6,0.2,2.3,0.7l0.3,0.3
	l0.4,0.4l-0.7,0.6L109.8,28.2z M112.1,24.5c-0.3-0.1-0.7-0.2-1-0.2c-0.6,0-1.2,0.2-1.6,0.6s-0.7,0.9-0.7,1.5c0,0.3,0,0.6,0.2,0.9
	L112.1,24.5z"/>
<path class="st2" d="M117.3,28.3c0.2,0.1,0.4,0.2,0.6,0.2s0.4-0.1,0.6-0.2s0.2-0.3,0.2-0.5s-0.1-0.4-0.2-0.5
	c-0.2-0.2-0.4-0.3-0.7-0.5c-0.4-0.2-0.7-0.4-1-0.6c-0.6-0.6-0.7-1.5-0.2-2.2c0-0.1,0.1-0.1,0.2-0.2c0.4-0.3,0.8-0.5,1.3-0.5
	s0.9,0.2,1.3,0.5c0.2,0.2,0.4,0.4,0.4,0.7l-1.3,0.3c0-0.1,0-0.1-0.1-0.2s-0.2-0.1-0.3-0.1c-0.1,0-0.2,0-0.3,0.1
	c-0.1,0.1-0.1,0.2-0.1,0.3c0,0.1,0.1,0.2,0.1,0.3c0.2,0.1,0.4,0.3,0.6,0.4c0.4,0.2,0.8,0.4,1.2,0.7c0.8,0.7,0.8,1.8,0.2,2.6
	c-0.1,0.1-0.1,0.1-0.2,0.2c-0.9,0.7-2.1,0.7-3,0c-0.3-0.3-0.5-0.6-0.6-1l1.3-0.3C117.2,28.1,117.2,28.2,117.3,28.3z"/>
<path class="st2" d="M122.6,23.6v-2.3h1.3v2.3h1.2v1.2h-1.2v4.8h-1.3v-4.8h-1.2v-1.2C121.4,23.6,122.6,23.6,122.6,23.6z"/>
<path class="st2" d="M133.9,24.8c-0.7-0.2-1.3-0.5-1.8-1c-0.4-0.4-0.7-0.9-0.7-1.5s0.3-1.2,0.7-1.5c1-0.9,2.5-0.9,3.4,0
	c0.3,0.3,0.6,0.7,0.7,1.1l-1.2,0.4c-0.1-0.3-0.2-0.5-0.4-0.7c-0.4-0.4-1.1-0.4-1.5,0c-0.4,0.3-0.4,0.9-0.1,1.3l0.1,0.1
	c0.3,0.2,0.6,0.4,1,0.6c0.8,0.2,1.5,0.6,2.1,1.1s1,1.3,1,2.1c0,0.8-0.4,1.6-1,2.1c-1.3,1.1-3.3,1.1-4.6,0c-0.5-0.5-0.9-1.2-1-1.9
	l1.3-0.4c0,0.5,0.2,1.1,0.6,1.5c0.8,0.7,1.9,0.7,2.7,0c0.7-0.6,0.7-1.6,0.2-2.3c-0.1-0.1-0.1-0.1-0.2-0.2
	C134.9,25.2,134.4,25,133.9,24.8z"/>
<path class="st2" d="M140.1,31.6h-1.4l1.8-3.4l-2.5-4.7h1.5l1.7,3.3l1.7-3.3h1.5L140.1,31.6z"/>
<path class="st2" d="M147.2,20.2v9.4h-1.4v-9.4H147.2z"/>
<path class="st2" d="M150.5,20.2v9.4h-1.4v-9.4H150.5z"/>
<path class="st2" d="M158.3,24v-0.4h1.4v6h-1.4v-0.8c-0.6,0.6-1.4,0.9-2.3,0.9c-1,0-1.9-0.3-2.6-1c-1.3-1.1-1.5-3.1-0.3-4.4
	c0.1-0.1,0.2-0.2,0.3-0.3c0.7-0.7,1.7-1,2.6-1C156.9,23.1,157.7,23.4,158.3,24z M158.3,26.9V26c-0.1-0.4-0.3-0.7-0.6-1
	c-0.9-0.8-2.3-0.8-3.3,0c-0.8,0.7-0.9,1.9-0.3,2.7c0.1,0.1,0.2,0.2,0.3,0.3c0.9,0.8,2.3,0.8,3.3,0C158,27.7,158.2,27.3,158.3,26.9
	L158.3,26.9z"/>
<path class="st2" d="M162.9,28.9v0.8h-1.3v-9.4h1.3V24c0.6-0.6,1.4-0.9,2.3-0.9c0.9,0,1.8,0.3,2.6,0.9c1.3,1.1,1.4,3.1,0.3,4.4
	c-0.1,0.1-0.2,0.2-0.3,0.3c-0.7,0.7-1.7,1-2.6,1C164.3,29.8,163.5,29.4,162.9,28.9z M162.9,26v0.9c0.1,0.4,0.3,0.7,0.6,1
	c0.9,0.8,2.3,0.8,3.3,0c0.8-0.7,0.9-1.9,0.3-2.7c-0.1-0.1-0.2-0.2-0.3-0.3c-0.9-0.8-2.3-0.8-3.3,0C163.3,25.2,163,25.5,162.9,26z"/>
<path class="st2" d="M173.5,29.7c-0.7,0-1.4-0.2-2-0.7c-0.5-0.4-0.8-1.1-0.8-1.8v-3.7h1.4v3.6c0,0.3,0.2,0.7,0.4,0.9
	c0.3,0.3,0.7,0.4,1.1,0.4c0.4,0,0.7-0.1,1-0.4c0.3-0.2,0.4-0.6,0.4-0.9v-3.6h1.3v3.7c0,0.7-0.3,1.3-0.8,1.8
	C174.9,29.5,174.2,29.7,173.5,29.7z"/>
<path class="st2" d="M179.5,28.3c0.2,0.1,0.4,0.2,0.6,0.2c0.2,0,0.4-0.1,0.6-0.2c0.3-0.3,0.3-0.7,0-1l0,0c-0.2-0.2-0.5-0.3-0.7-0.5
	c-0.4-0.2-0.7-0.4-1-0.6c-0.6-0.6-0.7-1.5-0.2-2.2c0-0.1,0.1-0.1,0.2-0.2c0.4-0.3,0.8-0.5,1.3-0.5s0.9,0.2,1.3,0.5
	c0.2,0.2,0.4,0.4,0.5,0.7l-1.3,0.3c0-0.1,0-0.1-0.1-0.2s-0.2-0.1-0.3-0.1s-0.2,0-0.3,0.1c-0.2,0.1-0.2,0.4,0,0.6l0,0
	c0.2,0.1,0.4,0.3,0.6,0.4c0.4,0.2,0.8,0.4,1.2,0.7c0.8,0.7,0.8,1.8,0.2,2.6c-0.1,0.1-0.1,0.1-0.2,0.2c-0.9,0.7-2.1,0.7-3,0
	c-0.3-0.3-0.5-0.6-0.6-1l1.3-0.3C179.4,28.1,179.5,28.2,179.5,28.3z"/>
<path class="st2" d="M190.1,24.8v4.8h-1.4v-4.8h-0.6v-1.2h0.6v-1.1c0-0.5,0.3-1,0.6-1.3c0.4-0.3,0.9-0.5,1.4-0.5
	c0.4,0,0.8,0.1,1.2,0.3l-0.4,1.1c-0.2-0.1-0.5-0.2-0.7-0.2s-0.4,0.1-0.5,0.2s-0.2,0.3-0.2,0.5v1h1.2v1.2H190.1z"/>
<path class="st2" d="M195.8,23c1,0,1.9,0.3,2.6,1c1.3,1.1,1.4,3.1,0.3,4.4c-0.1,0.1-0.2,0.2-0.3,0.3c-1.5,1.3-3.7,1.3-5.2,0
	c-1.3-1.1-1.5-3.1-0.3-4.4c0.1-0.1,0.2-0.2,0.3-0.3C193.9,23.4,194.8,23,195.8,23z M194.1,24.9c-0.8,0.7-0.9,1.9-0.3,2.7
	c0.1,0.1,0.2,0.2,0.3,0.3c0.9,0.8,2.3,0.8,3.3,0c0.8-0.7,0.9-1.9,0.3-2.7c-0.1-0.1-0.2-0.2-0.3-0.3
	C196.5,24.1,195.1,24.1,194.1,24.9z"/>
<path class="st2" d="M202.4,24.4c0.4-0.6,1.1-1,1.9-1v1.3c-0.4,0-0.8,0.2-1.2,0.4c-0.4,0.3-0.7,0.9-0.7,1.4v3.1H201v-6h1.3
	L202.4,24.4z"/>
<path class="st2" d="M210.1,20.2h1.2l4.3,6.7v-6.7h1.4v9.4h-1.2l-4.4-6.8v6.8h-1.3V20.2z"/>
<path class="st2" d="M221,28.2c0.4,0.2,0.8,0.3,1.2,0.3c0.6,0,1.2-0.2,1.6-0.6l0.3-0.4l1.3,0.4c-0.2,0.3-0.5,0.6-0.7,0.8
	c-1.5,1.3-3.7,1.3-5.2,0c-1.3-1.1-1.5-3.1-0.3-4.4c0.1-0.1,0.2-0.2,0.3-0.3c0.7-0.7,1.6-1,2.6-1c0.8,0,1.6,0.2,2.3,0.7l0.3,0.3
	l0.4,0.4l-0.7,0.6L221,28.2z M223.3,24.5c-0.3-0.1-0.7-0.2-1-0.2c-0.6,0-1.2,0.2-1.6,0.6c-0.4,0.4-0.7,0.9-0.7,1.5
	c0,0.3,0,0.6,0.2,0.9L223.3,24.5z"/>
<path class="st2" d="M232,23.6l-1.8,2.8l2.1,3.3h-1.6l-1.3-2l-1.3,2h-1.6l2.1-3.3l-1.8-2.8h1.6l1,1.5l1-1.5H232z"/>
<path class="st2" d="M234.6,23.6v-2.3h1.3v2.3h1.2v1.2H236v4.8h-1.3v-4.8h-1.2v-1.2C233.5,23.6,234.6,23.6,234.6,23.6z"/>
<path class="st2" d="M248.9,20.2v1.2h-4.3v2.9h4.3v1.2h-4.3v2.9h4.3v1.2h-5.6v-9.4C243.3,20.2,248.9,20.2,248.9,20.2z"/>
<path class="st2" d="M255.6,23.6l-1.8,2.8l2.1,3.3h-1.5l-1.3-2l-1.3,2h-1.6l2.1-3.3l-1.8-2.8h1.6l1,1.5l1-1.5H255.6z"/>
<path class="st2" d="M263.2,24v-0.4h1.4v6h-1.4v-0.8c-0.6,0.6-1.4,0.9-2.3,0.9c-1,0-1.9-0.3-2.6-1c-1.3-1.1-1.5-3.1-0.3-4.4
	c0.1-0.1,0.2-0.2,0.3-0.3c0.7-0.7,1.7-1,2.6-1C261.8,23.1,262.6,23.4,263.2,24z M263.2,26.9V26c-0.1-0.4-0.3-0.7-0.6-1
	c-0.9-0.8-2.3-0.8-3.3,0c-0.8,0.7-0.9,1.9-0.3,2.7c0.1,0.1,0.2,0.2,0.3,0.3c0.9,0.8,2.3,0.8,3.3,0C262.9,27.7,263.2,27.3,263.2,26.9
	L263.2,26.9z"/>
<path class="st2" d="M266.5,23.6h1.3v0.6c0.3-0.6,0.9-0.9,1.5-0.9c0.6-0.1,1.1,0.3,1.2,0.9c0,0,0,0,0,0.1c0.2-0.7,0.8-1,1.8-1
	s1.4,0.5,1.4,1.5v4.8h-1.4v-4.2c0-0.6-0.3-0.9-0.8-0.9c-0.2,0-0.4,0.1-0.6,0.2s-0.2,0.6-0.2,1.4v3.5h-1.4v-4.2
	c0-0.6-0.3-0.9-0.8-0.9c-0.2,0-0.4,0.1-0.6,0.2c-0.1,0.1-0.2,0.5-0.2,1v4h-1.3L266.5,23.6z"/>
<path class="st3" d="M47.8,21.8"/>
<path class="st3" d="M47.3,13"/>
<line class="st4" x1="58.9" y1="7.5" x2="58.9" y2="35.7"/>
<path class="st5" d="M42.2,20.5"/>
<path class="st6" d="M40.7,19.4c-0.4,0.6-0.8,1.1-1.3,1.5L39.2,21"/>
<polygon class="st2" points="39.2,19.7 39.5,20.8 40.5,21.4 37.9,22.1 "/>
<path class="st5" d="M41.6,11.3"/>
<path class="st5" d="M38,6.8"/>
<path class="st7" d="M41.6,11.3c0.8,2.1,0.7,4.5-0.2,6.6"/>
<path class="st2" d="M48.7,24.6c-1.1-0.3-2.3,0-3.2,0.7L35,31.6c-0.4,2-2.1,3.4-5.5,2.4l-5.3-2.5v-1.3l5.9,2.7c1,0.5,2.1,0.3,3-0.3
	c1.2-1,1.3-2.9,0.2-4c-0.3-0.3-0.6-0.5-0.9-0.7l-7.8-3.5c-0.3-0.1-0.6-0.1-0.8-0.1L15.7,25c-0.6,0-1,0.4-1,1v9.9
	c0,0.6,0.5,1.1,1.1,1.1l0,0h5l11.5,4.5c0.4,0.1,0.8,0.1,1.2-0.2l15.2-11.5c1.1-0.7,1.8-1.8,1.9-3C50.6,25.8,49.8,24.8,48.7,24.6z"/>
<path class="st2" d="M34.5,28.5l7.7-3.7c0.8-0.3,1.7-0.3,2.5,0.1L35,30.6C35,29.8,34.8,29.1,34.5,28.5z"/>
<path class="st6" d="M25.4,9.6c0.3-0.5,0.6-0.9,1-1.4l0.4-0.3"/>
<polygon class="st2" points="26.9,9.3 26.5,8.1 25.5,7.6 28.1,6.8 "/>
<path class="st7" d="M36.3,22.9c-4.7,1.8-9.9-0.6-11.7-5.2c-0.8-2.1-0.8-4.5,0.1-6.6"/>
<path class="st7" d="M29.6,6c2.8-1.2,5.9-0.9,8.4,0.7"/>
<polyline class="st8" points="29.1,13.6 33.2,18.7 42.4,5.4 "/>
</svg>
