<svg id="Layer_1" data-name="Layer 1" xmlns="http://www.w3.org/2000/svg" viewBox="0 0 15.53 15.53"><defs><style>.cls-1{fill:#fff;}.cls-2{fill:none;stroke:#f4af25;stroke-linecap:round;stroke-miterlimit:10;stroke-width:0.25px;}</style></defs><title>Number of Suggestions - Yellow</title><circle class="cls-1" cx="7.77" cy="7.77" r="7.77"/><line class="cls-2" x1="13.45" y1="11.71" x2="3.61" y2="11.71"/><polyline class="cls-2" points="7.75 8.64 9.29 9.3 9.72 5.58"/><path class="cls-2" d="M7.65,11.38l-2.11-4a.49.49,0,0,1,.24-.6c.39-.16,1.75-.83,1.75-.83" transform="translate(-0.3 -0.33)"/><path class="cls-2" d="M11.81,11.34l.8-.44s.23-.22,0-.64-2.44-5.17-2.44-5.17-.25-.47-.81,0" transform="translate(-0.3 -0.33)"/><rect class="cls-2" x="3.12" y="4.34" width="1.33" height="3.89" rx="0.36" ry="0.36" transform="translate(2.28 -1.29) rotate(21.64)"/><path class="cls-2" d="M6.14,9.42l-1.6-.66s-.52-.08-.15-1l1-2.6A.33.33,0,0,1,5.56,5l1.76-.77a.43.43,0,0,1,.56,0L9.29,5.64a.46.46,0,0,1,0,.58.58.58,0,0,1-.81.11l-.82-.77a.24.24,0,0,0-.29,0l-.94.4" transform="translate(-0.3 -0.33)"/><path class="cls-2" d="M10.4,7.77l.5,1a.83.83,0,0,1-.38,1.12l-1.41.69A.84.84,0,0,1,8,10.24L7.35,8.93a.84.84,0,0,1,.38-1.12l1.41-.69" transform="translate(-0.3 -0.33)"/></svg>