<svg id="Layer_1" data-name="Layer 1" xmlns="http://www.w3.org/2000/svg" viewBox="0 0 15.53 15.53"><defs><style>.cls-1{fill:#f7bc37;}.cls-2{fill:none;stroke:#fff;stroke-linecap:round;stroke-miterlimit:10;stroke-width:0.25px;}</style></defs><title>Number of Suggestions - Copy</title><circle class="cls-1" cx="7.77" cy="7.77" r="7.77"/><line class="cls-2" x1="12.77" y1="11.23" x2="4.13" y2="11.23"/><polyline class="cls-2" points="7.77 8.54 9.12 9.12 9.5 5.84"/><path class="cls-2" d="M7.71,11,5.85,7.43a.44.44,0,0,1,.22-.53c.34-.14,1.54-.73,1.54-.73" transform="translate(-0.3 -0.33)"/><path class="cls-2" d="M11.37,10.94l.7-.38s.21-.19,0-.56S9.92,5.46,9.92,5.46s-.21-.42-.71,0" transform="translate(-0.3 -0.33)"/><rect class="cls-2" x="3.73" y="4.79" width="1.17" height="3.42" rx="0.36" ry="0.36" transform="translate(2.4 -1.46) rotate(21.64)"/><path class="cls-2" d="M6.38,9.26,5,8.68s-.45-.07-.13-.87l.89-2.28a.26.26,0,0,1,.15-.16l1.55-.68a.37.37,0,0,1,.49,0L9.16,5.94a.41.41,0,0,1,0,.51.51.51,0,0,1-.72.09l-.72-.68a.23.23,0,0,0-.25,0l-.83.35" transform="translate(-0.3 -0.33)"/><path class="cls-2" d="M10.13,7.81l.44.91a.74.74,0,0,1-.33,1L9,10.32A.75.75,0,0,1,8,10L7.45,8.83a.74.74,0,0,1,.33-1L9,7.24" transform="translate(-0.3 -0.33)"/></svg>