<?xml version="1.0" encoding="utf-8"?>
<!-- Generator: Adobe Illustrator 21.0.0, SVG Export Plug-In . SVG Version: 6.00 Build 0)  -->
<svg version="1.1" id="Layer_1" xmlns="http://www.w3.org/2000/svg" xmlns:xlink="http://www.w3.org/1999/xlink" x="0px" y="0px"
	 viewBox="0 0 308.5 65.1" style="enable-background:new 0 0 308.5 65.1;" xml:space="preserve">
<style type="text/css">
	.st0{fill:#DD9F12;}
	.st1{fill:#ECC64E;}
	.st2{fill:none;stroke:#EF186B;stroke-width:0.14;stroke-miterlimit:10;}
	.st3{fill:none;stroke:#FFFFFF;stroke-width:0.65;stroke-linecap:round;stroke-linejoin:round;}
	.st4{fill:none;stroke:#EF186B;stroke-width:0.15;stroke-miterlimit:10;}
	.st5{fill:none;stroke:#FFFFFF;stroke-width:1.03;stroke-miterlimit:10;}
	.st6{fill:#FFFFFF;}
	.st7{fill:none;stroke:#FFFFFF;stroke-width:0.73;stroke-linecap:round;stroke-linejoin:round;}
	.st8{fill:none;stroke:#FFFFFF;stroke-width:2.94;stroke-linecap:round;stroke-linejoin:round;}
</style>
<title>Subjectwise Upcoming</title>
<path class="st0" d="M17,8.3c3.8-1.1,7.7-1.7,11.6-1.6H283c12.5,0.1,22.8,8.9,24.2,20.3v0.2c0.1,0.7,0,27.8,0,36.5
	c0,0.2-0.2,0.4-0.4,0.4c-0.2,0-0.3-0.1-0.4-0.3c-1.5-3.5-5.3-9.4-17.4-11.7c-0.4,0-1.9-0.2-1.9-0.2c-4.1-0.4-17.1-0.6-31.2-0.6
	c-9.8,0-17.9,0.1-17.9,0.1h-2.5c-0.8,0-1.7,0-2.5-0.1l0,0L57,51.5H33c-20.1,0-30.6-10.4-30.6-23.2V27C2.4,18.6,7.2,11.3,17,8.3z"/>
<path class="st1" d="M15.5,3.2c3.8-1.2,7.7-1.7,11.6-1.7h255.7c11.8,0,22,8.4,24.2,20.1c0.1,0.8,0.2,1.7,0.2,2.6v39.5
	c0,0.2-0.2,0.3-0.3,0.3c-0.1,0-0.2-0.1-0.3-0.2c-1.3-4.1-5.5-11.9-18-14.4l-1.5-0.2c-4.1-0.5-17.2-0.6-31.4-0.7
	c-9.8,0-18,0.2-18,0.2h-2.6c-0.9,0-1.7,0-2.6-0.1l0,0l-177,0.1h-24c-20.3,0-30.8-10.9-30.8-24.3v-1.3C0.8,14.1,5.6,6.4,15.5,3.2z"/>
<path class="st2" d="M50.3,23.1"/>
<path class="st2" d="M49.7,13.9"/>
<line class="st3" x1="62" y1="8" x2="62" y2="37.9"/>
<path class="st4" d="M44.3,21.7"/>
<path class="st5" d="M42.7,20.6c-0.4,0.6-0.8,1.2-1.3,1.6l-0.2,0.1"/>
<polygon class="st6" points="41.1,20.9 41.5,22.1 42.5,22.7 39.7,23.5 "/>
<path class="st4" d="M43.7,12"/>
<path class="st4" d="M39.8,7.2"/>
<path class="st7" d="M43.7,12c0.8,2.3,0.8,4.8-0.2,7"/>
<path class="st6" d="M51.2,26.1c-1.2-0.3-2.4,0-3.3,0.7l-11.1,6.7c-0.4,2.1-2.2,3.7-5.8,2.5l-5.6-2.6V32l6.3,2.8
	c1,0.5,2.3,0.4,3.2-0.3c1.3-1.1,1.4-3,0.3-4.2c-0.3-0.3-0.6-0.6-1-0.8l-8.3-3.8c-0.3-0.1-0.6-0.1-0.9-0.1l-8.6,0.9
	c-0.6,0-1.1,0.4-1.1,1c0,0,0,0,0,0.1V38c0,0.6,0.5,1.2,1.2,1.2h5.3L34,44c0.4,0.1,0.9,0.1,1.2-0.2l16.1-12.1c1.1-0.7,1.9-1.9,2-3.2
	C53.2,27.3,52.3,26.3,51.2,26.1z"/>
<path class="st6" d="M36.1,30.3l8.1-4C45,26,46,26,46.8,26.4l-10.1,6C36.6,31.7,36.4,30.9,36.1,30.3z"/>
<path class="st5" d="M26.5,10.2c0.3-0.5,0.7-1,1.1-1.4L28,8.4"/>
<polygon class="st6" points="28,9.8 27.7,8.6 26.6,8.1 29.4,7.2 "/>
<path class="st7" d="M38.1,24.3c-5,1.9-10.5-0.6-12.4-5.6c-0.8-2.2-0.8-4.7,0-6.9"/>
<path class="st7" d="M30.9,6.4c2.9-1.2,6.3-0.9,8.9,0.8"/>
<polyline class="st8" points="30.4,14.5 34.8,19.8 44.5,5.7 "/>
<path class="st6" d="M84.8,27.6c-0.7-0.2-1.3-0.5-1.8-1c-0.4-0.4-0.7-0.9-0.7-1.5s0.3-1.2,0.7-1.5c1-0.9,2.5-0.9,3.4,0
	c0.3,0.3,0.6,0.7,0.7,1.1l-1.2,0.4c-0.1-0.3-0.2-0.5-0.4-0.7c-0.4-0.4-1.1-0.4-1.5,0c-0.4,0.3-0.4,0.9-0.1,1.3l0.1,0.1
	c0.3,0.2,0.6,0.4,1,0.6c0.8,0.2,1.5,0.6,2.1,1.1s1,1.3,1,2.1c0,0.8-0.4,1.6-1,2.1c-1.3,1.1-3.3,1.1-4.6,0c-0.5-0.5-0.9-1.2-1-1.9
	l1.3-0.4c0,0.5,0.2,1.1,0.6,1.5c0.8,0.7,1.9,0.7,2.7,0c0.7-0.6,0.7-1.6,0.2-2.3c-0.1-0.1-0.1-0.1-0.2-0.2
	C85.7,28,85.3,27.8,84.8,27.6z"/>
<path class="st6" d="M92.2,32.5c-0.7,0-1.4-0.2-2-0.7c-0.5-0.4-0.8-1.1-0.8-1.8v-3.7h1.3V30c0,0.3,0.2,0.7,0.4,0.9
	c0.3,0.2,0.7,0.4,1,0.3c0.4,0,0.7-0.1,1-0.4c0.3-0.2,0.4-0.6,0.4-0.9v-3.6h1.3V30c0,0.7-0.3,1.3-0.8,1.7
	C93.6,32.3,92.9,32.5,92.2,32.5z"/>
<path class="st6" d="M102.7,26.8v-0.4h1.3v4.5c0.1,1-0.3,2-1.1,2.7c-1.6,1.2-3.7,1.2-5.2,0c-0.3-0.3-0.5-0.5-0.7-0.8l1.3-0.4
	l0.3,0.4c0.4,0.4,1,0.6,1.6,0.6c1.1,0,2-0.8,2.2-1.9c-0.4,0.8-1.3,1.2-2.2,1.1c-1,0-1.9-0.3-2.6-0.9s-1.1-1.4-1.1-2.3
	s0.4-1.8,1.1-2.4c0.7-0.7,1.6-1,2.6-1C101.2,25.9,102,26.2,102.7,26.8z M102.7,28.8c-0.1-0.4-0.3-0.7-0.6-1c-0.9-0.8-2.3-0.8-3.3,0
	c-0.8,0.7-0.9,1.9-0.3,2.7c0.1,0.1,0.2,0.2,0.3,0.3c0.9,0.8,2.3,0.8,3.3,0c0.3-0.3,0.5-0.6,0.6-1V28.8z"/>
<path class="st6" d="M111.8,26.8v-0.4h1.4v4.5c0.1,1-0.3,2-1.1,2.7c-1.6,1.2-3.7,1.2-5.2,0c-0.3-0.3-0.5-0.5-0.7-0.8l1.3-0.4
	l0.3,0.4c0.4,0.4,1,0.6,1.6,0.6c1.1,0,2-0.8,2.2-1.9c-0.4,0.8-1.3,1.2-2.2,1.1c-1,0-1.9-0.3-2.6-0.9s-1.1-1.4-1.1-2.3
	s0.4-1.8,1.1-2.4c0.7-0.7,1.6-1,2.6-1C110.4,25.9,111.2,26.2,111.8,26.8z M111.8,28.8c-0.1-0.4-0.3-0.7-0.6-1
	c-0.9-0.8-2.3-0.8-3.3,0c-0.8,0.7-0.9,1.9-0.3,2.7c0.1,0.1,0.2,0.2,0.3,0.3c0.9,0.8,2.3,0.8,3.3,0c0.3-0.3,0.5-0.6,0.6-1V28.8z"/>
<path class="st6" d="M117.2,31.1c0.4,0.2,0.8,0.3,1.2,0.3c0.6,0,1.2-0.2,1.6-0.6l0.3-0.4l1.3,0.4c-0.2,0.3-0.5,0.6-0.7,0.8
	c-1.5,1.3-3.7,1.3-5.2,0c-1.3-1.1-1.5-3.1-0.3-4.4c0.1-0.1,0.2-0.2,0.3-0.3c0.7-0.7,1.6-1,2.6-1c0.8,0,1.6,0.2,2.3,0.7l0.3,0.3
	l0.4,0.4l-0.7,0.6L117.2,31.1z M119.4,27.3c-0.3-0.1-0.7-0.2-1-0.2c-0.6,0-1.2,0.2-1.6,0.6s-0.6,0.9-0.6,1.5c0,0.3,0,0.6,0.2,0.9
	L119.4,27.3z"/>
<path class="st6" d="M124.7,31.1c0.2,0.1,0.4,0.2,0.6,0.2s0.4-0.1,0.6-0.2s0.2-0.3,0.2-0.5s-0.1-0.4-0.2-0.5
	c-0.2-0.2-0.4-0.3-0.7-0.5c-0.4-0.2-0.7-0.4-1-0.6c-0.6-0.6-0.7-1.5-0.2-2.2c0-0.1,0.1-0.1,0.2-0.2c0.4-0.3,0.8-0.5,1.3-0.5
	s0.9,0.2,1.3,0.5c0.2,0.2,0.4,0.4,0.4,0.7l-1.3,0.3c0-0.1,0-0.1-0.1-0.2s-0.2-0.1-0.3-0.1c-0.1,0-0.2,0-0.3,0.1
	c-0.1,0.1-0.1,0.2-0.1,0.3c0,0.1,0.1,0.2,0.1,0.3c0.2,0.1,0.4,0.3,0.6,0.4c0.4,0.2,0.8,0.4,1.2,0.7c0.8,0.7,0.8,1.8,0.2,2.6
	c-0.1,0.1-0.1,0.1-0.2,0.2c-0.9,0.7-2.1,0.7-3,0c-0.3-0.3-0.5-0.6-0.6-1l1.3-0.3C124.6,30.9,124.6,31,124.7,31.1z"/>
<path class="st6" d="M129.9,26.4v-2.3h1.4v2.3h1.2v1.2h-1.2v4.8h-1.4v-4.8h-1.2v-1.2C128.7,26.4,129.9,26.4,129.9,26.4z"/>
<path class="st6" d="M141.3,27.6c-0.7-0.2-1.3-0.5-1.8-1c-0.4-0.4-0.7-0.9-0.7-1.5s0.3-1.2,0.7-1.5c1-0.9,2.5-0.9,3.4,0
	c0.3,0.3,0.6,0.7,0.7,1.1l-1.2,0.4c-0.1-0.3-0.2-0.5-0.4-0.7c-0.4-0.4-1.1-0.4-1.5,0c-0.4,0.3-0.4,0.9-0.1,1.3l0.1,0.1
	c0.3,0.2,0.6,0.4,1,0.6c0.8,0.2,1.5,0.6,2.1,1.1s1,1.3,1,2.1c0,0.8-0.4,1.6-1,2.1c-1.3,1.1-3.3,1.1-4.6,0c-0.5-0.5-0.9-1.2-1-1.9
	l1.3-0.4c0,0.5,0.2,1.1,0.6,1.5c0.8,0.7,1.9,0.7,2.7,0c0.7-0.6,0.7-1.6,0.2-2.3c-0.1-0.1-0.1-0.1-0.2-0.2
	C142.2,28,141.8,27.8,141.3,27.6z"/>
<path class="st6" d="M147.5,34.4H146l1.8-3.4l-2.5-4.7h1.5l1.7,3.3l1.7-3.3h1.5L147.5,34.4z"/>
<path class="st6" d="M154.6,23.1v9.4h-1.4v-9.4H154.6z"/>
<path class="st6" d="M157.9,23.1v9.4h-1.4v-9.4H157.9z"/>
<path class="st6" d="M165.6,26.8v-0.4h1.4v6h-1.4v-0.8c-0.6,0.6-1.4,0.9-2.3,0.9c-1,0-1.9-0.3-2.6-1c-1.3-1.1-1.5-3.1-0.3-4.4
	c0.1-0.1,0.2-0.2,0.3-0.3c0.7-0.7,1.7-1,2.6-1C164.2,25.8,165,26.2,165.6,26.8z M165.6,29.7v-0.9c-0.1-0.4-0.3-0.7-0.6-1
	c-0.9-0.8-2.3-0.8-3.3,0c-0.8,0.7-0.9,1.9-0.2,2.7c0.1,0.1,0.1,0.1,0.2,0.2c0.9,0.8,2.3,0.8,3.3,0C165.3,30.5,165.5,30.1,165.6,29.7
	z"/>
<path class="st6" d="M170.3,31.7v0.7H169V23h1.3v3.8c0.6-0.6,1.4-0.9,2.3-0.9c1,0,1.9,0.3,2.6,1c1.3,1.1,1.4,3.1,0.3,4.4
	c-0.1,0.1-0.2,0.2-0.3,0.3c-0.7,0.7-1.7,1-2.6,1S170.9,32.3,170.3,31.7z M170.3,28.8v0.9c0.1,0.4,0.3,0.7,0.6,1
	c0.9,0.8,2.3,0.8,3.3,0c0.8-0.7,0.9-1.9,0.3-2.7c-0.1-0.1-0.2-0.2-0.3-0.3c-0.9-0.8-2.3-0.8-3.3,0C170.6,28,170.4,28.4,170.3,28.8z"
	/>
<path class="st6" d="M180.8,32.5c-0.7,0-1.4-0.2-2-0.7c-0.5-0.4-0.8-1.1-0.8-1.8v-3.7h1.4V30c0,0.3,0.2,0.7,0.4,0.9
	c0.3,0.3,0.7,0.4,1.1,0.4c0.4,0,0.7-0.1,1-0.4c0.3-0.2,0.4-0.6,0.4-0.9v-3.6h1.3v3.7c0,0.7-0.3,1.3-0.8,1.7
	C182.3,32.3,181.6,32.5,180.8,32.5z"/>
<path class="st6" d="M186.9,31.1c0.2,0.1,0.4,0.2,0.6,0.2c0.2,0,0.4-0.1,0.6-0.2c0.2-0.1,0.2-0.3,0.2-0.5s-0.1-0.4-0.2-0.5
	c-0.2-0.2-0.5-0.3-0.7-0.5c-0.4-0.2-0.7-0.4-1-0.6c-0.6-0.6-0.7-1.5-0.2-2.2c0-0.1,0.1-0.1,0.2-0.2c0.4-0.3,0.8-0.5,1.3-0.5
	s0.9,0.2,1.3,0.5c0.2,0.2,0.4,0.4,0.5,0.7l-1.3,0.3c0-0.1,0-0.1-0.1-0.2s-0.2-0.1-0.3-0.1s-0.2,0-0.3,0.1c-0.2,0.1-0.2,0.4,0,0.6
	l0,0c0.2,0.1,0.4,0.3,0.6,0.4c0.4,0.2,0.8,0.4,1.2,0.7c0.8,0.7,0.8,1.8,0.2,2.6c-0.1,0.1-0.1,0.1-0.2,0.2c-0.9,0.7-2.1,0.7-3,0
	c-0.3-0.3-0.5-0.6-0.6-1l1.3-0.3C186.8,30.9,186.8,31,186.9,31.1z"/>
<path class="st6" d="M197.4,27.6v4.8H196v-4.8h-0.6v-1.2h0.6v-1.1c0-0.5,0.3-1,0.6-1.3c0.4-0.3,0.9-0.5,1.4-0.5
	c0.4,0,0.8,0.1,1.2,0.3l-0.4,1.1c-0.2-0.1-0.5-0.2-0.7-0.2s-0.4,0.1-0.5,0.2s-0.2,0.3-0.2,0.5v1h1.2v1.2L197.4,27.6z"/>
<path class="st6" d="M203.1,25.9c1,0,1.9,0.3,2.6,1c1.3,1.1,1.4,3.1,0.3,4.4c-0.1,0.1-0.2,0.2-0.3,0.3c-1.5,1.3-3.7,1.3-5.2,0
	c-1.3-1.1-1.5-3.1-0.3-4.4c0.1-0.1,0.2-0.2,0.3-0.3C201.2,26.3,202.2,25.9,203.1,25.9z M201.5,27.8c-0.8,0.7-0.9,1.9-0.3,2.7
	c0.1,0.1,0.2,0.2,0.3,0.3c0.9,0.8,2.3,0.8,3.3,0c0.8-0.7,0.9-1.9,0.3-2.7c-0.1-0.1-0.2-0.2-0.3-0.3C203.8,27,202.5,27,201.5,27.8z"
	/>
<path class="st6" d="M209.7,27.3c0.4-0.6,1.1-1,1.9-1v1.3c-0.4,0-0.8,0.2-1.2,0.4c-0.4,0.3-0.7,0.9-0.7,1.4v3.1h-1.3v-6h1.3V27.3z"
	/>
<path class="st6" d="M217.5,23.1h1.2l4.3,6.7v-6.7h1.4v9.4h-1.2l-4.4-6.8v6.8h-1.3V23.1z"/>
<path class="st6" d="M228.4,31.1c0.4,0.2,0.8,0.3,1.2,0.3c0.6,0,1.2-0.2,1.6-0.6l0.3-0.4l1.3,0.4c-0.2,0.3-0.5,0.6-0.7,0.8
	c-1.5,1.3-3.7,1.3-5.2,0c-1.3-1.1-1.5-3.1-0.3-4.4c0.1-0.1,0.2-0.2,0.3-0.3c0.7-0.7,1.6-1,2.6-1c0.8,0,1.6,0.2,2.3,0.7l0.3,0.3
	l0.4,0.4l-0.7,0.6L228.4,31.1z M230.6,27.3c-0.3-0.1-0.7-0.2-1-0.2c-0.6,0-1.2,0.2-1.6,0.6c-0.4,0.4-0.7,0.9-0.7,1.5
	c0,0.3,0,0.6,0.2,0.9L230.6,27.3z"/>
<path class="st6" d="M239.4,26.4l-1.8,2.8l2.1,3.3h-1.6l-1.3-2l-1.3,2H234l2.1-3.3l-1.8-2.8h1.6l1,1.5l1-1.5
	C237.9,26.4,239.4,26.4,239.4,26.4z"/>
<path class="st6" d="M242,26.4v-2.3h1.3v2.3h1.2v1.2h-1.2v4.8H242v-4.8h-1.2v-1.2C240.8,26.4,242,26.4,242,26.4z"/>
<path class="st6" d="M256.3,23.1v1.2H252v2.9h4.3v1.2H252v2.9h4.3v1.2h-5.6v-9.4H256.3z"/>
<path class="st6" d="M263,26.4l-1.8,2.8l2.1,3.3h-1.5l-1.3-2l-1.3,2h-1.6l2.1-3.3l-1.8-2.8h1.5l1,1.5l1-1.5
	C261.4,26.4,263,26.4,263,26.4z"/>
<path class="st6" d="M270.6,26.8v-0.4h1.4v6h-1.4v-0.8c-0.6,0.6-1.4,0.9-2.3,0.9c-1,0-1.9-0.3-2.6-1c-1.3-1.1-1.5-3.1-0.3-4.4
	c0.1-0.1,0.2-0.2,0.3-0.3c0.7-0.7,1.7-1,2.6-1C269.2,25.8,270,26.2,270.6,26.8z M270.6,29.7v-0.9c-0.1-0.4-0.3-0.7-0.6-1
	c-0.9-0.8-2.3-0.8-3.3,0c-0.8,0.7-0.9,1.9-0.2,2.7c0.1,0.1,0.1,0.1,0.2,0.2c0.9,0.8,2.3,0.8,3.3,0C270.3,30.5,270.5,30.1,270.6,29.7
	z"/>
<path class="st6" d="M273.9,26.4h1.3V27c0.3-0.6,0.9-0.9,1.5-0.9c0.6-0.1,1.1,0.3,1.2,0.9c0,0,0,0,0,0.1c0.2-0.7,0.8-1,1.8-1
	s1.4,0.5,1.4,1.6v4.8h-1.4v-4.2c0-0.6-0.3-0.9-0.8-0.9c-0.2,0-0.4,0.1-0.6,0.2s-0.2,0.6-0.2,1.4v3.5h-1.4v-4.2
	c0-0.6-0.3-0.9-0.8-0.9c-0.2,0-0.4,0.1-0.6,0.2c-0.1,0.1-0.2,0.5-0.2,1v4h-1.3L273.9,26.4z"/>
</svg>
