<svg id="Layer_1" data-name="Layer 1" xmlns="http://www.w3.org/2000/svg" viewBox="0 0 14.49 18.2"><defs><style>.cls-1,.cls-2,.cls-6{fill:none;}.cls-1,.cls-2{stroke:#f15d64;}.cls-1,.cls-2,.cls-5,.cls-6{stroke-miterlimit:10;}.cls-1{stroke-width:0.5px;}.cls-3{fill:#ff6f70;}.cls-4{fill:#fbf8f5;}.cls-5{fill:#ff5d62;}.cls-5,.cls-6{stroke:#fff;stroke-width:0.25px;}.cls-7{fill:#fff7fd;}</style></defs><title>Syllabus</title><polyline class="cls-1" points="1.69 7.16 2.45 7.92 3.79 6.57 3.96 6.4"/><polyline class="cls-1" points="1.72 14.45 2.48 15.21 3.83 13.87 4 13.7"/><polyline class="cls-1" points="1.7 10.77 2.46 11.53 3.8 10.19 3.97 10.01"/><line class="cls-2" x1="4.96" y1="7.29" x2="10.68" y2="7.29"/><line class="cls-2" x1="4.98" y1="10.95" x2="10.7" y2="10.95"/><line class="cls-2" x1="5.03" y1="14.56" x2="10.75" y2="14.56"/><rect class="cls-3" x="2.76" y="1.99" width="6.98" height="2.4" rx="0.56" ry="0.56"/><circle class="cls-3" cx="6.31" cy="1.83" r="1.83"/><circle class="cls-4" cx="6.21" cy="1.22" r="0.49"/><path class="cls-1" d="M11.53,3.83h1a.78.78,0,0,1,.77.78V17.87a.78.78,0,0,1-.77.78H2.15a.77.77,0,0,1-.77-.78V4.61a.77.77,0,0,1,.77-.78h1" transform="translate(-1.13 -0.7)"/><path class="cls-5" d="M9.47,15l1.91-1.21a2.58,2.58,0,0,0,.66-.68l3.42-5.77a.88.88,0,0,0-.25-.88l-.87-.6s-.77-.47-1.13.08L12.59,7c-1,1.77-2.85,5-2.85,5Z" transform="translate(-1.13 -0.7)"/><line class="cls-6" x1="8.47" y1="13.6" x2="8.95" y2="13.88"/><path class="cls-7" d="M10.59,13.12s-.38-.64-.53-.34l-.05,1,1.08-.17S11.36,13,10.59,13.12Z" transform="translate(-1.13 -0.7)"/><line class="cls-6" x1="11.54" y1="6.19" x2="13.76" y2="7.59"/></svg>