<svg id="Layer_1" data-name="Layer 1" xmlns="http://www.w3.org/2000/svg" viewBox="0 0 15.01 14.16"><defs><style>.cls-1{fill:#3598db;}.cls-2,.cls-3{fill:none;stroke:#ddb905;stroke-linecap:round;stroke-miterlimit:10;stroke-width:1.5px;}.cls-3{opacity:0.96;}.cls-4{fill:#fccf62;}</style></defs><title>Unique features</title><path class="cls-1" d="M8,13.34,8.25,1.15s-.19-.61-.83.34L5.49,5.14l-4.32.61A.8.8,0,0,0,.56,7L3.65,9.94l-.48,4.23s-.23,1.4,1.32.8Z" transform="translate(-0.41 -0.96)"/><path class="cls-1" d="M8,13.34V1s.25-.27.77.46l1.82,3.65,4.08.61s1.1.15.58,1.28L12.36,9.93l.46,4.23s.21,1.4-1.25.79Z" transform="translate(-0.41 -0.96)"/><path class="cls-2" d="M13.66,4.71" transform="translate(-0.41 -0.96)"/><path class="cls-3" d="M8.23,9.65" transform="translate(-0.41 -0.96)"/><path class="cls-3" d="M7.68,9.61" transform="translate(-0.41 -0.96)"/><path class="cls-3" d="M5.12,7.26" transform="translate(-0.41 -0.96)"/><path class="cls-4" d="M8,10.19V8.38L5.76,6.2a.25.25,0,0,0-.22-.06,1,1,0,0,0-.81.8.25.25,0,0,0,.08.21Z" transform="translate(-0.41 -0.96)"/><path class="cls-4" d="M14,4.4a.94.94,0,0,0,.1-.38.75.75,0,0,0-1.12-.53h0L8,8.41l0,1.78Z" transform="translate(-0.41 -0.96)"/></svg>