<?xml version="1.0"?>
<svg xmlns="http://www.w3.org/2000/svg" xmlns:xlink="http://www.w3.org/1999/xlink" version="1.1" id="bold" x="0px" y="0px" viewBox="0 0 32 32" enable-background="new 0 0 32 32" xml:space="preserve" width="512" height="512"><path fill="#FFF9DD" d="M26,32H6c-3.314,0-6-2.686-6-6V6c0-3.314,2.686-6,6-6h20c3.314,0,6,2.686,6,6v20C32,29.314,29.314,32,26,32z  "/><path fill="#FFD200" d="M21.953,13.293c-0.807-0.167-1.413-0.867-1.447-1.72c-0.287,0.64-0.927,1.093-1.673,1.093h-1  c-0.287,0-0.553-0.073-0.793-0.187c-0.16,0.253-0.38,0.473-0.653,0.62c-0.505,0.291-1.141,0.325-1.72,0.02  c-0.579,0.305-1.215,0.271-1.72-0.02c-0.433-0.233-0.74-0.627-0.873-1.1c-0.14-0.467-0.08-0.96,0.16-1.387L12.567,10l-0.333-0.607  c-0.007-0.013-0.013-0.027-0.02-0.04C10.867,10.453,10,12.127,10,14c0,0.413-0.12,0.82-0.34,1.173L8.107,17.64  C8.033,17.753,8,17.873,8,18c0,0.373,0.293,0.667,0.667,0.667H10v2C10,21.4,10.6,22,11.333,22c0.147,0,0.287-0.02,0.393-0.06  l1.607-0.493v2.22c0,0.187,0.147,0.333,0.333,0.333h6C19.853,24,20,23.853,20,23.667v-3.353c0-1.027,0.313-2.02,0.907-2.867  C21.62,16.433,22,15.24,22,14C22,13.76,21.987,13.527,21.953,13.293z"/><path fill="#FFE777" d="M15.063,11.743l-1.667-3c-0.134-0.242-0.048-0.546,0.194-0.68c0.242-0.134,0.546-0.047,0.68,0.194l1.667,3  c0.134,0.242,0.048,0.546-0.194,0.68C15.503,12.07,15.198,11.986,15.063,11.743z"/><path fill="#FFE777" d="M13.59,11.937c-0.242-0.134-0.328-0.438-0.194-0.68l1.667-3c0.133-0.242,0.438-0.329,0.68-0.194  c0.242,0.134,0.328,0.438,0.194,0.68l-1.667,3C14.136,11.986,13.83,12.07,13.59,11.937z"/><path fill="#FFE777" d="M23.807,8.105c-0.22-0.17-0.533-0.13-0.702,0.088l-0.772,0.993l-0.772-0.993  c-0.169-0.217-0.482-0.258-0.702-0.088c-0.217,0.169-0.257,0.483-0.087,0.702l1.061,1.364V11.5c0,0.276,0.224,0.5,0.5,0.5  s0.5-0.224,0.5-0.5v-1.329l1.061-1.364C24.065,8.589,24.025,8.275,23.807,8.105z"/><path fill="#FFE777" d="M18.833,9.667h-1c-0.276,0-0.5-0.224-0.5-0.5s0.224-0.5,0.5-0.5h1c0.276,0,0.5,0.224,0.5,0.5  S19.109,9.667,18.833,9.667z"/><path fill="#FFE777" d="M18.833,11.333h-1c-0.276,0-0.5-0.224-0.5-0.5c0-0.276,0.224-0.5,0.5-0.5h1c0.276,0,0.5,0.224,0.5,0.5  C19.333,11.109,19.109,11.333,18.833,11.333z"/></svg>
