<?xml version="1.0"?>
<svg xmlns="http://www.w3.org/2000/svg" height="512px" viewBox="0 0 128 128" width="512px" class="hovered-paths"><g><g><path d="m114.023 86.2 9.19-43.91a1.75 1.75 0 0 0 -1.713-2.11h-29.49l6.29-8.544a1.75 1.75 0 0 0 -.038-2.124l-7.381-9.312a1.75 1.75 0 0 0 -1.372-.663h-33.209a1.749 1.749 0 0 0 -1.371.663l-7.379 9.311a1.748 1.748 0 0 0 -.038 2.124l6.288 8.545h-21.717l-1.672-10.322a7.759 7.759 0 0 0 -5.675-6.258l-14.026-3.7a4.75 4.75 0 0 0 -2.422 9.186l12.926 3.414 10.242 63.239a7.719 7.719 0 0 0 7.65 6.511h74.707a4.75 4.75 0 0 0 0-9.5h-45.013l43.716-5.172a1.75 1.75 0 0 0 1.507-1.378zm-61.638-53.851h8.415l6.946 20.873zm12.1 0h16.838l-8.417 25.294zm2.3-3.5 6.121-5.255 6.122 5.255zm26.483 0h-6.378l2.8-4.52zm-9.929-.913-5.706-4.9h8.736zm-20.865 0-3.03-4.9h8.735zm-3.551.913h-6.379l3.582-4.52zm26.089 3.5h8.415l-15.361 20.873zm30.051 65.151a1.252 1.252 0 0 1 -1.25 1.25h-74.707a4.234 4.234 0 0 1 -4.195-3.571l-10.424-64.359a1.751 1.751 0 0 0 -1.281-1.413l-14.025-3.7a1.251 1.251 0 0 1 -.931-1.207 1.225 1.225 0 0 1 .487-.989 1.24 1.24 0 0 1 .754-.263 1.305 1.305 0 0 1 .327.044l14.026 3.7a4.257 4.257 0 0 1 3.112 3.431l10.426 64.357a1.751 1.751 0 0 0 1.728 1.47h74.7a1.252 1.252 0 0 1 1.253 1.25zm-74.494-4.935-7.919-48.885h23.728l15.122 20.543a1.75 1.75 0 0 0 2.819 0l15.115-20.543h29.912l-8.491 40.57z" data-original="#000000" class="active-path" data-old_color="#000000" fill="#8C8585"/><path d="m111.41 60.851a1.75 1.75 0 0 0 -2.072 1.354l-1.154 5.516a1.749 1.749 0 0 0 1.355 2.071 1.75 1.75 0 0 0 2.071-1.354l1.154-5.516a1.749 1.749 0 0 0 -1.354-2.071z" data-original="#000000" class="active-path" data-old_color="#000000" fill="#8C8585"/><path d="m50.142 105.75a8.75 8.75 0 1 0 8.75 8.75 8.76 8.76 0 0 0 -8.75-8.75zm0 14a5.25 5.25 0 1 1 5.25-5.25 5.256 5.256 0 0 1 -5.25 5.25z" data-original="#000000" class="active-path" data-old_color="#000000" fill="#8C8585"/><path d="m100.491 105.75a8.75 8.75 0 1 0 8.75 8.75 8.76 8.76 0 0 0 -8.75-8.75zm0 14a5.25 5.25 0 1 1 5.25-5.25 5.256 5.256 0 0 1 -5.25 5.25z" data-original="#000000" class="active-path" data-old_color="#000000" fill="#8C8585"/><path d="m72.906 14.4a1.749 1.749 0 0 0 1.75-1.75v-6.15a1.75 1.75 0 0 0 -3.5 0v6.154a1.75 1.75 0 0 0 1.75 1.746z" data-original="#000000" class="active-path" data-old_color="#000000" fill="#8C8585"/><path d="m80.863 15.129a1.75 1.75 0 0 0 2.249-1.029l2.138-5.776a1.75 1.75 0 0 0 -3.283-1.215l-2.137 5.772a1.749 1.749 0 0 0 1.033 2.248z" data-original="#000000" class="active-path" data-old_color="#000000" fill="#8C8585"/><path d="m88.329 16.652a1.748 1.748 0 0 0 2.438-.425l3.533-5.037a1.75 1.75 0 0 0 -2.86-2.011l-3.54 5.036a1.748 1.748 0 0 0 .429 2.437z" data-original="#000000" class="active-path" data-old_color="#000000" fill="#8C8585"/><path d="m62.7 14.1a1.75 1.75 0 0 0 3.282-1.215l-2.137-5.776a1.75 1.75 0 0 0 -3.282 1.215z" data-original="#000000" class="active-path" data-old_color="#000000" fill="#8C8585"/><path d="m55.045 16.227a1.75 1.75 0 0 0 2.865-2.012l-3.537-5.036a1.75 1.75 0 0 0 -2.865 2.011z" data-original="#000000" class="active-path" data-old_color="#000000" fill="#8C8585"/></g></g> </svg>
