<svg id="Layer_1" data-name="Layer 1" xmlns="http://www.w3.org/2000/svg" viewBox="0 0 63 63"><defs><style>.cls-1{fill:#736ded;}.cls-2{fill:#fff;}.cls-3,.cls-4,.cls-5{fill:none;stroke:#fff;stroke-miterlimit:10;}.cls-3{stroke-width:3.83px;}.cls-4{stroke-width:1.44px;}.cls-5{stroke-width:1.92px;}</style></defs><title>iit jee - Mains</title><rect class="cls-1" width="63" height="63" rx="6.89" ry="6.89"/><rect class="cls-2" x="33.01" y="9.01" width="4.22" height="2.75" transform="translate(-1.91 12.82) rotate(-21.3)"/><rect class="cls-2" x="25.59" y="16.88" width="4.22" height="2.75" transform="translate(1.11 38.15) rotate(-71.65)"/><rect class="cls-2" x="52.07" y="16.46" width="4.22" height="2.75" transform="translate(55.46 74.19) rotate(-110.04)"/><rect class="cls-2" x="44.1" y="8.7" width="4.22" height="2.75" transform="translate(6.72 -17.4) rotate(22.25)"/><rect class="cls-2" x="33.45" y="35.35" width="4.22" height="2.75" transform="translate(15.24 -11.05) rotate(21.3)"/><rect class="cls-2" x="25.8" y="27.86" width="4.22" height="2.75" transform="translate(46.34 -7.1) rotate(71.65)"/><rect class="cls-2" x="51.94" y="27.36" width="4.22" height="2.75" transform="translate(99.03 -12.85) rotate(110.04)"/><rect class="cls-2" x="44.55" y="35.27" width="4.22" height="2.75" transform="translate(-10.94 19.76) rotate(-22.25)"/><circle class="cls-3" cx="40.31" cy="22.71" r="11.82"/><rect class="cls-2" x="37.31" y="16.78" width="1.94" height="1.26" transform="translate(-4.24 14.45) rotate(-21.3)"/><rect class="cls-2" x="33.89" y="20.4" width="1.94" height="1.26" transform="matrix(0.31, -0.95, 0.95, 0.31, 3.39, 46.85)"/><rect class="cls-2" x="46.07" y="20.2" width="1.94" height="1.26" transform="translate(43.05 71.51) rotate(-110.04)"/><rect class="cls-2" x="42.41" y="16.63" width="1.94" height="1.26" transform="translate(9.24 -15.79) rotate(22.25)"/><rect class="cls-2" x="37.51" y="28.89" width="1.94" height="1.26" transform="translate(12.82 -12.61) rotate(21.3)"/><rect class="cls-2" x="33.99" y="25.44" width="1.94" height="1.26" transform="translate(48.17 -15.96) rotate(71.65)"/><rect class="cls-2" x="46.01" y="25.21" width="1.94" height="1.26" transform="translate(86.82 -10.08) rotate(110.04)"/><rect class="cls-2" x="42.61" y="28.85" width="1.94" height="1.26" transform="translate(-8.45 18.06) rotate(-22.25)"/><circle class="cls-4" cx="40.37" cy="22.73" r="5.4"/><circle class="cls-2" cx="40.43" cy="22.74" r="2.08"/><rect class="cls-2" x="32.66" y="40.39" width="2.5" height="1.63" transform="translate(-13.19 14.49) rotate(-21.3)"/><rect class="cls-2" x="28.27" y="45.05" width="2.5" height="1.63" transform="translate(-23.84 58.8) rotate(-71.65)"/><rect class="cls-2" x="44.38" y="44.36" width="1.63" height="2.5" transform="translate(-13.43 17.6) rotate(-20.04)"/><rect class="cls-2" x="39.67" y="39.77" width="1.63" height="2.5" transform="translate(-13.35 62.3) rotate(-67.75)"/><rect class="cls-2" x="32.93" y="55.98" width="2.5" height="1.63" transform="translate(22.43 -9.18) rotate(21.3)"/><rect class="cls-2" x="28.45" y="51.55" width="2.5" height="1.63" transform="translate(67.18 5.04) rotate(68.72)"/><rect class="cls-2" x="43.87" y="51.25" width="2.5" height="1.63" transform="translate(108.96 26.87) rotate(110.04)"/><rect class="cls-2" x="39.49" y="55.93" width="2.5" height="1.63" transform="translate(-18.99 19.01) rotate(-22.25)"/><circle class="cls-5" cx="36.91" cy="48.24" r="6.95"/><circle class="cls-2" cx="36.91" cy="48.24" r="3.86"/><rect class="cls-2" x="21.36" y="33.75" width="1.59" height="1.04" transform="translate(-11.47 9.75) rotate(-21.3)"/><rect class="cls-2" x="18.56" y="36.72" width="1.59" height="1.04" transform="translate(-22.61 43.24) rotate(-71.65)"/><rect class="cls-2" x="28.45" y="36.59" width="1.59" height="1.04" transform="translate(3.87 76.66) rotate(-110.04)"/><rect class="cls-2" x="25.55" y="33.63" width="1.59" height="1.04" transform="translate(14.36 -8.08) rotate(22.25)"/><rect class="cls-2" x="21.51" y="43.6" width="1.59" height="1.04" transform="translate(17.02 -5.73) rotate(21.3)"/><rect class="cls-2" x="18.62" y="40.78" width="1.59" height="1.04" transform="translate(51.97 9.22) rotate(71.65)"/><rect class="cls-2" x="28.48" y="40.59" width="1.59" height="1.04" transform="translate(77.4 27.04) rotate(110.04)"/><rect class="cls-2" x="25.64" y="43.54" width="1.59" height="1.04" transform="translate(-15.25 12.65) rotate(-22.25)"/><circle class="cls-4" cx="23.78" cy="38.51" r="4.22"/><circle class="cls-2" cx="23.83" cy="38.52" r="2.23"/><rect class="cls-2" x="12.4" y="14.27" width="2.81" height="1.83" transform="translate(-2.1 0.94) rotate(-6.23)"/><rect class="cls-2" x="6.26" y="18.05" width="2.81" height="1.83" transform="translate(-12.92 14.27) rotate(-56.58)"/><rect class="cls-2" x="23.24" y="22.36" width="2.81" height="1.83" transform="translate(3.96 49.89) rotate(-96.89)"/><rect class="cls-2" x="19.59" y="15.99" width="2.81" height="1.83" transform="translate(14.02 -9.91) rotate(37.33)"/><rect class="cls-2" x="8.19" y="31.18" width="2.81" height="1.83" transform="translate(20.37 -0.08) rotate(36.37)"/><rect class="cls-2" x="4.52" y="25.07" width="2.81" height="1.83" transform="translate(30.45 16.28) rotate(82.95)"/><rect class="cls-2" x="21.4" y="29.35" width="2.81" height="1.83" transform="translate(60.14 28.37) rotate(125.11)"/><rect class="cls-2" x="15.27" y="32.95" width="2.81" height="1.83" transform="translate(-4.64 1.71) rotate(-7.18)"/><circle class="cls-5" cx="15.24" cy="24.51" r="7.8" transform="translate(-12.93 32.21) rotate(-74.93)"/><circle class="cls-2" cx="15.31" cy="24.55" r="3.83" transform="matrix(0.26, -0.97, 0.97, 0.26, -12.92, 32.31)"/></svg>