<svg id="Layer_1" data-name="Layer 1" xmlns="http://www.w3.org/2000/svg" viewBox="0 0 23.4 17.36"><defs><style>.cls-1{fill:none;stroke:#ecc64e;stroke-linecap:round;stroke-miterlimit:10;stroke-width:0.65px;}</style></defs><title>Number of Suggestions ---- Yellow</title><line class="cls-1" x1="23.08" y1="17.03" x2="2.29" y2="17.03"/><polyline class="cls-1" points="12.07 10.55 15.31 11.94 16.24 4.07"/><path class="cls-1" d="M11.44,17.05,7,8.53A1.05,1.05,0,0,1,7.5,7.25c.81-.34,3.7-1.75,3.7-1.75" transform="translate(-0.24 -1.43)"/><path class="cls-1" d="M20.23,17,21.92,16s.5-.45,0-1.34S16.77,3.77,16.77,3.77s-.53-1-1.72,0" transform="translate(-0.24 -1.43)"/><rect class="cls-1" x="1.87" y="2.18" width="2.82" height="8.23" rx="0.36" ry="0.36" transform="translate(2.32 -2.19) rotate(21.64)"/><path class="cls-1" d="M8.26,12.92l-3.4-1.4s-1.09-.17-.31-2.08l2.12-5.5A.72.72,0,0,1,7,3.56l3.72-1.63A.89.89,0,0,1,11.94,2l3,2.89a1,1,0,0,1,0,1.23,1.24,1.24,0,0,1-1.73.23L11.47,4.76a.57.57,0,0,0-.62-.11l-2,.85" transform="translate(-0.24 -1.43)"/><path class="cls-1" d="M17.25,9.44l1.07,2.18A1.78,1.78,0,0,1,17.51,14l-3,1.46a1.78,1.78,0,0,1-2.37-.81l-1.35-2.76a1.78,1.78,0,0,1,.81-2.38l3-1.46" transform="translate(-0.24 -1.43)"/></svg>