<svg id="Layer_1" data-name="Layer 1" xmlns="http://www.w3.org/2000/svg" viewBox="0 0 300 60"><defs><style>.cls-1{fill:#cdcccc;}.cls-2{fill:#fff;}.cls-3{fill:#f48fab;}.cls-4{fill:#ee2e64;}.cls-5{fill:#f05554;}</style></defs><path class="cls-1" d="M10.57,3.45h55V60.11h-55A10.7,10.7,0,0,1,0,49.31V14.22A10.7,10.7,0,0,1,10.57,3.45Z"/><path class="cls-2" d="M12.22,0H87.8V56.66H12.22A12.32,12.32,0,0,1,0,44.24V12.46A12.32,12.32,0,0,1,12.19,0Z"/><path class="cls-3" d="M289.46,60.07H65.51V39.68l15.88-13.8L65.51,16.15V3.45h224A10.66,10.66,0,0,1,300,14V49.31a10.65,10.65,0,0,1-10.54,10.76Z"/><path class="cls-4" d="M289.46,56.62H65.51V36.23l11.82-9.94L65.51,19V0h224A10.66,10.66,0,0,1,300,10.59V45.86a10.65,10.65,0,0,1-10.54,10.76Z"/><path class="cls-5" d="M8.7,37H22.76c9,0,16.31-7.86,16.31-17.52S31.75,1.93,22.76,1.93,6.33,9.8,6.33,19.45a18.35,18.35,0,0,0,4.8,12.3Zm15.69-7H21.12V26.46h3.27Zm-1.63-21a6.79,6.79,0,0,1,6.52,7,7.06,7.06,0,0,1-3.5,6.21,3,3,0,0,0-1.39,2.55H21.12a6.39,6.39,0,0,1,3.14-5.65A3.53,3.53,0,0,0,26,16a3.39,3.39,0,0,0-3.26-3.5A3.4,3.4,0,0,0,19.49,16H16.23A6.79,6.79,0,0,1,22.76,8.94Z"/><path class="cls-5" d="M42.32,19.82c-.15,8.89-5.45,16.44-12.83,19.35,1,8.62,7.81,15.33,16.11,15.33H59.66l-2.44-5.23A18.3,18.3,0,0,0,62,37c0-9.68-7.41-17.53-16.42-17.53A14.79,14.79,0,0,0,42.32,19.82ZM53.75,42.23h-13v-3.5h13Zm0-7h-13v-3.5h13Z"/><path class="cls-2" d="M121.24,17.54a50.33,50.33,0,0,1,7.09-.52c4.79,0,8.21,1.08,10.47,3.12s3.64,4.94,3.64,9a13,13,0,0,1-3.72,9.72c-2.42,2.34-6.4,3.61-11.42,3.61a57,57,0,0,1-6.06-.3Zm3.34,22.13a21.44,21.44,0,0,0,3.37.19c7.13,0,11-3.86,11-10.62,0-5.9-3.41-9.65-10.46-9.65a19.23,19.23,0,0,0-3.91.33Z"/><path class="cls-2" d="M163.59,33.1c0,6.65-4.75,9.54-9.24,9.54-5,0-8.89-3.56-8.89-9.24,0-6,4.06-9.54,9.2-9.54C160,23.86,163.59,27.6,163.59,33.1Zm-14.72.19c0,3.93,2.34,6.9,5.64,6.9s5.63-2.93,5.63-7c0-3-1.57-6.9-5.56-6.9S148.87,29.87,148.87,33.29Z"/><path class="cls-2" d="M183.37,37.33c0,1.86,0,3.49.15,4.9h-3l-.19-2.93h-.08a7,7,0,0,1-6.13,3.34c-2.92,0-6.4-1.56-6.4-7.87V24.26h3.37v10c0,3.42,1.07,5.72,4.14,5.72a4.88,4.88,0,0,0,4.45-3,4.68,4.68,0,0,0,.3-1.67v-11h3.38Z"/><path class="cls-2" d="M188.8,42.23c.08-1.22.16-3,.16-4.64V15.87h3.33V27.16h.08a6.94,6.94,0,0,1,6.32-3.3c4.6,0,7.86,3.71,7.82,9.17,0,6.42-4.18,9.61-8.32,9.61A6.65,6.65,0,0,1,192,39.26h-.11l-.15,3Zm3.49-7.2a6.45,6.45,0,0,0,.15,1.19A5.19,5.19,0,0,0,197.5,40c3.53,0,5.64-2.78,5.64-6.9,0-3.6-1.92-6.69-5.52-6.69a5.36,5.36,0,0,0-5.14,4,6.73,6.73,0,0,0-.19,1.34Z"/><path class="cls-2" d="M214.82,19.1v5.16h4.83v2.49h-4.83v9.69c0,2.23.66,3.49,2.53,3.49a7.81,7.81,0,0,0,2-.22l.15,2.45a8.49,8.49,0,0,1-3,.44,4.76,4.76,0,0,1-3.64-1.37c-1-1-1.3-2.56-1.3-4.68v-9.8h-2.88V24.26h2.88V20Z"/><path class="cls-2" d="M223,38.89a9,9,0,0,0,4.44,1.3c2.45,0,3.61-1.19,3.61-2.67s-1-2.42-3.46-3.31c-3.33-1.15-4.9-2.93-4.9-5.08,0-2.9,2.41-5.27,6.4-5.27A9.52,9.52,0,0,1,233.64,25l-.84,2.37a7.47,7.47,0,0,0-3.8-1c-2,0-3.1,1.11-3.1,2.45s1.11,2.15,3.52,3c3.22,1.19,4.87,2.75,4.87,5.42,0,3.16-2.53,5.38-6.93,5.38a10.91,10.91,0,0,1-5.22-1.22Z"/></svg>