<svg id="Layer_1" data-name="Layer 1" xmlns="http://www.w3.org/2000/svg" viewBox="0 0 63 63"><defs><style>.cls-1{fill:#f94c3b;}.cls-2{fill:#fff;}.cls-3{fill:none;stroke:#fff;stroke-miterlimit:10;stroke-width:2.64px;}.cls-4{fill:#ed3e3a;}</style></defs><title>Bitsat</title><rect class="cls-1" width="63" height="63" rx="6.89" ry="6.89"/><rect class="cls-2" x="21.8" y="52.16" width="3.15" height="3.05" transform="translate(54.03 102.77) rotate(171.34)"/><rect class="cls-2" x="18.74" y="28.88" width="3.15" height="3.05" transform="translate(44.45 56.92) rotate(171.34)"/><circle class="cls-3" cx="21.28" cy="42.24" r="9.4" transform="translate(-23.6 58.18) rotate(-83.58)"/><circle class="cls-2" cx="34.03" cy="13.76" r="5.23" transform="translate(-2.81 18.69) rotate(-30.51)"/><circle class="cls-2" cx="21.02" cy="42.42" r="5.23" transform="matrix(0.86, -0.51, 0.51, 0.86, -19.16, 16.06)"/><circle class="cls-2" cx="50.49" cy="40.57" r="5.23" transform="translate(-13 24.86) rotate(-25.18)"/><path class="cls-2" d="M35.08,16a1.21,1.21,0,0,1,1.66.38L51,39.11a1.2,1.2,0,0,1-.38,1.66h0A1.2,1.2,0,0,1,49,40.39L34.7,17.66A1.2,1.2,0,0,1,35.08,16Z" transform="translate(-0.53 -0.48)"/><path class="cls-4" d="M31.65,18.71c.87.38,1.42,1,1.23,1.47L25.24,37.44c-.19.43-1,.46-1.91.08h0c-.87-.39-1.42-1-1.23-1.47l7.64-17.26c.19-.43,1-.46,1.91-.08Z" transform="translate(-0.53 -0.48)"/><path class="cls-2" d="M32.82,16.07a1.12,1.12,0,0,1,.57,1.47L23.33,40.29a1.11,1.11,0,0,1-1.47.57h0a1.12,1.12,0,0,1-.57-1.47L31.36,16.64a1.11,1.11,0,0,1,1.47-.57Z" transform="translate(-0.53 -0.48)"/><rect class="cls-2" x="8.52" y="42.39" width="3.15" height="3.05" transform="translate(51.46 26.85) rotate(81.34)"/><rect class="cls-2" x="31.57" y="38.88" width="3.15" height="3.05" transform="translate(67.57 1.07) rotate(81.34)"/><rect class="cls-2" x="29.02" y="33.23" width="3.15" height="3.05" transform="translate(38.09 -11.33) rotate(51.34)"/><rect class="cls-2" x="10.94" y="47.92" width="3.15" height="3.05" transform="translate(42.78 8.3) rotate(51.34)"/><rect class="cls-2" x="27.33" y="49.74" width="3.15" height="3.05" transform="translate(-26.22 28.8) rotate(-38.66)"/><rect class="cls-2" x="12.76" y="31.53" width="3.15" height="3.05" transform="translate(-18.04 15.71) rotate(-38.66)"/><rect class="cls-2" x="15.8" y="51.5" width="3.15" height="3.05" transform="translate(13.73 108.25) rotate(-158.66)"/><rect class="cls-2" x="9.18" y="36.39" width="3.15" height="3.05" transform="translate(49.46 41.21) rotate(111.34)"/><rect class="cls-2" x="30.91" y="44.88" width="3.15" height="3.05" transform="translate(87 32.56) rotate(111.34)"/></svg>