<svg id="Layer_1" data-name="Layer 1" xmlns="http://www.w3.org/2000/svg" viewBox="0 0 63 63"><defs><style>.cls-1{fill:#fb397d;}.cls-2{fill:#fff;}.cls-3{fill:none;stroke:#fb397d;stroke-miterlimit:10;stroke-width:3.49px;}</style></defs><title>IIT JEE - Advanced</title><rect class="cls-1" width="63" height="63" rx="6.89" ry="6.89"/><path class="cls-2" d="M26.13,25.37s7.79-11.28,17.8-13.67L52.67,20s-5.24,16.69-25,25.43l-9.2-7.92.93-2.41A29.13,29.13,0,0,0,8.64,38.4S13.15,21.51,26.13,25.37Z" transform="translate(-0.6 -0.5)"/><path class="cls-2" d="M53.15,18.74,45.2,11.33s4.77-2.54,9-1.7C54.2,9.63,54.42,16.84,53.15,18.74Z" transform="translate(-0.6 -0.5)"/><path class="cls-2" d="M17.94,38.25l8.93,7.51S21.53,56.3,9.56,53.89C9.56,53.89,8.78,43,17.94,38.25Z" transform="translate(-0.6 -0.5)"/><path class="cls-2" d="M18,40.68l5.89,5.21s-3.52,7.31-11.42,5.64C12.48,51.53,12,44,18,40.68Z" transform="translate(-0.6 -0.5)"/><path class="cls-1" d="M18.06,42.8,21.69,46s-2.17,4.51-7,3.48C14.66,49.49,14.34,44.84,18.06,42.8Z" transform="translate(-0.6 -0.5)"/><circle class="cls-1" cx="41.1" cy="21.64" r="2.7"/><circle class="cls-2" cx="37.22" cy="38.41" r="12.28"/><rect class="cls-1" x="34.74" y="29.05" width="2.65" height="1.72" transform="translate(-3.63 3.59) rotate(-6.23)"/><rect class="cls-1" x="28.97" y="32.6" width="2.65" height="1.72" transform="translate(-14.93 39.81) rotate(-56.58)"/><rect class="cls-1" x="44.94" y="36.66" width="2.65" height="1.72" transform="translate(13.96 87.46) rotate(-96.89)"/><rect class="cls-1" x="41.51" y="30.67" width="2.65" height="1.72" transform="matrix(0.8, 0.61, -0.61, 0.8, 27.29, -20.01)"/><rect class="cls-1" x="30.78" y="44.96" width="2.65" height="1.72" transform="matrix(0.81, 0.59, -0.59, 0.81, 32.83, -10.61)"/><rect class="cls-1" x="27.32" y="39.21" width="2.65" height="1.72" transform="translate(64.3 6.23) rotate(82.95)"/><rect class="cls-1" x="43.21" y="43.24" width="2.65" height="1.72" transform="translate(105.62 32.53) rotate(125.11)"/><rect class="cls-1" x="37.44" y="46.62" width="2.65" height="1.72" transform="translate(-6.23 4.72) rotate(-7.18)"/><circle class="cls-3" cx="37.41" cy="38.69" r="6.64" transform="translate(-10.27 64.25) rotate(-74.93)"/></svg>