<svg id="Layer_1" data-name="Layer 1" xmlns="http://www.w3.org/2000/svg" viewBox="0 0 13.38 9.05"><defs><style>.cls-1,.cls-2,.cls-3,.cls-4{fill:none;stroke:#fff;}.cls-1,.cls-2,.cls-3{stroke-miterlimit:10;}.cls-1{stroke-width:0.15px;}.cls-2{stroke-width:0.25px;}.cls-3{stroke-width:0.15px;}.cls-4{stroke-linecap:round;stroke-linejoin:round;stroke-width:0.35px;}.cls-5{fill:#fff;}</style></defs><title>Notification_color</title><path class="cls-1" d="M6.2,3.55S5.53,4.66,1.75,4.89c-2,.67-1.56,3.78,0,4.23v1.78s.67,1.11,1.33.22V9.34s.67-.44,3.34,1.11A6,6,0,0,1,6.2,3.55Z" transform="translate(-0.33 -2.49)"/><path class="cls-2" d="M3.53,4.66c-.56,1-.78,3.67,0,4.67" transform="translate(-0.33 -2.49)"/><path class="cls-2" d="M2,5.23A5.6,5.6,0,0,0,4.63,5" transform="translate(-0.33 -2.49)"/><path class="cls-3" d="M9.2,6.94c0,2.18-.87,4-1.95,3.95s-2-1.77-2-3.95S6.18,3,7.25,3,9.2,4.76,9.2,6.94Z" transform="translate(-0.33 -2.49)"/><line class="cls-4" x1="9.64" y1="1.95" x2="11.42" y2="0.17"/><line class="cls-4" x1="10.28" y1="3.14" x2="12.57" y2="2.11"/><line class="cls-4" x1="9.87" y1="6.7" x2="11.65" y2="8.47"/><line class="cls-4" x1="10.5" y1="5.51" x2="12.79" y2="6.54"/><line class="cls-4" x1="10.53" y1="4.4" x2="13.2" y2="4.4"/><path class="cls-5" d="M7.09,5.78V8.22C9.09,8,8.87,5.78,7.09,5.78Z" transform="translate(-0.33 -2.49)"/></svg>