<svg id="Layer_1" data-name="Layer 1" xmlns="http://www.w3.org/2000/svg" viewBox="0 0 94.42 63.98"><defs><style>.cls-1{fill:#4d4d4d;}.cls-2,.cls-4,.cls-5{fill:none;stroke-miterlimit:10;}.cls-2{stroke:#fff;stroke-width:0.75px;}.cls-3{fill:#666766;}.cls-4{stroke:#000;stroke-width:0.5px;}.cls-5{stroke:#666766;stroke-width:2px;}</style></defs><title>Notification_Gray</title><path class="cls-1" d="M54.11,29.34s-4.8,8-32,9.6c-14.4,4.8-11.2,27.2,0,30.4v12.8s4.8,8,9.6,1.6V70.93s4.8-3.2,24,8C55.22,80.05,38.11,56.53,54.11,29.34Z" transform="translate(-12.48 -22.23)"/><path class="cls-2" d="M34.91,37.34c-4,7.2-5.6,26.4,0,33.6" transform="translate(-12.48 -22.23)"/><path class="cls-2" d="M23.75,41.41c7,.82,13.48.41,19.12-1.74" transform="translate(-12.48 -22.23)"/><path class="cls-3" d="M60.51,45.34v17.6C74.9,61.33,73.31,45.34,60.51,45.34Z" transform="translate(-12.48 -22.23)"/><path class="cls-4" d="M75.7,53.73c0,15.68-6.27,28.55-14,28.4C55,82,47,69.42,47,53.73s7-28.4,14.71-28.4S75.7,38.05,75.7,53.73Z" transform="translate(-12.48 -22.23)"/><line class="cls-5" x1="68.83" y1="13.51" x2="81.63" y2="0.71"/><line class="cls-5" x1="73.37" y1="22.01" x2="89.88" y2="14.6"/><line class="cls-5" x1="70.43" y1="47.6" x2="83.23" y2="60.4"/><line class="cls-5" x1="74.97" y1="39.1" x2="91.48" y2="46.51"/><line class="cls-5" x1="75.23" y1="31.1" x2="94.42" y2="31.1"/></svg>