<svg id="Layer_1" data-name="Layer 1" xmlns="http://www.w3.org/2000/svg" viewBox="0 0 30 30"><defs><style>.cls-1{fill:#fcced9;}.cls-2{fill:#ffa5b4;}.cls-3{fill:#ff376d;}.cls-4{fill:#fff;}</style></defs><title>All India Live 32 x 32</title><circle class="cls-1" cx="15" cy="15" r="15"/><circle class="cls-2" cx="15" cy="15" r="12.76"/><circle class="cls-3" cx="15" cy="15" r="10.53"/><path class="cls-4" d="M12.45,17.89c0,.07,0,.14,0,.19a1,1,0,0,1,0,.12.1.1,0,0,1-.05.07.09.09,0,0,1-.06,0H10.1a.28.28,0,0,1-.2-.08A.26.26,0,0,1,9.81,18V13.64a.09.09,0,0,1,0-.07.12.12,0,0,1,.08-.05l.15,0h.47l.15,0,.08.05a.14.14,0,0,1,0,.07v3.85H12.3l.06,0a.18.18,0,0,1,.05.07,1,1,0,0,1,0,.12C12.44,17.75,12.45,17.82,12.45,17.89Z" transform="translate(-1 -1)"/><path class="cls-4" d="M14,18.16a.09.09,0,0,1,0,.07.13.13,0,0,1-.07.05l-.15,0h-.48l-.15,0L13,18.23a.14.14,0,0,1,0-.07V13.64a.14.14,0,0,1,0-.07.19.19,0,0,1,.09-.05l.15,0h.47l.15,0a.13.13,0,0,1,.07.05.09.09,0,0,1,0,.07Z" transform="translate(-1 -1)"/><path class="cls-4" d="M17.43,18.13a.31.31,0,0,1-.05.1l-.09.06-.19,0h-.73l-.12,0-.08,0-.05-.05,0-.08-1.42-4.25a1.5,1.5,0,0,1-.06-.22.12.12,0,0,1,0-.11.27.27,0,0,1,.16,0h.57l.15,0a.17.17,0,0,1,.08.06.46.46,0,0,1,0,.09l1.17,3.7h0L18,13.68a.23.23,0,0,1,0-.1.11.11,0,0,1,.07-.06.35.35,0,0,1,.16,0h.54a.32.32,0,0,1,.13,0,.17.17,0,0,1,0,.13,1.36,1.36,0,0,1-.06.2Z" transform="translate(-1 -1)"/><path class="cls-4" d="M22.37,17.92a.81.81,0,0,1,0,.17.37.37,0,0,1,0,.12l-.05.07-.06,0H19.82a.32.32,0,0,1-.21-.08.29.29,0,0,1-.08-.23V13.81a.33.33,0,0,1,.08-.24.38.38,0,0,1,.21-.07h2.39l.06,0a.1.1,0,0,1,.05.07l0,.11v.36l0,.12a.18.18,0,0,1-.05.07l-.06,0H20.5v1.17H22a.07.07,0,0,1,.06,0,.1.1,0,0,1,0,.06l0,.11s0,.11,0,.18,0,.13,0,.18a.81.81,0,0,1,0,.11.1.1,0,0,1,0,.06l-.06,0H20.5v1.35h1.73l.06,0,.05.07a.37.37,0,0,1,0,.12A.87.87,0,0,1,22.37,17.92Z" transform="translate(-1 -1)"/></svg>