<svg xmlns="http://www.w3.org/2000/svg" viewBox="0 0 23.5 23.5"><defs><style>.cls-1{isolation:isolate;}.cls-2{fill:#d5d5d4;}.cls-3{fill:#aeb8b5;}.cls-4{fill:#6d7f86;}.cls-5{fill:#14afbe;}.cls-13,.cls-6{fill:none;}.cls-7{fill:#3d3d37;}.cls-8{fill:#d9d3af;stroke-width:3.12px;}.cls-13,.cls-8{stroke:#f2d65f;stroke-miterlimit:10;}.cls-9{fill:#f2d65f;}.cls-10{opacity:0.15;mix-blend-mode:multiply;}.cls-11{fill:#020400;}.cls-12{fill:#2b2b24;}.cls-13{stroke-width:0.25px;}.cls-14{fill:#47484f;}</style></defs><title>college predictor_24 x 24</title><g class="cls-1"><g id="Layer_1" data-name="Layer 1"><path class="cls-2" d="M21.28,5.93a.39.39,0,0,0-.51-.16.36.36,0,0,0-.16.49,2.89,2.89,0,0,1,.16.37,4.78,4.78,0,0,1,.25,1A5.34,5.34,0,0,1,20.33,11a.36.36,0,0,0,.16.49.39.39,0,0,0,.52-.15,6,6,0,0,0,.76-3.78,5.55,5.55,0,0,0-.29-1.17A3.37,3.37,0,0,0,21.28,5.93Z" transform="translate(-0.25 -0.25)"/><polygon class="cls-3" points="8.01 16.58 6.72 15.44 8.93 13.16 10.22 14.3 8.01 16.58"/><polygon class="cls-4" points="7.68 17.9 5.37 15.86 6.72 15.44 8.01 16.58 7.68 17.9"/><path class="cls-5" d="M.75,23.35h0a1.46,1.46,0,0,1-.09-2.13l5-5.12,2.31,2L3,23.27A1.62,1.62,0,0,1,.75,23.35Z" transform="translate(-0.25 -0.25)"/><path class="cls-6" d="M20.12,3.34a7.57,7.57,0,0,0-10.36.38,6.8,6.8,0,0,0,.4,9.91,7.57,7.57,0,0,0,10.36-.38A6.8,6.8,0,0,0,20.12,3.34Z" transform="translate(-0.25 -0.25)"/><path class="cls-5" d="M21,2.44a8.9,8.9,0,0,0-12.17.45A8,8,0,0,0,9.3,14.52a8.9,8.9,0,0,0,12.17-.45A8,8,0,0,0,21,2.44ZM10.17,13.62a6.8,6.8,0,0,1-.4-9.91,7.57,7.57,0,0,1,10.36-.38,6.8,6.8,0,0,1,.4,9.91A7.57,7.57,0,0,1,10.17,13.62Z" transform="translate(-0.25 -0.25)"/><path class="cls-7" d="M12.21,7.75l0,2.32h0c0,.45,1.34,1.11,2.62,1.1s2.49-.7,2.49-1.15h0l0-2.32Z" transform="translate(-0.25 -0.25)"/><path class="cls-8" d="M12.64,9.08" transform="translate(-0.25 -0.25)"/><path class="cls-9" d="M12.64,9.39s-.22,0-.21.26,0,.42.22.52a.44.44,0,0,0,.45,0s-.15,0-.15-.19a1.7,1.7,0,0,0,0-.42A.22.22,0,0,0,12.64,9.39Z" transform="translate(-0.25 -0.25)"/><g class="cls-10"><ellipse class="cls-11" cx="12.65" cy="10.25" rx="0.25" ry="0.23" transform="matrix(1, -0.01, 0.01, 1, -0.35, -0.12)"/></g><ellipse class="cls-9" cx="12.65" cy="9.21" rx="0.25" ry="0.23" transform="matrix(1, -0.01, 0.01, 1, -0.34, -0.12)"/><polygon class="cls-12" points="10.1 6.83 14.62 4.35 18.93 6.74 14.6 9.21 10.1 6.83"/><polyline class="cls-13" points="14.33 6.71 12.4 8.04 12.41 8.9"/><polygon class="cls-14" points="7.67 17.91 5.36 15.87 6.72 15.44 8.01 16.58 7.67 17.91"/></g></g></svg>