<svg id="Layer_1" data-name="Layer 1" xmlns="http://www.w3.org/2000/svg" viewBox="0 0 15.56 15.45"><defs><style>.cls-1{fill:none;stroke:#fe6c6d;stroke-miterlimit:10;stroke-width:0.64px;}.cls-2{fill:#38bbb5;}.cls-3{fill:#fe6c6d;}</style></defs><title>contact us-final</title><line class="cls-1" x1="8.81" y1="0.01" x2="8.81" y2="2.01"/><line class="cls-1" x1="3.82" y1="2.33" x2="5.18" y2="3.8"/><line class="cls-1" x1="11.53" y1="10.52" x2="12.9" y2="11.99"/><line class="cls-1" x1="13.67" y1="2.27" x2="12.25" y2="3.69"/><circle class="cls-1" cx="8.81" cy="6.75" r="6.43"/><line class="cls-1" x1="14.99" y1="6.75" x2="13.63" y2="6.75"/><path class="cls-2" d="M10.89,13.49,9.21,11.8a.88.88,0,0,0-1.24,0l-.85.85-.17-.09a8.46,8.46,0,0,1-2-1.48,8.51,8.51,0,0,1-1.48-2l-.09-.16.57-.57L4.18,8a.88.88,0,0,0,0-1.24L2.52,5.11a.88.88,0,0,0-1.24,0L.8,5.61h0a2.75,2.75,0,0,0-.39.69A2.86,2.86,0,0,0,.25,7C0,8.87.87,10.55,3.16,12.84,6.32,16,8.88,15.77,9,15.76a2.85,2.85,0,0,0,.7-.18,2.74,2.74,0,0,0,.69-.39h0l.48-.47A.88.88,0,0,0,10.89,13.49Z" transform="translate(-0.21 -0.32)"/><path class="cls-3" d="M6.4,9V8.35a2.38,2.38,0,0,1,.34-.43,6.88,6.88,0,0,1,.66-.56h0q.82-.64.82-1.05a.48.48,0,0,0-.14-.37.55.55,0,0,0-.39-.13A.61.61,0,0,0,7.26,6a.65.65,0,0,0-.2.42l-.64-.12a1.23,1.23,0,0,1,.43-.76,1.33,1.33,0,0,1,.86-.27,1.21,1.21,0,0,1,.86.3,1,1,0,0,1,.33.79A1.13,1.13,0,0,1,8.7,7,3.14,3.14,0,0,1,8,7.67l-.28.2a2.24,2.24,0,0,0-.62.56h1.8V9Z" transform="translate(-0.21 -0.32)"/><path class="cls-3" d="M11,9.06V8.17H9.35V7.51l1.59-2.22h.69V7.63h.54v.54h-.54v.88ZM9.86,7.64H11V6Z" transform="translate(-0.21 -0.32)"/></svg>