<svg id="Layer_1" data-name="Layer 1" xmlns="http://www.w3.org/2000/svg" viewBox="0 0 23.19 18.81"><defs><style>.cls-1{fill:#ffe05f;}.cls-2{fill:#dedbd6;}.cls-2,.cls-3{stroke:#dedbd6;stroke-miterlimit:10;stroke-width:0.4px;}.cls-3{fill:#fff;}.cls-4{fill:#d0caca;}.cls-5{fill:#ffcdd8;}.cls-6{fill:#fdfdfd;}.cls-7{fill:#f181b3;}.cls-8{fill:#f4d9e2;}.cls-9{fill:#e2567b;}</style></defs><title>Daily Scoop 24×24</title><path class="cls-1" d="M12.76,2.94s-7-.72-10.26,2.76c0,0-4.51,6.5,5,14.6,0,0,5,3.21,9.81-.14,0,0,6.28-3.62,6.06-10.8,0,0,.09-5.15-10.44-6.42" transform="translate(-0.45 -2.87)"/><polygon class="cls-2" points="12.22 11.43 14.79 13.1 14.77 11.68 12.98 10.53 12.22 11.43"/><path class="cls-3" d="M1.64,6A.45.45,0,0,0,.89,6l-.24.51S.58,6.86,1,7l11.83,7.39c1.93.7,2,.29.58-1Z" transform="translate(-0.45 -2.87)"/><path class="cls-4" d="M17.59,17.85a5.76,5.76,0,0,0,4.47-.63,3.14,3.14,0,0,0,1.15-1.67l-.49-.1S22.6,17.56,17.59,17.85Z" transform="translate(-0.45 -2.87)"/><path class="cls-5" d="M14.61,14.65s.54,3.36,3.79,3.23A6.62,6.62,0,0,0,22,16.8a2.31,2.31,0,0,0,.85-1.38" transform="translate(-0.45 -2.87)"/><path class="cls-6" d="M14.76,14.66a3.54,3.54,0,0,0,3.14,2.87,3.93,3.93,0,0,1-2-2.25" transform="translate(-0.45 -2.87)"/><path class="cls-7" d="M14.62,14.64s.25,0,.36.41c0,0,.26.85,1,.2,0,0,.57-.29.72.11,0,0,.07.26-.31.62,0,0-.26.66.43.71a.47.47,0,0,0,.46-.66s-.23-.67.38-.69c0,0,.33.1.31.3,0,0,.37,1,1,.27,0,0,.41-.53.67-.27,0,0,.26.07,0,.67a.5.5,0,0,0,.43.76s.66,0,.4-.7a.53.53,0,0,1,.49-.73.61.61,0,0,1,.53.65s.06.63.64.39c0,0,.24-.12.09-.77,0,0,.15-.71,1-.31a4.4,4.4,0,0,0,.35-2.78,4.43,4.43,0,0,0-3.63-3.37A4.75,4.75,0,0,0,15.51,11S14.44,11.95,14.62,14.64Z" transform="translate(-0.45 -2.87)"/><path class="cls-8" d="M14.65,13s1.29,1.95,4.14.63a2.92,2.92,0,0,0,.86-4.17,4.76,4.76,0,0,0-3.59,1.05A4.23,4.23,0,0,0,14.65,13Z" transform="translate(-0.45 -2.87)"/><path class="cls-9" d="M16.55,12.45s2-.19,2.17-1.88c0,0-.27-1.2-2.06,0C16.67,10.53,14.9,11.86,16.55,12.45Z" transform="translate(-0.45 -2.87)"/></svg>