<svg id="Layer_1" data-name="Layer 1" xmlns="http://www.w3.org/2000/svg" xmlns:xlink="http://www.w3.org/1999/xlink" viewBox="0 0 30.22 25.12"><defs><style>.cls-1{fill:url(#linear-gradient);}.cls-2{fill:#f5f5f5;}.cls-3{fill:#f58220;}.cls-4{fill:#001fff;}.cls-5{fill:#a5b9db;}.cls-6{fill:#8ca6e0;}.cls-7{fill:#7695e5;}.cls-8{fill:#5e82ea;}.cls-9{fill:#4469f2;}.cls-10{fill:#284bf9;}.cls-11{fill:#7005a8;}</style><linearGradient id="linear-gradient" x1="0.78" y1="16.37" x2="31" y2="16.37" gradientUnits="userSpaceOnUse"><stop offset="0.01" stop-color="#cc2e4c"/><stop offset="0.12" stop-color="#a52453"/><stop offset="0.25" stop-color="#7d195a"/><stop offset="0.39" stop-color="#5b1060"/><stop offset="0.54" stop-color="#400964"/><stop offset="0.68" stop-color="#2e0467"/><stop offset="0.84" stop-color="#230169"/><stop offset="1" stop-color="#1f006a"/></linearGradient></defs><title>Dash Board 32 x 32</title><path class="cls-1" d="M8.09,28.93a3.27,3.27,0,0,1,3.85-3.08V23.06H2.6S.78,22.67.78,21.32v-16A1.8,1.8,0,0,1,2.41,3.8H29.56S31,4.19,31,5.44v16s-.48,1.64-1.83,1.64H19.74v2.69a3.52,3.52,0,0,1,3.94,3.18Z" transform="translate(-0.78 -3.8)"/><rect class="cls-2" x="0.58" y="3.08" width="28.97" height="11.94"/><path class="cls-3" d="M5.68,4.24h.39a.19.19,0,0,1,.19.19V14a0,0,0,0,1,0,0H5.49a0,0,0,0,1,0,0V4.43A.19.19,0,0,1,5.68,4.24Z"/><path class="cls-3" d="M24.94,17.28H5.11V17H24.94a.09.09,0,0,1,.09.1v.09A.09.09,0,0,1,24.94,17.28Z" transform="translate(-0.78 -3.8)"/><rect class="cls-4" x="21.56" y="6.16" width="1.83" height="6.55"/><rect class="cls-5" x="7.12" y="9.72" width="1.83" height="2.98"/><rect class="cls-6" x="9.53" y="8.76" width="1.73" height="3.95"/><rect class="cls-7" x="11.94" y="10.68" width="1.73" height="2.02"/><rect class="cls-8" x="14.25" y="9.91" width="1.83" height="2.79"/><rect class="cls-9" x="16.75" y="8.95" width="1.83" height="3.75"/><rect class="cls-10" x="19.16" y="7.6" width="1.83" height="5.1"/><polygon class="cls-11" points="7.12 8.95 11.46 6.93 14.25 8.37 20.21 5.39 20.7 5.58 20.7 4.81 19.16 4.81 19.44 5 14.34 7.6 11.46 6.16 7.12 8.18 7.12 8.95"/></svg>