<svg id="Layer_1" data-name="Layer 1" xmlns="http://www.w3.org/2000/svg" viewBox="0 0 22.2 23.13"><defs><style>.cls-1{fill:#515151;}.cls-2{fill:#e8d47c;}.cls-2,.cls-3,.cls-5{stroke:#bb9d41;stroke-miterlimit:10;}.cls-2,.cls-3{stroke-width:0.2px;}.cls-3{fill:#ffeea4;}.cls-4{fill:#191919;}.cls-5{fill:#fc8754;stroke-width:0.4px;}.cls-6{fill:#666;}</style></defs><title>Einsten Icon 24×24</title><path class="cls-1" d="M20.09,17.94a1,1,0,0,0,1.18.63.88.88,0,0,1,.53.47,1.88,1.88,0,0,0-1-2.16,2.38,2.38,0,0,0,0-1.27,1.38,1.38,0,0,1,.6.9,1.39,1.39,0,0,0,0-1.06A2.87,2.87,0,0,1,22.29,17a1.49,1.49,0,0,0,.13-2.09A9.69,9.69,0,0,1,21,13.08s.69-.37,1.06,0a1.42,1.42,0,0,0-.78-1.25L21,11.4s1.28.17,1.47-1.43a.87.87,0,0,1-1.35.05s1.56-.64,1.41-1.71c0,0-.87.73-1.34.45,0,0,.06-1.16,1-1A1.25,1.25,0,0,0,20.78,7s-.45-.13-.21-.41c0,0,.22-.68.91,0,0,0-.12-.87-1.87-.92A1.59,1.59,0,0,0,18,3.94s-.36-1,.51-1.39c0,0-.67-.58-1.52.5,0,0,.15-1.42-1-1.52,0,0,.16,1.23-1.47.73H13.4a.85.85,0,0,1,.8-.6,3.58,3.58,0,0,0-2.48,1.09,9.27,9.27,0,0,0,1.35-2s-1.79.82-2,1.95a2.41,2.41,0,0,1,.09-1.39l.06-1a2.77,2.77,0,0,0-.68,3,1.93,1.93,0,0,1-1-1.83,1.9,1.9,0,0,0,0,1.82,2,2,0,0,0-1.49-.42,2.06,2.06,0,0,1,.62.93S7.19,2.72,6.2,3.25c0,0,1.17.22,1.41.79a4.4,4.4,0,0,1-1.86-.47,4.76,4.76,0,0,1,1,1s-1.3,0-1.49.23A2,2,0,0,1,4.18,5s.38.56,1.46.35c0,0-2.27.9-2.56,1.95,0,0,1.16-.24,1.31.09,0,0-1.84.08-2.23.79,0,0,1,.32,1.3.72A1.22,1.22,0,0,0,2,9.83a6.37,6.37,0,0,1-.73,1.42s1.09-1.41,1.5-1A5.3,5.3,0,0,0,.59,13.72l1.16-1.18a1.89,1.89,0,0,0-.49,1.56s.58-.15,1.09-1.28c0,0-.09,1.36-.37,1.54,0,0,.57-.34.63-.81s0-.56.16-.72a9.85,9.85,0,0,1-.43,3A3.06,3.06,0,0,0,3,14s.4.14.64-.38c0,0-.84,3.14-1.34,3.4a2.09,2.09,0,0,0,2.12-1.11s-.16,1.79-.93,1.95c0,0,1.13.24,1.26-.67,0,0-.31,1,0,1.42,0,0,.39-.63.67-.74a2.9,2.9,0,0,0-.28,1.46,1.91,1.91,0,0,0,1.34.1.8.8,0,0,1-.57-1.24,1.37,1.37,0,0,0,1.13.18" transform="translate(-0.59 -0.28)"/><path class="cls-2" d="M6.85,16.58s-2.1-2.65,1.57-3" transform="translate(-0.59 -0.28)"/><path class="cls-2" d="M17.16,13.48s3.44.34,1.37,3.1" transform="translate(-0.59 -0.28)"/><path class="cls-3" d="M7.74,10.32v4.4s-2.83,4.65-.44,6.09a2.16,2.16,0,0,1,.33.24,9.69,9.69,0,0,0,3.44,1.45s1.81,1.81,3.22,0c0,0,6.32-1,4.46-5.47l-1.13-2.43-.06-4.29S16,8.12,12.31,10A4.79,4.79,0,0,1,7.74,10.32Z" transform="translate(-0.59 -0.28)"/><circle class="cls-4" cx="14.12" cy="14.02" r="0.76"/><circle class="cls-4" cx="10.06" cy="14.02" r="0.76"/><path class="cls-5" d="M10.84,19.13s-.34.79,1.69,1c0,0,2.26,0,2.28-1" transform="translate(-0.59 -0.28)"/><path class="cls-6" d="M9.32,19.13h7a3.29,3.29,0,0,0-2.09-2.54c-.56,1.52-2.2,1.58-2.88,0A4.09,4.09,0,0,0,9.32,19.13Z" transform="translate(-0.59 -0.28)"/></svg>