<svg id="Layer_1" data-name="Layer 1" xmlns="http://www.w3.org/2000/svg" viewBox="0 0 116.55 121.08"><defs><style>.cls-1{fill:#f7931e;}.cls-2,.cls-5{fill:none;}.cls-3{fill:#2272b0;}.cls-4{fill:#fff;}.cls-5{stroke:#f7931e;stroke-miterlimit:10;stroke-width:4px;}</style></defs><title>Feedback</title><path class="cls-1" d="M27.73,100.21s-1.46,0-1.48,0C5.5,121,4.75,126.73,4.39,118V34.56A24.67,24.67,0,0,1,29.06,9.89H97.22a.13.13,0,0,1,.11.17,58.64,58.64,0,0,1-3.66,8.36.13.13,0,0,1-.12.07H31.27c-15,0-17.2,10.72-17.92,13.61a.11.11,0,0,0,0,0v69.23a.12.12,0,0,0,.2.09c1.93-1.9,7-9.83,13.42-9.83H73.57c12.9,0,37.28-8.6,36.24-41.55,5.46-10.44,8.92-18.71,8.93-18.66,1.5,24.77,1.43,68.1-47.94,68.81Z" transform="translate(-4.39 -0.84)"/><path class="cls-2" d="M30.91,24.59" transform="translate(-4.39 -0.84)"/><path class="cls-3" d="M106.58,9.65,87.67,47.38a.58.58,0,0,0-.05.16L85,62.6a.47.47,0,0,0,.79.44L97.3,52.41a.58.58,0,0,0,.12-.17l18.9-37.71a.51.51,0,0,0-.19-.69l-8.89-4.45A.51.51,0,0,0,106.58,9.65Z" transform="translate(-4.39 -0.84)"/><path class="cls-3" d="M111.21.46h5.22a2.81,2.81,0,0,1,2.81,2.81V8.55a2.81,2.81,0,0,1-2.81,2.81h-5.22a0,0,0,0,1,0,0V.46A0,0,0,0,1,111.21.46Z" transform="translate(53.93 105.44) rotate(-63.38)"/><polygon class="cls-4" points="85.89 49.45 89.14 51.07 85.66 55.32 84.58 54.77 85.89 49.45"/><line class="cls-5" x1="21.11" y1="30.66" x2="37.11" y2="30.66"/><line class="cls-5" x1="21.11" y1="48.66" x2="72.11" y2="48.66"/><line class="cls-5" x1="21.11" y1="71.66" x2="58.11" y2="71.66"/><line class="cls-5" x1="65.11" y1="71.66" x2="90.11" y2="71.66"/><line class="cls-5" x1="49.11" y1="30.66" x2="78.11" y2="30.66"/></svg>