<svg id="Layer_1" data-name="Layer 1" xmlns="http://www.w3.org/2000/svg" viewBox="0 0 131 131"><defs><style>.cls-1{fill:#00b4ad;}.cls-2{fill:#fff;}.cls-3{fill:none;stroke:#fff;stroke-linecap:round;stroke-linejoin:round;stroke-width:2px;}</style></defs><title>live zone</title><circle class="cls-1" cx="65.5" cy="65.5" r="65.5"/><circle class="cls-2" cx="65.5" cy="55.25" r="26.01"/><path class="cls-2" d="M125.08,105.13c-26.59,15-8.25,36.56-4.62,46.24,2.29,6.12,2.56,9.7,2.49,11.43a1.24,1.24,0,0,0,1.25,1.28h12.09V103.67A49.29,49.29,0,0,0,125.08,105.13Z" transform="translate(-68.5 -66.5)"/><path class="cls-2" d="M142.92,105.13c26.59,15,8.25,36.56,4.62,46.24-2.29,6.12-2.56,9.7-2.49,11.43a1.24,1.24,0,0,1-1.25,1.28H131.72V103.67A49.29,49.29,0,0,1,142.92,105.13Z" transform="translate(-68.5 -66.5)"/><path class="cls-2" d="M124.26,172.19h19.48C142.66,183.75,123.81,182.11,124.26,172.19Z" transform="translate(-68.5 -66.5)"/><line class="cls-3" x1="56.25" y1="99.91" x2="74.75" y2="99.91"/><line class="cls-3" x1="56.25" y1="103.38" x2="74.75" y2="103.38"/><line class="cls-3" x1="64.76" y1="9.53" x2="64.76" y2="16.53"/><line class="cls-3" x1="15.26" y1="65.03" x2="22.26" y2="65.03"/><line class="cls-3" x1="108.76" y1="65.53" x2="115.76" y2="65.53"/><line class="cls-3" x1="30.28" y1="24.56" x2="35.23" y2="29.51"/><line class="cls-3" x1="105.23" y1="24.56" x2="100.28" y2="29.51"/><line class="cls-3" x1="29.28" y1="98.51" x2="34.23" y2="93.56"/><line class="cls-3" x1="101.23" y1="97.51" x2="96.28" y2="92.56"/></svg>