<svg id="Layer_1" data-name="Layer 1" xmlns="http://www.w3.org/2000/svg" viewBox="0 0 197.36 216.63"><defs><style>.cls-1,.cls-3{fill:none;stroke:#289cd7;stroke-miterlimit:10;}.cls-1{stroke-width:5px;}.cls-2{fill:#289cd7;}.cls-3{stroke-width:2px;}</style></defs><title>upcoming</title><rect class="cls-1" x="2.5" y="19.36" width="192.36" height="194.78" rx="21.22" ry="21.22"/><line class="cls-1" x1="62.99" x2="62.99" y2="53.23"/><line class="cls-1" x1="135.58" x2="135.58" y2="53.23"/><line class="cls-1" x1="4.92" y1="79.85" x2="194.86" y2="79.85"/><rect class="cls-2" x="55" y="93.15" width="15.73" height="15.73"/><rect class="cls-2" x="91.62" y="93.15" width="15.73" height="15.73"/><rect class="cls-2" x="128.24" y="93.15" width="15.73" height="15.73"/><rect class="cls-2" x="164.85" y="93.15" width="15.73" height="15.73"/><rect class="cls-2" x="55" y="123.4" width="15.73" height="15.73"/><rect class="cls-2" x="18.23" y="123.4" width="15.73" height="15.73"/><rect class="cls-2" x="91.62" y="123.4" width="15.73" height="15.73"/><rect class="cls-2" x="128.24" y="123.4" width="15.73" height="15.73"/><rect class="cls-2" x="164.85" y="123.4" width="15.73" height="15.73"/><rect class="cls-2" x="55" y="151.22" width="15.73" height="15.73"/><rect class="cls-2" x="18.23" y="151.22" width="15.73" height="15.73"/><rect class="cls-2" x="91.62" y="151.22" width="15.73" height="15.73"/><rect class="cls-2" x="128.24" y="151.22" width="15.73" height="15.73"/><rect class="cls-2" x="164.85" y="151.22" width="15.73" height="15.73"/><rect class="cls-2" x="55" y="182.68" width="15.73" height="15.73"/><rect class="cls-2" x="18.23" y="182.68" width="15.73" height="15.73"/><rect class="cls-2" x="91.62" y="182.68" width="15.73" height="15.73"/><circle class="cls-3" cx="135.58" cy="159.48" r="15.73"/></svg>