<svg id="Layer_1" data-name="Layer 1" xmlns="http://www.w3.org/2000/svg" xmlns:xlink="http://www.w3.org/1999/xlink" viewBox="0 0 30.67 20.5"><defs><style>.cls-1{fill:url(#linear-gradient);}.cls-2{fill:#fff;}.cls-3{fill:url(#linear-gradient-2);}.cls-4{fill:#f99528;}.cls-5{fill:#c96b05;}.cls-6{fill:#ff8b00;}.cls-7{fill:url(#linear-gradient-3);}.cls-8{fill:url(#linear-gradient-4);}</style><linearGradient id="linear-gradient" x1="0.33" y1="18.59" x2="19.43" y2="18.59" gradientUnits="userSpaceOnUse"><stop offset="0" stop-color="#00550a"/><stop offset="0.99" stop-color="#005b97"/></linearGradient><linearGradient id="linear-gradient-2" x1="6.14" y1="2.53" x2="11.21" y2="2.53" gradientUnits="userSpaceOnUse"><stop offset="0.01" stop-color="#005b97"/><stop offset="1" stop-color="#00550a"/></linearGradient><linearGradient id="linear-gradient-3" x1="21.06" y1="22.06" x2="31" y2="22.06" xlink:href="#linear-gradient"/><linearGradient id="linear-gradient-4" x1="24.66" y1="10.44" x2="28.51" y2="10.44" xlink:href="#linear-gradient-2"/></defs><title>Parent Login 32 x 32</title><path class="cls-1" d="M9.66,22.69,5,25.44s-3.41,2-4.52-.63c0,0-.42-.83.21-2.85L4.35,12a2.2,2.2,0,0,1,3.33-.55A5.33,5.33,0,0,1,9,14.12l.63,1.73L13,12.45a1.47,1.47,0,0,1,1.95,2.08L10.74,19l8,4.1A1.84,1.84,0,0,1,19,25.65s-.48,1-2.29.55Z" transform="translate(-0.33 -5.89)"/><polygon class="cls-2" points="5.83 14.27 7.29 13.65 6.8 12.26 5.83 14.27"/><circle class="cls-3" cx="8.68" cy="2.53" r="2.53"/><path class="cls-4" d="M11.33,13l-.17-.16s.62-.83.77-1c0,0,1.59-1.59,1.72-1.66a12.09,12.09,0,0,1,1.47-.93l.17.46a13.27,13.27,0,0,0-1.55.89l-1.36,1.17a.08.08,0,0,0,0,0Z" transform="translate(-0.33 -5.89)"/><path class="cls-5" d="M11.81,13.34l-.12-.16s.69-.56.85-.66c0,0,1.67-1,1.8-1A10.31,10.31,0,0,1,15.79,11l.07.4a12.33,12.33,0,0,0-1.51.42l-1.4.68,0,0Z" transform="translate(-0.33 -5.89)"/><path class="cls-6" d="M11.58,13.14,11.47,13s.69-.72.85-.86c0,0,1.65-1.3,1.77-1.35a10.13,10.13,0,0,1,1.4-.66l0,.49a10.89,10.89,0,0,0-1.46.61l-1.38.91s0,0,0,0Z" transform="translate(-0.33 -5.89)"/><path class="cls-7" d="M25.57,24.77,23,26.21a1.35,1.35,0,0,1-1.41-2.28l2.92-1.56a2.16,2.16,0,0,1-.38-.85l-.54-2.65a1.17,1.17,0,0,1,1-1.15s1.14-.06,1.24.89l.22.93,1.86-1.19s1.23-.41,1.72.5a24.28,24.28,0,0,1,.92,2.75s.43,1.81.42,2,.2,1.6-.34,2a2.07,2.07,0,0,1-2.24.61A25.23,25.23,0,0,1,25.57,24.77Z" transform="translate(-0.33 -5.89)"/><polygon class="cls-2" points="26.03 16.38 26.86 15.71 27.39 17.11 26.03 16.38"/><circle class="cls-8" cx="26.59" cy="10.44" r="1.92"/></svg>