<svg id="Layer_1" data-name="Layer 1" xmlns="http://www.w3.org/2000/svg" xmlns:xlink="http://www.w3.org/1999/xlink" viewBox="0 0 29.93 31.55"><defs><style>.cls-1,.cls-11,.cls-2{fill:none;}.cls-2{stroke-linecap:square;stroke-linejoin:bevel;stroke-width:2px;stroke:url(#linear-gradient);}.cls-3{fill:url(#linear-gradient-2);}.cls-4{fill:url(#linear-gradient-3);}.cls-5{fill:url(#linear-gradient-4);}.cls-6{fill:url(#linear-gradient-5);}.cls-7{fill:url(#linear-gradient-6);}.cls-8{fill:url(#linear-gradient-7);}.cls-9{fill:url(#linear-gradient-8);}.cls-10{fill:url(#linear-gradient-9);}.cls-11{stroke:#f7941d;stroke-miterlimit:10;stroke-width:0.65px;}.cls-12{fill:url(#linear-gradient-10);}</style><linearGradient id="linear-gradient" x1="0.53" y1="16.03" x2="29.92" y2="16.03" gradientUnits="userSpaceOnUse"><stop offset="0" stop-color="#f7941d"/><stop offset="0.02" stop-color="#f49322"/><stop offset="0.51" stop-color="#ac7489"/><stop offset="0.84" stop-color="#7f61cb"/><stop offset="1" stop-color="#6e5ae4"/></linearGradient><linearGradient id="linear-gradient-2" x1="0" y1="5.03" x2="29.39" y2="5.03" xlink:href="#linear-gradient"/><linearGradient id="linear-gradient-3" x1="25.96" y1="24.4" x2="29.04" y2="24.4" gradientUnits="userSpaceOnUse"><stop offset="0" stop-color="#925ae4"/><stop offset="0.27" stop-color="#875ae4"/><stop offset="1" stop-color="#6e5ae4"/></linearGradient><linearGradient id="linear-gradient-4" x1="26.84" y1="23.1" x2="29.51" y2="23.1" xlink:href="#linear-gradient-3"/><linearGradient id="linear-gradient-5" x1="27.67" y1="21.88" x2="29.76" y2="21.88" xlink:href="#linear-gradient-3"/><linearGradient id="linear-gradient-6" x1="28.85" y1="20.9" x2="30.47" y2="20.9" xlink:href="#linear-gradient-3"/><linearGradient id="linear-gradient-7" x1="29.44" y1="19.66" x2="30.47" y2="19.66" xlink:href="#linear-gradient-3"/><linearGradient id="linear-gradient-8" x1="29.42" y1="18.03" x2="29.93" y2="18.03" xlink:href="#linear-gradient-3"/><linearGradient id="linear-gradient-9" x1="27.78" y1="20.44" x2="29.75" y2="20.44" gradientTransform="matrix(0.73, 0.73, -0.93, 0.93, 25.31, -13.91)" gradientUnits="userSpaceOnUse"><stop offset="0" stop-color="#925ae4"/><stop offset="0.52" stop-color="#7d5ae4"/><stop offset="1" stop-color="#6e5ae4"/></linearGradient><linearGradient id="linear-gradient-10" x1="8.68" y1="16.03" x2="21.78" y2="16.03" gradientUnits="userSpaceOnUse"><stop offset="0" stop-color="#f7941d"/><stop offset="0.18" stop-color="#dd8943"/><stop offset="0.75" stop-color="#8e67b6"/><stop offset="1" stop-color="#6e5ae4"/></linearGradient></defs><title>Previous Year Icon Tick Mark</title><path class="cls-1" d="M27.66,27.36" transform="translate(-0.53 -0.26)"/><path class="cls-2" d="M26.09,27.08a14.77,14.77,0,1,1-2.77-24s.86.53,1.9,1.34" transform="translate(-0.53 -0.26)"/><polygon class="cls-3" points="20.07 5.94 28.32 9.49 27.27 0.57 20.07 5.94"/><polygon class="cls-4" points="25.96 24.9 26.68 23.9 29.05 23.9 28.63 24.9 25.96 24.9"/><polygon class="cls-5" points="26.84 23.58 27.48 22.62 29.51 22.62 29.22 23.58 26.84 23.58"/><polygon class="cls-6" points="27.67 22.34 28.16 21.42 29.76 21.42 29.55 22.34 27.67 22.34"/><path class="cls-7" d="M29.25,20.41a4,4,0,0,1-.4,1h1.49l.12-1Z" transform="translate(-0.53 -0.26)"/><path class="cls-8" d="M29.44,20.11a3.54,3.54,0,0,0,.36-.9h.67v.9Z" transform="translate(-0.53 -0.26)"/><polygon class="cls-9" points="29.42 18.5 29.93 18.5 29.86 17.57 29.42 18.5"/><path class="cls-10" d="M28.89,25.7a14.11,14.11,0,0,1-1.84,1.86l-.88-1.91" transform="translate(-0.53 -0.26)"/><rect class="cls-11" x="6.12" y="8.86" width="10.3" height="14.72"/><path class="cls-12" d="M21.78,14.29c0,.11,0,.15-.13.18a12.61,12.61,0,0,0-5.33,4.63,21.54,21.54,0,0,0-2.09,3.66c-.1.22-.15.26-.34.07q-2.21-2.19-4.44-4.37c-.21-.21-.43-.42-.65-.62s-.17-.22,0-.32c.56-.26,1.13-.53,1.67-.82a.39.39,0,0,1,.55.1c.92.92,1.85,1.83,2.78,2.74.26.26.26.26.38-.1a18.36,18.36,0,0,1,1.63-3.28,82.07,82.07,0,0,1,4.64-6.87c0-.07.08-.19.18-.16s.07.15.08.23q.5,2.44,1,4.87Z" transform="translate(-0.53 -0.26)"/><line class="cls-11" x1="8.15" y1="11.65" x2="14.15" y2="11.65"/><line class="cls-11" x1="8.15" y1="13.55" x2="11.69" y2="13.55"/></svg>