<svg id="Layer_1" data-name="Layer 1" xmlns="http://www.w3.org/2000/svg" xmlns:xlink="http://www.w3.org/1999/xlink" viewBox="0 0 30.18 31.8"><defs><style>.cls-1,.cls-2{fill:none;}.cls-2{stroke-linecap:square;stroke-linejoin:bevel;stroke-width:2px;stroke:url(#linear-gradient);}.cls-3{fill:url(#linear-gradient-2);}.cls-4{fill:url(#linear-gradient-3);}.cls-5{fill:url(#linear-gradient-4);}.cls-6{fill:url(#linear-gradient-5);}.cls-7{fill:url(#linear-gradient-6);}.cls-8{fill:url(#linear-gradient-7);}.cls-9{fill:url(#linear-gradient-8);}.cls-10{fill:url(#linear-gradient-9);}.cls-11{fill:url(#linear-gradient-10);}.cls-12{fill:url(#linear-gradient-11);}.cls-13{fill:url(#linear-gradient-12);}</style><linearGradient id="linear-gradient" x1="0.57" y1="16.03" x2="30.2" y2="16.03" gradientUnits="userSpaceOnUse"><stop offset="0" stop-color="#f7941d"/><stop offset="0.02" stop-color="#f49322"/><stop offset="0.51" stop-color="#ac7489"/><stop offset="0.84" stop-color="#7f61cb"/><stop offset="1" stop-color="#6e5ae4"/></linearGradient><linearGradient id="linear-gradient-2" x1="0" y1="5.1" x2="29.63" y2="5.1" xlink:href="#linear-gradient"/><linearGradient id="linear-gradient-3" x1="26.18" y1="24.6" x2="29.29" y2="24.6" gradientUnits="userSpaceOnUse"><stop offset="0" stop-color="#925ae4"/><stop offset="0.27" stop-color="#875ae4"/><stop offset="1" stop-color="#6e5ae4"/></linearGradient><linearGradient id="linear-gradient-4" x1="27.06" y1="23.29" x2="29.75" y2="23.29" xlink:href="#linear-gradient-3"/><linearGradient id="linear-gradient-5" x1="27.89" y1="22.06" x2="30.01" y2="22.06" xlink:href="#linear-gradient-3"/><linearGradient id="linear-gradient-6" x1="29.12" y1="20.94" x2="30.75" y2="20.94" xlink:href="#linear-gradient-3"/><linearGradient id="linear-gradient-7" x1="29.71" y1="19.69" x2="30.75" y2="19.69" xlink:href="#linear-gradient-3"/><linearGradient id="linear-gradient-8" x1="29.66" y1="18.18" x2="30.18" y2="18.18" xlink:href="#linear-gradient-3"/><linearGradient id="linear-gradient-9" x1="10.58" y1="16.29" x2="21.69" y2="16.29" gradientUnits="userSpaceOnUse"><stop offset="0" stop-color="#f7941d"/><stop offset="0.18" stop-color="#dd8943"/><stop offset="0.75" stop-color="#8e67b6"/><stop offset="1" stop-color="#6e5ae4"/></linearGradient><linearGradient id="linear-gradient-10" x1="15.86" y1="20.2" x2="23.07" y2="20.2" xlink:href="#linear-gradient-9"/><linearGradient id="linear-gradient-11" x1="13.24" y1="16.39" x2="21.69" y2="16.39" xlink:href="#linear-gradient-9"/><linearGradient id="linear-gradient-12" x1="28" y1="20.35" x2="29.99" y2="20.35" gradientTransform="matrix(0.73, 0.73, -0.93, 0.93, 25.31, -13.91)" gradientUnits="userSpaceOnUse"><stop offset="0" stop-color="#925ae4"/><stop offset="0.52" stop-color="#7d5ae4"/><stop offset="1" stop-color="#6e5ae4"/></linearGradient></defs><title>Previous Year Icon</title><path class="cls-1" d="M27.92,27.45" transform="translate(-0.57 -0.13)"/><path class="cls-2" d="M26.33,27.17A14.9,14.9,0,1,1,23.54,2.94s.89.55,2,1.38" transform="translate(-0.57 -0.13)"/><polygon class="cls-3" points="20.32 6 28.55 9.56 27.52 0.65 20.32 6"/><polygon class="cls-4" points="26.18 25.1 26.9 24.1 29.29 24.1 28.87 25.1 26.18 25.1"/><polygon class="cls-5" points="27.07 23.78 27.71 22.81 29.75 22.81 29.46 23.78 27.07 23.78"/><polygon class="cls-6" points="27.89 22.52 28.4 21.59 30.01 21.59 29.79 22.52 27.89 22.52"/><path class="cls-7" d="M29.53,20.45a4,4,0,0,1-.41,1h1.5l.13-1Z" transform="translate(-0.57 -0.13)"/><path class="cls-8" d="M29.71,20.14a3.57,3.57,0,0,0,.36-.91h.68v.91Z" transform="translate(-0.57 -0.13)"/><polygon class="cls-9" points="29.66 18.65 30.18 18.65 30.11 17.71 29.66 18.65"/><path class="cls-10" d="M21.68,11.19s-1.06,1.12-3.37-.2a6,6,0,0,0-6.14,1.45,5.56,5.56,0,0,0-.86,6.61s1.92,4.33,7.66,2.31a3.84,3.84,0,0,0-1.59-1.72s-4,.94-4.62-2.82v0a3.88,3.88,0,0,1,3.83-4.21,7.13,7.13,0,0,1,1.65.33,5,5,0,0,0,1.92.07S21.81,12.64,21.68,11.19Z" transform="translate(-0.57 -0.13)"/><path class="cls-11" d="M15.86,18.72a3.36,3.36,0,0,1,2.51-.4,3.67,3.67,0,0,1,1.85,1.32s1,1.45,1.45,1.59a4.92,4.92,0,0,0,1.39.59s-.59.66-2.38.2A3.4,3.4,0,0,1,19.1,20.7a4.42,4.42,0,0,0-1.72-1.59A4.54,4.54,0,0,0,15.86,18.72Z" transform="translate(-0.57 -0.13)"/><path class="cls-12" d="M19.17,18.19a3.11,3.11,0,0,0-.86-3.57,2.87,2.87,0,0,0-3.7-.07,3.8,3.8,0,0,0-1.06,1.65,5.09,5.09,0,0,0-.07,1.26,3.53,3.53,0,0,1-.13-2.18,4.12,4.12,0,0,1,2-2.11,3.55,3.55,0,0,1,1.78-.07,9.05,9.05,0,0,0,2,.4s.92.07,1.12-.13a5.28,5.28,0,0,1,1.39,3.57s-.13,2.18-.86,2.84A7.16,7.16,0,0,0,19.17,18.19Z" transform="translate(-0.57 -0.13)"/><path class="cls-13" d="M29.16,25.79a14.23,14.23,0,0,1-1.85,1.88l-.89-1.93" transform="translate(-0.57 -0.13)"/></svg>