<svg id="Layer_1" data-name="Layer 1" xmlns="http://www.w3.org/2000/svg" viewBox="0 0 31.5 31.5"><defs><style>.cls-1,.cls-2{fill:none;stroke:#cd213b;}.cls-1{stroke-linecap:square;stroke-linejoin:bevel;}.cls-2{stroke-linecap:round;stroke-miterlimit:10;}.cls-3{fill:#cd213b;}.cls-4{fill:#fff;}</style></defs><title>Rank accelerators_32 x 32</title><path class="cls-1" d="M30.06,10.07a15.25,15.25,0,1,1-6-7" transform="translate(-0.25 -0.25)"/><line class="cls-2" x1="4.68" y1="25.86" x2="11.08" y2="19.46"/><line class="cls-2" x1="6.02" y1="27.21" x2="15.27" y2="17.96"/><line class="cls-2" x1="7.46" y1="28.47" x2="13.86" y2="22.07"/><path class="cls-3" d="M23.94,15c8.1-6.54,7-12.21,7-12.21l-.07-.07s-5.68-1.09-12.21,7l-3,.78-2.28,2.69a.18.18,0,0,0,.08.29l3,.87a3.38,3.38,0,0,0,.22,1.28l-.84.84a.37.37,0,0,0,0,.53l.73.73a.37.37,0,0,0,.53,0l.85-.85a3.39,3.39,0,0,0,1.26.21l.87,3a.18.18,0,0,0,.29.08l2.69-2.28Z" transform="translate(-0.25 -0.25)"/><circle class="cls-4" cx="22.96" cy="10.68" r="1.73" transform="translate(-1.08 19.11) rotate(-45)"/></svg>