<svg id="Layer_1" data-name="Layer 1" xmlns="http://www.w3.org/2000/svg" viewBox="0 0 31.75 30.25"><defs><style>.cls-1{fill:#d3ad0f;}.cls-2{fill:#fff;}.cls-3,.cls-4,.cls-5,.cls-6{fill:none;stroke:#d3ad0f;stroke-miterlimit:10;}.cls-3{stroke-width:2.25px;}.cls-4{stroke-width:2px;}.cls-5{stroke-width:1.25px;}.cls-6{stroke-width:1.5px;}</style></defs><title>Toppers_Icon_32 x 32</title><path class="cls-1" d="M16.19,23.34h-.34c-5.37,0-9.75-3.88-9.76-8.71L6,1.74a.46.46,0,0,1,.48-.43l18.85-.05a.46.46,0,0,1,.48.43l0,12.9C25.9,19.41,21.56,23.33,16.19,23.34Z" transform="translate(-0.13 -1.25)"/><path class="cls-2" d="M16,20.25h0c-3.94,0-7.14-2.84-7.15-6.38l0-9.49,14.26,0,0,9.49C23.12,17.37,19.94,20.24,16,20.25Z" transform="translate(-0.13 -1.25)"/><path class="cls-3" d="M7.16,4.38H1.25V14s.63,1.34,2.66.83" transform="translate(-0.13 -1.25)"/><path class="cls-3" d="M24.81,4.35l5.91,0,0,9.64s-.62,1.34-2.65.84" transform="translate(-0.13 -1.25)"/><line class="cls-4" x1="15.61" y1="20.59" x2="15.61" y2="27.55"/><line class="cls-5" x1="19.49" y1="27.03" x2="11.73" y2="27.03"/><line class="cls-6" x1="9.02" y1="29.5" x2="22.2" y2="29.5"/><polygon class="cls-1" points="16.84 9.23 18.98 9.52 17.43 10.86 17.79 12.78 15.88 11.87 13.96 12.77 14.34 10.86 12.79 9.5 14.93 9.23 15.89 7.49 16.84 9.23"/></svg>