<svg id="Layer_1" data-name="Layer 1" xmlns="http://www.w3.org/2000/svg" viewBox="0 0 30.71 31.09"><defs><style>.cls-1,.cls-2,.cls-3,.cls-5{fill:none;stroke-miterlimit:10;}.cls-1,.cls-2,.cls-5{stroke:#408417;}.cls-1{stroke-width:1.43px;}.cls-2{stroke-width:1.79px;}.cls-3{stroke:#000;stroke-width:1.49px;}.cls-4{fill:#408417;}.cls-5{stroke-width:2.1px;}</style></defs><title>Useful Links 32 x 32</title><path class="cls-1" d="M22.42,20.66a2.31,2.31,0,0,0-3.59.13L16.58,23s-1.44,1.2.17,2.9c0,0,1,1.57,3.39-.58" transform="translate(-0.5 -0.37)"/><path class="cls-1" d="M21.77,17.85s2-2.74,3.72-.72a1.87,1.87,0,0,1,.06,2.68L22.39,23a2.22,2.22,0,0,1-2.84-.55" transform="translate(-0.5 -0.37)"/><path class="cls-2" d="M26.74,30.57H15.55A3.57,3.57,0,0,1,12,27V9.94a3.57,3.57,0,0,1,3.57-3.57h6.78A2,2,0,0,1,23.79,7l6.1,6.66a1.64,1.64,0,0,1,.43,1.09V27A3.57,3.57,0,0,1,26.74,30.57Z" transform="translate(-0.5 -0.37)"/><path class="cls-3" d="M30.45,13.48" transform="translate(-0.5 -0.37)"/><path class="cls-4" d="M23.35,6.59v5.78a1.54,1.54,0,0,0,1.56,1.52h5.5Z" transform="translate(-0.5 -0.37)"/><path class="cls-5" d="M9.17,26.82H4.79a3.17,3.17,0,0,1-3.24-3.1V4.53a3.17,3.17,0,0,1,3.24-3.1H13a2.94,2.94,0,0,1,3,3.1" transform="translate(-0.5 -0.37)"/></svg>