<svg id="Layer_1" data-name="Layer 1" xmlns="http://www.w3.org/2000/svg" xmlns:xlink="http://www.w3.org/1999/xlink" viewBox="0 0 29 27.57"><defs><style>.cls-1{fill:url(#linear-gradient);}.cls-2{fill:url(#linear-gradient-2);}.cls-3{fill:url(#linear-gradient-3);}.cls-4{fill:url(#linear-gradient-4);}.cls-5{fill:#fff;}</style><linearGradient id="linear-gradient" x1="1.5" y1="18.15" x2="30.5" y2="18.15" gradientUnits="userSpaceOnUse"><stop offset="0" stop-color="#15bfae"/><stop offset="0.12" stop-color="#12b6b0"/><stop offset="0.31" stop-color="#0b9cb6"/><stop offset="0.54" stop-color="#0075be"/><stop offset="0.99" stop-color="#005b97"/></linearGradient><linearGradient id="linear-gradient-2" x1="11.39" y1="1.59" x2="14.57" y2="1.59" xlink:href="#linear-gradient"/><linearGradient id="linear-gradient-3" x1="16.02" y1="3.75" x2="18.85" y2="3.75" xlink:href="#linear-gradient"/><linearGradient id="linear-gradient-4" x1="3.73" y1="8.18" x2="27.89" y2="8.18" xlink:href="#linear-gradient"/></defs><title>Wallet Icon - 32 x 32</title><path class="cls-1" d="M10.64,6.51H20.75a4.72,4.72,0,0,1,2.76,1.14S29,12.17,30.06,16c0,0,1.78,5.8-1.84,9.62,0,0-4.53,5.74-16.93,3.72,0,0-14.11-2.63-8.45-15.44,0,0,3.25-5,5.85-6.5A4.68,4.68,0,0,1,10.64,6.51Z" transform="translate(-1.5 -2.21)"/><circle class="cls-2" cx="12.98" cy="1.59" r="1.59"/><path class="cls-3" d="M17.32,2.22a1.53,1.53,0,0,0-1.3.72,1.51,1.51,0,0,1,.25.84,1.59,1.59,0,0,1-.23.81,1.53,1.53,0,1,0,1.28-2.37Z" transform="translate(-1.5 -2.21)"/><path class="cls-4" d="M3.75,11.21a2.59,2.59,0,0,1,.59-1.9,42.58,42.58,0,0,1,4.14-3.6,4.34,4.34,0,0,1,2.28-.57H21a6.94,6.94,0,0,1,2.46.77s3.7,3,4,3.68a3.19,3.19,0,0,1,.33,1.6s-3.6-4-4.63-4.45a4,4,0,0,0-1.95-.81H10.83a3.37,3.37,0,0,0-2.48.79S3.93,10.49,3.75,11.21Z" transform="translate(-1.5 -2.21)"/><path class="cls-5" d="M12.09,11.39h8.7a11.81,11.81,0,0,1-.87,1.27H17.6A3.07,3.07,0,0,1,18.25,14h2.48s0,0,0,0c-.55.84-.84,1.25-.85,1.25H18.31a3.63,3.63,0,0,1-.61,1.55,3.8,3.8,0,0,1-1.42,1.18,5.59,5.59,0,0,1-2.43.61v0a3.36,3.36,0,0,0,.57.75l4.3,5.18v.25s0,0,0,0H16.78q-5.1-5.94-5.1-6v-1.2l0,0a6.56,6.56,0,0,0,1.06.07c1.9,0,3.09-.62,3.55-1.86a1.55,1.55,0,0,0,.11-.56H11.25s0,0,0,0c.57-.84.86-1.25.88-1.25h4.1v0a2.36,2.36,0,0,0-1.36-1.11,4.2,4.2,0,0,0-1.31-.24H11.23v0C11.78,11.8,12.07,11.39,12.09,11.39Z" transform="translate(-1.5 -2.21)"/></svg>