<svg id="Layer_1" data-name="Layer 1" xmlns="http://www.w3.org/2000/svg" viewBox="0 0 15.71 9.79"><defs><style>.cls-1{fill:#e6e6e6;}.cls-1,.cls-2{stroke:#333;stroke-width:0.25px;}.cls-1,.cls-2,.cls-4{stroke-miterlimit:10;}.cls-2{fill:#d0effc;}.cls-3,.cls-4{fill:#000a5c;}.cls-4{stroke:aqua;stroke-width:0.04px;}</style></defs><title>class and standard_Final</title><path class="cls-1" d="M13.29,7.7H2.73L.27,10.23a0,0,0,0,0,0,.08H15.67a0,0,0,0,0,0-.08Z" transform="translate(-0.13 -0.65)"/><path class="cls-2" d="M3.14.12h9.48a.5.5,0,0,1,.5.5V6.86a0,0,0,0,1,0,0H2.64a0,0,0,0,1,0,0V.62a.5.5,0,0,1,.5-.5Z"/><rect class="cls-3" x="9.68" y="3.66" width="0.1" height="0.96" transform="translate(19.34 7.64) rotate(180)"/><path class="cls-3" d="M9.46,5.73a.58.58,0,0,0,.58,0L9.83,5a.13.13,0,0,1-.17,0Z" transform="translate(-0.13 -0.65)"/><ellipse class="cls-3" cx="9.6" cy="4.17" rx="0.17" ry="0.21"/><path class="cls-3" d="M6.41,4.64a2,2,0,0,0,2.83,0V3.83l-1.45.42L6.41,3.87Z" transform="translate(-0.13 -0.65)"/><polygon class="cls-3" points="7.63 3.62 9.96 2.93 7.66 2.47 5.36 2.95 7.63 3.62"/><polygon class="cls-4" points="7.63 3.53 9.88 2.92 7.65 2.37 5.44 2.94 7.63 3.53"/></svg>