<svg id="Layer_1" data-name="Layer 1" xmlns="http://www.w3.org/2000/svg" viewBox="0 0 14.41 13.92"><defs><style>.cls-1,.cls-4,.cls-6{fill:#289cd7;}.cls-2,.cls-3{fill:none;}.cls-2,.cls-3,.cls-4,.cls-6{stroke:#289cd7;}.cls-2,.cls-3,.cls-4,.cls-5,.cls-6{stroke-miterlimit:10;}.cls-2,.cls-4,.cls-5{stroke-width:0.5px;}.cls-3,.cls-6{stroke-width:0.25px;}.cls-5{fill:#fff;stroke:#fff;}</style></defs><title>Standard New</title><path class="cls-1" d="M10.89,3.36l3-1.1a.16.16,0,0,0,0-.31L10.05.74a.72.72,0,0,0-.46,0L6.34,1.93a.15.15,0,0,0,0,.29L10.1,3.38A1.24,1.24,0,0,0,10.89,3.36Z" transform="translate(-1.05 -0.71)"/><path class="cls-2" d="M14.23,12l-3.46,2.4H2.85S2,14.4,2,13.18a.87.87,0,0,1,.85-1.09H12l3.19-2" transform="translate(-1.05 -0.71)"/><line class="cls-2" x1="9.24" y1="11.92" x2="9.24" y2="13.67"/><line class="cls-3" x1="1.82" y1="12.15" x2="3.74" y2="12.15"/><line class="cls-3" x1="1.82" y1="12.79" x2="4.53" y2="12.79"/><line class="cls-3" x1="3.18" y1="10.56" x2="5.23" y2="10.56"/><line class="cls-3" x1="3.18" y1="9.92" x2="6.07" y2="9.92"/><line class="cls-3" x1="1.22" y1="7.67" x2="4.98" y2="7.67"/><line class="cls-3" x1="1.22" y1="8.31" x2="6.53" y2="8.31"/><line class="cls-2" x1="10.45" y1="9.69" x2="10.45" y2="11.44"/><line class="cls-2" x1="8.51" y1="7.44" x2="8.51" y2="9.19"/><path class="cls-2" d="M2.18,7.67h7.94l4-1.87a0,0,0,0,0,0-.05L7.69,5.28a.43.43,0,0,0-.2,0L2.16,7.61A0,0,0,0,0,2.18,7.67Z" transform="translate(-1.05 -0.71)"/><path class="cls-4" d="M14.13,7.37a.67.67,0,0,0-.39.09L9.9,9.71l2,.21a.67.67,0,0,0,.4-.08l3-1.67v-.7Z" transform="translate(-1.05 -0.71)"/><path class="cls-2" d="M2.16,7.61a1.21,1.21,0,0,0-.85,1.33.79.79,0,0,0,.85,1h9.52" transform="translate(-1.05 -0.71)"/><path class="cls-2" d="M4,12.08a1.39,1.39,0,0,1-.9-1.27S3,9.65,5.25,9.9" transform="translate(-1.05 -0.71)"/><ellipse class="cls-5" cx="9.11" cy="4.53" rx="2.68" ry="1.32"/><path class="cls-6" d="M7.85,3.5V5.73a.06.06,0,0,0,0,.06l2.3.54a.4.4,0,0,0,.2,0l1.9-.52a.13.13,0,0,0,.09-.12V3.75a0,0,0,0,0,0,0l-1.64.37L7.92,3.45A.06.06,0,0,0,7.85,3.5Z" transform="translate(-1.05 -0.71)"/><line class="cls-3" x1="5.67" y1="4.33" x2="5.67" y2="2.98"/><line class="cls-3" x1="5" y1="4.33" x2="5" y2="2.98"/><line class="cls-3" x1="5.34" y1="4.67" x2="5.34" y2="1.36"/><ellipse class="cls-6" cx="5.33" cy="2.94" rx="0.38" ry="0.43"/></svg>