<?xml version="1.0"?>
<svg xmlns="http://www.w3.org/2000/svg" enable-background="new 0 0 32 32" height="512px" viewBox="0 0 32 32" width="512px"><g><g id="Layer_1"><circle cx="16" cy="16" fill="#e6e7e8" r="14" data-original="#E6E7E8"/><path d="m16 22.5077c3.5931 0 6.5077-2.9145 6.5077-6.5077s-2.9146-6.5077-6.5077-6.5077-6.5077 2.9146-6.5077 6.5077 2.9146 6.5077 6.5077 6.5077zm-2.789-7.4374h1.8593v-1.8593c0-.5113.4184-.9297.9297-.9297.2557 0 .4881.1023.6554.2743.172.1673.2743.3997.2743.6554v1.8593h1.8593c.5113 0 .9297.4184.9297.9297 0 .2557-.1022.4881-.2743.6554-.1673.172-.3997.2743-.6554.2743h-1.8593v1.8593c0 .5113-.4184.9297-.9297.9297s-.9297-.4184-.9297-.9297v-1.8593h-1.8593c-.5113 0-.9297-.4184-.9297-.9297s.4184-.9297.9297-.9297z" fill="#231f20" data-original="#231F20" class="active-path" style="fill:#04458F" data-old_color="#231f20"/></g></g> </svg>
