<svg id="Capa_1" enable-background="new 0 0 510 510" height="512" viewBox="0 0 510 510" width="512" xmlns="http://www.w3.org/2000/svg" xmlns:xlink="http://www.w3.org/1999/xlink"><linearGradient id="lg1"><stop offset="0" stop-color="#8a7889"/><stop offset="1" stop-color="#6e566e"/></linearGradient><linearGradient id="SVGID_1_" gradientTransform="matrix(.707 -.707 .707 .707 1496.297 558.024)" gradientUnits="userSpaceOnUse" x1="-695.292" x2="-658.297" xlink:href="#lg1" y1="-1294.192" y2="-1253.17"/><linearGradient id="lg2"><stop offset="0" stop-color="#ffd945"/><stop offset=".3043" stop-color="#ffcd3e"/><stop offset=".8558" stop-color="#ffad2b"/><stop offset="1" stop-color="#ffa325"/></linearGradient><linearGradient id="SVGID_2_" gradientTransform="matrix(.707 -.707 .707 .707 1496.297 558.024)" gradientUnits="userSpaceOnUse" x1="-700.942" x2="-644.753" xlink:href="#lg2" y1="-1344.705" y2="-1282.4"/><linearGradient id="SVGID_3_" gradientTransform="matrix(.707 .707 -.707 .707 -602.579 -1458.17)" gradientUnits="userSpaceOnUse" x1="1831.25" x2="1868.245" xlink:href="#lg1" y1="402.802" y2="443.824"/><linearGradient id="SVGID_4_" gradientTransform="matrix(.707 .707 -.707 .707 -602.579 -1458.17)" gradientUnits="userSpaceOnUse" x1="1825.6" x2="1881.789" xlink:href="#lg2" y1="352.289" y2="414.594"/><linearGradient id="SVGID_5_" gradientUnits="userSpaceOnUse" x1="91.608" x2="127.193" xlink:href="#lg2" y1="426.919" y2="462.504"/><linearGradient id="SVGID_6_" gradientTransform="matrix(-1 0 0 1 2952.055 0)" gradientUnits="userSpaceOnUse" x1="2533.663" x2="2569.248" xlink:href="#lg2" y1="426.919" y2="462.504"/><linearGradient id="SVGID_7_" gradientUnits="userSpaceOnUse" x1="255" x2="255" xlink:href="#lg1" y1="78.302" y2="66.542"/><linearGradient id="SVGID_8_" gradientUnits="userSpaceOnUse" x1="255" x2="255" y1="41.999" y2="69.629"><stop offset="0" stop-color="#bdc2d1"/><stop offset=".2367" stop-color="#b5b6c5"/><stop offset=".6651" stop-color="#9e96a6"/><stop offset="1" stop-color="#8a7889"/></linearGradient><linearGradient id="SVGID_9_" gradientUnits="userSpaceOnUse" x1="215.331" x2="375.049" xlink:href="#lg2" y1="234.47" y2="411.572"/><linearGradient id="SVGID_10_" gradientTransform="matrix(-1 0 0 -1 2638 -2626.547)" gradientUnits="userSpaceOnUse" x1="2348.9" x2="2486.194" xlink:href="#lg2" y1="-2942.815" y2="-2790.578"/><linearGradient id="lg3"><stop offset="0" stop-color="#f8f6fb"/><stop offset="1" stop-color="#efdcfb"/></linearGradient><linearGradient id="SVGID_11_" gradientUnits="userSpaceOnUse" x1="224.53" x2="347.211" xlink:href="#lg3" y1="244.67" y2="380.705"/><linearGradient id="SVGID_12_" gradientTransform="matrix(-1 0 0 -1 3702 -6938)" gradientUnits="userSpaceOnUse" x1="3423.173" x2="3519.105" xlink:href="#lg3" y1="-7242.877" y2="-7136.503"/><linearGradient id="SVGID_13_" gradientTransform="matrix(-1 0 0 -1 3702 -7316.7)" gradientUnits="userSpaceOnUse" x1="3444.287" x2="3455.21" xlink:href="#lg3" y1="-7461.98" y2="-7449.868"/><linearGradient id="SVGID_14_" gradientTransform="matrix(-1 0 0 -1 3702 -7316.7)" gradientUnits="userSpaceOnUse" x1="3444.287" x2="3455.21" xlink:href="#lg3" y1="-7734.352" y2="-7722.24"/><linearGradient id="lg4"><stop offset="0" stop-color="#9b62cd"/><stop offset=".3003" stop-color="#985dcb"/><stop offset=".6716" stop-color="#8f4ec7"/><stop offset="1" stop-color="#833ac1"/></linearGradient><linearGradient id="SVGID_15_" gradientUnits="userSpaceOnUse" x1="252.997" x2="261.061" xlink:href="#lg4" y1="140.05" y2="148.992"/><linearGradient id="SVGID_16_" gradientUnits="userSpaceOnUse" x1="252.997" x2="261.061" xlink:href="#lg4" y1="412.422" y2="421.364"/><linearGradient id="SVGID_17_" gradientTransform="matrix(-1 0 0 -1 3702 -7316.7)" gradientUnits="userSpaceOnUse" x1="3308.101" x2="3319.024" xlink:href="#lg3" y1="-7598.166" y2="-7586.054"/><linearGradient id="SVGID_18_" gradientUnits="userSpaceOnUse" x1="389.183" x2="397.247" xlink:href="#lg4" y1="276.236" y2="285.178"/><linearGradient id="SVGID_19_" gradientTransform="matrix(-1 0 0 -1 3702 -7316.7)" gradientUnits="userSpaceOnUse" x1="3580.473" x2="3591.397" xlink:href="#lg3" y1="-7598.166" y2="-7586.054"/><linearGradient id="SVGID_20_" gradientUnits="userSpaceOnUse" x1="116.811" x2="124.875" xlink:href="#lg4" y1="276.236" y2="285.178"/><linearGradient id="lg5"><stop offset="0" stop-color="#efdcfb" stop-opacity="0"/><stop offset=".4856" stop-color="#baaad6" stop-opacity=".486"/><stop offset="1" stop-color="#8679b2"/></linearGradient><linearGradient id="SVGID_21_" gradientUnits="userSpaceOnUse" x1="308.866" x2="123.305" xlink:href="#lg5" y1="296.487" y2="194.836"/><linearGradient id="SVGID_22_" gradientUnits="userSpaceOnUse" x1="287.07" x2="225.575" xlink:href="#lg5" y1="315.21" y2="267.381"/><linearGradient id="SVGID_23_" gradientUnits="userSpaceOnUse" x1="293.094" x2="211.822" xlink:href="#lg5" y1="285.8" y2="263.264"/><linearGradient id="SVGID_24_" gradientUnits="userSpaceOnUse" x1="242.89" x2="267.11" y1="235.483" y2="235.483"><stop offset="0" stop-color="#92f37f"/><stop offset="1" stop-color="#4ab272"/></linearGradient><linearGradient id="SVGID_25_" gradientUnits="userSpaceOnUse" x1="263.109" x2="221.671" y1="231.393" y2="253.898"><stop offset="0" stop-color="#005a01" stop-opacity="0"/><stop offset="1" stop-color="#005a01"/></linearGradient><linearGradient id="SVGID_26_" gradientTransform="matrix(.907 -.42 .42 .907 2686.67 3924.307)" gradientUnits="userSpaceOnUse" x1="-694.304" x2="-636.2" xlink:href="#lg2" y1="-4399.694" y2="-4357.767"/><linearGradient id="SVGID_27_" gradientTransform="matrix(.907 -.42 .42 .907 2686.67 3924.307)" gradientUnits="userSpaceOnUse" x1="-658.439" x2="-734.863" y1="-4402.441" y2="-4288.525"><stop offset="0" stop-color="#f35227" stop-opacity="0"/><stop offset="1" stop-color="#f35227"/></linearGradient><linearGradient id="SVGID_28_" gradientUnits="userSpaceOnUse" x1="251.263" x2="266.308" y1="274.314" y2="290.996"><stop offset="0" stop-color="#ff819c"/><stop offset=".2594" stop-color="#ff7e9a"/><stop offset=".4757" stop-color="#fe7396"/><stop offset=".6765" stop-color="#fc628e"/><stop offset=".8668" stop-color="#fa4a83"/><stop offset="1" stop-color="#f83479"/></linearGradient><g><g><g><path d="m149.854 128.317-53.562 53.562-39.705-39.706 53.562-53.562z" fill="url(#SVGID_1_)"/><path d="m137.189 55.562c31.384 31.384-82.267 145.034-113.651 113.651s-31.384-82.267 0-113.651 82.267-31.384 113.651 0z" fill="url(#SVGID_2_)"/></g><g><path d="m413.708 181.879-53.562-53.562 39.705-39.706 53.562 53.562z" fill="url(#SVGID_3_)"/><path d="m486.462 169.213c-31.384 31.384-145.034-82.267-113.651-113.651s82.267-31.384 113.651 0 31.384 82.267 0 113.651z" fill="url(#SVGID_4_)"/></g></g><g><path d="m81.977 466.503c-10.783-10.783-10.783-28.265 0-39.048l29.691-29.691 39.048 39.048-29.691 29.691c-10.783 10.783-28.266 10.783-39.048 0z" fill="url(#SVGID_5_)"/><path d="m428.023 466.503c10.783-10.783 10.783-28.265 0-39.048l-29.691-29.691-39.048 39.048 29.691 29.691c10.783 10.783 28.266 10.783 39.048 0z" fill="url(#SVGID_6_)"/></g><g><path d="m230.07 62.725h49.86v27.338h-49.86z" fill="url(#SVGID_7_)"/><path d="m281.018 68.194h-52.036c-7.516 0-13.608-6.093-13.608-13.608 0-7.516 6.093-13.608 13.608-13.608h52.036c7.516 0 13.608 6.093 13.608 13.608.001 7.515-6.092 13.608-13.608 13.608z" fill="url(#SVGID_8_)"/></g><g><circle cx="255" cy="278.457" fill="url(#SVGID_9_)" r="199.519"/><circle cx="255" cy="278.457" fill="url(#SVGID_10_)" r="171.506"/><circle cx="255" cy="278.457" fill="url(#SVGID_11_)" r="153.253"/><circle cx="255" cy="278.457" fill="url(#SVGID_12_)" r="119.837"/><circle cx="255" cy="142.271" fill="url(#SVGID_13_)" r="13.645"/><circle cx="255" cy="414.643" fill="url(#SVGID_14_)" r="13.645"/><circle cx="255" cy="142.271" fill="url(#SVGID_15_)" r="10.074"/><circle cx="255" cy="414.643" fill="url(#SVGID_16_)" r="10.074"/><circle cx="391.186" cy="278.457" fill="url(#SVGID_17_)" r="13.645"/><circle cx="391.186" cy="278.457" fill="url(#SVGID_18_)" r="10.074"/><circle cx="118.814" cy="278.457" fill="url(#SVGID_19_)" r="13.645"/><circle cx="118.814" cy="278.457" fill="url(#SVGID_20_)" r="10.074"/><path d="m233.166 181.085c-.418-.666-1.058-1.217-1.917-1.532l-23.377-8.573c-1.986-.728-4.186.291-4.914 2.276l-8.572 23.372c-.484 1.321-.21 2.61.497 3.568l14.578 13.413c.081.874.471 1.662 1.051 2.269l31.422 67.813 111.889 111.889c17.156-14.49 31.086-32.677 40.557-53.338z" fill="url(#SVGID_21_)"/><path d="m375.791 372.78-106.354-106.353c-3.447-4.133-8.634-6.764-14.437-6.764-10.38 0-18.794 8.414-18.794 18.794 0 5.803 2.631 10.99 6.764 14.437l106.354 106.354c9.861-7.712 18.755-16.605 26.467-26.468z" fill="url(#SVGID_22_)"/><path d="m255 192.509c-6.688 0-12.11 54.924-12.11 62.471 0 6.455 3.967 19.032 9.3 22.541l110.228 110.228c15.054-14.797 27.066-32.675 35.009-52.619z" fill="url(#SVGID_23_)"/><g><path d="m267.11 254.981c0 7.547-5.422 23.477-12.11 23.477s-12.11-15.929-12.11-23.477 5.422-62.471 12.11-62.471c6.688-.001 12.11 54.923 12.11 62.471z" fill="url(#SVGID_24_)"/><path d="m267.11 254.981c0-7.547-5.422-62.471-12.11-62.471v85.948c6.688-.001 12.11-15.93 12.11-23.477z" fill="url(#SVGID_25_)"/></g><g><path d="m229.676 191.708 37.256 80.404c.642 1.386-.554 1.751-1.94 2.393l-19.978 9.254c-1.386.642-2.438 1.319-3.08-.067l-37.256-80.404c-.889-1.919-3.166-2.754-5.085-1.865-3.096 1.434-6.381-1.59-5.206-4.793l8.572-23.372c.728-1.986 2.928-3.005 4.914-2.276l23.377 8.573c3.204 1.175 3.388 5.636.292 7.07-1.921.888-2.756 3.164-1.866 5.083z" fill="url(#SVGID_26_)"/><path d="m264.992 274.505c1.386-.642 2.583-1.007 1.94-2.393l-37.256-80.404c-.889-1.919-.055-4.195 1.865-5.084 3.096-1.434 2.912-5.895-.292-7.07l-23.377-8.573c-.993-.364-2.04-.291-2.929.121l50.059 108.031z" fill="url(#SVGID_27_)"/></g><circle cx="255" cy="278.457" fill="url(#SVGID_28_)" r="18.794"/></g></g></svg>