<?xml version="1.0" standalone="no"?>
<!DOCTYPE svg PUBLIC "-//W3C//DTD SVG 20010904//EN"
 "http://www.w3.org/TR/2001/REC-SVG-20010904/DTD/svg10.dtd">
<svg version="1.0" xmlns="http://www.w3.org/2000/svg"
 width="260.000000pt" height="260.000000pt" viewBox="0 0 260.000000 260.000000"
 preserveAspectRatio="xMidYMid meet">
<metadata>
Created by potrace 1.11, written by Peter Selinger 2001-2013
</metadata>
<g transform="translate(0.000000,260.000000) scale(0.100000,-0.100000)"
fill="#000000" stroke="none">
<path d="M935 2550 c400 -90 701 -308 894 -645 59 -102 121 -256 146 -362 9
-40 19 -73 21 -73 2 0 4 248 4 550 l0 550 -572 -1 -573 -1 80 -18z"/>
<path d="M611 1738 l-1 -558 583 1 582 0 -87 19 c-184 38 -362 112 -513 211
-98 65 -263 228 -333 331 -96 141 -183 337 -216 491 -13 55 -14 1 -15 -495z"/>
<path d="M647 980 c-86 -22 -162 -76 -203 -145 -35 -61 -45 -99 -45 -184 0
-130 67 -232 191 -290 79 -37 192 -36 271 1 69 32 127 88 160 154 20 41 24 64
24 144 0 110 -21 166 -88 233 -74 74 -210 112 -310 87z m184 -107 c186 -95
180 -346 -11 -432 -92 -42 -189 -22 -265 54 -94 94 -101 218 -16 316 74 88
191 112 292 62z"/>
<path d="M689 846 c-47 -16 -86 -48 -116 -91 -43 -64 -53 -180 -14 -173 11 2
18 18 22 58 3 31 11 65 17 76 17 32 79 83 110 90 36 9 52 22 45 40 -6 17 -17
17 -64 0z"/>
<path d="M30 810 l0 -30 114 0 115 0 -111 -197 c-60 -109 -112 -201 -115 -205
-2 -5 70 -8 161 -8 l166 0 0 30 0 29 -114 3 -115 3 80 140 c45 77 97 168 116
203 l35 62 -166 0 -166 0 0 -30z"/>
<path d="M2460 765 c0 -42 -3 -55 -15 -55 -9 0 -15 -9 -15 -25 0 -15 6 -25 14
-25 11 0 15 -25 17 -115 4 -107 6 -116 29 -139 14 -13 40 -27 58 -31 29 -6 32
-4 32 18 0 16 -8 28 -25 35 -24 11 -25 14 -25 122 l0 110 30 0 c25 0 30 4 30
25 0 21 -5 25 -30 25 -30 0 -30 1 -30 55 l0 55 -35 0 -35 0 0 -55z"/>
<path d="M1130 540 l0 -170 35 0 35 0 0 125 c0 112 2 127 20 145 26 26 60 25
88 0 20 -19 22 -30 22 -145 l0 -125 29 0 29 0 4 126 c3 118 4 127 27 145 31
25 63 24 89 -4 20 -21 22 -34 22 -145 l0 -122 30 0 30 0 0 125 c0 142 -10 174
-62 201 -39 20 -92 13 -124 -17 l-24 -22 -24 22 c-32 30 -85 37 -124 17 -28
-15 -32 -15 -32 -1 0 11 -10 15 -35 15 l-35 0 0 -170z"/>
<path d="M1734 691 c-53 -24 -86 -71 -92 -131 -8 -91 34 -156 117 -181 49 -15
99 -6 145 26 l36 24 0 -29 c0 -27 3 -30 30 -30 l30 0 0 170 0 170 -30 0 c-27
0 -30 -3 -30 -32 0 -29 -1 -30 -18 -15 -25 23 -87 47 -119 47 -15 0 -46 -9
-69 -19z m147 -58 c29 -17 59 -67 59 -98 0 -27 -30 -71 -60 -89 -39 -23 -91
-20 -131 7 -120 80 7 254 132 180z"/>
<path d="M2050 540 l0 -170 30 0 30 0 0 91 c0 61 5 102 15 123 29 60 103 83
165 51 47 -24 60 -61 60 -170 l0 -95 30 0 30 0 0 110 c0 78 -4 119 -15 139
-48 93 -174 117 -259 50 l-26 -20 0 30 c0 28 -3 31 -30 31 l-30 0 0 -170z"/>
<path d="M1622 298 c-8 -8 -11 -40 -10 -87 1 -46 3 -60 5 -34 3 29 9 43 21 46
16 4 15 5 0 6 -13 1 -18 10 -18 31 0 17 7 33 18 39 9 6 12 11 7 11 -6 0 -16
-5 -23 -12z"/>
<path d="M1704 225 c0 -50 1 -71 3 -48 2 23 2 64 0 90 -2 26 -3 8 -3 -42z"/>
<path d="M1734 225 c0 -50 1 -71 3 -48 2 23 2 64 0 90 -2 26 -3 8 -3 -42z"/>
<path d="M1853 225 c0 -51 2 -75 6 -56 12 66 69 64 72 -3 2 -29 2 -29 6 -4 7
44 -14 71 -47 64 -28 -5 -29 -4 -33 42 -2 26 -4 7 -4 -43z"/>
<path d="M1423 200 c0 -41 2 -51 4 -25 3 22 10 43 16 47 9 6 9 8 0 8 -6 0 -14
8 -16 18 -3 9 -4 -12 -4 -48z"/>
<path d="M1479 213 c-13 -15 -12 -15 9 -2 19 12 25 12 45 0 20 -13 21 -13 8 2
-7 10 -21 17 -31 17 -10 0 -24 -7 -31 -17z"/>
<path d="M1663 185 c0 -27 2 -38 4 -22 2 15 2 37 0 50 -2 12 -4 0 -4 -28z"/>
<path d="M1818 223 c7 -3 16 -2 19 1 4 3 -2 6 -13 5 -11 0 -14 -3 -6 -6z"/>
<path d="M1972 218 c-7 -7 -12 -17 -12 -22 0 -6 5 -3 11 7 10 17 49 24 49 9 0
-5 -11 -19 -25 -32 -16 -15 -25 -19 -25 -10 0 7 -3 10 -6 7 -4 -4 -1 -13 6
-22 14 -16 46 -20 54 -6 3 4 -7 6 -22 3 l-27 -5 29 31 c15 17 25 35 22 41 -9
15 -39 14 -54 -1z"/>
<path d="M2096 214 c-9 -8 -16 -22 -16 -29 0 -23 32 -47 57 -42 14 3 23 -1 23
-9 0 -15 -35 -28 -51 -18 -8 4 -9 3 -5 -4 9 -15 39 -15 54 0 7 7 12 35 12 63
0 49 -1 51 -29 53 -16 1 -36 -5 -45 -14z m48 0 c24 -9 20 -51 -4 -59 -37 -12
-64 27 -38 53 14 14 20 14 42 6z"/>
<path d="M2209 213 c-13 -15 -12 -15 9 -2 18 11 26 11 42 1 11 -7 20 -8 20 -3
0 10 -24 21 -45 21 -7 0 -19 -7 -26 -17z"/>
<path d="M2312 165 c1 -38 3 -58 5 -43 4 24 8 27 32 22 32 -7 54 14 49 47 -4
31 -33 47 -57 32 -15 -10 -21 -10 -24 0 -3 7 -5 -19 -5 -58z m62 49 c24 -9 20
-51 -4 -59 -37 -12 -64 27 -38 53 14 14 20 14 42 6z"/>
<path d="M2420 193 c0 -7 5 -15 10 -18 8 -5 7 -11 -1 -21 -7 -9 -8 -14 -1 -14
20 0 23 20 8 42 -9 12 -16 17 -16 11z"/>
<path d="M1479 157 c17 -22 45 -22 62 0 13 15 12 15 -8 2 -20 -12 -26 -12 -45
0 -21 13 -22 13 -9 -2z"/>
<path d="M2212 155 c17 -18 68 -14 68 5 0 6 -9 5 -20 -2 -16 -10 -24 -10 -42
1 -22 12 -22 12 -6 -4z"/>
</g>
</svg>
