<svg id="Layer_1" data-name="Layer 1" xmlns="http://www.w3.org/2000/svg" viewBox="0 0 24.12 30.18"><defs><style>.cls-1{fill:#9f9e1f;}.cls-2{fill:#d3a6f9;}.cls-10,.cls-11,.cls-12,.cls-2,.cls-3,.cls-4,.cls-5,.cls-6,.cls-7,.cls-8,.cls-9{stroke:#3d33a3;}.cls-10,.cls-11,.cls-12,.cls-2,.cls-3,.cls-6,.cls-7{stroke-linecap:round;}.cls-10,.cls-2,.cls-3,.cls-4,.cls-5,.cls-6,.cls-7{stroke-linejoin:round;}.cls-12,.cls-2,.cls-3,.cls-4,.cls-5,.cls-6,.cls-7,.cls-8,.cls-9{stroke-width:0.25px;}.cls-3{fill:none;}.cls-4{fill:#fdcc03;}.cls-5{fill:#fd6801;}.cls-6{fill:#fff;}.cls-7{fill:#f4a525;}.cls-8{fill:#e21177;}.cls-11,.cls-12,.cls-8,.cls-9{stroke-miterlimit:10;}.cls-9{fill:#52ffca;}.cls-10{fill:#3d33a3;}.cls-10,.cls-11{stroke-width:0.15px;}</style></defs><title>Rocket-Book (32×32)</title><path class="cls-1" d="M15.91,11.74h1.47v7.89H16S15.91,11.64,15.91,11.74Z" transform="translate(-4.52 -1)"/><path class="cls-1" d="M6.74,20.85V22L11,24.32l5.42,2.83L22,24.37,26.68,22l0-1L26,21.3s-.56-3.27-3.1-1.77A2,2,0,0,0,20.63,19s-.35-1-1-.81a1.9,1.9,0,0,0-1,.77l0,.66s-.14.63-.68.52a.54.54,0,0,1-.5-.57H16l-.4.53L15,19.67l.08-.54s-.56-1.58-2.1-.5l-.09.42a1.94,1.94,0,0,0-2.45.67s-2.18-1.31-3,.93C7.4,20.65,7.22,21.32,6.74,20.85Z" transform="translate(-4.52 -1)"/><path class="cls-2" d="M25.41,27.73c-.26-.91-.86-.63-.86-.63l-1.38.51.4,1.12a.33.33,0,0,0,.54.14l.28-.2a.48.48,0,0,0,.14-.58" transform="translate(-4.52 -1)"/><path class="cls-3" d="M11.1,24.26a1.42,1.42,0,0,1,1.42-1.17s0-1.73,1.48-2a2.14,2.14,0,0,1,1.7.61,2.27,2.27,0,0,1,.51,1.6s1.48-1,2,1" transform="translate(-4.52 -1)"/><path class="cls-3" d="M22.12,24.32s-.74-2-2.46-1.48a3.14,3.14,0,0,0-3.94-1.23" transform="translate(-4.52 -1)"/><path class="cls-3" d="M13.26,23.09a1,1,0,0,1,1-1" transform="translate(-4.52 -1)"/><polygon class="cls-4" points="0.13 5.35 0.13 22.58 11.94 28.73 24 22.58 24 5.35 23.01 5.84 23.01 21.84 11.94 27.5 1.36 21.59 1.36 5.84 0.13 5.35"/><polygon class="cls-5" points="1.36 21.59 2.09 21.1 11.94 26.27 22.27 21.1 23.01 21.84 11.94 27.5 1.36 21.59"/><polyline class="cls-3" points="1.36 21.59 1.36 5.84 2.09 5.35 2.09 21.1"/><line class="cls-3" x1="8.74" y1="9.04" x2="2.09" y2="5.35"/><polygon class="cls-5" points="23.01 5.84 23.01 21.84 22.27 21.1 22.27 5.35 23.01 5.84"/><line class="cls-3" x1="15.51" y1="8.92" x2="22.28" y2="5.35"/><path class="cls-6" d="M15.28,3.59s.24-2.22,1.47-2.46c0,0,1.23,0,1.48,2.46V11l.24.74H15l.25-.49V3.59Z" transform="translate(-4.52 -1)"/><path class="cls-7" d="M19.69,11.23V9.32s0,0,0,0l.49.44a.65.65,0,0,1,.18.37l0,1.1-.09,0h-.63Z" transform="translate(-4.52 -1)"/><path class="cls-7" d="M13.74,11.18V9s0,0,0,0l-.41.37A1.84,1.84,0,0,0,13,10L13,11.2a.62.62,0,0,0,.13,0h.64Z" transform="translate(-4.52 -1)"/><polygon class="cls-8" points="14.24 7.24 14.24 10.22 13.68 10.22 13.72 9.99 13.72 6.57 14.24 7.24"/><polygon class="cls-8" points="10.56 10.71 13.85 10.71 13.6 10.18 10.9 10.18 10.56 10.71"/><path class="cls-3" d="M12.94,11.22h7.5a2.09,2.09,0,0,0-.72-2,3.12,3.12,0,0,1-1.49-2.46" transform="translate(-4.52 -1)"/><line class="cls-3" x1="5.83" y1="3.08" x2="9.03" y2="3.08"/><line class="cls-3" x1="8.29" y1="0.37" x2="9.52" y2="1.11"/><line class="cls-3" x1="14.94" y1="1.11" x2="16.41" y2="0.13"/><line class="cls-3" x1="15.43" y1="3.08" x2="18.63" y2="3.08"/><polygon class="cls-9" points="14.26 10.21 14.26 7.41 14.81 7.86 14.81 10.21 14.26 10.21"/><polygon class="cls-8" points="10.2 6.94 10.2 10.16 10.78 10.16 10.73 9.91 10.73 6.21 10.2 6.94"/><polygon class="cls-9" points="10.2 10.16 10.2 7.07 9.65 7.56 9.65 10.16 10.2 10.16"/><path class="cls-3" d="M20.44,11.22H13a2.4,2.4,0,0,1,.73-2.13,3.63,3.63,0,0,0,1.59-2.67" transform="translate(-4.52 -1)"/><path class="cls-3" d="M10.31,19.64a2,2,0,0,0-2-.24,1.93,1.93,0,0,0-1,2,.89.89,0,0,0-.73-.49" transform="translate(-4.52 -1)"/><path class="cls-3" d="M10.06,20.87a2.21,2.21,0,0,1,1.23-2,1.73,1.73,0,0,1,2,.5" transform="translate(-4.52 -1)"/><path class="cls-3" d="M20.15,19.4s.49-1,2-.5a1.78,1.78,0,0,1,1.23,2" transform="translate(-4.52 -1)"/><path class="cls-3" d="M22.86,19.4a2,2,0,0,1,2.13,0,.8.8,0,0,1,.21.15,1.85,1.85,0,0,1,.61,1.37c0,.49.25.49.25.49A.67.67,0,0,1,26.8,21" transform="translate(-4.52 -1)"/><path class="cls-3" d="M11.05,20.87a1.3,1.3,0,0,1,1-1.23" transform="translate(-4.52 -1)"/><path class="cls-3" d="M12.77,19a1.22,1.22,0,0,1,1.61-.64A.92.92,0,0,1,15,19a.66.66,0,0,1,0,.53.5.5,0,1,0,1,0V11.27h1.48v8.21a.5.5,0,0,0,.73.5.87.87,0,0,0,.25-.5s0-1,.74-1.24c0,0,1.23-.5,1.47.74" transform="translate(-4.52 -1)"/><path class="cls-3" d="M16.05,2.8c.42-.58.87-.62,1.37,0" transform="translate(-4.52 -1)"/><path class="cls-2" d="M24.15,28.84l1.23,2.22.25-1,1,.25-1.35-2.93a.51.51,0,0,0-.59-.29c-.3.1-.31.43-.29.62a.62.62,0,0,0,.07.23.57.57,0,0,1-.3.89l-1,.49c-.74.5-1-.49-1-.49L21,26.17l1.24-.63,1.14,2.81S23.66,29.33,24.15,28.84Z" transform="translate(-4.52 -1)"/><circle class="cls-10" cx="7.52" cy="11.93" r="0.42"/><circle class="cls-10" cx="8.69" cy="13.76" r="0.42"/><circle class="cls-10" cx="15.82" cy="12.06" r="0.42"/><circle class="cls-10" cx="16.57" cy="14.01" r="0.42"/><line class="cls-11" x1="6.92" y1="14.95" x2="8.08" y2="14.95"/><line class="cls-11" x1="7.51" y1="15.53" x2="7.49" y2="14.37"/><line class="cls-11" x1="18.53" y1="15.1" x2="19.68" y2="15.1"/><line class="cls-11" x1="19.11" y1="15.68" x2="19.1" y2="14.53"/><line class="cls-12" x1="10.56" y1="23.87" x2="11.71" y2="23.87"/><line class="cls-12" x1="11.14" y1="24.45" x2="11.13" y2="23.29"/></svg>