<svg id="Layer_1" data-name="Layer 1" xmlns="http://www.w3.org/2000/svg" viewBox="0 0 29.93 30.08"><defs><style>.cls-1{fill:#ee6924;}.cls-2{fill:#339683;}.cls-3{fill:none;stroke:#339683;}.cls-3,.cls-4{stroke-miterlimit:10;stroke-width:1.25px;}.cls-4{fill:#f7a56d;stroke:#ee6924;stroke-linecap:round;}.cls-5{fill:#a8acb2;}.cls-6{font-size:4.17px;font-family:SymbolMT, Symbol;}.cls-6,.cls-7{fill:#fff;}.cls-7{font-size:3.57px;font-family:ArialMT, Arial;}.cls-8{fill:#c3edf5;}.cls-9{fill:#4d91bb;}.cls-10{fill:#87dbec;}</style></defs><title>Concepts (32×32)</title><path class="cls-1" d="M22,1.55A25.69,25.69,0,0,1,21,7.94c-2.21,7.82-8.3,4.54-9.39,2.74a11.74,11.74,0,0,1-1.57-3.92Q10,6.32,10,5.89a35.93,35.93,0,0,1-.3-4.34" transform="translate(-0.95 -0.89)"/><path class="cls-1" d="M15.68,15.26a4.93,4.93,0,0,0-2.14-3h4.83a5.19,5.19,0,0,0-1.85,3" transform="translate(-0.95 -0.89)"/><rect class="cls-2" x="6.27" y="25.23" width="17.45" height="4.85" rx="0.99"/><path class="cls-3" d="M8.68,25.4S9,20,13,17.79c0,0,2.61-1.44-.07-3,0,0-3.7-1.67-4.2-7.61" transform="translate(-0.95 -0.89)"/><path class="cls-3" d="M23.23,25.47s-.28-5.36-4.13-7.6c0,0-2.53-1.45.07-3,0,0,3.57-1.67,4.06-7.61" transform="translate(-0.95 -0.89)"/><line class="cls-4" x1="6.06" y1="21.83" x2="3.45" y2="23.78"/><line class="cls-4" x1="4.32" y1="18.64" x2="1.28" y2="19.8"/><line class="cls-4" x1="3.81" y1="15.24" x2="0.63" y2="15.24"/><line class="cls-4" x1="4.39" y1="11.83" x2="1.42" y2="10.75"/><line class="cls-4" x1="5.91" y1="8.72" x2="3.38" y2="6.76"/><line class="cls-4" x1="23.87" y1="8.79" x2="26.62" y2="6.91"/><line class="cls-4" x1="25.39" y1="11.9" x2="28.5" y2="10.75"/><line class="cls-4" x1="25.9" y1="15.38" x2="29.3" y2="15.38"/><line class="cls-4" x1="25.46" y1="18.78" x2="28.65" y2="19.94"/><line class="cls-4" x1="23.8" y1="21.83" x2="26.62" y2="23.85"/><path class="cls-5" d="M16.52,15.26a6.83,6.83,0,0,0,1,3.75,7,7,0,0,0,1.82,2s2.33,1.89,2.13,4.17l-11.14-.06S11,22,12.87,21A8.85,8.85,0,0,0,15,18.7a7.58,7.58,0,0,0,.73-3.44" transform="translate(-0.95 -0.89)"/><path class="cls-2" d="M9,6.47H7.39A1.06,1.06,0,0,1,6.33,5.41V2.56a1,1,0,0,1,1-1H9A6.54,6.54,0,0,0,9,6.47Z" transform="translate(-0.95 -0.89)"/><path class="cls-2" d="M22.9,6.47h1.61a1.05,1.05,0,0,0,1-1.06V2.56a1,1,0,0,0-1-1H22.9A6.64,6.64,0,0,1,22.9,6.47Z" transform="translate(-0.95 -0.89)"/><text class="cls-6" transform="matrix(0.87, -0.01, 0.01, 1, 10.08, 3.85)">p</text><text class="cls-6" transform="matrix(0.87, -0.01, 0.01, 1, 17.68, 3.7)">m</text><text class="cls-6" transform="matrix(0.87, -0.01, 0.01, 1, 14.01, 3.93)">D</text><text class="cls-7" transform="translate(10.67 7.98) rotate(-0.85) scale(0.84 1)">e=mc</text><text class="cls-7" transform="matrix(0.49, -0.01, 0.01, 0.58, 18.07, 6.68)">2</text><polygon class="cls-8" points="13.68 11.99 16.58 12.03 15.5 10.08 15.52 8.88 15.65 8.88 15.65 8.76 14.68 8.74 14.68 8.87 14.81 8.87 14.79 10.09 13.68 11.99"/><path class="cls-9" d="M15.42,12l-.36.64,2,0L16.78,12Z" transform="translate(-0.95 -0.89)"/><circle class="cls-10" cx="15.39" cy="10.79" r="0.17"/><circle class="cls-10" cx="15.34" cy="8.48" r="0.18"/><circle class="cls-10" cx="14.97" cy="10.44" r="0.15"/><polyline class="cls-10" points="14.81 8.87 15.52 8.88 15.51 9.01"/><path class="cls-1" d="M9.44,1.66" transform="translate(-0.95 -0.89)"/></svg>