<svg id="Layer_1" data-name="Layer 1" xmlns="http://www.w3.org/2000/svg" viewBox="0 0 27.87 30.29"><defs><style>.cls-1{fill:#1dc5f2;}.cls-2,.cls-3{fill:none;stroke-miterlimit:10;}.cls-2{stroke:#fff;stroke-width:0.25px;}.cls-3{stroke:#000;stroke-width:0.1px;}.cls-4{fill:#c3edf5;}.cls-5{fill:#4d91bb;}.cls-6{fill:#87dbec;}.cls-13,.cls-7{fill:#fff;}.cls-8{font-size:4.56px;}.cls-10,.cls-11,.cls-13,.cls-8,.cls-9{font-family:ArialMT, Arial;}.cls-9{font-size:3.3px;}.cls-10{font-size:2.97px;}.cls-11{font-size:2.73px;}.cls-12{font-size:2.73px;font-family:SymbolMT, Symbol;}.cls-13{font-size:4.42px;}</style></defs><title>Book Formelua (32×32)</title><path class="cls-1" d="M29.47,29.67s.9.13.19,1-.41.56-.41.56L19.39,31,7,30.43s-.58-.15-.74-1.34L2.16,8.52a1.52,1.52,0,0,1,.16-1.35c.45-.58,2.44-3.4,2.44-3.4S4.92,3,6.23,3.22s9-.41,9-.41,6.9-1.06,7.58-1.8c0,0,1.63-.42,2.08,1s2,8.86,2,8.86l1.48,6.87,1,4.49s.54,1.93-.78,2.31a26.44,26.44,0,0,1-7.12,1.77,35.54,35.54,0,0,1-6.52.45c-3.17-.13-3.66-.13-3.66-.13a1.7,1.7,0,0,0-1.41.51c-.45.61-1.57,2-1.57,2l6.29.16,10.59.36Z" transform="translate(-2.07 -0.95)"/><line class="cls-2" x1="3.72" y1="3.24" x2="8.05" y2="24.13"/><path class="cls-3" d="M10.41,27.78s15.09,1,19.06-2.31" transform="translate(-2.07 -0.95)"/><path class="cls-3" d="M10.31,28.74s14.76,1,18.64-2.32" transform="translate(-2.07 -0.95)"/><path class="cls-3" d="M10.89,27.1s14.63,1,18.49-2.31" transform="translate(-2.07 -0.95)"/><polygon class="cls-4" points="16.04 15.64 24.71 14 20.34 8.87 19.65 5.26 20.07 5.19 20 4.82 17.08 5.37 17.15 5.74 17.54 5.67 18.24 9.31 16.04 15.64"/><path class="cls-5" d="M19.94,13.51l-.69,2.11,6.1-1.16L24,12.77S20,13.54,19.94,13.51Z" transform="translate(-2.07 -0.95)"/><circle class="cls-6" cx="20.42" cy="11.04" r="0.51"/><circle class="cls-6" cx="18.88" cy="4.2" r="0.54"/><circle class="cls-6" cx="18.96" cy="10.24" r="0.44"/><polyline class="cls-6" points="17.54 5.67 19.65 5.26 19.72 5.66"/><rect class="cls-7" x="7.86" y="6.32" width="3.08" height="2.54" rx="1.05" transform="translate(-3.11 0.56) rotate(-8.71)"/><rect class="cls-7" x="11.32" y="5.68" width="3.08" height="2.54" rx="1.05" transform="translate(-2.97 1.08) rotate(-8.71)"/><rect class="cls-7" x="8.37" y="9.53" width="3.08" height="2.54" rx="1.05" transform="translate(-3.59 0.68) rotate(-8.71)"/><rect class="cls-7" x="11.84" y="8.89" width="3.08" height="2.54" rx="1.05" transform="translate(-3.45 1.19) rotate(-8.71)"/><text class="cls-8" transform="translate(6.4 7.86) rotate(-7.39) scale(1.36 1)">-</text><text class="cls-9" transform="translate(10.06 7.19) rotate(-7.39) scale(0.94 1)">+</text><text class="cls-10" transform="translate(7.69 10.89) rotate(-7.39) scale(0.77 1)">/</text><rect class="cls-7" x="9.53" y="15.45" width="3.08" height="2.54" rx="1.05" transform="translate(-4.47 0.92) rotate(-8.71)"/><text class="cls-11" transform="matrix(0.83, -0.11, 0.13, 0.99, 8.52, 16.84)">1</text><rect class="cls-7" x="13.14" y="14.73" width="3.08" height="2.54" rx="1.05" transform="matrix(0.99, -0.15, 0.15, 0.99, -4.32, 1.46)"/><text class="cls-12" transform="translate(12.2 15.81) rotate(-11.32) scale(0.84 1)">p</text><text class="cls-10" transform="translate(10.67 10.22) rotate(-7.39) scale(0.95 1)">×</text><text class="cls-13" transform="matrix(1.17, -0.23, 0.19, 0.98, 9.12, 23.26)">e=mc</text><text class="cls-13" transform="matrix(0.68, -0.13, 0.11, 0.57, 21.62, 19.29)">2</text></svg>