<svg id="Layer_1" data-name="Layer 1" xmlns="http://www.w3.org/2000/svg" viewBox="0 0 29.64 30.76"><defs><style>.cls-1{fill:#fecd57;}.cls-2{stroke:#fecd57;stroke-linecap:round;stroke-miterlimit:10;stroke-width:1.25px;}</style></defs><title>INFO (32×32)</title><path class="cls-1" d="M19.25,27.91c.93-.42,1-1.49,1.1-2.37a11.28,11.28,0,0,1,.58-2.08,3.24,3.24,0,0,0,.13-.41,7.74,7.74,0,0,1,1.25-2.34,10.23,10.23,0,0,0,.62-1l.7-1.33a7.15,7.15,0,0,0,.66-3.12A7.53,7.53,0,0,0,23,10.64a8,8,0,0,0-3.63-3.19A7.37,7.37,0,0,0,14.51,7a7.61,7.61,0,0,0-3.87,2,9.16,9.16,0,0,0-2.38,3.76A14.65,14.65,0,0,0,8,15.17,5.74,5.74,0,0,0,8.2,17C9,19.68,9.64,20,10.74,21.94a13.75,13.75,0,0,1,1.44,4.75A1.78,1.78,0,0,0,13,27.91m3.06-7a1.73,1.73,0,0,1-.81.28.6.6,0,0,1-.44-.17.68.68,0,0,1-.16-.48,23.45,23.45,0,0,1,1.18-4.81,1,1,0,0,0,.06-.32c0-.11-.05-.16-.15-.16a.7.7,0,0,0-.35.12,8.34,8.34,0,0,0-.9.81l-.34-.27a5.92,5.92,0,0,1,1.43-1.23,2.29,2.29,0,0,1,1.11-.37.61.61,0,0,1,.38.11.37.37,0,0,1,.14.3,14.76,14.76,0,0,1-.51,1.94A19,19,0,0,0,15.89,20a.28.28,0,0,0,.06.18.14.14,0,0,0,.12.08c.16,0,.59-.33,1.29-1l.3.3A9.77,9.77,0,0,1,16.09,20.86Zm1.85-8.76a.7.7,0,0,1-.54.26.54.54,0,0,1-.4-.16.63.63,0,0,1-.15-.43.88.88,0,0,1,.22-.61.75.75,0,0,1,.55-.24.54.54,0,0,1,.4.16.57.57,0,0,1,.16.41A.89.89,0,0,1,17.94,12.1Z" transform="translate(-1.18 -0.31)"/><path d="M17.32,31.06l2-1.59a.07.07,0,0,0,0-.06l.06-1.1a.43.43,0,0,0-.44-.46l-5.61,0a.44.44,0,0,0-.44.47L13,29.43a.06.06,0,0,0,0,.06L15,31a.09.09,0,0,0,.06,0" transform="translate(-1.18 -0.31)"/><line class="cls-2" x1="23.92" y1="13.77" x2="29.02" y2="13.77"/><line class="cls-2" x1="22.03" y1="7.97" x2="25.42" y2="5.68"/><line class="cls-2" x1="14.52" y1="5.68" x2="14.52" y2="0.63"/><line class="cls-2" x1="7.94" y1="7.83" x2="4.71" y2="4.69"/><line class="cls-2" x1="6.08" y1="13.26" x2="0.63" y2="13.26"/></svg>