<svg id="Layer_1" data-name="Layer 1" xmlns="http://www.w3.org/2000/svg" xmlns:xlink="http://www.w3.org/1999/xlink" viewBox="0 0 60.09 55.44"><defs><style>.cls-1{fill:url(#linear-gradient);}.cls-2{fill:url(#linear-gradient-2);}.cls-3,.cls-4{fill:none;stroke-miterlimit:10;stroke-width:0.65px;}.cls-3{stroke:#890912;}.cls-4{stroke:#ce2127;}.cls-5{fill:url(#linear-gradient-3);}.cls-6{fill:url(#linear-gradient-4);}.cls-7{fill:#9b040f;}</style><linearGradient id="linear-gradient" x1="8.2" y1="7.4" x2="18.22" y2="7.4" gradientUnits="userSpaceOnUse"><stop offset="0" stop-color="#ce2159"/><stop offset="0.24" stop-color="#cf2458"/><stop offset="0.42" stop-color="#d42e53"/><stop offset="0.59" stop-color="#db3e4c"/><stop offset="0.74" stop-color="#e55542"/><stop offset="0.88" stop-color="#f27234"/><stop offset="1" stop-color="#ff9027"/></linearGradient><linearGradient id="linear-gradient-2" x1="2.23" y1="39.41" x2="26.53" y2="39.41" gradientUnits="userSpaceOnUse"><stop offset="0" stop-color="#ff9027"/><stop offset="0.12" stop-color="#f27234"/><stop offset="0.26" stop-color="#e55542"/><stop offset="0.41" stop-color="#db3e4c"/><stop offset="0.58" stop-color="#d42e53"/><stop offset="0.76" stop-color="#cf2458"/><stop offset="1" stop-color="#ce2159"/></linearGradient><linearGradient id="linear-gradient-3" x1="26.9" y1="27.7" x2="51.73" y2="27.7" gradientUnits="userSpaceOnUse"><stop offset="0" stop-color="#ff9027"/><stop offset="0.3" stop-color="#fe8d28"/><stop offset="0.47" stop-color="#fa852c"/><stop offset="0.62" stop-color="#f47732"/><stop offset="0.75" stop-color="#eb623c"/><stop offset="0.87" stop-color="#df4847"/><stop offset="0.98" stop-color="#d12856"/><stop offset="1" stop-color="#ce2159"/></linearGradient><linearGradient id="linear-gradient-4" x1="40.42" y1="39.07" x2="51.1" y2="39.07" xlink:href="#linear-gradient-3"/></defs><title>Intractive Practice 64 x 64</title><circle class="cls-1" cx="13.21" cy="7.4" r="5.01"/><path class="cls-2" d="M14.9,58.3s.19,2.14-2.47,2.47c0,0-2.93,0-3-2.25V36.29L9,36v4.62a7.44,7.44,0,0,1-2.76-1.41s-3.62-3-3.91-6.05c0,0-.45-4.7.86-7.41,0,0,2.5-7,6.16-7.66A21,21,0,0,1,14,18.5l-3.45.1a4.74,4.74,0,0,0-3.28,2.2s-2,2.63-1.87,5.17c0,0-.13,4.19,2.44,6.61l-.7,1.89L14,37.41l3.82-8.91-6.94-2.85-.72,1.74a3.82,3.82,0,0,1,0-2.48,3.92,3.92,0,0,1,1-1.68l0-.53a4.33,4.33,0,0,0-1.52,2.2,6.82,6.82,0,0,0,0,2.4S10.48,30.05,12,31l1.75,1.55s.7,1.42-.29,2.16a1.8,1.8,0,0,1-2.44.09,23,23,0,0,1-3.22-3.08S6.08,29.34,6.1,28.18c0,0-.52-3.45.25-4.78,0,0,1.33-3.14,2.92-3.79A4.92,4.92,0,0,1,11,19.09h1.49A31.1,31.1,0,0,1,12.07,23s-.54,1.88-.64,2.07l1.18.49s1.1-2,1.18-6.48h6.67s3.29.36,5,5.56a33.54,33.54,0,0,1,1.06,6.62v7.33s-.09,2-1.71,1.8a1.8,1.8,0,0,1-1.89-1.8s.29-6.3.17-6.86c0,0-.65-6.23-1.56-7.24v33.9a2.86,2.86,0,0,1-2.68,2.36s-2.77-.09-2.84-2.3V37.8H15Z" transform="translate(-2.23 -5.33)"/><line class="cls-3" x1="9.2" y1="22.4" x2="13.69" y2="24.35"/><line class="cls-3" x1="8.79" y1="23.37" x2="13.28" y2="25.33"/><circle class="cls-4" cx="26.19" cy="5.99" r="1.89"/><circle class="cls-4" cx="41.12" cy="2.21" r="1.89"/><circle class="cls-4" cx="47.33" cy="8.32" r="1.89"/><circle class="cls-4" cx="53.95" cy="15.72" r="1.89"/><circle class="cls-4" cx="57.88" cy="29.48" r="1.89"/><circle class="cls-4" cx="50.48" cy="39.74" r="1.89"/><circle class="cls-4" cx="29.62" cy="43.52" r="1.89"/><path class="cls-4" d="M22.67,43.78a1.85,1.85,0,0,1,1.46-.09,1.89,1.89,0,1,1-1.25,3.57" transform="translate(-2.23 -5.33)"/><polyline class="cls-4" points="31.93 31.47 31.93 36.43 25.14 36.43 22.72 38.85"/><polyline class="cls-4" points="35.61 31.47 35.61 37.6 30.99 42.22"/><polyline class="cls-4" points="46.55 31.81 46.55 35.99 49.05 38.49"/><polyline class="cls-4" points="48.86 23.51 52.06 23.51 56.62 28.07"/><polyline class="cls-4" points="46.22 19.86 50 19.86 52.72 17.14"/><polyline class="cls-4" points="38.89 15.01 38.89 12.2 43.51 12.2 46.03 9.68"/><polyline class="cls-4" points="35.21 14.64 35.21 8.08 39.76 3.53"/><polyline class="cls-4" points="31.5 15.01 31.5 11.1 27.63 7.22"/><path class="cls-5" d="M28,33.31c0-1.77-.19-6.24-1-8.5a1,1,0,0,1,.27-1.08C29.06,22.12,35.4,17.3,43,20.34c0,0,7.59,2.81,8.56,9.71,0,0,2.21,6-9.73,6h-7.5a12.29,12.29,0,0,1-5.65-1.46A1.51,1.51,0,0,1,28,33.31Z" transform="translate(-2.23 -5.33)"/><path class="cls-6" d="M40.42,36.81s9,.2,10.68-2.68a6.33,6.33,0,0,1-1.64,3.61,4.09,4.09,0,0,1-3.7,1.51s.92,8-2.86,3.21C42.9,42.46,40.35,37.78,40.42,36.81Z" transform="translate(-2.23 -5.33)"/><path class="cls-7" d="M35,28.94l-.91,2.18H32.89l3-6.94h1.37l3,6.94H39l-.94-2.18Zm2.88-.7-.86-2A11.65,11.65,0,0,1,36.53,25h0q-.19.63-.45,1.26l-.85,2Z" transform="translate(-2.23 -5.33)"/><path class="cls-7" d="M42.65,24.18v6.94H41.52V24.18Z" transform="translate(-2.23 -5.33)"/></svg>