<svg id="Layer_1" data-name="Layer 1" xmlns="http://www.w3.org/2000/svg" viewBox="0 0 31.27 30.67"><defs><style>.cls-1,.cls-4{fill:none;stroke:#93902e;stroke-width:1.25px;}.cls-1{stroke-linecap:round;stroke-linejoin:round;}.cls-2{fill:#1b72d0;}.cls-3{fill:#93902e;}.cls-4{stroke-miterlimit:10;}</style></defs><title>NCERT (32×32)</title><path class="cls-1" d="M12.36,17.86a4.39,4.39,0,0,1,4.22-.76,5.25,5.25,0,0,0,2.65,1.84A15.91,15.91,0,0,0,21,13.31l2.18,3.89s2.17,2.49,0,4.6a5.11,5.11,0,0,1-5,1.07S13.85,21.19,12.36,17.86Z" transform="translate(-0.39 -0.67)"/><circle class="cls-2" cx="21.33" cy="18.04" r="0.57"/><path class="cls-1" d="M19.16,18.8a4.39,4.39,0,0,1-2.63-3.39,5.23,5.23,0,0,0,.41-3.21,16.13,16.13,0,0,0-5.81,1l2.45-3.73s1.2-3.07,4.06-2.13a5.1,5.1,0,0,1,3.28,4S21.42,15.94,19.16,18.8Z" transform="translate(-0.39 -0.67)"/><circle class="cls-2" cx="15.2" cy="9.45" r="0.57"/><path class="cls-1" d="M16.84,12.39a4,4,0,0,1-1.41,4.05s-2.24.17-3.15,1.26a19.14,19.14,0,0,0,4.56,4.67L12,22.06s-3.52.48-4.46-2.56A4.64,4.64,0,0,1,9,14.58S12.85,11.81,16.84,12.39Z" transform="translate(-0.39 -0.67)"/><ellipse class="cls-2" cx="11.24" cy="19.96" rx="0.54" ry="0.59" transform="translate(-11.2 13.12) rotate(-44.98)"/><path class="cls-3" d="M13.11,5.08a8.87,8.87,0,0,1,3-.86,7,7,0,0,1,3.16.39A3.82,3.82,0,0,1,21.7,6.9,2.7,2.7,0,0,1,20.8,10l-.1-.08a3.2,3.2,0,0,0-.16-2.58,4.11,4.11,0,0,0-1.72-1.84,6.29,6.29,0,0,0-2.73-.67,9.44,9.44,0,0,0-2.93.34Z" transform="translate(-0.39 -0.67)"/><path class="cls-3" d="M27.16,19.21a9,9,0,0,1-.84,3,7,7,0,0,1-2,2.48,3.82,3.82,0,0,1-3.24.9,2.7,2.7,0,0,1-2.18-2.41l.12,0a3.18,3.18,0,0,0,2.28,1.23,4.08,4.08,0,0,0,2.46-.5,6.1,6.1,0,0,0,2-2A9.21,9.21,0,0,0,27,19.19Z" transform="translate(-0.39 -0.67)"/><path class="cls-3" d="M8.58,24.58a9.07,9.07,0,0,1-2.41-1.92,6.92,6.92,0,0,1-1.51-2.8,3.81,3.81,0,0,1,.43-3.34,2.69,2.69,0,0,1,3.06-1.07v.12a3.23,3.23,0,0,0-2,1.63,4.06,4.06,0,0,0-.49,2.47,6.17,6.17,0,0,0,1,2.61,9.55,9.55,0,0,0,2,2.19Z" transform="translate(-0.39 -0.67)"/><path class="cls-3" d="M26.38,27a11.86,11.86,0,0,1-4.13,2.87,9.81,9.81,0,0,1-2.52.57,8.27,8.27,0,0,1-2.62-.24,6.56,6.56,0,0,1-4.23-3.13A5.69,5.69,0,0,1,12.5,22l.13,0A7.34,7.34,0,0,0,14,26.43a6.86,6.86,0,0,0,3.44,2.82,7.5,7.5,0,0,0,2.3.39,9.56,9.56,0,0,0,2.36-.35,11.54,11.54,0,0,0,4.24-2.36Z" transform="translate(-0.39 -0.67)"/><path class="cls-3" d="M20.37,1.75a11.19,11.19,0,0,1,4.72,2.08A8.16,8.16,0,0,1,28,8.28a7,7,0,0,1-.78,5.33,6.19,6.19,0,0,1-4.29,3.05l0-.12A8.2,8.2,0,0,0,26.07,13,7.45,7.45,0,0,0,27,8.48a7.25,7.25,0,0,0-2.28-4.17,10.76,10.76,0,0,0-4.35-2.44Z" transform="translate(-0.39 -0.67)"/><path class="cls-3" d="M2,20.82A10.75,10.75,0,0,1,.91,15.68,8,8,0,0,1,3,10.76,7.28,7.28,0,0,1,8,8.43a6.5,6.5,0,0,1,5,1.76l-.07.1A9,9,0,0,0,8.1,9.67a8,8,0,0,0-4.36,1.79,7.18,7.18,0,0,0-2.21,4.29,10.53,10.53,0,0,0,.55,5Z" transform="translate(-0.39 -0.67)"/><ellipse class="cls-4" cx="15.64" cy="15.33" rx="15.01" ry="14.71"/></svg>