<svg id="Layer_1" data-name="Layer 1" xmlns="http://www.w3.org/2000/svg" xmlns:xlink="http://www.w3.org/1999/xlink" viewBox="0 0 31.09 22.84"><defs><style>.cls-1{fill:url(#linear-gradient);}.cls-2{fill:#a3a3a3;}.cls-3{fill:url(#radial-gradient);}.cls-4{fill:#5e57ea;}.cls-5{fill:#fff;}</style><linearGradient id="linear-gradient" x1="0.46" y1="16.38" x2="31.54" y2="16.38" gradientUnits="userSpaceOnUse"><stop offset="0.01" stop-color="#78f2f9"/><stop offset="1" stop-color="#ff4cf5"/></linearGradient><radialGradient id="radial-gradient" cx="4.65" cy="-28.47" r="3.62" gradientTransform="matrix(0.94, -0.33, -0.23, -0.66, 1.23, -0.88)" gradientUnits="userSpaceOnUse"><stop offset="0.29" stop-color="#f4f4f4"/><stop offset="0.29" stop-color="#f1f1f4"/><stop offset="0.31" stop-color="#cfcdf2"/><stop offset="0.33" stop-color="#b1aef0"/><stop offset="0.35" stop-color="#9792ee"/><stop offset="0.37" stop-color="#827cec"/><stop offset="0.39" stop-color="#726beb"/><stop offset="0.43" stop-color="#6660eb"/><stop offset="0.47" stop-color="#6059ea"/><stop offset="0.59" stop-color="#5e57ea"/><stop offset="0.65" stop-color="#6d66ea"/><stop offset="0.76" stop-color="#938fe8"/><stop offset="0.91" stop-color="#d1d0e7"/><stop offset="0.96" stop-color="#e6e6e6"/></radialGradient></defs><title>VIDEOS (32×32)</title><path class="cls-1" d="M29.52,7.38,25,12V5.92a1.08,1.08,0,0,0-1.12-1c-1,0-22.43,0-22.43,0s-1,.25-1,1.09,0,20.66,0,20.66.08,1.13.9,1l1.12,0H23.25s1.84.53,1.75-1.61V20.66l4.44,4.44s1.32,1.2,2.1-.62V8.17A1.28,1.28,0,0,0,29.52,7.38ZM12.43,23.31A6.55,6.55,0,1,1,19,16.76,6.55,6.55,0,0,1,12.43,23.31Z" transform="translate(-0.46 -4.96)"/><path class="cls-2" d="M9.8,17s-.65.87-.5,1.48c0,0,.21.56,1,.42a3.29,3.29,0,0,0,1.34-.55,10.24,10.24,0,0,1,1.8-1.06.28.28,0,0,0,.17-.15c.15-.3.48-1.13-.29-1.26a.14.14,0,0,0-.09,0,3.58,3.58,0,0,0-1.56.89,5.27,5.27,0,0,1-1.53.83S9.61,17.79,9.8,17Z" transform="translate(-0.46 -4.96)"/><path class="cls-2" d="M14.15,16.09a.89.89,0,0,0-.85-.22s.35,0,.41.45a2.27,2.27,0,0,1-.13.77,5.6,5.6,0,0,1-.45,1,11.62,11.62,0,0,1-1.64,1.82l-1.12.89s-.22.4.23.32c0,0,1.18-.87,1.5-1.17,0,0,.37-.13.22.16l-.51.6s-.07.34.25.2l.72-.7s.25-.2.14.11-.13.55.24.37a5.13,5.13,0,0,0,1.05-1.45s.86-1.9-.06-3.1" transform="translate(-0.46 -4.96)"/><rect class="cls-2" x="9.37" y="21.27" width="0.85" height="0.33" rx="0.16" transform="translate(-12.07 6.63) rotate(-40.74)"/><rect class="cls-2" x="10.96" y="21.12" width="0.85" height="0.33" rx="0.16" transform="translate(-11.59 7.63) rotate(-40.74)"/><rect class="cls-2" x="9.99" y="21.7" width="0.85" height="0.33" rx="0.16" transform="translate(-12.2 7.14) rotate(-40.74)"/><rect class="cls-2" x="10.12" y="21.32" width="0.64" height="0.16" rx="0.08" transform="translate(-11.89 7.04) rotate(-40.74)"/><rect class="cls-2" x="10.98" y="20.76" width="0.64" height="0.16" rx="0.08" transform="translate(-11.31 7.47) rotate(-40.74)"/><rect class="cls-2" x="10.53" y="21.87" width="0.64" height="0.16" rx="0.08" transform="translate(-12.15 7.45) rotate(-40.74)"/><rect class="cls-2" x="11.63" y="21.15" width="0.64" height="0.16" rx="0.08" transform="translate(-11.41 7.99) rotate(-40.74)"/><rect class="cls-2" x="12.25" y="20.53" width="0.64" height="0.16" rx="0.08" transform="translate(-11.59 11.09) rotate(-47.73)"/><rect class="cls-2" x="11.61" y="20.17" width="0.64" height="0.16" rx="0.08" transform="translate(-10.78 7.74) rotate(-40.74)"/><rect class="cls-2" x="12.09" y="21.05" width="0.85" height="0.33" rx="0.16" transform="translate(-11.44 8.9) rotate(-42.08)"/><rect class="cls-2" x="11.01" y="21.81" width="0.85" height="0.33" rx="0.16" transform="translate(-12.24 8.37) rotate(-42.08)"/><path class="cls-2" d="M8.86,16.89s0,1.45.58,1.77a3.19,3.19,0,0,1,1.29-2.79l1.86-1.69.25,1.09,1.62-3.55-4.12,1,1.11.32s-1.06,1-1.14,1.09a6.22,6.22,0,0,0-.54.6s-.31.46-.46.74a5,5,0,0,0-.37,1,2.65,2.65,0,0,0-.07.48" transform="translate(-0.46 -4.96)"/><rect class="cls-2" x="12.58" y="18.9" width="0.85" height="0.33" rx="0.16" transform="translate(-10.42 11.85) rotate(-50.07)"/><rect class="cls-2" x="13.25" y="17.71" width="0.85" height="0.33" rx="0.16" transform="translate(-8.14 20.01) rotate(-70.95)"/><path class="cls-2" d="M9.18,17a6.26,6.26,0,0,1,3.55-4.19c.2.09.67.52.41.59C11.3,13.91,9.07,16.67,9.18,17Z" transform="translate(-0.46 -4.96)"/><polyline class="cls-2" points="12.57 8.48 12.66 9.08 13.43 7.24 11.21 7.79 11.96 7.97"/><rect class="cls-2" x="13.09" y="19.43" width="0.85" height="0.33" rx="0.16" transform="translate(-10.74 14.28) rotate(-54.55)"/><path class="cls-2" d="M13.91,17l-.06-.54A.16.16,0,0,1,14,16.3h0a.16.16,0,0,1,.17.13l.06.54a.15.15,0,0,1-.13.17h0A.15.15,0,0,1,13.91,17Z" transform="translate(-0.46 -4.96)"/><rect class="cls-2" x="13.69" y="18.21" width="0.85" height="0.33" rx="0.16" transform="translate(-8.32 20.76) rotate(-70.95)"/><path class="cls-3" d="M9.76,16.72s-.65.88-.49,1.48c0,0,.2.56,1,.42a3.29,3.29,0,0,0,1.34-.55A10.05,10.05,0,0,1,13.45,17a.29.29,0,0,0,.16-.15c.16-.3.48-1.13-.29-1.26h-.09a3.64,3.64,0,0,0-1.56.89,5.64,5.64,0,0,1-1.53.84S9.58,17.52,9.76,16.72Z" transform="translate(-0.46 -4.96)"/><path class="cls-4" d="M14.11,15.82a.87.87,0,0,0-.84-.22s.34,0,.4.45a2.27,2.27,0,0,1-.13.77,5.7,5.7,0,0,1-.45,1,11,11,0,0,1-1.63,1.81l-1.12.9s-.22.39.23.31c0,0,1.17-.87,1.5-1.17,0,0,.36-.12.22.16l-.51.61s-.07.34.26.2l.69-.71s.26-.2.15.11-.13.55.24.37a5,5,0,0,0,1-1.45s.86-1.9-.06-3.1" transform="translate(-0.46 -4.96)"/><rect class="cls-4" x="9.33" y="21" width="0.85" height="0.33" rx="0.16" transform="translate(-11.91 6.54) rotate(-40.74)"/><rect class="cls-4" x="10.92" y="20.85" width="0.85" height="0.33" rx="0.16" transform="translate(-11.42 7.54) rotate(-40.74)"/><rect class="cls-4" x="9.95" y="21.44" width="0.85" height="0.33" rx="0.16" transform="matrix(0.76, -0.65, 0.65, 0.76, -12.04, 7.05)"/><rect class="cls-4" x="10.08" y="21.05" width="0.64" height="0.16" rx="0.08" transform="translate(-11.72 6.95) rotate(-40.74)"/><rect class="cls-4" x="10.94" y="20.49" width="0.64" height="0.16" rx="0.08" transform="translate(-11.15 7.38) rotate(-40.74)"/><rect class="cls-4" x="10.5" y="21.6" width="0.64" height="0.16" rx="0.08" transform="translate(-11.98 7.36) rotate(-40.74)"/><rect class="cls-4" x="11.59" y="20.88" width="0.64" height="0.16" rx="0.08" transform="translate(-11.25 7.9) rotate(-40.74)"/><rect class="cls-4" x="12.21" y="20.26" width="0.64" height="0.16" rx="0.08" transform="matrix(0.67, -0.74, 0.74, 0.67, -11.41, 10.98)"/><rect class="cls-4" x="11.57" y="19.9" width="0.64" height="0.16" rx="0.08" transform="translate(-10.62 7.65) rotate(-40.74)"/><rect class="cls-4" x="12.06" y="20.78" width="0.85" height="0.33" rx="0.16" transform="translate(-11.27 8.81) rotate(-42.08)"/><rect class="cls-4" x="10.97" y="21.55" width="0.85" height="0.33" rx="0.16" transform="translate(-12.07 8.28) rotate(-42.08)"/><path class="cls-4" d="M8.83,16.62s-.05,1.45.58,1.77a3.17,3.17,0,0,1,1.28-2.79l1.87-1.69L12.8,15l1.62-3.55-4.11,1,1.1.32s-1.06,1-1.13,1.09a4.37,4.37,0,0,0-.54.6s-.31.46-.46.74a4.85,4.85,0,0,0-.38,1,3.43,3.43,0,0,0-.08.48" transform="translate(-0.46 -4.96)"/><rect class="cls-5" x="12.54" y="18.64" width="0.85" height="0.33" rx="0.16" transform="translate(-10.23 11.72) rotate(-50.07)"/><rect class="cls-5" x="13.21" y="17.44" width="0.85" height="0.33" rx="0.16" transform="translate(-7.91 19.79) rotate(-70.95)"/><path class="cls-5" d="M9.15,16.74a6.25,6.25,0,0,1,3.55-4.2c.2.1.67.52.41.59C11.26,13.65,9,16.4,9.15,16.74Z" transform="translate(-0.46 -4.96)"/><polyline class="cls-5" points="12.53 8.21 12.62 8.81 13.39 6.97 11.17 7.53 11.92 7.7"/><rect class="cls-5" x="13.01" y="19.19" width="0.84" height="0.33" rx="0.16" transform="translate(-10.58 14.05) rotate(-54.4)"/><path class="cls-5" d="M13.87,16.74l-.06-.54a.16.16,0,0,1,.13-.17h0a.15.15,0,0,1,.17.13l.06.54a.14.14,0,0,1-.13.17h0A.16.16,0,0,1,13.87,16.74Z" transform="translate(-0.46 -4.96)"/><rect class="cls-5" x="13.65" y="17.94" width="0.85" height="0.33" rx="0.16" transform="translate(-8.09 20.54) rotate(-70.95)"/></svg>