<svg id="Layer_1" data-name="Layer 1" xmlns="http://www.w3.org/2000/svg" viewBox="0 0 14.77 14.81"><defs><style>.cls-1{fill:#fff;}</style></defs><title>All India slab</title><path class="cls-1" d="M2.63,13.28s4.46,4.49,9.63.7a7.36,7.36,0,0,0,2.58-8.42L7.77,8.69Z" transform="translate(-0.49 -0.69)"/><path class="cls-1" d="M7.74.69A7.27,7.27,0,0,1,14.56,5L7.74,8Z" transform="translate(-0.49 -0.69)"/><path class="cls-1" d="M3.43,2.16A7.62,7.62,0,0,1,7.15.71V2.17Z" transform="translate(-0.49 -0.69)"/><path class="cls-1" d="M1.53,4.3a8.62,8.62,0,0,1,.9-1.22H7.15V4.31S1.55,4.32,1.53,4.3Z" transform="translate(-0.49 -0.69)"/><path class="cls-1" d="M.68,6.43a3.82,3.82,0,0,1,.38-1.23H7.14V6.44S.71,6.45.68,6.43Z" transform="translate(-0.49 -0.69)"/><path class="cls-1" d="M.53,7.34H7.14v.92L6.8,8.6H.52A6,6,0,0,1,.53,7.34Z" transform="translate(-0.49 -0.69)"/><path class="cls-1" d="M1,10.68H4.43L5.8,9.48H.63S.86,10.38,1,10.68Z" transform="translate(-0.49 -0.69)"/><path class="cls-1" d="M1.41,11.59h2L2.18,12.73A9.54,9.54,0,0,1,1.41,11.59Z" transform="translate(-0.49 -0.69)"/></svg>