<svg id="Layer_1" data-name="Layer 1" xmlns="http://www.w3.org/2000/svg" viewBox="0 0 13.95 13.95"><defs><style>.cls-1,.cls-3{fill:none;stroke-miterlimit:10;}.cls-1{stroke:#fff;stroke-width:0.15px;}.cls-2{fill:#f2f2f2;opacity:0.25;}.cls-3{stroke:#fcfcfc;stroke-width:0.75px;}.cls-4{fill:#fff8f8;}</style></defs><title>Application_color</title><circle class="cls-1" cx="6.98" cy="6.98" r="6.9"/><path class="cls-2" d="M10.29,4.15,13.73,8.4A6.83,6.83,0,0,1,7,13.91L3.52,9.79C7.29,13.2,13.39,10,10.29,4.15Z" transform="translate(0.01 -0.03)"/><circle class="cls-3" cx="6.98" cy="6.98" r="4.38"/><path class="cls-4" d="M5.77,7.24l-.21-.08a3.32,3.32,0,0,1,.65-.73,1.5,1.5,0,0,1,.56-.3.38.38,0,0,1,.22,0,.16.16,0,0,1,.1.12A5.85,5.85,0,0,1,7,7.19a7.8,7.8,0,0,0-.11,1.62.12.12,0,0,0,0,.08.09.09,0,0,0,.07,0q.14,0,.6-.59l.19.1a5.56,5.56,0,0,1-.72.77,1.1,1.1,0,0,1-.41.22.34.34,0,0,1-.25,0,.28.28,0,0,1-.14-.2,9.52,9.52,0,0,1,.16-2.31.46.46,0,0,0,0-.15s0-.07-.09-.05a.43.43,0,0,0-.18.1A4.46,4.46,0,0,0,5.77,7.24ZM6.92,4.52a.32.32,0,0,1,.23,0,.24.24,0,0,1,.13.17.37.37,0,0,1-.07.3.42.42,0,0,1-.27.18.31.31,0,0,1-.23,0A.25.25,0,0,1,6.59,5a.36.36,0,0,1,.06-.3A.43.43,0,0,1,6.92,4.52Z" transform="translate(0.01 -0.03)"/></svg>