<svg id="Layer_1" data-name="Layer 1" xmlns="http://www.w3.org/2000/svg" viewBox="0 0 205.94 243.61"><defs><style>.cls-1{fill:none;stroke:#666;stroke-miterlimit:10;stroke-width:5px;}</style></defs><title>active-GRAY</title><path class="cls-1" d="M197.82,78.84a100.46,100.46,0,1,1-70.4-32.27V26.49l23.95,23.95-25.7,25.7V58" transform="translate(-21.03 -6.34)"/><path class="cls-1" d="M188.91,87.35A87.92,87.92,0,1,1,37.3,134.28C43.85,89.49,84,57.55,128.18,59.11" transform="translate(-21.03 -6.34)"/><path class="cls-1" d="M103.92,140.19V89.63a.16.16,0,0,1,.3-.07l21.88,44.86a.16.16,0,0,0,.28,0L207.48,8.91a.16.16,0,0,1,.29,0L219.92,52a.16.16,0,0,1,0,.15L126.35,164.66a.16.16,0,0,1-.24,0L104,140.3A.16.16,0,0,1,103.92,140.19Z" transform="translate(-21.03 -6.34)"/><line class="cls-1" x1="51.66" y1="79.25" x2="59.47" y2="87.06"/><line class="cls-1" x1="157.64" y1="184.11" x2="165.44" y2="191.92"/><line class="cls-1" x1="23.27" y1="136.7" x2="34.31" y2="136.7"/><line class="cls-1" x1="172.75" y1="136.7" x2="183.79" y2="136.7"/><line class="cls-1" x1="105.76" y1="210.38" x2="105.76" y2="221.43"/><line class="cls-1" x1="49.43" y1="196.38" x2="57.23" y2="188.58"/></svg>