<svg id="Layer_1" data-name="Layer 1" xmlns="http://www.w3.org/2000/svg" viewBox="0 0 13.06 13.01"><defs><style>.cls-1,.cls-2{fill:none;stroke:#fff;}.cls-1{stroke-linecap:round;stroke-linejoin:round;}.cls-2{stroke-miterlimit:10;stroke-width:0.1px;}.cls-3{fill:#fff;}</style></defs><title>Avg of students</title><path class="cls-1" d="M2.85,12.87s4.26-25.6,8.91,0" transform="translate(-0.61 -0.56)"/><line class="cls-1" x1="0.5" y1="0.5" x2="0.5" y2="12.51"/><line class="cls-1" x1="0.5" y1="12.51" x2="12.12" y2="12.51"/><rect class="cls-2" x="0.93" y="6.11" width="12.08" height="0.88"/><ellipse class="cls-3" cx="2.02" cy="7.1" rx="0.23" ry="0.23" transform="translate(-5.7 8.52) rotate(-89.74)"/><ellipse class="cls-3" cx="2.94" cy="7.11" rx="0.23" ry="0.23" transform="translate(-4.79 9.45) rotate(-89.74)"/><ellipse class="cls-3" cx="3.86" cy="7.11" rx="0.23" ry="0.23" transform="translate(-3.88 10.37) rotate(-89.74)"/><ellipse class="cls-3" cx="4.78" cy="7.11" rx="0.23" ry="0.23" transform="translate(-2.97 11.3) rotate(-89.74)"/><ellipse class="cls-3" cx="5.7" cy="7.12" rx="0.23" ry="0.23" transform="translate(-2.06 12.22) rotate(-89.74)"/><ellipse class="cls-3" cx="6.61" cy="7.12" rx="0.23" ry="0.23" transform="translate(-1.15 13.14) rotate(-89.74)"/><ellipse class="cls-3" cx="7.53" cy="7.13" rx="0.23" ry="0.23" transform="translate(-0.24 14.07) rotate(-89.74)"/><ellipse class="cls-3" cx="8.45" cy="7.13" rx="0.23" ry="0.23" transform="translate(0.67 14.99) rotate(-89.74)"/><ellipse class="cls-3" cx="9.37" cy="7.14" rx="0.23" ry="0.23" transform="translate(1.58 15.91) rotate(-89.74)"/><ellipse class="cls-3" cx="10.29" cy="7.14" rx="0.23" ry="0.23" transform="translate(2.49 16.84) rotate(-89.74)"/><ellipse class="cls-3" cx="11.21" cy="7.14" rx="0.23" ry="0.23" transform="translate(3.41 17.76) rotate(-89.74)"/><ellipse class="cls-3" cx="12.13" cy="7.15" rx="0.23" ry="0.23" transform="translate(4.32 18.68) rotate(-89.74)"/><ellipse class="cls-3" cx="13.05" cy="7.15" rx="0.23" ry="0.23" transform="translate(5.23 19.61) rotate(-89.74)"/></svg>