<svg id="Layer_1" data-name="Layer 1" xmlns="http://www.w3.org/2000/svg" viewBox="0 0 16 28.18"><defs><style>.cls-1{fill:#c6f;}</style></defs><title>Wallet (32×32)</title><path class="cls-1" d="M21.51,29.85l-.18-.08L8.62,22.11s-.79-.38-.58-1.7c0-.05,0-.11,0-.16l.08-9.2a1.16,1.16,0,0,1,.54-1L21.08,2.29a1.72,1.72,0,0,1,2.09,0l.44.42a1.15,1.15,0,0,1,.35.84v7.78a1.14,1.14,0,0,1-.51,1l-3.63,2.44a1.17,1.17,0,0,1-1.25,0l-4.63-2.84a.51.51,0,0,1,.34-.82l7.87-4.68a1.13,1.13,0,0,0,.55-.79c.11-.73.09-1.88-1.34-1.39l-10,6a1.15,1.15,0,0,0,0,2l5.22,3.42,5.87,3.62A2.78,2.78,0,0,1,24,22.08l0,6.8a1.13,1.13,0,0,1-.56,1A2.16,2.16,0,0,1,21.51,29.85Z" transform="translate(-8 -1.91)"/></svg>