<?xml version="1.0" encoding="utf-8"?>
<!-- Generator: Adobe Illustrator 17.1.0, SVG Export Plug-In . SVG Version: 6.00 Build 0)  -->
<!DOCTYPE svg PUBLIC "-//W3C//DTD SVG 1.1//EN" "http://www.w3.org/Graphics/SVG/1.1/DTD/svg11.dtd">
<svg version="1.1" id="Layer_1" xmlns="http://www.w3.org/2000/svg" xmlns:xlink="http://www.w3.org/1999/xlink" x="0px" y="0px"
	 viewBox="0 0 450 600" enable-background="new 0 0 450 600" xml:space="preserve">
<path fill="#D8E591" d="M449.127,482.626c1.024,4.947,1.409,10.696,0.873,17.374V58.031h-70.395
	c-27.89,0-53.042,14.405-62.51,36.266c-4.401,10.163-7.342,23.061-7.342,39.382v191.12c0,0,73.412,40.369,56.853,128.051"/>
<path fill="#15A988" d="M449.992,58.552H377.57c-7.753,0-15.405,1.581-22.192,4.709c-16.996,7.834-45.145,26.716-45.145,65.859
	l-0.488,196.73c0,0-37.257-21.56-49.332-26.216c-35.42-13.655-123.673-39.454-152.451,25.741
	c-14.017,31.754-27.584,67.366-25.283,129.818c0,0-1.193,46.545,33.565,78.511s0,0,0,0s29.108,38.346,109.766,52.524
	c80.658,14.178,0,0,0,0v14.178H20.999c-11.598,0-21-9.42-21.001-21.041l-0.006-77.966V204.956h120.281
	c22.569,0,43.408-10.452,53.594-27.269c6.74-11.128,12.508-26.603,14.711-48.01V0.405h203.43h37.582
	c11.267,0,20.401,9.152,20.401,20.442V58.552z"/>
<path fill="#D8E591" d="M366.522,450.667v2.641c0,0-14.379,69.857-27.998,83.476s-16.203,29.846-52.196,46.947
	c0,0-27.812,11.773-60.403,2.104L226.008,600h122.158h81.933c11.118,0,20.124-9.025,20.101-20.142L450,480.833"/>
<path fill="#FFFFFF" stroke="#15A988" stroke-width="5.0696" stroke-miterlimit="10" d="M336.158,337.654
	c74.764,42.262,19.561,169.792-15.475,229.207c-35.036,59.414-147.559,6.576-222.323-35.686s-15.404-163.158,19.632-222.573
	S261.394,295.393,336.158,337.654z"/>
<g>
	<path fill="#EF5F3C" d="M282.992,432.278h14.667v21.559h-14.667V432.278z"/>
	<path fill="#F5866A" d="M297.658,425.091h14.667v28.746h-14.667V425.091z"/>
	<path fill="#F8AFA1" d="M309.325,412.312h14.667v39.525h-14.667V412.312z"/>
	<path fill="#D3E3F5" d="M268.325,450.244h69.667v7.186h-69.667V450.244z"/>
	<path fill="#D3E3F5" d="M172.992,410.718h-55v-7.186h53.481l20.926-20.507l5.186,5.081l-22,21.559
		C174.897,410.34,173.964,410.718,172.992,410.718z"/>
	<path fill="#FFC533" d="M129.658,336.854h7.333v13.475h-7.333V336.854z"/>
	<path fill="#FFC533" d="M144.325,336.854h7.333v17.966h-7.333V336.854z"/>
	<path fill="#6958A6" d="M176.658,518.515h73.333v25.153h-73.333V518.515z"/>
	<path fill="#FFC533" d="M235.325,482.583v35.932l-11,14.373h-22l-11-14.373v-35.932H235.325z"/>
	<path fill="#FCB415" d="M191.325,500.549h44v7.186h-44V500.549z"/>
	<path fill="#FCB415" d="M235.325,514.922v3.593l-2.75,3.593h-38.5l-2.75-3.593v-3.593H235.325z"/>
	<path fill="#6958A6" d="M290.325,543.667l-12.691-9.396l-31.309-40.909v-28.746l23.92,0.02l23.117,47.309l33.79,31.722H290.325z"/>
	<path fill="#7764AC" d="M271.992,462.905c0,3.51-0.615,6.994-1.82,10.299l-16.514,45.31h-18.333l-11.385-22.318
		c-2.933-5.745-10.063-8.072-15.925-5.198c-2.295,1.125-4.156,2.949-5.305,5.198l-11.385,22.318h-18.333l-14.777-25.341
		l-10.739-18.415c-7.939-13.614-3.113-30.958,10.779-38.739c3.608-2.021,7.618-3.257,11.757-3.625
		c0.862-0.076,1.734-0.115,2.617-0.117h68.108c17.259-0.002,31.252,13.707,31.254,30.62
		C271.992,462.9,271.992,462.903,271.992,462.905L271.992,462.905z"/>
	<path fill="#6958A6" d="M187.658,461.023c-0.002,16.51-12.694,30.369-29.443,32.15l-10.739-18.415
		c-7.939-13.614-3.113-30.958,10.779-38.739c3.608-2.021,7.618-3.257,11.757-3.625C180.866,437.983,187.662,449.008,187.658,461.023
		z"/>
	<path fill="#6958A6" d="M198.658,410.718v25.153c0,7.938,6.566,14.373,14.667,14.373s14.667-6.435,14.667-14.373v-25.153H198.658z"
		/>
	<path fill="#8978B7" d="M246.325,389.159v39.525c0,1.984-1.642,3.593-3.667,3.593h-17.178c-0.752,0-1.486-0.227-2.103-0.65
		l-21.053-14.442l-14.667-10.061v-17.54c0-15.912,13.007-29.124,29.244-29.172c16.196-0.053,29.369,12.771,29.422,28.643
		C246.325,389.09,246.325,389.125,246.325,389.159z"/>
	
		<ellipse fill="#4AB971" stroke="#7764AC" stroke-width="7.2595" stroke-linejoin="round" cx="205.992" cy="385.566" rx="14.667" ry="14.373"/>
	<path fill="#7764AC" d="M209.658,399.939v22.278l-7.333-5.031v-17.247H209.658z"/>
	<path fill="#7764AC" d="M246.325,399.939h-18.333c-0.973,0-1.905-0.379-2.593-1.052l-7.333-7.186l5.186-5.081l6.259,6.134h16.815
		V399.939z"/>
	<ellipse fill="#9B89C1" cx="282.992" cy="522.108" rx="14.667" ry="14.373"/>
	<path fill="#D3E3F5" d="M264.658,414.312h-18.333v-7.186h16.815l24.592-24.1l5.186,5.081l-25.667,25.153
		C266.564,413.933,265.631,414.312,264.658,414.312z"/>
	<path fill="#FFC533" d="M301.325,331.667c-18.224,0.002-32.995,14.48-32.994,32.339c0.002,17.859,14.776,32.335,33,32.333
		c18.221-0.002,32.992-14.477,32.994-32.333C334.324,346.147,319.55,331.669,301.325,331.667z M301.325,378.379
		c-8.095-0.005-14.654-6.44-14.649-14.373c0.005-7.933,6.571-14.361,14.667-14.356s14.654,6.44,14.649,14.373
		c-0.002,4.055-1.754,7.92-4.822,10.641C308.472,377.057,304.963,378.38,301.325,378.379z"/>
	<path fill="#FCB415" d="M334.325,364.006h-18.333c-0.001-7.938-6.567-14.372-14.667-14.373v-17.966
		C319.55,331.669,334.324,346.147,334.325,364.006z"/>
	<path fill="#4AB971" d="M147.325,349.634h-18.333v35.932h29.333v-25.153L147.325,349.634z"/>
	<path fill="#81C996" d="M139.992,360.413h7.333v14.373h-7.333V360.413z"/>
	<g>
		<path fill="#FFC533" d="M132.658,385.566h7.333v10.78h-7.333V385.566z"/>
		<path fill="#FFC533" d="M147.325,385.566h7.333v10.78h-7.333V385.566z"/>
		<path fill="#FFC533" d="M117.992,364.006h11v7.186h-11V364.006z"/>
		<path fill="#FFC533" d="M117.992,374.786h11v7.186h-11V374.786z"/>
		<path fill="#FFC533" d="M117.992,353.227h11v7.186h-11V353.227z"/>
		<path fill="#FFC533" d="M158.325,364.006h11v7.186h-11V364.006z"/>
		<path fill="#FFC533" d="M158.325,374.786h11v7.186h-11V374.786z"/>
	</g>
	<ellipse fill="#63C085" cx="205.992" cy="385.566" rx="5.5" ry="5.39"/>
	<path fill="#7764AC" d="M124.592,530.733l4.4,12.934h35.2l-13.2-21.559l18.333-50.305l-33-10.78l-13.126,54.67L124.592,530.733z"/>
	<ellipse fill="#9B89C1" cx="154.658" cy="461.023" rx="18.333" ry="17.966"/>
	<ellipse fill="#9B89C1" cx="136.325" cy="522.108" rx="14.667" ry="14.373"/>
	<path fill="#F9A11B" d="M334.325,364.006c0.01,9.306-4.082,18.163-11.225,24.295l-11.93-13.636
		c3.074-2.724,4.826-6.597,4.822-10.658H334.325z"/>
</g>
<path fill="#BAD767" d="M60.202,0H200v160.614c0,18.261,0.191,26.761-1.983,39.029c-5.652,31.896-34.444,54.502-66.836,54.502H0
	V81.244l0-56.09C0,11.481,9.403,0.374,21.05,0.288L60.202,0z"/>
</svg>
