<svg xmlns="http://www.w3.org/2000/svg" xmlns:xlink="http://www.w3.org/1999/xlink" viewBox="0 0 188 573"><defs><style>.cls-1,.cls-110{fill:none;}.cls-2{isolation:isolate;}.cls-3{fill:#827f7e;}.cls-4{fill:#333;}.cls-5{fill:#a8a7a7;}.cls-10,.cls-11,.cls-12,.cls-13,.cls-14,.cls-15,.cls-16,.cls-17,.cls-18,.cls-19,.cls-20,.cls-21,.cls-22,.cls-23,.cls-24,.cls-25,.cls-26,.cls-27,.cls-28,.cls-29,.cls-30,.cls-31,.cls-32,.cls-33,.cls-34,.cls-35,.cls-36,.cls-37,.cls-38,.cls-6,.cls-7,.cls-8,.cls-9{fill:#939393;}.cls-7{opacity:0;}.cls-10,.cls-11,.cls-118,.cls-12,.cls-122,.cls-126,.cls-13,.cls-14,.cls-15,.cls-16,.cls-17,.cls-18,.cls-19,.cls-20,.cls-21,.cls-22,.cls-23,.cls-24,.cls-25,.cls-26,.cls-27,.cls-28,.cls-29,.cls-30,.cls-31,.cls-32,.cls-33,.cls-34,.cls-35,.cls-36,.cls-37,.cls-38,.cls-43,.cls-7,.cls-8,.cls-9{mix-blend-mode:multiply;}.cls-8{opacity:0.02;}.cls-9{opacity:0.04;}.cls-10{opacity:0.06;}.cls-11{opacity:0.08;}.cls-12{opacity:0.1;}.cls-13{opacity:0.12;}.cls-14{opacity:0.14;}.cls-15{opacity:0.15;}.cls-16{opacity:0.17;}.cls-17{opacity:0.19;}.cls-18{opacity:0.21;}.cls-19{opacity:0.23;}.cls-20{opacity:0.25;}.cls-21{opacity:0.27;}.cls-22{opacity:0.29;}.cls-23{opacity:0.31;}.cls-24{opacity:0.33;}.cls-25{opacity:0.35;}.cls-26{opacity:0.37;}.cls-27{opacity:0.39;}.cls-28{opacity:0.41;}.cls-29{opacity:0.43;}.cls-30{opacity:0.45;}.cls-31{opacity:0.46;}.cls-32{opacity:0.48;}.cls-33{opacity:0.5;}.cls-34{opacity:0.52;}.cls-35{opacity:0.54;}.cls-36{opacity:0.56;}.cls-37{opacity:0.58;}.cls-38{opacity:0.6;}.cls-39{fill:#2b2c2b;}.cls-40{fill:#6c6d6d;}.cls-41{fill:#181818;}.cls-42{fill:#cccccb;}.cls-43{fill:#726e6d;opacity:0.1;}.cls-103,.cls-44{fill:#cec7c4;}.cls-45{fill:#020202;}.cls-46{fill:#3e3e3e;}.cls-47{fill:#050606;}.cls-48{fill:#88888e;}.cls-49{fill:#2b2b2b;}.cls-50{fill:#2d2d2d;}.cls-51{fill:#414141;}.cls-52{fill:#40403f;}.cls-53{fill:#020203;}.cls-54{fill:#bcc1be;}.cls-108,.cls-55{fill:#f26722;}.cls-56{fill:#f5845e;}.cls-57{fill:#3a3a3a;}.cls-58{fill:#3a3837;}.cls-59{fill:#1b1c1c;}.cls-60,.cls-70{fill:#b7b7b8;}.cls-61{fill:#cac9cc;}.cls-62{fill:#f3f3f3;}.cls-103,.cls-118,.cls-62,.cls-70,.cls-92{opacity:0.8;}.cls-114,.cls-119,.cls-121,.cls-123,.cls-124,.cls-129,.cls-130,.cls-131,.cls-62{mix-blend-mode:screen;}.cls-63{fill:#212120;}.cls-64{fill:#3f3f3f;}.cls-65{fill:#afafae;}.cls-66{fill:#d3d5d4;}.cls-67{fill:#c5c3ca;}.cls-68{fill:#0c0909;}.cls-69{fill:#b5b5b5;}.cls-71{fill:#0d0c0b;}.cls-72{fill:#b0b0b0;}.cls-73{fill:#212121;}.cls-74{fill:#121111;}.cls-75{fill:#999;}.cls-114,.cls-117,.cls-75,.cls-96{opacity:0.25;}.cls-76{fill:#181718;}.cls-77{fill:#373636;}.cls-78{clip-path:url(#clip-path);}.cls-79{fill:#b7baba;}.cls-80{fill:#c5c5c8;}.cls-81{fill:url(#Áåçûìÿííûé_ãðàäèåíò_232);}.cls-82{fill:#757577;stroke:#adacad;}.cls-100,.cls-82{stroke-miterlimit:10;stroke-width:0.3px;}.cls-122,.cls-83{fill:#d4d6d4;}.cls-84{fill:#f5835e;}.cls-85{fill:#f06724;}.cls-86{fill:#c4c2c9;}.cls-87{fill:#030303;}.cls-88{fill:#0e0c0c;}.cls-89{fill:#404141;}.cls-90{fill:#b4b4b5;}.cls-91{fill:#3a3b3a;}.cls-92{fill:#b7b7b7;}.cls-93{fill:#0f0e0e;}.cls-94{fill:#afafb0;}.cls-95{fill:#141313;}.cls-96{fill:#989798;}.cls-97{clip-path:url(#clip-path-2);}.cls-98{fill:#c5c4c8;}.cls-99{fill:url(#Áåçûìÿííûé_ãðàäèåíò_2);}.cls-100{fill:#767779;stroke:#adadad;}.cls-101{fill:#ffc936;opacity:0.45;}.cls-102,.cls-123{fill:#fff;}.cls-104{fill:#fbfcfc;}.cls-105{fill:#57abdb;}.cls-106{fill:#6dccde;}.cls-106,.cls-107,.cls-110{stroke:#fff;stroke-linejoin:round;stroke-width:0.99px;}.cls-107{fill:#2b6e37;}.cls-108,.cls-129,.cls-131{opacity:0.4;}.cls-109{fill:#1f1a3e;opacity:0.5;}.cls-111{fill:#edf8fe;}.cls-112{fill:#c2c1c0;}.cls-113{fill:#0a0b0b;}.cls-114,.cls-120,.cls-130{fill:#b5b6b6;}.cls-115{fill:#474747;}.cls-116{fill:#5b5c5c;}.cls-117{fill:#aeaeae;}.cls-118,.cls-121,.cls-129{fill:#e0e1e0;}.cls-119{fill:#e0e1e1;}.cls-119,.cls-123{opacity:0.3;}.cls-121,.cls-124{opacity:0.2;}.cls-124{fill:#b3b3b3;}.cls-125{fill:#1e1e1d;}.cls-126{fill:#606060;}.cls-127{fill:#848384;}.cls-128{fill:#4dc1c3;}.cls-130{opacity:0.35;}.cls-131{fill:#f9f9fa;}.cls-132{fill:#f26526;}.cls-133{opacity:0.15;}</style><clipPath id="clip-path"><path class="cls-1" d="M112.15,394a7.93,7.93,0,0,1,4,3.43l10.76.37c1.14-2.05,2.55-3.43,4.27-3.65,1.63.49,1.78,5.31,2.38,10-1.54,13.26-10.74,13.19-10.74,13.19H120s-10-.67-11.07-14C109.49,398.25,110.3,393.71,112.15,394Z"/></clipPath><linearGradient id="Áåçûìÿííûé_ãðàäèåíò_232" x1="105.16" y1="393.41" x2="105.16" y2="400.93" gradientUnits="userSpaceOnUse"><stop offset="0" stop-color="#cbcbcb"/><stop offset="1" stop-color="#757575"/></linearGradient><clipPath id="clip-path-2"><path class="cls-1" d="M77.71,394a8,8,0,0,0-4,3.43L63,397.79c-1.14-2.05-2.55-3.43-4.27-3.65-1.63.49-1.79,5.31-2.38,10,1.53,13.26,10.74,13.19,10.74,13.19h2.8s10-.67,11.07-14C80.38,398.25,79.57,393.71,77.71,394Z"/></clipPath><linearGradient id="Áåçûìÿííûé_ãðàäèåíò_2" x1="162.82" y1="393.41" x2="162.82" y2="400.93" gradientTransform="matrix(-1, 0, 0, 1, 247.53, 0)" gradientUnits="userSpaceOnUse"><stop offset="0" stop-color="#cacac9"/><stop offset="1" stop-color="#747676"/></linearGradient></defs><g class="cls-2"><g id="Layer_1" data-name="Layer 1"><path class="cls-3" d="M91.13,296.38s5.06,3.87,9.11-.4c0,0,1.89-6.05,8.35-13.89a87.26,87.26,0,0,1,11.17-11.72,74.13,74.13,0,0,0,0-11.35s-2.63,1.59-17.9,3c0,0-1.62.19-3.52,3.61,0,0-2.85,4.18-6.07.85L90,263.57a4.33,4.33,0,0,0-3.48-1.78S71.6,260.62,69.85,259l-.18,11.35S86.56,285.14,91.13,296.38Z"/><path class="cls-4" d="M153.16,168.82,145,179.57,126.49,127l4.86-.48S138.5,151.36,153.16,168.82Z"/><path class="cls-5" d="M108.49,98.44s-2.49,10.2,1.68,15.92c3.43,4.69,14.25,8.48,16.17,13.46a328.78,328.78,0,0,1-33,4.79V99.67Z"/><path class="cls-5" d="M77.75,98.44s2.48,10.2-1.69,15.92c-3.42,4.69-14.25,8.48-16.16,13.46a328.87,328.87,0,0,0,33,4.79V99.67Z"/><rect class="cls-6" x="88.42" y="102.92" width="9.5" height="37.11"/><rect class="cls-7" x="88.48" y="106.12" width="9.4" height="13.15"/><rect class="cls-8" x="88.48" y="106.12" width="9.4" height="12.82"/><rect class="cls-9" x="88.48" y="106.12" width="9.4" height="12.5"/><rect class="cls-10" x="88.48" y="106.12" width="9.4" height="12.18"/><rect class="cls-11" x="88.48" y="106.12" width="9.4" height="11.85"/><rect class="cls-12" x="88.48" y="106.12" width="9.4" height="11.53"/><rect class="cls-13" x="88.48" y="106.12" width="9.4" height="11.21"/><rect class="cls-14" x="88.48" y="106.12" width="9.4" height="10.88"/><rect class="cls-15" x="88.48" y="106.12" width="9.4" height="10.56"/><rect class="cls-16" x="88.48" y="106.12" width="9.4" height="10.24"/><rect class="cls-17" x="88.48" y="106.12" width="9.4" height="9.91"/><rect class="cls-18" x="88.48" y="106.12" width="9.4" height="9.59"/><rect class="cls-19" x="88.48" y="106.12" width="9.4" height="9.27"/><rect class="cls-20" x="88.48" y="106.12" width="9.4" height="8.94"/><rect class="cls-21" x="88.48" y="106.12" width="9.4" height="8.62"/><rect class="cls-22" x="88.48" y="106.12" width="9.4" height="8.3"/><rect class="cls-23" x="88.48" y="106.12" width="9.4" height="7.97"/><rect class="cls-24" x="88.48" y="106.12" width="9.4" height="7.65"/><rect class="cls-25" x="88.48" y="106.12" width="9.4" height="7.33"/><rect class="cls-26" x="88.48" y="106.12" width="9.4" height="7"/><rect class="cls-27" x="88.48" y="106.12" width="9.4" height="6.68"/><rect class="cls-28" x="88.48" y="106.12" width="9.4" height="6.36"/><rect class="cls-29" x="88.48" y="106.12" width="9.4" height="6.04"/><rect class="cls-30" x="88.48" y="106.12" width="9.4" height="5.71"/><rect class="cls-31" x="88.48" y="106.12" width="9.4" height="5.39"/><rect class="cls-32" x="88.48" y="106.12" width="9.4" height="5.07"/><rect class="cls-33" x="88.48" y="106.12" width="9.4" height="4.74"/><rect class="cls-34" x="88.48" y="106.12" width="9.4" height="4.42"/><rect class="cls-35" x="88.48" y="106.12" width="9.4" height="4.1"/><rect class="cls-36" x="88.48" y="106.12" width="9.4" height="3.77"/><rect class="cls-37" x="88.48" y="106.12" width="9.4" height="3.45"/><rect class="cls-38" x="88.48" y="106.12" width="9.4" height="3.13"/><path class="cls-38" d="M97.83,109.56a9.34,9.34,0,0,1-4.64,1.32,9.52,9.52,0,0,1-4.67-1.32v-1a11.6,11.6,0,0,0,4.67,1.32,11.38,11.38,0,0,0,4.64-1.32Z"/><path class="cls-38" d="M97.83,113.73A9.39,9.39,0,0,1,93.19,115a9.57,9.57,0,0,1-4.67-1.31v-1a11.66,11.66,0,0,0,4.67,1.31,11.44,11.44,0,0,0,4.64-1.31Z"/><path class="cls-38" d="M97.83,117.89a9.34,9.34,0,0,1-4.64,1.32,9.52,9.52,0,0,1-4.67-1.32v-1a11.6,11.6,0,0,0,4.67,1.32,11.38,11.38,0,0,0,4.64-1.32Z"/><path class="cls-38" d="M97.83,122.06a9.39,9.39,0,0,1-4.64,1.31,9.57,9.57,0,0,1-4.67-1.31v-1a11.66,11.66,0,0,0,4.67,1.31,11.44,11.44,0,0,0,4.64-1.31Z"/><path class="cls-38" d="M97.83,126.23a9.39,9.39,0,0,1-4.64,1.31,9.57,9.57,0,0,1-4.67-1.31v-1a11.6,11.6,0,0,0,4.67,1.32,11.38,11.38,0,0,0,4.64-1.32Z"/><path class="cls-38" d="M97.83,130.39a9.39,9.39,0,0,1-4.64,1.31,9.57,9.57,0,0,1-4.67-1.31v-1a11.66,11.66,0,0,0,4.67,1.31,11.44,11.44,0,0,0,4.64-1.31Z"/><path class="cls-39" d="M119.05,129.38a53.17,53.17,0,0,0-5.86-5.79c-.84-.67-1.62-1.23-2.38-1.77-2.7-1.94-4.84-3.47-6-7.94l.73-.31c1.11,4.13,3,5.5,5.7,7.41.76.55,1.55,1.11,2.41,1.8a52.76,52.76,0,0,1,6,5.9Z"/><path class="cls-39" d="M100,130.59l-.75-.42c6.31-14.92,6.21-31.12,6.21-31.28l.83,0C106.32,99,106.41,115.47,100,130.59Z"/><path class="cls-39" d="M105.42,132.36l-.81-.18c2.87-15-.74-29.43-.78-29.58l.81-.23C104.67,102.52,108.33,117.16,105.42,132.36Z"/><path class="cls-39" d="M115.28,129a27.35,27.35,0,0,1-8.86-9.78c-3-6.08-2.15-15.92-2.11-16.34l.75.12c0,.09-.9,9.92,2,15.7a26.91,26.91,0,0,0,8.56,9.44Z"/><polygon class="cls-40" points="101.04 121.19 98.92 120.62 102.51 105.77 104.63 106.34 101.04 121.19"/><polygon class="cls-41" points="98.5 135.79 94.91 134.82 98.5 119.97 102.09 120.94 98.5 135.79"/><polygon class="cls-41" points="105.52 108.94 101.33 107.44 102.89 101 107.08 102.5 105.52 108.94"/><path class="cls-39" d="M67,129.37a51.76,51.76,0,0,1,5.85-5.79c.85-.68,1.63-1.24,2.38-1.78,2.71-1.93,4.84-3.46,6-7.93l-.72-.31c-1.11,4.12-3,5.5-5.7,7.41-.76.54-1.55,1.11-2.41,1.79a55.19,55.19,0,0,0-6,5.9Z"/><path class="cls-39" d="M86.07,130.58l.75-.42C80.5,115.24,80.6,99,80.6,98.87h-.83C79.77,99,79.67,115.46,86.07,130.58Z"/><path class="cls-39" d="M80.66,132.34l.82-.17c-2.88-15,.74-29.43.77-29.58l-.8-.23C81.41,102.51,77.75,117.15,80.66,132.34Z"/><path class="cls-39" d="M70.8,129a27.35,27.35,0,0,0,8.86-9.78c3-6.09,2.16-15.92,2.12-16.34L81,103c0,.09.9,9.91-2,15.7a26.81,26.81,0,0,1-8.56,9.44Z"/><polygon class="cls-40" points="85.04 121.18 87.16 120.61 83.57 105.75 81.45 106.33 85.04 121.18"/><polygon class="cls-41" points="87.58 135.78 91.18 134.81 87.59 119.95 83.99 120.93 87.58 135.78"/><polygon class="cls-41" points="81.16 108.41 84.75 107.43 83.2 100.99 79.6 101.97 81.16 108.41"/><path class="cls-3" d="M138.25,218.5s-16.08-20-43.44-20-42,21.78-42,21.78c1.89,9.29,4.34,17.48,4.61,26.66.53,17.91-2.67,18.79-4.45,38.31a57.66,57.66,0,0,1,20.09,14.82l46.55-3.52s8.21-9.5,17.47-12.75c-1.51-19.78-4-19.6-3.48-37.23C133.9,237.52,136.36,227.72,138.25,218.5Z"/><path class="cls-4" d="M37.12,167.55,42,178.84l18.49-52-4-.77S55,140.36,37.12,167.55Z"/><path class="cls-42" d="M41.77,177.7l4.74,19.21,4.7,14.57,1.51,3s1.12,2.4,3.37,0c0,0,16.11-10.1,29.55-13.81,0,0,11.07-2.06,19.06.95,0,0,7.35,1.66,28,12,0,0,4.59,4,6.17-2.21,0,0,6.8-17.63,8.22-36.6,0,0-7.9-30.36-20.63-47.83H60.66S46,152.4,41.77,177.7Z"/><path class="cls-43" d="M50.52,187.93c2.34,1.88,8.41,5.55,18.42,3.55,0,0,13.89-4.61,22.32-4.6a21.62,21.62,0,0,0,2.41-.13c3.22-.34,13.26-.76,31.24,4.11a21.15,21.15,0,0,0,12.42-1.24,11.38,11.38,0,0,0,6.51-7.72,21.5,21.5,0,0,0,.61-3.87l-.31-2.75a18.09,18.09,0,0,1-20.74,8.39s-15.75-4.09-28-2.55a31.65,31.65,0,0,1-3.23.21l-8,.19a51.3,51.3,0,0,0-9.4,1.09c-5,1-13.62,2.31-19.24.19a10.11,10.11,0,0,1-3.73-2.49l-5.91-6.12s0,7.28,2.93,11.79A8.3,8.3,0,0,0,50.52,187.93Z"/><path class="cls-39" d="M68.28,127.06A11.48,11.48,0,0,0,76,138.61S86.54,143.5,89.68,148c0,0,.12-6.05-7.67-11.16a14.68,14.68,0,0,1-7.91-9.81Z"/><path class="cls-39" d="M120.41,127.06a11.48,11.48,0,0,1-7.69,11.55S102.13,143.5,99,148c0,0-.11-6.05,7.69-11.16a14.71,14.71,0,0,0,7.92-9.81Z"/><path class="cls-44" d="M55.75,259.69l10.12,3.9s6.31-25.21-3-48c0,0-6.5,6-7.9,5.49l.43.94s14.4,5.94,9.43,18.78a15.69,15.69,0,0,1-4.13,6,7.48,7.48,0,0,0-.74.75,32.77,32.77,0,0,0-2.12,2.73,8,8,0,0,0-1.28,3.15A53.38,53.38,0,0,0,55.75,259.69Z"/><path class="cls-44" d="M126.58,214.27s-8.59,9.71-3,48.44c0,0,8.48-4.21,11.07-4,0,0-.19-5.75-1-7.67a30.55,30.55,0,0,0-3.33-4.42s-8-7.41-4.14-16.06a17.62,17.62,0,0,1,9.15-8.72l.66-2a1.32,1.32,0,0,1-2.11-.11S127.42,214.43,126.58,214.27Z"/><path class="cls-45" d="M8.87,203.86l0-.11,2.88.69-.14.71c1.51,1.71,2.13,4.92,1.41,8.36-.67,3.22-2.33,5.8-4.24,7l-.2,1.12-2.43-.51-.14,0L5.76,221h0c-2.71-.78-4.12-4.95-3.17-9.52C3.5,207.13,6.21,203.94,8.87,203.86Z"/><path class="cls-46" d="M5.05,211.93c-1,4.73.55,9,3.44,9.59s6-2.8,7-7.53-.56-9-3.45-9.59S6,207.2,5.05,211.93Z"/><path class="cls-47" d="M8,212.31c-.62,3,.35,5.7,2.18,6.06s3.81-1.77,4.43-4.76-.35-5.7-2.17-6.06S8.63,209.32,8,212.31Z"/><path class="cls-39" d="M9.93,217l.94.27A112.85,112.85,0,0,0,14,201.12L13,201A113.32,113.32,0,0,1,9.93,217Z"/><rect class="cls-48" x="5.71" y="220.42" width="17.09" height="1.67" transform="translate(-207.45 220.29) rotate(-86.06)"/><rect class="cls-49" x="6.83" y="203.23" width="16.84" height="2.82" transform="translate(-189.95 205.79) rotate(-86.06)"/><rect class="cls-49" x="7.48" y="232.78" width="11.77" height="2.82" transform="translate(-221.19 231.48) rotate(-86.07)"/><rect class="cls-50" x="7.89" y="209.86" width="29.19" height="8.29" transform="translate(-192.42 224.92) rotate(-86.91)"/><polygon class="cls-48" points="19.02 203.12 23.92 203.36 23.89 204.34 18.98 204.1 19.02 203.12"/><polygon class="cls-48" points="18.87 207.37 23.77 207.61 23.74 208.59 18.83 208.35 18.87 207.37"/><polygon class="cls-48" points="18.72 211.61 23.62 211.85 23.59 212.84 18.68 212.59 18.72 211.61"/><polygon class="cls-48" points="18.57 215.86 23.47 216.1 23.44 217.08 18.54 216.84 18.57 215.86"/><polygon class="cls-48" points="18.42 220.1 23.32 220.35 23.29 221.33 18.39 221.09 18.42 220.1"/><polygon class="cls-48" points="18.27 224.35 23.18 224.59 23.14 225.58 18.24 225.33 18.27 224.35"/><rect class="cls-48" x="21.05" y="215.73" width="17.09" height="1.67" transform="translate(-187.7 240.06) rotate(-88.39)"/><rect class="cls-49" x="21.5" y="198.51" width="16.84" height="2.82" transform="translate(-170.77 224.14) rotate(-88.37)"/><polygon class="cls-49" points="27.98 223.6 30.8 223.68 30.56 233.31 27.74 233.23 27.98 223.6"/><path class="cls-48" d="M26.7,226.09l-1,.06a113.16,113.16,0,0,1,.36-16.46l1,.1A111.84,111.84,0,0,0,26.7,226.09Z"/><path class="cls-48" d="M18.21,225.36h-.66c-.21-7.79.12-16.71.12-16.8l.67,0C18.33,208.68,18,217.58,18.21,225.36Z"/><path class="cls-48" d="M24.64,227.92H24c-.07-7.79.42-16.71.42-16.8l.66,0C25.05,211.25,24.57,220.14,24.64,227.92Z"/><path class="cls-51" d="M21.34,216.67l.64.16c1.84-7.58,3.39-16.38,3.4-16.46l-.65-.12C24.72,200.34,23.17,209.11,21.34,216.67Z"/><path class="cls-39" d="M23.64,213.75l.95.26a113.16,113.16,0,0,0,3-16.2l-1-.1A111,111,0,0,1,23.64,213.75Z"/><path class="cls-52" d="M32.59,175.9l-.91-.23c0-.07,2-6.92,3-12.25a36.3,36.3,0,0,0,.46-6.14c.09-4.23.16-7.88,2.68-8.58,1.38-.4,5.66,2.86,7.42,4.28l-.62.67c-3-2.37-5.92-4.26-6.53-4.1-1.85.52-1.93,4-2,7.75a37.21,37.21,0,0,1-.48,6.28C34.6,168.94,32.61,175.83,32.59,175.9Z"/><path class="cls-52" d="M19.31,176l-.93-.16c.3-1.57.61-3.7.93-6,.51-3.53,1.09-7.54,1.8-10.24a60,60,0,0,1,2.43-7c.83-2.09,1.49-3.75,1.36-4.77l.94-.1c.15,1.23-.5,2.89-1.42,5.18A60.87,60.87,0,0,0,22,159.83c-.7,2.66-1.27,6.63-1.78,10.15C19.93,172.25,19.62,174.39,19.31,176Z"/><polygon class="cls-52" points="35.08 147.92 27.25 146.5 21.85 172.2 29.67 173.62 35.08 147.92"/><polygon class="cls-48" points="31.45 160.76 24.9 159.18 24.75 160.05 31.3 161.63 31.45 160.76"/><polygon class="cls-48" points="30.79 164.51 24.24 162.93 24.09 163.79 30.64 165.37 30.79 164.51"/><polygon class="cls-48" points="30.13 168.25 23.58 166.67 23.43 167.54 29.98 169.12 30.13 168.25"/><polygon class="cls-48" points="29.47 172 22.92 170.41 22.77 171.28 29.32 172.86 29.47 172"/><polygon class="cls-48" points="28.81 175.74 22.26 174.16 22.11 175.02 28.66 176.6 28.81 175.74"/><polygon class="cls-48" points="28.15 179.48 21.6 177.9 21.45 178.77 27.99 180.35 28.15 179.48"/><polygon class="cls-48" points="25.27 158.71 22.84 158.22 19.36 173.21 21.79 173.7 25.27 158.71"/><polygon class="cls-53" points="29.69 144.44 25.57 143.61 22.15 158.38 26.27 159.21 29.69 144.44"/><polygon class="cls-53" points="22.95 172.59 18.83 171.76 16.56 181.54 20.68 182.36 22.95 172.59"/><polygon class="cls-48" points="29.65 160.01 27.45 159.57 23.98 174.56 26.17 175 29.65 160.01"/><polygon class="cls-53" points="33.96 145.72 30.24 144.98 26.82 159.75 30.54 160.49 33.96 145.72"/><polygon class="cls-53" points="27.24 173.88 23.52 173.13 21.26 182.91 24.98 183.65 27.24 173.88"/><polygon class="cls-48" points="34.76 160.18 32.33 159.74 29.14 174.78 31.57 175.23 34.76 160.18"/><polygon class="cls-53" points="38.91 145.85 34.78 145.09 31.64 159.91 35.77 160.67 38.91 145.85"/><polygon class="cls-53" points="32.71 174.1 28.57 173.34 26.38 183.7 30.51 184.46 32.71 174.1"/><path class="cls-4" d="M12.87,162.81s7.57,7.9,22.9,13L34,195.65l-2.27,2.68a2.24,2.24,0,0,1-2.26.74c-3.08-.78-10.53-1.4-9.06,11.32a1.23,1.23,0,0,1-.46,1.12c-2,1.55-8.85,6.25-11.5-.63C8.46,210.88,3.61,167.59,12.87,162.81Z"/><path class="cls-54" d="M10.64,165.08s-5,6-3.92,38.68l.56.53a1.43,1.43,0,0,1,.45,1.26c-.37,2.42-.84,9.79,8.12,4.19a1.34,1.34,0,0,0,.62-1c.33-3.09,2.32-16.29,11.64-12.9a1,1,0,0,0,1.07-.24l5.93-5.73a1.52,1.52,0,0,0,.46-1.06l.15-10.19A87.75,87.75,0,0,1,10.64,165.08Z"/><path class="cls-55" d="M27.55,175.33l-.64,20.16,1.12.32a1.07,1.07,0,0,0,1.15-.21L34.94,190a1.49,1.49,0,0,0,.63-1.22l.15-10.19Z"/><path class="cls-54" d="M10.52,220.21S7.63,234.05,10,246.89l1.36,9.35,3,16s2.25,10.71,2.1,15.83c0,0,.27,1.32,4.5,1,0,0,.27,2.65,3.62,3.22,0,0-3.69-.93-3.13-4.6,0,0,.32-2.2,3.34-2.73,0,0,3-.2,4,1.49l.65-.71S30,275.62,30.77,273l2.71-18.63s3.61-17.27,2.46-24.64a5.27,5.27,0,0,0-2.09-2s2.65,1.05.53,6.07c0,0-1.77,5-9.34.22,0,0-3.32-1.82-9.13-10.25C15.91,223.8,12.9,218.67,10.52,220.21Z"/><path class="cls-4" d="M13.57,217.29s-1.83-.84-3.12,3.28c0,0,1.6-2.26,4.56,1.91l4,5.57s8.27,11.9,14.51,7c0,0,2-1.59,1.47-5.81,0,0-.79-2.8-3.69-1.23,0,0-4.57.4-11.14-5.78C20.2,222.21,16,218.18,13.57,217.29Z"/><path class="cls-55" d="M15.26,277.14a79.93,79.93,0,0,0,4.83-22.37l.14-6.05s.82-11-2.21-15.19a49.75,49.75,0,0,0-8.16-9.3s-2.49,15.68,1.37,31.4Z"/><path class="cls-56" d="M14.78,262.07a38.83,38.83,0,0,0,2.34-10.85l.07-2.93s.4-5.32-1.07-7.36a24.52,24.52,0,0,0-4-4.51s-1,8.31.67,15.22Z"/><path class="cls-55" d="M29.71,254.14s-.05-4.48-1.38.38L27.54,259l-1.19,6-.92,4.54-1.08,4.64-1.76,7.56-.88,4.48s-.93.76-.83,3.08l7.94-2.86.61-.55.61-8.18.75-4.79-.58-5.72-.08-6.25Z"/><path class="cls-56" d="M28.37,268.52s0-1.95-.6.17l-.35,1.94-.52,2.63-.4,2-.47,2-.77,3.3-.38,2s-.41.33-.37,1.34L28,282.62l.26-.24.27-3.57.33-2.09-.25-2.5,0-2.73Z"/><path class="cls-4" d="M12,156.51s.83-38.29,44.36-30.19c0,0-1.41,24.55-23.31,31.74C33.09,158.06,24.88,160.71,12,156.51Z"/><path class="cls-54" d="M12.34,153.27s3-32.63,39.65-27.63c0,0-1.79,20.35-20.17,28.06C31.82,153.7,21.54,156.68,12.34,153.27Z"/><path class="cls-55" d="M23,143.47a19.58,19.58,0,0,1,12.67-11.4l1.86-6.31A28.77,28.77,0,0,0,16.3,141.19Z"/><path class="cls-57" d="M18.3,204.11c-1.86,5.66.39,11.54,5,13.14s9.88-1.68,11.74-7.33-.39-11.54-5-13.14S20.16,198.46,18.3,204.11Z"/><path class="cls-45" d="M30,199.09l3,.51L32.64,201A12.13,12.13,0,0,1,30,215.3l-.22,1.2-2.92-.41v0c-2.71-.64-4.28-4.7-3.52-9.27S27.08,198.65,30,199.09Z"/><path class="cls-40" d="M25.12,207c-.78,4.7.91,8.87,3.78,9.32s5.83-3,6.61-7.7-.9-8.87-3.77-9.32S25.91,202.27,25.12,207Z"/><path class="cls-45" d="M28.65,207.27c-.49,3,.57,5.6,2.39,5.89s3.68-1.9,4.18-4.87-.57-5.61-2.39-5.89S29.15,204.3,28.65,207.27Z"/><path class="cls-58" d="M30.19,207.4c-.39,2.33.45,4.4,1.87,4.63s2.9-1.49,3.29-3.83-.45-4.4-1.88-4.62S30.58,205.07,30.19,207.4Z"/><path class="cls-40" d="M33.16,203.44a1.72,1.72,0,0,1,1,.5,1.69,1.69,0,0,0-.74-.32c-1.41-.22-2.87,1.48-3.25,3.78s.44,4.36,1.85,4.58a1.51,1.51,0,0,0,.3,0,1.51,1.51,0,0,1-.56,0c-1.44-.22-2.29-2.32-1.9-4.69S31.72,203.21,33.16,203.44Z"/><path class="cls-59" d="M24.67,314.74a1.94,1.94,0,1,1-2-1.79A1.91,1.91,0,0,1,24.67,314.74Z"/><path class="cls-59" d="M23.29,316.57a2,2,0,0,1-2,2.06,2,2,0,0,1-2.13-1.93,2.06,2.06,0,0,1,4.12-.13Z"/><path class="cls-59" d="M21.9,317.35a1.93,1.93,0,0,1-1.9,2,1.91,1.91,0,1,1,1.9-2Z"/><path class="cls-60" d="M17.83,289.51s-1,13.78-1.18,14.35L16,309.78s-.27,4.25-.15,5.31a2.15,2.15,0,0,0,1.48,2,6.29,6.29,0,0,0,3.82-.13A5.35,5.35,0,0,0,24,314.78l1.5-2.74,1.1-2,.95-1.56a3.63,3.63,0,0,1,1-1,14.74,14.74,0,0,0,3.28-2.53,6.84,6.84,0,0,0,1.87-4.09,11.71,11.71,0,0,0-.81-4.78l-1.5-4.61-1.49-4.77s0-.64-2.1-.4l-3.32.85c-.28.07-.55.16-.82.25l-3.38,1.19Z"/><path class="cls-59" d="M29.32,327.84c-.34-.48-3.54.47-3.27.85S29.53,328.14,29.32,327.84Z"/><path class="cls-59" d="M26.4,328.58a1.39,1.39,0,0,0,1.89.35,1.28,1.28,0,0,0,.36-1.82,1.38,1.38,0,0,0-1.89-.35A1.27,1.27,0,0,0,26.4,328.58Z"/><path class="cls-61" d="M29.35,327.89c1.29,2,2.21,5.1.62,5.65-.95.33-2.56-2.68-3.89-4.8A4.74,4.74,0,0,0,29.35,327.89Z"/><path class="cls-59" d="M26.05,328.69a4.66,4.66,0,0,0,3.26-.85,2.46,2.46,0,0,1,.17.27,4.8,4.8,0,0,1-3.2.94Z"/><path class="cls-59" d="M26.83,322.15a1.46,1.46,0,0,1-1.35,1.6,1.49,1.49,0,0,1-1.65-1.3,1.46,1.46,0,0,1,1.35-1.6A1.49,1.49,0,0,1,26.83,322.15Z"/><path class="cls-61" d="M27.47,321.65c-.19,0-.6.6-1.82,1.05s-2.14.32-2.23.58c-.18.52,1.94,4.73,2.36,4.81.92.18,3-.69,3.2-1.61A24,24,0,0,0,27.47,321.65Z"/><path class="cls-59" d="M25.81,323.09A5.05,5.05,0,0,0,27.65,322a1.16,1.16,0,0,0-.18-.35,6.08,6.08,0,0,0-2.06.51c-1.27.46-1.9.86-2,1.12a.9.9,0,0,0,0,.36A10.75,10.75,0,0,0,25.81,323.09Z"/><path class="cls-61" d="M25.54,314.14c-.25-.06-.82.73-2.42,1.22s-2.78.26-2.92.59c-.27.66,2.13,6.34,2.65,6.47,1.18.3,3.95-.69,4.24-1.86A32.12,32.12,0,0,0,25.54,314.14Z"/><path class="cls-59" d="M23.29,315.88a6.52,6.52,0,0,0,2.44-1.28,1.45,1.45,0,0,0-.19-.46,7.69,7.69,0,0,0-2.7.51c-1.66.51-2.5,1-2.64,1.3a1.11,1.11,0,0,0,0,.47A13.88,13.88,0,0,0,23.29,315.88Z"/><path class="cls-59" d="M28.24,330.13c-.43-.46-3.65,1-3.32,1.32S28.5,330.41,28.24,330.13Z"/><path class="cls-59" d="M25.28,331.29a1.47,1.47,0,0,0,2,.12,1.37,1.37,0,0,0,.12-2,1.48,1.48,0,0,0-2-.12A1.36,1.36,0,0,0,25.28,331.29Z"/><path class="cls-61" d="M28.28,330.17c1.64,2,3,5.06,1.45,5.85-.95.47-3.07-2.47-4.76-4.52A5,5,0,0,0,28.28,330.17Z"/><path class="cls-59" d="M24.93,331.45a4.87,4.87,0,0,0,3.3-1.33l.22.26a5.08,5.08,0,0,1-3.23,1.41Z"/><path class="cls-59" d="M25.48,324.38a1.57,1.57,0,0,1-1.4,1.72,1.59,1.59,0,0,1-1.78-1.35A1.57,1.57,0,0,1,23.7,323,1.6,1.6,0,0,1,25.48,324.38Z"/><path class="cls-61" d="M26.15,323.85c-.21,0-.63.64-1.91,1.13s-2.26.38-2.35.65c-.19.56,2.14,5,2.58,5.06,1,.18,3.2-.79,3.36-1.76A25.65,25.65,0,0,0,26.15,323.85Z"/><path class="cls-59" d="M24.41,325.4a5.42,5.42,0,0,0,1.93-1.19c-.1-.22-.16-.36-.19-.36a6,6,0,0,0-2.18.57c-1.33.51-2,.94-2.08,1.21a.81.81,0,0,0,0,.38A11.31,11.31,0,0,0,24.41,325.4Z"/><path class="cls-61" d="M24.21,315.94c-.27-.06-.88.76-2.58,1.26s-2.95.25-3.1.6c-.29.69,2.18,6.73,2.74,6.88,1.24.33,4.19-.69,4.51-1.92A34.89,34.89,0,0,0,24.21,315.94Z"/><path class="cls-59" d="M21.8,317.75a6.82,6.82,0,0,0,2.61-1.32,1.45,1.45,0,0,0-.2-.49,8.07,8.07,0,0,0-2.87.51c-1.76.52-2.66,1-2.81,1.35a1.2,1.2,0,0,0,0,.49A14.06,14.06,0,0,0,21.8,317.75Z"/><path class="cls-59" d="M26.24,330.43c-.31-.45-3.34.41-3.09.77S26.44,330.72,26.24,330.43Z"/><path class="cls-59" d="M23.55,331.26a1.31,1.31,0,0,0,1.78.35,1.22,1.22,0,0,0,.36-1.72,1.3,1.3,0,0,0-1.78-.35A1.22,1.22,0,0,0,23.55,331.26Z"/><path class="cls-61" d="M26.34,330.63c1.2,1.94,2,4.84.52,5.34-.9.3-2.38-2.55-3.61-4.56A4.45,4.45,0,0,0,26.34,330.63Z"/><path class="cls-59" d="M23.15,331.2a4.41,4.41,0,0,0,3.09-.77l.16.25a4.5,4.5,0,0,1-3,.86Z"/><path class="cls-62" d="M23.25,331.41c1.14,1.86,2.5,4.45,3.41,4.58.49-.65-.78-3-1.58-4.75A3.57,3.57,0,0,1,23.25,331.41Z"/><path class="cls-59" d="M24,324.87a1.5,1.5,0,0,1-1.39,1.6A1.52,1.52,0,0,1,21,325.13a1.5,1.5,0,0,1,1.39-1.6A1.52,1.52,0,0,1,24,324.87Z"/><path class="cls-61" d="M24.65,324.37c-.2,0-.62.6-1.85,1s-2.18.3-2.27.57c-.19.52,1.91,4.81,2.33,4.89.93.2,3.07-.67,3.26-1.59A24.57,24.57,0,0,0,24.65,324.37Z"/><path class="cls-59" d="M23,325.8a5,5,0,0,0,1.89-1.1c-.09-.21-.15-.35-.18-.35a6.1,6.1,0,0,0-2.11.51c-1.28.45-1.93.84-2,1.11a.79.79,0,0,0,0,.36A10.32,10.32,0,0,0,23,325.8Z"/><path class="cls-61" d="M22.78,316.75c-.25-.06-.84.73-2.46,1.2s-2.82.24-3,.57c-.28.66,2.08,6.43,2.61,6.58,1.18.31,4-.66,4.31-1.84A33,33,0,0,0,22.78,316.75Z"/><path class="cls-59" d="M20.48,318.48A6.55,6.55,0,0,0,23,317.22a1.45,1.45,0,0,0-.19-.47,7.65,7.65,0,0,0-2.74.49c-1.69.49-2.54.95-2.68,1.28a1.11,1.11,0,0,0,0,.47A13.74,13.74,0,0,0,20.48,318.48Z"/><path class="cls-62" d="M24.75,330.49c-.91-2.17-1.9-5-1.9-5a10.73,10.73,0,0,1-2.33.56c0,.63,1.95,4.72,2.34,4.8A3.44,3.44,0,0,0,24.75,330.49Z"/><path class="cls-62" d="M20.34,318.12a11.56,11.56,0,0,1-3,.4c-.28.66,2.08,6.43,2.61,6.58a4.84,4.84,0,0,0,2.59-.4Z"/><path class="cls-59" d="M34.46,311.94a1.73,1.73,0,0,1-1.87,1.55,1.69,1.69,0,1,1,1.87-1.55Z"/><path class="cls-4" d="M33,304c-1.34,2.19-3.64,3.36-5.14,2.59s-1.63-3.16-.29-5.36,3.64-3.36,5.14-2.59S34.3,301.76,33,304Z"/><path class="cls-63" d="M32.45,303.7c-1.22,2-3.3,3-4.66,2.35s-1.48-2.87-.26-4.86,3.3-3,4.66-2.35S33.66,301.71,32.45,303.7Z"/><path class="cls-61" d="M28,304.74c-.1-3.16,3.74-6.32,5.3-3.74.55.91.61,3.15.86,4.92.34,2.41.8,4.34.7,4.62a5.29,5.29,0,0,1-4.26,1.27C30.07,311.62,28.07,307.57,28,304.74Z"/><path class="cls-59" d="M34.84,310.54a1.33,1.33,0,0,0,0-.29,6.33,6.33,0,0,1-4.48,1.35.67.67,0,0,0,.22.21C31.89,312.29,34.46,311.28,34.84,310.54Z"/><path class="cls-61" d="M28.25,307.62c-4.07,1.17-6.23,6-5.19,8.21a2,2,0,0,0,2-1c1.41-2,2.31-6.37,3.06-7.12l.1-.09Z"/><path class="cls-62" d="M31.73,307.34c-.69-2.54-1.4-5.9-1.57-6.73A5.13,5.13,0,0,0,28,304.74c.09,2.83,2.09,6.88,2.6,7.07A4.37,4.37,0,0,0,33,311.6C32.76,310.68,32.32,309.5,31.73,307.34Z"/><path class="cls-59" d="M31.41,313.66c-.16-.73,3.57-2.75,3.7-2.17S31.51,314.12,31.41,313.66Z"/><path class="cls-61" d="M31.42,313.73c.76,2.7,2.16,7.54,4.41,6.56,1.6-.7.34-4.74-.7-8.72A5.91,5.91,0,0,1,31.42,313.73Z"/><path class="cls-59" d="M35.11,311.49a5.93,5.93,0,0,1-3.7,2.17c0,.1.07.28.1.39a6.16,6.16,0,0,0,3.74-2Z"/><path class="cls-62" d="M31.42,313.73c.76,2.7,2.15,7.53,4.4,6.56-.7-1.24-1.65-6-2.1-7.43A7,7,0,0,1,31.42,313.73Z"/><path class="cls-59" d="M30.59,288.57A4.32,4.32,0,0,1,27.72,292c-2.51.88-5.75-1-6.08.16-.49,1.76-1.85,9.56-4.69,9.58,0,0,.36-3.55.51-6.52a45.68,45.68,0,0,1,.62-6.34s-.54,3,6,1.81c5.2-1,5.48-4.94,5.48-4.94a1.06,1.06,0,0,1,.36.46C30,286.47,30.59,288.57,30.59,288.57Z"/><path class="cls-64" d="M17.34,307.31c-.16,2.14-.6,3.86-1,3.84s-.56-1.8-.39-3.94.61-3.87,1-3.84S17.51,305.16,17.34,307.31Z"/><path class="cls-59" d="M17,307.28c-.08,1.09-.3,2-.49,1.94s-.28-.9-.2-2,.31-2,.5-1.93S17.09,306.2,17,307.28Z"/><path class="cls-65" d="M16.91,307.28c-.06.79-.22,1.42-.36,1.41s-.21-.66-.15-1.45.23-1.42.37-1.41S17,306.49,16.91,307.28Z"/><path class="cls-4" d="M16,307.36c.16-2.08.59-3.75,1-3.72s.39.75.42,1.83c0-1.23-.18-2.08-.44-2.1s-.82,1.69-1,3.84,0,3.71.33,3.91C16,310.83,15.87,309.25,16,307.36Z"/><path class="cls-59" d="M20.77,283.72l-1.42-.43-.18,1.23a12.65,12.65,0,0,0-2,5.56,14.73,14.73,0,0,0,.24,6.55l-.15,1,1.4.49v0c1.35.26,2.89-2.54,3.49-6.39S22.15,284.18,20.77,283.72Z"/><path class="cls-4" d="M20.87,291.3c-.62,4-2.24,6.82-3.62,6.36s-2-4.05-1.37-8,2.24-6.82,3.62-6.36S21.49,287.33,20.87,291.3Z"/><path class="cls-59" d="M19.85,291c-.39,2.51-1.41,4.31-2.28,4s-1.26-2.56-.87-5.07,1.42-4.31,2.29-4S20.24,288.48,19.85,291Z"/><path class="cls-65" d="M19.14,290.66c-.31,2-1.11,3.38-1.8,3.15s-1-2-.68-4,1.11-3.38,1.8-3.15S19.44,288.68,19.14,290.66Z"/><path class="cls-45" d="M179.17,204.1l0-.11-2.88.69.13.71c-1.51,1.71-2.13,4.92-1.41,8.36.67,3.22,2.33,5.8,4.24,6.95l.2,1.12,2.43-.51.15,0,.27-.07h0c2.71-.78,4.12-4.95,3.17-9.53C184.54,207.37,181.84,204.17,179.17,204.1Z"/><path class="cls-46" d="M183,212.17c1,4.73-.55,9-3.44,9.59s-6-2.8-7-7.53.56-9,3.45-9.59S182,207.44,183,212.17Z"/><path class="cls-47" d="M180,212.55c.62,3-.35,5.7-2.18,6.06s-3.81-1.77-4.43-4.76.35-5.7,2.18-6.06S179.41,209.56,180,212.55Z"/><path class="cls-39" d="M178.11,217.27l-.94.27a112.85,112.85,0,0,1-3.11-16.18l1-.11A113.32,113.32,0,0,0,178.11,217.27Z"/><rect class="cls-48" x="172.95" y="212.94" width="1.67" height="17.09" transform="translate(-14.79 12.45) rotate(-3.94)"/><rect class="cls-49" x="171.38" y="196.46" width="2.82" height="16.84" transform="translate(-13.67 12.36) rotate(-3.94)"/><rect class="cls-49" x="173.27" y="228.55" width="2.82" height="11.77" transform="translate(-15.65 12.52) rotate(-3.93)"/><rect class="cls-50" x="161.41" y="199.65" width="8.29" height="29.19" transform="translate(-11.32 9.24) rotate(-3.09)"/><polygon class="cls-48" points="169.02 203.36 164.12 203.6 164.16 204.58 169.06 204.34 169.02 203.36"/><polygon class="cls-48" points="169.17 207.6 164.27 207.85 164.3 208.83 169.21 208.59 169.17 207.6"/><polygon class="cls-48" points="169.32 211.85 164.42 212.09 164.45 213.07 169.36 212.83 169.32 211.85"/><polygon class="cls-48" points="169.47 216.1 164.57 216.34 164.6 217.32 169.51 217.08 169.47 216.1"/><polygon class="cls-48" points="169.62 220.34 164.72 220.59 164.75 221.57 169.66 221.32 169.62 220.34"/><polygon class="cls-48" points="169.77 224.59 164.87 224.83 164.9 225.81 169.8 225.57 169.77 224.59"/><rect class="cls-48" x="157.61" y="208.25" width="1.67" height="17.09" transform="translate(-6.04 4.54) rotate(-1.61)"/><rect class="cls-49" x="156.7" y="191.74" width="2.82" height="16.84" transform="translate(-5.63 4.58) rotate(-1.63)"/><polygon class="cls-49" points="160.06 223.84 157.24 223.92 157.48 233.55 160.3 233.47 160.06 223.84"/><path class="cls-48" d="M161.34,226.33l1,.06a113.41,113.41,0,0,0-.36-16.47l-1,.11A111.84,111.84,0,0,1,161.34,226.33Z"/><path class="cls-48" d="M169.83,225.59l.66,0c.21-7.79-.12-16.72-.12-16.81l-.66,0C169.71,208.92,170,217.82,169.83,225.59Z"/><path class="cls-48" d="M163.4,228.16h.66c.07-7.79-.41-16.71-.42-16.8l-.65,0C163,211.48,163.47,220.38,163.4,228.16Z"/><path class="cls-51" d="M166.7,216.91l-.64.16c-1.84-7.58-3.38-16.38-3.4-16.46l.65-.12C163.32,200.58,164.87,209.35,166.7,216.91Z"/><path class="cls-39" d="M164.4,214l-1,.26a114.79,114.79,0,0,1-3-16.2l1-.1A111,111,0,0,0,164.4,214Z"/><path class="cls-52" d="M155.45,176.14l.92-.23c0-.07-2-6.92-3.06-12.25a37.36,37.36,0,0,1-.46-6.14c-.09-4.23-.16-7.88-2.68-8.58-1.38-.4-5.66,2.86-7.42,4.28l.62.67c2.95-2.37,5.92-4.26,6.53-4.1,1.86.52,1.93,4,2,7.75a37.24,37.24,0,0,0,.47,6.28C153.44,169.18,155.43,176.07,155.45,176.14Z"/><path class="cls-52" d="M168.73,176.22l.93-.16c-.3-1.57-.61-3.7-.93-6a102,102,0,0,0-1.8-10.24,58.17,58.17,0,0,0-2.43-7c-.83-2.09-1.49-3.75-1.36-4.77l-.94-.1c-.15,1.23.51,2.89,1.42,5.18a59,59,0,0,1,2.39,6.94,101.63,101.63,0,0,1,1.78,10.15C168.11,172.49,168.42,174.63,168.73,176.22Z"/><polygon class="cls-52" points="152.97 148.16 160.79 146.74 166.19 172.44 158.37 173.86 152.97 148.16"/><polygon class="cls-48" points="156.59 161 163.14 159.42 163.29 160.29 156.74 161.87 156.59 161"/><polygon class="cls-48" points="157.25 164.75 163.8 163.17 163.95 164.03 157.4 165.61 157.25 164.75"/><polygon class="cls-48" points="157.91 168.49 164.46 166.91 164.61 167.78 158.06 169.36 157.91 168.49"/><polygon class="cls-48" points="158.57 172.23 165.12 170.65 165.27 171.52 158.72 173.1 158.57 172.23"/><polygon class="cls-48" points="159.23 175.98 165.78 174.4 165.94 175.26 159.39 176.84 159.23 175.98"/><polygon class="cls-48" points="159.89 179.72 166.44 178.14 166.6 179.01 160.05 180.59 159.89 179.72"/><polygon class="cls-48" points="162.77 158.95 165.2 158.46 168.68 173.45 166.25 173.94 162.77 158.95"/><polygon class="cls-53" points="158.35 144.68 162.47 143.85 165.9 158.62 161.78 159.45 158.35 144.68"/><polygon class="cls-53" points="165.09 172.83 169.21 172 171.48 181.78 167.36 182.6 165.09 172.83"/><polygon class="cls-48" points="158.39 160.25 160.59 159.81 164.06 174.8 161.87 175.24 158.39 160.25"/><polygon class="cls-53" points="154.08 145.97 157.8 145.22 161.22 159.99 157.5 160.73 154.08 145.97"/><polygon class="cls-53" points="160.8 174.12 164.52 173.37 166.78 183.15 163.06 183.89 160.8 174.12"/><polygon class="cls-48" points="153.28 160.42 155.72 159.98 158.91 175.02 156.47 175.47 153.28 160.42"/><polygon class="cls-53" points="149.13 146.09 153.26 145.33 156.41 160.15 152.27 160.91 149.13 146.09"/><polygon class="cls-53" points="155.33 174.34 159.47 173.58 161.66 183.94 157.53 184.7 155.33 174.34"/><path class="cls-4" d="M175.17,163.05s-7.57,7.9-22.89,13L154,195.89l2.28,2.68a2.22,2.22,0,0,0,2.25.74c3.08-.78,10.53-1.41,9.06,11.32a1.23,1.23,0,0,0,.46,1.12c2,1.55,8.85,6.25,11.5-.63C179.58,211.12,184.43,167.83,175.17,163.05Z"/><path class="cls-54" d="M177.4,165.32s5,6,3.92,38.68l-.56.53a1.42,1.42,0,0,0-.45,1.26c.37,2.42.84,9.78-8.12,4.19a1.34,1.34,0,0,1-.62-1c-.33-3.09-2.32-16.29-11.64-12.9a1,1,0,0,1-1.07-.24l-5.93-5.73a1.56,1.56,0,0,1-.46-1.06l-.15-10.19A87.61,87.61,0,0,0,177.4,165.32Z"/><path class="cls-55" d="M160.49,175.57l.64,20.16-1.12.32a1.07,1.07,0,0,1-1.15-.21l-5.76-5.57a1.49,1.49,0,0,1-.63-1.22l-.15-10.19Z"/><path class="cls-54" d="M177.52,220.45s2.89,13.84.56,26.68l-1.36,9.35-3,16s-2.25,10.71-2.1,15.83c0,0-.27,1.32-4.5,1,0,0-.27,2.65-3.62,3.22,0,0,3.69-.93,3.13-4.6,0,0-.32-2.2-3.33-2.73,0,0-3-.2-4,1.49l-.65-.71s-.53-10.19-1.34-12.8l-2.71-18.63S151,237.35,152.1,230a5.33,5.33,0,0,1,2.09-2s-2.65,1.06-.53,6.08c0,0,1.77,5,9.34.22,0,0,3.32-1.82,9.13-10.25C172.13,224,175.14,218.91,177.52,220.45Z"/><path class="cls-4" d="M174.47,217.53s1.83-.84,3.13,3.28c0,0-1.61-2.26-4.57,1.91l-4,5.57s-8.27,11.9-14.51,7c0,0-2-1.59-1.47-5.81,0,0,.79-2.8,3.69-1.23,0,0,4.57.4,11.14-5.78C167.84,222.45,172.08,218.41,174.47,217.53Z"/><path class="cls-55" d="M172.78,277.38A79.93,79.93,0,0,1,168,255l-.14-6S167,238,170,233.77a49.75,49.75,0,0,1,8.16-9.3s2.49,15.68-1.37,31.4Z"/><path class="cls-56" d="M173.26,262.3a38.71,38.71,0,0,1-2.34-10.84l-.07-2.93s-.39-5.33,1.08-7.36a24.27,24.27,0,0,1,3.95-4.51s1,8.31-.67,15.22Z"/><path class="cls-55" d="M158.33,254.37s0-4.47,1.38.39l.79,4.44,1.19,6,.92,4.54,1.08,4.64,1.76,7.56.88,4.48s.93.76.83,3.08l-7.94-2.87-.6-.54-.62-8.18-.75-4.79.58-5.73.08-6.24Z"/><path class="cls-56" d="M159.67,268.76s0-1.95.6.17l.35,1.94.52,2.63.4,2,.47,2,.77,3.3.39,2s.4.33.36,1.34l-3.47-1.25-.26-.24-.27-3.57L159.2,277l.26-2.5,0-2.73Z"/><path class="cls-4" d="M176,156.74s-.83-38.28-44.36-30.18c0,0,1.41,24.55,23.31,31.74C155,158.3,163.16,161,176,156.74Z"/><path class="cls-54" d="M175.7,153.51s-3-32.63-39.65-27.63c0,0,1.79,20.35,20.18,28.06C156.23,153.94,166.51,156.92,175.7,153.51Z"/><path class="cls-55" d="M165.08,143.71a19.58,19.58,0,0,0-12.67-11.4L150.55,126a28.77,28.77,0,0,1,21.19,15.43Z"/><path class="cls-57" d="M169.74,204.35c1.86,5.66-.39,11.54-5,13.14s-9.88-1.68-11.74-7.33.39-11.54,5-13.14S167.88,198.7,169.74,204.35Z"/><path class="cls-45" d="M158.09,199.33l-3,.51.26,1.44a10.85,10.85,0,0,0-1.08,7.37,10.72,10.72,0,0,0,3.72,6.89l.22,1.2,2.92-.41v0c2.72-.64,4.29-4.7,3.52-9.27S161,198.89,158.09,199.33Z"/><path class="cls-40" d="M162.92,207.21c.78,4.7-.91,8.87-3.77,9.32s-5.83-3-6.62-7.7.91-8.87,3.77-9.32S162.13,202.51,162.92,207.21Z"/><path class="cls-45" d="M159.39,207.51c.5,3-.57,5.6-2.38,5.89s-3.69-1.9-4.19-4.87.58-5.61,2.39-5.89S158.89,204.54,159.39,207.51Z"/><path class="cls-58" d="M157.85,207.64c.39,2.33-.45,4.4-1.87,4.63s-2.9-1.5-3.28-3.83.44-4.4,1.87-4.62S157.46,205.31,157.85,207.64Z"/><path class="cls-40" d="M154.88,203.68a1.72,1.72,0,0,0-1,.5,1.58,1.58,0,0,1,.74-.32c1.41-.22,2.87,1.47,3.25,3.78s-.44,4.36-1.85,4.58a1.51,1.51,0,0,1-.3,0,1.51,1.51,0,0,0,.56,0c1.44-.22,2.29-2.32,1.9-4.69S156.32,203.45,154.88,203.68Z"/><path class="cls-59" d="M163.37,315a1.91,1.91,0,0,0,1.85,2,1.93,1.93,0,0,0,2-1.8,1.94,1.94,0,0,0-3.88-.17Z"/><path class="cls-59" d="M164.75,316.8a2.06,2.06,0,1,0,2.14-1.92A2,2,0,0,0,164.75,316.8Z"/><path class="cls-59" d="M166.14,317.58a2,2,0,1,0,2-1.83A1.92,1.92,0,0,0,166.14,317.58Z"/><path class="cls-60" d="M170.21,289.75s1,13.78,1.18,14.35l.67,5.92s.26,4.25.14,5.31a2.15,2.15,0,0,1-1.47,2,6.29,6.29,0,0,1-3.82-.13A5.36,5.36,0,0,1,164,315l-1.5-2.74-1.1-2-.95-1.56a3.63,3.63,0,0,0-1-1,14.74,14.74,0,0,1-3.28-2.53,6.84,6.84,0,0,1-1.87-4.09,11.71,11.71,0,0,1,.81-4.78l1.5-4.61,1.49-4.77s0-.65,2.1-.4l3.33.85c.27.07.54.16.81.25l3.38,1.19Z"/><path class="cls-59" d="M158.73,328.08c.33-.48,3.53.47,3.27.85S158.51,328.38,158.73,328.08Z"/><path class="cls-59" d="M161.65,328.82a1.39,1.39,0,0,1-1.89.35,1.29,1.29,0,0,1-.36-1.83,1.37,1.37,0,0,1,1.88-.34A1.28,1.28,0,0,1,161.65,328.82Z"/><path class="cls-61" d="M158.69,328.13c-1.29,2-2.21,5.1-.61,5.65.95.33,2.56-2.68,3.88-4.8A4.74,4.74,0,0,1,158.69,328.13Z"/><path class="cls-59" d="M162,328.93a4.71,4.71,0,0,1-3.26-.85l-.17.26a4.78,4.78,0,0,0,3.2.94Z"/><path class="cls-59" d="M161.21,322.39a1.51,1.51,0,1,0,1.65-1.3A1.48,1.48,0,0,0,161.21,322.39Z"/><path class="cls-61" d="M160.57,321.89c.19,0,.6.6,1.82,1.05s2.14.32,2.23.58c.18.52-1.94,4.73-2.35,4.81-.93.18-3-.7-3.21-1.61A24.7,24.7,0,0,1,160.57,321.89Z"/><path class="cls-59" d="M162.23,323.33a5.18,5.18,0,0,1-1.84-1.09,1.16,1.16,0,0,1,.18-.35,6.16,6.16,0,0,1,2.07.51c1.26.46,1.89.86,2,1.12a.7.7,0,0,1,0,.35A10.38,10.38,0,0,1,162.23,323.33Z"/><path class="cls-61" d="M162.5,314.38c.25-.06.82.73,2.42,1.22s2.79.26,2.92.59c.27.66-2.13,6.34-2.65,6.47-1.18.3-3.95-.69-4.24-1.86A32.12,32.12,0,0,1,162.5,314.38Z"/><path class="cls-59" d="M164.75,316.12a6.52,6.52,0,0,1-2.44-1.28,1.45,1.45,0,0,1,.19-.46,7.44,7.44,0,0,1,2.7.51c1.67.51,2.51,1,2.64,1.3a1.11,1.11,0,0,1,0,.47A13.88,13.88,0,0,1,164.75,316.12Z"/><path class="cls-59" d="M159.8,330.37c.43-.47,3.65.95,3.32,1.32S159.54,330.65,159.8,330.37Z"/><path class="cls-59" d="M162.77,331.53a1.48,1.48,0,0,1-2,.12,1.37,1.37,0,0,1-.12-2,1.48,1.48,0,0,1,2-.12A1.38,1.38,0,0,1,162.77,331.53Z"/><path class="cls-61" d="M159.76,330.41c-1.64,2-3,5.06-1.45,5.85.95.47,3.07-2.47,4.76-4.52A5,5,0,0,1,159.76,330.41Z"/><path class="cls-59" d="M163.11,331.69a4.89,4.89,0,0,1-3.3-1.33l-.22.26a5.08,5.08,0,0,0,3.23,1.41Z"/><path class="cls-59" d="M162.56,324.62a1.57,1.57,0,0,0,1.4,1.72,1.59,1.59,0,0,0,1.78-1.35,1.56,1.56,0,0,0-1.4-1.72A1.6,1.6,0,0,0,162.56,324.62Z"/><path class="cls-61" d="M161.89,324.08c.21,0,.63.65,1.91,1.14s2.27.38,2.36.65c.18.56-2.15,5-2.59,5.06-1,.18-3.19-.79-3.36-1.76A26,26,0,0,1,161.89,324.08Z"/><path class="cls-59" d="M163.63,325.63a5.33,5.33,0,0,1-1.93-1.18,2,2,0,0,1,.19-.37,6.39,6.39,0,0,1,2.18.58c1.34.51,2,.94,2.09,1.21a.85.85,0,0,1,0,.38A11,11,0,0,1,163.63,325.63Z"/><path class="cls-61" d="M163.83,316.18c.27-.06.88.76,2.58,1.26s3,.25,3.1.6c.29.69-2.18,6.73-2.73,6.88-1.24.32-4.2-.69-4.52-1.92A34.89,34.89,0,0,1,163.83,316.18Z"/><path class="cls-59" d="M166.24,318a6.82,6.82,0,0,1-2.61-1.32,1.73,1.73,0,0,1,.2-.49,8.07,8.07,0,0,1,2.87.51c1.76.52,2.66,1,2.81,1.35a1.2,1.2,0,0,1,0,.49A14.06,14.06,0,0,1,166.24,318Z"/><path class="cls-59" d="M161.8,330.67c.31-.45,3.34.41,3.09.77S161.6,331,161.8,330.67Z"/><path class="cls-59" d="M164.49,331.5a1.31,1.31,0,0,1-1.78.35,1.23,1.23,0,0,1-.36-1.73,1.31,1.31,0,0,1,1.78-.34A1.22,1.22,0,0,1,164.49,331.5Z"/><path class="cls-61" d="M161.7,330.87c-1.2,1.94-2,4.84-.52,5.34.9.3,2.38-2.55,3.61-4.57A4.41,4.41,0,0,1,161.7,330.87Z"/><path class="cls-59" d="M164.89,331.44a4.41,4.41,0,0,1-3.09-.77l-.16.25a4.56,4.56,0,0,0,3,.86Z"/><path class="cls-62" d="M164.79,331.64c-1.14,1.87-2.5,4.46-3.41,4.59-.49-.65.78-3,1.58-4.75A3.45,3.45,0,0,0,164.79,331.64Z"/><path class="cls-59" d="M164.05,325.11a1.48,1.48,0,0,0,1.38,1.6,1.52,1.52,0,0,0,1.66-1.34,1.53,1.53,0,0,0-3-.26Z"/><path class="cls-61" d="M163.39,324.61c.2,0,.62.6,1.86,1s2.17.3,2.26.57c.19.52-1.91,4.81-2.33,4.89-.93.2-3.07-.67-3.25-1.6A24.68,24.68,0,0,1,163.39,324.61Z"/><path class="cls-59" d="M165.09,326a5.14,5.14,0,0,1-1.88-1.1c.08-.21.14-.35.17-.35a6.1,6.1,0,0,1,2.11.51c1.28.45,1.93.84,2,1.11a.83.83,0,0,1,0,.36A10.35,10.35,0,0,1,165.09,326Z"/><path class="cls-61" d="M165.26,317c.25-.06.84.73,2.47,1.2s2.81.24,3,.57c.28.66-2.08,6.43-2.61,6.57-1.18.32-4-.65-4.31-1.83A33,33,0,0,1,165.26,317Z"/><path class="cls-59" d="M167.56,318.72a6.55,6.55,0,0,1-2.49-1.26,1.45,1.45,0,0,1,.19-.47,7.65,7.65,0,0,1,2.74.49c1.69.49,2.54.95,2.68,1.28a1.11,1.11,0,0,1,0,.47A13.74,13.74,0,0,1,167.56,318.72Z"/><path class="cls-62" d="M163.29,330.73c.92-2.17,1.9-5,1.9-5a10.68,10.68,0,0,0,2.34.56c0,.63-2,4.72-2.35,4.8A3.54,3.54,0,0,1,163.29,330.73Z"/><path class="cls-62" d="M167.7,318.36a11.56,11.56,0,0,0,3,.4c.28.66-2.08,6.43-2.61,6.57a4.65,4.65,0,0,1-2.59-.4Z"/><path class="cls-59" d="M153.58,312.17a1.73,1.73,0,0,0,1.87,1.56,1.69,1.69,0,1,0-1.87-1.56Z"/><path class="cls-4" d="M155.08,304.2c1.33,2.19,3.63,3.35,5.13,2.59s1.63-3.16.29-5.36-3.64-3.36-5.14-2.59S153.74,302,155.08,304.2Z"/><path class="cls-63" d="M155.59,303.94c1.22,2,3.3,3,4.66,2.35s1.48-2.87.26-4.86-3.3-3.05-4.65-2.35S154.38,302,155.59,303.94Z"/><path class="cls-61" d="M160.06,305c.1-3.15-3.74-6.31-5.3-3.73-.55.91-.61,3.15-.86,4.92-.34,2.41-.8,4.34-.69,4.62a5.25,5.25,0,0,0,4.25,1.27C158,311.86,160,307.81,160.06,305Z"/><path class="cls-59" d="M153.21,310.78a.81.81,0,0,1,0-.29,6.33,6.33,0,0,0,4.48,1.35.67.67,0,0,1-.22.21C156.15,312.53,153.58,311.52,153.21,310.78Z"/><path class="cls-61" d="M159.79,307.86c4.07,1.17,6.23,6,5.19,8.21a2,2,0,0,1-2-1c-1.41-2-2.3-6.37-3.06-7.12l-.1-.09Z"/><path class="cls-62" d="M156.31,307.58c.69-2.54,1.4-5.9,1.57-6.73a5.13,5.13,0,0,1,2.18,4.12c-.09,2.84-2.09,6.89-2.6,7.08a4.37,4.37,0,0,1-2.42-.21C155.28,310.92,155.72,309.74,156.31,307.58Z"/><path class="cls-59" d="M156.63,313.9c.16-.73-3.57-2.75-3.7-2.17S156.53,314.36,156.63,313.9Z"/><path class="cls-61" d="M156.62,314c-.76,2.7-2.15,7.54-4.41,6.56-1.6-.7-.34-4.74.7-8.72A5.91,5.91,0,0,0,156.62,314Z"/><path class="cls-59" d="M152.93,311.73a5.87,5.87,0,0,0,3.7,2.16c0,.11-.07.29-.1.4a6.16,6.16,0,0,1-3.74-2Z"/><path class="cls-62" d="M156.62,314c-.76,2.69-2.15,7.53-4.4,6.56.7-1.24,1.65-6,2.1-7.43A7.07,7.07,0,0,0,156.62,314Z"/><path class="cls-59" d="M157.45,288.81a4.32,4.32,0,0,0,2.87,3.46c2.51.88,5.75-1,6.08.16.49,1.76,1.85,9.56,4.69,9.58,0,0-.35-3.55-.51-6.52a45.68,45.68,0,0,0-.62-6.34s.54,3-6,1.81c-5.2-1-5.49-4.94-5.49-4.94a1,1,0,0,0-.35.46C158.08,286.71,157.45,288.81,157.45,288.81Z"/><path class="cls-64" d="M170.7,307.55c.16,2.14.61,3.86,1,3.83s.55-1.79.38-3.93-.61-3.87-1-3.84S170.53,305.4,170.7,307.55Z"/><path class="cls-59" d="M171,307.52c.08,1.09.3,2,.5,1.94s.27-.9.19-2-.31-2-.5-1.94S171,306.44,171,307.52Z"/><path class="cls-65" d="M171.13,307.52c.06.78.23,1.42.36,1.41s.21-.66.15-1.45-.23-1.42-.37-1.41S171.07,306.73,171.13,307.52Z"/><path class="cls-4" d="M172,307.6c-.16-2.08-.59-3.75-1-3.72s-.39.75-.42,1.83c0-1.23.18-2.08.44-2.1s.82,1.69,1,3.84,0,3.71-.33,3.91C172,311.07,172.17,309.49,172,307.6Z"/><path class="cls-59" d="M167.27,284l1.42-.43.18,1.22a12.62,12.62,0,0,1,2,5.57,14.73,14.73,0,0,1-.24,6.55l.15,1-1.4.49v0c-1.35.26-2.89-2.54-3.49-6.39S165.89,284.42,167.27,284Z"/><path class="cls-4" d="M167.18,291.54c.62,4,2.23,6.82,3.61,6.36s2-4,1.37-8-2.24-6.82-3.62-6.36S166.56,287.57,167.18,291.54Z"/><path class="cls-59" d="M168.19,291.23c.39,2.5,1.41,4.3,2.28,4s1.26-2.56.87-5.07-1.42-4.31-2.28-4S167.8,288.72,168.19,291.23Z"/><path class="cls-65" d="M168.91,290.9c.3,2,1.11,3.38,1.79,3.15s1-2,.68-4-1.11-3.38-1.8-3.15S168.6,288.92,168.91,290.9Z"/><path class="cls-66" d="M123.31,401.19c5.41,0,10.12,3.83,12.71,9.95,3.38,8,5.77,30.11,4.84,39.68-2.1,21.56-6.91,39.73-8.62,59.23-.16,1.8-3.27,3.24-5.73,3.26s-5.55-1.7-5.79-3.16c-3.7-22.34-6.35-32.46-9.27-56.17-1.5-12.13-4.19-32.26-2.15-39.52S115.34,401.2,123.31,401.19Z"/><path class="cls-56" d="M134.58,418.24h-1.19c-.29,7.1-1,22.07-2.06,30.22-1.32,10.11-3.32,51.89-3.45,70.12.73-.17,1.39-.35,2-.52.16-18.4,2.12-59.39,3.43-69.37.82-6.34,1.44-16.72,1.81-24.42C134.81,420.7,134.58,418.24,134.58,418.24Z"/><path class="cls-55" d="M124.22,488.76c-.07-8.59-.75-22.91-9.88-24.43-.62-.11-1.21-.23-1.8-.36,3.59,18,8.62,52.75,8.62,52.75a14.15,14.15,0,0,0,6,.45C125.67,507.54,124.31,498.72,124.22,488.76Z"/><path class="cls-67" d="M119.84,511.86s4.49,1.9,10.69-.86c0,0-.12,8.23,1.3,12.51,2.64,8,4.5,15,1.93,17.92s-14,3.16-16.07-.37.43-12.37-.25-13.91-.1-3.26-.12-6.63C117.3,518,119.05,517.84,119.84,511.86Z"/><path class="cls-45" d="M117.4,525.16c1,3.3.07,3.75.1,5.3,0,2-1.45,8,1.1,11.25,2.26,2.88,15.24,3.7,16-4.93.91.64,1,3.29-.82,5.24-2.66,2.92-11.69,5.29-15.29,2.86s-1.74-8.44-2-10.28c-.21-1.54.18-2.14.22-5.81,0-1.33.45-3.94.66-6.94C117.55,523.64,117.14,524.25,117.4,525.16Z"/><path class="cls-56" d="M129.23,511.7s-.76,7.95.28,9.26c0,0,4.26,11.19,2.3,15.21,0,0-.94,4-12.12,2.87,0,0-1-1.31,1-1.35,0,0,7.56.3,8.53-1.89,2.5-5.6-2-14.14-2-14.14s-.85-8.4.11-9.51Z"/><path class="cls-68" d="M118.15,508.26l1.66-.05.08,7.93-1.66.05c-.86,0-1.58-1.73-1.6-3.92S117.29,508.28,118.15,508.26Z"/><path class="cls-52" d="M118.29,512.22c0,2.19.74,3.95,1.6,3.92s1.54-1.82,1.52-4-.74-3.95-1.6-3.92S118.27,510,118.29,512.22Z"/><path class="cls-68" d="M119.21,512.19c0,1.19.4,2.13.86,2.12s.83-1,.82-2.17-.4-2.12-.86-2.11S119.2,511,119.21,512.19Z"/><path class="cls-69" d="M118.29,512.22c0-2.19.66-4,1.52-4a.63.63,0,0,1,.39.11h-.08c-.83,0-1.49,1.76-1.47,3.88s.71,3.81,1.54,3.79l.14,0a.72.72,0,0,1-.44.17C119,516.17,118.31,514.41,118.29,512.22Z"/><path class="cls-68" d="M129.46,508.26l1.65-.05.08,7.93-1.65.05c-.87,0-1.58-1.73-1.6-3.92S128.59,508.28,129.46,508.26Z"/><path class="cls-57" d="M129.59,512.22c0,2.19.74,3.95,1.6,3.92s1.54-1.82,1.52-4-.74-3.95-1.6-3.92S129.57,510,129.59,512.22Z"/><path class="cls-68" d="M130.51,512.19c0,1.19.4,2.13.86,2.12s.84-1,.82-2.17-.39-2.12-.86-2.11S130.5,511,130.51,512.19Z"/><path class="cls-69" d="M129.59,512.22c0-2.19.66-4,1.52-4a.61.61,0,0,1,.39.11h-.08c-.83,0-1.49,1.76-1.47,3.88s.71,3.81,1.55,3.79l.13,0a.72.72,0,0,1-.44.17C130.33,516.17,129.61,514.41,129.59,512.22Z"/><path class="cls-4" d="M130.9,512.18c0-.9.28-1.64.63-1.65h.38v.16a2.51,2.51,0,0,1,.38,1.46,2.62,2.62,0,0,1-.35,1.47v.17h-.38C131.21,513.81,130.91,513.08,130.9,512.18Z"/><path class="cls-70" d="M131.29,512.18c0,.91.3,1.63.65,1.62s.64-.75.63-1.65-.3-1.63-.66-1.62S131.28,511.28,131.29,512.18Z"/><path class="cls-69" d="M131.29,512.19c0-.91.27-1.64.62-1.65a.25.25,0,0,1,.18.06H132c-.35,0-.61.72-.61,1.59s.3,1.56.64,1.55l.08,0a.3.3,0,0,1-.21.09C131.59,513.81,131.29,513.09,131.29,512.19Z"/><path class="cls-71" d="M120.23,508.17a20.69,20.69,0,0,0-.43,6.34,3.67,3.67,0,0,0,4.49,3.4h0l.83-.23a3.69,3.69,0,0,0,2.66-3.47c0-1.36.07-3,.13-4.88a3.67,3.67,0,0,0-4.26-3.76A4.08,4.08,0,0,0,120.23,508.17Z"/><path class="cls-70" d="M120.09,512.46a3.56,3.56,0,1,0,3.55-3.56A3.55,3.55,0,0,0,120.09,512.46Z"/><path class="cls-68" d="M121.85,512.46a1.8,1.8,0,1,0,1.79-1.8A1.79,1.79,0,0,0,121.85,512.46Z"/><path class="cls-72" d="M122.34,512.46a1.31,1.31,0,1,0,1.3-1.31A1.3,1.3,0,0,0,122.34,512.46Z"/><path class="cls-69" d="M126.88,512.59a3.44,3.44,0,0,0-6.37-1.81A3.55,3.55,0,1,1,124,516,3.44,3.44,0,0,0,126.88,512.59Z"/><path class="cls-73" d="M137.83,270.26l-1.41-5.9S125.14,268.87,121,274c0,0-15,13.32-19.53,25.61l1.81,3.47,2,6.68,34.67-34.15Z"/><path class="cls-66" d="M139.3,274.18a103.23,103.23,0,0,1,6.49,35.05s0,10.78-1.35,26.13l-2.19,20.13-3.54,25.63-.84,5.09s-.63,3.62-2.4,4.06c0,0-2.4.55-4.42-2.19,0,0-2.87-4.74-7-5.33,0,0-5.56,0-8.46,4.29,0,0-4.17,6.21-6.32,1.67,0,0-.42-.19-.8-2.94l-1.6-10.11L105,364.8l-1.22-8.23a117.78,117.78,0,0,1-1.56-19.77s5.14-5.77,6.28-8.6l4.51-8.43,3.79-8.32,3.41-7.52,2.87-6.32,2.14-4.46,4.13-7.91S134.08,275.85,139.3,274.18Z"/><path class="cls-74" d="M138.87,274.18s-2.72-.07-6.16,4.5c0,0-8.25,9.48-10.17,10.53l-10.18,7.91-6.25,4.56-1.93,1.52s-1.26.54-1.36,3.82l-.41,4.3-.19,7.7s.21,15.11.68,16.67c0,0,3-2,9.39-15l6.53-13.89,8.68-18.62,4.72-7.87Z"/><path class="cls-75" d="M126,286.48s3.27,25,1.6,47.78c0,0-1.21,45.37-2.78,49.09,0,0,2.56,0,5.73,4.14,0,0,2.91,4,6.34,2.14,0,0,1-.41,1.47-4.8l2.16-16.44,3-24.57,1.08-10.66.78-11.2.33-11.16a79,79,0,0,0-1.85-20.95,56,56,0,0,0-4.53-15.47s-5,1.81-7.19,5.81C132.13,280.19,126.69,286.49,126,286.48Z"/><path class="cls-55" d="M126.69,379.54c-.26-.05-.53-.26-.34-1l.43-3.44s2.38-13.08,3.73-16.74l1.81-6.24,3.37-11,1.94-6.65,1.85-6.76,1.81-8.16,1.39-7.67.59-4.38.46-5.45.26-5.53v-6.09l.88,6.37a62.77,62.77,0,0,1,1.22,15l-.31,7.48-.83,12-1.07,12.17-1.52,13.25-1.58,12.89-.94,5.85L138,386.19s-.19,1.32-2,1.36a2.25,2.25,0,0,1-2.11-1.48s-2.23-4.23-5.95-6.13A4.65,4.65,0,0,0,126.69,379.54Z"/><path class="cls-75" d="M113.79,382.82,110.38,366,109,355.43,107.41,343l-1.08-9.78-.76-6.69.45-27.63,4.67-3.34v-2.68l-7.08,5.19s-1.58.95-1.45,3.76c0,0-1.28,16.05,0,28.82l-.56.84s-.38,11.63,3.16,31l2.93,18.14s.17,4.66,2.95,4.48C110.63,385.09,112.33,385,113.79,382.82Z"/><path class="cls-76" d="M135.83,404.21c-.88-6.85-7-11.21-13.21-11.21s-13.11,5.1-13.79,11.94a13,13,0,0,0,10.38,14.47s.16,5.34,2.54,5.34,2.46-5.44,2.46-5.44C130.54,417.79,136.75,411.46,135.83,404.21Z"/><path class="cls-77" d="M131.23,394.34c-4.9,4.69-6.35,14.8-6.56,22.81,0,0,7.42-1,8.94-12.84C133,399.66,132.87,394.84,131.23,394.34Z"/><path class="cls-77" d="M112.22,394.2c5.22,1.74,8.26,11.46,7.86,23.3,0,0-10-.67-11.08-14C109.55,398.46,110.36,393.91,112.22,394.2Z"/><g class="cls-78"><rect class="cls-79" x="126.69" y="403.23" width="1.77" height="17.24" transform="translate(240.47 827.96) rotate(-177.97)"/><rect class="cls-41" x="126.4" y="393.21" width="3" height="10.61" transform="translate(241.74 801.27) rotate(-177.99)"/><rect class="cls-41" x="125.71" y="414.54" width="3" height="14.6" transform="translate(239.54 847.9) rotate(-177.99)"/><rect class="cls-79" x="115.94" y="402.85" width="1.67" height="17.24" transform="translate(219.03 826.78) rotate(-177.99)"/><rect class="cls-41" x="115.7" y="392.83" width="2.83" height="10.61" transform="matrix(-1, -0.04, 0.04, -1, 220.17, 800.14)"/><rect class="cls-41" x="115" y="414.16" width="2.83" height="14.6" transform="translate(217.95 846.76) rotate(-177.99)"/></g><rect class="cls-79" x="120.81" y="404.11" width="2.81" height="15.05"/><rect class="cls-45" x="120.51" y="418.73" width="3.19" height="3.74"/><path class="cls-77" d="M138.3,386.52s-.46,5.25-3.88,4.46c0,0-1.34,0-3.62-2.71,0,0-2-3-4-3.86a8.59,8.59,0,0,0-7.64.16s-1.72.61-4.58,4.66c0,0-2.56,3.2-4.51,1.08,0,0-1-.65-1.39-3.47,0,0,1.32,2.56,3.5.21,0,0,3.63-6.48,8.37-7.61a10.92,10.92,0,0,1,8.59,1.52,14.52,14.52,0,0,1,4.58,5.07s1,2.63,3.19,1.61C137,387.64,138,387.22,138.3,386.52Z"/><path class="cls-45" d="M108.05,387.21l-2.5.18,1,19.49,2.5-.18c1.3-.09,2.12-4.53,1.83-9.91S109.35,387.12,108.05,387.21Z"/><path class="cls-4" d="M108.43,397c.29,5.39-.53,9.83-1.83,9.92s-2.59-4.2-2.88-9.58.53-9.82,1.83-9.91S108.14,391.58,108.43,397Z"/><path class="cls-45" d="M107,397.06c.16,2.91-.29,5.3-1,5.35s-1.4-2.26-1.55-5.17.28-5.3,1-5.35S106.88,394.16,107,397.06Z"/><path class="cls-80" d="M108.43,397c-.29-5.38-1.58-9.67-2.88-9.57a.81.81,0,0,0-.58.35.61.61,0,0,1,.13,0c1.25-.09,2.5,4.06,2.78,9.26s-.51,9.49-1.76,9.58a.5.5,0,0,1-.21,0,.93.93,0,0,0,.69.35C107.9,406.79,108.72,402.35,108.43,397Z"/><path class="cls-4" d="M106.45,397.11c-.12-2.22-.66-4-1.19-3.95l-.57.08,0,.41a9.39,9.39,0,0,0-.35,3.64,9.17,9.17,0,0,0,.74,3.56l0,.41.57-.07C106.23,401.15,106.56,399.32,106.45,397.11Z"/><path class="cls-72" d="M105.87,397.18c.12,2.22-.21,4.05-.75,4.08s-1.07-1.72-1.19-3.94.22-4,.76-4.08S105.75,395,105.87,397.18Z"/><path class="cls-81" d="M105.87,397.18c-.12-2.21-.65-4-1.18-3.94a.37.37,0,0,0-.27.19l.09,0c.51,0,1,1.66,1.14,3.79s-.21,3.88-.73,3.91a.25.25,0,0,1-.12,0,.4.4,0,0,0,.32.18C105.66,401.23,106,399.4,105.87,397.18Z"/><path class="cls-45" d="M138.14,387.21l3.54.18-1.49,19.49-3.54-.18c-1.84-.09-3-4.53-2.59-9.91S136.3,387.12,138.14,387.21Z"/><path class="cls-4" d="M137.6,397c-.41,5.39.75,9.83,2.59,9.92s3.67-4.2,4.08-9.58-.75-9.82-2.59-9.91S138,391.58,137.6,397Z"/><path class="cls-45" d="M139.57,397.06c-.22,2.91.4,5.3,1.4,5.35s2-2.26,2.2-5.17-.41-5.3-1.4-5.35S139.79,394.16,139.57,397.06Z"/><path class="cls-80" d="M137.6,397c.41-5.38,2.24-9.67,4.08-9.57a1.28,1.28,0,0,1,.81.35.86.86,0,0,0-.17,0c-1.78-.09-3.55,4.06-3.95,9.26s.73,9.49,2.51,9.58a1,1,0,0,0,.29,0,1.55,1.55,0,0,1-1,.35C138.35,406.79,137.19,402.35,137.6,397Z"/><path class="cls-4" d="M140.41,397.11c.17-2.22.92-4,1.68-3.95l.81.08,0,.41a7,7,0,0,1,.49,3.64,7.16,7.16,0,0,1-1,3.56l0,.41-.81-.07C140.72,401.15,140.24,399.32,140.41,397.11Z"/><path class="cls-72" d="M141.22,397.18c-.17,2.22.31,4.05,1.07,4.08s1.51-1.72,1.68-3.94-.31-4-1.07-4.08S141.39,395,141.22,397.18Z"/><path class="cls-80" d="M141.22,397.18c.17-2.21.92-4,1.68-3.94a.58.58,0,0,1,.38.19.31.31,0,0,0-.13,0c-.73,0-1.45,1.66-1.61,3.79s.3,3.88,1,3.91a.55.55,0,0,0,.18,0,.67.67,0,0,1-.45.18C141.53,401.23,141.05,399.4,141.22,397.18Z"/><path class="cls-82" d="M109.6,395c.36-.87,2.84-1.37,2.84-1.37s2.11-9.8,9.86-9.8,9.93,9.7,9.93,9.7,2.48.5,2.84,1.37.12,7-.62,7.9a4.77,4.77,0,0,1-2.52,1c-1.42,4.65-4.51,7.4-9.22,7.4a10,10,0,0,1-9.83-7.27,5.16,5.16,0,0,1-2.66-1C109.48,402,109.23,395.87,109.6,395Z"/><path class="cls-72" d="M118.18,397.51a3.88,3.88,0,0,0,3.69,4.09,3.94,3.94,0,0,0,4.29-3.52,3.89,3.89,0,0,0-3.69-4.1A4,4,0,0,0,118.18,397.51Z"/><path class="cls-56" d="M130.23,379.93c-.11,0-.24-.12-.15-.46l.2-1.55s1.1-5.91,1.72-7.56l.84-2.82,1.55-5,.9-3,.86-3,.83-3.68.64-3.47.28-2,.21-2.46.12-2.5v-2.74l.41,2.87a27.62,27.62,0,0,1,.56,6.75l-.15,3.38-.38,5.41-.49,5.49-.7,6-.73,5.82-.44,2.64-.85,4.87s-.09.59-.94.61a1,1,0,0,1-1-.66,7.39,7.39,0,0,0-2.76-2.77A2,2,0,0,0,130.23,379.93Z"/><path class="cls-83" d="M66.56,401.19c-5.41,0-10.12,3.83-12.71,9.95-3.38,8-5.77,30.11-4.84,39.68,2.1,21.56,6.9,39.73,8.62,59.23.16,1.8,3.27,3.24,5.73,3.26s5.55-1.7,5.79-3.16c3.7-22.34,6.34-32.46,9.27-56.17,1.5-12.13,4.19-32.26,2.15-39.52S74.53,401.2,66.56,401.19Z"/><path class="cls-84" d="M55.29,418.24h1.19c.29,7.1,1,22.07,2.06,30.22,1.32,10.11,3.31,51.89,3.45,70.12-.73-.17-1.39-.35-2-.52-.17-18.4-2.13-59.39-3.43-69.37-.82-6.34-1.44-16.72-1.81-24.42C55.06,420.7,55.29,418.24,55.29,418.24Z"/><path class="cls-85" d="M65.64,488.76c.08-8.59.76-22.91,9.89-24.43.62-.11,1.21-.23,1.8-.36-3.59,18-8.62,52.75-8.62,52.75a14.2,14.2,0,0,1-6,.45C64.2,507.54,65.56,498.72,65.64,488.76Z"/><path class="cls-86" d="M70,511.86s-4.5,1.9-10.69-.86c0,0,.12,8.23-1.3,12.51-2.65,8-4.51,15-1.94,17.92s14,3.16,16.07-.37-.42-12.37.26-13.91.1-3.26.12-6.63C72.57,518,70.81,517.84,70,511.86Z"/><path class="cls-87" d="M72.47,525.16c-1,3.3-.07,3.75-.1,5.3,0,2,1.44,8-1.1,11.25-2.26,2.88-15.24,3.7-16-4.93-.91.64-1,3.29.81,5.24,2.67,2.92,11.7,5.29,15.3,2.86s1.74-8.44,2-10.28c.21-1.54-.18-2.14-.22-5.81,0-1.33-.45-3.94-.65-6.94C72.32,523.64,72.73,524.25,72.47,525.16Z"/><path class="cls-84" d="M60.63,511.7s.77,7.95-.27,9.26c0,0-4.26,11.19-2.31,15.21,0,0,1,4,12.12,2.87,0,0,1-1.31-1-1.35,0,0-7.55.3-8.52-1.89-2.5-5.6,2-14.14,2-14.14s.86-8.4-.1-9.51Z"/><path class="cls-88" d="M71.72,508.26l-1.66-.05L70,516.14l1.66.05c.86,0,1.57-1.73,1.6-3.92S72.58,508.28,71.72,508.26Z"/><path class="cls-89" d="M71.58,512.22c0,2.19-.74,3.95-1.6,3.92s-1.54-1.82-1.52-4,.74-3.95,1.6-3.92S71.6,510,71.58,512.22Z"/><path class="cls-88" d="M70.66,512.19c0,1.19-.4,2.13-.86,2.12s-.84-1-.82-2.17.39-2.12.86-2.11S70.67,511,70.66,512.19Z"/><path class="cls-90" d="M71.58,512.22c0-2.19-.66-4-1.52-4a.61.61,0,0,0-.39.11h.08c.83,0,1.49,1.76,1.47,3.88S70.51,516,69.67,516l-.13,0a.72.72,0,0,0,.44.17C70.84,516.17,71.56,514.41,71.58,512.22Z"/><path class="cls-88" d="M60.41,508.26l-1.65-.05-.08,7.93,1.65.05c.86,0,1.58-1.73,1.6-3.92S61.27,508.28,60.41,508.26Z"/><path class="cls-91" d="M60.28,512.22c0,2.19-.74,3.95-1.6,3.92s-1.54-1.82-1.52-4,.73-3.95,1.6-3.92S60.3,510,60.28,512.22Z"/><path class="cls-88" d="M59.36,512.19c0,1.19-.4,2.13-.87,2.12s-.83-1-.82-2.17.4-2.12.87-2.11S59.37,511,59.36,512.19Z"/><path class="cls-90" d="M60.28,512.22c0-2.19-.66-4-1.52-4a.66.66,0,0,0-.4.11h.09c.83,0,1.49,1.76,1.47,3.88S59.2,516,58.37,516l-.13,0a.7.7,0,0,0,.44.17C59.54,516.17,60.25,514.41,60.28,512.22Z"/><path class="cls-4" d="M59,512.18c0-.9-.27-1.64-.62-1.65H58v.16a2.51,2.51,0,0,0-.38,1.46,2.54,2.54,0,0,0,.35,1.47v.17h.39C58.66,513.81,59,513.08,59,512.18Z"/><path class="cls-92" d="M58.58,512.18c0,.91-.3,1.63-.66,1.62s-.63-.75-.62-1.65.3-1.63.66-1.62S58.59,511.28,58.58,512.18Z"/><path class="cls-90" d="M58.58,512.19c0-.91-.27-1.64-.62-1.65a.27.27,0,0,0-.19.06h.06c.34,0,.61.72.6,1.59s-.29,1.56-.63,1.55l-.08,0a.28.28,0,0,0,.2.09C58.28,513.81,58.57,513.09,58.58,512.19Z"/><path class="cls-93" d="M69.64,508.17a21.34,21.34,0,0,1,.43,6.34,3.67,3.67,0,0,1-4.49,3.4h0l-.84-.23a3.69,3.69,0,0,1-2.65-3.47c0-1.36-.07-3-.13-4.88a3.67,3.67,0,0,1,4.26-3.76A4.08,4.08,0,0,1,69.64,508.17Z"/><path class="cls-92" d="M69.78,512.46a3.56,3.56,0,1,1-3.55-3.56A3.55,3.55,0,0,1,69.78,512.46Z"/><path class="cls-88" d="M68,512.46a1.8,1.8,0,1,1-1.79-1.8A1.79,1.79,0,0,1,68,512.46Z"/><path class="cls-94" d="M67.53,512.46a1.31,1.31,0,1,1-1.3-1.31A1.3,1.3,0,0,1,67.53,512.46Z"/><path class="cls-90" d="M63,512.59a3.45,3.45,0,0,1,6.38-1.81A3.55,3.55,0,1,0,65.91,516,3.44,3.44,0,0,1,63,512.59Z"/><path class="cls-63" d="M52,270.26l1.41-5.9s11.28,4.51,15.47,9.66c0,0,15,13.32,19.53,25.61l-1.81,3.47-2,6.68L50,275.63Z"/><path class="cls-83" d="M50.56,274.18a103.37,103.37,0,0,0-6.48,35.05s0,10.78,1.34,26.13l2.2,20.13,3.53,25.63.85,5.09s.63,3.62,2.4,4.06c0,0,2.4.55,4.42-2.19,0,0,2.86-4.74,7-5.33,0,0,5.56,0,8.46,4.29,0,0,4.17,6.21,6.32,1.67,0,0,.42-.19.8-2.94L83,375.66l1.81-10.86,1.23-8.23a117.17,117.17,0,0,0,1.55-19.77s-5.14-5.77-6.27-8.6l-4.51-8.43-3.79-8.32-3.41-7.52-2.87-6.32-2.15-4.46-4.12-7.91S55.79,275.85,50.56,274.18Z"/><path class="cls-95" d="M51,274.18s2.71-.07,6.16,4.5c0,0,8.24,9.48,10.17,10.53l10.17,7.91,6.26,4.56,1.93,1.52s1.26.54,1.36,3.82l.41,4.3.19,7.7s-.22,15.11-.68,16.67c0,0-3-2-9.39-15L71.05,306.8l-8.68-18.62-4.72-7.87Z"/><path class="cls-96" d="M63.84,286.48s-3.27,25-1.6,47.78c0,0,1.21,45.37,2.78,49.09,0,0-2.57,0-5.74,4.14,0,0-2.9,4-6.33,2.14,0,0-1-.41-1.48-4.8l-2.15-16.44-3-24.57-1.08-10.66L44.5,322l-.33-11.16A79.2,79.2,0,0,1,46,289.85a56.25,56.25,0,0,1,4.54-15.47s5,1.81,7.19,5.81C57.74,280.19,63.18,286.49,63.84,286.48Z"/><path class="cls-85" d="M63.18,379.54c.25-.05.53-.26.34-1l-.43-3.44S60.71,362,59.36,358.34l-1.81-6.24-3.37-11-1.94-6.65-1.85-6.76-1.81-8.16-1.39-7.67-.59-4.38-.47-5.45-.25-5.53v-6.09L45,296.8a62.77,62.77,0,0,0-1.22,15l.31,7.48.82,12L46,343.4l1.51,13.25,1.58,12.89,1,5.85,1.83,10.8s.19,1.32,2,1.36a2.23,2.23,0,0,0,2.1-1.48s2.24-4.23,6-6.13A4.65,4.65,0,0,1,63.18,379.54Z"/><path class="cls-96" d="M76.08,382.82,79.49,366l1.39-10.56L82.46,343l1.08-9.78.76-6.69-.45-27.63-4.67-3.34v-2.68l7.07,5.19s1.58.95,1.46,3.76c0,0,1.28,16.05,0,28.82l.57.84s.38,11.63-3.16,31l-2.94,18.14s-.16,4.66-2.94,4.48A4.39,4.39,0,0,1,76.08,382.82Z"/><path class="cls-41" d="M54,404.21c.88-6.85,7-11.21,13.21-11.21S80.36,398.1,81,404.94a13,13,0,0,1-10.38,14.47s-.16,5.34-2.54,5.34-2.46-5.44-2.46-5.44C59.33,417.79,53.11,411.46,54,404.21Z"/><path class="cls-77" d="M58.63,394.34c4.91,4.69,6.35,14.8,6.57,22.81,0,0-7.42-1-8.94-12.84C56.85,399.66,57,394.84,58.63,394.34Z"/><path class="cls-77" d="M77.65,394.2c-5.22,1.74-8.26,11.46-7.86,23.3,0,0,10-.67,11.07-14C80.31,398.46,79.51,393.91,77.65,394.2Z"/><g class="cls-97"><rect class="cls-79" x="61.41" y="403.23" width="1.77" height="17.24" transform="translate(-14.56 2.47) rotate(-2.03)"/><rect class="cls-41" x="60.47" y="393.21" width="3" height="10.61" transform="matrix(1, -0.04, 0.04, 1, -13.94, 2.42)"/><rect class="cls-41" x="61.16" y="414.54" width="3" height="14.6" transform="translate(-14.76 2.46) rotate(-2.01)"/><rect class="cls-79" x="72.26" y="402.85" width="1.67" height="17.24" transform="translate(-14.4 2.82) rotate(-2.01)"/><rect class="cls-41" x="71.34" y="392.83" width="2.83" height="10.61" transform="translate(-13.94 2.8) rotate(-2.01)"/><rect class="cls-41" x="72.04" y="414.16" width="2.83" height="14.6" transform="translate(-14.76 2.84) rotate(-2.01)"/></g><rect class="cls-79" x="66.24" y="404.11" width="2.81" height="15.05" transform="translate(135.33 823.27) rotate(180)"/><rect class="cls-87" x="66.16" y="418.73" width="3.19" height="3.74" transform="translate(135.53 841.21) rotate(180)"/><path class="cls-77" d="M51.57,386.52s.46,5.25,3.87,4.46c0,0,1.35,0,3.63-2.71,0,0,2-3,4-3.86a8.58,8.58,0,0,1,7.64.16s1.72.61,4.58,4.66c0,0,2.56,3.2,4.5,1.08,0,0,1-.65,1.39-3.47,0,0-1.31,2.56-3.49.21,0,0-3.63-6.48-8.37-7.61A10.92,10.92,0,0,0,60.68,381,14.52,14.52,0,0,0,56.1,386s-1,2.63-3.19,1.61C52.91,387.64,51.84,387.22,51.57,386.52Z"/><path class="cls-87" d="M81.82,387.21l2.5.18-1,19.49-2.5-.18c-1.3-.09-2.12-4.53-1.83-9.91S80.52,387.12,81.82,387.21Z"/><path class="cls-4" d="M81.44,397c-.29,5.39.53,9.83,1.83,9.92s2.59-4.2,2.88-9.58-.53-9.82-1.83-9.91S81.73,391.58,81.44,397Z"/><path class="cls-87" d="M82.83,397.06c-.16,2.91.28,5.3,1,5.35s1.39-2.26,1.55-5.17-.28-5.3-1-5.35S83,394.16,82.83,397.06Z"/><path class="cls-98" d="M81.44,397c.29-5.38,1.58-9.67,2.88-9.57a.81.81,0,0,1,.58.35l-.13,0c-1.26-.09-2.5,4.06-2.78,9.26s.51,9.49,1.76,9.58a.5.5,0,0,0,.21,0,.93.93,0,0,1-.69.35C82,406.79,81.15,402.35,81.44,397Z"/><path class="cls-4" d="M83.42,397.11c.12-2.22.65-4,1.19-3.95l.57.08,0,.41a9.59,9.59,0,0,1,.35,3.64,9.36,9.36,0,0,1-.74,3.56l0,.41-.57-.07C83.64,401.15,83.3,399.32,83.42,397.11Z"/><path class="cls-94" d="M84,397.18c-.12,2.22.21,4.05.75,4.08s1.07-1.72,1.18-3.94-.21-4-.75-4.08S84.12,395,84,397.18Z"/><path class="cls-99" d="M84,397.18c.12-2.21.65-4,1.18-3.94a.37.37,0,0,1,.27.19l-.09,0c-.51,0-1,1.66-1.14,3.79s.21,3.88.72,3.91a.27.27,0,0,0,.13,0c-.11.12-.21.19-.32.18C84.21,401.23,83.88,399.4,84,397.18Z"/><path class="cls-87" d="M51.73,387.21l-3.54.18,1.49,19.49,3.54-.18c1.84-.09,3-4.53,2.58-9.91S53.57,387.12,51.73,387.21Z"/><path class="cls-4" d="M52.26,397c.42,5.39-.74,9.83-2.58,9.92s-3.67-4.2-4.08-9.58.74-9.82,2.59-9.91S51.85,391.58,52.26,397Z"/><path class="cls-87" d="M50.3,397.06c.22,2.91-.41,5.3-1.4,5.35s-2-2.26-2.2-5.17.4-5.3,1.4-5.35S50.08,394.16,50.3,397.06Z"/><path class="cls-98" d="M52.27,397c-.42-5.38-2.24-9.67-4.09-9.57a1.3,1.3,0,0,0-.81.35l.18,0c1.78-.09,3.55,4.06,3.94,9.26s-.72,9.49-2.5,9.58a1,1,0,0,1-.29,0,1.55,1.55,0,0,0,1,.35C51.52,406.79,52.68,402.35,52.27,397Z"/><path class="cls-4" d="M49.46,397.11c-.17-2.22-.92-4-1.68-3.95l-.81.08,0,.41a6.88,6.88,0,0,0-.5,3.64,7.15,7.15,0,0,0,1,3.56l0,.41.81-.07C49.15,401.15,49.63,399.32,49.46,397.11Z"/><path class="cls-72" d="M48.65,397.18c.17,2.22-.31,4.05-1.07,4.08s-1.51-1.72-1.68-3.94.31-4,1.07-4.08S48.48,395,48.65,397.18Z"/><path class="cls-98" d="M48.65,397.18c-.17-2.21-.92-4-1.68-3.94a.58.58,0,0,0-.38.19.28.28,0,0,1,.13,0c.72,0,1.45,1.66,1.61,3.79s-.3,3.88-1,3.91a.52.52,0,0,1-.17,0,.67.67,0,0,0,.45.18C48.34,401.23,48.82,399.4,48.65,397.18Z"/><path class="cls-100" d="M80.27,395c-.36-.87-2.84-1.37-2.84-1.37s-2.11-9.8-9.86-9.8-9.93,9.7-9.93,9.7-2.48.5-2.85,1.37-.11,7,.63,7.9a4.77,4.77,0,0,0,2.51,1c1.43,4.65,4.52,7.4,9.23,7.4A10,10,0,0,0,77,403.92a5.16,5.16,0,0,0,2.66-1C80.39,402,80.64,395.87,80.27,395Z"/><path class="cls-94" d="M71.69,397.51A3.88,3.88,0,0,1,68,401.6a3.94,3.94,0,0,1-4.29-3.52A3.88,3.88,0,0,1,67.4,394,4,4,0,0,1,71.69,397.51Z"/><path class="cls-84" d="M59.63,379.93c.12,0,.25-.12.16-.46l-.2-1.55s-1.1-5.91-1.72-7.56L57,367.54l-1.56-5-.89-3-.86-3-.83-3.68-.65-3.47-.27-2L51.76,345l-.12-2.5v-2.74l-.41,2.87a27.62,27.62,0,0,0-.56,6.75l.14,3.38.38,5.41.5,5.49.7,6,.73,5.82.44,2.64.85,4.87s.08.59.94.61a1,1,0,0,0,1-.66,7.32,7.32,0,0,1,2.75-2.77A2.29,2.29,0,0,1,59.63,379.93Z"/><ellipse class="cls-85" cx="93.31" cy="170.36" rx="18.85" ry="18.54"/><path class="cls-101" d="M112.16,170.36a18.69,18.69,0,0,1-18.85,18.53c-10.41,0,.45-2.75,6.83-10.88,14.52-18.51-17.24-26.19-6.83-26.19A18.7,18.7,0,0,1,112.16,170.36Z"/><path class="cls-102" d="M100.14,155.78c-1,.24-3.9.89-6.42,1.46s-4.6,1.09-4.65,1.13a5.59,5.59,0,0,0,1.33.47c.74.24,1.5.42,1.63.47s-.7,1-2.12,2.3c-4.16,3.95-6,7.53-5.84,11,.22,3.29,2,5.12,4.78,4.74A12.94,12.94,0,0,0,94.34,175a23.37,23.37,0,0,1,4.55-2.53c.54,0-1.68,3.05-4,5.63a39.3,39.3,0,0,1-3.63,3.2c-2.52,1.93-2.92,2.5-1.95,2.73.4.1.89-.19,2.79-1.6,1.29-.94,2.35-1.78,2.44-1.88s.84-.23.84,0a6,6,0,0,1-.89,1.18,3.27,3.27,0,0,0-.8,1.36c.14.71.71.47,2.09-.8.75-.7,1.37-1.22,1.41-1.13a1.72,1.72,0,0,1-.09.71c-.17.61,0,1.13.4,1.13s2-1.6,2.79-2.82a13.56,13.56,0,0,0,2.26-7.85c-.4-3-1.82-4.66-3.85-4.33A12.74,12.74,0,0,0,94,170.27a16,16,0,0,1-5.44,3c-.76.19-1.24-.23-1.24-1a3.89,3.89,0,0,1,1.37-2.49c1.46-1.55,7.26-6.54,7.43-6.4a10.09,10.09,0,0,1,.54,1.64L97,166.5,99,162.37c1.06-2.26,2.25-4.8,2.61-5.6s.62-1.4.53-1.4A14.94,14.94,0,0,0,100.14,155.78Z"/><path class="cls-102" d="M95.58,184c-.84.75-1,1.32-.27,1.32.49,0,1.82-1.27,1.73-1.65S96.42,183.34,95.58,184Z"/><path class="cls-102" d="M86.9,184.75c-.75.66-.84,1.22-.31,1.31s2-1.31,1.82-1.69S87.7,184,86.9,184.75Z"/><path class="cls-102" d="M91.55,184.75c-.8.7-1,1.27-.44,1.45s2-1.36,1.91-1.78S92.39,184,91.55,184.75Z"/><path class="cls-103" d="M91.13,296.38s5.06,3.87,9.11-.4c0,0,1.89-6.05,8.35-13.89a87.26,87.26,0,0,1,11.17-11.72,74.13,74.13,0,0,0,0-11.35s-2.63,1.59-17.9,3c0,0-1.62.19-3.52,3.61,0,0-2.85,4.18-6.07.85L90,263.57a4.33,4.33,0,0,0-3.48-1.78S71.6,260.62,69.85,259l-.18,11.35S86.56,285.14,91.13,296.38Z"/><path class="cls-103" d="M70.68,238.71l-1,19s3.8,2.3,18.78,3.19c0,0,1.69.29,4,4.07,0,0,2.34,3.62,5.11-.19l1.63-2.12s1-2,4.6-2.05c0,0,8-.67,10-1.15,0,0,4.17-.54,6-1.7,0,0-.13-12.62-1-19.09a51.52,51.52,0,0,1-15.36,2.8,5,5,0,0,0-4.66,2.75s-3.06,5.1-6.76,1.16c0,0-2.37-3.91-5-3.8C87,241.62,72.44,240.36,70.68,238.71Z"/><path class="cls-103" d="M72.72,220.86s-1.65,3.52-1.91,16.75c0,0,1,1.26,12.54,2.53l3.89.39a5.26,5.26,0,0,1,4,2.28l1.24,1.48s2.47,3.52,4.83,0c0,0,2.33-3.8,4.87-3.71,0,0,7.59-.77,9.07-1.2a35.42,35.42,0,0,0,7.55-1.72s-.7-14.62-1.69-16.8c0,0-10.16,2.53-15.38,2.68,0,0-2.17.16-3.45,3,0,0-2.86,3.85-6,.9,0,0-2.29-3.66-5-4C87.35,223.42,76.88,222.81,72.72,220.86Z"/><path class="cls-103" d="M72.92,219.46s1.78-16.75,17.75-17.88c0,0,15.9-2.6,21.84,7.32a22.2,22.2,0,0,1,4,10.84s-9,2.25-13.86,2.53a5.77,5.77,0,0,0-4.93,2.81s-2.11,3.5-4.42,1.27-2.48-3.45-5.47-4C87.79,222.34,73.8,220.67,72.92,219.46Z"/><path class="cls-104" d="M94.91,243.31A1.28,1.28,0,1,1,96.18,242,1.28,1.28,0,0,1,94.91,243.31Z"/><path class="cls-105" d="M94.91,241A1.07,1.07,0,1,1,93.84,242,1.07,1.07,0,0,1,94.91,241m0-.41A1.48,1.48,0,1,0,96.39,242a1.48,1.48,0,0,0-1.48-1.48Z"/><path class="cls-104" d="M94.91,243.31A1.28,1.28,0,1,1,96.18,242,1.28,1.28,0,0,1,94.91,243.31Z"/><path class="cls-105" d="M94.91,241A1.07,1.07,0,1,1,93.84,242,1.07,1.07,0,0,1,94.91,241m0-.41A1.48,1.48,0,1,0,96.39,242a1.48,1.48,0,0,0-1.48-1.48Z"/><rect class="cls-106" x="81.52" y="218.76" width="3.74" height="46.23" rx="0.91"/><rect class="cls-106" x="92.55" y="218.76" width="3.74" height="46.23" rx="0.91"/><rect class="cls-106" x="103.57" y="218.76" width="3.74" height="46.23" rx="0.91"/><rect class="cls-106" x="92.55" y="229.78" width="3.74" height="46.23" rx="0.91" transform="translate(-158.48 347.32) rotate(-90)"/><rect class="cls-106" x="92.55" y="218.76" width="3.74" height="46.23" rx="0.91" transform="translate(-147.45 336.29) rotate(-90)"/><rect class="cls-106" x="92.55" y="207.73" width="3.74" height="46.23" rx="0.91" transform="translate(-136.43 325.27) rotate(-90)"/><rect class="cls-107" x="76.05" y="223.5" width="36.75" height="36.74" rx="2.99"/><rect class="cls-108" x="79.26" y="226.81" width="30.33" height="30.33" rx="3.19"/><circle class="cls-109" cx="80.54" cy="240.99" r="4.49"/><circle class="cls-109" cx="107.72" cy="227.97" r="4.49"/><circle class="cls-109" cx="105.45" cy="255.58" r="4.49"/><rect class="cls-110" x="76.05" y="223.5" width="36.75" height="36.74" rx="2.99"/><path class="cls-111" d="M88.4,244.94l-1.72,5.2h-2.2L90.1,233.6h2.57l5.65,16.54H96l-1.77-5.2Zm5.43-1.67-1.62-4.76c-.37-1.08-.62-2.06-.86-3h0c-.25,1-.52,2-.84,3l-1.62,4.78Z"/><path class="cls-111" d="M105.34,233.6v16.54H103.2V233.6Z"/><path class="cls-112" d="M69.73,71a85.32,85.32,0,0,0,3.78,27.19s1.92,4.54,9.6,7.65a24.19,24.19,0,0,0,9.7,2.27s3.92.54,10.16-2.63a23.72,23.72,0,0,0,8.66-6.62l.57-.88a7.87,7.87,0,0,0,.48-1l.14-.37L113,96l.34-1.2.32-1.32.34-1.65.29-1.54.26-1.63.14-.91.14-1,.16-1.27.2-1.72.19-1.91.17-2.13.12-2.08,0-.94,0-1.46V70.81l0-.73V68s.49-12.07-4.35-17.48S98.62,41.7,92.81,41.9A25.73,25.73,0,0,0,74,50.76S70.11,55,69.9,64.59Z"/><path class="cls-113" d="M65.64,43.62h1.87A22.57,22.57,0,0,1,67,48.9a47.58,47.58,0,0,0,1.87,13.21,2.31,2.31,0,0,1,.57,1.76l1.87,16.56,1.87.7L72,67.39l-.75-3,3.18-7.75a40.57,40.57,0,0,0,20.24-11.8q18.36.52,17,13.56l3.19,5.46v3.52L113,81.66l1.88-1.76,3.18-16.73q.57-6.53,1.32-13.57a9.29,9.29,0,0,1-.75-3.69q-3-5.82-7.5-7-5.06-12.51-23.42-10Q69.39,33.57,65.64,43.62Z"/><path class="cls-114" d="M71.48,90.21s5.76-.92,6.86.31,5,14.38,7.93,16.53c-.24.14-9.18-3-11.32-7C72.85,99,71.48,90.21,71.48,90.21Z"/><path class="cls-114" d="M114.31,89.65s-5.6-.92-6.7.31-4.54,14-7.78,16.9c9-3.65,9.28-5.68,11.17-7.35C113.26,98.09,114.31,89.65,114.31,89.65Z"/><path class="cls-115" d="M67.1,67.45c-.53.24-1.4,4.54.24,7.53C67.34,75,67.64,67.22,67.1,67.45Z"/><path class="cls-116" d="M67.62,77.34A5.62,5.62,0,0,0,70.21,79l-.61-15.9a5.4,5.4,0,0,0-2.46,1.8A60.51,60.51,0,0,0,67.62,77.34Z"/><path class="cls-41" d="M69.36,64.54l-2.26,1c0,.09,0,.18,0,.26l2.37-1Z"/><path class="cls-41" d="M69.46,66.66,67,67.43a2.18,2.18,0,0,1,0,.25l2.52-.8Z"/><path class="cls-41" d="M69.57,68.81,67,69.23v.24l2.6-.43Z"/><path class="cls-41" d="M69.67,70.94l-2.62.15v.24l2.63-.16Z"/><path class="cls-41" d="M70,77.37l-2.48-.85a2.17,2.17,0,0,0,0,.25l2.37.82Z"/><path class="cls-41" d="M69.89,75.24l-2.59-.6,0,.25,2.52.57Z"/><path class="cls-41" d="M69.78,73.08l-2.63-.22a1.94,1.94,0,0,0,0,.24l2.59.21Z"/><ellipse class="cls-117" cx="67.3" cy="71.13" rx="0.21" ry="5.26" transform="translate(-2.9 2.86) rotate(-2.38)"/><path class="cls-115" d="M118.75,67.61c.53.23,1.4,4.54-.25,7.53C118.5,75.14,118.21,67.37,118.75,67.61Z"/><path class="cls-116" d="M118.22,77.5a5.62,5.62,0,0,1-2.59,1.62l.61-15.91A5.44,5.44,0,0,1,118.7,65,59.15,59.15,0,0,1,118.22,77.5Z"/><path class="cls-41" d="M116.48,64.69l2.26,1c0,.09,0,.17,0,.26l-2.37-1Z"/><path class="cls-41" d="M116.38,66.82l2.44.77v.24L116.31,67Z"/><path class="cls-41" d="M116.28,69l2.55.42v.23l-2.6-.42Z"/><path class="cls-41" d="M116.17,71.09l2.62.16v.23l-2.62-.16Z"/><path class="cls-41" d="M115.85,77.53l2.48-.85,0,.25-2.37.82Z"/><path class="cls-41" d="M116,75.39l2.6-.59,0,.24-2.51.58Z"/><path class="cls-41" d="M116.06,73.24,118.7,73c0,.08,0,.16,0,.24l-2.6.21Z"/><ellipse class="cls-117" cx="118.55" cy="71.29" rx="5.26" ry="0.21" transform="translate(42.4 186.77) rotate(-87.62)"/><path class="cls-118" d="M84.53,90.4c2,.15,3.85-3.4,5.87-3.52,1.41-.09,1.8.73,2.55.73s1.32-.73,2.65-.73,4.31,3.24,6,3.73a2.1,2.1,0,0,1-2.17.32c-1.43-.46-2.71-1.37-3.65-1.37s-1.89.59-2.51.59-1.73-.68-2.69-.64C88.57,89.6,86.61,92.08,84.53,90.4Z"/><path class="cls-118" d="M84.81,90.8a11.24,11.24,0,0,0,3.74,2.63c1.42.46,7.62.37,9,0s3.72-2.57,3.72-2.57a3.82,3.82,0,0,1-2.4-.11c-1.18-.5-2.22-1.24-3.21-1.24s-1.76.83-2.47.69a7,7,0,0,0-2.74-.6c-1.18.14-2.55,1.43-3.9,1.36A14.15,14.15,0,0,1,84.81,90.8Z"/><path class="cls-119" d="M85.22,91.16c0-.29,1,.11,2.1-.24s2.61-1.37,3.31-1.32,1.73.71,2.54.71,1.73-.64,2.66-.59,2.08.84,3.36,1.2,1.47.18,1.46.41-.66.47-1.9.12a13.43,13.43,0,0,0-2.83-.91c-.94,0-1.64.64-2.69.62s-1.46-.61-2.57-.62-1.54.68-3,.91S85.22,91.39,85.22,91.16Z"/><path class="cls-120" d="M101.64,90.72c-1.55,1-3.26.24-4.49-.47a3.41,3.41,0,0,0-2-.51,9.22,9.22,0,0,1-2.19.6h0c-.9,0-1.47-.52-2.17-.6a3.59,3.59,0,0,0-2,.53c-1.18.76-3,1.42-4.35.35a.2.2,0,0,1,0-.28.2.2,0,0,1,.27,0l0,0c1.13.85,2.71.38,3.92-.41a3.9,3.9,0,0,1,2.22-.56c.77.11,1.46.61,2.06.6h0a9.59,9.59,0,0,0,2.12-.59,3.72,3.72,0,0,1,2.26.54c1.21.83,3,1.44,4,.49l0,0a.3.3,0,0,1,.39,0c.08.1,0,.23-.09.28Z"/><path class="cls-118" d="M91.74,82.65c-.34.81-2.67-.44-1.7-1.15C90.84,80.92,92,82.12,91.74,82.65Z"/><path class="cls-118" d="M95,82.65c.35.81,2.68-.44,1.7-1.15C95.91,80.92,94.79,82.12,95,82.65Z"/><path class="cls-121" d="M95.4,79c0-.75-1-8.85-.88-11.31s1.59-4.53-1.79-4.54h0c-3.38,0-1.93,2-1.79,4.54S90,78.22,90.05,79c0,.91.63,1.64,2.67,1.64h0C94.76,80.61,95.37,79.88,95.4,79Z"/><path class="cls-120" d="M88.85,82.59c-.85-.1-.14-4.47,1.31-5,.53-.2.8,1.7.27,2.36C88,82,89.22,82.63,88.85,82.59Z"/><path class="cls-120" d="M98,82.94c.71,0-.08-4.58-1.31-5-.54-.19-.77,1.6-.24,2.26C98.89,82.05,97.61,82.94,98,82.94Z"/><path class="cls-118" d="M96.67,83.19c-.21.34,2,.26,2.07-1.34s-.89-3.92-1.27-3.87,1,2.68.61,3.87S96.77,83,96.67,83.19Z"/><path class="cls-121" d="M90.85,79.57c-.42.2.43.65,1.2,2.53.56,1.1.64,1.72,1.34,1.72s1-.79,1.41-1.72c.56-1.3,1.33-2.12,1.19-2.44s-.84.89-2.6.81S91.2,79.4,90.85,79.57Z"/><path class="cls-119" d="M90.48,80.94c0,.46.35.35.91.83s.59,1,.78,1,.23-1-.4-1.6S90.46,80.52,90.48,80.94Z"/><path class="cls-119" d="M96.26,80.94c0,.46-.35.35-.91.83s-.59,1-.78,1-.23-1,.39-1.6S96.28,80.52,96.26,80.94Z"/><path class="cls-121" d="M95.85,63.74a3.8,3.8,0,0,0-1,2c-.08.57-.17,1.21-.2,1.88-.08,2,.42,7.85.59,10.28a5.92,5.92,0,0,1,.09,1.2s3.34,3,3.35,2.33-.75-4.06-.85-5.17a36.38,36.38,0,0,1,1.19-8C99.35,67,97.31,62.53,95.85,63.74Z"/><path class="cls-122" d="M95.85,63.75a4.13,4.13,0,0,0-1,2.18c-.08.61-.17,1.28-.2,2-.08,2.15.42,8.36.59,10.95a6.8,6.8,0,0,1,.09,1.28s3.34,3.18,3.35,2.49-.75-4.33-.85-5.51a37.21,37.21,0,0,1,1.06-8.24C99.22,67.42,97.31,62.47,95.85,63.75Z"/><path class="cls-122" d="M90.93,63.63A4.09,4.09,0,0,1,92,65.81c.08.6.17,1.28.2,2,.08,2.16-.42,8.37-.59,11A8.34,8.34,0,0,0,91.5,80s-3.34,3.17-3.34,2.49.75-4.34.84-5.52a36.15,36.15,0,0,0-1.06-8.24C87.57,67.3,89.48,62.34,90.93,63.63Z"/><path class="cls-123" d="M96,76.84c.37-.1.43,1.71.84,2.39s.85,1,.73,1.18-1.52-.72-1.64-1.18S95.74,76.92,96,76.84Z"/><path class="cls-118" d="M90,83.19c.21.34-2,.26-2.06-1.34s.88-3.92,1.26-3.87-1,2.68-.61,3.87S89.94,83,90,83.19Z"/><path class="cls-123" d="M88.68,81.63c-.52-.25.4-3.08,1-2.81C90.66,79.27,88.92,81.75,88.68,81.63Z"/><path class="cls-124" d="M109.7,67.11c.21.53-.63,3.11-4,3.32-3.76.24-6.2-2.47-5.87-2.85s1.52.48,4.94.21S109.3,66.13,109.7,67.11Z"/><path class="cls-121" d="M109.23,66.81c0,.56-.57,2-3.09,2.35-3,.4-5.82-1-6-1.81s2.38-4.38,6.11-3C109,65.27,109.23,66.81,109.23,66.81Z"/><path class="cls-125" d="M100.88,67.34c.13.77,3.11,1.79,6.11,1.34,2-.31,3-1.45,3-1.79a5.28,5.28,0,0,0-4.72-2.45C102.38,64.55,100.76,66.67,100.88,67.34Z"/><path class="cls-126" d="M110.08,65.85s-1-1.93-4.16-2.64a5,5,0,0,0-5.39,2.24,4.82,4.82,0,0,1,4.92-2.73C109.27,63.28,110.08,65.85,110.08,65.85Z"/><ellipse class="cls-127" cx="105.47" cy="66.64" rx="2.27" ry="2.2"/><path class="cls-128" d="M106.49,66.7a1,1,0,0,1-2,0,1,1,0,0,1,2,0Z"/><path class="cls-124" d="M85.24,66.9c.21.53-.63,3.11-4,3.32-3.77.24-6.22-2.47-5.89-2.85s1.53.48,5,.21S84.84,65.92,85.24,66.9Z"/><path class="cls-121" d="M76.22,67c0,.56.56,2,3.09,2.35,3,.4,5.81-1.05,6-1.81s-2.38-4.38-6.11-3C76.48,65.48,76.22,67,76.22,67Z"/><path class="cls-125" d="M84.57,67.55c-.13.77-3.12,1.79-6.11,1.34-2-.31-3-1.45-3-1.79a5.26,5.26,0,0,1,4.72-2.45C83.07,64.76,84.68,66.88,84.57,67.55Z"/><ellipse class="cls-127" cx="79.94" cy="66.8" rx="2.27" ry="2.2"/><path class="cls-128" d="M81,66.85a1,1,0,1,1-1-1A1,1,0,0,1,81,66.85Z"/><path class="cls-1" d="M85,67.51c-.12.72-2.93,1.71-5.74,1.26-2.26-.37-2.83-1.37-2.82-1.68a5,5,0,0,1,4.44-2.31C83.61,64.88,85.13,66.87,85,67.51Z"/><path class="cls-126" d="M75.37,66.05s1-1.92,4.16-2.63a5,5,0,0,1,5.39,2.24A4.82,4.82,0,0,0,80,62.93C76.18,63.49,75.37,66.05,75.37,66.05Z"/><path class="cls-129" d="M73.47,69.69c1.59-.65,2.8.78,6.37.9s5.44-2,6.4-1.78.31,4.64-4.08,5C75.78,74.47,72.22,70.19,73.47,69.69Z"/><path class="cls-129" d="M112.28,69.69c-1.59-.65-2.8.78-6.37.9s-5.44-2-6.4-1.78-.31,4.64,4.09,5C110,74.47,113.53,70.19,112.28,69.69Z"/><path class="cls-118" d="M90.85,79.57c-.42.2.43.65,1.2,2.53.56,1.1.64,1.72,1.34,1.72s1-.79,1.41-1.72c.56-1.3,1.33-2.12,1.19-2.44s-.84.89-2.6.81S91.2,79.4,90.85,79.57Z"/><path class="cls-119" d="M90.45,64.15a38.76,38.76,0,0,1,.65,4.58c.19,5.31-1.94,11.43.56,11.43,1.27,0,.85-7.28.85-11.34s0-5-.35-5.35S90.48,63.72,90.45,64.15Z"/><ellipse class="cls-130" cx="93.09" cy="103.86" rx="6.18" ry="4.28"/><ellipse class="cls-130" cx="93.09" cy="97.17" rx="2.79" ry="1.12"/><path class="cls-131" d="M73.83,62.45l.42-.33,1-.25,2-.21,2.12-.18h2.47l1.87.18,2.44.3,2,.41,1.4.37,2.59.35L94.39,63l1.48-.19,1.35-.55,2.4-.19,2.47-.43,2.57-.33,2.65.07,2.83.09,1.91.41.39.31L112.1,61A9.87,9.87,0,0,0,105,59.15l-4.67.48-3,.32a43.14,43.14,0,0,1-10-.19s-5.88-.8-6.62-.7a9.61,9.61,0,0,0-4,.77s-2.14.68-2.63,1.73Z"/><path class="cls-132" d="M117.61,58.7h-.17l-1.22,1.65a2.75,2.75,0,0,1-1.39,1.23l-.39,1.87a11.83,11.83,0,0,0,1.12-.39,1.67,1.67,0,0,0,.66-.67,2.57,2.57,0,0,1,.27-.42,2.26,2.26,0,0,0,.38-.8l.39-1.59.18-.22.52.22C118.07,59.07,118,58.78,117.61,58.7Z"/><path class="cls-132" d="M68.75,60.6l.73-.33.19.22L70.22,62a1.73,1.73,0,0,0,.37.89,2.36,2.36,0,0,0,.74.9,3.36,3.36,0,0,0,.73.33V62a3,3,0,0,1-1.29-1.33l-1.1-.82-.19-.11q0-.12-.36,0C68.87,59.78,68.75,60.08,68.75,60.6Z"/><path class="cls-132" d="M113.83,61.29l-1.06-.19-.92-.14s-2-.2-3.27-.24a22.64,22.64,0,0,0-2.57,0,41.13,41.13,0,0,0-4.17.38l-2.36.43L97.41,62,96,62.23a23.57,23.57,0,0,1-6.4-.18l-.69-.13-1.22-.24-.88-.17-1.17-.2-1-.14-1.26-.1L82,61H80.11L79,61l-1.32.08-1.34.13-1.46.18-.86.15-.6.09-.83.16-.53.13-.24,2.59a58.11,58.11,0,0,0,1.42,6.23A4.21,4.21,0,0,0,76,73.93a17.1,17.1,0,0,0,4.34.74,25.57,25.57,0,0,0,5.07-.49,5.08,5.08,0,0,0,3.39-2.55l.38-.7.49-1,.7-1.43.44-1.22L91.24,66l.4-1.13.27-.38.35-.3.37-.13h1.2l.61.06.4.14.35.28.28.52.25.73.23.65.32.92.29.82.51,1.2.58,1.13.57.94.77,1,.49.51.54.4.48.24.46.18.65.18.56.11.82.09.84.06.87,0,.91,0,1,0,.8-.08.86-.12.79-.15.76-.17.9-.3a3.57,3.57,0,0,0,1.29-.84l.34-.35.26-.39.29-.47.24-.61.26-.72.15-.52.16-.52.17-.69.13-.69.14-.76.15-.59,0-.62.11-.72.09-.48.22-.81.17-2Zm-23.43,4A7.84,7.84,0,0,1,90.11,67a25.31,25.31,0,0,1-.9,2.45,9.61,9.61,0,0,1-1.77,2.86c-1.16,1.36-3.61,1.49-3.61,1.49a24.48,24.48,0,0,1-6.15,0A4,4,0,0,1,74,70.92c-1-1.77-1.1-6.51-1.1-6.51a2,2,0,0,1,1.2-2.08A20.38,20.38,0,0,1,78,61.71a33.88,33.88,0,0,1,7,.22c3.51.39,4.64,1.4,4.64,1.4A1.86,1.86,0,0,1,90.4,65.32Zm22.14,5.3A3.9,3.9,0,0,1,109,73.47a23.27,23.27,0,0,1-5.93,0A5.54,5.54,0,0,1,99.56,72a9.4,9.4,0,0,1-1.71-2.8,23.43,23.43,0,0,1-.86-2.4,7.56,7.56,0,0,1-.29-1.68,1.83,1.83,0,0,1,.75-1.94s1.09-1,4.47-1.38a33,33,0,0,1,6.72-.22,19,19,0,0,1,3.8.62,1.92,1.92,0,0,1,1.16,2S113.54,68.89,112.54,70.62Z"/><g class="cls-133"><path class="cls-132" d="M72.88,64.47S72.94,69.2,74,71a4,4,0,0,0,3.7,2.91,24,24,0,0,0,6.15,0s2.45-.12,3.61-1.48a9.59,9.59,0,0,0,1.77-2.87,25.31,25.31,0,0,0,.9-2.45,7.7,7.7,0,0,0,.29-1.7,1.85,1.85,0,0,0-.77-2S88.5,62.38,85,62a34.68,34.68,0,0,0-7-.22,19.81,19.81,0,0,0-3.94.63A2,2,0,0,0,72.88,64.47Z"/></g><g class="cls-133"><path class="cls-132" d="M113.6,64.3s-.06,4.64-1.06,6.37A3.9,3.9,0,0,1,109,73.52a22.77,22.77,0,0,1-5.93,0,5.56,5.56,0,0,1-3.48-1.45,9.54,9.54,0,0,1-1.71-2.81,23.43,23.43,0,0,1-.86-2.4,7.43,7.43,0,0,1-.29-1.67,1.85,1.85,0,0,1,.75-1.95s1.09-1,4.47-1.37a32.25,32.25,0,0,1,6.72-.22,19.6,19.6,0,0,1,3.8.61A1.94,1.94,0,0,1,113.6,64.3Z"/></g></g></g></svg>