<?xml version="1.0" encoding="utf-8"?>
<!-- Generator: Adobe Illustrator 17.1.0, SVG Export Plug-In . SVG Version: 6.00 Build 0)  -->
<!DOCTYPE svg PUBLIC "-//W3C//DTD SVG 1.1//EN" "http://www.w3.org/Graphics/SVG/1.1/DTD/svg11.dtd">
<svg version="1.1" id="Layer_1" xmlns="http://www.w3.org/2000/svg" xmlns:xlink="http://www.w3.org/1999/xlink" x="0px" y="0px"
	 viewBox="0 0 1300 550" enable-background="new 0 0 1300 550" xml:space="preserve">
<path fill-rule="evenodd" clip-rule="evenodd" fill="#FDC379" d="M0,496.8V53.2c0-1.7,0.1-3.5,0.4-5.2c0.3-1.7,0.7-3.5,1.2-5.2
	c0.5-1.7,1.2-3.4,2-5.1c0.8-1.7,1.7-3.3,2.8-4.9c1-1.6,2.2-3.2,3.5-4.7c1.3-1.5,2.7-3,4.2-4.5c1.5-1.4,3.1-2.8,4.9-4.2
	c1.7-1.3,3.6-2.6,5.5-3.9c1.9-1.2,3.9-2.4,6-3.5C32.5,11,34.7,9.9,37,9c2.3-1,4.6-1.9,7-2.7c2.4-0.8,4.9-1.6,7.4-2.2
	c2.5-0.7,5.1-1.3,7.7-1.8C61.7,1.8,64.3,1.4,67,1c2.7-0.3,5.4-0.6,8.1-0.8C77.8,0.1,80.5,0,83.2,0h1133.6c2.7,0,5.4,0.1,8.2,0.3
	c2.7,0.2,5.4,0.4,8.1,0.8c2.7,0.3,5.3,0.8,7.9,1.3c2.6,0.5,5.2,1.1,7.7,1.8c2.5,0.7,5,1.4,7.4,2.2c2.4,0.8,4.7,1.7,7,2.7
	c2.3,1,4.5,2,6.6,3.1c2.1,1.1,4.1,2.3,6,3.5c1.9,1.2,3.8,2.5,5.5,3.9c1.7,1.3,3.3,2.7,4.9,4.2c1.5,1.4,2.9,2.9,4.2,4.5
	c1.3,1.5,2.4,3.1,3.5,4.7c1,1.6,2,3.3,2.8,4.9c0.8,1.7,1.5,3.4,2,5.1c0.5,1.7,0.9,3.4,1.2,5.2c0.3,1.7,0.4,3.5,0.4,5.2v443.5
	c0,1.7-0.1,3.5-0.4,5.2c-0.3,1.7-0.7,3.5-1.2,5.2c-0.5,1.7-1.2,3.4-2,5.1c-0.8,1.7-1.7,3.3-2.8,4.9c-1,1.6-2.2,3.2-3.5,4.7
	c-1.3,1.5-2.7,3-4.2,4.5c-1.5,1.4-3.1,2.8-4.9,4.2c-1.7,1.3-3.6,2.6-5.5,3.9c-1.9,1.2-3.9,2.4-6.1,3.5c-2.1,1.1-4.3,2.1-6.6,3.1
	c-2.3,1-4.6,1.9-7,2.7c-2.4,0.8-4.9,1.6-7.4,2.2c-2.5,0.7-5.1,1.3-7.7,1.8c-2.6,0.5-5.2,0.9-7.9,1.3c-2.7,0.3-5.4,0.6-8.1,0.8
	c-2.7,0.2-5.4,0.3-8.2,0.3H83.2c-2.7,0-5.4-0.1-8.2-0.3c-2.7-0.2-5.4-0.4-8.1-0.8c-2.7-0.3-5.3-0.8-7.9-1.3
	c-2.6-0.5-5.2-1.1-7.7-1.8c-2.5-0.7-5-1.4-7.4-2.2c-2.4-0.8-4.7-1.7-7-2.7c-2.3-1-4.5-2-6.6-3.1c-2.1-1.1-4.1-2.3-6-3.5
	c-1.9-1.2-3.8-2.5-5.5-3.9c-1.7-1.3-3.3-2.7-4.9-4.2c-1.5-1.4-2.9-2.9-4.2-4.5c-1.3-1.5-2.4-3.1-3.5-4.7c-1-1.6-2-3.3-2.8-4.9
	c-0.8-1.7-1.5-3.4-2-5.1c-0.5-1.7-0.9-3.4-1.2-5.2C0.1,500.3,0,498.5,0,496.8z"/>
<path opacity="0.54" fill-rule="evenodd" clip-rule="evenodd" fill="#F15F22" d="M413.8,550C249.6,444.3,148,298.7,148,138
	c0-47.5,8.9-93.7,25.7-138h1043.1h0.3c5.4,0,10.7,0.4,16,1c5.4,0.7,10.6,1.7,15.6,3c5,1.3,9.8,3,14.4,4.9c4.5,1.9,8.7,4.1,12.6,6.6
	s7.3,5.2,10.3,8.1c3,2.9,5.6,6,7.7,9.2c2.1,3.2,3.7,6.6,4.7,10c1,3.4,1.6,6.8,1.6,10.2v0.2v443.5v0.2c0,3.4-0.5,6.8-1.6,10.2
	c-1.1,3.4-2.6,6.8-4.7,10c-2.1,3.2-4.7,6.3-7.7,9.2c-3,2.9-6.5,5.6-10.3,8.1s-8.1,4.7-12.6,6.6c-4.5,1.9-9.3,3.6-14.4,4.9
	c-5,1.3-10.3,2.3-15.6,3c-5.4,0.7-10.8,1-16.2,1H413.8z"/>
<path opacity="0.54" fill-rule="evenodd" clip-rule="evenodd" fill="#F15F22" d="M824.7,550c-5.8-1.8-11.5-3.7-17.2-5.7
	c-10.4-3.6-20.7-7.3-30.8-11.2c-10.1-3.9-20.1-7.9-29.9-12.1c-9.8-4.2-19.5-8.5-28.9-13c-9.5-4.5-18.8-9.1-27.9-13.9
	c-9.1-4.8-18.1-9.7-26.8-14.8c-8.7-5.1-17.3-10.3-25.6-15.6c-8.3-5.3-16.5-10.8-24.4-16.4c-7.9-5.6-15.6-11.3-23.1-17.1
	c-7.5-5.8-14.7-11.8-21.8-17.8c-7-6.1-13.8-12.2-20.4-18.5c-6.6-6.3-12.9-12.7-18.9-19.1c-6.1-6.5-11.9-13-17.4-19.7
	c-5.6-6.7-10.9-13.4-15.9-20.2c-5-6.8-9.8-13.7-14.3-20.7c-4.5-7-8.8-14-12.7-21.1c-4-7.1-7.7-14.3-11.1-21.5
	c-3.4-7.2-6.6-14.5-9.4-21.8c-2.9-7.3-5.5-14.7-7.8-22.1c-2.3-7.4-4.3-14.8-6.1-22.3c-1.7-7.5-3.2-15-4.3-22.5
	c-1.2-7.5-2-15-2.6-22.6c-0.6-7.5-0.9-15.1-0.9-22.6c0-7.5,0.3-15.1,0.9-22.6c0.6-7.5,1.4-15.1,2.6-22.6c1.2-7.5,2.6-15,4.3-22.5
	c1.7-7.5,3.7-14.9,6.1-22.3c2.3-7.4,4.9-14.8,7.8-22.1c2.9-7.3,6-14.6,9.4-21.8c0.6-1.2,1.1-2.4,1.7-3.6h757.6h0.3
	c5.4,0,10.7,0.4,16,1c5.4,0.7,10.6,1.7,15.6,3c5,1.3,9.8,3,14.4,4.9c4.5,1.9,8.7,4.1,12.6,6.6s7.3,5.2,10.3,8.1c3,2.9,5.6,6,7.7,9.2
	c2.1,3.2,3.7,6.6,4.7,10c1,3.4,1.6,6.8,1.6,10.2v0.2v443.5v0.2c0,3.4-0.5,6.8-1.6,10.2c-1.1,3.4-2.6,6.8-4.7,10
	c-2.1,3.2-4.7,6.3-7.7,9.2c-3,2.9-6.5,5.6-10.3,8.1s-8.1,4.7-12.6,6.6c-4.5,1.9-9.3,3.6-14.4,4.9c-5,1.3-10.3,2.3-15.6,3
	c-5.4,0.7-10.8,1-16.2,1H824.7z"/>
<path opacity="0.54" fill-rule="evenodd" clip-rule="evenodd" fill="#F15F22" d="M1222.2,549.9c-4.3-0.1-8.5-0.2-12.8-0.3
	c-8.8-0.3-17.6-0.7-26.4-1.2c-8.8-0.6-17.5-1.2-26.3-2.1c-8.7-0.8-17.4-1.8-26.1-2.9c-8.7-1.1-17.3-2.3-25.8-3.7
	c-8.6-1.4-17.1-2.9-25.5-4.5c-8.4-1.6-16.8-3.4-25.1-5.3c-8.3-1.9-16.5-3.9-24.7-6.1c-8.2-2.2-16.2-4.4-24.2-6.9
	c-8-2.4-15.9-4.9-23.6-7.6c-7.8-2.7-15.5-5.4-23-8.3c-7.6-2.9-15-5.9-22.4-9.1c-7.3-3.1-14.5-6.4-21.6-9.7
	c-7.1-3.4-14-6.8-20.9-10.4c-6.8-3.6-13.5-7.3-20-11.1c-6.5-3.8-12.9-7.7-19.2-11.7c-6.2-4-12.3-8.1-18.2-12.3
	c-5.9-4.2-11.7-8.5-17.3-12.8c-5.6-4.4-11-8.8-16.3-13.3c-5.3-4.5-10.3-9.1-15.2-13.8c-4.9-4.7-9.6-9.5-14.2-14.3
	c-4.5-4.8-8.9-9.7-13-14.7c-4.2-5-8.1-10-11.9-15.1c-3.8-5.1-7.3-10.3-10.7-15.5c-3.4-5.2-6.6-10.5-9.5-15.8
	c-3-5.3-5.7-10.7-8.3-16.1c-2.6-5.4-4.9-10.8-7.1-16.3c-2.1-5.5-4.1-11-5.8-16.5c-1.7-5.5-3.2-11.1-4.5-16.7
	c-1.3-5.6-2.4-11.2-3.2-16.8c-0.9-5.6-1.5-11.2-1.9-16.9c-0.4-5.6-0.6-11.3-0.6-16.9c0-5.6,0.2-11.3,0.6-16.9
	c0.4-5.6,1.1-11.3,1.9-16.9c0.9-5.6,1.9-11.2,3.2-16.8c1.3-5.6,2.8-11.1,4.5-16.7c1.7-5.5,3.7-11,5.8-16.5
	c2.1-5.5,4.5-10.9,7.1-16.3c2.6-5.4,5.3-10.8,8.3-16.1c3-5.3,6.1-10.6,9.5-15.8c3.4-5.2,7-10.4,10.7-15.5
	c3.8-5.1,7.7-10.1,11.9-15.1c4.2-5,8.5-9.9,13-14.7c4.5-4.8,9.3-9.6,14.2-14.3c4.8-4.6,9.8-9.1,14.9-13.5h414.3h0.3
	c5.4,0,10.7,0.4,16,1c5.4,0.7,10.6,1.7,15.6,3c5,1.3,9.8,3,14.4,4.9c4.5,1.9,8.7,4.1,12.6,6.6s7.3,5.2,10.3,8.1c3,2.9,5.6,6,7.7,9.2
	c2.1,3.2,3.7,6.6,4.7,10c1,3.4,1.6,6.8,1.6,10.2v0.2v443.5v0.2c0,3.4-0.5,6.8-1.6,10.2c-1.1,3.4-2.6,6.8-4.7,10
	c-2.1,3.2-4.7,6.3-7.7,9.2c-3,2.9-6.5,5.6-10.3,8.1s-8.1,4.7-12.6,6.6c-4.5,1.9-9.3,3.6-14.4,4.9c-5,1.3-10.3,2.3-15.6,3
	C1229.4,549.4,1225.8,549.7,1222.2,549.9z"/>
<path fill-rule="evenodd" clip-rule="evenodd" fill="#F15F22" d="M1300,333.5c-2.7,0.7-5.5,1.4-8.3,2c-4.3,1-8.6,1.9-13,2.7
	c-4.4,0.8-8.8,1.6-13.2,2.3c-4.4,0.7-8.9,1.4-13.4,1.9c-4.5,0.6-9,1.1-13.5,1.5c-4.5,0.4-9,0.8-13.6,1.1c-4.5,0.3-9.1,0.5-13.7,0.6
	c-4.6,0.1-9.1,0.2-13.7,0.2c-4.6,0-9.1-0.1-13.7-0.2c-4.6-0.1-9.1-0.4-13.7-0.6c-4.5-0.3-9.1-0.6-13.6-1.1c-4.5-0.4-9-0.9-13.5-1.5
	c-4.5-0.6-8.9-1.2-13.4-1.9c-4.4-0.7-8.8-1.5-13.2-2.3c-4.4-0.8-8.7-1.8-13-2.7c-4.3-1-8.6-2-12.8-3.2c-4.2-1.1-8.4-2.3-12.5-3.6
	c-4.1-1.2-8.2-2.6-12.2-3.9c-4-1.4-8-2.8-11.9-4.3c-3.9-1.5-7.8-3.1-11.6-4.7c-3.8-1.6-7.5-3.3-11.2-5c-3.7-1.7-7.3-3.5-10.8-5.4
	c-3.5-1.9-7-3.8-10.4-5.7c-3.4-2-6.7-4-9.9-6c-3.2-2.1-6.4-4.2-9.4-6.3c-3.1-2.2-6-4.4-8.9-6.6c-2.9-2.3-5.7-4.6-8.4-6.9
	c-2.7-2.3-5.3-4.7-7.9-7.2c-2.5-2.4-5-4.9-7.3-7.4c-2.3-2.5-4.6-5-6.8-7.6s-4.2-5.2-6.2-7.8c-2-2.6-3.8-5.3-5.6-8
	c-1.7-2.7-3.4-5.4-4.9-8.2c-1.5-2.8-3-5.5-4.3-8.3c-1.3-2.8-2.5-5.6-3.7-8.4c-1.1-2.8-2.1-5.7-3-8.5c-0.9-2.9-1.7-5.7-2.3-8.6
	c-0.7-2.9-1.2-5.8-1.7-8.7c-0.4-2.9-0.8-5.8-1-8.7c-0.2-2.9-0.3-5.8-0.3-8.8c0-2.9,0.1-5.8,0.3-8.8c0.2-2.9,0.6-5.8,1-8.7
	c0.4-2.9,1-5.8,1.7-8.7c0.7-2.9,1.5-5.8,2.3-8.6c0.9-2.9,1.9-5.7,3-8.5c1.1-2.8,2.3-5.6,3.7-8.4c1.3-2.8,2.8-5.6,4.3-8.3
	c1.5-2.8,3.2-5.5,4.9-8.2c1.7-2.7,3.6-5.4,5.6-8c2-2.6,4-5.3,6.2-7.8s4.4-5.1,6.8-7.6c2.3-2.5,4.8-5,7.3-7.4
	c2.5-2.4,5.2-4.8,7.9-7.2c2.7-2.3,5.5-4.6,8.4-6.9c2.9-2.3,5.9-4.5,8.9-6.6c3.1-2.2,6.2-4.3,9.4-6.3c3.2-2.1,6.5-4.1,9.9-6
	c3.4-2,6.8-3.9,10.4-5.7c3.5-1.9,7.1-3.7,10.8-5.4c3.7-1.7,7.4-3.4,11.2-5c3.8-1.6,7.7-3.2,11.6-4.7c3.9-1.5,7.9-2.9,11.9-4.3
	c4-1.4,8.1-2.7,12.2-3.9c4.1-1.2,8.3-2.4,12.5-3.6c3.3-0.9,6.6-1.7,10-2.5h115.9h0.3c5.4,0,10.7,0.4,16,1c5.4,0.7,10.6,1.7,15.6,3
	c5,1.3,9.8,3,14.4,4.9c4.5,1.9,8.7,4.1,12.6,6.6s7.3,5.2,10.3,8.1c3,2.9,5.6,6,7.7,9.2c2.1,3.2,3.7,6.6,4.7,10
	c1,3.4,1.6,6.8,1.6,10.2v0.2V333.5z"/>
</svg>
