<?xml version="1.0" encoding="utf-8"?>
<!-- Generator: Adobe Illustrator 17.1.0, SVG Export Plug-In . SVG Version: 6.00 Build 0)  -->
<!DOCTYPE svg PUBLIC "-//W3C//DTD SVG 1.1//EN" "http://www.w3.org/Graphics/SVG/1.1/DTD/svg11.dtd">
<svg version="1.1" id="Layer_1" xmlns="http://www.w3.org/2000/svg" xmlns:xlink="http://www.w3.org/1999/xlink" x="0px" y="0px"
	 viewBox="0 0 800 450" enable-background="new 0 0 800 450" xml:space="preserve">
<path fill-rule="evenodd" clip-rule="evenodd" fill="#FDC379" d="M0,496.774V53.226c0-1.743,0.082-3.483,0.247-5.217
	c0.164-1.735,0.41-3.457,0.737-5.167c0.327-1.71,0.734-3.398,1.221-5.067c0.487-1.668,1.051-3.307,1.693-4.918
	c0.642-1.611,1.358-3.185,2.149-4.722c0.79-1.538,1.651-3.031,2.583-4.48c0.932-1.449,1.93-2.848,2.993-4.195
	c1.064-1.348,2.189-2.638,3.374-3.871c1.186-1.233,2.427-2.402,3.723-3.508c1.297-1.106,2.641-2.143,4.036-3.111
	c1.394-0.969,2.831-1.864,4.31-2.685c1.479-0.822,2.993-1.566,4.542-2.233c1.549-0.667,3.126-1.254,4.731-1.76
	c1.604-0.506,3.229-0.929,4.874-1.269c1.644-0.34,3.301-0.596,4.97-0.766C47.851,0.085,49.523,0,51.2,0h697.6
	c1.676,0,3.35,0.085,5.018,0.256c1.669,0.171,3.325,0.426,4.97,0.766c1.645,0.34,3.269,0.763,4.874,1.269
	c1.604,0.505,3.181,1.093,4.731,1.76c1.549,0.667,3.063,1.411,4.542,2.233c1.479,0.822,2.915,1.717,4.31,2.685
	c1.394,0.968,2.739,2.006,4.036,3.111c1.296,1.106,2.537,2.275,3.723,3.508c1.186,1.233,2.311,2.523,3.375,3.871
	c1.064,1.347,2.061,2.746,2.993,4.195c0.932,1.45,1.793,2.943,2.583,4.48c0.79,1.537,1.506,3.111,2.148,4.722
	c0.641,1.611,1.206,3.25,1.693,4.918c0.487,1.668,0.894,3.357,1.221,5.067c0.327,1.71,0.573,3.432,0.737,5.167
	c0.164,1.734,0.247,3.474,0.247,5.217v443.548c0,1.743-0.082,3.482-0.247,5.217c-0.164,1.734-0.41,3.457-0.737,5.167
	c-0.327,1.709-0.734,3.398-1.221,5.066c-0.487,1.668-1.051,3.308-1.693,4.919c-0.642,1.61-1.358,3.184-2.148,4.722
	c-0.79,1.537-1.651,3.031-2.583,4.48c-0.931,1.45-1.929,2.848-2.993,4.196c-1.064,1.348-2.189,2.638-3.375,3.87
	c-1.186,1.233-2.427,2.402-3.723,3.508c-1.296,1.106-2.641,2.143-4.035,3.112c-1.395,0.968-2.831,1.863-4.31,2.685
	c-1.479,0.822-2.993,1.567-4.542,2.234c-1.549,0.667-3.126,1.253-4.731,1.76c-1.605,0.506-3.229,0.929-4.874,1.269
	c-1.645,0.34-3.301,0.595-4.97,0.766c-1.669,0.171-3.342,0.256-5.018,0.256H51.2c-1.677,0-3.35-0.085-5.019-0.256
	c-1.668-0.171-3.325-0.426-4.97-0.766c-1.645-0.34-3.27-0.763-4.874-1.269c-1.605-0.506-3.182-1.093-4.731-1.76
	c-1.549-0.667-3.063-1.411-4.542-2.234c-1.479-0.822-2.916-1.717-4.31-2.685c-1.395-0.969-2.739-2.006-4.036-3.112
	c-1.296-1.106-2.537-2.275-3.723-3.508c-1.186-1.232-2.311-2.522-3.374-3.87c-1.064-1.347-2.061-2.746-2.993-4.196
	c-0.931-1.449-1.792-2.943-2.583-4.48c-0.79-1.538-1.506-3.112-2.149-4.722c-0.641-1.611-1.206-3.25-1.693-4.919
	c-0.487-1.668-0.894-3.357-1.221-5.066c-0.327-1.71-0.573-3.432-0.737-5.167C0.082,500.256,0,498.517,0,496.774z"/>
<path opacity="0.54" fill-rule="evenodd" clip-rule="evenodd" fill="#F15F22" d="M254.646,550
	C153.573,444.341,91.101,298.736,91.101,137.954c0-47.529,5.499-93.716,15.798-137.954H748.8h0.158
	c3.308,0.011,6.584,0.351,9.83,1.023c3.297,0.682,6.499,1.691,9.605,3.029c3.106,1.337,6.056,2.977,8.852,4.919
	c2.795,1.941,5.381,4.148,7.759,6.619c2.377,2.471,4.499,5.16,6.367,8.066c1.868,2.906,3.445,5.973,4.732,9.202
	c1.287,3.229,2.258,6.557,2.914,9.985c0.646,3.374,0.974,6.781,0.984,10.22v0.164v443.548v0.164
	c-0.01,3.439-0.338,6.846-0.984,10.22c-0.656,3.427-1.627,6.755-2.914,9.985c-1.286,3.229-2.863,6.296-4.732,9.201
	c-1.868,2.906-3.99,5.594-6.367,8.066c-2.377,2.471-4.963,4.678-7.759,6.62c-2.796,1.941-5.746,3.581-8.852,4.919
	c-3.106,1.337-6.308,2.347-9.605,3.029c-3.298,0.682-6.627,1.023-9.988,1.023H254.646z"/>
<path opacity="0.54" fill-rule="evenodd" clip-rule="evenodd" fill="#F15F22" d="M507.517,550
	c-3.543-1.843-7.063-3.736-10.558-5.679c-6.404-3.559-12.721-7.279-18.95-11.16c-6.229-3.881-12.362-7.919-18.4-12.113
	c-6.038-4.194-11.974-8.54-17.807-13.037c-5.833-4.497-11.556-9.14-17.17-13.93c-5.614-4.789-11.111-9.719-16.492-14.789
	c-5.381-5.069-10.639-10.273-15.774-15.612c-5.135-5.338-10.141-10.804-15.018-16.398c-4.877-5.594-9.619-11.308-14.225-17.144
	c-4.607-5.836-9.073-11.786-13.4-17.849c-4.326-6.064-8.506-12.234-12.541-18.511c-4.035-6.277-7.918-12.654-11.652-19.129
	c-3.734-6.475-7.312-13.042-10.735-19.7c-3.423-6.658-6.688-13.399-9.792-20.224c-3.105-6.825-6.047-13.724-8.826-20.699
	c-2.779-6.974-5.392-14.016-7.839-21.124c-2.447-7.108-4.724-14.274-6.832-21.499c-2.108-7.224-4.044-14.498-5.808-21.821
	c-1.765-7.323-3.356-14.687-4.772-22.091c-1.416-7.404-2.658-14.84-3.723-22.308c-1.066-7.468-1.954-14.958-2.666-22.471
	c-0.713-7.513-1.247-15.04-1.603-22.58c-0.356-7.541-0.535-15.085-0.535-22.635c0-7.549,0.178-15.094,0.535-22.634
	c0.356-7.54,0.89-15.067,1.603-22.58c0.712-7.513,1.6-15.003,2.666-22.471c1.065-7.467,2.307-14.903,3.723-22.308
	c1.417-7.404,3.008-14.768,4.772-22.091c1.764-7.323,3.7-14.597,5.808-21.821c0.35-1.2,0.705-2.398,1.064-3.595H748.8h0.158
	c3.308,0.011,6.584,0.351,9.83,1.023c3.297,0.682,6.499,1.691,9.605,3.029c3.106,1.337,6.056,2.977,8.852,4.919
	c2.795,1.941,5.381,4.148,7.759,6.619c2.377,2.471,4.499,5.16,6.367,8.066c1.868,2.906,3.445,5.973,4.732,9.202
	c1.287,3.229,2.258,6.557,2.914,9.985c0.646,3.374,0.974,6.781,0.984,10.22v0.164v443.548v0.164
	c-0.01,3.439-0.338,6.846-0.984,10.22c-0.656,3.427-1.627,6.755-2.914,9.985c-1.286,3.229-2.863,6.296-4.732,9.201
	c-1.868,2.906-3.99,5.594-6.367,8.066c-2.377,2.471-4.963,4.678-7.759,6.62c-2.796,1.941-5.746,3.581-8.852,4.919
	c-3.106,1.337-6.308,2.347-9.605,3.029c-3.298,0.682-6.627,1.023-9.988,1.023H507.517z"/>
<path opacity="0.54" fill-rule="evenodd" clip-rule="evenodd" fill="#F15F22" d="M752.117,549.889
	c-2.621-0.069-5.241-0.17-7.861-0.304c-5.422-0.277-10.835-0.692-16.238-1.245c-5.403-0.553-10.79-1.243-16.16-2.072
	c-5.37-0.828-10.717-1.792-16.042-2.894c-5.325-1.101-10.621-2.337-15.887-3.708c-5.267-1.372-10.497-2.876-15.693-4.515
	c-5.195-1.638-10.349-3.408-15.46-5.31c-5.112-1.901-10.176-3.932-15.191-6.092c-5.016-2.159-9.978-4.446-14.885-6.859
	c-4.908-2.413-9.756-4.95-14.544-7.61c-4.788-2.66-9.51-5.442-14.167-8.343c-4.656-2.902-9.242-5.92-13.756-9.056
	c-4.514-3.136-8.951-6.384-13.312-9.747c-4.361-3.362-8.64-6.833-12.836-10.414c-4.196-3.58-8.306-7.266-12.328-11.056
	c-4.023-3.79-7.954-7.68-11.793-11.672c-3.839-3.991-7.581-8.077-11.227-12.259c-3.646-4.182-7.191-8.454-10.635-12.817
	c-3.444-4.363-6.783-8.811-10.017-13.344c-3.234-4.533-6.359-9.146-9.376-13.839c-3.016-4.693-5.92-9.459-8.71-14.301
	c-2.791-4.841-5.467-9.75-8.026-14.727s-4.999-10.017-7.321-15.119c-2.321-5.102-4.52-10.26-6.598-15.474
	c-2.077-5.215-4.031-10.478-5.86-15.792c-1.829-5.314-3.532-10.671-5.107-16.072c-1.576-5.401-3.024-10.839-4.343-16.313
	c-1.319-5.475-2.508-10.98-3.568-16.515c-1.059-5.535-1.987-11.094-2.784-16.677c-0.796-5.582-1.461-11.183-1.993-16.799
	c-0.532-5.617-0.931-11.244-1.197-16.881c-0.267-5.637-0.4-11.277-0.4-16.921c0-5.643,0.133-11.284,0.4-16.922
	c0.266-5.637,0.665-11.263,1.197-16.88c0.532-5.616,1.197-11.216,1.993-16.8c0.797-5.582,1.725-11.141,2.784-16.677
	c1.059-5.536,2.248-11.041,3.568-16.515c1.319-5.475,2.767-10.913,4.343-16.313c1.576-5.401,3.278-10.758,5.107-16.072
	c1.829-5.314,3.783-10.578,5.86-15.792c2.078-5.215,4.277-10.373,6.598-15.474c2.322-5.102,4.762-10.142,7.321-15.12
	c2.559-4.977,5.235-9.886,8.026-14.727c2.791-4.841,5.695-9.608,8.71-14.301c2.952-4.592,6.008-9.108,9.168-13.547H748.8h0.158
	c3.308,0.011,6.584,0.351,9.83,1.023c3.297,0.682,6.499,1.691,9.605,3.029c3.106,1.337,6.056,2.977,8.852,4.919
	c2.795,1.941,5.381,4.148,7.759,6.619c2.377,2.471,4.499,5.16,6.367,8.066c1.868,2.906,3.445,5.973,4.732,9.202
	c1.287,3.229,2.258,6.557,2.914,9.985c0.646,3.374,0.974,6.781,0.984,10.22v0.164v443.548v0.164
	c-0.01,3.439-0.338,6.846-0.984,10.22c-0.656,3.427-1.627,6.755-2.914,9.985c-1.286,3.229-2.863,6.296-4.732,9.201
	c-1.868,2.906-3.99,5.594-6.367,8.066c-2.377,2.471-4.963,4.678-7.759,6.62c-2.796,1.941-5.746,3.581-8.852,4.919
	c-3.106,1.337-6.308,2.347-9.605,3.029C756.579,549.434,754.355,549.738,752.117,549.889z"/>
<path fill-rule="evenodd" clip-rule="evenodd" fill="#F15F22" d="M800,333.548c-1.682,0.689-3.375,1.35-5.078,1.983
	c-2.646,0.984-5.314,1.901-8.003,2.749c-2.69,0.848-5.398,1.627-8.124,2.337c-2.727,0.71-5.468,1.35-8.224,1.92
	c-2.757,0.57-5.525,1.069-8.305,1.498c-2.78,0.429-5.569,0.786-8.366,1.073c-2.797,0.286-5.599,0.501-8.406,0.644
	c-2.807,0.143-5.616,0.215-8.426,0.215c-2.811,0-5.62-0.072-8.427-0.215c-2.807-0.143-5.609-0.358-8.406-0.644
	c-2.797-0.287-5.585-0.644-8.366-1.073c-2.78-0.429-5.548-0.928-8.305-1.498c-2.757-0.57-5.498-1.21-8.224-1.92
	c-2.727-0.71-5.435-1.489-8.124-2.337c-2.69-0.848-5.357-1.765-8.004-2.749c-2.646-0.984-5.268-2.036-7.865-3.153
	c-2.597-1.118-5.165-2.301-7.706-3.551c-2.541-1.249-5.051-2.562-7.529-3.94c-2.479-1.377-4.924-2.817-7.334-4.319
	c-2.411-1.502-4.785-3.065-7.122-4.688c-2.337-1.623-4.634-3.306-6.891-5.046c-2.257-1.741-4.472-3.538-6.645-5.391
	c-2.173-1.853-4.3-3.761-6.383-5.723c-2.082-1.962-4.117-3.976-6.105-6.042c-1.987-2.066-3.925-4.182-5.812-6.347
	c-1.887-2.164-3.723-4.376-5.506-6.635c-1.783-2.259-3.511-4.561-5.185-6.908c-1.675-2.347-3.292-4.734-4.854-7.164
	c-1.561-2.429-3.065-4.897-4.509-7.403c-1.445-2.506-2.83-5.048-4.155-7.624s-2.588-5.186-3.79-7.827
	c-1.201-2.642-2.34-5.311-3.415-8.011c-1.076-2.699-2.087-5.425-3.034-8.176c-0.947-2.751-1.828-5.524-2.644-8.32
	c-0.816-2.796-1.565-5.611-2.249-8.445c-0.683-2.834-1.298-5.684-1.847-8.55c-0.548-2.865-1.028-5.743-1.441-8.634
	c-0.412-2.89-0.756-5.789-1.032-8.696c-0.275-2.908-0.482-5.821-0.62-8.739s-0.207-5.838-0.207-8.76c0-2.922,0.069-5.841,0.207-8.76
	c0.138-2.919,0.345-5.831,0.62-8.739c0.276-2.908,0.619-5.807,1.032-8.697c0.413-2.89,0.893-5.768,1.441-8.634
	c0.549-2.865,1.164-5.716,1.847-8.55c0.684-2.834,1.433-5.649,2.249-8.445c0.816-2.796,1.697-5.569,2.644-8.32
	c0.947-2.751,1.958-5.476,3.034-8.176c1.075-2.699,2.214-5.369,3.415-8.011c1.202-2.641,2.465-5.25,3.79-7.827
	s2.71-5.118,4.155-7.624c1.445-2.506,2.948-4.974,4.509-7.403c1.561-2.43,3.179-4.817,4.854-7.164
	c1.674-2.347,3.403-4.649,5.185-6.908c1.783-2.259,3.619-4.47,5.506-6.635c1.887-2.165,3.825-4.28,5.812-6.346
	c1.988-2.066,4.023-4.081,6.105-6.043c2.083-1.962,4.21-3.87,6.383-5.723c2.173-1.854,4.387-3.65,6.645-5.391
	c2.257-1.74,4.555-3.422,6.891-5.046c2.337-1.623,4.711-3.186,7.122-4.688c2.41-1.502,4.855-2.942,7.334-4.319
	c2.478-1.377,4.988-2.691,7.529-3.94c2.54-1.249,5.109-2.433,7.706-3.551c2.031-0.874,4.077-1.709,6.139-2.501H748.8h0.158
	c3.308,0.011,6.584,0.351,9.83,1.023c3.297,0.682,6.499,1.691,9.605,3.029c3.106,1.337,6.056,2.977,8.852,4.919
	c2.795,1.941,5.381,4.148,7.759,6.619c2.377,2.471,4.499,5.16,6.367,8.066c1.868,2.906,3.445,5.973,4.732,9.202
	c1.287,3.229,2.258,6.557,2.914,9.985c0.646,3.374,0.974,6.781,0.984,10.22v0.164V333.548z"/>
</svg>
