<svg id="Layer_1" data-name="Layer 1" xmlns="http://www.w3.org/2000/svg" viewBox="0 0 595.24 154.87"><defs><style>.cls-1{fill:#f37321;}.cls-2{fill:#fcfcfc;}</style></defs><title>Price Orange_1</title><path class="cls-1" d="M0,80.07v52.75s0,22.08,26.76,22.05l533.9-49.6s34.58-2.07,34.58-28.43V17.63S592-3.88,565.15.62L32.36,51.79S2.2,52.61,0,80.07Z" transform="translate(-0.02 0)"/><path class="cls-2" d="M68.08,87.88H68l-4.61,4.18L62.2,88.15,68,82.94l3.32-.36,4.17,38.78-3.76.4Z" transform="translate(-0.02 0)"/><path class="cls-2" d="M94.31,101.05l.42,3.88L83.79,106.1l-.42-3.88Z" transform="translate(-0.02 0)"/><path class="cls-2" d="M99.57,118.77l-.35-3.22,2.63-4.33c6.34-10.21,9.12-15.58,8.54-21.43-.42-3.94-2.23-7.42-6.52-7-2.61.28-4.59,2.3-5.76,3.94L96.47,83.2a11,11,0,0,1,7.72-4.81c6.2-.67,9.42,4.78,10,10.33.77,7.16-2.46,13.36-7.68,21.88l-2,3.11v.12l12.93-1.39.47,4.35Z" transform="translate(-0.02 0)"/><path class="cls-2" d="M135.77,80.13l-11,1.18,0,10.08a11.53,11.53,0,0,1,2.32-.49,9.86,9.86,0,0,1,6.42,1.42c2.44,1.49,4.66,4.63,5.19,9.52.81,7.58-3,13.72-9.29,14.39a11.46,11.46,0,0,1-7.43-1.62l.54-4.1A10.53,10.53,0,0,0,128.9,112c3.67-.39,6.47-4,5.91-9.14-.58-5-3.45-8.32-9.2-7.7a22.52,22.52,0,0,0-3.94.85l-.14-18.81,13.77-1.48Z" transform="translate(-0.02 0)"/><path class="cls-2" d="M142.05,73.54l3.85-.41L148,92.51h.13c.63-1.64,1.27-3.15,1.88-4.55l7.5-16.07,4.78-.51-9,18.22,14.13,21.89-4.56.49L150.94,93.28,148.58,98l1.65,15.33-3.85.41Z" transform="translate(-0.02 0)"/><path class="cls-2" d="M181.55,69.29l3.85-.41,2.89,26.9c1.15,10.68-2.4,14.38-7.53,14.93a9.71,9.71,0,0,1-4.22-.51l.12-4.3a7.19,7.19,0,0,0,3.32.43c3.45-.37,5.26-2.68,4.42-10.55Z" transform="translate(-0.02 0)"/><path class="cls-2" d="M209.56,87.89,198,89.13l1.56,14.5,12.93-1.39.47,4.35-16.78,1.8-4.32-40.21,16.12-1.73.47,4.35-12.26,1.32,1.37,12.71,11.6-1.25Z" transform="translate(-0.02 0)"/><path class="cls-2" d="M231.35,85.55l-11.6,1.25,1.56,14.5,12.93-1.39.47,4.35-16.78,1.8L213.6,65.85l16.11-1.73.47,4.35-12.26,1.32,1.37,12.71,11.6-1.25Z" transform="translate(-0.02 0)"/><path class="cls-2" d="M246.66,84.69l.42,3.88-10.93,1.17-.42-3.88Z" transform="translate(-0.02 0)"/><path class="cls-2" d="M258.42,61.58a30.19,30.19,0,0,1,7.3-1.63c4.12-.44,6.88.29,9,2.35a12,12,0,0,1,3.17,7.38c.57,5.31-1.53,9.1-4.52,10.86l0,.18c2.42.83,4.1,3.54,5.25,7.64,1.58,5.5,2.7,9.3,3.49,10.79l-4,.43c-.61-1.08-1.64-4.47-3-9.39-1.48-5.45-3.3-7.37-6.82-7.17l-3.63.39,1.87,17.42-3.85.41Zm5.82,17.9,3.94-.42c4.12-.44,6.4-3.76,5.91-8.36-.56-5.19-3.59-7.16-7.67-6.78a12,12,0,0,0-3.76.89Z" transform="translate(-0.02 0)"/><path class="cls-2" d="M298.77,97.37l-.7-3.61h-.13a7.6,7.6,0,0,1-6.09,5c-4.34.47-7-3.41-7.44-7.59-.75-7,3.44-11.29,11.73-12.12l-.06-.6c-.26-2.39-1.2-6.63-5.59-6.16a8.82,8.82,0,0,0-5.35,2.75l-1.26-3.36a10.92,10.92,0,0,1,6.76-3.32c6.55-.7,8.79,5.15,9.42,10.94l1.16,10.8a55,55,0,0,0,1.1,6.88ZM296.61,82.7c-4.26.34-9,1.87-8.38,7.48.37,3.4,2.22,4.83,4.21,4.62,2.79-.3,4.3-2.88,4.66-5.39a7.26,7.26,0,0,0,0-1.69Z" transform="translate(-0.02 0)"/><path class="cls-2" d="M306,75.3c-.32-3-.63-5.42-1-7.8l3.45-.37.73,4.75h.09c.77-2.86,3-5.81,6.5-6.19,3-.32,7.83,1.57,8.89,11.48l1.85,17.24-3.9.42L320.8,78.17c-.5-4.65-2.2-8.39-5.87-8-2.57.28-4.3,2.94-4.65,5.93a10,10,0,0,0,0,2.47l1.86,17.36-3.9.42Z" transform="translate(-0.02 0)"/><path class="cls-2" d="M335,77.67h.09c.42-1.07,1-2.4,1.55-3.49l5.22-10.64,4.69-.5-7,12.76,11.26,16-4.74.51-8.88-13-1.67,3.2,1.17,10.86-3.85.41-4.55-42.35,3.85-.41Z" transform="translate(-0.02 0)"/><path class="cls-2" d="M385.62,86.23a21.73,21.73,0,0,1-8.93,3.19A13.31,13.31,0,0,1,365,85.32c-2.93-3.07-5.1-8.26-5.77-14.53-1.24-12,3.92-21.42,13.93-22.5a14.53,14.53,0,0,1,7.64,1.05l-.47,4.33a12.22,12.22,0,0,0-6.78-1c-7.26.78-11.34,7.37-10.26,17.45s6.3,15.74,13.25,15a9.78,9.78,0,0,0,5-1.63l-1.29-12-6.07.65L373.71,68l9.83-1.06Z" transform="translate(-0.02 0)"/><path class="cls-2" d="M408.65,77.6c.32,3,.65,5.6,1,7.86l-3.45.37-.73-4.69h-.09c-.77,2.44-2.7,5.72-6.51,6.13-3.36.36-7.66-1.71-8.75-11.85l-1.81-16.88,3.9-.42,1.72,16c.59,5.49,2.23,9.05,5.77,8.67,2.61-.28,4.16-2.92,4.62-5.32a10.13,10.13,0,0,0,.07-2.72L402.5,57l3.9-.42Z" transform="translate(-0.02 0)"/><path class="cls-2" d="M427.83,83.51l-.7-3.61H427a7.6,7.6,0,0,1-6.09,5c-4.34.47-7-3.41-7.44-7.59-.75-7,3.44-11.29,11.73-12.12l-.06-.6c-.26-2.39-1.2-6.63-5.59-6.16a8.82,8.82,0,0,0-5.35,2.75l-1.26-3.37a10.92,10.92,0,0,1,6.76-3.32c6.55-.7,8.79,5.15,9.41,10.94l1.16,10.8a54.67,54.67,0,0,0,1.1,6.88Zm-2.16-14.67c-4.26.34-9,1.87-8.38,7.48.37,3.4,2.22,4.83,4.21,4.62,2.79-.3,4.3-2.88,4.66-5.39a7.31,7.31,0,0,0,0-1.69Z" transform="translate(-0.02 0)"/><path class="cls-2" d="M435.17,62.63c-.37-3.4-.72-6.32-1.15-9l3.41-.37.74,5.65.18,0c.56-4,2.64-6.68,5.25-7a3.21,3.21,0,0,1,1.13.06l.53,5a4.43,4.43,0,0,0-1.35,0c-2.75.29-4.39,3.31-4.5,7.3a19.76,19.76,0,0,0,.08,2.47l1.65,15.39-3.85.41Z" transform="translate(-0.02 0)"/><path class="cls-2" d="M463.43,79.69l-.7-3.61h-.13a7.6,7.6,0,0,1-6.09,5c-4.34.47-7-3.41-7.44-7.59-.75-7,3.44-11.29,11.73-12.12l-.06-.6c-.26-2.39-1.21-6.63-5.59-6.16a8.82,8.82,0,0,0-5.35,2.75L448.54,54a10.92,10.92,0,0,1,6.76-3.32c6.55-.7,8.79,5.15,9.41,10.94l1.16,10.8a54.7,54.7,0,0,0,1.1,6.88ZM461.27,65c-4.26.34-9,1.87-8.38,7.48.37,3.4,2.22,4.83,4.21,4.62,2.79-.3,4.3-2.88,4.66-5.39a7.25,7.25,0,0,0,0-1.69Z" transform="translate(-0.02 0)"/><path class="cls-2" d="M470.64,57.61c-.32-3-.63-5.42-1-7.8l3.45-.37.73,4.75h.09c.77-2.86,3-5.81,6.5-6.19,3-.32,7.83,1.57,8.89,11.47l1.85,17.24-3.9.42-1.79-16.64c-.5-4.65-2.2-8.39-5.87-8-2.57.28-4.3,2.94-4.65,5.93a10,10,0,0,0,0,2.47l1.86,17.36-3.9.42Z" transform="translate(-0.02 0)"/><path class="cls-2" d="M498,38.38l.89,8.29,5.58-.6.43,4-5.58.6L501,66.24c.38,3.58,1.36,5.53,3.52,5.29a6.61,6.61,0,0,0,2.22-.6l.6,3.92A7.4,7.4,0,0,1,504,75.94a4.82,4.82,0,0,1-4.44-1.76c-1.27-1.43-1.95-4-2.31-7.35l-1.69-15.75-3.32.36-.43-4,3.32-.36-.74-6.92Z" transform="translate(-0.02 0)"/><path class="cls-2" d="M512.41,60.79c.85,7.09,4.53,9.65,8.43,9.23a11.09,11.09,0,0,0,5.77-2.13l1.07,3.69a13.66,13.66,0,0,1-6.93,2.56c-6.6.71-11.16-4.71-12.1-13.42s2.13-16,8.38-16.65c7-.75,9.75,7.34,10.32,12.65.12,1.07.12,1.92.13,2.46Zm11-5c-.31-3.35-1.93-8.42-6.32-8-3.94.42-5.14,5.5-5.06,9.17Z" transform="translate(-0.02 0)"/><path class="cls-2" d="M534.6,58.41c.85,7.09,4.53,9.65,8.42,9.23a11.09,11.09,0,0,0,5.77-2.13l1.07,3.69a13.66,13.66,0,0,1-6.93,2.56c-6.6.71-11.16-4.71-12.1-13.42s2.13-16,8.38-16.65c7-.75,9.74,7.34,10.31,12.65.12,1.07.12,1.92.13,2.46Zm11-5c-.31-3.35-1.93-8.42-6.32-8-3.94.42-5.14,5.5-5.06,9.17Z" transform="translate(-0.02 0)"/></svg>