<svg id="Layer_1" data-name="Layer 1" xmlns="http://www.w3.org/2000/svg" viewBox="0 0 595.24 154.87"><defs><style>.cls-1{fill:#4362ad;}.cls-2{fill:#fff;}</style></defs><title>Price Blue_1</title><path class="cls-1" d="M0,80.07v52.75s0,22.08,26.76,22.05l533.9-49.6s34.58-2.07,34.58-28.43V17.63S592-3.88,565.15.62L32.36,51.79S2.2,52.61,0,80.07Z" transform="translate(-0.02 0)"/><path class="cls-2" d="M76.85,78.18l4-.42,2.79,26.91c1.11,10.68-2.62,14.39-8,14.94a10.5,10.5,0,0,1-4.4-.51l.16-4.3a7.76,7.76,0,0,0,3.45.42c3.6-.37,5.51-2.68,4.69-10.56Z" transform="translate(-0.02 0)"/><path class="cls-2" d="M105.91,96.75,93.81,98l1.51,14.5,13.49-1.4.45,4.36-17.51,1.82L87.57,77.06l16.82-1.75.45,4.36L92,81l1.32,12.71,12.1-1.26Z" transform="translate(-0.02 0)"/><path class="cls-2" d="M128.64,94.39l-12.1,1.26,1.51,14.5,13.49-1.4.45,4.36-17.51,1.82L110.3,74.7,127.11,73l.45,4.36-12.8,1.33,1.32,12.71,12.1-1.26Z" transform="translate(-0.02 0)"/><path class="cls-2" d="M144.61,93.52l.4,3.88L133.6,98.58l-.4-3.88Z" transform="translate(-0.02 0)"/><path class="cls-2" d="M147.26,71.41a32.83,32.83,0,0,1,7.63-1.64c4.3-.45,7.17.28,9.35,2.35a11.67,11.67,0,0,1,3.24,7.38c.55,5.31-1.67,9.1-4.8,10.87l0,.18c2.51.83,4.24,3.54,5.42,7.64,1.6,5.5,2.74,9.31,3.55,10.79l-4.16.43c-.63-1.08-1.68-4.47-3.08-9.39-1.5-5.46-3.38-7.37-7-7.17l-3.79.39,1.81,17.43-4,.42Zm5.92,17.9,4.11-.43c4.3-.45,6.71-3.77,6.23-8.37-.54-5.19-3.69-7.16-7.94-6.78a13,13,0,0,0-3.92.89Z" transform="translate(-0.02 0)"/><path class="cls-2" d="M189,107.18l-.7-3.61h-.14a7.94,7.94,0,0,1-6.39,5c-4.53.47-7.27-3.41-7.7-7.58-.73-7,3.68-11.3,12.33-12.14l-.06-.6c-.25-2.39-1.2-6.63-5.78-6.16a9.43,9.43,0,0,0-5.6,2.75l-1.28-3.36a11.69,11.69,0,0,1,7.08-3.33c6.84-.71,9.13,5.14,9.73,10.93l1.12,10.8a52.4,52.4,0,0,0,1.09,6.88ZM186.9,92.5c-4.45.34-9.38,1.88-8.79,7.49.35,3.4,2.28,4.83,4.35,4.61,2.91-.3,4.51-2.88,4.9-5.4a7,7,0,0,0,.06-1.69Z" transform="translate(-0.02 0)"/><path class="cls-2" d="M196.73,85.09c-.31-3-.61-5.43-1-7.8l3.6-.37.73,4.75h.09a8.23,8.23,0,0,1,6.83-6.2c3.1-.32,8.15,1.57,9.18,11.47L218,104.17l-4.07.42-1.73-16.65c-.48-4.66-2.23-8.4-6.06-8-2.68.28-4.5,2.94-4.89,5.94a9.63,9.63,0,0,0,0,2.48l1.8,17.37-4.07.42Z" transform="translate(-0.02 0)"/><path class="cls-2" d="M227,87.44H227c.45-1.07,1.1-2.41,1.65-3.49l5.52-10.65,4.9-.51L231.7,85.55l11.61,16-4.94.51-9.15-13-1.77,3.2,1.13,10.86-4,.42-4.4-42.37,4-.42Z" transform="translate(-0.02 0)"/><path class="cls-2" d="M252,60.52a30.62,30.62,0,0,1,7.26-1.6c4-.42,6.7.21,8.85,2a9.56,9.56,0,0,1,3.32,6.83,9.59,9.59,0,0,1-4.35,9.38v.12c3.06.65,6.85,3.45,7.47,9.42A12.59,12.59,0,0,1,272.8,95c-1.9,2.79-5.29,4.35-10.37,4.88a36.91,36.91,0,0,1-6.29.17Zm5.73,16.05,3.65-.38a6.39,6.39,0,0,0,6-7.44C267,64,264,62.48,259.94,62.9a13.56,13.56,0,0,0-3.52.73Zm2,19.27a16.8,16.8,0,0,0,3.4-.11c4.16-.43,7.79-2.8,7.18-8.65-.57-5.49-4.46-7.38-8.84-6.92l-3.33.34Z" transform="translate(-0.02 0)"/><path class="cls-2" d="M299.94,80.82c1.11,10.68-4.14,15.93-9.54,16.49-6.05.63-11.31-4.62-12.26-13.75-1-9.67,3.3-15.85,9.49-16.49C294.06,66.41,299,72,299.94,80.82ZM282.24,83c.66,6.33,4,10.81,7.94,10.39s6.3-5.42,5.63-11.92c-.51-4.89-3-10.9-7.85-10.4S281.67,77.47,282.24,83Z" transform="translate(-0.02 0)"/><path class="cls-2" d="M325.3,78.18c1.11,10.68-4.14,15.93-9.54,16.49-6.05.63-11.31-4.62-12.26-13.75-1-9.67,3.3-15.84,9.5-16.49C319.42,63.78,324.39,69.35,325.3,78.18ZM307.6,80.33c.66,6.33,4,10.81,7.94,10.39s6.3-5.42,5.63-11.92c-.51-4.89-3-10.9-7.85-10.4S307,74.84,307.6,80.33Z" transform="translate(-0.02 0)"/><path class="cls-2" d="M330.84,87a9.11,9.11,0,0,0,5.58,1.53,4,4,0,0,0,3.9-4.75c-.26-2.51-1.56-3.76-4.71-4.88-4.21-1.43-6.4-4.1-6.76-7.56-.48-4.66,2-8.78,6.83-9.28a9.32,9.32,0,0,1,5.68,1.22l-.62,3.92A7.4,7.4,0,0,0,336,66a3.68,3.68,0,0,0-3.33,4.33c.25,2.39,1.7,3.32,4.76,4.45,4.08,1.51,6.33,3.81,6.77,8.1.53,5.07-2.15,9-7.46,9.52a10.6,10.6,0,0,1-6.49-1.32Z" transform="translate(-0.02 0)"/><path class="cls-2" d="M351.28,52.75l.86,8.29,5.82-.6.42,4-5.82.6,1.62,15.57c.37,3.58,1.37,5.53,3.63,5.29a7.14,7.14,0,0,0,2.32-.6l.59,3.92a8,8,0,0,1-3.53,1.09,5.09,5.09,0,0,1-4.62-1.75c-1.32-1.43-2-4-2.35-7.36l-1.64-15.75-3.47.36-.42-4,3.46-.36-.72-6.92Z" transform="translate(-0.02 0)"/><path class="cls-2" d="M366.12,75.15c.83,7.09,4.64,9.65,8.71,9.23a12,12,0,0,0,6-2.14L382,85.93a14.76,14.76,0,0,1-7.25,2.56c-6.88.71-11.6-4.71-12.51-13.42s2.35-16,8.87-16.67c7.3-.76,10.1,7.34,10.65,12.65.11,1.07.11,1.92.12,2.46Zm11.53-5c-.3-3.35-1.95-8.42-6.52-7.95-4.11.43-5.41,5.51-5.35,9.18Z" transform="translate(-0.02 0)"/><path class="cls-2" d="M386.34,66.6c-.35-3.4-.7-6.32-1.12-9l3.56-.37.73,5.66.18,0c.61-4,2.81-6.69,5.53-7a3.46,3.46,0,0,1,1.17.06l.51,5a4.81,4.81,0,0,0-1.4,0c-2.86.3-4.61,3.31-4.75,7.31a19.19,19.19,0,0,0,.07,2.47l1.6,15.4-4,.42Z" transform="translate(-0.02 0)"/><path class="cls-2" d="M435.06,80.29a16.19,16.19,0,0,1-8,2.76c-8.78.91-16.13-5.56-17.5-18.75C408.23,51.72,414,42.5,423.61,41.49a13.64,13.64,0,0,1,7.58,1l-.53,4.34a12,12,0,0,0-6.46-1c-7.3.76-11.52,7.29-10.43,17.85,1,9.85,6.07,15.72,13.65,14.93a13.09,13.09,0,0,0,6.39-2.35Z" transform="translate(-0.02 0)"/><path class="cls-2" d="M458.3,64.37c1.11,10.68-4.13,15.93-9.54,16.49-6.05.63-11.31-4.61-12.26-13.75-1-9.67,3.3-15.85,9.5-16.49C452.41,50,457.38,55.54,458.3,64.37Zm-17.71,2.14c.66,6.33,4,10.81,7.95,10.39s6.3-5.42,5.63-11.92c-.51-4.89-3-10.9-7.85-10.4S440,61,440.59,66.51Z" transform="translate(-0.02 0)"/><path class="cls-2" d="M482.84,68.7c.31,3,.63,5.6,1,7.86l-3.6.37-.72-4.69h-.09c-.82,2.44-2.86,5.73-6.83,6.14-3.51.37-8-1.71-9-11.85l-1.75-16.89,4.07-.42,1.66,16c.57,5.49,2.25,9.06,5.94,8.67,2.73-.28,4.37-2.93,4.86-5.33a9.79,9.79,0,0,0,.09-2.73l-1.84-17.72,4.07-.42Z" transform="translate(-0.02 0)"/><path class="cls-2" d="M488.34,56c-.35-3.4-.7-6.32-1.12-9l3.56-.37.73,5.66.18,0c.61-4,2.81-6.69,5.53-7a3.47,3.47,0,0,1,1.17.06l.51,5a4.83,4.83,0,0,0-1.4,0c-2.86.3-4.61,3.31-4.75,7.31a19,19,0,0,0,.07,2.47l1.6,15.4-4,.42Z" transform="translate(-0.02 0)"/><path class="cls-2" d="M504.39,69A9.11,9.11,0,0,0,510,70.52a4,4,0,0,0,3.9-4.75c-.26-2.51-1.56-3.76-4.71-4.88-4.21-1.43-6.4-4.1-6.76-7.56-.48-4.66,2-8.78,6.83-9.28a9.33,9.33,0,0,1,5.68,1.22l-.62,3.93a7.4,7.4,0,0,0-4.75-1.2,3.68,3.68,0,0,0-3.33,4.33c.25,2.39,1.7,3.32,4.76,4.45,4.08,1.51,6.33,3.81,6.77,8.1.53,5.07-2.15,9-7.46,9.52a10.6,10.6,0,0,1-6.49-1.32Z" transform="translate(-0.02 0)"/><path class="cls-2" d="M524.66,58.68c.83,7.09,4.64,9.65,8.71,9.23a12,12,0,0,0,6-2.14l1.08,3.69A14.74,14.74,0,0,1,533.24,72c-6.88.72-11.6-4.71-12.51-13.42s2.36-16,8.87-16.67c7.3-.76,10.1,7.33,10.65,12.65.11,1.07.11,1.92.12,2.46Zm11.53-5c-.3-3.35-1.95-8.42-6.52-7.95-4.11.43-5.41,5.51-5.35,9.18Z" transform="translate(-0.02 0)"/></svg>