<svg id="Layer_1" data-name="Layer 1" xmlns="http://www.w3.org/2000/svg" viewBox="0 0 162 162"><defs><style>.cls-1{fill:#666;}.cls-2{fill:#fff;}.cls-3{fill:none;stroke:#fff;stroke-linecap:round;stroke-linejoin:round;stroke-width:2px;}</style></defs><title>live zone_GRAY</title><circle class="cls-1" cx="81" cy="81" r="81"/><circle class="cls-2" cx="81" cy="68.32" r="32.17"/><path class="cls-2" d="M123,98.77C90.09,117.36,112.76,144,117.25,156c2.84,7.56,3.17,12,3.07,14.14a1.53,1.53,0,0,0,1.54,1.59h15V97A61,61,0,0,0,123,98.77Z" transform="translate(-53 -51)"/><path class="cls-2" d="M145,98.77c32.88,18.58,10.21,45.21,5.72,57.18-2.84,7.56-3.17,12-3.07,14.14a1.53,1.53,0,0,1-1.54,1.59h-15V97A61,61,0,0,1,145,98.77Z" transform="translate(-53 -51)"/><path class="cls-2" d="M122,181.71h24.09C144.71,196,121.4,194,122,181.71Z" transform="translate(-53 -51)"/><line class="cls-3" x1="69.56" y1="123.56" x2="92.44" y2="123.56"/><line class="cls-3" x1="69.56" y1="127.85" x2="92.44" y2="127.85"/><line class="cls-3" x1="80.08" y1="11.79" x2="80.08" y2="20.45"/><line class="cls-3" x1="18.87" y1="80.42" x2="27.52" y2="80.42"/><line class="cls-3" x1="134.49" y1="81.04" x2="143.15" y2="81.04"/><line class="cls-3" x1="37.45" y1="30.37" x2="43.57" y2="36.49"/><line class="cls-3" x1="130.13" y1="30.37" x2="124.01" y2="36.49"/><line class="cls-3" x1="36.21" y1="121.82" x2="42.33" y2="115.7"/><line class="cls-3" x1="125.19" y1="120.58" x2="119.06" y2="114.46"/></svg>