<?xml version="1.0" encoding="utf-8"?>
<!-- Generator: Adobe Illustrator 21.0.0, SVG Export Plug-In . SVG Version: 6.00 Build 0)  -->
<svg version="1.1" id="Layer_1" xmlns="http://www.w3.org/2000/svg" xmlns:xlink="http://www.w3.org/1999/xlink" x="0px" y="0px"
	 viewBox="0 0 597.1 239.1" style="enable-background:new 0 0 597.1 239.1;" xml:space="preserve">
<style type="text/css">
	.st0{fill:#72E21B;}
	.st1{fill:#F27221;}
	.st2{fill:#FFFFFF;}
</style>
<title>Orange Button</title>
<path class="st0" d="M68.3,35.8L512.5,0.2c40.9-3.3,76.6,27.2,79.9,68.1l4.4,55.1c3.3,40.9-27.2,76.6-68.1,79.9L84.6,238.9
	c-40.8,3.3-76.6-27.1-79.9-68c0,0,0-0.1,0-0.1l-4.4-55.1C-3,74.8,27.5,39,68.3,35.8z"/>
<g>
	<path class="st1" d="M0,0"/>
</g>
<path class="st2" d="M179.8,81.8c8-2.2,16.1-3.8,24.4-4.7c13.5-1.6,22.4-0.7,29.4,3c5.8,2.5,9.8,8,10.4,14.3
	c1,8.4-4.8,16.6-15.4,21.2v0.3c10.1,0.9,22.6,6.4,24.1,19.3c0.9,7.5-2,13.6-6.8,18.5c-6.6,6.4-18.1,10.4-35.1,12.4
	c-7,0.9-14,1.3-21,1.4L179.8,81.8z M197.4,115.9l12.2-1.4c14.2-1.7,21.9-8.9,20.9-17.3c-1.2-10.2-11-13.1-24.6-11.5
	c-4,0.4-8,1.1-11.8,2.2L197.4,115.9z M202.4,157.7c3.8,0,7.6-0.3,11.4-0.8c13.9-1.6,26.3-7.4,24.8-20.1
	c-1.4-11.9-14.2-15.4-28.9-13.6l-11.1,1.3L202.4,157.7z"/>
<path class="st2" d="M334,133.5c0.8,6.5,1.6,12.1,2.6,17l-12.1,1.5l-2-10.1h-0.3c-3,5.5-10.1,13-23.4,14.6
	c-11.8,1.4-26.5-2.4-29.1-24.4l-4.3-36.6l13.6-1.6l4.1,34.7c1.4,11.9,6.7,19.4,19.1,17.9c9.1-1.1,14.9-7.1,16.7-12.5
	c0.6-1.9,0.8-4,0.5-6L315,89.6l13.6-1.6L334,133.5z"/>
<path class="st2" d="M356.2,84.8l20.8,35c2.2,3.9,4.6,8.6,6.3,12.2h0.3c1-3.9,1.9-8.9,3.3-13.6l10.5-38.5l14.4-1.7l-15.2,47
	c-7.2,22.6-12.6,34.4-21.1,42.2c-4.5,4.3-9.9,7.5-15.8,9.3l-4.5-9.2c4.1-1.7,7.9-4,11.3-7c4.4-3.8,7.8-8.6,10-14
	c0.4-0.9,0.7-1.9,0.8-2.8c-0.2-1-0.7-2-1.3-2.9l-34.5-54.4L356.2,84.8z"/>
</svg>
