<?xml version="1.0" encoding="utf-8"?>
<!-- Generator: Adobe Illustrator 17.1.0, SVG Export Plug-In . SVG Version: 6.00 Build 0)  -->
<!DOCTYPE svg PUBLIC "-//W3C//DTD SVG 1.1//EN" "http://www.w3.org/Graphics/SVG/1.1/DTD/svg11.dtd">
<svg version="1.1" id="Layer_1" xmlns="http://www.w3.org/2000/svg" xmlns:xlink="http://www.w3.org/1999/xlink" x="0px" y="0px"
	 viewBox="0 0 550 600" enable-background="new 0 0 550 600" xml:space="preserve">
<path fill="none" d="M254.7,138.3"/>
<path fill="none" stroke="#DCD9ED" stroke-miterlimit="10" d="M345.9,372.3"/>
<path fill="#D2EDF3" d="M409.6,500H40.4C18.1,500,0,481.9,0,459.6V40.3C0,18.1,18.1,0,40.4,0h369.3C431.9,0,450,18.1,450,40.3v419.3
	C450,481.9,431.9,500,409.6,500z"/>
<g>
	<path fill="#F6F3F9" d="M81.7,207.7c-5.3,24.6-1.8,65,71.6,77.5c0,0,110.6,28.6,182-48.7c0,0,58.5-60.9,23.6-119.6
		c-8.5-14.4-23.3-24.2-40.2-27.1c-39.3-6.7-123.8-5.7-220.7,88.7C89.8,186.6,84.1,196.7,81.7,207.7z"/>
	<g>
		<polygon fill="none" stroke="#4758A7" stroke-width="0.7206" stroke-miterlimit="10" points="195.3,93.1 195.3,136.3 234.2,116.9 
			234.2,74.5 		"/>
		<path fill="#DCD9ED" d="M201.1,102.6l6.1,2.9c0,0-6.6,10.1,1.2,17.6c0,0-9.5-3.4-9.2-12.4c0-0.7,0.2-1.5,0.4-2.2L201.1,102.6z"/>
		<path fill="#DCD9ED" d="M201.5,103.1c0,0,4.3-11.2,13.7-13.3v-2.2c0,0,7.1-0.9,11.1,3.5l-7.8,14.9l-1.9,3.1L201.5,103.1z"/>
		<path fill="#FFFFFF" d="M219.7,92.8c0,0-7.1,2.4-12.6,12.7l10,2.2L219.7,92.8z"/>
		<path fill="#F8A897" d="M217.2,107.7l-1.7,14.1c0,0,13-3.8,14.5-20.7L217.2,107.7z"/>
		<path fill="#7E87C2" d="M217.8,107.4l8.2-15.6c0,0,5.1,3.8,4.4,8.9L217.8,107.4z"/>
		<linearGradient id="SVGID_1_" gradientUnits="userSpaceOnUse" x1="211.0043" y1="123.2462" x2="211.0043" y2="105.503">
			<stop  offset="0" style="stop-color:#FDCC99"/>
			<stop  offset="4.634720e-002" style="stop-color:#FDCA9A"/>
			<stop  offset="0.6839" style="stop-color:#F8A59B"/>
			<stop  offset="1" style="stop-color:#F6989A"/>
		</linearGradient>
		<path fill="url(#SVGID_1_)" d="M208.5,123.2l9-15.4l-10.3-2.4C207.2,105.5,200.4,115.6,208.5,123.2z"/>
	</g>
	<g>
		<polygon fill="#DCD9ED" points="112.7,209.4 98.4,201.2 98.4,130.7 112.7,138.3 172.1,165.1 172.1,177.9 		"/>
		<polygon fill="#8281BE" points="172,177.9 172.1,165.1 183.7,158.2 183.7,170.3 		"/>
		<polyline fill="#F4F6F8" points="98.4,130.7 111.3,127.5 124.6,133.3 112.8,138.3 		"/>
		<polyline fill="#F4F6F8" points="121.5,142.3 132.1,136.8 145.4,142.6 133.7,147.7 		"/>
		<polyline fill="#F4F6F8" points="140.9,150.9 151.6,145.5 164.7,151.5 153,156.5 		"/>
		<polyline fill="#F4F6F8" points="158.3,158.9 170.8,152.2 183.9,158.2 172.1,165.1 		"/>
		<polygon fill="#8281BE" points="112.7,209.4 112.8,138.3 124.6,133.3 124.6,203 		"/>
		<polygon fill="#8281BE" points="133.5,198.4 133.5,147.6 145.2,142.3 145.2,192.1 		"/>
		<polygon fill="#8281BE" points="152.9,188 153,156.5 164.7,151.5 164.7,181.8 		"/>
	</g>
	<g>
		<path fill="#2E2A2B" d="M201.6,306.1c0,0-0.4,3.8,4.1,2.5c0,0,4.6-2.5,5.4-4.3c0,0,0.6-2.3-2.7-2.6L201.6,306.1z"/>
		<path fill="#2E2A2B" d="M216.2,310.9c0,0-0.4,3.8,4.1,2.5c0,0,4.6-2.5,5.4-4.3c0,0,0.6-2.3-2.7-2.6L216.2,310.9z"/>
		<path fill="#EFBFAB" d="M206.4,218.5c0,0-0.2,1.3,0,1.5c0,0,0.7,4.8,5,5.4c0.1,0,0.2,0,0.4,0c0.9-0.1,4.9-0.4,5.2-2.1l-0.4-4.7
			c0,0,5.2-0.1,6-6.2c0,0,1.2-4.2,0.4-10.2l-7.3,3.5L206.4,218.5z"/>
		<path fill="#3B4048" d="M218.2,210.1c0,0-1.8-5.7-4.2,1.2c0,0-1.7,5.2-1.2,6.7c0,0-3.5,3.9-7.4-0.4c0,0-6.7-5.9-4.1-16.3
			c0,0,2.4-7.8,12.4-7.8c0,0,7.8,0.9,11.1,5.8c0,0,0.9,1.2-0.7,2.1c0,0-3.9,2.1-4.3,4.8c0,0-0.5,1.4,0.3,4.1
			C220.3,210.3,219.6,212,218.2,210.1z"/>
		<path fill="#7C89C4" d="M200.4,268.2l-0.8-20.2c0,0-1.7-1.9-1.7-3.8v-17.7c0,0,0.8-5.4,5.8-6.2s-0.4,0-0.4,0l3.5-0.4
			c0,0,0.2,1.5,0.7,2.7c0.7,1.3,2.1,2.2,3.6,2.3c1.9,0.1,5.2,0,5.8-1.4c0,0,7.2,3.4,8.5,8.2c0,0,5.2,9.5,6.1,15.6c0,0,1.8,8.6-6,3.2
			l-1,19.2l-5.6,2.9l-13.1,0.7l-4.7-3.5L200.4,268.2z"/>
		<linearGradient id="SVGID_2_" gradientUnits="userSpaceOnUse" x1="212.3142" y1="311.8131" x2="212.3142" y2="265.3122">
			<stop  offset="0" style="stop-color:#FDCC99"/>
			<stop  offset="7.540852e-002" style="stop-color:#FCC49A"/>
			<stop  offset="0.296" style="stop-color:#F9B19B"/>
			<stop  offset="0.5216" style="stop-color:#F7A39B"/>
			<stop  offset="0.7532" style="stop-color:#F69A9A"/>
			<stop  offset="1" style="stop-color:#F6989A"/>
		</linearGradient>
		<path fill="url(#SVGID_2_)" d="M201.2,305.1l-0.8-37.8c0,0,4.6,3.5,7.1,3.5v-4.5c0,0,0.4-1.9,1.7-0.6v5.8c0,0,12.4,0.8,15-4.2
			c0,0-0.6,34.7-2.3,39.6v0.1c0,0-1.6,7-5.3,4.1c-0.5-0.4-0.8-0.9-0.8-1.5c0-4.7-0.4-27.9-4-32.2c0,0-1.1,18.3-3.6,24.7
			c0,0-1.5,5.7-5.6,4.8C201.9,306.7,201.2,306,201.2,305.1z"/>
	</g>
	<g>
		<path fill="#788CC6" d="M238,250.2l82.6,44.3c1.1,0.6,2.4,0.6,3.5,0.1l25.2-13c2.4-1.2,2.5-4.6,0.1-5.9l-77-43.4L238.5,245
			C236.1,245.9,235.9,249,238,250.2z"/>
		<path fill="#CCCCCC" d="M240.8,238.5v11.1l78.2,41.7c1.7,0.9,3.8,0.9,5.6,0.1l25.6-13v-10.1L324.5,281c-1.8,0.9-3.9,0.8-5.6-0.1
			L240.8,238.5z"/>
		<path fill="none" stroke="#FFFFFF" stroke-width="1.4412" stroke-linecap="round" stroke-miterlimit="10" d="M242.2,243.6
			l76.6,43.3c1.8,1,4.1,1,5.9,0l24.3-13.5"/>
		<path fill="#F8FAFD" d="M240.8,238.5l79.9,43.3c1,0.6,2.3,0.6,3.3,0l26.2-13.7l-74.8-39.9L240.8,238.5z"/>
	</g>
	<g>
		<g>
			<path fill="#CECBE6" d="M258.3,91.7c0,0,0.6-7.1,7.1-9.6c0,0,6.2-0.7,8.6,1.7c2.4,2.3-0.3-0.3-0.3-0.3l54.8,30.6
				c0,0,6.4,4.5,6.4,10.2v141.1c0,0-1.2,10.1-14.2,8.1c0,0,5.3-1,6.8-4.9V130.4c0-1.5-0.3-3-0.8-4.4c-1-2.9-3.4-7.4-8.2-9.4
				c-0.9-0.4-1.8-0.8-2.6-1.3l-49.6-27.6C266.3,87.6,261.2,85.3,258.3,91.7z"/>
			<path fill="#FFFFFF" stroke="#CECBE6" stroke-width="2.1618" stroke-miterlimit="10" d="M323.8,272.9c-1.4,0.7-3.2,0.7-4.6-0.1
				l-57.1-31.5c0,0-3.8-1.8-3.8-13.4V93c0-1,0.3-2,0.9-2.8c1.3-1.8,4.1-4.2,8.3-1.9c6.1,3.4-1-0.9-1-0.9l53.8,30.2
				c0.2,0.1,0.4,0.3,0.7,0.4c1.4,1.1,6.4,5.6,6.4,12.4v137.3c0,0.8-0.2,1.7-0.7,2.4C326.2,270.9,325.2,272.1,323.8,272.9z"/>
			<path fill="#8283BF" d="M311.7,115.8l5.4,3c3.8,2.1,6.1,5.9,6.1,10.1v137.6c0,1.1-1.2,1.8-2.2,1.2l-52.4-26.9
				c-3.7-1.9-6.1-5.7-6.1-9.7V93.1c0-1.5,1.6-2.4,3-1.7l10.5,5.2l-0.1,2c-0.1,2.8,1.5,5.4,4.1,6.6l23.4,12.4c2.5,1.3,5.6,0.9,7.6-1
				L311.7,115.8z"/>
		</g>
		<g>
			<g>
				
					<line fill="#D2EDF3" stroke="#D2EDF3" stroke-width="2.1618" stroke-miterlimit="10" x1="318.8" y1="221.2" x2="318.8" y2="190.5"/>
				
					<line fill="#D2EDF3" stroke="#D2EDF3" stroke-width="2.1618" stroke-miterlimit="10" x1="313.4" y1="219.3" x2="313.4" y2="188.2"/>
				<line fill="#D2EDF3" stroke="#D2EDF3" stroke-width="2.1618" stroke-miterlimit="10" x1="309" y1="216.9" x2="309" y2="188.2"/>
				
					<line fill="#D2EDF3" stroke="#D2EDF3" stroke-width="2.1618" stroke-miterlimit="10" x1="304.6" y1="214.8" x2="304.6" y2="187"/>
				
					<line fill="#D2EDF3" stroke="#D2EDF3" stroke-width="2.1618" stroke-miterlimit="10" x1="299.9" y1="212.7" x2="299.9" y2="184.8"/>
				
					<line fill="#D2EDF3" stroke="#D2EDF3" stroke-width="2.1618" stroke-miterlimit="10" x1="294.8" y1="209.8" x2="294.8" y2="189.8"/>
				
					<line fill="#D2EDF3" stroke="#D2EDF3" stroke-width="2.1618" stroke-miterlimit="10" x1="290.2" y1="207.8" x2="290.2" y2="186.7"/>
				<line fill="#D2EDF3" stroke="#D2EDF3" stroke-width="2.1618" stroke-miterlimit="10" x1="286" y1="205.8" x2="286" y2="188.2"/>
				
					<line fill="#D2EDF3" stroke="#D2EDF3" stroke-width="2.1618" stroke-miterlimit="10" x1="281.1" y1="203.7" x2="281.1" y2="183.7"/>
				
					<line fill="#D2EDF3" stroke="#D2EDF3" stroke-width="2.1618" stroke-miterlimit="10" x1="276.5" y1="200.5" x2="276.5" y2="183.7"/>
				
					<line fill="#D2EDF3" stroke="#D2EDF3" stroke-width="2.1618" stroke-miterlimit="10" x1="271.6" y1="198.9" x2="271.6" y2="185.6"/>
				<line fill="#D2EDF3" stroke="#D2EDF3" stroke-width="2.1618" stroke-miterlimit="10" x1="267" y1="196.3" x2="267" y2="186.1"/>
			</g>
			
				<line fill="#9695C9" stroke="#9899CB" stroke-width="2.1618" stroke-miterlimit="10" x1="271.6" y1="185.6" x2="271.6" y2="179.4"/>
			<line fill="#9695C9" stroke="#9899CB" stroke-width="2.1618" stroke-miterlimit="10" x1="267" y1="186.3" x2="267" y2="180.1"/>
			
				<line fill="#9695C9" stroke="#9899CB" stroke-width="2.1618" stroke-miterlimit="10" x1="276.5" y1="183.8" x2="276.5" y2="177.6"/>
			
				<line fill="#9695C9" stroke="#9899CB" stroke-width="2.1618" stroke-miterlimit="10" x1="281.1" y1="183.7" x2="281.1" y2="177.5"/>
			<line fill="#9695C9" stroke="#9899CB" stroke-width="2.1618" stroke-miterlimit="10" x1="286" y1="188.3" x2="286" y2="182.1"/>
			
				<line fill="#9695C9" stroke="#9899CB" stroke-width="2.1618" stroke-miterlimit="10" x1="290.2" y1="186.8" x2="290.2" y2="180.6"/>
			
				<line fill="#9695C9" stroke="#9899CB" stroke-width="2.1618" stroke-miterlimit="10" x1="294.8" y1="189.8" x2="294.8" y2="183.6"/>
			
				<line fill="#9695C9" stroke="#9899CB" stroke-width="2.1618" stroke-miterlimit="10" x1="299.9" y1="185" x2="299.9" y2="178.8"/>
			
				<line fill="#9695C9" stroke="#9899CB" stroke-width="2.1618" stroke-miterlimit="10" x1="304.6" y1="187" x2="304.6" y2="180.8"/>
			<line fill="#9695C9" stroke="#9899CB" stroke-width="2.1618" stroke-miterlimit="10" x1="309" y1="188.3" x2="309" y2="182.1"/>
			
				<line fill="#9695C9" stroke="#9899CB" stroke-width="2.1618" stroke-miterlimit="10" x1="313.4" y1="188.2" x2="313.4" y2="182"/>
			
				<line fill="#9695C9" stroke="#9899CB" stroke-width="2.1618" stroke-miterlimit="10" x1="318.8" y1="190.5" x2="318.8" y2="184.3"/>
		</g>
		
			<line fill="#9695C9" stroke="#9899CB" stroke-width="2.1618" stroke-linecap="round" stroke-miterlimit="10" x1="267.8" y1="228.4" x2="319.9" y2="253.6"/>
		
			<line opacity="0.65" fill="#9695C9" stroke="#9899CB" stroke-width="2.1618" stroke-linecap="round" stroke-miterlimit="10" x1="267.8" y1="220.2" x2="306.7" y2="238.5"/>
		
			<line opacity="0.45" fill="#9695C9" stroke="#9899CB" stroke-width="2.1618" stroke-linecap="round" stroke-miterlimit="10" x1="267.8" y1="212.7" x2="297.2" y2="225.7"/>
		<g>
			<path fill="#F494BE" d="M304.1,136c4.7,10,3,20-3.8,22.3c-6.8,2.4-16.2-3.8-20.9-13.8c-4.7-10-3-20,3.8-22.3
				C290.1,119.9,299.4,126,304.1,136z"/>
			<path fill="#FFFFFF" d="M300.8,135.5c5.7,9.1,5.5,19-0.4,22.1c-6,3.1-15.4-1.7-21.2-10.7c-5.7-9.1-5.5-19,0.4-22.1
				S295,126.4,300.8,135.5z"/>
			<path fill="#F494BE" d="M297.7,136.4c4.3,7.2,4.2,15.1-0.3,17.6s-11.7-1.3-16-8.5c-4.3-7.2-4.2-15.1,0.3-17.6
				C286.3,125.3,293.4,129.2,297.7,136.4z"/>
		</g>
		
			<line fill="#F494BE" stroke="#9899CB" stroke-width="2.1618" stroke-linecap="round" stroke-miterlimit="10" x1="281.1" y1="102.4" x2="296.6" y2="110.7"/>
		
			<ellipse fill="#9899CB" stroke="#9899CB" stroke-width="0.7206" stroke-linecap="round" stroke-miterlimit="10" cx="301.3" cy="113" rx="0.7" ry="0.9"/>
	</g>
	<path fill="#FFFFFF" d="M284.1,143.6l12.1,7.2c0,0,0.9-7-7.2-10.5C288.9,140.2,284.8,139.1,284.1,143.6z"/>
	<path fill="#FFFFFF" d="M287.4,133l-2.6-1.4h5.3l5,4h-1.9c0,0,1,6-2.5,4.5C290.8,140.1,286.2,138.3,287.4,133z"/>
	
		<line fill="#F499C1" stroke="#F499C1" stroke-width="1.0809" stroke-linecap="round" stroke-miterlimit="10" x1="290.8" y1="140.9" x2="290.7" y2="144.7"/>
	
		<line fill="#FFFFFF" stroke="#FFFFFF" stroke-width="0.7206" stroke-miterlimit="10" x1="294.7" y1="135.6" x2="294.7" y2="138.9"/>
</g>
</svg>
