<svg id="Layer_1" data-name="Layer 1" xmlns="http://www.w3.org/2000/svg" xmlns:xlink="http://www.w3.org/1999/xlink" viewBox="0 0 30.18 29.62"><defs><style>.cls-1,.cls-3,.cls-5,.cls-6{fill:none;}.cls-2{clip-path:url(#clip-path);}.cls-3,.cls-5{stroke:#fff;}.cls-3{stroke-linecap:round;}.cls-3,.cls-5,.cls-6{stroke-miterlimit:10;}.cls-4{fill:#fff;}.cls-5{stroke-width:0.25px;}.cls-6{stroke:#000;stroke-width:0.6px;stroke-dasharray:0.6 0.6;}</style><clipPath id="clip-path" transform="translate(-0.91 -1.19)"><rect class="cls-1" x="0.25" y="0.25" width="31.5" height="31.5"/></clipPath></defs><title>Percentile icon_32 x 32_(White)</title><g class="cls-2"><g class="cls-2"><polyline class="cls-3" points="29.68 29.11 0.54 29.11 0.5 29.01 0.5 0.5"/><path class="cls-4" d="M28.73,29.94c-2.21-1.08-2.7-3.89-3.87-7.1C22.6,16.66,21.31,9.16,15.54,9.77h-.16c-4.35.47-5.68,6-7.5,11.32l-.11.28c-1.29,3.79-2.21,7.39-5.06,8.71l27.23.11c.11,0-1.11-.2-1.2-.27m-6.17.2-5.75,0V10.17h0c2.85.26,4.31,3.16,5.54,6.57l.21.54Z" transform="translate(-0.91 -1.19)"/><path class="cls-5" d="M28.73,29.94c-2.21-1.08-2.7-3.89-3.87-7.1C22.6,16.66,21.31,9.16,15.54,9.77h-.16c-4.35.47-5.68,6-7.5,11.32l-.11.28c-1.29,3.79-2.21,7.39-5.06,8.71l27.23.11C30,30.2,28.82,30,28.73,29.94Zm-6.17.2-5.75,0V10.17h0c2.85.26,4.31,3.16,5.54,6.57l.21.54Z" transform="translate(-0.91 -1.19)"/><line class="cls-6" x1="22.45" y1="29.08" x2="22.45" y2="19.42"/><line class="cls-6" x1="8.57" y1="29.08" x2="8.57" y2="19.15"/><line class="cls-6" x1="15.24" y1="29.04" x2="15.24" y2="9.44"/></g></g></svg>