<svg id="Layer_1" data-name="Layer 1" xmlns="http://www.w3.org/2000/svg" viewBox="0 0 15.23 15.28"><defs><style>.cls-1,.cls-2,.cls-5{fill:none;}.cls-1,.cls-2,.cls-3,.cls-5{stroke:#fff;stroke-miterlimit:10;}.cls-1{stroke-width:0.15px;}.cls-2{stroke-width:0.3px;}.cls-3,.cls-4{fill:#fff;}.cls-3{stroke-width:0.3px;}</style></defs><title>Performance Header</title><path class="cls-1" d="M3.25,2.86c.68-1.25,1.1-1.66,1.83-1.54.23,0,.74,0,1,.07.8.09,1.09-.87,1.86-1s.93.44,1.91.93c.93.15,1.31-.37,2,0s.39,1,1.22,1.76,1.12.39,1.47.93-.09,1,.2,2,.85,1,.88,1.71-.43.71-.68,1.66.2,1.45-.17,2.1-.91.39-1.64,1.15S12.65,14,12,14.4s-1.14-.11-2.25.27-1,.89-1.69.9-.78-.57-1.76-.83-1.42.26-2-.12-.3-.91-1-1.59-1.18-.38-1.61-1,0-1.09-.34-2.2C1,8.9.54,8.89.51,8.22s.56-.83.83-1.86S1.11,5,1.44,4.23,2.52,4.2,3.25,2.86Z" transform="translate(-0.44 -0.36)"/><circle class="cls-2" cx="8.3" cy="4.41" r="0.81"/><circle class="cls-2" cx="4.52" cy="7.37" r="0.72"/><circle class="cls-2" cx="6.78" cy="6.36" r="0.55"/><circle class="cls-2" cx="10.87" cy="6.75" r="0.55"/><line class="cls-3" x1="5.16" y1="7.13" x2="6.29" y2="6.63"/><line class="cls-3" x1="7.16" y1="5.86" x2="7.73" y2="5.02"/><line class="cls-3" x1="10.43" y1="6.39" x2="8.97" y2="4.93"/><rect class="cls-4" x="8.62" y="7.53" width="0.8" height="4.42"/><rect class="cls-4" x="6.81" y="9.44" width="0.8" height="2.49"/><rect class="cls-4" x="5.13" y="9.44" width="0.8" height="2.49"/><path class="cls-5" d="M3.28,2.95" transform="translate(-0.44 -0.36)"/><path class="cls-5" d="M2.93,9.34a1.62,1.62,0,0,0,.33.93" transform="translate(-0.44 -0.36)"/><path class="cls-5" d="M2.68,8a1.62,1.62,0,0,0,.14,1" transform="translate(-0.44 -0.36)"/><path class="cls-5" d="M2.8,6.48a1.62,1.62,0,0,0-.09,1" transform="translate(-0.44 -0.36)"/><path class="cls-5" d="M3.28,5.23a1.62,1.62,0,0,0-.36.92" transform="translate(-0.44 -0.36)"/><path class="cls-5" d="M4.22,4a1.62,1.62,0,0,0-.58.8" transform="translate(-0.44 -0.36)"/><path class="cls-5" d="M5.22,3.16a1.62,1.62,0,0,0-.76.62" transform="translate(-0.44 -0.36)"/><path class="cls-5" d="M6.5,2.52a1.62,1.62,0,0,0-.92.36" transform="translate(-0.44 -0.36)"/><path class="cls-5" d="M7.92,2.34a1.62,1.62,0,0,0-1,.08" transform="translate(-0.44 -0.36)"/><path class="cls-5" d="M9.27,2.48a1.62,1.62,0,0,0-1-.15" transform="translate(-0.44 -0.36)"/><path class="cls-5" d="M10.56,2.93a1.62,1.62,0,0,0-.91-.37" transform="translate(-0.44 -0.36)"/><path class="cls-5" d="M11.69,3.73a1.62,1.62,0,0,0-.76-.62" transform="translate(-0.44 -0.36)"/><path class="cls-5" d="M12.61,4.87A1.62,1.62,0,0,0,12,4.09" transform="translate(-0.44 -0.36)"/><path class="cls-5" d="M13.2,6.1a1.62,1.62,0,0,0-.39-.9" transform="translate(-0.44 -0.36)"/><path class="cls-5" d="M13.4,7.58a1.62,1.62,0,0,0-.08-1" transform="translate(-0.44 -0.36)"/><path class="cls-5" d="M13.28,8.88a1.62,1.62,0,0,0,.12-1" transform="translate(-0.44 -0.36)"/><path class="cls-5" d="M12.81,10.16a1.62,1.62,0,0,0,.41-.9" transform="translate(-0.44 -0.36)"/></svg>