<svg id="Layer_1" data-name="Layer 1" xmlns="http://www.w3.org/2000/svg" viewBox="0 0 200 64"><defs><style>.cls-1{fill:#fff;}.cls-2{fill:#fbcf09;}.cls-3{fill:#67bd67;}.cls-4{fill:#de4744;}.cls-5{fill:#39c5ef;}</style></defs><path d="M192.27,61.88H7.73A7.7,7.7,0,0,1,0,54.21V9.2A7.7,7.7,0,0,1,7.73,1.53H192.27A7.7,7.7,0,0,1,200,9.2v45A7.7,7.7,0,0,1,192.27,61.88Z"/><path class="cls-1" d="M65.55,38h2.79v6.28a8.94,8.94,0,0,1-2.86,1.49,11.23,11.23,0,0,1-3.36.52,9.08,9.08,0,0,1-4.37-1.05,7.81,7.81,0,0,1-3.06-2.89,8.37,8.37,0,0,1,0-8.33,7.78,7.78,0,0,1,3.07-2.89,9.21,9.21,0,0,1,4.41-1.05,9.62,9.62,0,0,1,3.63.66,7,7,0,0,1,2.74,1.91l-1.86,1.8a6,6,0,0,0-4.37-1.8,6.2,6.2,0,0,0-3,.7,5.11,5.11,0,0,0-2,2,5.61,5.61,0,0,0-.73,2.88A5.51,5.51,0,0,0,57.28,41a5.25,5.25,0,0,0,2,2,6,6,0,0,0,3,.72,6.45,6.45,0,0,0,3.27-.81Z"/><path class="cls-1" d="M74.07,45.41a5.78,5.78,0,0,1-2.3-2.19A6.19,6.19,0,0,1,71,40a6.11,6.11,0,0,1,.82-3.17,5.75,5.75,0,0,1,2.3-2.18,7.39,7.39,0,0,1,6.65,0A5.75,5.75,0,0,1,83,36.86,6.12,6.12,0,0,1,83.85,40,6.19,6.19,0,0,1,83,43.22a5.78,5.78,0,0,1-2.3,2.19,7.39,7.39,0,0,1-6.65,0ZM80,42.76a4.15,4.15,0,0,0,0-5.45,3.72,3.72,0,0,0-5.16,0,4.18,4.18,0,0,0,0,5.45,3.75,3.75,0,0,0,5.16,0Z"/><path class="cls-1" d="M88.7,45.41a5.78,5.78,0,0,1-2.3-2.19A6.19,6.19,0,0,1,85.57,40a6.12,6.12,0,0,1,.83-3.17,5.75,5.75,0,0,1,2.3-2.18,7.37,7.37,0,0,1,6.64,0,5.78,5.78,0,0,1,2.31,2.18A6.11,6.11,0,0,1,98.47,40a6.19,6.19,0,0,1-.82,3.19,5.8,5.8,0,0,1-2.31,2.19,7.37,7.37,0,0,1-6.64,0Zm5.9-2.65a4.15,4.15,0,0,0,0-5.45,3.48,3.48,0,0,0-2.59-1,3.44,3.44,0,0,0-2.57,1,4.18,4.18,0,0,0,0,5.45,3.43,3.43,0,0,0,2.57,1A3.47,3.47,0,0,0,94.6,42.76Z"/><path class="cls-1" d="M113.21,34v10.2q0,6.35-6.53,6.34a11.92,11.92,0,0,1-3.31-.44,6.93,6.93,0,0,1-2.58-1.27l1.27-2.11a6.08,6.08,0,0,0,2,1,7.73,7.73,0,0,0,2.46.4,4.09,4.09,0,0,0,2.93-.9,3.67,3.67,0,0,0,.93-2.75V43.9a4.54,4.54,0,0,1-1.77,1.19,6.1,6.1,0,0,1-2.29.41,6.59,6.59,0,0,1-3.12-.73,5.53,5.53,0,0,1-2.2-2.06,5.8,5.8,0,0,1-.8-3,5.7,5.7,0,0,1,.8-3,5.48,5.48,0,0,1,2.2-2,6.7,6.7,0,0,1,3.12-.72,6.32,6.32,0,0,1,2.39.43,4.35,4.35,0,0,1,1.8,1.3V34Zm-3.82,8.14a3.24,3.24,0,0,0,1-2.49,3.17,3.17,0,0,0-1-2.45,4.17,4.17,0,0,0-5.3,0,3.17,3.17,0,0,0-1,2.45,3.24,3.24,0,0,0,1,2.49,4.14,4.14,0,0,0,5.3,0Z"/><path class="cls-1" d="M116.93,29.34h2.84V46h-2.84Z"/><path class="cls-1" d="M134.82,40.93h-9.5A3.27,3.27,0,0,0,126.63,43a4.33,4.33,0,0,0,2.62.77,4.42,4.42,0,0,0,3.28-1.3l1.52,1.73A5,5,0,0,1,132,45.7a7.56,7.56,0,0,1-2.81.5,7.49,7.49,0,0,1-3.52-.79,5.78,5.78,0,0,1-2.35-2.19,6.19,6.19,0,0,1-.82-3.19,6.32,6.32,0,0,1,.8-3.16,5.62,5.62,0,0,1,2.24-2.19,6.48,6.48,0,0,1,3.22-.79,6.38,6.38,0,0,1,3.16.78,5.51,5.51,0,0,1,2.18,2.18,6.59,6.59,0,0,1,.78,3.25C134.87,40.29,134.85,40.57,134.82,40.93Zm-8.38-4a3.39,3.39,0,0,0-1.14,2.12h6.87A3.29,3.29,0,0,0,131.06,37a3.39,3.39,0,0,0-2.31-.81A3.47,3.47,0,0,0,126.44,36.94Z"/><path class="cls-1" d="M154.25,31a5.19,5.19,0,0,1,2.34,1.94,5.84,5.84,0,0,1,0,6,5.14,5.14,0,0,1-2.34,2,8.89,8.89,0,0,1-3.6.68h-3.58V46h-2.95V30.29h6.53A8.9,8.9,0,0,1,154.25,31Zm-.81,7.25a3.19,3.19,0,0,0,0-4.64,4.55,4.55,0,0,0-2.93-.81h-3.44V39h3.44A4.55,4.55,0,0,0,153.44,38.21Z"/><path class="cls-1" d="M160.31,29.34h2.84V46h-2.84Z"/><path class="cls-1" d="M175.58,35.16A4.89,4.89,0,0,1,177,39v7h-2.67V44.58a3.37,3.37,0,0,1-1.49,1.2,5.79,5.79,0,0,1-2.32.42,5.92,5.92,0,0,1-2.39-.46,3.67,3.67,0,0,1-1.57-1.29A3.21,3.21,0,0,1,166,42.6a3.17,3.17,0,0,1,1.22-2.6A6.07,6.07,0,0,1,171,39h3.13v-.18a2.49,2.49,0,0,0-.76-1.94,3.32,3.32,0,0,0-2.26-.67,6.91,6.91,0,0,0-2,.31,5,5,0,0,0-1.66.88l-1.11-2a6.7,6.7,0,0,1,2.29-1.11,10.4,10.4,0,0,1,2.83-.38A5.89,5.89,0,0,1,175.58,35.16ZM173,43.67a2.71,2.71,0,0,0,1.17-1.39V40.89h-2.93c-1.63,0-2.45.53-2.45,1.6a1.42,1.42,0,0,0,.62,1.21,2.8,2.8,0,0,0,1.7.45A3.69,3.69,0,0,0,173,43.67Z"/><path class="cls-1" d="M191.74,34l-5.67,13a6.08,6.08,0,0,1-1.92,2.75,4.63,4.63,0,0,1-2.75.8,5.54,5.54,0,0,1-1.79-.29,3.84,3.84,0,0,1-1.45-.81l1.13-2.07a3.08,3.08,0,0,0,1,.61,2.94,2.94,0,0,0,1.12.22,1.88,1.88,0,0,0,1.23-.38,3.26,3.26,0,0,0,.9-1.28l.2-.48L178.43,34h2.95l3.81,8.89L189,34Z"/><path class="cls-2" d="M48.12,30.94,40.5,26.57l-6.26,6L40,38.08l8.16-4.68a1.41,1.41,0,0,0,0-2.46Z"/><polygon class="cls-3" points="39.21 25.83 30.82 21.03 12.45 11.68 33.2 31.59 39.21 25.83"/><polygon class="cls-4" points="12.75 53.19 30.86 43.3 38.67 38.82 33.2 33.58 12.75 53.19"/><polygon class="cls-5" points="11.22 12.49 11.2 52.7 32.17 32.58 11.22 12.49"/><path class="cls-1" d="M65.8,10.94a14.83,14.83,0,0,1,2.67-.22,4.43,4.43,0,0,1,3.12.88,2.71,2.71,0,0,1,.84,2.06,2.85,2.85,0,0,1-2,2.77v.05A2.7,2.7,0,0,1,72,18.66a16.83,16.83,0,0,0,.83,3H71.38a13.59,13.59,0,0,1-.72-2.59c-.32-1.5-.9-2.06-2.16-2.11H67.19v4.7H65.8Zm1.39,4.94h1.42c1.49,0,2.43-.82,2.43-2.06,0-1.4-1-2-2.48-2a5.84,5.84,0,0,0-1.37.13Z"/><path class="cls-1" d="M80,16.56H75.8v3.9h4.67v1.18H74.4V10.8h5.83V12H75.8V15.4H80Z"/><path class="cls-1" d="M84.79,21.64,81.27,10.8h1.5l1.68,5.34c.46,1.46.87,2.78,1.15,4.05h0c.31-1.25.76-2.62,1.24-4l1.82-5.35h1.49L86.32,21.64Z"/><path class="cls-1" d="M92.74,10.8V21.64H91.35V10.8Z"/><path class="cls-1" d="M100.75,16.56H96.56v3.9h4.67v1.18H95.17V10.8H101V12H96.56V15.4h4.19Z"/><path class="cls-1" d="M105,21.64,102.21,10.8h1.47L105,16.28c.32,1.35.61,2.7.8,3.75h0c.18-1.08.52-2.36.88-3.76l1.44-5.47h1.46l1.31,5.5c.3,1.28.59,2.57.75,3.71h0c.23-1.19.53-2.39.87-3.74L114,10.8h1.42l-3.05,10.84h-1.46L109.5,16a32.75,32.75,0,0,1-.7-3.54h0a33.38,33.38,0,0,1-.83,3.54l-1.54,5.65Z"/><path class="cls-1" d="M121.51,10.8v6.42c0,2.42,1.07,3.45,2.51,3.45,1.6,0,2.62-1.06,2.62-3.45V10.8h1.41v6.32c0,3.33-1.75,4.7-4.08,4.7s-3.87-1.28-3.87-4.64V10.8Z"/><path class="cls-1" d="M130.27,19.93a4.91,4.91,0,0,0,2.5.71c1.42,0,2.25-.76,2.25-1.85s-.57-1.59-2-2.15c-1.76-.63-2.84-1.55-2.84-3.08,0-1.69,1.39-2.94,3.48-2.94a4.93,4.93,0,0,1,2.39.53l-.39,1.14a4.31,4.31,0,0,0-2-.51c-1.47,0-2,.88-2,1.62,0,1,.66,1.51,2.15,2.09,1.82.71,2.75,1.6,2.75,3.19s-1.23,3.12-3.78,3.12a5.62,5.62,0,0,1-2.75-.69Z"/><path class="cls-1" d="M151,16.1c0,3.74-2.26,5.72-5,5.72s-4.84-2.22-4.84-5.51,2.12-5.69,5-5.69S151,12.89,151,16.1Zm-8.36.18c0,2.32,1.24,4.39,3.43,4.39s3.46-2,3.46-4.5c0-2.16-1.12-4.41-3.44-4.41S142.6,13.9,142.6,16.28Z"/><path class="cls-1" d="M152.77,21.64V10.8h1.52l3.45,5.48a31.26,31.26,0,0,1,1.94,3.52h0c-.13-1.45-.16-2.77-.16-4.46V10.8h1.31V21.64h-1.4L156,16.14a34.82,34.82,0,0,1-2-3.62H154c.08,1.37.11,2.68.11,4.48v4.63Z"/></svg>