<svg id="Layer_1" data-name="Layer 1" xmlns="http://www.w3.org/2000/svg" viewBox="0 0 64 64"><defs><style>.cls-1{fill:#ef8a1b;}.cls-2{fill:#f3d55b;}.cls-3{fill:#bc0202;}.cls-4{fill:#9e5615;}.cls-5{fill:#f29c1f;}.cls-6{fill:#f29f5c;}.cls-7{fill:#ecf0f1;}.cls-8{fill:#f9eab0;}.cls-9{fill:#fff800;}.cls-10{fill:#ff1e00;}</style></defs><path id="Shape" class="cls-1" d="M43.57,64H34c-.7.07-1.31-.69-1.37-1.7V30.1H44.94V62.3C44.89,63.31,44.28,64.07,43.57,64Z" transform="translate(0 0)"/><path id="Shape-2" data-name="Shape" class="cls-2" d="M38.22,59.15c-.62,0-1.12-.72-1.12-1.61V31.72c0-.9.5-1.62,1.12-1.62s1.12.72,1.12,1.62V57.54C39.34,58.43,38.84,59.15,38.22,59.15Z" transform="translate(0 0)"/><path id="Shape-3" data-name="Shape" class="cls-3" d="M31.49,50.55H62.88c.62,0,1.12-.8,1.12-1.8V19.86C64,8.89,58.48,0,51.67,0H20.28Z" transform="translate(0 0)"/><path id="Shape-4" data-name="Shape" class="cls-4" d="M8,18.06C8.58,7.83,13.91,0,20.28,0c6.81,0,12.33,8.89,12.33,19.86V48.75c0,1-.5,1.8-1.12,1.8h-5.6Z" transform="translate(0 0)"/><path id="Shape-5" data-name="Shape" class="cls-1" d="M31.19,29.35a1.17,1.17,0,0,0-.42-.62l-4.92-3.56H5.39L.46,28.73a1.17,1.17,0,0,0-.42.62,1.65,1.65,0,0,0,0,.31v20a1.08,1.08,0,0,0,.22.67,1,1,0,0,0,.86.46H30.16a1,1,0,0,0,.86-.46,1.14,1.14,0,0,0,.22-.67v-20A1.67,1.67,0,0,0,31.19,29.35Z" transform="translate(0 0)"/><path id="Shape-6" data-name="Shape" class="cls-5" d="M31.19,29.35,25.85,33.6V25.17l4.92,3.56a1.17,1.17,0,0,1,.42.62Z" transform="translate(0 0)"/><path id="Shape-7" data-name="Shape" class="cls-6" d="M31,50.33a1,1,0,0,1-.86.46H1.08a1,1,0,0,1-.86-.46L13.31,39.91,15,38.59a1,1,0,0,1,1.3,0l1.66,1.32Z" transform="translate(0 0)"/><path id="Shape-8" data-name="Shape" class="cls-7" d="M25.85,19.29v14a.74.74,0,0,1-.27.57l-7.24,5.76a.66.66,0,0,1-.82,0l-1.25-1a1,1,0,0,0-1.3,0l-1.25,1a.66.66,0,0,1-.82,0L5.66,33.82a.74.74,0,0,1-.27-.57v-14A1.25,1.25,0,0,1,6.61,18h18A1.26,1.26,0,0,1,25.85,19.29Z" transform="translate(0 0)"/><path id="Shape-9" data-name="Shape" class="cls-2" d="M29.08,45.7a.55.55,0,0,1-.54-.56V35a.54.54,0,1,1,1.08,0V45.14A.55.55,0,0,1,29.08,45.7Z" transform="translate(0 0)"/><path id="Shape-10" data-name="Shape" class="cls-8" d="M23.7,49.09H7.54a.57.57,0,0,1,0-1.13H23.7a.57.57,0,0,1,0,1.13Z" transform="translate(0 0)"/><ellipse id="Oval" class="cls-4" cx="15.62" cy="28.18" rx="7" ry="7.35"/><ellipse id="Oval-2" data-name="Oval" class="cls-9" cx="15.62" cy="28.18" rx="4.85" ry="5.09"/><path id="Shape-11" data-name="Shape" class="cls-5" d="M5.39,25.17V33.6L0,29.35a1.17,1.17,0,0,1,.42-.62Z" transform="translate(0 0)"/><path id="Shape-12" data-name="Shape" class="cls-2" d="M2.15,45.7a.55.55,0,0,1-.53-.56V35a.55.55,0,0,1,.53-.56.55.55,0,0,1,.54.56V45.14A.55.55,0,0,1,2.15,45.7Z" transform="translate(0 0)"/><rect class="cls-4" x="42.14" y="23.56" width="16" height="9.25" rx="1.74"/><path class="cls-10" d="M16.18,29.89H14.84v-.76a1.74,1.74,0,0,1,.12-.74,2.33,2.33,0,0,1,.49-.63l.86-.91a1.15,1.15,0,0,0,.27-.77,1.12,1.12,0,0,0-.28-.77,1,1,0,0,0-.73-.3,1,1,0,0,0-.75.29.85.85,0,0,0-.24.35.72.72,0,0,1-.63.43h0a.73.73,0,0,1-.6-1.09,2.44,2.44,0,0,1,.51-.65,2.55,2.55,0,0,1,1.75-.62,2.44,2.44,0,0,1,1.71.6A2.16,2.16,0,0,1,18,26a2,2,0,0,1-.39,1.25c-.15.19-.26.34-.34.42s-.18.19-.32.32l-.33.33-.22.25a1.24,1.24,0,0,0-.21.77v.55Z" transform="translate(0 0)"/><path class="cls-10" d="M15.53,32.65a.89.89,0,0,1-.64-.27.85.85,0,0,1-.27-.64,1,1,0,0,1,.26-.66.89.89,0,0,1,.64-.27.92.92,0,0,1,.91.92.92.92,0,0,1-.26.65A.87.87,0,0,1,15.53,32.65Z" transform="translate(0 0)"/></svg>