<svg id="Layer_1" data-name="Layer 1" xmlns="http://www.w3.org/2000/svg" viewBox="0 0 12.32 10.59"><defs><style>.cls-1{fill:none;stroke:#d32d2d;stroke-miterlimit:10;stroke-width:0.75px;}</style></defs><title>posted_color-brown</title><polyline class="cls-1" points="5.75 7.08 0.38 7.08 0.38 0.38 9.66 0.38 9.66 4.84 9.66 4.94"/><polyline class="cls-1" points="0.38 0.38 2.85 3.75 7.03 3.75 9.65 0.38"/><line class="cls-1" x1="2.41" y1="4.45" x2="1.13" y2="6.14"/><path class="cls-1" d="M9.07,10.52C7.37,8.79,5.88,8,5.95,6.67A1.7,1.7,0,0,1,9.07,6c.63-1.1,2.74-1.23,3.07.41a1.76,1.76,0,0,1-.36,1.47c-1,1.17-2,1.49-3.23,2.65" transform="translate(-0.22 -0.19)"/><path class="cls-1" d="M5.94,7.19" transform="translate(-0.22 -0.19)"/></svg>