<?xml version="1.0" encoding="utf-8"?>
<!-- Generator: Adobe Illustrator 17.1.0, SVG Export Plug-In . SVG Version: 6.00 Build 0)  -->
<!DOCTYPE svg PUBLIC "-//W3C//DTD SVG 1.1//EN" "http://www.w3.org/Graphics/SVG/1.1/DTD/svg11.dtd">
<svg version="1.1" id="Layer_1" xmlns="http://www.w3.org/2000/svg" xmlns:xlink="http://www.w3.org/1999/xlink" x="0px" y="0px"
	 viewBox="350 150 350 300" enable-background="new 350 150 350 300" xml:space="preserve">
<g>
	<path fill="#E1EBF8" d="M286.6,439.4L85.4,327.9c-19.6-10.9-26.3-35-15-53.8L130,175c11.3-18.8,36.4-25.3,56-14.4l201.2,111.5
		c19.6,10.9,26.3,35,15,53.8L342.6,425C331.3,443.8,306.2,450.3,286.6,439.4z"/>
	<path fill="#9DC2E7" d="M322.5,422.2L98,364.5c-21.9-5.6-34.9-27.2-29-48.2l30.9-110.6c5.9-21,28.4-33.5,50.3-27.9l224.4,57.7
		c21.9,5.6,34.9,27.2,29,48.2l-30.9,110.6C366.9,415.3,344.4,427.8,322.5,422.2z"/>
	
		<linearGradient id="SVGID_1_" gradientUnits="userSpaceOnUse" x1="72.8959" y1="386.0481" x2="347.1827" y2="513.9503" gradientTransform="matrix(1.125 0 0 -1.125 0 806.25)">
		<stop  offset="0" style="stop-color:#3668B2"/>
		<stop  offset="0.3232" style="stop-color:#4D79BD"/>
		<stop  offset="1" style="stop-color:#7FADDD"/>
	</linearGradient>
	<path fill="url(#SVGID_1_)" d="M352.5,396.6H120.1c-22.7,0-41-17.6-41-39.4V242.8c0-21.8,18.4-39.4,41-39.4h232.4
		c22.7,0,41,17.6,41,39.4v114.5C393.5,379,375.1,396.6,352.5,396.6z"/>
</g>
</svg>
