<?xml version="1.0" encoding="UTF-8"?>
<!DOCTYPE svg PUBLIC "-//W3C//DTD SVG 1.1//EN" "http://www.w3.org/Graphics/SVG/1.1/DTD/svg11.dtd">
<!-- Creator: CorelDRAW X8 -->
<svg xmlns="http://www.w3.org/2000/svg" xml:space="preserve" width="210mm" height="54.6363mm" version="1.1" style="shape-rendering:geometricPrecision; text-rendering:geometricPrecision; image-rendering:optimizeQuality; fill-rule:evenodd; clip-rule:evenodd"
viewBox="0 0 21000 5464"
 xmlns:xlink="http://www.w3.org/1999/xlink">
 <defs>
  <style type="text/css">
   <![CDATA[
    .fil0 {fill:#F37321}
    .fil1 {fill:white}
   ]]>
  </style>
 </defs>
 <g id="Layer_x0020_1">
  <metadata id="CorelCorpID_0Corel-Layer"/>
  <path class="fil0" d="M0 2825l0 1861c0,0 0,779 944,778l18836 -1750c0,0 1220,-73 1220,-1003l0 -2089c0,0 -116,-759 -1062,-600l-18797 1805c0,0 -1064,29 -1141,998z"/>
  <g id="_2214110115600">
   <path class="fil1" d="M4182 2418l110 -12 62 567c24,225 -79,306 -225,322 -40,5 -90,2 -119,-7l7 -91c23,6 57,10 93,6 98,-11 151,-61 133,-227l-61 -558z"/>
   <polygon class="fil1" points="4962,2788 4632,2824 4666,3129 5033,3089 5043,3181 4567,3233 4474,2386 4932,2336 4942,2428 4594,2466 4623,2734 4952,2698 "/>
   <polygon class="fil1" points="5580,2721 5250,2757 5284,3062 5651,3022 5661,3114 5185,3166 5092,2319 5550,2269 5560,2361 5212,2399 5241,2667 5570,2631 "/>
   <polygon class="fil1" points="6014,2690 6023,2771 5712,2806 5703,2724 "/>
   <path class="fil1" d="M6918 3102c-117,-18 -233,-39 -335,-63 -18,-4 -37,-8 -53,-7 -202,15 -391,-115 -420,-388 -30,-271 117,-464 345,-489 231,-25 399,137 427,387 24,217 -61,368 -197,432l1 5c86,12 180,23 253,28l-21 95zm-150 -542c-19,-169 -126,-335 -306,-315 -184,20 -256,201 -235,384 19,180 136,331 307,312 174,-18 255,-187 234,-381z"/>
   <path class="fil1" d="M7563 2738c7,63 14,118 23,166l-98 10 -17 -98 -3 0c-23,52 -80,123 -188,135 -96,11 -216,-30 -239,-243l-39 -356 111 -12 36 337c13,115 57,189 157,179 74,-9 120,-66 135,-117 4,-17 6,-37 3,-57l-41 -374 111 -12 49 442z"/>
   <path class="fil1" d="M8100 2847l-17 -76 -3 1c-29,51 -90,101 -177,111 -123,13 -195,-67 -205,-155 -16,-147 105,-242 341,-266l-1 -12c-6,-51 -29,-139 -154,-126 -56,6 -113,30 -153,63l-33 -71c47,-37 117,-67 194,-75 186,-21 245,101 258,223l25 228c6,52 14,104 26,145l-101 10zm-49 -309c-121,11 -256,47 -243,165 7,72 59,101 116,94 79,-8 123,-64 135,-117 3,-12 4,-25 3,-36l-11 -106z"/>
   <polygon class="fil1" points="8272,1925 8382,1913 8480,2806 8369,2818 "/>
   <path class="fil1" d="M8704 1993c6,37 -19,71 -63,76 -39,4 -70,-23 -74,-61 -5,-39 21,-72 61,-76 42,-5 72,22 76,61zm-38 792l-66 -608 110 -12 67 608 -111 12z"/>
   <path class="fil1" d="M8971 2752l-57 -524 -86 9 -9 -84 85 -9 -3 -33c-18,-161 65,-275 236,-294 56,-6 125,4 158,24l-22 87c-28,-15 -77,-27 -132,-20 -117,12 -142,98 -131,194l3 31 353 -39 67 608 -110 12 -57 -524 -244 27 57 524 -108 11z"/>
   <path class="fil1" d="M9647 2390c19,150 122,201 232,189 79,-9 126,-28 165,-50l28 77c-38,21 -102,49 -199,60 -187,20 -313,-90 -332,-274 -20,-184 72,-340 249,-359 199,-22 271,147 283,259 2,23 2,40 2,52l-428 46zm316 -114c-6,-71 -48,-176 -173,-163 -112,12 -149,121 -149,198l322 -35z"/>
   <path class="fil1" d="M10201 2194c-7,-72 -16,-133 -26,-189l97 -11 17 119 5 -1c19,-84 80,-143 154,-151 12,-2 21,-2 31,0l12 105c-12,-2 -23,-2 -38,0 -78,8 -127,74 -133,158 -1,15 -1,34 1,52l35 324 -109 12 -46 -418z"/>
   <path class="fil1" d="M11568 2430c-47,23 -141,63 -255,75 -129,14 -237,-7 -329,-77 -80,-62 -138,-170 -153,-302 -26,-253 127,-457 411,-488 98,-10 177,3 215,16l-16 92c-47,-15 -106,-25 -191,-15 -207,22 -327,165 -304,378 24,214 167,327 364,305 72,-7 120,-23 144,-38l-28 -253 -172 19 -10 -88 280 -30 44 406z"/>
   <path class="fil1" d="M12227 2229c6,62 13,118 23,165l-98 11 -17 -99 -3 0c-23,53 -81,124 -189,136 -95,10 -215,-30 -238,-244l-40 -356 111 -12 37 337c12,116 56,190 156,179 74,-8 120,-65 135,-116 4,-17 6,-37 4,-58l-41 -373 110 -12 50 442z"/>
   <path class="fil1" d="M12764 2337l-17 -76 -4 1c-28,51 -89,101 -176,111 -123,13 -195,-67 -205,-154 -16,-148 105,-243 341,-267l-1 -12c-6,-51 -29,-139 -154,-126 -56,6 -114,30 -153,63l-33 -71c47,-37 117,-67 194,-75 186,-21 245,101 258,223l25 228c6,52 14,104 26,145l-101 10zm-50 -308c-120,11 -255,47 -242,165 7,71 59,100 115,94 79,-9 124,-64 136,-118 3,-12 4,-25 3,-36l-12 -105z"/>
   <path class="fil1" d="M12987 1890c-7,-72 -15,-133 -26,-189l97 -11 17 119 5 -1c19,-84 80,-143 154,-151 13,-2 21,-2 31,0l12 105c-12,-2 -23,-2 -38,0 -78,8 -127,74 -133,158 0,15 -1,34 1,52l35 324 -109 12 -46 -418z"/>
   <path class="fil1" d="M13775 2227l-17 -75 -4 0c-29,51 -90,101 -176,111 -124,13 -196,-67 -206,-154 -16,-148 106,-242 342,-267l-2 -12c-5,-51 -29,-139 -153,-126 -57,6 -114,30 -154,63l-33 -71c47,-37 118,-67 194,-75 186,-21 245,101 259,223l24 228c6,52 14,104 26,145l-100 10zm-51 -309c-120,11 -255,47 -242,165 7,72 59,101 115,94 79,-8 124,-64 136,-118 3,-12 4,-24 3,-36l-12 -105z"/>
   <path class="fil1" d="M13995 1754c-7,-63 -14,-114 -23,-164l98 -11 17 100 3 0c24,-61 87,-125 188,-137 84,-9 220,27 243,236l40 363 -111 12 -38 -350c-11,-98 -56,-176 -161,-165 -72,9 -124,66 -136,130 -3,14 -3,33 -1,52l39 366 -110 12 -48 -444z"/>
   <path class="fil1" d="M14783 1325l19 174 158 -17 10 84 -158 17 36 328c8,76 34,116 96,110 29,-3 50,-10 63,-15l14 82c-20,12 -54,21 -97,26 -51,6 -94,-6 -124,-33 -35,-29 -53,-82 -60,-154l-36 -332 -94 10 -10 -84 94 -10 -15 -146 104 -40z"/>
   <path class="fil1" d="M15175 1787c19,149 121,200 232,188 79,-9 125,-28 164,-50l28 77c-38,23 -101,50 -199,60 -187,21 -313,-90 -332,-273 -20,-183 72,-340 249,-359 199,-22 271,147 283,259 2,23 2,40 2,52l-427 46zm315 -115c-6,-70 -49,-176 -173,-163 -112,12 -150,121 -150,199l323 -36z"/>
   <path class="fil1" d="M15804 1718c19,149 121,200 232,188 79,-9 125,-27 165,-50l27 78c-37,21 -102,49 -198,60 -187,20 -313,-91 -333,-275 -20,-183 72,-340 250,-359 198,-21 270,148 282,259 3,23 2,41 2,52l-427 47zm316 -114c-6,-71 -49,-177 -173,-163 -112,12 -150,120 -150,198l323 -35z"/>
   <path class="fil1" d="M7636 3381c-59,100 -95,228 -77,398 19,167 84,282 161,370l-65 6c-68,-71 -145,-185 -166,-369 -19,-185 31,-313 82,-398l65 -7z"/>
   <path class="fil1" d="M8228 3956c-28,19 -87,40 -164,49 -179,20 -326,-79 -349,-287 -22,-199 99,-348 295,-370 79,-8 131,4 154,12l-13 69c-33,-11 -78,-18 -131,-12 -149,16 -237,122 -219,289 17,155 117,245 272,228 50,-5 99,-21 130,-41l25 63z"/>
   <path class="fil1" d="M8293 3653c-5,-54 -12,-100 -19,-142l73 -8 13 89 3 -1c14,-63 60,-107 116,-114 9,-1 16,0 24,0l8 79c-9,-1 -17,-2 -28,0 -58,6 -95,55 -100,119 -1,11 -1,24 1,39l26 243 -82 9 -35 -313z"/>
   <path class="fil1" d="M8883 3906l-12 -57 -3 0c-21,39 -67,76 -132,83 -92,10 -146,-50 -153,-115 -12,-110 79,-182 256,-200l-2 -9c-3,-38 -22,-105 -115,-95 -42,5 -85,23 -115,47l-24 -52c34,-29 87,-51 145,-57 140,-15 184,76 194,167l18 171c5,40 11,78 20,109l-77 8zm-37 -231c-91,8 -192,35 -182,123 5,54 44,76 87,71 59,-6 93,-48 101,-88 2,-9 3,-19 2,-27l-8 -79z"/>
   <path class="fil1" d="M9064 3800c27,14 72,26 113,21 60,-6 86,-40 82,-78 -5,-39 -30,-58 -94,-74 -86,-20 -129,-61 -135,-116 -8,-73 45,-140 143,-151 46,-5 88,4 115,16l-14 63c-19,-10 -54,-21 -96,-17 -49,5 -73,37 -70,71 5,38 34,52 96,67 82,22 127,57 134,125 9,80 -47,143 -155,155 -50,6 -97,-1 -131,-17l12 -65z"/>
   <path class="fil1" d="M9385 3174l83 -9 31 285 2 0c11,-26 29,-48 53,-66 23,-17 51,-29 82,-32 61,-7 163,20 181,177l30 271 -83 9 -29 -262c-8,-73 -42,-133 -120,-124 -54,6 -93,48 -103,95 -4,12 -3,24 -1,40l30 275 -82 9 -74 -668z"/>
   <path class="fil1" d="M10625 3695c-28,18 -87,40 -164,48 -179,20 -326,-79 -349,-286 -22,-200 99,-349 295,-370 79,-9 131,2 154,12l-12 69c-33,-12 -79,-19 -131,-13 -149,17 -238,122 -219,289 17,155 117,246 271,229 50,-6 100,-22 131,-41l24 63z"/>
   <path class="fil1" d="M11104 3429c18,168 -90,254 -200,266 -123,14 -229,-66 -245,-210 -16,-153 74,-253 200,-267 131,-14 230,71 245,211zm-361 44c11,100 77,169 158,160 79,-9 130,-90 119,-192 -8,-77 -57,-172 -155,-161 -99,11 -131,106 -122,193z"/>
   <path class="fil1" d="M11602 3483c5,47 11,89 17,124l-73 8 -13 -74 -2 0c-17,39 -60,92 -141,101 -72,8 -162,-22 -179,-182l-29 -267 83 -9 27 253c10,86 43,142 118,134 56,-6 90,-49 101,-87 3,-13 5,-29 3,-43l-30 -280 83 -9 35 331z"/>
   <path class="fil1" d="M11719 3278c-6,-53 -12,-100 -19,-142l73 -8 12 89 4 -1c14,-63 60,-107 116,-113 9,-2 16,-1 24,0l9 78c-9,-1 -17,-1 -29,0 -58,6 -95,55 -100,119 0,11 -1,24 1,39l27 243 -83 9 -35 -313z"/>
   <path class="fil1" d="M12041 3475c27,13 72,26 113,21 61,-7 86,-40 81,-78 -4,-40 -30,-59 -94,-75 -85,-20 -129,-61 -134,-115 -9,-74 44,-141 142,-151 47,-5 88,3 115,16l-13 62c-19,-9 -54,-21 -97,-16 -49,5 -73,36 -69,70 4,38 33,52 95,68 83,22 127,57 135,125 9,80 -47,143 -155,155 -50,6 -98,-2 -132,-17l13 -65z"/>
   <path class="fil1" d="M12458 3300c14,112 91,150 174,141 59,-7 94,-21 123,-38l21 59c-27,16 -76,36 -148,44 -140,16 -235,-67 -250,-205 -15,-138 55,-255 187,-269 149,-17 203,110 212,194 2,17 1,30 1,39l-320 35zm236 -86c-5,-53 -36,-132 -129,-122 -84,9 -112,90 -113,148l242 -26z"/>
   <path class="fil1" d="M12869 3586c57,-100 96,-229 77,-398 -19,-169 -83,-284 -161,-370l64 -7c69,71 145,185 166,371 20,184 -30,311 -82,398l-64 6z"/>
  </g>
 </g>
</svg>
