<svg id="Layer_1" data-name="Layer 1" xmlns="http://www.w3.org/2000/svg" viewBox="0 0 595.24 154.87"><defs><style>.cls-1{fill:#72e21b;}.cls-2{fill:#f9f8f7;}</style></defs><title>Price Green_1</title><path class="cls-1" d="M0,80.07v52.75s0,22.08,26.76,22.05l533.9-49.6s34.58-2.07,34.58-28.43V17.63S592-3.88,565.15.62L32.36,51.79S2.2,52.61,0,80.07Z" transform="translate(-0.02 0)"/><path class="cls-2" d="M95.62,75.83l5.19-.52,2.69,26.92c1.07,10.69-3.86,14.5-10.78,15.19a16.91,16.91,0,0,1-5.65-.4l.35-4.32a12.46,12.46,0,0,0,4.44.34c4.66-.46,7.19-2.83,6.41-10.71Z" transform="translate(-0.02 0)"/><path class="cls-2" d="M132.45,93.74,116.8,95.3l1.45,14.51,17.43-1.74.43,4.36-22.63,2.26-4-40.24,21.73-2.17.44,4.36L115.1,78.28,116.37,91,132,89.44Z" transform="translate(-0.02 0)"/><path class="cls-2" d="M161.82,90.8l-15.64,1.56,1.45,14.51,17.43-1.74.44,4.36-22.63,2.26-4-40.24,21.73-2.17L161,73.7l-16.54,1.65,1.27,12.72,15.64-1.56Z" transform="translate(-0.02 0)"/><path class="cls-2" d="M195.09,88.26l.39,3.88-14.75,1.47-.39-3.88Z" transform="translate(-0.02 0)"/><path class="cls-2" d="M243.87,100.33a25.9,25.9,0,0,1-10.44,3c-11.34,1.13-20.6-5.18-21.91-18.37-1.26-12.6,6.43-22,18.9-23.23,5-.5,8.29.26,9.73.84l-.83,4.36A19,19,0,0,0,231,66c-9.43.94-15.1,7.6-14,18.17,1,9.85,7.29,15.61,17.08,14.63a20.88,20.88,0,0,0,8.31-2.52Z" transform="translate(-0.02 0)"/><path class="cls-2" d="M248.17,81.15c-.34-3.4-.69-6.32-1.14-9l4.6-.46.75,5.65.24,0c.93-4,3.85-6.78,7.37-7.13a5.69,5.69,0,0,1,1.51,0l.5,5a7.93,7.93,0,0,0-1.81,0c-3.7.37-6,3.44-6.37,7.45a15,15,0,0,0,0,2.47l1.54,15.4-5.19.52Z" transform="translate(-0.02 0)"/><path class="cls-2" d="M285.38,97.51l-.78-3.6-.18,0A10.82,10.82,0,0,1,276,99.11c-5.85.58-9.25-3.24-9.67-7.42-.7-7,5.13-11.43,16.3-12.48l-.06-.6c-.24-2.39-1.32-6.62-7.23-6a14.46,14.46,0,0,0-7.31,2.9l-1.54-3.34a18,18,0,0,1,9.24-3.51c8.84-.88,11.59,4.93,12.17,10.72L289,90.16A41,41,0,0,0,290.15,97Zm-2.25-14.67c-5.74.45-12.15,2.12-11.59,7.73A4.67,4.67,0,0,0,277,95.09a7.23,7.23,0,0,0,6.5-5.53,5.52,5.52,0,0,0,.13-1.7Z" transform="translate(-0.02 0)"/><path class="cls-2" d="M296.9,90.94a13.85,13.85,0,0,0,7.13,1.4c3.82-.38,5.42-2.47,5.18-4.86s-1.88-3.73-5.9-4.78c-5.38-1.33-8.11-4-8.46-7.42-.46-4.66,2.91-8.85,9.12-9.47a14.5,14.5,0,0,1,7.28,1.08l-.93,4a11.31,11.31,0,0,0-6.08-1.08c-3.1.31-4.66,2.27-4.44,4.42.24,2.39,2.08,3.29,6,4.35,5.21,1.41,8,3.66,8.45,8,.51,5.07-3.08,9-9.94,9.74A16.57,16.57,0,0,1,296,95.07Z" transform="translate(-0.02 0)"/><path class="cls-2" d="M317.56,51.49l5.25-.52,1.8,18h.12a9.79,9.79,0,0,1,3.39-4.08,10.88,10.88,0,0,1,5.22-2c3.88-.39,10.33,1.38,11.32,11.35l1.72,17.19-5.25.53-1.66-16.6c-.46-4.66-2.59-8.42-7.54-7.93a7.59,7.59,0,0,0-6.52,6,6.37,6.37,0,0,0-.11,2.54L327,93.35l-5.25.53Z" transform="translate(-0.02 0)"/><path class="cls-2" d="M395.75,85.16a25.9,25.9,0,0,1-10.44,3C374,89.27,364.72,83,363.4,69.76c-1.26-12.6,6.43-22,18.9-23.23,5-.5,8.29.26,9.73.84l-.83,4.36a19,19,0,0,0-8.29-.86c-9.43.94-15.1,7.6-14,18.17,1,9.85,7.29,15.61,17.08,14.63a20.88,20.88,0,0,0,8.31-2.52Z" transform="translate(-0.02 0)"/><path class="cls-2" d="M426.24,68.61c1.07,10.69-5.87,16.08-12.86,16.78C405.56,86.17,399,81,398,71.91c-1-9.67,4.8-16,12.8-16.77C419.14,54.3,425.36,59.77,426.24,68.61Zm-22.9,2.59c.63,6.33,4.75,10.74,9.88,10.23s8.31-5.59,7.66-12.1c-.49-4.9-3.56-10.86-9.77-10.24S402.79,65.71,403.34,71.2Z" transform="translate(-0.02 0)"/><path class="cls-2" d="M457.72,72.34c.3,3,.62,5.61,1,7.86l-4.66.47L453.32,76h-.12a10.92,10.92,0,0,1-9,6.33C439.65,82.77,434,80.8,433,70.65l-1.69-16.9,5.25-.52,1.6,16c.55,5.49,2.59,9,7.37,8.55a7.43,7.43,0,0,0,6.66-8.2l-1.77-17.73,5.25-.52Z" transform="translate(-0.02 0)"/><path class="cls-2" d="M465.24,59.47c-.34-3.4-.69-6.32-1.14-9l4.6-.46.75,5.65.24,0c.92-4,3.84-6.78,7.37-7.13a5.69,5.69,0,0,1,1.51,0l.5,5a7.94,7.94,0,0,0-1.81,0c-3.7.37-6,3.44-6.37,7.45a14.92,14.92,0,0,0,0,2.47l1.54,15.4-5.19.52Z" transform="translate(-0.02 0)"/><path class="cls-2" d="M485.5,72.1a13.83,13.83,0,0,0,7.13,1.4c3.82-.38,5.42-2.47,5.18-4.86s-1.88-3.73-5.9-4.78c-5.38-1.33-8.11-4-8.46-7.42-.47-4.66,2.91-8.85,9.12-9.47A14.49,14.49,0,0,1,499.86,48l-.93,4a11.31,11.31,0,0,0-6.08-1.08c-3.1.31-4.66,2.27-4.44,4.42.24,2.39,2.08,3.29,6,4.35,5.21,1.41,8,3.66,8.45,8,.51,5.07-3.08,9.05-9.94,9.74a16.57,16.57,0,0,1-8.32-1.16Z" transform="translate(-0.02 0)"/><path class="cls-2" d="M512,61.25c.83,7.09,5.66,9.56,10.91,9A19.09,19.09,0,0,0,530.73,68L532,71.67a23.52,23.52,0,0,1-9.43,2.75c-8.9.89-14.79-4.43-15.66-13.15s3.58-16.09,12-16.94c9.43-.94,12.77,7.1,13.3,12.42a19.93,19.93,0,0,1,.07,2.47ZM527,56c-.27-3.35-2.23-8.4-8.14-7.81-5.31.53-7.15,5.66-7.21,9.34Z" transform="translate(-0.02 0)"/></svg>