<?xml version="1.0" encoding="UTF-8"?>
<!DOCTYPE svg PUBLIC "-//W3C//DTD SVG 1.1//EN" "http://www.w3.org/Graphics/SVG/1.1/DTD/svg11.dtd">
<!-- Creator: CorelDRAW X8 -->
<svg xmlns="http://www.w3.org/2000/svg" xml:space="preserve" width="210mm" height="54.6363mm" version="1.1" style="shape-rendering:geometricPrecision; text-rendering:geometricPrecision; image-rendering:optimizeQuality; fill-rule:evenodd; clip-rule:evenodd"
viewBox="0 0 21000 5464"
 xmlns:xlink="http://www.w3.org/1999/xlink">
 <defs>
  <style type="text/css">
   <![CDATA[
    .fil0 {fill:#4362AD}
    .fil1 {fill:white}
   ]]>
  </style>
 </defs>
 <g id="Layer_x0020_1">
  <metadata id="CorelCorpID_0Corel-Layer"/>
  <path class="fil0" d="M0 2825l0 1861c0,0 0,779 944,778l18836 -1750c0,0 1220,-73 1220,-1003l0 -2089c0,0 -116,-759 -1062,-600l-18797 1805c0,0 -1064,29 -1141,998z"/>
  <g id="_2214110334800">
   <polygon class="fil1" points="3238,2572 3236,2572 3102,2665 3072,2583 3240,2468 3334,2457 3423,3275 3317,3286 "/>
   <polygon class="fil1" points="3971,2830 3979,2911 3669,2945 3660,2864 "/>
   <path class="fil1" d="M4106 3200l-7 -68 78 -93c187,-221 269,-338 257,-461 -9,-83 -58,-155 -180,-142 -74,8 -131,52 -165,88l-44 -74c51,-54 128,-98 223,-108 175,-19 263,93 276,210 16,151 -80,285 -234,470l-59 67 0 3 367 -40 10 92 -522 56z"/>
   <path class="fil1" d="M5159 2352l-311 35 -8 213c18,-4 36,-9 65,-12 63,-7 127,0 181,24 68,30 128,94 140,197 17,160 -97,293 -274,313 -89,9 -167,-7 -209,-28l18 -87c36,16 106,34 180,25 104,-11 185,-89 174,-198 -13,-106 -92,-173 -255,-155 -46,5 -82,13 -112,20l10 -398 391 -43 10 94z"/>
   <path class="fil1" d="M5342 2208l109 -12 45 408 4 -1c19,-35 38,-67 57,-98l224 -346 136 -14 -267 393 383 451 -129 14 -324 -386 -71 102 36 323 -110 13 -93 -847z"/>
   <path class="fil1" d="M6463 2085l109 -12 62 567c25,225 -78,306 -224,322 -40,5 -90,1 -119,-7l6 -91c24,6 57,10 94,6 98,-11 151,-61 133,-227l-61 -558z"/>
   <polygon class="fil1" points="7242,2455 6913,2492 6946,2797 7314,2757 7324,2849 6847,2900 6755,2054 7213,2004 7223,2095 6874,2133 6904,2401 7233,2365 "/>
   <polygon class="fil1" points="7860,2388 7531,2424 7565,2729 7932,2689 7942,2781 7465,2833 7373,1986 7831,1936 7841,2028 7493,2066 7522,2334 7851,2298 "/>
   <polygon class="fil1" points="8294,2357 8303,2438 7992,2473 7984,2391 "/>
   <path class="fil1" d="M8377 1888c55,-18 133,-32 208,-40 117,-13 195,0 253,42 47,33 77,88 84,153 12,112 -50,194 -136,234l1 4c67,15 113,71 143,157 40,115 69,195 91,226l-114 13c-16,-22 -43,-93 -79,-196 -37,-115 -87,-153 -187,-146l-103 11 40 367 -110 12 -91 -837zm152 373l112 -12c117,-12 184,-84 173,-182 -12,-109 -96,-148 -212,-137 -53,6 -90,16 -107,22l34 309z"/>
   <path class="fil1" d="M9493 2612l-17 -76 -4 0c-29,52 -89,101 -177,111 -123,13 -195,-66 -205,-154 -16,-147 106,-242 341,-266l-1 -13c-6,-50 -29,-139 -153,-126 -57,7 -114,31 -154,63l-33 -70c47,-38 118,-68 194,-76 186,-20 245,102 259,224l24 227c6,53 14,104 26,145l-100 11zm-50 -309c-121,11 -256,47 -243,165 8,72 59,101 116,94 79,-9 124,-64 136,-118 2,-12 3,-25 2,-36l-11 -105z"/>
   <path class="fil1" d="M9713 2139c-7,-63 -14,-114 -23,-164l98 -11 17 100 3 0c24,-62 88,-125 189,-137 84,-9 221,27 243,236l40 363 -111 12 -38 -350c-11,-98 -56,-176 -161,-165 -72,8 -123,66 -135,130 -4,14 -4,33 -2,52l39 366 -110 12 -49 -444z"/>
   <path class="fil1" d="M10532 2165l3 0c12,-23 31,-52 47,-75l155 -230 133 -14 -208 275 307 329 -135 15 -241 -269 -50 69 25 229 -109 12 -97 -892 109 -12 61 563z"/>
   <path class="fil1" d="M11959 2304c-47,23 -141,62 -255,75 -128,14 -237,-7 -329,-77 -81,-63 -138,-171 -153,-303 -26,-253 127,-456 411,-487 98,-11 177,2 216,16l-17 92c-47,-15 -105,-25 -191,-16 -206,23 -327,166 -304,378 24,215 167,328 364,306 72,-8 120,-23 144,-39l-28 -252 -172 19 -9 -88 279 -31 44 407z"/>
   <path class="fil1" d="M12617 2102c7,63 14,118 23,166l-98 11 -17 -99 -2 0c-23,52 -81,123 -189,135 -95,11 -216,-30 -239,-243l-39 -356 110 -12 37 337c13,116 56,190 157,179 74,-8 120,-65 134,-117 5,-17 7,-37 4,-57l-41 -374 111 -12 49 442z"/>
   <path class="fil1" d="M13155 2212l-17 -76 -3 0c-29,52 -90,101 -177,111 -123,13 -195,-66 -205,-154 -16,-148 106,-242 341,-266l-1 -13c-6,-50 -29,-139 -154,-126 -56,7 -113,31 -153,63l-33 -70c47,-38 117,-68 194,-76 186,-20 245,102 258,224l25 227c6,53 14,104 26,145l-101 11zm-50 -309c-121,11 -255,47 -243,165 8,72 60,101 116,94 79,-9 124,-64 136,-118 2,-12 4,-25 2,-36l-11 -105z"/>
   <path class="fil1" d="M13379 1764c-8,-72 -16,-134 -26,-189l96 -11 17 119 5 -1c19,-85 80,-143 154,-152 13,-1 22,-1 32,1l11 104c-11,-1 -23,-1 -38,1 -78,8 -127,73 -133,158 0,15 -1,33 1,52l35 324 -109 12 -45 -418z"/>
   <path class="fil1" d="M14165 2101l-17 -76 -3 1c-29,51 -90,101 -177,110 -123,14 -195,-66 -205,-154 -16,-147 105,-242 341,-266l-1 -13c-6,-50 -29,-139 -154,-125 -56,6 -114,30 -153,62l-33 -70c47,-38 117,-68 194,-76 186,-20 245,102 258,224l25 227c6,53 14,105 26,145l-101 11zm-50 -308c-120,10 -255,46 -242,165 7,71 59,100 115,94 79,-9 124,-65 136,-119 3,-12 4,-24 3,-36l-12 -104z"/>
   <path class="fil1" d="M14386 1628c-7,-62 -14,-114 -23,-164l98 -11 17 100 3 0c24,-61 88,-125 189,-136 84,-10 220,26 243,235l40 364 -111 12 -38 -351c-11,-98 -57,-176 -161,-164 -73,8 -124,65 -136,129 -4,15 -4,34 -2,53l40 366 -110 12 -49 -445z"/>
   <path class="fil1" d="M15175 1199l19 174 158 -17 10 84 -158 17 36 328c8,75 34,116 96,109 29,-3 50,-9 63,-14l14 82c-20,11 -54,21 -97,26 -52,6 -95,-6 -124,-34 -35,-29 -53,-82 -60,-153l-36 -332 -95 10 -9 -84 94 -10 -16 -146 105 -40z"/>
   <path class="fil1" d="M15566 1661c19,149 121,200 232,188 79,-8 125,-27 165,-49l27 77c-37,22 -102,49 -199,60 -187,20 -312,-91 -332,-274 -20,-183 72,-340 250,-359 198,-21 270,147 282,259 3,23 2,41 2,52l-427 46zm315 -115c-6,-71 -49,-176 -173,-163 -112,12 -150,121 -150,198l323 -35z"/>
   <path class="fil1" d="M16195 1592c19,149 122,201 232,189 79,-9 125,-28 165,-50l27 77c-37,22 -101,49 -198,60 -187,20 -313,-91 -333,-274 -20,-183 72,-340 250,-359 198,-21 271,147 283,259 2,23 1,41 1,52l-427 46zm316 -115c-7,-71 -49,-176 -174,-163 -111,12 -149,121 -149,199l323 -36z"/>
   <path class="fil1" d="M7338 3329c-58,100 -95,229 -76,399 18,167 83,282 160,369l-65 7c-68,-71 -145,-185 -165,-369 -20,-186 30,-313 81,-399l65 -7z"/>
   <path class="fil1" d="M7930 3906c-28,18 -87,40 -164,49 -179,19 -326,-79 -349,-287 -21,-199 99,-349 295,-370 79,-9 131,3 154,12l-13 69c-33,-12 -78,-19 -130,-13 -150,17 -238,122 -220,289 17,155 118,246 272,229 50,-6 100,-22 131,-41l24 63z"/>
   <path class="fil1" d="M7996 3602c-6,-54 -12,-100 -19,-142l72 -9 13 90 4 -1c14,-63 60,-107 115,-114 10,-1 17,0 24,0l9 79c-9,-1 -17,-2 -29,0 -58,6 -95,55 -100,118 0,12 -1,25 1,40l26 243 -82 9 -34 -313z"/>
   <path class="fil1" d="M8586 3855l-13 -57 -2 0c-22,39 -67,76 -132,84 -93,10 -147,-50 -154,-116 -12,-110 80,-181 256,-200l-1 -9c-4,-38 -22,-104 -115,-94 -43,4 -86,23 -115,47l-25 -53c35,-28 88,-50 145,-57 140,-15 184,77 194,168l19 170c4,40 10,78 19,109l-76 8zm-38 -232c-91,9 -192,36 -182,124 6,54 44,75 87,71 59,-6 93,-48 102,-88 2,-9 2,-19 2,-28l-9 -79z"/>
   <path class="fil1" d="M8767 3749c26,13 71,25 113,21 60,-6 85,-40 81,-78 -4,-40 -30,-59 -94,-74 -85,-21 -129,-62 -135,-116 -8,-73 45,-140 143,-151 46,-5 88,4 115,16l-14 62c-19,-9 -53,-21 -96,-16 -49,5 -73,37 -69,71 4,38 33,52 95,67 82,22 127,57 135,125 9,80 -48,143 -156,155 -50,6 -97,-2 -131,-17l13 -65z"/>
   <path class="fil1" d="M9088 3123l82 -8 31 284 2 0c11,-25 29,-48 53,-65 23,-17 52,-30 82,-33 62,-7 164,20 181,178l30 271 -83 9 -28 -263c-9,-73 -43,-132 -121,-124 -54,6 -92,49 -102,95 -4,12 -4,24 -2,41l31 275 -83 8 -73 -668z"/>
   <path class="fil1" d="M10327 3644c-28,18 -87,39 -164,48 -179,20 -326,-79 -349,-287 -21,-199 99,-348 295,-369 79,-9 131,2 154,12l-13 69c-32,-12 -78,-19 -130,-13 -150,16 -238,122 -220,289 17,155 118,246 272,228 50,-5 100,-21 131,-41l24 64z"/>
   <path class="fil1" d="M10807 3378c18,168 -91,254 -201,266 -123,13 -229,-66 -244,-210 -17,-153 73,-253 199,-267 132,-14 230,71 246,211zm-361 44c10,100 76,168 158,160 79,-9 130,-90 118,-192 -8,-78 -57,-172 -155,-161 -99,11 -131,106 -121,193z"/>
   <path class="fil1" d="M11304 3432c6,47 11,88 18,124l-73 8 -13 -74 -2 0c-17,39 -60,92 -141,101 -72,8 -162,-22 -179,-183l-29 -266 83 -9 27 253c10,86 43,142 118,134 56,-7 90,-49 101,-88 3,-12 5,-28 3,-42l-31 -280 82 -9 36 331z"/>
   <path class="fil1" d="M11421 3228c-5,-54 -12,-100 -19,-142l73 -9 13 89 4 0c13,-63 60,-108 115,-114 10,-1 16,-1 24,0l9 78c-9,0 -17,-1 -28,0 -59,7 -95,55 -100,119 -1,12 -1,25 0,39l27 244 -82 9 -36 -313z"/>
   <path class="fil1" d="M11744 3424c26,14 71,26 113,21 60,-6 85,-40 81,-78 -5,-39 -31,-58 -94,-74 -86,-20 -129,-61 -135,-116 -8,-73 45,-140 143,-151 46,-5 88,4 115,16l-14 63c-19,-10 -54,-21 -96,-17 -49,5 -73,37 -70,71 5,38 34,52 96,67 82,22 127,57 134,125 9,80 -47,143 -155,155 -50,6 -97,-1 -132,-17l14 -65z"/>
   <path class="fil1" d="M12160 3249c14,112 91,151 174,141 59,-6 94,-21 124,-37l21 58c-28,16 -76,37 -149,45 -140,15 -234,-68 -249,-206 -16,-137 54,-254 187,-269 149,-16 202,111 211,194 2,17 2,31 2,39l-321 35zm237 -86c-6,-53 -37,-132 -130,-122 -84,9 -112,91 -113,149l243 -27z"/>
   <path class="fil1" d="M12572 3535c56,-101 95,-229 76,-398 -18,-169 -83,-284 -160,-370l63 -7c69,71 145,185 166,370 20,185 -30,311 -82,399l-63 6z"/>
  </g>
 </g>
</svg>
