<svg id="Layer_1" data-name="Layer 1" xmlns="http://www.w3.org/2000/svg" viewBox="0 0 13.8 13.8"><defs><style>.cls-1,.cls-3{fill:none;}.cls-1{stroke:#fff;stroke-miterlimit:10;stroke-width:0.5px;}.cls-2{fill:#fff;}</style></defs><title>promotional_color</title><circle class="cls-1" cx="6.9" cy="6.9" r="6.65"/><rect class="cls-2" x="9.5" y="7.08" width="1.43" height="3.1" rx="0.26" ry="0.26"/><circle class="cls-3" cx="10.33" cy="9.61" r="0.34" transform="translate(-3.61 6.67) rotate(-31.52)"/><path class="cls-2" d="M9.45,7.54S8,6.83,7.3,7.78H5.87c-1,0-1.19,1.19,0,1.19H7.06a1.18,1.18,0,0,1,.72.24c-.21,0-1.91.48-2.87-.24,0,0-1-1.19-1.19-1.43-.48-.48-1.19-.24-.72.72,0,0,1.43,2.15,2.87,2.15a5.38,5.38,0,0,0,1.67-.24c-.05.07,1.43-.48,1.91-.48Z" transform="translate(-0.11 -0.14)"/><path class="cls-2" d="M5.3,7.63a.1.1,0,0,1,0,.14l-.16.16S4.45,7,4.22,7s.23-.23.46,0Z" transform="translate(-0.11 -0.14)"/><path class="cls-2" d="M5,8a.15.15,0,0,1,0,.19l-.19.23S3.87,7.23,3.59,7.24s.27-.33.57,0Z" transform="translate(-0.11 -0.14)"/><path class="cls-2" d="M6.73,4.32a.94.94,0,0,1,0,.29.58.58,0,0,1-.13.22A.6.6,0,0,1,6.34,5,.87.87,0,0,1,6,5a.92.92,0,0,1-.31,0,.54.54,0,0,1-.21-.14.55.55,0,0,1-.12-.22,1,1,0,0,1,0-.3.9.9,0,0,1,0-.28.57.57,0,0,1,.35-.37A.85.85,0,0,1,6,3.63a.87.87,0,0,1,.33.06.56.56,0,0,1,.22.15.54.54,0,0,1,.11.22A1.05,1.05,0,0,1,6.73,4.32ZM6,6.35l0,0,0,0H5.71l0,0a0,0,0,0,1,0,0l0,0L7.94,3.63l0,0,0,0h.23l0,0a0,0,0,0,1,0,0l0,0Zm.36-2a1,1,0,0,0,0-.21A.44.44,0,0,0,6.3,4a.26.26,0,0,0-.11-.09.4.4,0,0,0-.16,0,.37.37,0,0,0-.15,0A.25.25,0,0,0,5.77,4a.4.4,0,0,0-.06.14.88.88,0,0,0,0,.2,1,1,0,0,0,0,.24.39.39,0,0,0,.07.15.23.23,0,0,0,.11.08L6,4.8a.37.37,0,0,0,.16,0,.24.24,0,0,0,.1-.09.41.41,0,0,0,.06-.15A1.08,1.08,0,0,0,6.38,4.33ZM8.65,5.66a.9.9,0,0,1,0,.29.57.57,0,0,1-.13.22.61.61,0,0,1-.22.14.88.88,0,0,1-.32.05.92.92,0,0,1-.31,0,.54.54,0,0,1-.21-.14A.55.55,0,0,1,7.29,6a1,1,0,0,1,0-.3.9.9,0,0,1,0-.28.58.58,0,0,1,.13-.22A.59.59,0,0,1,7.64,5,.85.85,0,0,1,8,5,.87.87,0,0,1,8.29,5a.55.55,0,0,1,.21.15.53.53,0,0,1,.11.22A1.08,1.08,0,0,1,8.65,5.66Zm-.35,0a.93.93,0,0,0,0-.21.4.4,0,0,0-.06-.15.26.26,0,0,0-.11-.09.4.4,0,0,0-.16,0,.38.38,0,0,0-.15,0,.26.26,0,0,0-.11.09.42.42,0,0,0-.06.14,1.07,1.07,0,0,0,0,.44A.4.4,0,0,0,7.7,6a.23.23,0,0,0,.11.08l.15,0a.38.38,0,0,0,.16,0A.25.25,0,0,0,8.23,6a.41.41,0,0,0,.05-.15A1,1,0,0,0,8.3,5.67Z" transform="translate(-0.11 -0.14)"/></svg>