<svg id="Layer_1" data-name="Layer 1" xmlns="http://www.w3.org/2000/svg" viewBox="0 0 21.78 30"><defs><style>.cls-1{fill:#1dc5f2;}</style></defs><title>Rupee (32×32)</title><path class="cls-1" d="M19.25,31H21.1a.81.81,0,0,0,.52-1.43l-11.3-9.42a.81.81,0,0,1,.48-1.42,8.84,8.84,0,0,0,4.74-1.38s3.85-2.08,4.37-6.14a.8.8,0,0,1,.8-.69h5.37a.81.81,0,0,0,.81-.81v-1a.81.81,0,0,0-.81-.81H20.45a.8.8,0,0,1-.75-.51,11,11,0,0,0-1.33-2.43A.81.81,0,0,1,19,3.64h7.06a.8.8,0,0,0,.81-.8v-1A.81.81,0,0,0,26.08,1H5.92a.81.81,0,0,0-.81.81V2.89a.81.81,0,0,0,.8.81l5.07,0h.09a7.87,7.87,0,0,1,5.14,2.79.81.81,0,0,1-.66,1.29H5.92a.8.8,0,0,0-.81.8V9.76a.81.81,0,0,0,.81.81H16.3a.81.81,0,0,1,.75,1.09c-.51,1.4-2,3.75-6,4.35H5.92a.8.8,0,0,0-.81.8v2.31a.81.81,0,0,0,.29.62L18.73,30.81A.83.83,0,0,0,19.25,31Z" transform="translate(-5.11 -1)"/></svg>