<svg xmlns="http://www.w3.org/2000/svg" viewBox="0 0 14.65 14.65"><defs><style>.cls-1{isolation:isolate;}.cls-2{fill:none;stroke:#fff;stroke-miterlimit:10;stroke-width:0.15px;}.cls-3{fill:#bcd531;}.cls-4{fill:#10b2a7;opacity:0.13;mix-blend-mode:screen;}</style></defs><title>-2</title><g class="cls-1"><g id="Layer_1" data-name="Layer 1"><circle class="cls-2" cx="7.33" cy="7.33" r="7.25"/><path class="cls-2" d="M11,6.71l2.12-.54a5.52,5.52,0,0,0-3-3.23L9,4.86A3.31,3.31,0,0,1,11,6.71Z" transform="translate(-0.67 -0.67)"/><path class="cls-2" d="M4.69,8A3.29,3.29,0,0,1,5.1,6.43L3.22,5.34A5.46,5.46,0,0,0,7.67,13.5V11.28A3.3,3.3,0,0,1,4.69,8Z" transform="translate(-0.67 -0.67)"/><path class="cls-2" d="M13.35,6.8l-2.11.54a3.34,3.34,0,0,1,.07.66,3.3,3.3,0,0,1-3,3.29V13.5a5.44,5.44,0,0,0,5-6.7Z" transform="translate(-0.67 -0.67)"/><path class="cls-3" d="M5.53,11.32" transform="translate(-0.67 -0.67)"/><path class="cls-2" d="M8,4.68a3.24,3.24,0,0,1,.35,0l1.14-2A5.43,5.43,0,0,0,8,2.5,5.47,5.47,0,0,0,3.57,4.77l1.91,1.1A3.28,3.28,0,0,1,8,4.68Z" transform="translate(-0.67 -0.67)"/><ellipse class="cls-4" cx="7.33" cy="7.33" rx="4.13" ry="4.14"/></g></g></svg>