<svg id="Layer_1" data-name="Layer 1" xmlns="http://www.w3.org/2000/svg" viewBox="0 0 88.83 17.42"><defs><style>.cls-1{fill:#e6e6e6;}.cls-2{fill:#fcfcfc;}.cls-3,.cls-5{fill:#f49829;}.cls-3{opacity:0.45;}.cls-4{fill:#fff;}.cls-6,.cls-9{fill:none;}.cls-7{fill:#f7931e;}.cls-8{fill:#2272b0;}.cls-9{stroke:#f7931e;stroke-miterlimit:10;stroke-width:0.5px;}</style></defs><title>Strip_Feedback_color_updated</title><path class="cls-1" d="M3.13,1h16.3a0,0,0,0,1,0,0V17.42a0,0,0,0,1,0,0H3.13A3.13,3.13,0,0,1,0,14.29V4.12A3.13,3.13,0,0,1,3.13,1Z"/><path class="cls-2" d="M3.62,0H26a0,0,0,0,1,0,0V16.42a0,0,0,0,1,0,0H3.62A3.61,3.61,0,0,1,0,12.8V3.61A3.61,3.61,0,0,1,3.62,0Z"/><path class="cls-3" d="M89.7,20.34H23.39V14.43l4.7-4-4.7-2.82V3.93H89.7A3.12,3.12,0,0,1,92.82,7V17.22A3.12,3.12,0,0,1,89.7,20.34Z" transform="translate(-3.99 -2.93)"/><path class="cls-4" d="M42.1,9h2.54v.51H42.71v1.57h1.79v.5H42.71V13.7H42.1Z" transform="translate(-3.99 -2.93)"/><path class="cls-4" d="M48,11.48H46.12v1.7h2v.51H45.51V9h2.55v.51H46.12V11H48Z" transform="translate(-3.99 -2.93)"/><path class="cls-4" d="M51.4,11.48H49.56v1.7h2v.51H49V9H51.5v.51H49.56V11H51.4Z" transform="translate(-3.99 -2.93)"/><path class="cls-4" d="M52.4,9a8.78,8.78,0,0,1,1.3-.1,2.71,2.71,0,0,1,1.91.59,2.18,2.18,0,0,1,.67,1.7,2.5,2.5,0,0,1-.68,1.83,2.91,2.91,0,0,1-2.09.68,9.8,9.8,0,0,1-1.11-.06ZM53,13.21a3.81,3.81,0,0,0,.62,0,1.81,1.81,0,0,0,2-2,1.68,1.68,0,0,0-1.91-1.82,3.49,3.49,0,0,0-.71.06Z" transform="translate(-3.99 -2.93)"/><path class="cls-4" d="M57.06,9a5.94,5.94,0,0,1,1.11-.1,2,2,0,0,1,1.3.34,1,1,0,0,1,.39.83,1.12,1.12,0,0,1-.8,1h0a1.22,1.22,0,0,1,1,1.18,1.27,1.27,0,0,1-.4.95,2.37,2.37,0,0,1-1.63.44,7.26,7.26,0,0,1-.95-.06ZM57.67,11h.55c.64,0,1-.34,1-.79s-.42-.77-1-.77a2.61,2.61,0,0,0-.54,0Zm0,2.26a3.33,3.33,0,0,0,.51,0c.63,0,1.21-.23,1.21-.92s-.55-.91-1.22-.91h-.5Z" transform="translate(-3.99 -2.93)"/><path class="cls-4" d="M61.62,12.21l-.49,1.48h-.63L62.1,9h.74l1.61,4.72h-.65l-.5-1.48Zm1.55-.48-.46-1.36c-.1-.31-.17-.59-.25-.86h0c-.07.28-.15.57-.24.85l-.46,1.37Z" transform="translate(-3.99 -2.93)"/><path class="cls-4" d="M68.33,13.54a3,3,0,0,1-1.25.22,2.21,2.21,0,0,1-2.33-2.39A2.35,2.35,0,0,1,67.22,8.9a2.53,2.53,0,0,1,1.12.21l-.15.5a2.23,2.23,0,0,0-1-.2,1.75,1.75,0,0,0-1.84,1.95,1.72,1.72,0,0,0,1.81,1.9,2.44,2.44,0,0,0,1-.2Z" transform="translate(-3.99 -2.93)"/><path class="cls-4" d="M69.09,9h.61v2.28h0c.13-.18.25-.35.37-.5L71.53,9h.76l-1.71,2,1.84,2.72H71.7l-1.55-2.32-.45.52v1.8h-.61Z" transform="translate(-3.99 -2.93)"/><path class="cls-5" d="M89.7,19.34H23.39V13.43l3.5-2.88-3.5-2.12V2.93H89.7A3.12,3.12,0,0,1,92.82,6V16.22A3.12,3.12,0,0,1,89.7,19.34Z" transform="translate(-3.99 -2.93)"/><path class="cls-6" d="M8.84,6.79" transform="translate(-3.99 -2.93)"/><path class="cls-7" d="M10.06,15.52H9.89c-2.37,2.37-2.45,3-2.49,2V8a2.81,2.81,0,0,1,2.81-2.81H18a0,0,0,0,1,0,0,6.69,6.69,0,0,1-.42,1H10.47a1.86,1.86,0,0,0-2,1.55h0v7.9a0,0,0,0,0,0,0c.22-.22.79-1.12,1.53-1.12h5.31c1.47,0,4.25-1,4.13-4.74.62-1.19,1-2.13,1-2.13.17,2.82.16,7.77-5.47,7.85Z" transform="translate(-3.99 -2.93)"/><path class="cls-8" d="M19.05,5.2,16.9,9.5v0l-.3,1.72a.05.05,0,0,0,.09,0L18,10.07v0l2.15-4.3a.06.06,0,0,0,0-.08l-1-.51A.06.06,0,0,0,19.05,5.2Z" transform="translate(-3.99 -2.93)"/><path class="cls-8" d="M19.58,4.15h.59a.32.32,0,0,1,.32.32v.6a.32.32,0,0,1-.32.32h-.59a0,0,0,0,1,0,0V4.15A0,0,0,0,1,19.58,4.15Z" transform="translate(2.8 17.62) rotate(-63.38)"/><polygon class="cls-4" points="13.2 6.9 13.57 7.09 13.18 7.57 13.05 7.51 13.2 6.9"/><line class="cls-9" x1="5.82" y1="4.76" x2="7.64" y2="4.76"/><line class="cls-9" x1="5.82" y1="6.81" x2="11.63" y2="6.81"/><line class="cls-9" x1="5.82" y1="9.44" x2="10.04" y2="9.44"/><line class="cls-9" x1="10.83" y1="9.44" x2="13.68" y2="9.44"/><line class="cls-9" x1="9.01" y1="4.76" x2="12.32" y2="4.76"/><path class="cls-4" d="M41.35,9h2.54v.51H42v1.57h1.79v.5H42v2.14h-.61Z" transform="translate(-3.99 -2.93)"/><path class="cls-4" d="M47.2,11.52H45.37v1.7h2v.51H44.76V9h2.55v.51H45.37V11H47.2Z" transform="translate(-3.99 -2.93)"/><path class="cls-4" d="M50.65,11.52H48.81v1.7h2v.51H48.2V9h2.55v.51H48.81V11h1.83Z" transform="translate(-3.99 -2.93)"/><path class="cls-4" d="M51.65,9.07a8.78,8.78,0,0,1,1.3-.1,2.71,2.71,0,0,1,1.91.59,2.18,2.18,0,0,1,.67,1.7,2.5,2.5,0,0,1-.68,1.83,2.91,2.91,0,0,1-2.09.68,9.8,9.8,0,0,1-1.11-.06Zm.61,4.17a3.81,3.81,0,0,0,.62,0,1.81,1.81,0,0,0,2-2A1.68,1.68,0,0,0,53,9.46a3.49,3.49,0,0,0-.71.06Z" transform="translate(-3.99 -2.93)"/><path class="cls-4" d="M56.31,9.07A5.94,5.94,0,0,1,57.42,9a2,2,0,0,1,1.3.34,1,1,0,0,1,.39.83,1.12,1.12,0,0,1-.8,1h0a1.22,1.22,0,0,1,1,1.18,1.27,1.27,0,0,1-.4.95,2.37,2.37,0,0,1-1.63.44,7.26,7.26,0,0,1-.95-.06ZM56.92,11h.55c.64,0,1-.34,1-.79s-.42-.77-1-.77a2.61,2.61,0,0,0-.54,0Zm0,2.26a3.33,3.33,0,0,0,.51,0c.63,0,1.21-.23,1.21-.92s-.55-.91-1.22-.91h-.5Z" transform="translate(-3.99 -2.93)"/><path class="cls-4" d="M60.87,12.25l-.49,1.48h-.63L61.35,9h.74l1.61,4.72H63l-.5-1.48Zm1.55-.48L62,10.41c-.1-.31-.17-.59-.25-.86h0c-.07.28-.15.57-.24.85L61,11.77Z" transform="translate(-3.99 -2.93)"/><path class="cls-4" d="M67.58,13.58a3,3,0,0,1-1.25.22A2.21,2.21,0,0,1,64,11.41a2.35,2.35,0,0,1,2.47-2.48,2.53,2.53,0,0,1,1.12.21l-.15.5a2.23,2.23,0,0,0-1-.2,1.75,1.75,0,0,0-1.84,1.95,1.72,1.72,0,0,0,1.81,1.9,2.44,2.44,0,0,0,1-.2Z" transform="translate(-3.99 -2.93)"/><path class="cls-4" d="M68.34,9h.61v2.28h0c.13-.18.25-.35.37-.5L70.78,9h.76l-1.71,2,1.84,2.72H71L69.4,11.41l-.45.52v1.8h-.61Z" transform="translate(-3.99 -2.93)"/></svg>