<svg id="Layer_1" data-name="Layer 1" xmlns="http://www.w3.org/2000/svg" viewBox="0 0 88.83 17.42"><defs><style>.cls-1{fill:#e6e6e6;}.cls-2{fill:#fcfcfc;}.cls-3,.cls-5{fill:#b2cc37;}.cls-3{opacity:0.45;}.cls-4{fill:#fff;}.cls-10,.cls-11,.cls-6,.cls-8{fill:none;}.cls-7{fill:#4d4d4d;}.cls-8{stroke:#fff;stroke-width:0.25px;}.cls-10,.cls-8{stroke-miterlimit:10;}.cls-9{fill:#f8b300;}.cls-10{stroke:gray;stroke-width:0.15px;}.cls-11{stroke:#f8b300;stroke-linecap:round;stroke-linejoin:round;stroke-width:0.5px;}</style></defs><title>Strip_Notification_color</title><path class="cls-1" d="M3.13,1h16.3a0,0,0,0,1,0,0V17.42a0,0,0,0,1,0,0H3.13A3.13,3.13,0,0,1,0,14.29V4.12A3.13,3.13,0,0,1,3.13,1Z"/><path class="cls-2" d="M3.62,0H26a0,0,0,0,1,0,0V16.42a0,0,0,0,1,0,0H3.62A3.61,3.61,0,0,1,0,12.8V3.61A3.61,3.61,0,0,1,3.62,0Z"/><path class="cls-3" d="M89.7,20.34H23.39V14.43l4.7-4-4.7-2.82V3.93H89.7A3.12,3.12,0,0,1,92.82,7V17.22A3.12,3.12,0,0,1,89.7,20.34Z" transform="translate(-3.99 -2.93)"/><path class="cls-4" d="M42.1,9h2.54v.51H42.71v1.57h1.79v.5H42.71V13.7H42.1Z" transform="translate(-3.99 -2.93)"/><path class="cls-4" d="M48,11.48H46.12v1.7h2v.51H45.51V9h2.55v.51H46.12V11H48Z" transform="translate(-3.99 -2.93)"/><path class="cls-4" d="M51.4,11.48H49.56v1.7h2v.51H49V9H51.5v.51H49.56V11H51.4Z" transform="translate(-3.99 -2.93)"/><path class="cls-4" d="M52.4,9a8.78,8.78,0,0,1,1.3-.1,2.71,2.71,0,0,1,1.91.59,2.18,2.18,0,0,1,.67,1.7,2.5,2.5,0,0,1-.68,1.83,2.91,2.91,0,0,1-2.09.68,9.8,9.8,0,0,1-1.11-.06ZM53,13.21a3.81,3.81,0,0,0,.62,0,1.81,1.81,0,0,0,2-2,1.68,1.68,0,0,0-1.91-1.82,3.49,3.49,0,0,0-.71.06Z" transform="translate(-3.99 -2.93)"/><path class="cls-4" d="M57.06,9a5.94,5.94,0,0,1,1.11-.1,2,2,0,0,1,1.3.34,1,1,0,0,1,.39.83,1.12,1.12,0,0,1-.8,1h0a1.22,1.22,0,0,1,1,1.18,1.27,1.27,0,0,1-.4.95,2.37,2.37,0,0,1-1.63.44,7.26,7.26,0,0,1-.95-.06ZM57.67,11h.55c.64,0,1-.34,1-.79s-.42-.77-1-.77a2.61,2.61,0,0,0-.54,0Zm0,2.26a3.33,3.33,0,0,0,.51,0c.63,0,1.21-.23,1.21-.92s-.55-.91-1.22-.91h-.5Z" transform="translate(-3.99 -2.93)"/><path class="cls-4" d="M61.62,12.21l-.49,1.48h-.63L62.1,9h.74l1.61,4.72h-.65l-.5-1.48Zm1.55-.48-.46-1.36c-.1-.31-.17-.59-.25-.86h0c-.07.28-.15.57-.24.85l-.46,1.37Z" transform="translate(-3.99 -2.93)"/><path class="cls-4" d="M68.33,13.54a3,3,0,0,1-1.25.22,2.21,2.21,0,0,1-2.33-2.39A2.35,2.35,0,0,1,67.22,8.9a2.53,2.53,0,0,1,1.12.21l-.15.5a2.23,2.23,0,0,0-1-.2,1.75,1.75,0,0,0-1.84,1.95,1.72,1.72,0,0,0,1.81,1.9,2.44,2.44,0,0,0,1-.2Z" transform="translate(-3.99 -2.93)"/><path class="cls-4" d="M69.09,9h.61v2.28h0c.13-.18.25-.35.37-.5L71.53,9h.76l-1.71,2,1.84,2.72H71.7l-1.55-2.32-.45.52v1.8h-.61Z" transform="translate(-3.99 -2.93)"/><path class="cls-5" d="M89.7,19.34H23.39V13.43l3.5-2.88-3.5-2.12V2.93H89.7A3.12,3.12,0,0,1,92.82,6V16.22A3.12,3.12,0,0,1,89.7,19.34Z" transform="translate(-3.99 -2.93)"/><path class="cls-6" d="M8.84,6.79" transform="translate(-3.99 -2.93)"/><path class="cls-7" d="M13.33,7.85S12.64,9,8.76,9.22c-2.05.68-1.6,3.88,0,4.34v1.83s.68,1.14,1.37.23V13.78s.68-.46,3.42,1.14A6.19,6.19,0,0,1,13.33,7.85Z" transform="translate(-3.99 -2.93)"/><path class="cls-8" d="M10.59,9c-.57,1-.8,3.77,0,4.79" transform="translate(-3.99 -2.93)"/><path class="cls-8" d="M9,9.57a5.74,5.74,0,0,0,2.73-.25" transform="translate(-3.99 -2.93)"/><path class="cls-9" d="M14.24,10.13v2.51C16.29,12.41,16.07,10.13,14.24,10.13Z" transform="translate(-3.99 -2.93)"/><path class="cls-10" d="M16.41,11.33c0,2.24-.89,4.07-2,4.05s-2.1-1.81-2.1-4.05,1-4.05,2.1-4.05S16.41,9.09,16.41,11.33Z" transform="translate(-3.99 -2.93)"/><line class="cls-11" x1="13.21" y1="5.84" x2="15.04" y2="4.01"/><line class="cls-11" x1="13.86" y1="7.05" x2="16.22" y2="5.99"/><line class="cls-11" x1="13.44" y1="10.7" x2="15.27" y2="12.53"/><line class="cls-11" x1="14.09" y1="9.49" x2="16.45" y2="10.54"/><line class="cls-11" x1="14.13" y1="8.35" x2="16.87" y2="8.35"/><path class="cls-4" d="M38,14.2V9.48h.67l1.51,2.39A13.36,13.36,0,0,1,41,13.4h0c-.06-.63-.07-1.2-.07-1.94v-2h.57V14.2h-.62l-1.5-2.4a15,15,0,0,1-.88-1.58h0c0,.6,0,1.16,0,1.95v2Z" transform="translate(-3.99 -2.93)"/><path class="cls-4" d="M46.66,11.79a2.21,2.21,0,0,1-2.19,2.49,2.16,2.16,0,0,1-2.12-2.4A2.24,2.24,0,0,1,44.53,9.4,2.15,2.15,0,0,1,46.66,11.79ZM43,11.86c0,1,.55,1.91,1.51,1.91s1.51-.89,1.51-2S45.52,9.9,44.51,9.9,43,10.83,43,11.86Z" transform="translate(-3.99 -2.93)"/><path class="cls-4" d="M48.17,10H46.73V9.48h3.49V10H48.78v4.2h-.62Z" transform="translate(-3.99 -2.93)"/><path class="cls-4" d="M51.36,9.48V14.2h-.61V9.48Z" transform="translate(-3.99 -2.93)"/><path class="cls-4" d="M52.42,9.48H55V10H53v1.57h1.79v.5H53V14.2h-.61Z" transform="translate(-3.99 -2.93)"/><path class="cls-4" d="M56.44,9.48V14.2h-.61V9.48Z" transform="translate(-3.99 -2.93)"/><path class="cls-4" d="M60.8,14a3,3,0,0,1-1.25.22,2.21,2.21,0,0,1-2.33-2.39A2.35,2.35,0,0,1,59.69,9.4a2.53,2.53,0,0,1,1.12.21l-.15.5a2.23,2.23,0,0,0-1-.2,1.75,1.75,0,0,0-1.84,1.95,1.72,1.72,0,0,0,1.81,1.9,2.44,2.44,0,0,0,1-.2Z" transform="translate(-3.99 -2.93)"/><path class="cls-4" d="M62.35,12.71l-.49,1.48h-.63l1.6-4.72h.74l1.61,4.72h-.65L64,12.71Zm1.55-.48-.46-1.36c-.11-.31-.17-.59-.25-.86h0c-.07.28-.15.57-.24.85l-.46,1.37Z" transform="translate(-3.99 -2.93)"/><path class="cls-4" d="M66.23,10H64.8V9.48h3.5V10H66.85v4.2h-.62Z" transform="translate(-3.99 -2.93)"/><path class="cls-4" d="M69.43,9.48V14.2h-.61V9.48Z" transform="translate(-3.99 -2.93)"/><path class="cls-4" d="M74.52,11.79a2.21,2.21,0,0,1-2.19,2.49,2.16,2.16,0,0,1-2.12-2.4A2.24,2.24,0,0,1,72.4,9.4,2.15,2.15,0,0,1,74.52,11.79Zm-3.66.08c0,1,.55,1.91,1.51,1.91s1.51-.89,1.51-2S73.39,9.9,72.37,9.9,70.86,10.83,70.86,11.86Z" transform="translate(-3.99 -2.93)"/><path class="cls-4" d="M75.31,14.2V9.48H76l1.51,2.39a13.34,13.34,0,0,1,.85,1.53h0c-.06-.63-.07-1.2-.07-1.94v-2h.57V14.2h-.62l-1.5-2.4a15,15,0,0,1-.88-1.58h0c0,.6,0,1.16,0,1.95v2Z" transform="translate(-3.99 -2.93)"/></svg>