<svg id="Layer_1" data-name="Layer 1" xmlns="http://www.w3.org/2000/svg" viewBox="0 0 15.1 13.41"><defs><style>.cls-1,.cls-2{fill:none;stroke:#fff;stroke-miterlimit:10;}.cls-1{stroke-width:0.1px;}.cls-2{stroke-width:0.05px;}.cls-3{fill:#fff;}</style></defs><title>subjectwise</title><rect class="cls-1" x="2.74" y="8.66" width="10.3" height="4.69"/><rect class="cls-1" x="1.62" y="8.66" width="0.9" height="4.69"/><rect class="cls-1" x="13.25" y="8.66" width="0.22" height="4.69"/><rect class="cls-1" x="0.05" y="8.66" width="1.34" height="4.69"/><rect class="cls-1" x="13.71" y="8.66" width="1.34" height="4.69"/><rect class="cls-1" x="4.19" y="3.71" width="7.39" height="4.69"/><rect class="cls-1" x="3.18" y="3.71" width="0.9" height="4.69"/><rect class="cls-2" x="11.83" y="3.71" width="0.22" height="4.69"/><rect class="cls-1" x="1.62" y="3.71" width="1.34" height="4.69"/><rect class="cls-1" x="12.25" y="3.71" width="1.34" height="4.69"/><polygon class="cls-1" points="8.82 0.63 2.67 2.49 2.58 1.99 8.72 0.13 8.82 0.63"/><polygon class="cls-1" points="8.96 1.39 2.82 3.25 2.72 2.74 8.87 0.89 8.96 1.39"/><polygon class="cls-2" points="2.66 3.31 2.44 3.38 2.2 2.12 2.42 2.05 2.66 3.31"/><path class="cls-1" d="M2.55,5.64l-.28.09A.18.18,0,0,1,2,5.57l-.16-.82A.24.24,0,0,1,2,4.47l.28-.09a.18.18,0,0,1,.23.16l.16.82A.24.24,0,0,1,2.55,5.64Z" transform="translate(-0.45 -2.12)"/><polygon class="cls-1" points="10.23 0.33 9.67 0.84 9.12 1.34 8.99 0.7 8.87 0.06 9.55 0.2 10.23 0.33"/><rect class="cls-3" x="6.82" y="2.62" width="2.51" height="0.9" rx="0.33" ry="0.33"/><rect x="7.35" y="2.62" width="1.45" height="0.9"/></svg>