<svg id="Layer_1" data-name="Layer 1" xmlns="http://www.w3.org/2000/svg" viewBox="0 0 29.81 26.99"><defs><style>.cls-1,.cls-2{fill:none;stroke:#fff;}.cls-1{stroke-miterlimit:10;stroke-width:0.5px;}.cls-2{stroke-linecap:round;stroke-linejoin:round;}</style></defs><title>individual</title><rect class="cls-1" x="5.41" y="17.73" width="19.33" height="9"/><rect class="cls-1" x="25.9" y="17.73" width="0.96" height="9"/><rect class="cls-1" x="3.37" y="17.73" width="0.96" height="9"/><rect class="cls-1" x="0.25" y="17.73" width="1.95" height="9"/><rect class="cls-1" x="27.8" y="17.73" width="1.76" height="9"/><rect class="cls-1" x="8.14" y="7.38" width="13.87" height="9"/><rect class="cls-1" x="23.03" y="7.38" width="0.88" height="9"/><rect class="cls-1" x="24.86" y="7.38" width="1.79" height="9"/><rect class="cls-1" x="3.63" y="7.38" width="0.88" height="9"/><rect class="cls-1" x="5.46" y="7.38" width="1.79" height="9"/><line class="cls-2" x1="13.67" y1="5.54" x2="17.52" y2="5.54"/><polygon class="cls-1" points="16.66 1.28 5.12 4.85 4.94 3.89 16.48 0.32 16.66 1.28"/><polygon class="cls-1" points="16.93 2.73 5.39 6.3 5.21 5.33 16.75 1.77 16.93 2.73"/><polygon class="cls-1" points="5.19 6.36 4.78 6.49 4.32 4.08 4.74 3.95 5.19 6.36"/><path class="cls-1" d="M5.49,9.18,5,9.34a.35.35,0,0,1-.42-.26V9L4.23,7.46a.46.46,0,0,1,.28-.52L5,6.77A.35.35,0,0,1,5.46,7v0l.3,1.58A.46.46,0,0,1,5.49,9.18Z" transform="translate(-1.27 -2.52)"/><polygon class="cls-1" points="16.94 0.33 19.06 0.73 17.31 2.44 16.94 0.33"/></svg>