<svg id="Layer_1" data-name="Layer 1" xmlns="http://www.w3.org/2000/svg" viewBox="0 0 164.98 146.15"><defs><style>.cls-1{fill:#030304;opacity:0.1;}.cls-2{fill:#e53c0d;}.cls-3{fill:#ea5f27;}.cls-4{fill:#fff;}.cls-5{fill:#ddd;}.cls-6{fill:#ff3000;}.cls-7{fill:#dd2703;}.cls-8{fill:#222324;}.cls-9{fill:#2e3030;}.cls-10{fill:#026bb2;}.cls-11{fill:#89d0ef;}.cls-12{fill:#feca09;}.cls-13{fill:#ff9100;}.cls-14{fill:#ffc37b;}.cls-15{fill:#0470ba;}.cls-16{fill:#98dcf4;}.cls-17{fill:#fcaf63;}.cls-18{fill:#3d3e3f;}.cls-19{fill:#d2f7ff;}.cls-20{fill:#231f20;}.cls-21{fill:#fcc383;}.cls-22{fill:#4f230b;}.cls-23{fill:#db1a00;}.cls-24{fill:#ff9045;}</style></defs><title>Subscription 170×170</title><path class="cls-1" d="M83.89,35.29a.67.67,0,0,1,0-.88.53.53,0,0,1,.8,0,.67.67,0,0,1,0,.88.53.53,0,0,1-.8,0" transform="translate(-3.36 -8.26)"/><path class="cls-1" d="M77.71,42.32a.67.67,0,0,1,0-.88.53.53,0,0,1,.8,0,.67.67,0,0,1,0,.88.53.53,0,0,1-.8,0" transform="translate(-3.36 -8.26)"/><path class="cls-2" d="M64.11,78.89s12.59-10.16,24.35,2c0,0,9.8,11.12.1,28.44,0,0-6.17,11.27-22.66,14.85l-.47-3.4L50.52,137.13l18.74,10.75-.7-4.43S96,139.93,105.46,116a32.23,32.23,0,0,0-3-30.46A27.9,27.9,0,0,0,91.71,76.1,34.68,34.68,0,0,0,80.6,72.64a18.14,18.14,0,0,0-4.36,0c-3.41.42-9.63,1.78-12.14,6.24" transform="translate(-3.36 -8.26)"/><path class="cls-3" d="M50.52,137.13l18.74,10.75-.7-4.43S96,139.93,105.46,116a32.23,32.23,0,0,0-3-30.54A27.85,27.85,0,0,0,91.71,76.1a34.67,34.67,0,0,0-11.14-3.46,18.47,18.47,0,0,0-4.58,0c-2.48.32-7.58,1.38-10.38,4.27,0,0,13.08-8.07,25.32,1.78A28.92,28.92,0,0,1,98.39,109c-.09.28-.18.57-.26.86-.71,2.55-7.08,20.29-47.61,27.27" transform="translate(-3.36 -8.26)"/><path class="cls-2" d="M85.84,95.75S74.16,106.9,61.41,95.7c0,0-10.71-10.29-2.52-28.33,0,0,5.19-11.73,21.32-16.63L81,54.08,94.43,36.61,74.85,27.42l1.07,4.36S48.83,37.51,41.48,62.11A32.26,32.26,0,0,0,47,92.22a28.06,28.06,0,0,0,11.54,8.55,34.77,34.77,0,0,0,11.37,2.55,18.11,18.11,0,0,0,4.34-.37c3.36-.69,9.45-2.55,11.57-7.2" transform="translate(-3.36 -8.26)"/><path class="cls-3" d="M94.43,36.61,74.85,27.42l1.07,4.36S48.83,37.51,41.48,62.11A32.26,32.26,0,0,0,47.09,92.3a28,28,0,0,0,11.47,8.47A34.76,34.76,0,0,0,70,103.32a18.45,18.45,0,0,0,4.56-.4c2.45-.52,7.44-2,10-5.09,0,0-12.35,9.1-25.38.27a29,29,0,0,1-10-29.58c.07-.29.13-.58.18-.88.49-2.6,5.34-20.79,45.13-31" transform="translate(-3.36 -8.26)"/><path class="cls-4" d="M73.18,75.16c7.29-1,14,3.86,14.91,10.76s-4.19,13.26-11.47,14.22-14-3.86-14.91-10.76S65.9,76.11,73.18,75.16" transform="translate(-3.36 -8.26)"/><path class="cls-3" d="M78.11,78.42l-4,1.38c-1.57.54-2.89,1-2.91,1a4.09,4.09,0,0,0,.9.15l1.1.14c.1,0-.37.62-1.19,1.52-2.37,2.64-3.31,4.85-2.9,6.84a2.69,2.69,0,0,0,3.48,2.34A9.28,9.28,0,0,0,75.93,90a15.8,15.8,0,0,1,2.75-1.86c.35,0-.83,1.91-2.16,3.6a22.51,22.51,0,0,1-2.11,2.15c-1.48,1.33-1.68,1.67-1.06,1.73.25,0,.56-.19,1.67-1.15.76-.64,1.38-1.22,1.42-1.28s.53-.2.54-.07a3.48,3.48,0,0,1-.47.76,1.71,1.71,0,0,0-.41.86c.14.38.51.2,1.27-.63a4.09,4.09,0,0,1,.84-.78.86.86,0,0,1,0,.41c-.06.37.09.64.35.6a5.82,5.82,0,0,0,1.59-1.88A7.19,7.19,0,0,0,81,87.74c-.49-1.71-1.54-2.52-2.84-2.17a9.18,9.18,0,0,0-2.84,1.71A11,11,0,0,1,72,89.5c-.48.16-.81,0-.87-.5a2.17,2.17,0,0,1,.68-1.54,46.76,46.76,0,0,1,4.3-4.32,3.94,3.94,0,0,1,.46.89l.34.81.93-2.55c.51-1.4,1.08-2.95,1.25-3.44a2.24,2.24,0,0,0,.23-.85l-1.23.42" transform="translate(-3.36 -8.26)"/><path class="cls-3" d="M77.39,95.12c-.49.5-.51.85-.06.79s1.07-.88,1-1.08-.46-.2-.94.3" transform="translate(-3.36 -8.26)"/><path class="cls-3" d="M71.85,96.26c-.43.45-.46.78-.09.79s1.18-.92,1.05-1.12-.51-.15-1,.33" transform="translate(-3.36 -8.26)"/><path class="cls-3" d="M74.85,95.87c-.46.47-.53.81-.18.87s1.21-1,1.08-1.19-.41-.17-.9.32" transform="translate(-3.36 -8.26)"/><path class="cls-5" d="M139.59,43.32a12.84,12.84,0,0,0-16.45,8.21,13.4,13.4,0,0,0,8.06,16.89,12.84,12.84,0,0,0,16.45-8.21,13.4,13.4,0,0,0-8.06-16.89Z" transform="translate(-3.36 -8.26)"/><path class="cls-6" d="M130.3,54.06a5.58,5.58,0,0,0,3.36,7l-1.09,3.26a9.07,9.07,0,0,1-5.46-11.42,8.7,8.7,0,0,1,11.13-5.56l-1.09,3.26a5.35,5.35,0,0,0-6.85,3.42Z" transform="translate(-3.36 -8.26)"/><path class="cls-6" d="M124.58,52A11.85,11.85,0,0,0,131.7,67l-1.09,3.26a15.33,15.33,0,0,1-9.22-19.31,14.7,14.7,0,0,1,18.8-9.39l-1.09,3.26A11.36,11.36,0,0,0,124.58,52Z" transform="translate(-3.36 -8.26)"/><path class="cls-6" d="M136.3,53.17l-1.8,5.4a2.88,2.88,0,0,1-1.74-3.63,2.76,2.76,0,0,1,3.54-1.77Z" transform="translate(-3.36 -8.26)"/><path class="cls-7" d="M138,56.81a2.77,2.77,0,0,1-3.54,1.76l1.8-5.4A2.89,2.89,0,0,1,138,56.81Z" transform="translate(-3.36 -8.26)"/><path class="cls-7" d="M143.69,58.8a8.69,8.69,0,0,1-11.12,5.56l1.09-3.26a5.35,5.35,0,0,0,6.85-3.43,5.58,5.58,0,0,0-3.36-7l1.09-3.26a9.07,9.07,0,0,1,5.45,11.42Z" transform="translate(-3.36 -8.26)"/><path class="cls-7" d="M149.41,60.83a14.69,14.69,0,0,1-18.8,9.39L131.7,67a11.36,11.36,0,0,0,14.53-7.26,11.85,11.85,0,0,0-7.12-14.92l1.09-3.26a15.34,15.34,0,0,1,9.21,19.31Z" transform="translate(-3.36 -8.26)"/><path class="cls-8" d="M73.71,73.42S75,74.59,75.51,75l-.2.36L73,74.25l-.74-.62-.42-.2-.12.21-1.24-.59.52-.93Z" transform="translate(-3.36 -8.26)"/><path class="cls-8" d="M98.61,67.22s1.66-.21,2.27-.33l.36.37-1.86,1-.9.15-.33.18.22.22-1,.54-.95-1Z" transform="translate(-3.36 -8.26)"/><path class="cls-9" d="M82.79,58.09s10.87,2.23,15.82,9.13l-2.18,1.2S86.07,59,79.73,63.37c0,0-.65,7.07-6,10.06L71,72.12s6-6.85,1.55-12.19Z" transform="translate(-3.36 -8.26)"/><path class="cls-10" d="M71.13,44.19s-3.85.22-3.91,2.3c0,0-.26,5.48,5.34,12.27l11.85-.67C84,53.7,81.19,41.71,76.27,42.92l-5.14,1.26Z" transform="translate(-3.36 -8.26)"/><polygon class="cls-11" points="34.84 47.08 42.35 51.81 28.44 52.78 20.94 48.05 34.84 47.08"/><polygon class="cls-10" points="31.48 47.32 38.98 52.05 42.35 51.81 34.84 47.08 31.48 47.32"/><polygon class="cls-10" points="26.2 47.69 33.71 52.41 37.08 52.18 29.57 47.45 26.2 47.69"/><polygon class="cls-11" points="39.51 60.05 43.33 54.54 29.42 55.51 25.6 61.03 39.51 60.05"/><polygon class="cls-10" points="30.87 60.66 34.69 55.14 38.06 54.9 34.24 60.42 30.87 60.66"/><polygon class="cls-12" points="27.79 54.23 120.33 47.76 119.84 46.4 27.3 52.86 27.79 54.23"/><polygon class="cls-13" points="28.28 55.59 120.82 49.12 120.33 47.76 27.79 54.23 28.28 55.59"/><polygon class="cls-10" points="20.94 48.05 28.44 52.78 31.81 52.55 24.31 47.82 20.94 48.05"/><polygon class="cls-10" points="36.14 60.29 39.96 54.77 43.33 54.54 39.51 60.05 36.14 60.29"/><polygon class="cls-10" points="25.6 61.03 29.42 55.51 32.79 55.27 28.97 60.79 25.6 61.03"/><polygon class="cls-8" points="132.27 46.92 117.86 52.04 114.97 44.02 132.27 46.92"/><path class="cls-14" d="M92.84,37.41c.26-.2-.21-.57-.46-.38L91.19,38l-.07-.07,1.45-1.28c.28-.25-.36-.71-.57-.42l-1.42,1.26-.12-.09s-.06.08,1.4-1.51c.25-.27-.35-.66-.61-.39C89.79,37.07,89.89,37,89.87,37l-.09-.06,1.05-1.48c.21-.3-.43-.64-.64-.35l-1,1.47s-.51.58-.7.6c-.37,0,0-.88-.15-1.37a.55.55,0,0,0-.62-.42s0,.27,0,.62c-.06.7-.61,1.31-.09,2.19.21.35,0,.59-.5,1.3l1.58,1.13a2.22,2.22,0,0,0,.88-.66c.59.29,1.53-.68,1.76-1.3h0Z" transform="translate(-3.36 -8.26)"/><path class="cls-15" d="M76.79,42.92s6.58-.22,10.3-4.33L90.18,40S88.41,45.3,78.48,47Z" transform="translate(-3.36 -8.26)"/><path class="cls-14" d="M78.38,62.06,78,60.62,74,57.9l-1.33,1.22,1.2,1.34c0,.08.32,1.46.34,1.54.13.56,1.18.58,1,0,.13.56,1.17.58,1,0,.13.56,1.17.58,1,0,.13.56,1.17.58,1,0Z" transform="translate(-3.36 -8.26)"/><path class="cls-15" d="M70.3,53.66,75,58.37l-2,1.44L66.21,54.1c.13-5.54.2-6.85.88-8.15,1.25-2.38,4-.88,4.33,2.55.2,2.46-.78,4-1.11,5.15Z" transform="translate(-3.36 -8.26)"/><path class="cls-14" d="M75.71,59.06a31,31,0,0,0,3.22.88s.08,1.13-2.13.25Z" transform="translate(-3.36 -8.26)"/><polygon class="cls-16" points="68.69 34.97 74.09 33.98 72.79 36.81 68.69 34.97"/><polygon class="cls-17" points="74.63 36.92 70.62 37.4 68.72 32.98 72.73 32.5 74.63 36.92"/><polygon class="cls-18" points="73.96 36.65 71.59 36.98 71.25 37.83 72.8 38.96 74.6 38.71 74.99 37.31 73.96 36.65"/><polygon class="cls-18" points="74.6 38.71 72.8 38.96 74.61 44.69 77.27 46.64 77.94 44.24 74.6 38.71"/><polygon class="cls-19" points="72.79 36.81 71.18 39.52 67.5 35.9 68.69 34.97 72.79 36.81"/><polygon class="cls-19" points="75.77 34.27 76.37 38.26 72.79 36.81 74.09 33.98 75.77 34.27"/><path class="cls-20" d="M77.37,28.22s-2.78-6.68-12.75-5.1C50.37,25.38,60.33,38,64.88,38.9l2.87-.45,12-2.23Z" transform="translate(-3.36 -8.26)"/><path class="cls-21" d="M63.76,34.17c-3.79-3-2.73,3.76,1.61,3.3,0,0,2.38,5.2,9.74,4,6.34-1,4-7.56,2.87-9a7.38,7.38,0,0,0-2.13-4.09l-4.09,2.45-7.68-.6,1.11,3.64Z" transform="translate(-3.36 -8.26)"/><path class="cls-22" d="M67.19,32.16a3.07,3.07,0,0,1,1.45-.32,2,2,0,0,0-1.93-.2A1,1,0,0,0,66.25,33a2,2,0,0,1,.94-.87Z" transform="translate(-3.36 -8.26)"/><path class="cls-22" d="M74.65,31a3.44,3.44,0,0,0-1.53.15,1.3,1.3,0,0,1,1.47-.74,2.08,2.08,0,0,1,1.64,1.06A4.32,4.32,0,0,0,74.65,31Z" transform="translate(-3.36 -8.26)"/><path class="cls-23" d="M75.48,38.47A1.58,1.58,0,0,1,74,39.94a3.23,3.23,0,0,1-2.61-.82Z" transform="translate(-3.36 -8.26)"/><path class="cls-4" d="M75.3,37.7a1.69,1.69,0,0,1,.18.77l-4.1.65a2.37,2.37,0,0,1-.54-.71Z" transform="translate(-3.36 -8.26)"/><path class="cls-24" d="M73.15,36.46a3.84,3.84,0,0,1-1.28,0,1.77,1.77,0,0,0,1.51.47c.56-.09.9-.44.87-.84a2.83,2.83,0,0,1-1.09.38Z" transform="translate(-3.36 -8.26)"/><path class="cls-4" d="M69.78,34.87l-3.34.53a1.19,1.19,0,0,1,1.14-1.35,2.48,2.48,0,0,1,2.2.82Z" transform="translate(-3.36 -8.26)"/><path class="cls-20" d="M69.43,34.93l-2.11.33a.75.75,0,0,1,.61-1.09,1.57,1.57,0,0,1,1.51.75Z" transform="translate(-3.36 -8.26)"/><path class="cls-4" d="M67.82,34.55a.27.27,0,0,1-.23.4.55.55,0,0,1-.56-.27.27.27,0,0,1,.23-.4.56.56,0,0,1,.56.27Z" transform="translate(-3.36 -8.26)"/><path class="cls-4" d="M76.67,33.78l-3.34.53A1.19,1.19,0,0,1,74.48,33a2.48,2.48,0,0,1,2.2.82Z" transform="translate(-3.36 -8.26)"/><path class="cls-20" d="M76.33,33.83l-2.11.34a.75.75,0,0,1,.61-1.09,1.57,1.57,0,0,1,1.51.75Z" transform="translate(-3.36 -8.26)"/><path class="cls-4" d="M74.72,33.46a.27.27,0,0,1-.24.4.55.55,0,0,1-.55-.27.27.27,0,0,1,.23-.4.56.56,0,0,1,.56.27Z" transform="translate(-3.36 -8.26)"/><path d="M102.3,8.6l-.95,1.25v0l1.51-.2v.68l-1.51-.18v0l1,1.2-.63.36-.6-1.4h0l-.65,1.41-.57-.36.95-1.22v0l-1.48.19V9.67l1.47.19v0l-.94-1.22.61-.35.62,1.39h0l.61-1.4Z" transform="translate(-3.36 -8.26)"/><path d="M106,8.45a10.08,10.08,0,0,1,1.67-.13,2.77,2.77,0,0,1,1.89.56,1.81,1.81,0,0,1,.59,1.41,2,2,0,0,1-.52,1.44,2.79,2.79,0,0,1-2.06.74,3,3,0,0,1-.7-.06v2.7H106Zm.87,3.25a2.92,2.92,0,0,0,.72.07c1,0,1.69-.51,1.69-1.44S108.7,9,107.74,9a3.64,3.64,0,0,0-.82.07Z" transform="translate(-3.36 -8.26)"/><path d="M111.18,11.78c0-.57,0-1.06,0-1.51h.77l0,.95h0a1.45,1.45,0,0,1,1.34-1.06,1,1,0,0,1,.25,0V11a1.32,1.32,0,0,0-.3,0,1.23,1.23,0,0,0-1.18,1.13,2.42,2.42,0,0,0,0,.41V15.1h-.87Z" transform="translate(-3.36 -8.26)"/><path d="M118.72,12.65a2.36,2.36,0,0,1-2.41,2.57A2.3,2.3,0,0,1,114,12.73a2.36,2.36,0,0,1,2.4-2.57A2.29,2.29,0,0,1,118.72,12.65Zm-3.84,0c0,1.06.61,1.86,1.47,1.86s1.47-.79,1.47-1.88c0-.82-.41-1.86-1.45-1.86S114.89,11.78,114.89,12.7Z" transform="translate(-3.36 -8.26)"/><path d="M119.84,11.58c0-.5,0-.91,0-1.31h.77l0,.78h0a1.67,1.67,0,0,1,1.52-.89,1.43,1.43,0,0,1,1.37,1h0a2,2,0,0,1,.54-.63,1.65,1.65,0,0,1,1.07-.34c.64,0,1.59.42,1.59,2.1V15.1h-.86V12.37c0-.93-.34-1.49-1-1.49a1.14,1.14,0,0,0-1,.8,1.45,1.45,0,0,0-.07.44v3h-.86v-2.9c0-.77-.34-1.33-1-1.33a1.2,1.2,0,0,0-1.09.88,1.22,1.22,0,0,0-.07.43V15.1h-.86Z" transform="translate(-3.36 -8.26)"/><path d="M129.16,8.91a.54.54,0,0,1-1.09,0,.54.54,0,0,1,.55-.55A.52.52,0,0,1,129.16,8.91Zm-1,6.2V10.27h.88V15.1Z" transform="translate(-3.36 -8.26)"/><path d="M130.4,14.21a2.3,2.3,0,0,0,1.16.35c.64,0,.94-.32.94-.72s-.25-.65-.9-.89c-.87-.31-1.28-.79-1.28-1.37A1.49,1.49,0,0,1,132,10.16a2.42,2.42,0,0,1,1.19.3l-.22.64a1.88,1.88,0,0,0-1-.28c-.52,0-.81.3-.81.66s.29.58.92.82c.84.32,1.27.74,1.27,1.46s-.66,1.45-1.81,1.45a2.75,2.75,0,0,1-1.36-.33Z" transform="translate(-3.36 -8.26)"/><path d="M135.46,8.91a.54.54,0,0,1-1.09,0,.54.54,0,0,1,.55-.55A.52.52,0,0,1,135.46,8.91Zm-1,6.2V10.27h.88V15.1Z" transform="translate(-3.36 -8.26)"/><path d="M136.82,11.58c0-.5,0-.91,0-1.31h.78l0,.8h0a1.78,1.78,0,0,1,1.6-.91c.67,0,1.71.4,1.71,2.06V15.1h-.88V12.32c0-.78-.29-1.43-1.12-1.43a1.25,1.25,0,0,0-1.18.9,1.27,1.27,0,0,0-.06.41V15.1h-.88Z" transform="translate(-3.36 -8.26)"/><path d="M146.53,10.27c0,.35,0,.74,0,1.33v2.81a2.78,2.78,0,0,1-.69,2.21,2.56,2.56,0,0,1-1.76.58,3.13,3.13,0,0,1-1.61-.4l.22-.67a2.73,2.73,0,0,0,1.42.38c.9,0,1.56-.47,1.56-1.69v-.54h0a1.73,1.73,0,0,1-1.54.81A2.16,2.16,0,0,1,142,12.73a2.32,2.32,0,0,1,2.18-2.57,1.61,1.61,0,0,1,1.51.84h0l0-.73Zm-.91,1.91a1.25,1.25,0,0,0,0-.4,1.27,1.27,0,0,0-1.23-.93c-.84,0-1.44.71-1.44,1.83,0,.95.48,1.74,1.43,1.74a1.29,1.29,0,0,0,1.22-.9,1.53,1.53,0,0,0,.07-.47Z" transform="translate(-3.36 -8.26)"/><path d="M112.14,20.46a8.45,8.45,0,0,1,1.59-.14,2.78,2.78,0,0,1,1.85.49,1.41,1.41,0,0,1,.56,1.19A1.6,1.6,0,0,1,115,23.48v0a1.74,1.74,0,0,1,1.39,1.69,1.81,1.81,0,0,1-.57,1.35,3.38,3.38,0,0,1-2.33.63,10.13,10.13,0,0,1-1.35-.08Zm.87,2.76h.79c.92,0,1.46-.48,1.46-1.13s-.6-1.1-1.48-1.1A3.74,3.74,0,0,0,113,21Zm0,3.23a4.67,4.67,0,0,0,.73,0c.9,0,1.73-.33,1.73-1.31s-.79-1.3-1.74-1.3H113Z" transform="translate(-3.36 -8.26)"/><path d="M118.06,24.85a1.55,1.55,0,0,0,1.66,1.68,3.18,3.18,0,0,0,1.34-.25l.15.63a3.92,3.92,0,0,1-1.61.3,2.25,2.25,0,0,1-2.38-2.44,2.35,2.35,0,0,1,2.27-2.61,2,2,0,0,1,2,2.28,3.35,3.35,0,0,1,0,.41Zm2.58-.63a1.25,1.25,0,0,0-1.22-1.43,1.46,1.46,0,0,0-1.35,1.43Z" transform="translate(-3.36 -8.26)"/><path d="M122.58,20h.88v7.1h-.88Z" transform="translate(-3.36 -8.26)"/><path d="M129.31,24.65a2.36,2.36,0,0,1-2.41,2.57,2.3,2.3,0,0,1-2.32-2.49,2.36,2.36,0,0,1,2.4-2.57A2.29,2.29,0,0,1,129.31,24.65Zm-3.84,0c0,1.06.61,1.86,1.47,1.86s1.47-.79,1.47-1.88c0-.82-.41-1.86-1.45-1.86S125.48,23.78,125.48,24.7Z" transform="translate(-3.36 -8.26)"/><path d="M130.71,22.27l.64,2.46c.14.54.27,1,.36,1.54h0c.11-.49.27-1,.43-1.53l.79-2.47h.74l.75,2.42c.18.58.32,1.09.43,1.58h0a14.53,14.53,0,0,1,.37-1.57l.69-2.43h.87l-1.56,4.84h-.8l-.74-2.31a16.19,16.19,0,0,1-.43-1.59h0a14.34,14.34,0,0,1-.44,1.6l-.78,2.3h-.8l-1.46-4.84Z" transform="translate(-3.36 -8.26)"/><path d="M97.62,39.1v-.54l.69-.67c1.66-1.58,2.41-2.42,2.42-3.4a1.16,1.16,0,0,0-1.29-1.27,2.21,2.21,0,0,0-1.38.55l-.28-.62a2.85,2.85,0,0,1,1.84-.66,1.83,1.83,0,0,1,2,1.89c0,1.2-.87,2.17-2.24,3.49l-.52.48v0h2.92v.73Z" transform="translate(-3.36 -8.26)"/><path d="M106.63,33.35h-2.48L103.9,35a3.46,3.46,0,0,1,.53,0,2.75,2.75,0,0,1,1.4.35,1.85,1.85,0,0,1,.93,1.67,2.25,2.25,0,0,1-2.42,2.22,3.18,3.18,0,0,1-1.62-.4l.22-.67a2.92,2.92,0,0,0,1.39.36,1.43,1.43,0,0,0,1.54-1.41c0-.84-.57-1.44-1.87-1.44a6.66,6.66,0,0,0-.9.07l.42-3.12h3.11Z" transform="translate(-3.36 -8.26)"/><path d="M108.19,32.37h.87v3.25h0c.18-.26.36-.5.53-.72l2.06-2.53h1.08l-2.44,2.86,2.63,3.88h-1L109.7,35.8l-.64.74V39.1h-.87Z" transform="translate(-3.36 -8.26)"/><path d="M117.11,32.37H118v4.51c0,1.79-.88,2.34-2,2.34a2.82,2.82,0,0,1-.93-.16l.13-.71a2.06,2.06,0,0,0,.73.13c.78,0,1.24-.35,1.24-1.67Z" transform="translate(-3.36 -8.26)"/><path d="M122.92,35.95H120.3v2.43h2.92v.73h-3.79V32.37h3.64v.73H120.3v2.13h2.62Z" transform="translate(-3.36 -8.26)"/><path d="M127.84,35.95h-2.62v2.43h2.92v.73h-3.79V32.37H128v.73h-2.77v2.13h2.62Z" transform="translate(-3.36 -8.26)"/><path d="M131.39,32.46a9.06,9.06,0,0,1,1.67-.14,2.76,2.76,0,0,1,1.95.55,1.68,1.68,0,0,1,.53,1.28,1.77,1.77,0,0,1-1.27,1.72v0a1.68,1.68,0,0,1,1,1.36,10.74,10.74,0,0,0,.52,1.85h-.9a8.73,8.73,0,0,1-.45-1.61c-.2-.93-.56-1.28-1.35-1.31h-.82V39.1h-.87Zm.87,3.07h.89c.93,0,1.52-.51,1.52-1.28S134,33,133.12,33a3.58,3.58,0,0,0-.86.08Z" transform="translate(-3.36 -8.26)"/><path d="M139.54,39.1l-.07-.61h0a1.8,1.8,0,0,1-1.48.72,1.38,1.38,0,0,1-1.48-1.39c0-1.17,1-1.81,2.91-1.8v-.1a1,1,0,0,0-1.1-1.12,2.41,2.41,0,0,0-1.26.36l-.2-.58a3,3,0,0,1,1.59-.43c1.48,0,1.84,1,1.84,2v1.81a6.85,6.85,0,0,0,.08,1.16Zm-.13-2.47c-1,0-2,.15-2,1.09a.78.78,0,0,0,.83.84,1.2,1.2,0,0,0,1.17-.81.91.91,0,0,0,0-.28Z" transform="translate(-3.36 -8.26)"/><path d="M141.68,35.58c0-.5,0-.91,0-1.31h.78l0,.8h0a1.78,1.78,0,0,1,1.6-.91c.67,0,1.71.4,1.71,2.06V39.1h-.88V36.32c0-.78-.29-1.43-1.12-1.43a1.25,1.25,0,0,0-1.18.9,1.27,1.27,0,0,0-.06.41V39.1h-.88Z" transform="translate(-3.36 -8.26)"/><path d="M148.1,36.49h0c.12-.17.29-.38.43-.55L150,34.27H151l-1.87,2,2.13,2.85h-1.07l-1.67-2.32-.45.5V39.1h-.87V32h.87Z" transform="translate(-3.36 -8.26)"/><path d="M111,86.74,110,88v0l1.51-.2v.68L110,88.31v0l1,1.2-.63.36-.6-1.4h0l-.65,1.41-.57-.36.95-1.22v0l-1.48.19v-.68l1.47.19v0l-.94-1.22.61-.35.62,1.39h0l.61-1.4Z" transform="translate(-3.36 -8.26)"/><path d="M114.71,86.59a10.15,10.15,0,0,1,1.67-.13,2.77,2.77,0,0,1,1.89.56,1.81,1.81,0,0,1,.59,1.41,2,2,0,0,1-.52,1.44,2.79,2.79,0,0,1-2.06.74,3,3,0,0,1-.7-.06v2.7h-.87Zm.87,3.25a2.93,2.93,0,0,0,.72.07c1,0,1.69-.51,1.69-1.44s-.63-1.32-1.59-1.32a3.65,3.65,0,0,0-.82.07Z" transform="translate(-3.36 -8.26)"/><path d="M119.84,89.92c0-.57,0-1.06,0-1.51h.77l0,.95h0A1.45,1.45,0,0,1,122,88.3a.93.93,0,0,1,.25,0v.83a1.35,1.35,0,0,0-.3,0,1.23,1.23,0,0,0-1.18,1.13,2.53,2.53,0,0,0,0,.41v2.58h-.87Z" transform="translate(-3.36 -8.26)"/><path d="M127.39,90.79A2.36,2.36,0,0,1,125,93.35a2.3,2.3,0,0,1-2.32-2.49,2.36,2.36,0,0,1,2.4-2.57A2.29,2.29,0,0,1,127.39,90.79Zm-3.84,0c0,1.06.61,1.86,1.47,1.86s1.47-.79,1.47-1.88c0-.82-.41-1.86-1.45-1.86S123.55,89.92,123.55,90.84Z" transform="translate(-3.36 -8.26)"/><path d="M128.5,89.72c0-.5,0-.91,0-1.31h.77l0,.78h0a1.67,1.67,0,0,1,1.52-.89,1.43,1.43,0,0,1,1.37,1h0a2,2,0,0,1,.54-.63,1.65,1.65,0,0,1,1.07-.34c.64,0,1.59.42,1.59,2.1v2.85h-.86V90.51c0-.93-.34-1.49-1-1.49a1.14,1.14,0,0,0-1,.8,1.44,1.44,0,0,0-.07.44v3h-.86v-2.9c0-.77-.34-1.33-1-1.33a1.31,1.31,0,0,0-1.16,1.31v2.92h-.86Z" transform="translate(-3.36 -8.26)"/><path d="M137.82,87a.54.54,0,0,1-1.09,0,.54.54,0,0,1,.55-.55A.52.52,0,0,1,137.82,87Zm-1,6.2V88.41h.88v4.84Z" transform="translate(-3.36 -8.26)"/><path d="M139.06,92.34a2.3,2.3,0,0,0,1.16.35c.64,0,.94-.32.94-.72s-.25-.65-.9-.89c-.87-.31-1.28-.79-1.28-1.37a1.49,1.49,0,0,1,1.67-1.42,2.43,2.43,0,0,1,1.19.3l-.22.64a1.88,1.88,0,0,0-1-.28c-.52,0-.81.3-.81.66s.29.58.92.82c.84.32,1.27.74,1.27,1.46s-.66,1.45-1.81,1.45a2.76,2.76,0,0,1-1.36-.33Z" transform="translate(-3.36 -8.26)"/><path d="M144.12,87A.54.54,0,0,1,143,87a.54.54,0,0,1,.55-.55A.52.52,0,0,1,144.12,87Zm-1,6.2V88.41H144v4.84Z" transform="translate(-3.36 -8.26)"/><path d="M145.48,89.72c0-.5,0-.91,0-1.31h.78l0,.8h0a1.78,1.78,0,0,1,1.6-.91c.67,0,1.71.4,1.71,2.06v2.89h-.88V90.46c0-.78-.29-1.43-1.12-1.43a1.25,1.25,0,0,0-1.18.9,1.27,1.27,0,0,0-.06.41v2.91h-.88Z" transform="translate(-3.36 -8.26)"/><path d="M155.2,88.41c0,.35,0,.74,0,1.33v2.81a2.78,2.78,0,0,1-.69,2.21,2.57,2.57,0,0,1-1.76.58,3.12,3.12,0,0,1-1.61-.4l.22-.67a2.73,2.73,0,0,0,1.42.38c.9,0,1.56-.47,1.56-1.69v-.54h0a1.73,1.73,0,0,1-1.54.81,2.16,2.16,0,0,1-2.06-2.36,2.32,2.32,0,0,1,2.18-2.57,1.61,1.61,0,0,1,1.51.84h0l0-.73Zm-.91,1.91a1.25,1.25,0,0,0,0-.4A1.27,1.27,0,0,0,153,89c-.84,0-1.44.71-1.44,1.83,0,1,.48,1.74,1.43,1.74a1.29,1.29,0,0,0,1.22-.9,1.54,1.54,0,0,0,.07-.47Z" transform="translate(-3.36 -8.26)"/><path d="M163.12,90.79a2.36,2.36,0,0,1-2.41,2.57,2.3,2.3,0,0,1-2.32-2.49,2.36,2.36,0,0,1,2.4-2.57A2.29,2.29,0,0,1,163.12,90.79Zm-3.84,0c0,1.06.61,1.86,1.47,1.86s1.47-.79,1.47-1.88c0-.82-.41-1.86-1.45-1.86S159.28,89.92,159.28,90.84Z" transform="translate(-3.36 -8.26)"/><path d="M164.23,89.72c0-.5,0-.91,0-1.31H165l0,.8h0a1.78,1.78,0,0,1,1.6-.91c.67,0,1.71.4,1.71,2.06v2.89h-.88V90.46c0-.78-.29-1.43-1.12-1.43a1.25,1.25,0,0,0-1.18.9,1.27,1.27,0,0,0-.06.41v2.91h-.88Z" transform="translate(-3.36 -8.26)"/><path d="M115.07,98.6a8.49,8.49,0,0,1,1.59-.14,2.78,2.78,0,0,1,1.85.49,1.41,1.41,0,0,1,.56,1.19,1.6,1.6,0,0,1-1.14,1.48v0a1.73,1.73,0,0,1,1.39,1.69,1.82,1.82,0,0,1-.57,1.35,3.38,3.38,0,0,1-2.33.63,10.13,10.13,0,0,1-1.35-.08Zm.87,2.76h.79c.92,0,1.46-.48,1.46-1.13s-.6-1.1-1.48-1.1a3.79,3.79,0,0,0-.77.06Zm0,3.23a4.73,4.73,0,0,0,.73,0c.9,0,1.73-.33,1.73-1.31s-.79-1.3-1.74-1.3h-.72Z" transform="translate(-3.36 -8.26)"/><path d="M124.88,102.79a2.36,2.36,0,0,1-2.41,2.57,2.3,2.3,0,0,1-2.32-2.49,2.36,2.36,0,0,1,2.4-2.57A2.29,2.29,0,0,1,124.88,102.79Zm-3.84,0c0,1.06.61,1.86,1.47,1.86s1.47-.79,1.47-1.88c0-.82-.41-1.86-1.45-1.86S121,101.92,121,102.84Z" transform="translate(-3.36 -8.26)"/><path d="M126,101.72c0-.5,0-.91,0-1.31h.78l0,.8h0a1.78,1.78,0,0,1,1.6-.91c.67,0,1.71.4,1.71,2.06v2.89h-.88v-2.79c0-.78-.29-1.43-1.12-1.43a1.25,1.25,0,0,0-1.18.9,1.27,1.27,0,0,0-.06.41v2.91H126Z" transform="translate(-3.36 -8.26)"/><path d="M135.72,98.15V104c0,.43,0,.92,0,1.25H135l0-.84h0a1.79,1.79,0,0,1-1.65.95,2.21,2.21,0,0,1-2.07-2.46,2.31,2.31,0,0,1,2.17-2.6,1.62,1.62,0,0,1,1.46.74h0V98.15Zm-.88,4.23a1.54,1.54,0,0,0,0-.37,1.29,1.29,0,0,0-1.27-1c-.91,0-1.45.8-1.45,1.87s.48,1.79,1.43,1.79a1.32,1.32,0,0,0,1.29-1,1.52,1.52,0,0,0,0-.38Z" transform="translate(-3.36 -8.26)"/><path d="M139.33,98.59a10.13,10.13,0,0,1,1.67-.13,2.77,2.77,0,0,1,1.89.56,1.81,1.81,0,0,1,.59,1.41,2,2,0,0,1-.52,1.44,2.79,2.79,0,0,1-2.06.74,3,3,0,0,1-.7-.06v2.7h-.87Zm.87,3.25a2.92,2.92,0,0,0,.72.07c1,0,1.69-.51,1.69-1.44S142,99.15,141,99.15a3.63,3.63,0,0,0-.82.07Z" transform="translate(-3.36 -8.26)"/><path d="M147,105.24l-.07-.61h0a1.8,1.8,0,0,1-1.48.72A1.38,1.38,0,0,1,144,104c0-1.17,1-1.81,2.91-1.8v-.1a1,1,0,0,0-1.1-1.12,2.41,2.41,0,0,0-1.26.36l-.2-.58a3,3,0,0,1,1.59-.43c1.48,0,1.84,1,1.84,2v1.81a6.84,6.84,0,0,0,.08,1.16Zm-.13-2.47c-1,0-2,.15-2,1.09a.78.78,0,0,0,.83.84,1.2,1.2,0,0,0,1.17-.81.92.92,0,0,0,0-.28Z" transform="translate(-3.36 -8.26)"/><path d="M149.18,102c0-.62,0-1.12,0-1.58h.79l0,.83h0a1.9,1.9,0,0,1,1.72-.94,2.19,2.19,0,0,1,2,2.46c0,1.74-1.06,2.6-2.2,2.6a1.7,1.7,0,0,1-1.49-.76h0v2.63h-.87Zm.87,1.29a2,2,0,0,0,0,.36,1.36,1.36,0,0,0,1.32,1c.93,0,1.47-.76,1.47-1.87s-.51-1.8-1.44-1.8a1.4,1.4,0,0,0-1.33,1.09,1.42,1.42,0,0,0-.06.36Z" transform="translate(-3.36 -8.26)"/><path d="M155.36,103a1.55,1.55,0,0,0,1.66,1.68,3.18,3.18,0,0,0,1.34-.25l.15.63a3.93,3.93,0,0,1-1.61.3,2.25,2.25,0,0,1-2.38-2.44,2.35,2.35,0,0,1,2.27-2.61,2,2,0,0,1,2,2.28,3.38,3.38,0,0,1,0,.41Zm2.58-.63a1.25,1.25,0,0,0-1.22-1.43,1.46,1.46,0,0,0-1.35,1.43Z" transform="translate(-3.36 -8.26)"/><path d="M159.88,101.92c0-.57,0-1.06,0-1.51h.77l0,.95h0A1.45,1.45,0,0,1,162,100.3a.93.93,0,0,1,.25,0v.83a1.35,1.35,0,0,0-.3,0,1.23,1.23,0,0,0-1.18,1.13,2.42,2.42,0,0,0,0,.41v2.58h-.87Z" transform="translate(-3.36 -8.26)"/><path d="M9.55,121.69l-.93,1.25v0l1.47-.2v.68l-1.47-.18v0l.94,1.2-.62.36-.59-1.4h0l-.63,1.41-.56-.36.93-1.22v0l-1.45.19v-.68l1.44.19v0l-.92-1.22.6-.35.61,1.39h0l.6-1.4Z" transform="translate(-3.36 -8.26)"/><path d="M13.21,128.2v-6.74h.93l2.11,3.41a19.18,19.18,0,0,1,1.18,2.19h0c-.08-.9-.1-1.72-.1-2.77v-2.82h.8v6.74h-.86l-2.09-3.42A21.58,21.58,0,0,1,14,122.53h0c0,.85.07,1.66.07,2.78v2.88Z" transform="translate(-3.36 -8.26)"/><path d="M23.88,125.74a2.34,2.34,0,0,1-2.35,2.57,2.28,2.28,0,0,1-2.27-2.49,2.34,2.34,0,0,1,2.34-2.57A2.27,2.27,0,0,1,23.88,125.74Zm-3.75.05c0,1.06.6,1.86,1.44,1.86s1.44-.79,1.44-1.88c0-.82-.4-1.86-1.42-1.86S20.13,124.87,20.13,125.79Z" transform="translate(-3.36 -8.26)"/><path d="M27.07,121.55a8.66,8.66,0,0,1,1.63-.14,2.65,2.65,0,0,1,1.9.55,1.7,1.7,0,0,1,.52,1.28A1.76,1.76,0,0,1,29.88,125v0a1.67,1.67,0,0,1,1,1.36,10.9,10.9,0,0,0,.51,1.85h-.88a8.87,8.87,0,0,1-.44-1.61c-.2-.93-.55-1.28-1.32-1.31h-.8v2.92h-.85Zm.85,3.07h.87a1.31,1.31,0,0,0,1.48-1.28c0-.87-.62-1.25-1.51-1.26a3.48,3.48,0,0,0-.84.08Z" transform="translate(-3.36 -8.26)"/><path d="M35,128.2l-.07-.61h0a1.75,1.75,0,0,1-1.45.72A1.36,1.36,0,0,1,32,126.92c0-1.17,1-1.81,2.84-1.8V125a1,1,0,0,0-1.07-1.12,2.31,2.31,0,0,0-1.23.36l-.2-.58a2.88,2.88,0,0,1,1.55-.43c1.45,0,1.8,1,1.8,2V127a7,7,0,0,0,.08,1.16Zm-.13-2.47c-.94,0-2,.15-2,1.09a.77.77,0,0,0,.81.84,1.18,1.18,0,0,0,1.14-.81.93.93,0,0,0,0-.28Z" transform="translate(-3.36 -8.26)"/><path d="M37.12,124.67c0-.5,0-.91,0-1.31h.76l0,.8h0a1.73,1.73,0,0,1,1.56-.91c.65,0,1.67.4,1.67,2.06v2.89h-.86v-2.79c0-.78-.28-1.43-1.09-1.43a1.23,1.23,0,0,0-1.15.9,1.29,1.29,0,0,0-.06.41v2.91h-.86Z" transform="translate(-3.36 -8.26)"/><path d="M43.39,125.58h0c.12-.17.28-.38.42-.55l1.39-1.67h1l-1.83,2,2.08,2.85h-1l-1.63-2.32-.44.5v1.82h-.85v-7.1h.85Z" transform="translate(-3.36 -8.26)"/><path d="M17.29,134.52h0l-1.1.61-.17-.67,1.39-.76h.73v6.5h-.83Z" transform="translate(-3.36 -8.26)"/><path d="M24.66,136.88c0,2.21-.8,3.43-2.21,3.43-1.24,0-2.08-1.19-2.1-3.34s.92-3.38,2.21-3.38S24.66,134.81,24.66,136.88Zm-3.45.1c0,1.69.51,2.65,1.29,2.65s1.3-1,1.3-2.71-.4-2.65-1.29-2.65S21.21,135.21,21.21,137Z" transform="translate(-3.36 -8.26)"/><path d="M29.67,136.88c0,2.21-.8,3.43-2.21,3.43-1.24,0-2.08-1.19-2.1-3.34s.92-3.38,2.21-3.38S29.67,134.81,29.67,136.88Zm-3.45.1c0,1.69.51,2.65,1.29,2.65s1.3-1,1.3-2.71-.4-2.65-1.29-2.65S26.22,135.21,26.22,137Z" transform="translate(-3.36 -8.26)"/><path d="M33.32,135.53c0,1.37-.7,2-1.52,2s-1.47-.65-1.48-2,.69-2,1.53-2S33.32,134.29,33.32,135.53Zm-2.32.06c0,.83.28,1.46.82,1.46s.82-.62.82-1.48-.22-1.45-.82-1.45S31,134.77,31,135.59Zm.74,4.72,3.73-6.72H36l-3.73,6.72Zm5.71-2.09c0,1.37-.7,2-1.51,2s-1.47-.65-1.48-1.95.69-2,1.53-2S37.46,137,37.46,138.22Zm-2.32.06c0,.83.3,1.46.83,1.46s.82-.62.82-1.48-.22-1.45-.82-1.45S35.13,137.46,35.13,138.28Z" transform="translate(-3.36 -8.26)"/><path d="M9.08,149.24c0-.94-.11-2.07-.1-2.91H9c-.22.79-.5,1.63-.83,2.56L7,152.16H6.32L5.26,149c-.31-.95-.58-1.82-.76-2.62h0c0,.84-.07,2-.13,3l-.18,2.89H3.36l.46-6.74H4.91L6,148.72c.27.83.5,1.57.66,2.27h0c.17-.68.4-1.42.69-2.27l1.17-3.26H9.67l.41,6.74H9.25Z" transform="translate(-3.36 -8.26)"/><path d="M15.7,149.74a2.34,2.34,0,0,1-2.35,2.57,2.28,2.28,0,0,1-2.27-2.49,2.34,2.34,0,0,1,2.34-2.57A2.27,2.27,0,0,1,15.7,149.74Zm-3.75.05c0,1.06.6,1.86,1.44,1.86s1.44-.79,1.44-1.88c0-.82-.4-1.86-1.42-1.86S11.95,148.87,11.95,149.79Z" transform="translate(-3.36 -8.26)"/><path d="M16.79,148.67c0-.5,0-.91,0-1.31h.76l0,.8h0a1.73,1.73,0,0,1,1.56-.91c.65,0,1.67.4,1.67,2.06v2.89h-.86v-2.79c0-.78-.28-1.43-1.09-1.43a1.23,1.23,0,0,0-1.15.9,1.29,1.29,0,0,0-.06.41v2.91h-.86Z" transform="translate(-3.36 -8.26)"/><path d="M22.69,149.94a1.53,1.53,0,0,0,1.62,1.68,3.05,3.05,0,0,0,1.31-.25l.15.63a3.74,3.74,0,0,1-1.57.3,2.22,2.22,0,0,1-2.32-2.44,2.33,2.33,0,0,1,2.22-2.61,2,2,0,0,1,2,2.28,3.39,3.39,0,0,1,0,.41Zm2.52-.63A1.24,1.24,0,0,0,24,147.88a1.44,1.44,0,0,0-1.32,1.43Z" transform="translate(-3.36 -8.26)"/><path d="M27.41,147.36l1,2.86c.11.32.22.7.3,1h0c.09-.29.19-.66.3-1l.94-2.84h.91l-1.29,3.45a7.41,7.41,0,0,1-1.62,3,2.31,2.31,0,0,1-1.05.57l-.21-.74a2.23,2.23,0,0,0,.75-.43,2.65,2.65,0,0,0,.72-1,.64.64,0,0,0,.07-.21.78.78,0,0,0-.06-.23l-1.75-4.46Z" transform="translate(-3.36 -8.26)"/><path d="M33.8,145.55a8,8,0,0,1,1.55-.14,2.68,2.68,0,0,1,1.81.49,1.43,1.43,0,0,1,.55,1.19,1.6,1.6,0,0,1-1.11,1.48v0A1.73,1.73,0,0,1,38,150.28a1.84,1.84,0,0,1-.56,1.35,3.25,3.25,0,0,1-2.28.63,9.89,9.89,0,0,1-1.32-.08Zm.85,2.76h.77c.9,0,1.43-.48,1.43-1.13s-.59-1.1-1.45-1.1a3.55,3.55,0,0,0-.75.06Zm0,3.23a4.54,4.54,0,0,0,.71,0c.88,0,1.69-.33,1.69-1.31s-.77-1.3-1.7-1.3h-.7Z" transform="translate(-3.36 -8.26)"/><path d="M41.69,152.2l-.07-.61h0a1.75,1.75,0,0,1-1.45.72,1.36,1.36,0,0,1-1.45-1.39c0-1.17,1-1.81,2.84-1.8V149a1,1,0,0,0-1.07-1.12,2.31,2.31,0,0,0-1.23.36l-.2-.58a2.88,2.88,0,0,1,1.55-.43c1.45,0,1.8,1,1.8,2V151a7,7,0,0,0,.08,1.16Zm-.13-2.47c-.94,0-2,.15-2,1.09a.77.77,0,0,0,.81.84,1.18,1.18,0,0,0,1.14-.81.93.93,0,0,0,0-.28Z" transform="translate(-3.36 -8.26)"/><path d="M47.15,152a3.1,3.1,0,0,1-1.36.28,2.27,2.27,0,0,1-2.35-2.47A2.43,2.43,0,0,1,46,147.26a2.81,2.81,0,0,1,1.19.25l-.2.68a2,2,0,0,0-1-.23,1.83,1.83,0,0,0,0,3.64,2.39,2.39,0,0,0,1.05-.24Z" transform="translate(-3.36 -8.26)"/><path d="M49,149.58h0c.12-.17.28-.38.42-.55l1.39-1.67h1l-1.83,2,2.08,2.85h-1l-1.63-2.32-.44.5v1.82h-.85v-7.1H49Z" transform="translate(-3.36 -8.26)"/></svg>