<?xml version="1.0" encoding="UTF-8"?>
<!DOCTYPE svg PUBLIC "-//W3C//DTD SVG 1.1//EN" "http://www.w3.org/Graphics/SVG/1.1/DTD/svg11.dtd">
<!-- Creator: CorelDRAW X8 -->
<svg xmlns="http://www.w3.org/2000/svg" xml:space="preserve" width="205.23mm" height="233.399mm" version="1.1" style="shape-rendering:geometricPrecision; text-rendering:geometricPrecision; image-rendering:optimizeQuality; fill-rule:evenodd; clip-rule:evenodd"
viewBox="0 0 20792 23646"
 xmlns:xlink="http://www.w3.org/1999/xlink">
 <defs>
  <style type="text/css">
   <![CDATA[
    .str0 {stroke:white;stroke-width:106.915}
    .str1 {stroke:white;stroke-width:106.915;stroke-linecap:round}
    .fil3 {fill:none}
    .fil0 {fill:black}
    .fil8 {fill:#3A275E}
    .fil7 {fill:#4C3275}
    .fil2 {fill:#C1E5F3}
    .fil12 {fill:#C92D47}
    .fil10 {fill:#CE7D61}
    .fil9 {fill:#DB8A67}
    .fil6 {fill:#DD8762}
    .fil11 {fill:#E54559}
    .fil5 {fill:#EA9E78}
    .fil4 {fill:white}
    .fil1 {fill:#C1E5F3;fill-opacity:0.423529}
   ]]>
  </style>
 </defs>
 <g id="Layer_x0020_1">
  <metadata id="CorelCorpID_0Corel-Layer"/>
  <g id="_2214234261872">
   <path class="fil0" d="M6791 865l-189 -820 101 0 89 415c22,102 42,204 55,283l3 0c11,-81 35,-178 60,-284l100 -414 100 0 91 416c21,97 41,194 52,281l2 0c15,-90 36,-182 60,-283l98 -414 98 0 -211 820 -101 0 -95 -428c-23,-105 -38,-185 -49,-267l-2 0c-13,81 -30,161 -57,267l-107 428 -98 0z"/>
   <path class="fil0" d="M8051 566c0,218 -136,312 -266,312 -145,0 -257,-117 -257,-303 0,-197 117,-312 265,-312 154,-1 258,122 258,303zm-424 5c0,129 68,227 162,227 94,0 163,-97 163,-229 0,-100 -46,-227 -160,-227 -115,0 -165,118 -165,229z"/>
   <path class="fil0" d="M8175 460c0,-70 -1,-130 -4,-184l85 0 3 115 5 0c25,-79 83,-129 149,-129 10,0 18,1 28,3l0 101c-11,-1 -21,-2 -34,-2 -69,0 -117,57 -131,137 -3,15 -5,32 -5,51l0 314 -96 0 0 -406z"/>
   <path class="fil0" d="M8542 460c0,-70 -1,-130 -4,-184l85 0 4 115 4 0c25,-79 83,-129 149,-129 10,0 18,1 28,3l0 101c-11,-2 -20,-4 -33,-4 -69,0 -118,58 -131,138 -2,15 -5,32 -5,51l0 314 -95 0 0 -405 -2 0z"/>
   <path class="fil0" d="M8968 276l117 348c12,39 26,86 34,121l2 0c11,-35 21,-80 34,-123l106 -345 103 0 -145 418c-70,202 -117,306 -183,369 -48,46 -95,64 -120,69l-24 -90c24,-8 56,-25 85,-52 27,-23 60,-64 82,-120 5,-10 8,-19 8,-25 0,-7 -2,-15 -7,-28l-198 -543 106 0 0 1z"/>
   <path class="fil0" d="M9563 110c1,36 -23,65 -62,65 -34,0 -58,-29 -58,-65 0,-37 25,-67 60,-67 37,0 60,30 60,67zm-109 755l0 -589 97 0 0 589 -97 0z"/>
   <path class="fil0" d="M9714 435c0,-61 -1,-111 -5,-159l87 0 5 97 3 0c27,-55 89,-111 177,-111 74,0 190,49 190,251l0 352 -97 0 0 -340c0,-95 -32,-174 -124,-174 -64,0 -115,50 -131,109 -5,14 -7,32 -7,50l0 354 -97 0 0 -429 -1 0z"/>
   <path class="fil0" d="M10792 276c-3,43 -5,90 -5,161l0 342c0,135 -25,219 -76,269 -53,53 -127,70 -195,70 -65,0 -136,-17 -178,-48l25 -81c35,25 91,46 157,46 100,0 173,-58 173,-205l0 -67 -2 0c-30,55 -88,99 -171,99 -133,0 -228,-124 -228,-288 0,-200 119,-312 242,-312 94,0 144,53 168,103l2 0 5 -89 83 0zm-102 232c0,-18 -1,-34 -6,-48 -17,-62 -65,-114 -136,-114 -93,0 -160,87 -160,223 0,115 54,211 159,211 60,0 115,-41 136,-109 6,-18 8,-38 8,-57l0 -106 -1 0z"/>
   <path class="fil0" d="M11308 606l-77 258 -99 0 254 -820 115 0 255 820 -103 0 -79 -258 -266 0zm245 -82l-74 -236c-16,-54 -28,-103 -39,-150l-2 0c-10,49 -23,98 -37,149l-74 237 226 0z"/>
   <path class="fil0" d="M11854 865c3,-41 5,-100 5,-152l0 -713 96 0 0 370 2 0c34,-65 96,-108 183,-108 133,0 226,122 225,300 0,211 -120,316 -241,316 -77,0 -139,-33 -180,-111l-3 0 -5 97 -82 0 0 1zm102 -236c0,14 2,26 5,38 18,74 75,125 146,125 102,0 162,-91 162,-226 0,-118 -55,-220 -159,-220 -66,0 -128,51 -148,132 -2,12 -6,27 -6,44l0 107z"/>
   <path class="fil0" d="M12975 566c0,218 -136,312 -266,312 -145,0 -257,-117 -257,-303 0,-197 118,-312 265,-312 154,-1 258,122 258,303zm-425 5c0,129 68,227 162,227 94,0 163,-97 163,-229 0,-100 -46,-227 -160,-227 -115,0 -165,118 -165,229z"/>
   <path class="fil0" d="M13547 703c0,61 1,115 5,161l-87 0 -6 -96 -2 0c-26,47 -82,109 -178,109 -84,0 -184,-52 -184,-258l0 -343 97 0 0 326c0,112 31,187 119,187 65,0 111,-50 129,-97 5,-16 9,-36 9,-55l0 -361 97 0 0 427 1 0z"/>
   <path class="fil0" d="M13827 106l0 169 139 0 0 81 -139 0 0 318c0,72 18,114 73,114 26,0 45,-3 56,-8l5 81c-19,8 -49,15 -87,15 -45,0 -81,-16 -105,-45 -28,-32 -37,-85 -37,-153l0 -321 -83 0 0 -81 83 0 0 -141 95 -29z"/>
   <polygon class="fil0" points="8498,1595 8271,1595 8271,1505 8824,1505 8824,1595 8596,1595 8596,2325 8499,2325 8499,1595 "/>
   <path class="fil0" d="M9310 2026c0,218 -136,312 -266,312 -145,0 -257,-116 -257,-302 0,-197 118,-313 265,-313 154,0 258,123 258,303zm-425 6c0,130 68,227 162,227 94,0 163,-96 163,-229 0,-99 -46,-226 -160,-226 -115,0 -165,116 -165,228z"/>
   <path class="fil0" d="M9433 1929c0,-76 -2,-136 -4,-193l87 0 5 102 2 0c40,-72 103,-115 191,-115 130,0 227,121 227,300 0,211 -117,316 -244,316 -71,0 -133,-34 -164,-92l-3 0 0 320 -96 0 0 -638 -1 0zm97 157c0,16 3,30 5,44 17,73 76,125 146,125 103,0 163,-92 163,-228 0,-118 -57,-219 -159,-219 -67,0 -129,52 -148,132 -3,14 -7,29 -7,44l0 102z"/>
   <path class="fil0" d="M10303 1516c49,-11 118,-17 185,-17 103,0 169,20 216,67 37,37 58,92 58,156 0,108 -62,180 -140,210l0 3c57,22 92,80 110,166 25,114 42,193 57,225l-99 0c-12,-23 -29,-94 -50,-195 -23,-114 -62,-156 -150,-160l-91 0 0 355 -96 0 0 -810zm96 374l98 0c103,0 168,-62 168,-156 0,-106 -70,-152 -171,-153 -47,0 -80,6 -95,10l0 299z"/>
   <path class="fil0" d="M11205 2325l-8 -73 -3 0c-31,46 -88,87 -164,87 -109,0 -164,-84 -164,-169 0,-142 116,-220 323,-219l0 -12c0,-48 -12,-135 -121,-135 -51,0 -102,17 -140,43l-22 -70c45,-32 109,-52 177,-52 163,0 203,122 203,240l0 220c0,52 3,102 10,141l-91 0 0 -1zm-14 -300c-106,-2 -226,18 -226,132 0,70 42,103 92,103 70,0 115,-49 130,-98 3,-11 6,-24 6,-34l0 -103 -2 0z"/>
   <path class="fil0" d="M11444 1896c0,-61 -1,-112 -5,-160l87 0 6 98 2 0c27,-56 89,-112 178,-112 73,0 189,50 189,252l0 351 -97 0 0 -340c0,-95 -32,-174 -124,-174 -64,0 -114,50 -131,109 -4,14 -7,32 -7,50l0 354 -97 0 0 -428 -1 0z"/>
   <path class="fil0" d="M12155 2007l2 0c13,-21 32,-46 48,-68l157 -203 118 0 -207 243 236 346 -118 0 -185 -282 -50 61 0 221 -96 0 0 -864 96 0 0 546 -1 0z"/>
  </g>
  <g id="_2214234274576">
   <path class="fil0" d="M14057 6726l0 -900 110 0 249 455c58,106 103,200 140,293l2 -1c-9,-120 -11,-230 -11,-370l0 -376 95 0 0 900 -102 0 -247 -456c-54,-101 -106,-204 -145,-301l-3 1c5,114 8,221 8,371l0 385 -96 0 0 -1z"/>
   <path class="fil0" d="M14871 6423c2,160 89,225 191,225 73,0 116,-15 155,-33l17 84c-35,19 -97,41 -186,41 -172,0 -275,-131 -275,-326 0,-195 100,-349 262,-349 183,0 231,186 231,305 0,23 -2,43 -3,54l-392 0 0 -1zm297 -83c1,-75 -27,-191 -141,-191 -103,0 -148,109 -156,191l297 0z"/>
   <path class="fil0" d="M15449 6423c2,160 90,225 191,225 73,0 117,-15 155,-33l17 84c-35,19 -97,41 -186,41 -172,0 -274,-131 -274,-326 0,-195 99,-349 262,-349 182,0 230,186 230,305 0,23 -2,43 -3,54l-392 0 0 -1zm298 -83c1,-75 -27,-191 -141,-191 -103,0 -147,109 -156,191l297 0z"/>
   <path class="fil0" d="M16454 5778l0 781c0,58 1,123 4,167l-91 0 -4 -112 -2 0c-31,71 -100,127 -190,127 -135,0 -240,-133 -240,-328 -1,-215 114,-348 250,-348 86,0 144,47 169,99l2 0 0 -386 102 0zm-102 564c0,-15 -1,-34 -4,-49 -15,-75 -71,-136 -146,-136 -105,0 -168,107 -168,250 0,131 55,240 164,240 69,0 131,-53 149,-140 3,-16 4,-32 4,-50l0 -115 1 0z"/>
   <path class="fil0" d="M16858 6584c45,32 111,59 180,59 102,0 162,-64 162,-154 0,-85 -42,-133 -146,-179 -128,-52 -206,-128 -206,-255 0,-141 101,-245 252,-245 80,0 138,21 172,44l-28 95c-26,-16 -77,-43 -148,-43 -105,0 -146,74 -146,135 0,84 47,125 155,173 132,59 199,132 199,264 0,139 -89,259 -273,259 -75,0 -157,-26 -199,-58l26 -95z"/>
   <path class="fil0" d="M17556 5893l0 186 146 0 0 90 -146 0 0 348c0,81 19,126 76,126 27,0 46,-5 59,-8l4 89c-19,9 -51,16 -90,16 -47,0 -85,-17 -110,-49 -29,-35 -39,-92 -39,-168l0 -353 -85 0 0 -90 87 0 0 -155 98 -32z"/>
   <path class="fil0" d="M17817 6281c0,-76 -1,-141 -4,-202l89 0 3 127 4 0c26,-86 87,-141 155,-141 12,0 19,1 29,5l0 111c-11,-2 -22,-5 -34,-5 -72,0 -123,64 -136,151 -2,16 -4,34 -4,55l0 344 -101 0 0 -445 -1 0z"/>
   <path class="fil0" d="M18498 6726l-7 -82 -4 0c-31,50 -90,96 -171,96 -113,0 -171,-92 -171,-186 0,-156 120,-242 336,-241l0 -14c0,-53 -13,-149 -127,-149 -53,0 -106,19 -146,48l-23 -77c46,-34 113,-58 184,-58 171,0 212,135 212,264l0 242c0,55 3,111 10,155l-93 0 0 2zm-15 -330c-111,-4 -236,20 -236,145 0,76 44,112 96,112 73,0 119,-53 135,-108 3,-11 5,-25 5,-37l0 -112z"/>
   <path class="fil0" d="M18864 5893l0 186 145 0 0 90 -145 0 0 348c0,81 19,126 76,126 26,0 46,-5 58,-8l5 89c-20,9 -52,16 -90,16 -47,0 -86,-17 -110,-49 -29,-35 -40,-92 -40,-168l0 -353 -86 0 0 -90 86 0 0 -155 101 -32z"/>
   <path class="fil0" d="M19173 6423c2,160 90,225 191,225 73,0 117,-15 155,-33l17 84c-35,19 -97,41 -186,41 -172,0 -275,-131 -275,-326 0,-195 100,-349 262,-349 183,0 231,186 231,305 0,23 -2,43 -3,54l-392 0 0 -1zm298 -83c1,-75 -27,-191 -141,-191 -103,0 -148,109 -156,191l297 0z"/>
   <path class="fil0" d="M20177 6079c-3,47 -5,99 -5,178l0 375c0,148 -25,238 -79,295 -54,59 -132,77 -203,77 -67,0 -141,-18 -186,-54l26 -89c37,26 95,50 163,50 104,0 180,-63 180,-226l0 -72 -2 0c-31,60 -91,108 -178,108 -139,0 -237,-137 -237,-316 0,-219 124,-343 251,-343 97,0 150,59 174,112l3 0 4 -97 89 0 0 2zm-105 256c0,-21 -1,-38 -6,-54 -18,-68 -68,-124 -142,-124 -97,0 -166,95 -166,245 0,127 55,232 164,232 62,0 119,-45 141,-120 6,-20 9,-42 9,-63l0 -116z"/>
   <path class="fil0" d="M20378 6079l121 382c13,43 27,93 36,132l2 0c11,-38 21,-87 35,-134l111 -380 109 0 -152 461c-73,221 -122,335 -192,404 -49,50 -99,71 -125,76l-26 -98c26,-10 59,-28 89,-58 28,-26 62,-71 86,-131 4,-11 8,-21 8,-27 0,-7 -2,-16 -7,-31l-207 -596 112 0z"/>
   <path class="fil0" d="M14396 7497l0 186 145 0 0 90 -145 0 0 348c0,80 19,125 76,125 26,0 46,-4 59,-7l4 89c-19,9 -52,16 -90,16 -47,0 -86,-18 -110,-50 -29,-34 -40,-92 -40,-167l0 -353 -86 0 0 -90 86 0 0 -155 101 -32z"/>
   <path class="fil0" d="M15155 8000c0,239 -143,344 -278,344 -151,0 -268,-129 -268,-333 0,-216 121,-343 277,-343 161,0 269,135 269,332zm-444 7c0,141 71,248 170,248 98,0 170,-106 170,-251 0,-109 -47,-248 -168,-248 -120,0 -172,128 -172,251z"/>
   <path class="fil0" d="M15532 7440c52,-12 124,-18 193,-18 108,0 176,22 225,74 40,40 61,101 61,171 0,118 -65,198 -146,230l0 4c60,23 96,88 114,182 26,125 44,212 60,247l-104 0c-12,-26 -30,-103 -52,-215 -24,-124 -64,-171 -156,-176l-95 0 0 391 -101 0 0 -890 1 0zm101 411l102 0c108,0 176,-69 176,-171 0,-117 -73,-167 -179,-168 -48,0 -83,5 -99,10l0 329z"/>
   <path class="fil0" d="M16211 8027c2,159 90,225 192,225 72,0 116,-15 155,-34l17 85c-36,19 -98,41 -186,41 -172,0 -275,-131 -275,-327 0,-194 99,-348 262,-348 183,0 231,186 231,305 0,23 -2,42 -3,54l-393 0 0 -1zm299 -84c1,-75 -27,-192 -142,-192 -102,0 -147,109 -156,192l298 0z"/>
   <path class="fil0" d="M17043 8329l-9 -82 -3 0c-31,51 -91,97 -171,97 -113,0 -171,-92 -171,-186 0,-157 120,-242 336,-241l0 -14c0,-53 -13,-150 -127,-150 -53,0 -106,20 -146,48l-22 -75c46,-35 113,-58 184,-58 171,0 212,135 212,264l0 242c0,55 3,111 10,155l-93 0zm-15 -330c-111,-3 -236,21 -236,146 0,76 44,112 96,112 73,0 119,-53 135,-108 3,-12 5,-26 5,-37l0 -113z"/>
   <path class="fil0" d="M17689 8305c-27,16 -86,37 -161,37 -169,0 -278,-132 -278,-329 0,-199 118,-343 301,-343 60,0 113,17 141,33l-24 91c-24,-16 -62,-31 -117,-31 -128,0 -198,110 -198,245 0,150 83,241 194,241 57,0 96,-17 125,-32l17 88z"/>
   <path class="fil0" d="M17808 7380l102 0 0 403 2 0c16,-33 42,-63 73,-82 30,-20 65,-33 104,-33 74,0 195,53 195,277l0 385 -101 0 0 -371c0,-104 -33,-193 -130,-193 -65,0 -117,54 -135,118 -6,16 -7,33 -7,55l0 391 -101 0 0 -950 -2 0z"/>
   <path class="fil0" d="M19290 8289c-45,19 -133,49 -239,49 -118,0 -215,-34 -291,-118 -67,-75 -108,-195 -108,-335 1,-268 160,-465 421,-465 90,0 161,22 195,42l-25 95c-41,-22 -94,-39 -172,-39 -189,0 -313,136 -313,362 0,228 119,363 300,363 66,0 111,-11 134,-25l0 -268 -158 0 0 -93 256 0 0 432z"/>
   <path class="fil0" d="M19952 8000c0,239 -143,344 -278,344 -151,0 -268,-129 -268,-333 0,-216 122,-343 277,-343 160,0 269,135 269,332zm-444 7c0,141 71,248 170,248 98,0 170,-106 170,-251 0,-109 -47,-248 -167,-248 -121,0 -173,128 -173,251z"/>
   <path class="fil0" d="M20390 8329l-8 -82 -3 0c-31,51 -91,97 -171,97 -114,0 -171,-92 -171,-186 0,-157 119,-242 335,-241l0 -14c0,-53 -13,-150 -127,-150 -52,0 -106,20 -145,48l-24 -76c46,-35 113,-58 184,-58 171,0 213,134 213,264l0 241c0,56 2,112 9,156l-92 0 0 1zm-15 -330c-111,-3 -236,21 -236,146 0,76 44,112 96,112 73,0 119,-53 135,-108 3,-12 5,-26 5,-37l0 -113z"/>
   <polygon class="fil0" points="20637,7380 20739,7380 20739,8329 20637,8329 "/>
  </g>
  <g id="_2214234279440">
   <path class="fil0" d="M697 6417c-6,-113 -13,-250 -12,-352l-3 0c-28,95 -61,197 -101,310l-142 396 -79 0 -129 -388c-39,-116 -71,-220 -93,-318l-2 0c-2,102 -9,239 -16,361l-22 349 -98 0 56 -816 132 0 137 395c33,100 61,190 81,275l3 0c21,-83 50,-172 85,-275l142 -395 133 0 50 816 -102 0 -20 -358z"/>
   <path class="fil0" d="M1301 6775l-8 -74 -4 0c-32,46 -94,87 -176,87 -117,0 -176,-83 -176,-168 0,-141 124,-219 346,-218l0 -12c0,-48 -13,-136 -130,-136 -54,0 -110,18 -150,44l-24 -70c48,-31 117,-53 190,-53 176,0 219,122 219,240l0 219c0,51 2,101 9,140l-96 0 0 1zm-15 -299c-114,-2 -244,18 -244,131 0,70 45,102 100,102 75,0 123,-48 139,-99 3,-10 5,-23 5,-34l0 -100z"/>
   <path class="fil0" d="M1557 6347c0,-60 -1,-110 -5,-158l93 0 7 98 2 0c29,-56 95,-111 190,-111 79,0 203,49 203,250l0 349 -104 0 0 -338c0,-94 -35,-173 -134,-173 -68,0 -123,49 -140,109 -4,13 -8,31 -8,49l0 353 -104 0 0 -428z"/>
   <path class="fil0" d="M2240 6189l126 347c13,38 28,84 36,119l2 0c11,-35 23,-80 37,-121l114 -345 111 0 -156 417c-75,201 -126,304 -197,367 -52,46 -103,64 -129,68l-25 -89c25,-9 61,-26 92,-53 28,-23 64,-64 87,-119 6,-10 9,-19 9,-25 0,-7 -2,-15 -8,-28l-213 -540 114 0 0 2z"/>
   <path class="fil0" d="M3019 5970c63,-10 138,-17 220,-17 149,0 255,35 325,102 72,66 114,161 114,292 0,133 -41,242 -116,318 -75,76 -199,118 -355,118 -73,0 -135,-4 -188,-10l0 -803zm104 722c26,5 64,6 105,6 221,0 342,-126 342,-346 1,-193 -106,-315 -325,-315 -54,0 -94,5 -121,11l0 644 -1 0z"/>
   <path class="fil0" d="M4335 6477c0,217 -147,311 -286,311 -156,0 -276,-117 -276,-302 0,-195 126,-311 285,-311 165,0 277,123 277,302zm-457 6c0,129 72,226 175,226 99,0 175,-95 175,-228 0,-99 -49,-224 -172,-224 -123,0 -178,115 -178,226z"/>
   <path class="fil0" d="M4950 6615c0,61 1,113 5,159l-93 0 -5 -95 -2 0c-28,47 -88,109 -190,109 -91,0 -199,-51 -199,-257l0 -342 105 0 0 325c0,111 33,186 128,186 70,0 118,-49 138,-97 6,-16 9,-35 9,-55l0 -359 105 0 0 426 -1 0z"/>
   <path class="fil0" d="M5119 6775c2,-39 4,-99 4,-151l0 -707 104 0 0 367 2 0c36,-65 104,-108 197,-108 143,0 244,121 243,300 0,209 -130,313 -258,313 -84,0 -150,-33 -193,-110l-3 0 -5 97 -91 0 0 -1zm108 -235c0,13 2,27 5,38 21,74 82,126 157,126 110,0 176,-91 176,-226 0,-118 -60,-218 -171,-218 -72,0 -138,49 -160,130 -2,12 -6,27 -6,44l0 106 -1 0z"/>
   <path class="fil0" d="M5927 6020l0 168 150 0 0 81 -150 0 0 317c0,73 21,113 78,113 28,0 47,-3 61,-7l6 80c-21,8 -53,15 -93,15 -50,0 -88,-16 -114,-45 -30,-31 -40,-83 -40,-153l0 -320 -89 0 0 -81 89 0 0 -140 102 -28z"/>
   <path class="fil0" d="M6182 6666c31,20 85,43 138,43 76,0 112,-39 112,-88 0,-51 -30,-79 -107,-108 -104,-37 -152,-95 -152,-166 0,-94 75,-172 199,-172 59,0 109,17 141,37l-26 77c-22,-15 -64,-35 -117,-35 -62,0 -96,37 -96,81 0,48 34,70 109,99 99,39 150,90 150,177 0,102 -78,175 -214,175 -64,0 -122,-16 -162,-40l25 -80z"/>
   <path class="fil0" d="M184 7478c1,36 -25,65 -66,65 -37,0 -63,-29 -63,-65 0,-38 27,-67 65,-67 39,0 64,29 64,67zm-117 750l0 -586 105 0 0 586 -105 0z"/>
   <path class="fil0" d="M345 7802c0,-61 -1,-111 -4,-159l93 0 6 98 3 0c28,-56 95,-111 190,-111 79,0 203,49 203,250l0 349 -105 0 0 -338c0,-94 -34,-173 -133,-173 -69,0 -123,49 -140,109 -5,13 -8,31 -8,49l0 353 -105 0 0 -427z"/>
   <path class="fil0" d="M1578 8228l-9 -74 -3 0c-32,46 -94,87 -176,87 -117,0 -177,-83 -177,-168 0,-141 124,-219 347,-218l0 -12c0,-48 -13,-136 -131,-136 -53,0 -109,18 -149,44l-24 -70c48,-31 117,-53 189,-53 177,0 220,122 220,240l0 219c0,51 2,100 9,140l-96 0 0 1zm-15 -298c-114,-2 -244,18 -244,131 0,70 45,102 100,102 75,0 123,-48 139,-98 3,-11 5,-24 5,-35l0 -100z"/>
   <polygon class="fil0" points="1834,7369 1938,7369 1938,8228 1834,8228 "/>
   <polygon class="fil0" points="2115,7369 2220,7369 2220,8228 2115,8228 "/>
   <path class="fil0" d="M2638 8100c46,29 114,53 186,53 105,0 167,-56 167,-139 0,-76 -42,-119 -150,-162 -131,-47 -212,-117 -212,-231 0,-127 104,-221 260,-221 82,0 141,19 177,39l-29 86c-25,-15 -80,-39 -151,-39 -109,0 -151,66 -151,122 0,76 49,113 159,157 136,54 204,120 204,240 0,126 -92,235 -281,235 -77,0 -161,-24 -204,-53l25 -87z"/>
   <path class="fil0" d="M3717 8069c0,61 1,113 6,159l-93 0 -6 -95 -2 0c-28,47 -87,109 -190,109 -91,0 -199,-51 -199,-257l0 -342 105 0 0 325c0,111 33,186 128,186 71,0 119,-49 138,-97 6,-16 10,-35 10,-54l0 -360 104 0 0 426 -1 0z"/>
   <path class="fil0" d="M3886 8228c2,-39 5,-99 5,-151l0 -707 103 0 0 367 2 0c37,-65 104,-108 197,-108 143,0 244,121 243,300 0,209 -130,313 -258,313 -83,0 -150,-33 -192,-110l-3 0 -6 97 -91 0 0 -1zm109 -234c0,13 2,27 6,38 20,74 81,126 157,126 109,0 175,-91 175,-226 0,-118 -60,-218 -171,-218 -71,0 -138,49 -159,130 -2,12 -7,27 -7,44l0 106 -1 0z"/>
   <path class="fil0" d="M4428 8398c47,-3 89,-17 115,-45 29,-34 39,-80 39,-220l0 -491 105 0 0 532c0,113 -18,187 -69,240 -46,47 -123,66 -179,66l-11 -82zm271 -920c1,35 -24,65 -65,65 -40,0 -65,-30 -65,-65 0,-38 28,-67 67,-67 38,0 63,29 63,67z"/>
   <path class="fil0" d="M4917 7954c2,145 93,204 198,204 75,0 119,-13 159,-30l18 75c-36,18 -99,37 -191,37 -178,0 -283,-119 -283,-295 0,-177 102,-317 270,-317 188,0 238,168 238,276 0,22 -2,39 -3,49l-406 0 0 1zm307 -76c1,-67 -27,-173 -146,-173 -105,0 -151,100 -160,173l306 0z"/>
   <path class="fil0" d="M5866 8207c-27,15 -87,34 -165,34 -174,0 -287,-120 -287,-299 0,-181 122,-312 309,-312 62,0 117,16 145,30l-23 83c-26,-15 -64,-28 -122,-28 -133,0 -203,99 -203,221 0,136 85,219 200,219 60,0 99,-16 128,-28l18 80z"/>
   <path class="fil0" d="M6130 7474l0 168 150 0 0 81 -150 0 0 317c0,73 21,113 78,113 28,0 47,-3 61,-7l6 80c-21,9 -53,15 -93,15 -49,0 -88,-16 -114,-45 -30,-31 -40,-83 -40,-153l0 -320 -89 0 0 -81 89 0 0 -140 102 -28z"/>
   <path class="fil0" d="M6385 8119c31,20 85,43 138,43 76,0 112,-39 112,-88 0,-51 -30,-79 -107,-108 -104,-37 -152,-95 -152,-166 0,-94 75,-172 199,-172 59,0 109,17 141,37l-25 77c-23,-15 -65,-35 -118,-35 -62,0 -96,37 -96,81 0,48 34,70 109,99 99,39 151,90 151,176 0,103 -78,176 -215,176 -63,0 -122,-16 -162,-40l25 -80z"/>
  </g>
  <g id="_2214234285712">
   <g>
    <path class="fil1" d="M7744 1057c-636,91 -1251,250 -1822,503 -570,253 -1097,594 -1542,1023 -450,423 -817,933 -1084,1496 -268,562 -434,1176 -518,1813 -51,-640 50,-1301 288,-1912 62,-151 134,-299 203,-449l252 -424c98,-133 196,-265 299,-393 113,-120 220,-246 339,-362 126,-107 246,-221 377,-320l201 -144c68,-47 132,-99 206,-137l214 -121c72,-39 143,-83 219,-113 150,-64 297,-139 454,-188 616,-221 1272,-314 1914,-272z"/>
   </g>
   <g>
    <path class="fil1" d="M12876 1164c641,-42 1297,51 1913,271 156,49 303,124 455,188 77,31 146,74 218,113l215 121c73,38 138,90 205,137l201 144c131,100 251,214 377,320 118,115 226,241 339,361 103,129 201,262 300,394l251 424c69,149 141,297 203,449 238,612 338,1271 289,1912 -85,-637 -251,-1250 -518,-1813 -268,-562 -634,-1073 -1084,-1496 -446,-429 -973,-770 -1542,-1023 -572,-251 -1186,-411 -1822,-502z"/>
   </g>
   <g>
    <path class="fil1" d="M7896 13095c-636,43 -1287,-53 -1896,-276 -154,-52 -299,-125 -448,-191 -146,-71 -284,-159 -428,-238 -139,-85 -266,-189 -400,-283 -127,-103 -245,-215 -369,-322 -114,-118 -221,-242 -331,-362 -97,-132 -198,-261 -291,-395 -81,-142 -166,-281 -243,-424 -68,-149 -139,-295 -197,-447 -230,-607 -325,-1262 -275,-1897 84,631 245,1239 506,1800 67,139 144,272 213,409 79,131 165,259 248,388l280 365c105,111 207,224 314,334 435,431 954,775 1515,1032 563,256 1171,417 1802,507z"/>
   </g>
   <g>
    <path class="fil1" d="M12832 13095c629,-91 1238,-251 1801,-507 561,-257 1079,-601 1515,-1032 107,-109 210,-223 314,-334l281 -365c82,-129 168,-257 248,-388 68,-138 145,-272 212,-409 261,-561 423,-1169 506,-1800 50,635 -45,1288 -275,1897 -57,152 -129,298 -196,447 -77,143 -163,282 -244,424 -93,134 -194,263 -291,395 -110,120 -218,243 -330,362 -123,107 -243,220 -370,322 -134,94 -261,198 -400,283 -143,79 -280,167 -428,238 -148,65 -295,139 -448,191 -609,223 -1260,319 -1895,276z"/>
   </g>
  </g>
  <g id="_2214234227184">
   <path class="fil2" d="M4420 20333l-335 145c-432,141 -889,-121 -1021,-586l-1668 -3540c-131,-465 113,-956 546,-1099l954 -312c432,-141 890,121 1021,586l1048 3707c130,466 -113,958 -545,1099z"/>
   <path class="fil2" d="M17704 20277l-364 -28c-436,-126 -695,-609 -577,-1078l894 -3581c117,-469 566,-748 1003,-622l673 194c436,127 695,610 577,1079l-1205 3414c-116,470 -565,749 -1001,622z"/>
   <path class="fil2" d="M4274 21297l-155 1837c0,0 139,899 682,283 59,-67 106,-146 142,-230l574 -1390c-1,2 -778,168 -1243,-500z"/>
   <path class="fil2" d="M17534 21314l107 1841c0,0 -153,896 -657,268 -54,-69 -98,-149 -129,-235l-517 -1403c2,0 737,186 1196,-471z"/>
   <path class="fil2 str0" d="M16832 21632l-11926 0c-263,0 -477,-214 -477,-477l0 -1218c0,-263 214,-477 477,-477l11927 0c263,0 477,214 477,477l0 1218c0,263 -214,477 -478,477z"/>
   <path class="fil2" d="M5051 18768l-999 -3402c-350,-1194 485,-2406 1648,-2393l10197 115c1112,13 1916,1146 1636,2304l-811 3339c-80,332 -358,563 -675,563l-10329 0c-305,0 -575,-213 -667,-526z"/>
   <line class="fil3 str1" x1="10870" y1="13032" x2="10870" y2= "19085" />
   <g>
    <path class="fil4" d="M9863 19294c0,0 922,-502 1934,0l-1934 0zm0 0l0 0 0 0z"/>
   </g>
  </g>
  <g>
   <path class="fil1" d="M7299 1519c-497,73 -967,245 -1396,482 -429,239 -824,538 -1170,886 -347,345 -647,738 -887,1167 -238,430 -413,897 -490,1394 -12,-504 123,-1011 342,-1470 219,-462 525,-880 884,-1242 364,-359 783,-665 1245,-882 461,-218 968,-351 1472,-335z"/>
  </g>
  <g>
   <path class="fil1" d="M13106 1619c516,-42 1042,78 1516,294 478,215 908,527 1282,892 371,369 688,793 924,1258 237,463 398,969 434,1484 -125,-500 -324,-970 -580,-1404 -258,-433 -569,-834 -928,-1186 -356,-354 -762,-658 -1205,-895 -443,-235 -929,-396 -1443,-443z"/>
  </g>
  <g>
   <path class="fil1" d="M7225 12633c-506,-75 -993,-272 -1437,-535 -444,-263 -846,-598 -1193,-984 -342,-389 -629,-832 -815,-1319 -187,-482 -273,-1011 -202,-1519 19,511 149,1002 356,1454 210,452 490,869 821,1241 330,375 710,704 1122,986 415,282 864,514 1348,676z"/>
  </g>
  <g>
   <path class="fil1" d="M13066 12633c509,-157 1003,-350 1467,-593 463,-245 899,-539 1274,-899 377,-354 692,-776 916,-1244 226,-469 356,-983 417,-1513 28,533 -57,1078 -265,1580 -43,131 -113,246 -175,368 -58,124 -141,232 -215,348 -155,223 -337,428 -533,616 -396,374 -857,672 -1348,893 -489,222 -1010,372 -1538,444z"/>
  </g>
  <g>
   <path class="fil5" d="M14727 14667c14,-3 302,119 302,119 0,0 223,-250 384,-286 161,-37 310,-306 389,-283 79,23 140,121 47,245 -93,123 -265,224 -265,224 0,0 14,98 140,74 216,-38 125,-226 161,-301 38,-75 80,-49 110,-12 25,32 95,133 90,323 -5,190 -108,316 -108,316 0,0 -23,148 -122,191 -99,43 -179,260 -356,239 -176,-21 -526,-283 -526,-283l-337 -110 91 -456z"/>
   <path class="fil6" d="M16043 14764c-32,-101 -73,-167 -99,-116 -23,45 -6,205 -1,245 -4,-7 -17,-19 -62,-27 -74,-13 -53,255 -53,255 0,0 -36,-80 -95,-41 -57,41 -57,225 -137,259 -79,34 -336,-126 -410,-196 -74,-69 -436,-162 -436,-162l-90 31 -21 110 336 110c0,0 349,262 526,283 177,22 257,-196 356,-239 100,-43 122,-192 122,-192 0,0 53,-65 85,-172 -5,-61 -10,-116 -21,-148z"/>
   <path class="fil5" d="M7079 14667c-14,-3 -302,119 -302,119 0,0 -223,-250 -384,-286 -161,-37 -310,-306 -389,-283 -79,23 -140,121 -47,245 93,123 265,224 265,224 0,0 -14,98 -140,74 -216,-38 -125,-226 -161,-301 -38,-75 -80,-49 -110,-12 -25,32 -95,133 -90,323 5,190 108,316 108,316 0,0 23,148 122,191 99,43 179,260 356,239 176,-21 526,-283 526,-283l337 -110 -91 -456z"/>
   <path class="fil6" d="M5763 14764c32,-101 73,-167 99,-116 22,45 6,205 1,245 4,-7 17,-19 62,-27 74,-13 53,255 53,255 0,0 36,-80 95,-41 57,41 57,225 137,259 79,34 336,-126 410,-196 74,-69 436,-162 436,-162l90 31 21 110 -336 110c0,0 -349,262 -526,283 -177,22 -257,-196 -356,-239 -100,-43 -122,-192 -122,-192 0,0 -53,-65 -85,-172 5,-61 11,-116 21,-148z"/>
   <path class="fil7" d="M15135 15387c-514,-210 -2272,-375 -2272,-375l-1960 0 -1960 0c0,0 -1758,165 -2272,375 -513,210 -731,511 -715,859 16,348 404,611 1026,621l3922 -213 3922 213c622,-10 1010,-273 1026,-621 14,-348 -203,-648 -717,-859z"/>
   <path class="fil8" d="M8318 16333c-57,-27 -802,-534 -802,-534 0,0 1049,-174 1693,0 645,173 2213,238 2932,0 721,-239 1934,0 1934,0l-582 764 -5723 101 548 -331z"/>
   <g id="_2214122124000">
    <path class="fil8" d="M9586 16726l-1944 -72c0,0 -1342,63 -1529,-669 -16,-62 -22,-124 -23,-186 -99,135 -141,286 -135,447 16,348 404,611 1026,621l2605 -141z"/>
    <path class="fil8" d="M15753 16514c-611,125 -1526,-54 -1526,-54l-405 352 1003 55c448,-7 774,-146 928,-353z"/>
   </g>
   <path class="fil9" d="M14489 16848l-128 -1044c-1401,-187 -2220,471 -3073,521 0,1 0,2 -1,3 -61,1 -279,3 -445,-10 -195,-16 -233,-126 -465,-147 -263,-25 -399,327 -536,465 -135,138 -361,95 -605,185 -244,89 -236,261 -384,370 -115,84 -104,253 4,335 100,77 368,-211 509,-218 140,-6 439,-89 856,-67 316,16 719,-168 895,-258 373,-10 796,-35 1303,-60 886,-46 2070,-75 2070,-75z"/>
   <path class="fil9" d="M14487 16844l-125 -1040c-1401,-187 -2220,471 -3073,521 0,1 0,2 -1,3 -61,1 -279,3 -445,-10 -194,-16 -233,-126 -465,-147 -263,-25 -399,327 -536,465 -135,138 -361,95 -605,185 -243,90 -236,261 -384,370 -115,84 -104,253 4,335 100,77 369,-211 509,-218 140,-6 439,-89 856,-67 316,16 719,-168 895,-258 373,-10 796,-35 1303,-60 885,-46 2067,-79 2067,-79z"/>
   <path class="fil10" d="M10222 17239c-417,-22 -716,62 -856,67 -140,6 -410,295 -509,218 -2,-1 -4,-3 -5,-4 101,-75 201,-214 306,-319 186,-184 721,-214 1007,-174 286,39 688,-300 1003,-350 287,-43 2405,-48 3267,-272l56 442c0,0 -1184,29 -2069,73 -508,25 -930,49 -1303,60 -179,91 -581,275 -897,259z"/>
   <path class="fil8" d="M10844 6671c399,-128 922,262 1070,730 125,393 52,984 -28,1430 -81,446 447,1544 215,2296 -172,555 -892,877 -1257,1008 -364,-131 -1085,-453 -1257,-1008 -232,-753 296,-1850 216,-2296 -80,-446 -155,-1037 -29,-1430 149,-468 671,-858 1070,-730z"/>
   <path class="fil7" d="M10844 6671c399,-128 922,262 1070,730 125,393 52,984 -28,1430 -81,446 447,1544 215,2296 -172,555 -892,877 -1257,1008 -364,-131 -1085,-453 -1257,-1008 -232,-753 296,-1850 216,-2296 -80,-446 -155,-1037 -29,-1430 149,-468 671,-858 1070,-730z"/>
   <path class="fil8" d="M11989 10803c-22,-273 -196,-1060 -280,-1413 -83,-353 103,-842 103,-842l-49 50 25 -75c49,-339 -178,-571 -178,-571l-147 162 -126 530 206 175 -37 39 -661 -745c0,0 -575,637 -855,380 -269,-247 -245,-933 -243,-985 -84,388 -16,915 57,1322 80,446 -448,1544 -216,2295 122,395 520,672 871,845l1228 -423c-1,0 325,-472 302,-744z"/>
   <path class="fil5" d="M10844 15500c1013,0 1765,-488 1765,-488 -186,-602 -455,-592 -544,-1079 -90,-488 122,-847 171,-1163 68,-428 38,-781 38,-781 0,0 235,1018 353,1578 71,-88 143,-176 215,-263 103,-119 206,-239 309,-357 -38,-209 -79,-425 -112,-601 -97,-520 -208,-1041 -268,-1397 -60,-356 -350,-482 -633,-539 -283,-56 -663,-317 -663,-317 -253,-341 -223,-911 -223,-911l-818 0c0,0 30,569 -224,911 0,0 -379,259 -663,317 -283,57 -573,183 -633,539 -59,356 -171,877 -268,1397 -32,176 -73,392 -112,601 104,119 207,238 309,357 74,86 144,174 215,263 118,-561 354,-1578 354,-1578 0,0 -30,353 37,781 49,316 261,674 171,1163 -90,488 -358,477 -544,1079 3,0 757,488 1768,488z"/>
   <path class="fil6" d="M10993 9716c125,8 220,-67 286,-146 -34,-213 -25,-386 -25,-386l-818 0c0,0 30,569 -224,911 0,0 -307,209 -574,294 133,133 280,229 424,202 407,-75 407,-384 475,-573 69,-188 194,-317 456,-302z"/>
   <path class="fil11" d="M10844 15500c1013,0 1765,-488 1765,-488 -186,-602 -455,-592 -544,-1079 -90,-488 134,-818 198,-1131 7,-37 13,-71 18,-102 139,476 407,1358 407,1358 0,0 49,251 346,452 171,163 1652,729 1652,729l161 -646c0,0 -412,-76 -730,-314 -344,-257 -815,-532 -815,-532 0,0 -163,-878 -261,-1398 -97,-521 -208,-1042 -268,-1398 -60,-356 -350,-482 -633,-539 -149,-30 -323,-115 -457,-190 -27,225 -175,599 -838,632 -664,-33 -810,-407 -838,-632 -133,75 -308,160 -456,190 -284,57 -574,183 -633,539 -60,356 -171,877 -269,1398 -97,520 -261,1398 -261,1398 0,0 -470,275 -814,532 -319,239 -730,314 -730,314l161 646c0,0 1481,-566 1652,-729 297,-201 345,-452 345,-452 0,0 268,-882 407,-1358 5,31 11,65 19,102 64,313 286,643 197,1131 -89,488 -358,477 -544,1079 -2,0 752,488 1763,488z"/>
   <path class="fil5" d="M10844 9497c505,0 720,-485 760,-688 0,0 121,-6 185,-167 79,-200 -49,-358 -153,-221 0,0 78,-315 -25,-469 -93,-137 -609,-346 -766,-701 -156,355 -671,564 -765,701 -105,154 -26,469 -26,469 -104,-137 -232,21 -153,221 64,161 185,167 185,167 39,203 254,688 758,688z"/>
   <path class="fil6" d="M10363 9150c-208,-323 -195,-1064 -185,-1289 -45,34 -80,63 -98,91 -105,154 -26,469 -26,469 -104,-137 -232,21 -153,221 64,161 185,167 185,167 41,203 256,688 760,688 17,0 35,-1 52,-2 -122,-11 -357,-69 -535,-345z"/>
   <path class="fil5" d="M12618 17190c-148,-110 -141,-281 -384,-370 -244,-90 -469,-47 -605,-185 -136,-138 -273,-490 -536,-465 -232,21 -270,132 -465,147 -166,14 -384,11 -445,10 0,-1 0,-2 -1,-3 -853,-51 -1672,-708 -3072,-521l-129 1063c0,0 1184,10 2069,54 508,25 930,49 1303,60 176,90 579,274 895,258 417,-22 717,62 857,67 140,6 409,295 509,218 109,-80 119,-249 4,-333z"/>
   <path class="fil9" d="M11249 17239c417,-22 717,62 857,67 140,6 409,295 509,218 2,-1 3,-3 4,-4 -101,-75 -201,-214 -306,-319 -186,-184 -720,-214 -1007,-174 -285,39 -687,-300 -1003,-350 -286,-43 -2404,-48 -3267,-272l-56 461c0,0 1184,10 2069,54 508,25 930,49 1303,60 178,91 580,275 897,259z"/>
   <path class="fil12" d="M7573 14278c344,-257 814,-532 814,-532 0,0 164,-878 261,-1399 97,-520 209,-1041 269,-1397 59,-356 349,-482 632,-539 149,-30 323,-115 457,-190 13,100 49,231 145,347l0 0c0,0 -293,129 -468,161 -175,32 -468,160 -556,437 -88,277 -589,2770 -589,2770 0,0 -298,181 -561,363 -209,143 -827,415 -1076,522l-58 -228c-1,0 412,-76 730,-315zm7169 729c-498,-163 -1499,-702 -1664,-847 -195,-170 -429,-1130 -502,-1641 -73,-512 -359,-784 -359,-784 226,333 64,965 64,965 139,476 407,1358 407,1358 0,0 49,251 346,452 171,163 1652,729 1652,729l56 -232zm-3637 -1667c235,62 639,-247 639,-247 0,0 -364,150 -777,-42 -390,-182 -987,281 -1246,-79 -259,-362 -136,-1069 -136,-1069 -233,289 -178,797 -178,797 5,31 11,65 17,102 65,313 287,643 198,1131 -90,487 -358,477 -544,1079 0,0 227,147 599,280 -1,-426 179,-626 309,-869 197,-371 117,-1346 1119,-1083z"/>
  </g>
 </g>
</svg>
