<svg id="Layer_1" data-name="Layer 1" xmlns="http://www.w3.org/2000/svg" viewBox="0 0 13.6 15.43"><defs><style>.cls-1,.cls-3{fill:none;stroke:#fff;stroke-miterlimit:10;}.cls-1{stroke-width:0.15px;}.cls-2{fill:#fff;}.cls-3{stroke-width:0.25px;}</style></defs><title>time spent icon_(White_Reverse)_SVG</title><path class="cls-1" d="M8.18,4.77,11.59,6.4S11.3,8,8.66,8.26A3,3,0,0,1,8.18,4.77Z" transform="translate(-1.2 -0.29)"/><path class="cls-1" d="M5.56,10.06l3.38,1.69s1.09-1.2-.3-3.45A3.06,3.06,0,0,0,5.56,10.06Z" transform="translate(-1.2 -0.29)"/><path class="cls-2" d="M6.07,9.9l2.6,1.3s.84-.92-.23-2.65A2.35,2.35,0,0,0,6.07,9.9Z" transform="translate(-1.2 -0.29)"/><path class="cls-2" d="M8.22,5.72c1,.38,1.3,1.16,2.72,1,0,0-.32,1.16-2.3,1.19A2.21,2.21,0,0,1,8.22,5.72Z" transform="translate(-1.2 -0.29)"/><line class="cls-3" x1="6.96" y1="4.01" x2="10.75" y2="5.87"/><line class="cls-3" x1="4.07" y1="10.03" x2="7.87" y2="11.89"/><path class="cls-2" d="M9.17,1.3l.37-1,1.16,2.14-2.26.92.31-.85S5,1.72,2.87,6c0,0-1.75,3.78,2.2,6.72l-.43,1.19s-5-3.3-3-8.33A7.17,7.17,0,0,1,9.17,1.3Z" transform="translate(-1.2 -0.29)"/><path class="cls-2" d="M6.83,14.7l-.37,1L5.31,13.58l2.26-.92-.31.85S11,14.28,13.13,10c0,0,1.75-3.78-2.2-6.72l.43-1.19s5,3.3,3,8.33A7.17,7.17,0,0,1,6.83,14.7Z" transform="translate(-1.2 -0.29)"/></svg>