<svg id="Layer_1" data-name="Layer 1" xmlns="http://www.w3.org/2000/svg" xmlns:xlink="http://www.w3.org/1999/xlink" viewBox="0 0 31.34 30.96"><defs><style>.cls-1,.cls-2,.cls-3,.cls-4{stroke:#78c8ef;}.cls-1,.cls-2,.cls-3,.cls-4,.cls-6,.cls-7,.cls-8{stroke-miterlimit:10;}.cls-1{fill:url(#linear-gradient);}.cls-2{fill:url(#linear-gradient-2);}.cls-3{fill:url(#linear-gradient-3);}.cls-4{fill:url(#linear-gradient-4);}.cls-5{fill:#53f9cd;}.cls-6,.cls-7,.cls-8{fill:none;}.cls-6,.cls-7{stroke:#fff;}.cls-6{stroke-dasharray:0.6;}.cls-7{stroke-dasharray:0.7;}.cls-8{stroke:#dd2475;stroke-linecap:round;stroke-width:1.25px;}</style><linearGradient id="linear-gradient" x1="1.53" y1="30.67" x2="1.53" y2="30.67" gradientUnits="userSpaceOnUse"><stop offset="0" stop-color="#3fb1ff"/><stop offset="0.12" stop-color="#48a9f7"/><stop offset="0.32" stop-color="#6292e1"/><stop offset="0.58" stop-color="#8b6dbc"/><stop offset="0.88" stop-color="#c43a8b"/><stop offset="0.99" stop-color="#dd2475"/></linearGradient><linearGradient id="linear-gradient-2" x1="30.61" y1="30.78" x2="30.61" y2="30.78" xlink:href="#linear-gradient"/><linearGradient id="linear-gradient-3" x1="15.4" y1="9.84" x2="15.4" y2="9.84" xlink:href="#linear-gradient"/><linearGradient id="linear-gradient-4" x1="2.92" y1="20.27" x2="29.89" y2="20.27" xlink:href="#linear-gradient"/></defs><title>Percentile icon_32 x 32</title><path class="cls-1" d="M1.53,30.67" transform="translate(-0.59 -0.67)"/><path class="cls-2" d="M30.61,30.78" transform="translate(-0.59 -0.67)"/><path class="cls-3" d="M15.4,9.84" transform="translate(-0.59 -0.67)"/><path class="cls-4" d="M25.12,23.22C22.79,16.84,21.46,9.11,15.5,9.74h-.17c-4.48.48-5.86,6.15-7.74,11.68l-.11.29C6.16,25.63,5.8,29,2.92,30.6l27,.24c.11,0-.68-.23-.77-.3-2.28-1.12-2.78-4-4-7.32" transform="translate(-0.59 -0.67)"/><path class="cls-5" d="M22.75,17.47c-1.44-3.83-3-7-5.94-7.32V30.72l5.93,0Z" transform="translate(-0.59 -0.67)"/><path class="cls-5" d="M16.82,10.14c3,.28,4.56,3.48,5.85,7.14" transform="translate(-0.59 -0.67)"/><polyline class="cls-6" points="22.91 30.61 22.87 30.58 22.87 20.8"/><polyline class="cls-6" points="8.56 30.39 8.52 30.35 8.52 20.43"/><polyline class="cls-7" points="15.47 30.14 15.43 30.06 15.43 9.85"/><polyline class="cls-8" points="30.72 30.14 0.66 30.14 0.63 30.03 0.63 0.63"/></svg>