<svg id="Layer_1" data-name="Layer 1" xmlns="http://www.w3.org/2000/svg" viewBox="0 0 13.71 15.91"><defs><style>.cls-1,.cls-10,.cls-4,.cls-5,.cls-6,.cls-7,.cls-8,.cls-9{fill:none;stroke-miterlimit:10;}.cls-1,.cls-4,.cls-5,.cls-6,.cls-7,.cls-8,.cls-9{stroke:#fff;}.cls-1{stroke-width:0.2px;}.cls-2{fill:#666;opacity:0.43;}.cls-3{fill:#fff;}.cls-4{stroke-width:0.5px;}.cls-5{stroke-width:0.25px;}.cls-6{stroke-width:0.45px;}.cls-7{stroke-width:0.1px;}.cls-8{stroke-width:0.75px;}.cls-9{stroke-width:0.4px;}.cls-10{stroke:#666;stroke-width:0.05px;opacity:0.85;}</style></defs><title>View Questions Header</title><path class="cls-1" d="M10.32,9.35l.81-.88,3.37,6.36c.68,1.13-.31,1.2-.81.88C13.43,15.54,10.41,9.25,10.32,9.35Z" transform="translate(-1.12 -0.06)"/><rect class="cls-2" x="9.94" y="12.34" width="5.44" height="0.56" rx="0.21" ry="0.21" transform="translate(16.95 -4.48) rotate(62.71)"/><rect class="cls-3" x="10.67" y="9.18" width="0.81" height="0.68" rx="0.13" ry="0.13" transform="translate(13.34 -4.75) rotate(62.71)"/><rect class="cls-4" x="0.25" y="2.38" width="8.8" height="12.71" rx="0.53" ry="0.53"/><rect class="cls-5" x="1.23" y="4.34" width="2.44" height="2.44" rx="0.37" ry="0.37"/><rect class="cls-5" x="1.23" y="7.27" width="2.44" height="2.44" rx="0.37" ry="0.37"/><rect class="cls-5" x="1.23" y="10.21" width="2.44" height="2.44" rx="0.37" ry="0.37"/><rect class="cls-3" x="2.53" y="1.41" width="3.91" height="0.98" rx="0.32" ry="0.32"/><rect class="cls-5" x="2.53" y="2.38" width="3.91" height="1.09" rx="0.3" ry="0.3"/><circle class="cls-6" cx="4.49" cy="0.92" r="0.69"/><circle class="cls-7" cx="3.13" cy="3.01" r="0.21"/><circle class="cls-7" cx="5.85" cy="3.01" r="0.21"/><line class="cls-5" x1="4.16" y1="4.83" x2="7.58" y2="4.83"/><line class="cls-5" x1="4.16" y1="5.32" x2="7.58" y2="5.32"/><line class="cls-5" x1="4.16" y1="5.81" x2="7.58" y2="5.81"/><line class="cls-5" x1="4.16" y1="6.29" x2="7.58" y2="6.29"/><line class="cls-5" x1="4.16" y1="7.76" x2="7.58" y2="7.76"/><line class="cls-5" x1="4.16" y1="8.25" x2="7.58" y2="8.25"/><line class="cls-5" x1="4.16" y1="8.74" x2="7.58" y2="8.74"/><line class="cls-5" x1="4.16" y1="9.23" x2="7.58" y2="9.23"/><line class="cls-5" x1="4.16" y1="10.69" x2="7.58" y2="10.69"/><line class="cls-5" x1="4.16" y1="11.18" x2="7.58" y2="11.18"/><line class="cls-5" x1="4.16" y1="11.67" x2="7.58" y2="11.67"/><line class="cls-5" x1="4.16" y1="12.16" x2="7.58" y2="12.16"/><circle class="cls-8" cx="8.56" cy="6.29" r="2.81"/><polygon class="cls-1" points="8.77 9.35 9.29 10.28 10.91 9.37 10.43 8.52 8.77 9.35"/><polyline class="cls-9" points="1.81 5.66 2.43 6.18 4.16 4.34"/><polyline class="cls-9" points="1.81 8.6 2.43 9.12 4.16 7.27"/><polyline class="cls-9" points="1.81 11.53 2.43 12.05 4.16 10.21"/><path class="cls-10" d="M7,6.21A2.26,2.26,0,0,1,9.38,3.56C7.75,4.2,7.05,5.08,7,6.21Z" transform="translate(-1.12 -0.06)"/></svg>