<svg id="Layer_1" data-name="Layer 1" xmlns="http://www.w3.org/2000/svg" viewBox="0 0 11.18 13.74"><defs><style>.cls-1{fill:none;stroke:#ef6fd1;stroke-linecap:round;stroke-miterlimit:10;}.cls-2{fill:#ef6fd1;}</style></defs><title>Recyclebin</title><path class="cls-1" d="M2.76,3.67l1.7,9.48a1.81,1.81,0,0,0,1.77,1.41H9.64A1.81,1.81,0,0,0,11.43,13l1.51-9.62" transform="translate(-2.26 -1.32)"/><path class="cls-2" d="M4.6,4.88h0c.9.11,2.87,1,3.61.44.27-.19.23-1.08,0-1.34s-.84-.17-.92-.41.41-.79.33-1A2.5,2.5,0,0,0,6.16,1.33a2.24,2.24,0,0,0-1.62.57C4.11,2.51,4.6,4.88,4.6,4.88Z" transform="translate(-2.26 -1.32)"/><path class="cls-2" d="M5,10.55v1a1,1,0,0,1,.89,1.12v.66H7.31s.59-1.06-.07-1.5l-.91-1.16Z" transform="translate(-2.26 -1.32)"/><path class="cls-2" d="M9,11.34A1.68,1.68,0,0,1,10,10a2.14,2.14,0,0,1,.5,1.1c0,.55.23,1.2-.34,1.73s-1.09-.72-1.09-.72.27-.21.23-.39.08-.26-.12-.31S9,11.34,9,11.34Z" transform="translate(-2.26 -1.32)"/><path class="cls-2" d="M7.26,7.14s.61.67,0,1.18c0,0-.68.57.35.67H8.88l-.06-1H8.48V6.85S7.91,6.12,7.26,7.14Z" transform="translate(-2.26 -1.32)"/><path class="cls-2" d="M9.94,5.6s.44.36,0,1.27c0,0,.75.74,1.25-.09A1.44,1.44,0,0,0,11.15,5s-.4-1-1-.09Z" transform="translate(-2.26 -1.32)"/></svg>