<?xml version="1.0"?>
<svg xmlns="http://www.w3.org/2000/svg" xmlns:xlink="http://www.w3.org/1999/xlink" version="1.1" id="Capa_1" x="0px" y="0px" viewBox="0 0 426.991 426.991" style="enable-background:new 0 0 426.991 426.991;" xml:space="preserve" width="512px" height="512px"><g><g>
	<g>
		<g>
			<path d="M279.629,264.858c6.4-29.867,34.133-51.2,66.133-51.2h59.733v-64c0-12.8-8.533-21.333-21.333-21.333H21.496     c-12.8,0-21.333,8.533-21.333,21.333v256c0,12.8,8.533,21.333,21.333,21.333h362.667c12.8,0,21.333-8.533,21.333-21.333v-64h-64     C303.096,341.658,271.096,305.391,279.629,264.858z" data-original="#000000" class="active-path" data-old_color="#000000" fill="#04458F"/>
			<path d="M341.496,256.324c-12.8,0-21.333,8.533-21.333,21.333s8.533,21.333,21.333,21.333h85.333v-42.667H341.496z" data-original="#000000" class="active-path" data-old_color="#000000" fill="#04458F"/>
			<path d="M341.496,21.658c0-14.933-12.8-23.467-27.733-21.333L42.829,85.658h298.667V21.658z" data-original="#000000" class="active-path" data-old_color="#000000" fill="#04458F"/>
		</g>
	</g>
</g></g> </svg>
