<svg id="Capa_1" enable-background="new 0 0 512 512" height="512" viewBox="0 0 512 512" width="512" xmlns="http://www.w3.org/2000/svg" xmlns:xlink="http://www.w3.org/1999/xlink"><linearGradient id="SVGID_1_" gradientUnits="userSpaceOnUse" x1="277" x2="277" y1="512" y2="0"><stop offset="0" stop-color="#fd3a84"/><stop offset="1" stop-color="#ffa68d"/></linearGradient><linearGradient id="SVGID_2_" gradientUnits="userSpaceOnUse" x1="226" x2="226" y1="512" y2="0"><stop offset="0" stop-color="#ffc2cc"/><stop offset="1" stop-color="#fff2f4"/></linearGradient><g><g><g><path d="m406 0h-105l-23 22h-67l-30-22h-60l-18 31v453l18 28h285c24.81 0 45-20.19 45-45v-422c0-24.81-20.19-45-45-45z" fill="url(#SVGID_1_)"/></g></g><g><g><path d="m376 301h-180c-8.284 0-15 6.716-15 15s6.716 15 15 15h180c8.284 0 15-6.716 15-15s-6.716-15-15-15zm-30 60h-120c-8.284 0-15 6.716-15 15s6.716 15 15 15h120c8.284 0 15-6.716 15-15s-6.716-15-15-15zm-157.078-181.775c4.879 2.611 10.796 2.324 15.398-.744l36.68-24.453 36.68 24.453c2.51 1.673 5.411 2.519 8.321 2.519 2.427 0 4.859-.588 7.077-1.775 4.877-2.61 7.922-7.693 7.922-13.225v-166h-120v166c0 5.532 3.045 10.615 7.922 13.225zm-127.922-164.225v482c0 8.28 6.72 15 15 15h45v-512h-45c-8.28 0-15 6.72-15 15z" fill="url(#SVGID_2_)"/></g></g></g></svg>