<svg id="Yel_Square" xmlns="http://www.w3.org/2000/svg" viewBox="0 0 9.39 12.85"><defs><style>.cls-1{fill:#fff;}.cls-1,.cls-7{stroke:#fdb714;}.cls-1,.cls-2,.cls-3,.cls-4,.cls-5,.cls-6,.cls-7{stroke-miterlimit:10;}.cls-1,.cls-2{stroke-width:0.25px;}.cls-2{fill:#fdb714;}.cls-2,.cls-3,.cls-6{stroke:#fff;}.cls-3,.cls-4,.cls-5,.cls-6,.cls-7{fill:none;stroke-linecap:round;}.cls-4,.cls-5{stroke:#ff931e;}.cls-4{stroke-width:2px;}.cls-6{stroke-width:0.5px;}.cls-7{stroke-width:0.65px;}</style></defs><title>03-(14-14)_Yeld_ICON_(Square)-290318_Reverse &amp;amp; Transp_svg</title><g id="icon-1_for_CIRCLE" data-name="icon-1 for CIRCLE"><line class="cls-1" x1="0.27" y1="3.95" x2="0.27" y2="8.18"/><line class="cls-1" x1="4.7" y1="3.98" x2="4.7" y2="10.32"/><line class="cls-1" x1="9.17" y1="4.58" x2="9.17" y2="10.29"/></g><circle class="cls-2" cx="2.47" cy="3.22" r="2.34"/><line class="cls-3" x1="2.41" y1="1.27" x2="2.41" y2="2.8"/><path class="cls-4" d="M4.66,3" transform="translate(-2.25 -0.68)"/><path class="cls-4" d="M4.66.58" transform="translate(-2.25 -0.68)"/><path class="cls-4" d="M4.66,3" transform="translate(-2.25 -0.68)"/><path class="cls-4" d="M4.66.58" transform="translate(-2.25 -0.68)"/><path class="cls-5" d="M4.66,3.64" transform="translate(-2.25 -0.68)"/><path class="cls-5" d="M4.66,1.22" transform="translate(-2.25 -0.68)"/><path class="cls-6" d="M4.66,3.69" transform="translate(-2.25 -0.68)"/><path class="cls-6" d="M4.66,1.28" transform="translate(-2.25 -0.68)"/><line class="cls-7" x1="2.41" y1="0.32" x2="2.41" y2="2.74"/><line class="cls-3" x1="2.41" y1="1.27" x2="2.41" y2="2.8"/><path class="cls-4" d="M4.66,3" transform="translate(-2.25 -0.68)"/><path class="cls-4" d="M4.66.58" transform="translate(-2.25 -0.68)"/><path class="cls-4" d="M4.66,3" transform="translate(-2.25 -0.68)"/><path class="cls-4" d="M4.66.58" transform="translate(-2.25 -0.68)"/><path class="cls-5" d="M4.66,3.64" transform="translate(-2.25 -0.68)"/><path class="cls-5" d="M4.66,1.22" transform="translate(-2.25 -0.68)"/><path class="cls-6" d="M4.66,3.69" transform="translate(-2.25 -0.68)"/><path class="cls-6" d="M4.66,1.28" transform="translate(-2.25 -0.68)"/><line class="cls-7" x1="2.41" y1="0.32" x2="2.41" y2="2.74"/><circle class="cls-2" cx="6.92" cy="9.64" r="2.34"/><line class="cls-3" x1="6.85" y1="11.59" x2="6.85" y2="10.05"/><path class="cls-4" d="M9.11,11.21" transform="translate(-2.25 -0.68)"/><path class="cls-4" d="M9.11,13.63" transform="translate(-2.25 -0.68)"/><path class="cls-4" d="M9.11,11.21" transform="translate(-2.25 -0.68)"/><path class="cls-4" d="M9.11,13.63" transform="translate(-2.25 -0.68)"/><path class="cls-5" d="M9.11,10.57" transform="translate(-2.25 -0.68)"/><path class="cls-5" d="M9.11,13" transform="translate(-2.25 -0.68)"/><path class="cls-6" d="M9.11,10.52" transform="translate(-2.25 -0.68)"/><path class="cls-6" d="M9.11,12.94" transform="translate(-2.25 -0.68)"/><line class="cls-7" x1="6.86" y1="12.53" x2="6.86" y2="10.11"/><line class="cls-3" x1="6.85" y1="11.59" x2="6.85" y2="10.05"/><path class="cls-4" d="M9.11,11.21" transform="translate(-2.25 -0.68)"/><path class="cls-4" d="M9.11,13.63" transform="translate(-2.25 -0.68)"/><path class="cls-4" d="M9.11,11.21" transform="translate(-2.25 -0.68)"/><path class="cls-4" d="M9.11,13.63" transform="translate(-2.25 -0.68)"/><path class="cls-5" d="M9.11,10.57" transform="translate(-2.25 -0.68)"/><path class="cls-5" d="M9.11,13" transform="translate(-2.25 -0.68)"/><path class="cls-6" d="M9.11,10.52" transform="translate(-2.25 -0.68)"/><path class="cls-6" d="M9.11,12.94" transform="translate(-2.25 -0.68)"/><line class="cls-7" x1="6.86" y1="12.53" x2="6.86" y2="10.11"/></svg>