<svg xmlns="http://www.w3.org/2000/svg" viewBox="0 0 14.03 14"><defs><style>.cls-1,.cls-5{fill:#f51f5d;}.cls-2{fill:#fff;}.cls-3,.cls-4,.cls-6,.cls-7{fill:none;}.cls-3,.cls-6,.cls-7{stroke:#fff;}.cls-3,.cls-4,.cls-5,.cls-6,.cls-7{stroke-miterlimit:10;}.cls-3,.cls-4{stroke-width:0.5px;}.cls-4,.cls-5{stroke:#ee255e;}.cls-5{stroke-width:0.25px;}.cls-6{stroke-width:0.3px;}</style></defs><title>03-(14-14)_2 ICONS_(Circle &amp;amp; Square)-orig_290318</title><g id="Red_Square"><rect class="cls-1" width="14" height="14"/></g><g id="Layer_9" data-name="Layer 9"><g id="Red_CIRCLE"><g id="icon-2"><ellipse class="cls-2" cx="4.4" cy="7.12" rx="1.04" ry="5.12"/><line class="cls-3" x1="0.66" y1="6.86" x2="12.96" y2="6.86"/><polyline class="cls-4" points="0.52 10.58 4.98 10.63 12.69 3.74 12.69 3.74"/><line class="cls-5" x1="0.66" y1="7.08" x2="14.03" y2="7.08"/><polyline class="cls-6" points="0.52 10.36 4.98 10.4 11.62 4.47"/><polygon class="cls-2" points="11.71 5.59 11.4 4.67 10.53 4.26 12.69 3.52 11.71 5.59"/><polyline class="cls-4" points="0.55 3.52 5.01 3.52 11.69 9.54 12.47 10.2"/><polyline class="cls-6" points="0.55 3.3 5.01 3.3 11.39 9.04"/><polygon class="cls-2" points="10.3 9.26 11.17 8.84 11.47 7.92 12.47 9.98 10.3 9.26"/><path class="cls-7" d="M7.3,10.86"/></g></g></g></svg>