<svg id="Yel_Square" xmlns="http://www.w3.org/2000/svg" viewBox="0 0 14 14.02"><defs><style>.cls-1{fill:#fcb713;}.cls-2,.cls-4,.cls-5,.cls-6{fill:none;}.cls-2,.cls-5,.cls-6{stroke:#fff;}.cls-2,.cls-3,.cls-4,.cls-5,.cls-6{stroke-miterlimit:10;}.cls-2{stroke-width:0.5px;}.cls-3{fill:#fff;stroke-width:0.25px;}.cls-3,.cls-4{stroke:#fdb714;}.cls-4,.cls-5,.cls-6{stroke-linecap:round;}.cls-4{stroke-width:1.5px;}.cls-5{stroke-width:2px;}</style></defs><title>03-(14-14)_Yeld_ICON_(Square)-290318_Orig</title><polyline class="cls-1" points="0 14.02 0 0 14 0 14 14.02"/><g id="icon-1_for_CIRCLE" data-name="icon-1 for CIRCLE"><line class="cls-2" x1="3.24" y1="4.77" x2="3.24" y2="8.23"/><line class="cls-2" x1="6.82" y1="4.89" x2="6.82" y2="10.08"/><line class="cls-2" x1="10.52" y1="5.39" x2="10.52" y2="10.05"/><circle class="cls-3" cx="8.73" cy="10.25" r="2.27"/></g><circle class="cls-3" cx="5.08" cy="3.68" r="2.27"/><line class="cls-4" x1="5.08" y1="1.15" x2="5.08" y2="3.29"/><path class="cls-5" d="M5.08,2.62" transform="translate(0 0.02)"/><path class="cls-5" d="M5.08.65" transform="translate(0 0.02)"/><path class="cls-5" d="M5.08,2.62" transform="translate(0 0.02)"/><path class="cls-5" d="M5.08.65" transform="translate(0 0.02)"/><path class="cls-6" d="M5.08,3.14" transform="translate(0 0.02)"/><path class="cls-6" d="M5.08,1.17" transform="translate(0 0.02)"/><line class="cls-6" x1="5.09" y1="1.24" x2="5.09" y2="3.21"/><line class="cls-4" x1="8.69" y1="10.76" x2="8.69" y2="12.9"/><path class="cls-5" d="M8.69,12.23" transform="translate(0 0.02)"/><path class="cls-5" d="M8.69,10.26" transform="translate(0 0.02)"/><path class="cls-5" d="M8.69,12.23" transform="translate(0 0.02)"/><path class="cls-5" d="M8.69,10.26" transform="translate(0 0.02)"/><path class="cls-6" d="M8.69,12.75" transform="translate(0 0.02)"/><path class="cls-6" d="M8.69,10.78" transform="translate(0 0.02)"/><line class="cls-6" x1="8.7" y1="10.85" x2="8.7" y2="12.82"/></svg>