<?xml version="1.0" encoding="utf-8"?>
<!-- Generator: Adobe Illustrator 21.0.0, SVG Export Plug-In . SVG Version: 6.00 Build 0)  -->
<svg version="1.1" id="Layer_1" xmlns="http://www.w3.org/2000/svg" xmlns:xlink="http://www.w3.org/1999/xlink" x="0px" y="0px"
	 viewBox="0 0 125 60" style="enable-background:new 0 0 125 60;" xml:space="preserve">
<style type="text/css">
	.st0{fill:none;stroke:#FE5A8F;stroke-width:2;stroke-miterlimit:10;}
	.st1{fill:#FE5A8F;}
	.st2{fill:#000607;}
	.st3{fill:none;stroke:#808080;stroke-miterlimit:10;}
	.st4{fill:#FFFFFF;}
	.st5{font-family:'Calibri';}
	.st6{font-size:14.2774px;}
	.st7{font-size:8.7472px;}
	.st8{fill:#FFFFFF;stroke:#000000;stroke-width:0.5;stroke-miterlimit:10;}
	.st9{fill:none;stroke:#FFFFFF;stroke-width:0.5;stroke-miterlimit:10;}
	.st10{fill:none;stroke:#FFFFFF;stroke-width:0.25;stroke-miterlimit:10;}
	.st11{fill:none;stroke:#FFFFFF;stroke-width:0.75;stroke-miterlimit:10;}
	.st12{fill:none;stroke:#FFFFFF;stroke-width:0.5;stroke-linecap:round;stroke-miterlimit:20;}
</style>
<path class="st0" d="M3.5,26v-0.5c0-6.9,6.3-12.5,14-12.5"/>
<path class="st0" d="M17.2,13h90.6c7.6,0,13.7,5.6,13.7,12.5v0.4"/>
<path class="st1" d="M105.6,43H19.4c-7.1,0-12.9-5.8-12.9-12.9v-0.3c0-7.1,5.8-12.9,12.9-12.9h86.3c7.1,0,12.9,5.8,12.9,12.9v0.3
	C118.5,37.2,112.7,43,105.6,43z"/>
<circle class="st2" cx="3.5" cy="29.5" r="1"/>
<circle class="st2" cx="121.5" cy="31" r="1"/>
<g>
	<g>
		<path class="st3" d="M3.5,34.5V35c0,6.9,6.3,12.5,14,12.5"/>
	</g>
	<g>
		<path class="st3" d="M17.2,47.5h90.6c7.6,0,13.7-5.6,13.7-12.5v-0.5"/>
	</g>
</g>
<g>
	<text transform="matrix(1 0 0 1 38.0305 30.0918)" class="st4 st5 st6">Comparat</text>
	<text transform="matrix(1 0 0 1 95.0305 30.0918)" class="st4 st5 st6">ive</text>
</g>
<text transform="matrix(1 0 0 1 79.9129 39.688)" class="st4 st5 st7">Analytics</text>
<path class="st8" d="M9.3,26.5"/>
<g>
	<path class="st8" d="M8.3,26.5"/>
	<path class="st9" d="M21,22c4.1,0,7.5,3.5,7.5,7.8s-3.4,7.8-7.5,7.8"/>
	<path class="st9" d="M21,39c-5.2,0-9.5-4.3-9.5-9.5"/>
	<path class="st9" d="M10.7,32.7c0.9,4.6,4.8,7.7,9.3,7.7"/>
	<g>
		<g>
			<g>
				<g>
					<g>
						<circle class="st4" cx="21.3" cy="19.6" r="1.4"/>
					</g>
				</g>
			</g>
		</g>
		<g>
			<g>
				<g>
					<g>
						<path class="st4" d="M23.8,23.5h-5c0,0,1-2.5,2-2.5h1C21.8,21,22.8,21,23.8,23.5z"/>
					</g>
				</g>
			</g>
		</g>
	</g>
	<g>
		<g>
			<g>
				<g>
					<g>
						<circle class="st4" cx="11.5" cy="30" r="1.4"/>
					</g>
				</g>
			</g>
		</g>
		<g>
			<g>
				<g>
					<g>
						<path class="st4" d="M14,33.9h-3.1H9c0,0,1-2.5,2-2.5h1C12,31.4,13,31.4,14,33.9z"/>
					</g>
				</g>
			</g>
		</g>
	</g>
	<g>
		<g>
			<g>
				<g>
					<g>
						<circle class="st4" cx="21.3" cy="37.5" r="1.4"/>
					</g>
				</g>
			</g>
		</g>
		<g>
			<g>
				<g>
					<g>
						<path class="st4" d="M23.8,41.4h-5c0,0,1-2.5,2-2.5h1C21.8,38.9,22.8,38.9,23.8,41.4z"/>
					</g>
				</g>
			</g>
		</g>
	</g>
	<g>
		<path class="st8" d="M8.3,26.4"/>
		
			<ellipse transform="matrix(1.537449e-02 -0.9999 0.9999 1.537449e-02 -18.2424 37.4371)" class="st4" cx="9.9" cy="28" rx="0.5" ry="0.5"/>
		
			<ellipse transform="matrix(1.537449e-02 -0.9999 0.9999 1.537449e-02 -14.5973 35.9561)" class="st4" cx="11" cy="25.4" rx="0.5" ry="0.5"/>
		
			<ellipse transform="matrix(1.537449e-02 -0.9999 0.9999 1.537449e-02 -11.6446 35.0467)" class="st4" cx="12" cy="23.4" rx="0.5" ry="0.5"/>
		
			<ellipse transform="matrix(1.537449e-02 -0.9999 0.9999 1.537449e-02 -7.6406 35.2377)" class="st4" cx="14.1" cy="21.5" rx="0.5" ry="0.5"/>
		
			<ellipse transform="matrix(1.537449e-02 -0.9999 0.9999 1.537449e-02 -4.6313 36.1847)" class="st4" cx="16.1" cy="20.4" rx="0.5" ry="0.5"/>
		
			<ellipse transform="matrix(1.537449e-02 -0.9999 0.9999 1.537449e-02 -1.7233 37.2287)" class="st4" cx="18" cy="19.5" rx="0.5" ry="0.5"/>
	</g>
	<ellipse transform="matrix(0.7835 -0.6214 0.6214 0.7835 -7.8146 20.1566)" class="st10" cx="25" cy="21.3" rx="0.5" ry="0.5"/>
	<ellipse transform="matrix(0.7835 -0.6214 0.6214 0.7835 -9.2558 23.4331)" class="st10" cx="29" cy="25" rx="0.5" ry="0.5"/>
	<ellipse transform="matrix(0.7835 -0.6214 0.6214 0.7835 -12.1462 25.137)" class="st10" cx="30" cy="30" rx="0.5" ry="0.5"/>
	<ellipse transform="matrix(0.7835 -0.6214 0.6214 0.7835 -15.5779 25.2875)" class="st10" cx="28.5" cy="35" rx="0.5" ry="0.5"/>
	<ellipse transform="matrix(0.7835 -0.6214 0.6214 0.7835 -18.4022 24.1812)" class="st10" cx="25.5" cy="38.5" rx="0.5" ry="0.5"/>
	<g>
		<g>
			<g>
				<polyline class="st11" points="15.2,34.2 16.7,29.7 21.2,31.2 23.4,26.3 				"/>
				<g>
					<polygon class="st4" points="24.3,24.3 24.2,27.6 23.3,26.4 21.9,26.6 					"/>
				</g>
			</g>
		</g>
		<polyline class="st12" points="16.9,34.5 17.6,32.2 22.1,33.6 24.1,29 		"/>
		<ellipse transform="matrix(0.7071 -0.7071 0.7071 0.7071 -15.096 25.555)" class="st10" cx="23.3" cy="31" rx="0.8" ry="0.8"/>
		<circle class="st10" cx="20" cy="33" r="0.8"/>
	</g>
	<path class="st9" d="M21.5,19.8l2.7,0.4c0.1,0.1,0.2,0,0.3-0.1l0.6-0.7c0.1-0.1,0.2-0.1,0.3-0.1l1.7,0.9l-0.9,1L28,23
		c0.1,0.1,0.1,0.1,0.2,0.1h1.6c0.1,0,0.2,0.1,0.2,0.2l0.8,1.7c0,0.1,0,0.2,0,0.2L29.9,27v1l1.7,0.9c0.1,0,0.1,0.1,0.1,0.2v1.6
		c0,0.1-0.1,0.2-0.1,0.2L30,31.7c-0.1,0-0.1,0.1-0.1,0.2v1.7c0,0.1,0,0.1,0.1,0.2l0.7,0.7c0.1,0.1,0.1,0.2,0,0.3L30,36.5
		c0,0.1-0.1,0.2-0.2,0.2h-1.6c-0.1,0-0.1,0-0.2,0.1l-0.8,0.8c0,0.1-0.1,0.1-0.1,0.2v1.7c0,0.1-0.1,0.2-0.1,0.2l-1.6,0.8
		c-0.1,0-0.2,0-0.3,0l-1.5-0.8c-0.1-0.1-0.2,0-0.3,0.1l-0.8,0.8"/>
	<path class="st9" d="M11.5,30.5c0-5.2,4.3-9.5,9.5-9.5"/>
</g>
</svg>
