<svg id="Layer_1" data-name="Layer 1" xmlns="http://www.w3.org/2000/svg" xmlns:xlink="http://www.w3.org/1999/xlink" viewBox="0 0 110.8 34.66"><defs><linearGradient id="linear-gradient" x1="16.99" y1="9.22" x2="114.04" y2="9.22" gradientUnits="userSpaceOnUse"><stop offset="0" stop-color="#b6b0ea"/><stop offset="0.48" stop-color="#d2badc"/><stop offset="1" stop-color="#f4c6cb"/></linearGradient><linearGradient id="linear-gradient-2" x1="7.11" y1="19.5" x2="110.61" y2="19.5" xlink:href="#linear-gradient"/><linearGradient id="linear-gradient-3" x1="16.99" y1="30.36" x2="114.04" y2="30.36" xlink:href="#linear-gradient"/></defs><title>individual-and-comparitive-buttons_Only Inactive Comparitive</title><path d="M4.34,15.71v-.48c0-6.63,5.82-12,12.93-12" transform="translate(-3.41 -2.46)" style="fill:none;stroke:#b6b0ea;stroke-miterlimit:10;stroke-width:1.5px"/><path d="M17,3.21h83.65c7,0,12.65,5.38,12.65,12v.38" transform="translate(-3.41 -2.46)" style="fill:none;stroke-miterlimit:10;stroke-width:1.5px;stroke:url(#linear-gradient)"/><path d="M98.61,32H19A12.19,12.19,0,0,1,7.11,19.65v-.29A12.19,12.19,0,0,1,19,7H98.7a12.19,12.19,0,0,1,11.91,12.4v.29C110.52,26.47,105.16,32,98.61,32Z" transform="translate(-3.41 -2.46)" style="fill:url(#linear-gradient-2)"/><ellipse cx="0.92" cy="16.61" rx="0.92" ry="0.96" style="fill:#b6b0ea"/><ellipse cx="109.88" cy="17.09" rx="0.92" ry="0.96" style="fill:#f7adb1"/><path d="M4.34,23.87v.48c0,6.63,5.82,12,12.93,12" transform="translate(-3.41 -2.46)" style="fill:none;stroke:#b6b0ea;stroke-miterlimit:10;stroke-width:1.5px"/><path d="M17,36.37h83.65c7,0,12.65-5.38,12.65-12v-.48" transform="translate(-3.41 -2.46)" style="fill:none;stroke-miterlimit:10;stroke-width:1.5px;stroke:url(#linear-gradient-3)"/><g style="isolation:isolate"><path d="M42.89,18.41c0,.07,0,.13,0,.19a.8.8,0,0,1,0,.14.48.48,0,0,1,0,.11l-.09.11a1.87,1.87,0,0,1-.27.2,3.2,3.2,0,0,1-.51.27,4.07,4.07,0,0,1-.7.22,3.87,3.87,0,0,1-.87.09,3.67,3.67,0,0,1-1.46-.28,3,3,0,0,1-1.11-.83,3.84,3.84,0,0,1-.71-1.36,6.35,6.35,0,0,1-.25-1.86,6.36,6.36,0,0,1,.27-1.92,4.22,4.22,0,0,1,.75-1.43A3.22,3.22,0,0,1,39,11.17a3.54,3.54,0,0,1,1.49-.31,3.47,3.47,0,0,1,.7.07,4.33,4.33,0,0,1,.63.18,2.82,2.82,0,0,1,.51.25,1.76,1.76,0,0,1,.31.23.77.77,0,0,1,.11.14.47.47,0,0,1,0,.11,1.11,1.11,0,0,1,0,.15,2,2,0,0,1,0,.21,1.67,1.67,0,0,1,0,.23.66.66,0,0,1,0,.16.24.24,0,0,1-.06.09.13.13,0,0,1-.09,0,.48.48,0,0,1-.25-.13,4.13,4.13,0,0,0-.42-.29,3.31,3.31,0,0,0-.62-.29,2.61,2.61,0,0,0-.88-.13,2.2,2.2,0,0,0-1,.23,2.16,2.16,0,0,0-.78.68,3.4,3.4,0,0,0-.5,1.1A5.58,5.58,0,0,0,38,15.35a5.59,5.59,0,0,0,.17,1.46,3.08,3.08,0,0,0,.49,1.06,2.07,2.07,0,0,0,.79.64,2.46,2.46,0,0,0,1.05.22,2.69,2.69,0,0,0,.87-.13,3.33,3.33,0,0,0,.63-.28,4.87,4.87,0,0,0,.43-.28.51.51,0,0,1,.27-.13l.08,0a.14.14,0,0,1,.05.08.73.73,0,0,1,0,.16C42.89,18.23,42.89,18.31,42.89,18.41Z" transform="translate(-3.41 -2.46)" style="fill:#fff"/><path d="M49.64,16.39a4.7,4.7,0,0,1-.19,1.36,3,3,0,0,1-.56,1.07,2.53,2.53,0,0,1-.93.7,3.11,3.11,0,0,1-1.29.25,3.22,3.22,0,0,1-1.25-.22,2.28,2.28,0,0,1-.89-.64,2.78,2.78,0,0,1-.53-1,4.94,4.94,0,0,1-.17-1.37A4.77,4.77,0,0,1,44,15.15a3,3,0,0,1,.55-1.07,2.51,2.51,0,0,1,.92-.7,3.14,3.14,0,0,1,1.29-.25,3.22,3.22,0,0,1,1.25.22,2.28,2.28,0,0,1,.89.64,2.8,2.8,0,0,1,.53,1A4.82,4.82,0,0,1,49.64,16.39Zm-1.1.07a4.67,4.67,0,0,0-.09-.92,2.33,2.33,0,0,0-.29-.76,1.46,1.46,0,0,0-.55-.52,1.75,1.75,0,0,0-.86-.19,1.77,1.77,0,0,0-.82.17,1.51,1.51,0,0,0-.56.49,2.24,2.24,0,0,0-.33.75,4,4,0,0,0-.11,1,4.7,4.7,0,0,0,.09.93,2.25,2.25,0,0,0,.29.76,1.49,1.49,0,0,0,.55.52,1.75,1.75,0,0,0,.86.19,1.78,1.78,0,0,0,.81-.17,1.52,1.52,0,0,0,.57-.49,2.17,2.17,0,0,0,.32-.75A4.13,4.13,0,0,0,48.54,16.46Z" transform="translate(-3.41 -2.46)" style="fill:#fff"/><path d="M59.81,19.47a.15.15,0,0,1,0,.09.2.2,0,0,1-.08.06l-.16,0H59l-.16,0a.2.2,0,0,1-.09-.06.15.15,0,0,1,0-.09V15.81a3.48,3.48,0,0,0-.06-.7,1.65,1.65,0,0,0-.21-.54,1,1,0,0,0-.36-.35,1.05,1.05,0,0,0-.52-.12,1.18,1.18,0,0,0-.74.29,5.16,5.16,0,0,0-.81.86v4.21a.15.15,0,0,1,0,.09.2.2,0,0,1-.09.06l-.16,0h-.51l-.17,0a.18.18,0,0,1-.08-.06.17.17,0,0,1,0-.09V15.81a3.17,3.17,0,0,0-.07-.7,1.76,1.76,0,0,0-.21-.54,1,1,0,0,0-.36-.35,1,1,0,0,0-.51-.12,1.2,1.2,0,0,0-.74.29,4.93,4.93,0,0,0-.81.86v4.21a.15.15,0,0,1,0,.09.2.2,0,0,1-.08.06l-.16,0h-.52l-.16,0a.18.18,0,0,1-.08-.06.17.17,0,0,1,0-.09v-6a.19.19,0,0,1,0-.09.17.17,0,0,1,.08-.07l.15,0h.47a.36.36,0,0,1,.14,0,.21.21,0,0,1,.07.07.17.17,0,0,1,0,.09v.8a3.79,3.79,0,0,1,.95-.83,1.84,1.84,0,0,1,.93-.27,2.22,2.22,0,0,1,.65.09,1.71,1.71,0,0,1,.51.24,1.6,1.6,0,0,1,.37.38,2.19,2.19,0,0,1,.26.49,6.14,6.14,0,0,1,.55-.56,3.29,3.29,0,0,1,.5-.37,2,2,0,0,1,.47-.2,1.71,1.71,0,0,1,.46-.06,2,2,0,0,1,.94.2,1.73,1.73,0,0,1,.61.55,2.24,2.24,0,0,1,.33.8,4.56,4.56,0,0,1,.1,1Z" transform="translate(-3.41 -2.46)" style="fill:#fff"/><path d="M67.09,16.36a5.64,5.64,0,0,1-.16,1.42,3.15,3.15,0,0,1-.48,1.07,2.18,2.18,0,0,1-.79.68,2.35,2.35,0,0,1-1.08.24,2,2,0,0,1-.48-.05,1.76,1.76,0,0,1-.43-.17,2.49,2.49,0,0,1-.42-.29c-.14-.12-.28-.25-.44-.41v3a.17.17,0,0,1,0,.09.19.19,0,0,1-.08.07l-.16,0H62l-.16,0a.17.17,0,0,1-.08-.07.19.19,0,0,1,0-.09V13.44a.21.21,0,0,1,0-.1.16.16,0,0,1,.08-.06l.15,0h.44l.15,0a.18.18,0,0,1,.08.06.18.18,0,0,1,0,.1v.81a6.27,6.27,0,0,1,.51-.49,3.05,3.05,0,0,1,.49-.35,2.28,2.28,0,0,1,.51-.21,2.1,2.1,0,0,1,.55-.07,2.13,2.13,0,0,1,1.07.25,2.06,2.06,0,0,1,.72.7,3.19,3.19,0,0,1,.41,1A5.81,5.81,0,0,1,67.09,16.36Zm-1.1.13a5.74,5.74,0,0,0-.07-.89,2.66,2.66,0,0,0-.23-.77,1.42,1.42,0,0,0-.44-.54,1.15,1.15,0,0,0-.69-.2,1.36,1.36,0,0,0-.41.06,1.65,1.65,0,0,0-.41.2,2.94,2.94,0,0,0-.43.36,5.52,5.52,0,0,0-.48.55v2.4a4.69,4.69,0,0,0,.84.85,1.36,1.36,0,0,0,.83.29,1.18,1.18,0,0,0,.69-.2,1.5,1.5,0,0,0,.47-.54,2.75,2.75,0,0,0,.26-.75A4.2,4.2,0,0,0,66,16.49Z" transform="translate(-3.41 -2.46)" style="fill:#fff"/><path d="M73.06,19.48a.14.14,0,0,1-.05.12.35.35,0,0,1-.14.06l-.26,0-.27,0a.31.31,0,0,1-.15-.06.15.15,0,0,1,0-.12v-.6a2.87,2.87,0,0,1-.85.66,2.17,2.17,0,0,1-1,.23,2.6,2.6,0,0,1-.83-.12,1.77,1.77,0,0,1-.63-.36,1.61,1.61,0,0,1-.41-.58,2,2,0,0,1-.14-.78,1.86,1.86,0,0,1,.2-.88,1.7,1.7,0,0,1,.57-.62,2.75,2.75,0,0,1,.91-.37,5.46,5.46,0,0,1,1.22-.12H72v-.47a2.42,2.42,0,0,0-.07-.62,1.08,1.08,0,0,0-.23-.45,1,1,0,0,0-.41-.27,1.83,1.83,0,0,0-.62-.09,2.38,2.38,0,0,0-.7.1,3.69,3.69,0,0,0-.55.21l-.39.21a.53.53,0,0,1-.23.1.16.16,0,0,1-.09,0,.23.23,0,0,1-.07-.08.43.43,0,0,1,0-.14,1.26,1.26,0,0,1,0-.18,1.22,1.22,0,0,1,0-.26.39.39,0,0,1,.11-.18,1.4,1.4,0,0,1,.3-.2,3.24,3.24,0,0,1,.49-.21,4.35,4.35,0,0,1,.6-.16,3.47,3.47,0,0,1,.66-.06,3.36,3.36,0,0,1,1.06.15,1.71,1.71,0,0,1,.71.43,1.69,1.69,0,0,1,.39.71,3.55,3.55,0,0,1,.12,1ZM72,16.72H71.1a3.29,3.29,0,0,0-.76.08,1.53,1.53,0,0,0-.53.23.93.93,0,0,0-.31.36,1.13,1.13,0,0,0-.1.49,1,1,0,0,0,.29.75,1.1,1.1,0,0,0,.8.28,1.45,1.45,0,0,0,.78-.22A3.38,3.38,0,0,0,72,18Z" transform="translate(-3.41 -2.46)" style="fill:#fff"/><path d="M78.41,13.84c0,.1,0,.18,0,.25a.63.63,0,0,1,0,.16.22.22,0,0,1,0,.09.11.11,0,0,1-.08,0l-.13,0L78,14.27l-.21-.06-.25,0a.79.79,0,0,0-.32.07,1.24,1.24,0,0,0-.33.22,2.78,2.78,0,0,0-.36.41q-.19.25-.41.62v4a.15.15,0,0,1,0,.09.2.2,0,0,1-.08.06l-.16,0H75.3l-.16,0a.18.18,0,0,1-.08-.06.17.17,0,0,1,0-.09v-6a.19.19,0,0,1,0-.09.17.17,0,0,1,.08-.07l.15,0h.47a.36.36,0,0,1,.14,0,.21.21,0,0,1,.07.07.17.17,0,0,1,0,.09v.88a4.73,4.73,0,0,1,.45-.59,2.5,2.5,0,0,1,.4-.36,1.22,1.22,0,0,1,.37-.18,1.41,1.41,0,0,1,.37-.05h.19l.22,0,.21.06.13.07.05.06,0,.08a.94.94,0,0,1,0,.14Q78.41,13.68,78.41,13.84Z" transform="translate(-3.41 -2.46)" style="fill:#fff"/><path d="M83.73,19.48a.14.14,0,0,1-.05.12.35.35,0,0,1-.14.06l-.26,0-.27,0a.31.31,0,0,1-.15-.06.15.15,0,0,1,0-.12v-.6a2.87,2.87,0,0,1-.85.66,2.17,2.17,0,0,1-1,.23,2.6,2.6,0,0,1-.83-.12,1.77,1.77,0,0,1-.63-.36,1.61,1.61,0,0,1-.41-.58,2,2,0,0,1-.14-.78,1.86,1.86,0,0,1,.2-.88,1.7,1.7,0,0,1,.57-.62,2.75,2.75,0,0,1,.91-.37,5.46,5.46,0,0,1,1.22-.12h.8v-.47a2.42,2.42,0,0,0-.07-.62,1.08,1.08,0,0,0-.23-.45,1,1,0,0,0-.41-.27,1.83,1.83,0,0,0-.62-.09,2.38,2.38,0,0,0-.7.1,3.69,3.69,0,0,0-.55.21l-.39.21a.53.53,0,0,1-.23.1.16.16,0,0,1-.09,0,.23.23,0,0,1-.07-.08.43.43,0,0,1,0-.14,1.26,1.26,0,0,1,0-.18,1.22,1.22,0,0,1,0-.26.39.39,0,0,1,.11-.18,1.4,1.4,0,0,1,.3-.2,3.24,3.24,0,0,1,.49-.21,4.35,4.35,0,0,1,.6-.16,3.47,3.47,0,0,1,.66-.06,3.36,3.36,0,0,1,1.06.15,1.71,1.71,0,0,1,.71.43,1.69,1.69,0,0,1,.39.71,3.55,3.55,0,0,1,.12,1Zm-1.06-2.75h-.91a3.29,3.29,0,0,0-.76.08,1.53,1.53,0,0,0-.53.23.93.93,0,0,0-.31.36,1.13,1.13,0,0,0-.1.49,1,1,0,0,0,.29.75,1.1,1.1,0,0,0,.8.28,1.45,1.45,0,0,0,.78-.22,3.38,3.38,0,0,0,.75-.68Z" transform="translate(-3.41 -2.46)" style="fill:#fff"/><path d="M88.58,19a1.47,1.47,0,0,1,0,.31.35.35,0,0,1-.08.17.51.51,0,0,1-.15.1l-.23.08-.28.05-.3,0a2.14,2.14,0,0,1-.77-.12,1.25,1.25,0,0,1-.53-.37,1.57,1.57,0,0,1-.3-.64,3.9,3.9,0,0,1-.09-.91V14.18H85a.17.17,0,0,1-.15-.11.78.78,0,0,1-.06-.35,1.2,1.2,0,0,1,0-.21.61.61,0,0,1,0-.14.17.17,0,0,1,.07-.08l.09,0h.8V11.83a.18.18,0,0,1,0-.09.19.19,0,0,1,.08-.07l.16,0h.52l.16,0a.22.22,0,0,1,.08.07.16.16,0,0,1,0,.09v1.43h1.49l.09,0a.19.19,0,0,1,.07.08.47.47,0,0,1,0,.14,1.46,1.46,0,0,1,0,.21.78.78,0,0,1-.06.35.17.17,0,0,1-.15.11H86.88v3.36a2,2,0,0,0,.18.94.66.66,0,0,0,.63.32,1.06,1.06,0,0,0,.26,0l.21-.06.15-.06.12,0,.06,0a.11.11,0,0,1,0,.06.82.82,0,0,1,0,.13A1.27,1.27,0,0,1,88.58,19Z" transform="translate(-3.41 -2.46)" style="fill:#fff"/></g><g style="isolation:isolate"><path d="M91,11.4a.75.75,0,0,1-.14.53.74.74,0,0,1-.52.14.73.73,0,0,1-.51-.14.73.73,0,0,1-.14-.52.75.75,0,0,1,.14-.53.74.74,0,0,1,.52-.14.73.73,0,0,1,.51.14A.73.73,0,0,1,91,11.4Zm-.12,8.07a.15.15,0,0,1,0,.09.2.2,0,0,1-.08.06l-.16,0h-.52l-.16,0a.18.18,0,0,1-.08-.06.17.17,0,0,1,0-.09v-6a.16.16,0,0,1,.11-.15l.16,0h.52l.16,0a.19.19,0,0,1,.08.07.16.16,0,0,1,0,.09Z" transform="translate(-3.41 -2.46)" style="fill:#fff"/><path d="M97.62,13.43a.47.47,0,0,1,0,.06v.06l0,.07,0,.09-2,5.73a.35.35,0,0,1-.07.12.28.28,0,0,1-.13.07l-.21,0h-.64l-.21,0a.3.3,0,0,1-.13-.07.33.33,0,0,1-.07-.11l-2-5.73,0-.14a.62.62,0,0,1,0-.09.42.42,0,0,1,0,0,.16.16,0,0,1,.11-.16l.16,0h.55l.17,0a.21.21,0,0,1,.09.07l.05.1,1.63,5,0,.08,0-.08,1.62-5a.21.21,0,0,1,.14-.17l.17,0h.52l.15,0a.18.18,0,0,1,.08.06A.18.18,0,0,1,97.62,13.43Z" transform="translate(-3.41 -2.46)" style="fill:#fff"/><path d="M103.66,16.19a.47.47,0,0,1-.13.37.42.42,0,0,1-.29.11H99.43a3.85,3.85,0,0,0,.1.9,1.77,1.77,0,0,0,.32.69,1.46,1.46,0,0,0,.59.44,2.26,2.26,0,0,0,.89.15,3.49,3.49,0,0,0,.74-.07,4.22,4.22,0,0,0,.56-.16l.39-.16a.62.62,0,0,1,.23-.07l.08,0a.15.15,0,0,1,.06.07.51.51,0,0,1,0,.13,1.72,1.72,0,0,1,0,.2,1.5,1.5,0,0,1,0,.15s0,.08,0,.11a.29.29,0,0,1,0,.09l-.06.08a.92.92,0,0,1-.21.12,2.89,2.89,0,0,1-.45.16,6,6,0,0,1-.64.14,4.5,4.5,0,0,1-.78.06,3.46,3.46,0,0,1-1.25-.21,2.31,2.31,0,0,1-.9-.62,2.67,2.67,0,0,1-.55-1,5,5,0,0,1-.19-1.43,4.7,4.7,0,0,1,.19-1.4A3,3,0,0,1,99.08,14a2.44,2.44,0,0,1,.88-.66,2.78,2.78,0,0,1,1.15-.23,2.69,2.69,0,0,1,1.16.23,2.2,2.2,0,0,1,.79.61,2.5,2.5,0,0,1,.45.9,4.13,4.13,0,0,1,.14,1.11Zm-1.07-.33a2.07,2.07,0,0,0-.37-1.37,1.39,1.39,0,0,0-1.16-.5,1.49,1.49,0,0,0-.69.15,1.52,1.52,0,0,0-.5.41,1.91,1.91,0,0,0-.31.59,2.57,2.57,0,0,0-.12.71Z" transform="translate(-3.41 -2.46)" style="fill:#fff"/></g><g style="isolation:isolate"><path d="M79.39,28.61a.54.54,0,0,1,0,.15.1.1,0,0,1,0,.08.19.19,0,0,1-.1,0H78.9l-.11,0-.06,0,0-.06-.44-1.29H76.14l-.42,1.28,0,.06-.06,0-.11,0h-.37a.19.19,0,0,1-.1,0,.11.11,0,0,1,0-.08.51.51,0,0,1,0-.15l1.71-4.93a.21.21,0,0,1,0-.07l.08,0,.13,0h.4l.13,0,.08,0a.21.21,0,0,1,0,.08Zm-2.2-4.36h0l-.88,2.65h1.77Z" transform="translate(-3.41 -2.46)" style="fill:#fff"/><path d="M83.22,28.76a.09.09,0,0,1,0,.06l-.05,0-.1,0h-.32l-.1,0-.05,0a.09.09,0,0,1,0-.06V26.6a2.23,2.23,0,0,0,0-.51,1.07,1.07,0,0,0-.14-.33.6.6,0,0,0-.23-.21.72.72,0,0,0-.33-.07.82.82,0,0,0-.49.18,2.7,2.7,0,0,0-.51.53v2.58a.09.09,0,0,1,0,.06l-.05,0-.1,0h-.32l-.1,0-.05,0a.1.1,0,0,1,0-.06V25.06a.12.12,0,0,1,0-.06l0,0,.09,0h.29l.09,0,0,0a.1.1,0,0,1,0,.06v.49a2.21,2.21,0,0,1,.6-.51,1.25,1.25,0,0,1,.6-.16,1.29,1.29,0,0,1,.6.13,1.09,1.09,0,0,1,.39.33,1.37,1.37,0,0,1,.21.49,3,3,0,0,1,.06.68Z" transform="translate(-3.41 -2.46)" style="fill:#fff"/><path d="M87.09,28.76a.09.09,0,0,1,0,.07l-.09,0h-.33l-.09,0a.1.1,0,0,1,0-.07v-.37a1.76,1.76,0,0,1-.52.4,1.33,1.33,0,0,1-.61.14,1.59,1.59,0,0,1-.51-.08,1.07,1.07,0,0,1-.39-.22,1,1,0,0,1-.25-.35,1.21,1.21,0,0,1-.09-.48,1.14,1.14,0,0,1,.12-.54,1,1,0,0,1,.35-.38,1.68,1.68,0,0,1,.56-.23,3.34,3.34,0,0,1,.75-.08h.49V26.3a1.49,1.49,0,0,0,0-.38.66.66,0,0,0-.14-.27.6.6,0,0,0-.25-.16,1.14,1.14,0,0,0-.38-.06,1.44,1.44,0,0,0-.43.06,2.26,2.26,0,0,0-.34.13l-.24.13a.33.33,0,0,1-.14.06l-.06,0,0,0a.25.25,0,0,1,0-.08.73.73,0,0,1,0-.11.75.75,0,0,1,0-.16.23.23,0,0,1,.07-.11.86.86,0,0,1,.18-.12l.3-.13.37-.1a2.13,2.13,0,0,1,.41,0,2.06,2.06,0,0,1,.65.09,1,1,0,0,1,.43.26,1,1,0,0,1,.24.43,2.18,2.18,0,0,1,.08.6Zm-.65-1.69h-.56a2,2,0,0,0-.47,0,.94.94,0,0,0-.33.14.58.58,0,0,0-.19.22.69.69,0,0,0-.06.3.61.61,0,0,0,.18.46.68.68,0,0,0,.49.17.89.89,0,0,0,.48-.14,2.07,2.07,0,0,0,.46-.41Z" transform="translate(-3.41 -2.46)" style="fill:#fff"/><path d="M88.93,28.76a.09.09,0,0,1,0,.06l-.05,0-.1,0h-.32l-.1,0-.05,0a.1.1,0,0,1,0-.06V23.27a.12.12,0,0,1,0-.06l.05,0,.1,0h.32l.1,0,.05,0a.11.11,0,0,1,0,.06Z" transform="translate(-3.41 -2.46)" style="fill:#fff"/><path d="M91.75,28.86l-.47,1.36a.18.18,0,0,1-.12.1.93.93,0,0,1-.29,0H90.7l-.1,0a.09.09,0,0,1,0-.07.22.22,0,0,1,0-.1l.49-1.28L91,28.81a.21.21,0,0,1,0-.08L89.7,25.2a.42.42,0,0,1,0-.14.1.1,0,0,1,0-.08.19.19,0,0,1,.1,0h.37l.11,0a.12.12,0,0,1,.06,0l0,.08,1,3h0l1-3a.19.19,0,0,1,.06-.1l.1,0h.38a.21.21,0,0,1,.1,0,.1.1,0,0,1,0,.08.42.42,0,0,1,0,.12Z" transform="translate(-3.41 -2.46)" style="fill:#fff"/><path d="M96.92,25a.2.2,0,0,1,.16.06.26.26,0,0,1,0,.16v3.58a.09.09,0,0,1,0,.06l-.05,0-.1,0h-.32l-.1,0-.05,0a.09.09,0,0,1,0-.06V25.52H94.63v2.06a1.22,1.22,0,0,0,.11.58.41.41,0,0,0,.39.2l.16,0,.13,0,.09,0,.07,0h0l0,0a.46.46,0,0,1,0,.08.78.78,0,0,1,0,.12.84.84,0,0,1,0,.19.23.23,0,0,1,0,.1l-.09.06-.14,0-.17,0H95a1.31,1.31,0,0,1-.47-.08.76.76,0,0,1-.32-.23,1,1,0,0,1-.18-.39,2.38,2.38,0,0,1-.06-.56V25.52h-.5a.11.11,0,0,1-.09-.07.48.48,0,0,1,0-.21.72.72,0,0,1,0-.13.39.39,0,0,1,0-.09.11.11,0,0,1,0,0H94v-.88A.11.11,0,0,1,94,24L94,24l.1,0h.32l.1,0,.05,0a.1.1,0,0,1,0,.05V25Zm.28-1.14a.46.46,0,0,1-.09.32.45.45,0,0,1-.32.09.33.33,0,0,1-.4-.4.46.46,0,0,1,.09-.32.46.46,0,0,1,.32-.09.44.44,0,0,1,.31.08A.45.45,0,0,1,97.2,23.82Z" transform="translate(-3.41 -2.46)" style="fill:#fff"/><path d="M100.88,28.2s0,.09,0,.12a.46.46,0,0,1,0,.09l0,.06-.06.08-.17.13a1.61,1.61,0,0,1-.27.14,2,2,0,0,1-.32.1,1.7,1.7,0,0,1-.36,0,1.66,1.66,0,0,1-.68-.13,1.29,1.29,0,0,1-.49-.38,1.77,1.77,0,0,1-.3-.62,3.1,3.1,0,0,1-.1-.85,3,3,0,0,1,.13-.94,1.79,1.79,0,0,1,.35-.64,1.39,1.39,0,0,1,.52-.37,1.73,1.73,0,0,1,.65-.12,1.62,1.62,0,0,1,.33,0l.29.09a1.27,1.27,0,0,1,.24.12l.15.12.06.08,0,.07a.44.44,0,0,1,0,.09s0,.07,0,.12a.49.49,0,0,1,0,.22.1.1,0,0,1-.09.06.22.22,0,0,1-.14-.07l-.2-.15a1.45,1.45,0,0,0-.29-.15,1.05,1.05,0,0,0-.4-.07.81.81,0,0,0-.72.38,2,2,0,0,0-.25,1.09,2.68,2.68,0,0,0,.06.63A1.32,1.32,0,0,0,99,28a.8.8,0,0,0,.31.27,1,1,0,0,0,.42.09,1,1,0,0,0,.39-.07,1.64,1.64,0,0,0,.29-.16l.21-.16a.24.24,0,0,1,.13-.07l0,0a.12.12,0,0,1,0,.06.43.43,0,0,1,0,.1S100.88,28.14,100.88,28.2Z" transform="translate(-3.41 -2.46)" style="fill:#fff"/><path d="M104,27.75a1.21,1.21,0,0,1-.1.5,1,1,0,0,1-.29.37,1.26,1.26,0,0,1-.44.23,1.94,1.94,0,0,1-.56.08,2,2,0,0,1-.36,0l-.31-.08-.23-.1-.14-.09a.23.23,0,0,1-.06-.11.81.81,0,0,1,0-.2,1,1,0,0,1,0-.13.48.48,0,0,1,0-.09.09.09,0,0,1,0,0h0a.28.28,0,0,1,.13.06l.21.12.29.12a1.26,1.26,0,0,0,.39.06,1.12,1.12,0,0,0,.3,0,.71.71,0,0,0,.23-.11.48.48,0,0,0,.15-.18.6.6,0,0,0,.05-.26.44.44,0,0,0-.08-.26.76.76,0,0,0-.2-.19,1.66,1.66,0,0,0-.28-.15l-.33-.13-.33-.16a1.25,1.25,0,0,1-.29-.22,1,1,0,0,1-.2-.3,1.06,1.06,0,0,1-.08-.42,1.1,1.1,0,0,1,.08-.42,1,1,0,0,1,.24-.35,1.2,1.2,0,0,1,.4-.24,1.62,1.62,0,0,1,.57-.09l.28,0,.26.06.2.08.12.08.06.06,0,.06v.08a.88.88,0,0,1,0,.11,1.09,1.09,0,0,1,0,.12.31.31,0,0,1,0,.08l0,0h0a.21.21,0,0,1-.1,0l-.17-.1-.25-.1a1.09,1.09,0,0,0-.33,0,1,1,0,0,0-.29,0,.55.55,0,0,0-.21.11.47.47,0,0,0-.12.17.54.54,0,0,0,0,.21.45.45,0,0,0,.08.27.76.76,0,0,0,.21.19,1.67,1.67,0,0,0,.29.15l.33.14.33.16a1.26,1.26,0,0,1,.29.21,1,1,0,0,1,.2.3A1,1,0,0,1,104,27.75Z" transform="translate(-3.41 -2.46)" style="fill:#fff"/></g><path d="M9.72,16.19" transform="translate(-3.41 -2.46)" style="fill:#fff;stroke:#000;stroke-miterlimit:10;stroke-width:0.5px"/><path d="M8.77,16.19" transform="translate(-3.41 -2.46)" style="fill:#fff;stroke:#000;stroke-miterlimit:10;stroke-width:0.5px"/><path d="M20.5,11.86c3.79,0,6.93,3.36,6.93,7.5s-3.14,7.5-6.93,7.5" transform="translate(-3.41 -2.46)" style="fill:none;stroke:#fff;stroke-miterlimit:10;stroke-width:0.5px"/><path d="M20.5,28.2a9,9,0,0,1-8.77-9.13" transform="translate(-3.41 -2.46)" style="fill:none;stroke:#fff;stroke-miterlimit:10;stroke-width:0.5px"/><path d="M11,22.14a8.79,8.79,0,0,0,8.59,7.4" transform="translate(-3.41 -2.46)" style="fill:none;stroke:#fff;stroke-miterlimit:10;stroke-width:0.5px"/><ellipse cx="17.36" cy="7.09" rx="1.29" ry="1.35" style="fill:#fff"/><path d="M23.08,13.3H18.46s.92-2.4,1.85-2.4h.92S22.16,10.9,23.08,13.3Z" transform="translate(-3.41 -2.46)" style="fill:#fff"/><ellipse cx="8.31" cy="17.09" rx="1.29" ry="1.35" style="fill:#fff"/><path d="M14,23.3H9.41s.92-2.4,1.85-2.4h.92S13.11,20.9,14,23.3Z" transform="translate(-3.41 -2.46)" style="fill:#fff"/><ellipse cx="17.36" cy="24.3" rx="1.29" ry="1.35" style="fill:#fff"/><path d="M23.08,30.51H18.46s.92-2.4,1.85-2.4h.92S22.16,28.1,23.08,30.51Z" transform="translate(-3.41 -2.46)" style="fill:#fff"/><path d="M8.77,16.09" transform="translate(-3.41 -2.46)" style="fill:#fff;stroke:#000;stroke-miterlimit:10;stroke-width:0.5px"/><ellipse cx="10.23" cy="17.61" rx="0.48" ry="0.46" transform="translate(-10.95 25.1) rotate(-89.08)" style="fill:#fff"/><ellipse cx="11.22" cy="15.12" rx="0.48" ry="0.46" transform="translate(-7.49 23.64) rotate(-89.08)" style="fill:#fff"/><ellipse cx="12.16" cy="13.24" rx="0.48" ry="0.46" transform="translate(-4.69 22.73) rotate(-89.08)" style="fill:#fff"/><ellipse cx="14.1" cy="11.38" rx="0.48" ry="0.46" transform="translate(-0.92 22.83) rotate(-89.08)" style="fill:#fff"/><ellipse cx="15.93" cy="10.37" rx="0.48" ry="0.46" transform="translate(1.9 23.67) rotate(-89.08)" style="fill:#fff"/><ellipse cx="17.76" cy="9.45" rx="0.48" ry="0.46" transform="translate(4.62 24.6) rotate(-89.08)" style="fill:#fff"/><path d="M23.92,10.8a.45.45,0,0,1,.65.08.49.49,0,0,1-.07.68.45.45,0,0,1-.65-.08A.49.49,0,0,1,23.92,10.8Z" transform="translate(-3.41 -2.46)" style="fill:none;stroke:#fff;stroke-miterlimit:10;stroke-width:0.25px"/><path d="M27.59,14.37a.45.45,0,0,1,.65.08.49.49,0,0,1-.07.68.45.45,0,0,1-.65-.08A.49.49,0,0,1,27.59,14.37Z" transform="translate(-3.41 -2.46)" style="fill:none;stroke:#fff;stroke-miterlimit:10;stroke-width:0.25px"/><path d="M28.52,19.17a.45.45,0,0,1,.65.08.49.49,0,0,1-.07.68.45.45,0,0,1-.65-.08A.49.49,0,0,1,28.52,19.17Z" transform="translate(-3.41 -2.46)" style="fill:none;stroke:#fff;stroke-miterlimit:10;stroke-width:0.25px"/><path d="M27.13,24a.45.45,0,0,1,.65.08.49.49,0,0,1-.07.68.45.45,0,0,1-.65-.08A.49.49,0,0,1,27.13,24Z" transform="translate(-3.41 -2.46)" style="fill:none;stroke:#fff;stroke-miterlimit:10;stroke-width:0.25px"/><path d="M24.36,27.34a.45.45,0,0,1,.65.08.49.49,0,0,1-.07.68.45.45,0,0,1-.65-.08A.49.49,0,0,1,24.36,27.34Z" transform="translate(-3.41 -2.46)" style="fill:none;stroke:#fff;stroke-miterlimit:10;stroke-width:0.25px"/><polyline points="11.73 21.13 13.11 16.8 17.27 18.24 19.3 13.53" style="fill:none;stroke:#fff;stroke-miterlimit:10;stroke-width:0.75px"/><polygon points="20.13 11.61 20.04 14.78 19.2 13.63 17.91 13.82 20.13 11.61" style="fill:#fff"/><polyline points="13.3 21.41 13.94 19.2 18.1 20.55 19.94 16.13" style="fill:none;stroke:#fff;stroke-linecap:round;stroke-miterlimit:20;stroke-width:0.5px"/><path d="M22.1,20a.72.72,0,0,1,1,0,.79.79,0,0,1,0,1.09.72.72,0,0,1-1,0A.79.79,0,0,1,22.1,20Z" transform="translate(-3.41 -2.46)" style="fill:none;stroke:#fff;stroke-miterlimit:10;stroke-width:0.25px"/><ellipse cx="16.16" cy="19.97" rx="0.74" ry="0.77" style="fill:none;stroke:#fff;stroke-miterlimit:10;stroke-width:0.25px"/><path d="M21,9.75l2.49.38c.09.1.18,0,.28-.1l.55-.67a.33.33,0,0,1,.28-.1l1.57.86-.83,1L27,12.82c.09.1.09.1.18.1h1.48a.2.2,0,0,1,.18.19l.74,1.63v.19l-.83,1.73v1l1.57.86c.09,0,.09.1.09.19v1.54a.34.34,0,0,1-.09.19l-1.48.77c-.09,0-.09.1-.09.19V23c0,.1,0,.1.09.19l.65.67a.18.18,0,0,1,0,.29l-.65,1.63a.2.2,0,0,1-.18.19H27.14c-.09,0-.09,0-.18.1l-.74.77c0,.1-.09.1-.09.19v1.63a.34.34,0,0,1-.09.19l-1.48.77h-.28l-1.38-.77c-.09-.1-.18,0-.28.1l-.74.77" transform="translate(-3.41 -2.46)" style="fill:none;stroke:#fff;stroke-miterlimit:10;stroke-width:0.5px"/><path d="M11.72,20A9,9,0,0,1,20.5,10.9" transform="translate(-3.41 -2.46)" style="fill:none;stroke:#fff;stroke-miterlimit:10;stroke-width:0.5px"/></svg>