<?xml version="1.0" encoding="utf-8"?>
<!-- Generator: Adobe Illustrator 21.0.0, SVG Export Plug-In . SVG Version: 6.00 Build 0)  -->
<svg version="1.1" id="Layer_1" xmlns="http://www.w3.org/2000/svg" xmlns:xlink="http://www.w3.org/1999/xlink" x="0px" y="0px"
	 viewBox="0 0 125 60" style="enable-background:new 0 0 125 60;" xml:space="preserve">
<style type="text/css">
	.st0{fill:none;stroke:#FE5A8F;stroke-width:2;stroke-miterlimit:10;}
	.st1{fill:#FE5A8F;}
	.st2{fill:#000607;}
	.st3{fill:none;stroke:#808080;stroke-miterlimit:10;}
	.st4{fill:#FFFFFF;}
	.st5{font-family:'Calibri';}
	.st6{font-size:14.2774px;}
	.st7{font-size:8.7472px;}
</style>
<path class="st0" d="M3.5,27v-0.5c0-6.9,6.3-12.5,14-12.5"/>
<path class="st0" d="M17.2,14h90.6c7.6,0,13.7,5.6,13.7,12.5v0.4"/>
<path class="st1" d="M105.6,44H19.4c-7.1,0-12.9-5.8-12.9-12.9v-0.3c0-7.1,5.8-12.9,12.9-12.9h86.3c7.1,0,12.9,5.8,12.9,12.9v0.3
	C118.5,38.2,112.7,44,105.6,44z"/>
<circle class="st2" cx="3.5" cy="30.5" r="1"/>
<circle class="st2" cx="121.5" cy="31" r="1"/>
<g>
	<g>
		<g>
			<path class="st3" d="M3.5,35.5V36c0,6.9,6.3,12.5,14,12.5"/>
		</g>
		<g>
			<path class="st3" d="M17.2,48.5h90.6c7.6,0,13.7-5.6,13.7-12.5v-0.5"/>
		</g>
	</g>
</g>
<text transform="matrix(1 0 0 1 47.0305 32.0918)" class="st4 st5 st6">Individual</text>
<text transform="matrix(1 0 0 1 71.3494 40.688)" class="st4 st5 st7">Analytics</text>
<g>
	<path class="st4" d="M32.5,41h-1.7c-0.6,0-1-0.5-1-1V27.8c0-0.6,0.5-1,1-1h1.7c0.6,0,1,0.5,1,1V40C33.5,40.5,33,41,32.5,41z"/>
	<path class="st4" d="M27.5,41h-2c-0.5,0-0.9-0.4-0.9-0.9v-9.2c0-0.5,0.4-0.9,0.9-0.9h2c0.5,0,0.9,0.4,0.9,0.9v9.2
		C28.4,40.6,28,41,27.5,41z"/>
	<path class="st4" d="M22.6,41h-2.5c-0.4,0-0.7-0.3-0.7-0.7v-5.8c0-0.4,0.3-0.7,0.7-0.7h2.5c0.4,0,0.7,0.3,0.7,0.7v5.8
		C23.3,40.7,23,41,22.6,41z"/>
	<path class="st4" d="M17.5,41h-2.3c-0.4,0-0.7-0.3-0.7-0.7v-7.4c0-0.4,0.3-0.7,0.7-0.7h2.3c0.4,0,0.7,0.3,0.7,0.7v7.4
		C18.2,40.7,17.9,41,17.5,41z"/>
	<g>
		<path class="st4" d="M30.3,20.3c0.3,0.5,0,1.1-0.6,1.4c-0.6,0.3-1.3,0.2-1.6-0.2s0-1.1,0.6-1.4C29.3,19.8,30,19.9,30.3,20.3z"/>
		<path class="st4" d="M26.9,22.4c0,0,0.6-0.9,1.3-0.4l1.4,1.4l1,0.8c0,0,0.4,0.6,0.1,0.6l-2.4-1.6c0,0-0.7-0.3-0.9,0.4
			c0,0-0.6,0.6-0.2,1.8c0,0,0.5,2.4,0,3.6c0,0,0.4,0.9-0.3,0.6c0,0-0.3-0.3-0.4-0.6c0,0,0.2-1.5,0.2-1.8l-2.5,1.1c0,0-0.6,0-0.1-0.6
			l2.2-1.1c0,0-1.1-2-0.5-2.7L26.9,22.4"/>
	</g>
</g>
</svg>
