<svg id="Layer_1" data-name="Layer 1" xmlns="http://www.w3.org/2000/svg" xmlns:xlink="http://www.w3.org/1999/xlink" viewBox="0 0 111.33 34.5"><defs><linearGradient id="linear-gradient" x1="16.64" y1="8.23" x2="114.16" y2="8.23" gradientUnits="userSpaceOnUse"><stop offset="0" stop-color="#a0c0d8"/><stop offset="0.4" stop-color="#bcc3c0"/><stop offset="1" stop-color="#edc798"/></linearGradient><linearGradient id="linear-gradient-2" x1="6.71" y1="18.46" x2="110.72" y2="18.46" xlink:href="#linear-gradient"/><linearGradient id="linear-gradient-3" x1="16.64" y1="29.27" x2="114.16" y2="29.27" xlink:href="#linear-gradient"/></defs><title>individual-and-comparitive-buttons_Only Inactive Individual</title><ellipse cx="0.93" cy="17.49" rx="0.93" ry="0.96" style="fill:#a0c0d8"/><ellipse cx="110.41" cy="17.49" rx="0.93" ry="0.96" style="fill:#edc798"/><path d="M3.93,14.68v-.48c0-6.6,5.85-12,13-12" transform="translate(-3 -1.5)" style="fill:none;stroke:#a0c0d8;stroke-miterlimit:10;stroke-width:1.5px"/><path d="M16.64,2.25H100.7c7.05,0,12.71,5.36,12.71,12v.38" transform="translate(-3 -1.5)" style="fill:none;stroke-miterlimit:10;stroke-width:1.5px;stroke:url(#linear-gradient)"/><path d="M98.65,30.95h-80a12.19,12.19,0,0,1-12-12.34v-.29A12.19,12.19,0,0,1,18.68,6H98.75a12.19,12.19,0,0,1,12,12.34v.29A12.33,12.33,0,0,1,98.65,30.95Z" transform="translate(-3 -1.5)" style="fill:url(#linear-gradient-2)"/><path d="M3.93,22.82v.48c0,6.6,5.85,12,13,12" transform="translate(-3 -1.5)" style="fill:none;stroke:#a0c0d8;stroke-miterlimit:10;stroke-width:1.5px"/><path d="M16.64,35.25H100.7c7.05,0,12.71-5.36,12.71-12v-.48" transform="translate(-3 -1.5)" style="fill:none;stroke-miterlimit:10;stroke-width:1.5px;stroke:url(#linear-gradient-3)"/><g style="isolation:isolate"><path d="M46.54,19.38a.17.17,0,0,1,0,.09.18.18,0,0,1-.09.06l-.17,0-.27,0-.27,0-.17,0a.17.17,0,0,1-.09-.06.17.17,0,0,1,0-.09V11.1a.15.15,0,0,1,0-.09.19.19,0,0,1,.1-.06l.17,0,.26,0,.27,0,.17,0a.18.18,0,0,1,.09.06.17.17,0,0,1,0,.09Z" transform="translate(-3 -1.5)" style="fill:#fff"/><path d="M53.65,19.39a.15.15,0,0,1,0,.09.21.21,0,0,1-.08.06l-.16,0h-.52l-.16,0a.21.21,0,0,1-.08-.06.15.15,0,0,1,0-.09V15.88a3.56,3.56,0,0,0-.08-.83,1.75,1.75,0,0,0-.23-.54,1,1,0,0,0-.38-.35,1.19,1.19,0,0,0-.55-.12,1.36,1.36,0,0,0-.8.29,4.43,4.43,0,0,0-.84.86v4.19a.15.15,0,0,1,0,.09.2.2,0,0,1-.08.06l-.16,0h-.52l-.17,0a.18.18,0,0,1-.08-.06.17.17,0,0,1,0-.09v-6a.19.19,0,0,1,0-.09.18.18,0,0,1,.08-.07l.15,0h.48a.38.38,0,0,1,.15,0,.21.21,0,0,1,.07.07.17.17,0,0,1,0,.09v.79a3.61,3.61,0,0,1,1-.83,2.06,2.06,0,0,1,1-.26,2.14,2.14,0,0,1,1,.2,1.78,1.78,0,0,1,.64.54,2.2,2.2,0,0,1,.35.8,4.87,4.87,0,0,1,.11,1.1Z" transform="translate(-3 -1.5)" style="fill:#fff"/><path d="M60.59,19.39a.19.19,0,0,1,0,.09.16.16,0,0,1-.08.06l-.15,0H59.9l-.15,0a.18.18,0,0,1-.08-.06.17.17,0,0,1,0-.09V18.6a4,4,0,0,1-1,.8,2.12,2.12,0,0,1-1.08.29,2.19,2.19,0,0,1-1.09-.26,2.08,2.08,0,0,1-.73-.69,3.1,3.1,0,0,1-.41-1,5.78,5.78,0,0,1-.13-1.24,5.56,5.56,0,0,1,.16-1.4A3.14,3.14,0,0,1,55.87,14a2.16,2.16,0,0,1,.79-.68,2.38,2.38,0,0,1,1.08-.24,1.93,1.93,0,0,1,.93.23,3.33,3.33,0,0,1,.84.68V10.51a.19.19,0,0,1,0-.09.15.15,0,0,1,.09-.07l.17,0,.26,0,.27,0,.16,0a.18.18,0,0,1,.09.07.16.16,0,0,1,0,.09Zm-1.07-4.22a4.28,4.28,0,0,0-.84-.84,1.43,1.43,0,0,0-.84-.29,1.17,1.17,0,0,0-.69.2,1.53,1.53,0,0,0-.46.53,2.58,2.58,0,0,0-.26.74,4.38,4.38,0,0,0-.08.84,5.7,5.7,0,0,0,.07.89,2.63,2.63,0,0,0,.24.77,1.47,1.47,0,0,0,.45.54,1.15,1.15,0,0,0,.7.2,1.4,1.4,0,0,0,.41-.06,1.51,1.51,0,0,0,.4-.2,3.11,3.11,0,0,0,.43-.36,5.48,5.48,0,0,0,.48-.55Z" transform="translate(-3 -1.5)" style="fill:#fff"/><path d="M63.75,11.36a.74.74,0,0,1-.14.53.75.75,0,0,1-.52.14.73.73,0,0,1-.51-.14.72.72,0,0,1-.14-.52.74.74,0,0,1,.14-.53.75.75,0,0,1,.52-.14.74.74,0,0,1,.51.14A.73.73,0,0,1,63.75,11.36Zm-.12,8a.15.15,0,0,1,0,.09.2.2,0,0,1-.08.06l-.16,0h-.52l-.17,0a.18.18,0,0,1-.08-.06.17.17,0,0,1,0-.09v-6a.17.17,0,0,1,0-.09.17.17,0,0,1,.08-.07l.17,0h.52l.16,0a.19.19,0,0,1,.08.07.15.15,0,0,1,0,.09Z" transform="translate(-3 -1.5)" style="fill:#fff"/><path d="M70.37,13.37s0,0,0,.06v.06l0,.07,0,.09-2,5.7a.35.35,0,0,1-.07.12.28.28,0,0,1-.13.07l-.21,0h-.65l-.21,0a.31.31,0,0,1-.13-.07.33.33,0,0,1-.07-.11l-2-5.7,0-.14a.63.63,0,0,1,0-.09.42.42,0,0,1,0,0,.17.17,0,0,1,0-.09.17.17,0,0,1,.09-.06l.16,0h.55l.17,0a.21.21,0,0,1,.09.07l.06.1,1.64,4.95,0,.08,0-.08,1.62-4.95a.23.23,0,0,1,0-.1.24.24,0,0,1,.09-.07l.17,0h.53l.15,0a.18.18,0,0,1,.08.06A.17.17,0,0,1,70.37,13.37Z" transform="translate(-3 -1.5)" style="fill:#fff"/><path d="M72.77,11.36a.74.74,0,0,1-.14.53.75.75,0,0,1-.52.14.73.73,0,0,1-.51-.14.72.72,0,0,1-.14-.52.74.74,0,0,1,.14-.53.75.75,0,0,1,.52-.14.74.74,0,0,1,.51.14A.73.73,0,0,1,72.77,11.36Zm-.12,8a.15.15,0,0,1,0,.09.2.2,0,0,1-.08.06l-.16,0h-.52l-.17,0a.18.18,0,0,1-.08-.06.17.17,0,0,1,0-.09v-6a.17.17,0,0,1,0-.09.17.17,0,0,1,.08-.07l.17,0h.52l.16,0a.19.19,0,0,1,.08.07.15.15,0,0,1,0,.09Z" transform="translate(-3 -1.5)" style="fill:#fff"/><path d="M79.61,19.39a.19.19,0,0,1,0,.09.16.16,0,0,1-.08.06l-.15,0h-.45l-.15,0a.18.18,0,0,1-.08-.06.17.17,0,0,1,0-.09V18.6a4,4,0,0,1-1,.8,2.12,2.12,0,0,1-1.08.29,2.19,2.19,0,0,1-1.09-.26,2.08,2.08,0,0,1-.73-.69,3.1,3.1,0,0,1-.41-1,5.78,5.78,0,0,1-.13-1.24,5.56,5.56,0,0,1,.16-1.4A3.14,3.14,0,0,1,74.89,14a2.16,2.16,0,0,1,.79-.68,2.38,2.38,0,0,1,1.08-.24,1.93,1.93,0,0,1,.93.23,3.33,3.33,0,0,1,.84.68V10.51a.19.19,0,0,1,0-.09.15.15,0,0,1,.09-.07l.17,0,.26,0,.27,0,.16,0a.18.18,0,0,1,.09.07.16.16,0,0,1,0,.09Zm-1.07-4.22a4.28,4.28,0,0,0-.84-.84,1.43,1.43,0,0,0-.84-.29,1.17,1.17,0,0,0-.69.2,1.53,1.53,0,0,0-.46.53,2.58,2.58,0,0,0-.26.74,4.38,4.38,0,0,0-.08.84,5.7,5.7,0,0,0,.07.89,2.63,2.63,0,0,0,.24.77,1.47,1.47,0,0,0,.45.54,1.15,1.15,0,0,0,.7.2,1.4,1.4,0,0,0,.41-.06,1.51,1.51,0,0,0,.4-.2,3.11,3.11,0,0,0,.43-.36,5.48,5.48,0,0,0,.48-.55Z" transform="translate(-3 -1.5)" style="fill:#fff"/><path d="M86.57,19.39a.17.17,0,0,1,0,.09.18.18,0,0,1-.08.06l-.15,0h-.47l-.15,0a.16.16,0,0,1-.07-.06.19.19,0,0,1,0-.09V18.6a3.67,3.67,0,0,1-1,.83,2.06,2.06,0,0,1-1,.26,2.17,2.17,0,0,1-1-.2,1.73,1.73,0,0,1-.64-.54,2.23,2.23,0,0,1-.35-.8A4.94,4.94,0,0,1,81.55,17V13.39a.17.17,0,0,1,0-.09.2.2,0,0,1,.09-.07l.17,0h.52l.17,0a.23.23,0,0,1,.09.07.15.15,0,0,1,0,.09v3.49a3.81,3.81,0,0,0,.07.84,1.6,1.6,0,0,0,.23.54,1.07,1.07,0,0,0,.38.35,1.15,1.15,0,0,0,.54.12,1.34,1.34,0,0,0,.8-.29,4.61,4.61,0,0,0,.84-.86V13.39a.17.17,0,0,1,0-.09.2.2,0,0,1,.09-.07l.17,0h.52a.46.46,0,0,1,.16,0l.09.07a.14.14,0,0,1,0,.09Z" transform="translate(-3 -1.5)" style="fill:#fff"/><path d="M92.93,19.4a.14.14,0,0,1-.05.12.35.35,0,0,1-.14.06l-.27,0-.27,0a.31.31,0,0,1-.15-.06.15.15,0,0,1,0-.12v-.6a2.88,2.88,0,0,1-.85.65,2.2,2.2,0,0,1-1,.23,2.64,2.64,0,0,1-.83-.12,1.79,1.79,0,0,1-.63-.36,1.6,1.6,0,0,1-.41-.57,2,2,0,0,1-.15-.77,1.83,1.83,0,0,1,.2-.88,1.7,1.7,0,0,1,.58-.62,2.78,2.78,0,0,1,.92-.37,5.55,5.55,0,0,1,1.22-.12h.8V15.4a2.4,2.4,0,0,0-.07-.61,1.06,1.06,0,0,0-.23-.44,1,1,0,0,0-.41-.27,1.86,1.86,0,0,0-.62-.09,2.4,2.4,0,0,0-.71.1,3.68,3.68,0,0,0-.55.21l-.39.21a.53.53,0,0,1-.24.1.16.16,0,0,1-.09,0,.22.22,0,0,1-.07-.08.42.42,0,0,1,0-.14,1.18,1.18,0,0,1,0-.18,1.2,1.2,0,0,1,0-.26.38.38,0,0,1,.11-.18,1.41,1.41,0,0,1,.3-.2,3.26,3.26,0,0,1,.49-.21,4.36,4.36,0,0,1,.61-.16,3.54,3.54,0,0,1,.67-.06,3.4,3.4,0,0,1,1.07.15,1.72,1.72,0,0,1,.71.43,1.68,1.68,0,0,1,.39.7,3.5,3.5,0,0,1,.12,1Zm-1.06-2.74H91a3.34,3.34,0,0,0-.76.08,1.54,1.54,0,0,0-.54.23.93.93,0,0,0-.31.36,1.11,1.11,0,0,0-.1.48,1,1,0,0,0,.29.74,1.11,1.11,0,0,0,.81.28,1.46,1.46,0,0,0,.78-.22,3.39,3.39,0,0,0,.75-.67Z" transform="translate(-3 -1.5)" style="fill:#fff"/><path d="M96,19.39a.15.15,0,0,1,0,.09.2.2,0,0,1-.08.06l-.16,0h-.52l-.17,0a.18.18,0,0,1-.08-.06.17.17,0,0,1,0-.09V10.48a.19.19,0,0,1,0-.09.17.17,0,0,1,.08-.07l.17,0h.52l.16,0a.19.19,0,0,1,.08.07.17.17,0,0,1,0,.09Z" transform="translate(-3 -1.5)" style="fill:#fff"/></g><g style="isolation:isolate"><path d="M71.4,27.53a.52.52,0,0,1,0,.15.1.1,0,0,1,0,.08.19.19,0,0,1-.1,0H70.9l-.11,0-.06,0,0-.06-.44-1.29H68.13l-.42,1.27,0,.06-.06,0-.11,0h-.37a.19.19,0,0,1-.1,0,.1.1,0,0,1,0-.08.53.53,0,0,1,0-.15l1.72-4.91a.22.22,0,0,1,0-.07l.08,0,.13,0h.41l.13,0,.08,0a.23.23,0,0,1,0,.08Zm-2.21-4.33h0l-.88,2.63h1.78Z" transform="translate(-3 -1.5)" style="fill:#fff"/><path d="M75.25,27.68a.1.1,0,0,1,0,.06l-.05,0-.1,0h-.32l-.1,0-.05,0a.09.09,0,0,1,0-.06V25.52a2.18,2.18,0,0,0,0-.51,1.07,1.07,0,0,0-.14-.33.61.61,0,0,0-.24-.21.73.73,0,0,0-.33-.07.83.83,0,0,0-.49.18,2.7,2.7,0,0,0-.52.53v2.57a.09.09,0,0,1,0,.06l-.05,0-.1,0h-.32l-.1,0-.05,0a.1.1,0,0,1,0-.06V24a.12.12,0,0,1,0-.06l0,0,.09,0h.29l.09,0,0,0a.1.1,0,0,1,0,.06v.49a2.21,2.21,0,0,1,.6-.51,1.26,1.26,0,0,1,.6-.16,1.31,1.31,0,0,1,.6.13,1.09,1.09,0,0,1,.39.33,1.35,1.35,0,0,1,.22.49,3,3,0,0,1,.07.67Z" transform="translate(-3 -1.5)" style="fill:#fff"/><path d="M79.13,27.68a.09.09,0,0,1,0,.07l-.09,0h-.33l-.09,0a.09.09,0,0,1,0-.07v-.37a1.76,1.76,0,0,1-.52.4,1.35,1.35,0,0,1-.61.14,1.61,1.61,0,0,1-.51-.08,1.1,1.1,0,0,1-.39-.22,1,1,0,0,1-.25-.35,1.19,1.19,0,0,1-.09-.47,1.12,1.12,0,0,1,.12-.54,1,1,0,0,1,.35-.38,1.7,1.7,0,0,1,.56-.23,3.4,3.4,0,0,1,.75-.08h.49v-.29a1.47,1.47,0,0,0,0-.38.66.66,0,0,0-.14-.27.6.6,0,0,0-.25-.16,1.13,1.13,0,0,0-.38-.06,1.47,1.47,0,0,0-.43.06,2.24,2.24,0,0,0-.34.13l-.24.13a.33.33,0,0,1-.14.06l-.06,0,0,0a.25.25,0,0,1,0-.08.72.72,0,0,1,0-.11.74.74,0,0,1,0-.16.23.23,0,0,1,.07-.11.86.86,0,0,1,.18-.12l.3-.13.37-.1a2.16,2.16,0,0,1,.41,0,2.08,2.08,0,0,1,.65.09,1.05,1.05,0,0,1,.44.26,1,1,0,0,1,.24.43,2.16,2.16,0,0,1,.08.6ZM78.48,26h-.56a2.05,2.05,0,0,0-.47,0,1,1,0,0,0-.33.14.57.57,0,0,0-.19.22.68.68,0,0,0-.06.3.6.6,0,0,0,.18.46.68.68,0,0,0,.49.17.9.9,0,0,0,.48-.13,2.08,2.08,0,0,0,.46-.41Z" transform="translate(-3 -1.5)" style="fill:#fff"/><path d="M81,27.68a.09.09,0,0,1,0,.06l-.05,0-.1,0H80.5l-.1,0-.05,0a.1.1,0,0,1,0-.06V22.22a.12.12,0,0,1,0-.06l.05,0,.1,0h.32l.1,0,.05,0a.1.1,0,0,1,0,.06Z" transform="translate(-3 -1.5)" style="fill:#fff"/><path d="M83.82,27.78l-.48,1.35a.18.18,0,0,1-.12.1.93.93,0,0,1-.3,0h-.17l-.1,0a.09.09,0,0,1,0-.07.21.21,0,0,1,0-.1l.49-1.28-.07-.05a.21.21,0,0,1,0-.08l-1.27-3.51a.41.41,0,0,1,0-.13.1.1,0,0,1,0-.08.19.19,0,0,1,.1,0h.38l.11,0a.12.12,0,0,1,.06,0l0,.08,1,2.95h0l1-3a.19.19,0,0,1,.06-.1l.1,0H85a.21.21,0,0,1,.1,0,.1.1,0,0,1,0,.08.41.41,0,0,1,0,.12Z" transform="translate(-3 -1.5)" style="fill:#fff"/><path d="M89,23.89a.2.2,0,0,1,.16.06.26.26,0,0,1,0,.16v3.57a.1.1,0,0,1,0,.06l-.05,0-.1,0h-.32l-.1,0-.05,0a.1.1,0,0,1,0-.06V24.45H86.71V26.5a1.2,1.2,0,0,0,.11.57.41.41,0,0,0,.39.19l.16,0,.13,0,.1,0,.07,0h0l0,0a.47.47,0,0,1,0,.08.77.77,0,0,1,0,.12.84.84,0,0,1,0,.19.22.22,0,0,1,0,.1l-.1.06-.14,0-.17,0H87.1a1.33,1.33,0,0,1-.48-.08.77.77,0,0,1-.33-.23,1,1,0,0,1-.18-.39,2.34,2.34,0,0,1-.06-.55V24.45h-.5a.11.11,0,0,1-.1-.07.47.47,0,0,1,0-.21.76.76,0,0,1,0-.13.4.4,0,0,1,0-.09.1.1,0,0,1,0,0h.55V23a.11.11,0,0,1,0-.05l.05,0,.1,0h.32l.1,0,.05,0a.1.1,0,0,1,0,.05v.87Zm.28-1.14a.46.46,0,0,1-.72.32.45.45,0,0,1-.08-.32.45.45,0,0,1,.09-.32.46.46,0,0,1,.32-.09.45.45,0,0,1,.31.08A.45.45,0,0,1,89.29,22.76Z" transform="translate(-3 -1.5)" style="fill:#fff"/><path d="M93,27.12s0,.09,0,.12a.45.45,0,0,1,0,.09l0,.06-.06.08-.17.13a1.62,1.62,0,0,1-.27.13,2,2,0,0,1-.32.1,1.75,1.75,0,0,1-.36,0,1.67,1.67,0,0,1-.68-.13,1.29,1.29,0,0,1-.5-.38,1.76,1.76,0,0,1-.31-.62,3.07,3.07,0,0,1-.1-.84,3,3,0,0,1,.13-.93,1.78,1.78,0,0,1,.35-.64,1.39,1.39,0,0,1,.53-.37,1.75,1.75,0,0,1,.66-.12,1.65,1.65,0,0,1,.33,0l.29.09a1.33,1.33,0,0,1,.24.12l.15.12.06.08,0,.07a.41.41,0,0,1,0,.09s0,.07,0,.12a.49.49,0,0,1,0,.22.1.1,0,0,1-.09.06.22.22,0,0,1-.14-.07l-.2-.15a1.5,1.5,0,0,0-.29-.15,1.07,1.07,0,0,0-.4-.07.82.82,0,0,0-.72.37,1.94,1.94,0,0,0-.25,1.08,2.65,2.65,0,0,0,.07.62,1.31,1.31,0,0,0,.19.45.8.8,0,0,0,.31.27,1,1,0,0,0,.42.09,1,1,0,0,0,.4-.07,1.63,1.63,0,0,0,.29-.16l.21-.16a.25.25,0,0,1,.13-.07l0,0a.13.13,0,0,1,0,.06.42.42,0,0,1,0,.1S93,27.06,93,27.12Z" transform="translate(-3 -1.5)" style="fill:#fff"/><path d="M96.1,26.67a1.19,1.19,0,0,1-.1.5,1,1,0,0,1-.29.37,1.28,1.28,0,0,1-.44.23,2,2,0,0,1-.57.08,2.06,2.06,0,0,1-.36,0L94,27.75l-.23-.1-.14-.09a.23.23,0,0,1-.06-.11.8.8,0,0,1,0-.2.89.89,0,0,1,0-.13.43.43,0,0,1,0-.09.09.09,0,0,1,0,0h0a.28.28,0,0,1,.13.06l.21.12.3.12a1.28,1.28,0,0,0,.39.06,1.15,1.15,0,0,0,.3,0,.72.72,0,0,0,.23-.11A.49.49,0,0,0,95.4,27a.59.59,0,0,0,.05-.26.43.43,0,0,0-.08-.26.76.76,0,0,0-.2-.19,1.71,1.71,0,0,0-.29-.15L94.56,26l-.33-.16a1.24,1.24,0,0,1-.29-.21,1,1,0,0,1-.2-.3,1,1,0,0,1-.08-.42,1.08,1.08,0,0,1,.08-.41,1,1,0,0,1,.24-.35,1.2,1.2,0,0,1,.41-.24,1.64,1.64,0,0,1,.57-.09l.29,0,.26.06.2.08.12.08.06.06,0,.06v.08a.78.78,0,0,1,0,.11,1,1,0,0,1,0,.12.3.3,0,0,1,0,.08l0,0h0a.22.22,0,0,1-.1,0l-.17-.1-.25-.1a1.12,1.12,0,0,0-.33,0,1,1,0,0,0-.29,0,.55.55,0,0,0-.21.11.46.46,0,0,0-.12.17.55.55,0,0,0,0,.21.44.44,0,0,0,.08.27.77.77,0,0,0,.21.19,1.71,1.71,0,0,0,.29.15l.33.13.33.16a1.25,1.25,0,0,1,.29.21,1,1,0,0,1,.2.29A1,1,0,0,1,96.1,26.67Z" transform="translate(-3 -1.5)" style="fill:#fff"/></g><rect x="25.21" y="12.98" width="3.55" height="13.6" rx="0.99" ry="0.99" style="fill:#fff"/><rect x="20.49" y="16" width="3.55" height="10.58" rx="0.87" ry="0.87" style="fill:#fff"/><rect x="15.76" y="19.78" width="3.55" height="6.8" rx="0.63" ry="0.63" style="fill:#fff"/><rect x="11.03" y="18.04" width="3.55" height="8.54" rx="0.7" ry="0.7" style="fill:#fff"/><path d="M28.82,8.31a1,1,0,0,1-.56,1.35,1.11,1.11,0,0,1-1.5-.22,1,1,0,0,1,.56-1.35A1.11,1.11,0,0,1,28.82,8.31Z" transform="translate(-3 -1.5)" style="fill:#fff"/><path d="M25.65,10.31s.53-.9,1.17-.38l1.31,1.34,1,.79s.35.55,0,.57l-2.23-1.56a.67.67,0,0,0-.87.35,1.76,1.76,0,0,0-.16,1.74,7.59,7.59,0,0,1,0,3.46s.37.84-.25.6a1,1,0,0,1-.35-.55s.18-1.46.16-1.74L23.1,16s-.6,0,0-.57l2-1s-1.06-1.94-.51-2.56l1.08-1.52" transform="translate(-3 -1.5)" style="fill:#fff"/></svg>