<?xml version="1.0"?>
<svg xmlns="http://www.w3.org/2000/svg" id="Capa_1" enable-background="new 0 0 512 512" height="512px" viewBox="0 0 512 512" width="512px" class=""><g><g><path d="m21.728 331h129.272c82.705 0 150-67.295 150-150s-67.295-150-150-150-151 67.295-151 150c0 39.536 16.586 77.271 44.11 105.234zm144.272-60h-30v-30h30zm-15-180c33.091 0 60 26.909 60 60 0 22.412-12.349 42.803-32.227 53.188-7.88 4.131-12.773 12.935-12.773 21.812h-30c0-20.83 11.06-39.082 28.857-48.384 9.961-5.215 16.143-15.41 16.143-26.616 0-16.538-13.462-30-30-30s-30 13.462-30 30h-30c0-33.091 26.909-60 60-60z" data-original="#000000" class="" data-old_color="#000000" fill="#FB5252"/><path d="m330.841 184.144c-1.326 76.111-50.079 140.689-117.94 165.659 9.371 73.764 71.832 131.197 148.099 131.197h129.272l-22.383-44.766c27.525-27.963 44.111-65.698 44.111-105.234 0-82.842-68.158-150-151-150-10.322 0-20.407 1.089-30.159 3.144zm105.159 191.856h-120v-30h120zm0-60h-120v-30h120z" data-original="#000000" class="" data-old_color="#000000" fill="#FB5252"/></g></g> </svg>
