<svg id="Layer_1" data-name="Layer 1" xmlns="http://www.w3.org/2000/svg" viewBox="0 0 13.16 13.36"><defs><style>.cls-1,.cls-2,.cls-3{fill:none;stroke:#fff;stroke-miterlimit:10;}.cls-2{stroke-width:0.2px;}.cls-3{stroke-width:0.5px;}.cls-4{fill:#fff;}</style></defs><title>feedback-left menu icon_color</title><path class="cls-1" d="M3.67,2.93" transform="translate(-0.78 -0.07)"/><path class="cls-2" d="M12.65.08h.58a.35.35,0,0,1,.35.35v.74a.35.35,0,0,1-.35.35h-.58a0,0,0,0,1,0,0V.08A0,0,0,0,1,12.65.08Z" transform="translate(5.75 12.08) rotate(-63.38)"/><line class="cls-3" x1="2.29" y1="3.61" x2="4.05" y2="3.61"/><line class="cls-3" x1="2.29" y1="5.89" x2="7.91" y2="5.89"/><line class="cls-3" x1="2.29" y1="8.13" x2="6.36" y2="8.13"/><line class="cls-3" x1="7.14" y1="8.13" x2="9.89" y2="8.13"/><line class="cls-3" x1="5.37" y1="3.61" x2="8.57" y2="3.61"/><path class="cls-4" d="M3.34,11H3.17C.9,13.34.82,14,.78,13V3.82a2.71,2.71,0,0,1,2.7-2.72h7.45a0,0,0,0,1,0,0,6.48,6.48,0,0,1-.4.92H3.72a1.78,1.78,0,0,0-2,1.5h0v7.62a0,0,0,0,0,0,0C2,11,2.55,10.1,3.25,10.1H8.35c1.41,0,4.08-.95,4-4.58.6-1.15,1-2.06,1-2.05C13.45,6.2,13.44,11,8,11Z" transform="translate(-0.78 -0.07)"/><path class="cls-2" d="M12,1.31,9.92,5.49v0L9.7,7.21a.06.06,0,0,0,.1.06l1.37-1.13v0l2.09-4.18a.06.06,0,0,0,0-.08l-1.16-.58A.06.06,0,0,0,12,1.31Z" transform="translate(-0.78 -0.07)"/><polygon class="cls-4" points="9.53 5.72 9.89 5.9 9.51 6.37 9.39 6.31 9.53 5.72"/></svg>