<svg id="Layer_1" data-name="Layer 1" xmlns="http://www.w3.org/2000/svg" viewBox="0 0 17.81 17.77"><defs><style>.cls-1{fill:none;stroke:#fff;stroke-miterlimit:10;stroke-width:0.75px;}.cls-2{fill:#fff;}</style></defs><title>70% Corner</title><polyline class="cls-1" points="2.46 0.38 0.38 0.38 0.38 2.31"/><polyline class="cls-1" points="15.1 0.38 17.18 0.38 17.18 2.31"/><polyline class="cls-1" points="2.46 17.14 0.38 17.14 0.38 15.21"/><polyline class="cls-1" points="15.31 17.39 17.43 17.39 17.43 15.43"/><path class="cls-2" d="M4.28,6H2.4a1,1,0,0,0-.74.21,2.1,2.1,0,0,0-.34,1H.94l.2-2.57h4.1v.54a7,7,0,0,0-1,2,7.73,7.73,0,0,0-.34,2.34q0,.32,0,.81t0,.66a1.52,1.52,0,0,1-.23.93.83.83,0,0,1-.7.31A.82.82,0,0,1,2.32,12a1.14,1.14,0,0,1-.23-.77,5.55,5.55,0,0,1,.54-2A29.45,29.45,0,0,1,4.28,6Z" transform="translate(-0.05 0.01)"/><path class="cls-2" d="M8.3,12.23A1.69,1.69,0,0,1,7.43,12a2.13,2.13,0,0,1-.7-.67A4.35,4.35,0,0,1,6.15,10,6.45,6.45,0,0,1,6,8.35a6.42,6.42,0,0,1,.2-1.65,4.42,4.42,0,0,1,.59-1.34,2.18,2.18,0,0,1,.7-.67,1.66,1.66,0,0,1,.86-.24,1.75,1.75,0,0,1,.88.23,1.93,1.93,0,0,1,.68.66,4.48,4.48,0,0,1,.58,1.35,6.53,6.53,0,0,1,.2,1.64A5.38,5.38,0,0,1,10,11.14,1.94,1.94,0,0,1,8.3,12.23ZM9,8.33V7.82a11,11,0,0,0-.15-2.39q-.15-.48-.55-.48t-.55.48a11,11,0,0,0-.15,2.39v1a11,11,0,0,0,.15,2.39q.15.49.55.49t.55-.49A11,11,0,0,0,9,8.85Z" transform="translate(-0.05 0.01)"/><path class="cls-2" d="M11.54,8.22a1.31,1.31,0,0,1,.38-.93,1.28,1.28,0,0,1,1-.4,1.39,1.39,0,0,1,.65.15A1,1,0,0,1,14,7.5a1.42,1.42,0,0,1,.16.65,1.5,1.5,0,0,1-.17.67,1.2,1.2,0,0,1-.49.52,1.35,1.35,0,0,1-.69.19,1.21,1.21,0,0,1-.9-.37A1.29,1.29,0,0,1,11.54,8.22Zm.61,0a1.41,1.41,0,0,0,.19.82.6.6,0,0,0,1-.07,1.74,1.74,0,0,0,.18-.87,1.57,1.57,0,0,0-.16-.78.54.54,0,0,0-.5-.29.6.6,0,0,0-.54.31A1.65,1.65,0,0,0,12.15,8.25Zm4.07-1.49-3,6,0,0h-.28l0,0,3-6,0,0h.29Zm-1.34,4.52a1.31,1.31,0,0,1,.38-.93,1.27,1.27,0,0,1,1-.4,1.4,1.4,0,0,1,.66.15,1,1,0,0,1,.45.46,1.44,1.44,0,0,1,.15.65,1.51,1.51,0,0,1-.16.66,1.22,1.22,0,0,1-.48.52,1.33,1.33,0,0,1-.69.19,1.2,1.2,0,0,1-.9-.37A1.3,1.3,0,0,1,14.87,11.29Zm.61,0a2.07,2.07,0,0,0,.07.57.73.73,0,0,0,.23.37.59.59,0,0,0,.9-.18,1.71,1.71,0,0,0,.19-.87,1.63,1.63,0,0,0-.16-.77.53.53,0,0,0-.51-.29.61.61,0,0,0-.53.29A1.57,1.57,0,0,0,15.48,11.32Z" transform="translate(-0.05 0.01)"/></svg>