<svg id="Layer_1" data-name="Layer 1" xmlns="http://www.w3.org/2000/svg" viewBox="0 0 120 36"><defs><style>.cls-1,.cls-3{fill:none;stroke-miterlimit:10;}.cls-1{stroke:#4d4d4d;stroke-width:2px;}.cls-2{fill:#666;}.cls-3{stroke:#999;}.cls-4{isolation:isolate;}.cls-5{fill:#fff;}</style></defs><title>Individual Analytics_(with ICON)_gray</title><path class="cls-1" d="M3.5,27v-.5c0-6.9,6.3-12.5,14-12.5" transform="translate(-2.5 -13)"/><path class="cls-1" d="M17.2,14h90.6c7.6,0,13.7,5.6,13.7,12.5v.4" transform="translate(-2.5 -13)"/><path class="cls-2" d="M105.6,44.6H19.4A12.93,12.93,0,0,1,6.5,31.7v-.3A12.93,12.93,0,0,1,19.4,18.5h86.3a12.93,12.93,0,0,1,12.9,12.9v.3A13.08,13.08,0,0,1,105.6,44.6Z" transform="translate(-2.5 -13)"/><circle class="cls-2" cx="1" cy="17.5" r="1"/><circle class="cls-2" cx="119" cy="18" r="1"/><path class="cls-3" d="M3.5,35.5V36c0,6.9,6.3,12.5,14,12.5" transform="translate(-2.5 -13)"/><path class="cls-3" d="M17.2,48.5h90.6c7.6,0,13.7-5.6,13.7-12.5v-.5" transform="translate(-2.5 -13)"/><g class="cls-4"><path class="cls-5" d="M49.43,31.91a.17.17,0,0,1,0,.1.18.18,0,0,1-.1.07l-.18,0-.29,0-.29,0-.19,0a.18.18,0,0,1-.1-.07.17.17,0,0,1,0-.1V23.25a.16.16,0,0,1,0-.1.22.22,0,0,1,.1-.07l.19,0,.28,0,.29,0,.18,0a.19.19,0,0,1,.1.07.17.17,0,0,1,0,.1Z" transform="translate(-2.5 -13)"/><path class="cls-5" d="M57.1,31.92a.15.15,0,0,1,0,.09.22.22,0,0,1-.09.07l-.17,0h-.56l-.17,0A.22.22,0,0,1,56,32a.15.15,0,0,1,0-.09V28.24a3.59,3.59,0,0,0-.08-.86,1.8,1.8,0,0,0-.24-.56,1.05,1.05,0,0,0-.42-.36,1.31,1.31,0,0,0-.59-.13,1.49,1.49,0,0,0-.86.31,4.71,4.71,0,0,0-.91.9v4.39a.15.15,0,0,1,0,.09.22.22,0,0,1-.09.07l-.17,0H52l-.18,0a.19.19,0,0,1-.09-.07.17.17,0,0,1,0-.09V25.64a.2.2,0,0,1,0-.09.19.19,0,0,1,.08-.07.48.48,0,0,1,.16,0h.51a.42.42,0,0,1,.16,0,.22.22,0,0,1,.08.07.18.18,0,0,1,0,.09v.83a3.88,3.88,0,0,1,1.06-.87,2.27,2.27,0,0,1,1.06-.28,2.36,2.36,0,0,1,1.06.21,1.9,1.9,0,0,1,.69.57,2.27,2.27,0,0,1,.38.83,5,5,0,0,1,.11,1.15Z" transform="translate(-2.5 -13)"/><path class="cls-5" d="M64.57,31.92a.18.18,0,0,1,0,.1.16.16,0,0,1-.08.07l-.16,0h-.48l-.16,0a.18.18,0,0,1-.09-.07.17.17,0,0,1,0-.1v-.83a4.24,4.24,0,0,1-1,.84,2.35,2.35,0,0,1-1.17.3A2.41,2.41,0,0,1,60.17,32a2.21,2.21,0,0,1-.79-.73,3.18,3.18,0,0,1-.44-1.07,5.89,5.89,0,0,1-.14-1.3A5.66,5.66,0,0,1,59,27.4a3.26,3.26,0,0,1,.52-1.11,2.3,2.3,0,0,1,.85-.71,2.62,2.62,0,0,1,1.17-.25,2.13,2.13,0,0,1,1,.24,3.57,3.57,0,0,1,.9.71V22.63a.21.21,0,0,1,0-.09.17.17,0,0,1,.09-.07l.18,0,.28,0,.29,0,.17,0a.2.2,0,0,1,.09.07.16.16,0,0,1,0,.09ZM63.41,27.5a4.54,4.54,0,0,0-.9-.88,1.57,1.57,0,0,0-.91-.3,1.3,1.3,0,0,0-.75.21,1.61,1.61,0,0,0-.5.55,2.63,2.63,0,0,0-.28.77,4.4,4.4,0,0,0-.09.88,5.81,5.81,0,0,0,.07.93,2.67,2.67,0,0,0,.25.8,1.55,1.55,0,0,0,.48.56,1.26,1.26,0,0,0,.75.21,1.55,1.55,0,0,0,.44-.06,1.66,1.66,0,0,0,.44-.21,3.37,3.37,0,0,0,.47-.38,5.75,5.75,0,0,0,.52-.58Z" transform="translate(-2.5 -13)"/><path class="cls-5" d="M68,23.52a.75.75,0,0,1-.15.55.83.83,0,0,1-.56.15.81.81,0,0,1-.55-.14.74.74,0,0,1-.15-.54.76.76,0,0,1,.15-.55,1.16,1.16,0,0,1,1.12,0A.75.75,0,0,1,68,23.52Zm-.13,8.39a.15.15,0,0,1,0,.09.22.22,0,0,1-.09.07l-.17,0H67l-.18,0a.2.2,0,0,1-.09-.07.18.18,0,0,1,0-.09V25.64a.16.16,0,0,1,.12-.16l.18,0h.57l.17,0a.2.2,0,0,1,.09.07.16.16,0,0,1,0,.09Z" transform="translate(-2.5 -13)"/><path class="cls-5" d="M75.12,25.63a.43.43,0,0,1,0,.06v.07l0,.08,0,.09-2.14,6a.36.36,0,0,1-.07.13.3.3,0,0,1-.14.08l-.23,0h-.7l-.23,0a.33.33,0,0,1-.14-.08.35.35,0,0,1-.08-.12l-2.13-6,0-.15a.58.58,0,0,1,0-.09.37.37,0,0,1,0-.05.17.17,0,0,1,0-.1.18.18,0,0,1,.09-.07l.17,0H70l.19,0a.23.23,0,0,1,.1.07l.06.1,1.77,5.17,0,.08,0-.08,1.75-5.17a.23.23,0,0,1,0-.1.25.25,0,0,1,.1-.07l.18,0h.57a.45.45,0,0,1,.16,0,.19.19,0,0,1,.08.07A.18.18,0,0,1,75.12,25.63Z" transform="translate(-2.5 -13)"/><path class="cls-5" d="M77.7,23.52a.75.75,0,0,1-.15.55.82.82,0,0,1-.56.15.81.81,0,0,1-.55-.14.74.74,0,0,1-.15-.54.76.76,0,0,1,.15-.55.83.83,0,0,1,.56-.15.81.81,0,0,1,.55.14A.75.75,0,0,1,77.7,23.52Zm-.13,8.39a.15.15,0,0,1,0,.09.22.22,0,0,1-.09.07l-.17,0h-.56l-.18,0a.19.19,0,0,1-.09-.07.17.17,0,0,1,0-.09V25.64a.17.17,0,0,1,0-.09.18.18,0,0,1,.09-.07l.18,0h.56l.17,0a.2.2,0,0,1,.09.07.16.16,0,0,1,0,.09Z" transform="translate(-2.5 -13)"/><path class="cls-5" d="M85.07,31.92a.18.18,0,0,1,0,.1.16.16,0,0,1-.08.07l-.16,0h-.48l-.16,0a.18.18,0,0,1-.09-.07.17.17,0,0,1,0-.1v-.83a4.24,4.24,0,0,1-1,.84,2.35,2.35,0,0,1-1.17.3A2.42,2.42,0,0,1,80.67,32a2.21,2.21,0,0,1-.79-.73,3.18,3.18,0,0,1-.44-1.07,5.89,5.89,0,0,1-.14-1.3,5.66,5.66,0,0,1,.17-1.46A3.25,3.25,0,0,1,80,26.28a2.3,2.3,0,0,1,.85-.71A2.62,2.62,0,0,1,82,25.33a2.13,2.13,0,0,1,1,.24,3.59,3.59,0,0,1,.9.71V22.63a.2.2,0,0,1,0-.09.16.16,0,0,1,.09-.07l.18,0,.28,0,.29,0,.17,0a.21.21,0,0,1,.09.07.17.17,0,0,1,0,.09ZM83.92,27.5a4.53,4.53,0,0,0-.9-.88,1.57,1.57,0,0,0-.91-.3,1.3,1.3,0,0,0-.75.21,1.6,1.6,0,0,0-.5.55,2.63,2.63,0,0,0-.28.77,4.4,4.4,0,0,0-.09.88,5.81,5.81,0,0,0,.07.93,2.67,2.67,0,0,0,.25.8,1.55,1.55,0,0,0,.48.56,1.26,1.26,0,0,0,.75.21,1.55,1.55,0,0,0,.44-.06,1.65,1.65,0,0,0,.44-.21,3.35,3.35,0,0,0,.47-.38,6,6,0,0,0,.52-.58Z" transform="translate(-2.5 -13)"/><path class="cls-5" d="M92.57,31.92a.17.17,0,0,1,0,.09.19.19,0,0,1-.09.07l-.16,0h-.51l-.16,0a.17.17,0,0,1-.08-.07.2.2,0,0,1,0-.09v-.83a3.91,3.91,0,0,1-1.06.86,2.27,2.27,0,0,1-1.06.27A2.39,2.39,0,0,1,88.35,32a1.84,1.84,0,0,1-.69-.57,2.29,2.29,0,0,1-.38-.84,5,5,0,0,1-.12-1.16V25.64a.17.17,0,0,1,0-.09.21.21,0,0,1,.09-.07.59.59,0,0,1,.18,0H88a.55.55,0,0,1,.18,0,.24.24,0,0,1,.09.07.16.16,0,0,1,0,.09V29.3a3.87,3.87,0,0,0,.08.88,1.65,1.65,0,0,0,.24.57,1.13,1.13,0,0,0,.42.36,1.26,1.26,0,0,0,.58.13,1.48,1.48,0,0,0,.86-.31,4.91,4.91,0,0,0,.91-.9V25.64a.18.18,0,0,1,0-.09.21.21,0,0,1,.09-.07.57.57,0,0,1,.18,0h.56a.51.51,0,0,1,.17,0,.27.27,0,0,1,.09.07.14.14,0,0,1,0,.09Z" transform="translate(-2.5 -13)"/><path class="cls-5" d="M99.43,31.92a.15.15,0,0,1-.06.13.38.38,0,0,1-.15.06l-.29,0-.29,0a.33.33,0,0,1-.16-.06.15.15,0,0,1,0-.13V31.3a3.11,3.11,0,0,1-.92.68,2.44,2.44,0,0,1-1.07.24,2.92,2.92,0,0,1-.9-.13,2,2,0,0,1-.68-.37,1.69,1.69,0,0,1-.44-.6,2,2,0,0,1-.16-.81,1.88,1.88,0,0,1,.22-.92,1.81,1.81,0,0,1,.62-.65,3.05,3.05,0,0,1,1-.39,6.16,6.16,0,0,1,1.32-.13h.86v-.49a2.39,2.39,0,0,0-.08-.64,1.1,1.1,0,0,0-.25-.46,1.08,1.08,0,0,0-.44-.28,2.08,2.08,0,0,0-.67-.09,2.66,2.66,0,0,0-.76.1,4.08,4.08,0,0,0-.59.22l-.43.22a.59.59,0,0,1-.25.1.17.17,0,0,1-.1,0,.23.23,0,0,1-.07-.08.43.43,0,0,1,0-.14,1.28,1.28,0,0,1,0-.19,1.21,1.21,0,0,1,0-.28.4.4,0,0,1,.12-.19,1.52,1.52,0,0,1,.32-.21,3.58,3.58,0,0,1,.53-.22,4.93,4.93,0,0,1,.66-.17,3.93,3.93,0,0,1,.72-.07,3.76,3.76,0,0,1,1.15.15,1.85,1.85,0,0,1,.77.45,1.74,1.74,0,0,1,.43.74,3.58,3.58,0,0,1,.13,1Zm-1.14-2.87h-1a3.69,3.69,0,0,0-.82.08,1.7,1.7,0,0,0-.58.24,1,1,0,0,0-.34.38,1.13,1.13,0,0,0-.11.51,1,1,0,0,0,.31.78,1.22,1.22,0,0,0,.87.29,1.62,1.62,0,0,0,.84-.23,3.63,3.63,0,0,0,.81-.7Z" transform="translate(-2.5 -13)"/><path class="cls-5" d="M102.69,31.92a.15.15,0,0,1,0,.09.23.23,0,0,1-.09.07l-.17,0h-.56l-.18,0a.2.2,0,0,1-.09-.07.17.17,0,0,1,0-.09V22.6a.16.16,0,0,1,.12-.17l.18,0h.56l.17,0a.21.21,0,0,1,.09.07.17.17,0,0,1,0,.1Z" transform="translate(-2.5 -13)"/></g><g class="cls-4"><path class="cls-5" d="M76.22,40.43a.52.52,0,0,1,0,.15.1.1,0,0,1,0,.09.19.19,0,0,1-.11,0h-.42l-.12,0-.06,0,0-.06L75,39.24H72.7l-.45,1.33,0,.07-.06,0-.12,0h-.4a.21.21,0,0,1-.11,0,.11.11,0,0,1,0-.09.52.52,0,0,1,0-.15l1.85-5.13a.22.22,0,0,1,0-.08l.08,0,.14,0h.44l.14,0,.09,0a.24.24,0,0,1,0,.08ZM73.84,35.9h0l-1,2.75h1.92Z" transform="translate(-2.5 -13)"/><path class="cls-5" d="M80.37,40.58a.09.09,0,0,1,0,.06l-.05,0-.11,0h-.35l-.11,0-.06,0a.09.09,0,0,1,0-.06V38.33a2.22,2.22,0,0,0-.05-.53,1.08,1.08,0,0,0-.15-.35.64.64,0,0,0-.25-.22.82.82,0,0,0-.36-.08.91.91,0,0,0-.53.19,2.84,2.84,0,0,0-.56.55v2.69a.1.1,0,0,1,0,.06l-.06,0-.11,0h-.35l-.11,0-.06,0a.1.1,0,0,1,0-.06V36.74a.12.12,0,0,1,0-.06l.05,0,.1,0h.31l.1,0,0,0a.11.11,0,0,1,0,.06v.51a2.38,2.38,0,0,1,.65-.53,1.4,1.4,0,0,1,.65-.17,1.43,1.43,0,0,1,.65.13,1.15,1.15,0,0,1,.42.35,1.37,1.37,0,0,1,.23.51,3.05,3.05,0,0,1,.07.7Z" transform="translate(-2.5 -13)"/><path class="cls-5" d="M84.56,40.59a.09.09,0,0,1,0,.08l-.09,0h-.35l-.1,0a.1.1,0,0,1,0-.08V40.2a1.89,1.89,0,0,1-.56.42,1.5,1.5,0,0,1-.66.15,1.79,1.79,0,0,1-.55-.08,1.18,1.18,0,0,1-.42-.23,1,1,0,0,1-.27-.37,1.21,1.21,0,0,1-.1-.49,1.15,1.15,0,0,1,.13-.56,1.1,1.1,0,0,1,.38-.4,1.88,1.88,0,0,1,.61-.24,3.75,3.75,0,0,1,.81-.08h.53V38a1.48,1.48,0,0,0,0-.39.68.68,0,0,0-.15-.29.63.63,0,0,0-.27-.17,1.24,1.24,0,0,0-.41-.06,1.64,1.64,0,0,0-.47.06,2.33,2.33,0,0,0-.36.14l-.26.14a.36.36,0,0,1-.16.06l-.06,0,0-.05a.25.25,0,0,1,0-.09.75.75,0,0,1,0-.12.77.77,0,0,1,0-.17.25.25,0,0,1,.07-.12,1,1,0,0,1,.2-.13,2.27,2.27,0,0,1,.32-.14l.4-.1a2.36,2.36,0,0,1,.44,0,2.32,2.32,0,0,1,.71.09,1.14,1.14,0,0,1,.47.28,1.08,1.08,0,0,1,.26.45,2.2,2.2,0,0,1,.08.63Zm-.7-1.76h-.6a2.24,2.24,0,0,0-.5,0,1.08,1.08,0,0,0-.35.14.6.6,0,0,0-.21.23.68.68,0,0,0-.07.31.62.62,0,0,0,.19.48.76.76,0,0,0,.53.18,1,1,0,0,0,.51-.14,2.25,2.25,0,0,0,.5-.43Z" transform="translate(-2.5 -13)"/><path class="cls-5" d="M86.55,40.58a.09.09,0,0,1,0,.06l-.06,0-.11,0H86l-.11,0-.06,0a.11.11,0,0,1,0-.06V34.88a.12.12,0,0,1,0-.06.11.11,0,0,1,.06,0l.11,0h.35l.11,0,.06,0a.11.11,0,0,1,0,.06Z" transform="translate(-2.5 -13)"/><path class="cls-5" d="M89.61,40.69,89.1,42.1a.2.2,0,0,1-.13.11,1.07,1.07,0,0,1-.32,0h-.18l-.1,0a.09.09,0,0,1,0-.07.2.2,0,0,1,0-.1l.53-1.34-.07-.05a.22.22,0,0,1,0-.08l-1.37-3.67a.44.44,0,0,1,0-.14.1.1,0,0,1,0-.08.23.23,0,0,1,.11,0h.41l.12,0a.12.12,0,0,1,.06,0l0,.09,1.1,3.08h0l1.06-3.1a.19.19,0,0,1,.06-.1l.11,0h.41a.24.24,0,0,1,.11,0,.1.1,0,0,1,0,.08.43.43,0,0,1,0,.13Z" transform="translate(-2.5 -13)"/><path class="cls-5" d="M95.2,36.63a.22.22,0,0,1,.18.06.27.27,0,0,1,0,.17v3.73a.09.09,0,0,1,0,.06l-.06,0-.11,0H94.9l-.11,0-.06,0a.1.1,0,0,1,0-.06V37.21h-2v2.14a1.22,1.22,0,0,0,.12.6.45.45,0,0,0,.42.2l.18,0,.14,0,.1,0,.08,0h0l0,0a.42.42,0,0,1,0,.08.76.76,0,0,1,0,.13.84.84,0,0,1,0,.2.22.22,0,0,1-.05.11.3.3,0,0,1-.1.07l-.16,0-.19,0h-.2a1.48,1.48,0,0,1-.51-.08.84.84,0,0,1-.35-.24,1,1,0,0,1-.2-.41,2.41,2.41,0,0,1-.06-.58V37.21h-.54a.11.11,0,0,1-.1-.07.48.48,0,0,1,0-.22.74.74,0,0,1,0-.13.45.45,0,0,1,0-.09.11.11,0,0,1,0-.05H92v-.91a.11.11,0,0,1,0-.06l.06,0,.11,0h.35l.11,0,.06,0a.1.1,0,0,1,0,.06v.91Zm.3-1.19a.46.46,0,0,1-.09.34.71.71,0,0,1-.69,0,.46.46,0,0,1-.09-.33.47.47,0,0,1,.09-.34.51.51,0,0,1,.35-.09.5.5,0,0,1,.34.09A.46.46,0,0,1,95.51,35.44Z" transform="translate(-2.5 -13)"/><path class="cls-5" d="M99.5,40s0,.09,0,.13a.45.45,0,0,1,0,.09l0,.06-.07.08-.18.13a1.76,1.76,0,0,1-.29.14,2.21,2.21,0,0,1-.35.1,2,2,0,0,1-.39,0,1.88,1.88,0,0,1-.73-.14,1.39,1.39,0,0,1-.54-.4,1.79,1.79,0,0,1-.33-.64,3.12,3.12,0,0,1-.11-.88,3,3,0,0,1,.14-1,1.83,1.83,0,0,1,.38-.67,1.49,1.49,0,0,1,.57-.39,2,2,0,0,1,.71-.13,2,2,0,0,1,.67.13,1.39,1.39,0,0,1,.26.13l.16.13.07.08a.23.23,0,0,1,0,.07.43.43,0,0,1,0,.09s0,.08,0,.13a.5.5,0,0,1,0,.23.11.11,0,0,1-.09.07.24.24,0,0,1-.15-.07L99,37.37a1.6,1.6,0,0,0-.31-.16,1.18,1.18,0,0,0-.43-.07.89.89,0,0,0-.78.39,2,2,0,0,0-.27,1.13,2.67,2.67,0,0,0,.07.65,1.35,1.35,0,0,0,.21.47.85.85,0,0,0,.33.28,1.08,1.08,0,0,0,.46.09,1.11,1.11,0,0,0,.43-.08,1.79,1.79,0,0,0,.32-.17l.23-.17a.28.28,0,0,1,.14-.07l.05,0a.11.11,0,0,1,0,.06.42.42,0,0,1,0,.1S99.5,39.94,99.5,40Z" transform="translate(-2.5 -13)"/><path class="cls-5" d="M102.84,39.54a1.23,1.23,0,0,1-.11.53,1.06,1.06,0,0,1-.31.39,1.37,1.37,0,0,1-.48.24,2.15,2.15,0,0,1-.61.08,2.29,2.29,0,0,1-.39,0l-.33-.08-.25-.1-.15-.1a.25.25,0,0,1-.07-.12.84.84,0,0,1,0-.21.91.91,0,0,1,0-.14.47.47,0,0,1,0-.09.09.09,0,0,1,0,0l.05,0a.3.3,0,0,1,.14.06l.23.13a2.2,2.2,0,0,0,.32.13,1.45,1.45,0,0,0,.42.06,1.19,1.19,0,0,0,.32,0,.8.8,0,0,0,.25-.11.51.51,0,0,0,.17-.19.61.61,0,0,0,.06-.27.44.44,0,0,0-.08-.27.8.8,0,0,0-.22-.2,1.88,1.88,0,0,0-.31-.15l-.35-.14-.35-.16a1.43,1.43,0,0,1-.31-.22,1,1,0,0,1-.22-.32,1.05,1.05,0,0,1-.08-.44,1.12,1.12,0,0,1,.09-.43,1,1,0,0,1,.26-.36,1.32,1.32,0,0,1,.44-.25,1.82,1.82,0,0,1,.61-.09l.31,0,.28.06.21.08.13.08.06.06a.18.18,0,0,1,0,.06V37a.94.94,0,0,1,0,.12,1.14,1.14,0,0,1,0,.13.36.36,0,0,1,0,.09.11.11,0,0,1,0,0l0,0a.23.23,0,0,1-.11,0l-.19-.1-.27-.1a1.24,1.24,0,0,0-.36,0,1.1,1.1,0,0,0-.32,0,.6.6,0,0,0-.22.12.47.47,0,0,0-.13.18.53.53,0,0,0,0,.22.45.45,0,0,0,.08.28.8.8,0,0,0,.22.2,1.82,1.82,0,0,0,.31.15l.36.14.36.16a1.36,1.36,0,0,1,.31.22,1,1,0,0,1,.22.31A1,1,0,0,1,102.84,39.54Z" transform="translate(-2.5 -13)"/></g><rect class="cls-5" x="27.18" y="13.78" width="3.82" height="14.22" rx="1.05" ry="1.05"/><rect class="cls-5" x="22.08" y="16.94" width="3.82" height="11.06" rx="0.93" ry="0.93"/><rect class="cls-5" x="16.98" y="20.89" width="3.82" height="7.11" rx="0.67" ry="0.67"/><rect class="cls-5" x="11.89" y="19.08" width="3.82" height="8.92" rx="0.75" ry="0.75"/><path class="cls-5" d="M30.33,20.34a1.06,1.06,0,0,1-.6,1.41,1.23,1.23,0,0,1-1.61-.23,1.06,1.06,0,0,1,.6-1.41A1.23,1.23,0,0,1,30.33,20.34Z" transform="translate(-2.5 -13)"/><path class="cls-5" d="M26.91,22.42s.57-.95,1.26-.39l1.42,1.41,1,.83s.37.58.05.6l-2.41-1.63a.73.73,0,0,0-.94.37,1.8,1.8,0,0,0-.17,1.82,7.71,7.71,0,0,1,0,3.62s.4.88-.27.62a1,1,0,0,1-.37-.58s.2-1.52.17-1.82l-2.5,1.09s-.64,0-.05-.6l2.18-1.06s-1.14-2-.55-2.67l1.16-1.59" transform="translate(-2.5 -13)"/></svg>