<svg xmlns="http://www.w3.org/2000/svg" viewBox="0 0 25.32 24.8"><defs><style>.cls-1{fill:#fcb713;}.cls-2,.cls-4,.cls-5{fill:none;}.cls-2,.cls-5{stroke:#fff;}.cls-2,.cls-3,.cls-4,.cls-5{stroke-miterlimit:10;}.cls-3{fill:#fff;stroke-width:0.5px;}.cls-3,.cls-4{stroke:#fdb714;}.cls-4,.cls-5{stroke-linecap:round;}.cls-4{stroke-width:3px;}.cls-5{stroke-width:2px;}</style></defs><title>02-(26-26)_2 ICONS_(Circle)-svg</title><g id="Yel_CIRCLE"><ellipse class="cls-1" cx="12.66" cy="12.4" rx="12.66" ry="12.4"/></g><g id="Yel_Square"><g id="icon-1_for_CIRCLE" data-name="icon-1 for CIRCLE"><line class="cls-2" x1="6.01" y1="8.95" x2="6.01" y2="14.94"/><line class="cls-2" x1="12.21" y1="9.16" x2="12.21" y2="18.15"/><line class="cls-2" x1="18.63" y1="10.02" x2="18.63" y2="18.1"/><circle class="cls-3" cx="15.53" cy="18.44" r="3.93"/><line class="cls-4" x1="15.53" y1="21.88" x2="15.53" y2="18.18"/><path class="cls-5" d="M16.07,19.49" transform="translate(-0.54 -0.2)"/><path class="cls-5" d="M16.07,22.92" transform="translate(-0.54 -0.2)"/><path class="cls-5" d="M16.07,19.49" transform="translate(-0.54 -0.2)"/><path class="cls-5" d="M16.07,22.92" transform="translate(-0.54 -0.2)"/><line class="cls-5" x1="15.53" y1="21.82" x2="15.53" y2="18.39"/></g><circle class="cls-3" cx="9.21" cy="7.05" r="3.93"/><line class="cls-4" x1="9.21" y1="3.61" x2="9.21" y2="7.31"/><path class="cls-5" d="M9.75,6.39" transform="translate(-0.54 -0.2)"/><path class="cls-5" d="M9.75,3" transform="translate(-0.54 -0.2)"/><path class="cls-5" d="M9.75,6.39" transform="translate(-0.54 -0.2)"/><path class="cls-5" d="M9.75,3" transform="translate(-0.54 -0.2)"/><line class="cls-5" x1="9.21" y1="3.68" x2="9.21" y2="7.1"/></g></svg>