<svg id="Layer_9" data-name="Layer 9" xmlns="http://www.w3.org/2000/svg" viewBox="0 0 24.92 24.19"><defs><style>.cls-1,.cls-5{fill:#f51f5d;}.cls-2{fill:#fff;}.cls-3,.cls-4,.cls-6{fill:none;}.cls-3,.cls-6{stroke:#fff;}.cls-3,.cls-4,.cls-5,.cls-6{stroke-miterlimit:10;}.cls-4,.cls-5{stroke:#ee255e;}.cls-5{stroke-width:0.75px;}.cls-6{stroke-width:0.5px;}</style></defs><title>02-(26-26)_Red_(Circle)-svg</title><g id="Red_CIRCLE"><ellipse class="cls-1" cx="12.46" cy="12.09" rx="12.46" ry="12.09"/><g id="icon-2"><ellipse class="cls-2" cx="9.38" cy="12.31" rx="1.59" ry="7.85"/><line class="cls-3" x1="3.67" y1="11.91" x2="22.49" y2="11.91"/><polyline class="cls-4" points="3.45 17.6 10.27 17.68 22.09 7.14 22.09 7.14"/><line class="cls-5" x1="3.67" y1="12.25" x2="24.14" y2="12.25"/><polyline class="cls-6" points="3.45 17.26 10.27 17.34 20.31 8.38"/><polygon class="cls-2" points="20.45 10.24 19.94 8.71 18.48 8.03 22.09 6.8 20.45 10.24"/><polyline class="cls-4" points="3.5 6.8 10.32 6.8 20.55 16.01 21.75 17.03"/><polyline class="cls-6" points="3.5 6.46 10.32 6.46 19.95 15.12"/><polygon class="cls-2" points="18.13 15.49 19.58 14.79 20.08 13.26 21.75 16.69 18.13 15.49"/><path class="cls-3" d="M14.69,18.84" transform="translate(-0.86 -0.81)"/></g></g></svg>