<svg xmlns="http://www.w3.org/2000/svg" viewBox="0 0 26 26"><defs><style>.cls-1,.cls-5{fill:#f51f5d;}.cls-1,.cls-4,.cls-5{stroke:#ee255e;}.cls-1,.cls-3,.cls-4,.cls-5,.cls-6{stroke-miterlimit:10;}.cls-2{fill:#fff;}.cls-3,.cls-4,.cls-6{fill:none;}.cls-3,.cls-6{stroke:#fff;}.cls-5{stroke-width:0.75px;}.cls-6{stroke-width:0.5px;}</style></defs><title>02-(26-26)_Red_(Square)-svg</title><g id="Red_Square"><rect class="cls-1" x="0.5" y="0.5" width="25" height="25"/></g><g id="Layer_9" data-name="Layer 9"><g id="Red_CIRCLE"><g id="icon-2"><ellipse class="cls-2" cx="8.82" cy="13.12" rx="1.75" ry="8.61"/><line class="cls-3" x1="2.55" y1="12.68" x2="23.2" y2="12.68"/><polyline class="cls-4" points="2.31 18.93 9.79 19.01 22.75 7.45 22.75 7.45"/><line class="cls-5" x1="2.55" y1="13.06" x2="25" y2="13.06"/><polyline class="cls-6" points="2.31 18.55 9.79 18.63 20.97 8.66"/><polygon class="cls-2" points="21.12 10.52 20.6 8.99 19.15 8.3 22.75 7.07 21.12 10.52"/><polyline class="cls-4" points="2.36 7.07 9.85 7.07 21.07 17.17 22.38 18.3"/><polyline class="cls-6" points="2.36 6.7 9.85 6.7 20.58 16.36"/><polygon class="cls-2" points="18.76 16.73 20.21 16.03 20.71 14.5 22.38 17.92 18.76 16.73"/><path class="cls-3" d="M13.69,19.4"/></g></g></g></svg>