<?xml version="1.0"?>
<svg xmlns="http://www.w3.org/2000/svg" enable-background="new 0 0 32 32" height="512px" viewBox="0 0 32 32" width="512px"><g><g id="share"><path d="m27 23c0 2.206-1.794 4-4 4s-4-1.794-4-4c0-.002.001-.004.001-.006l-7.666-4.761c-.658.477-1.461.767-2.335.767-2.206 0-4-1.794-4-4s1.794-4 4-4c1.073 0 2.044.43 2.763 1.12l7.286-4.632c-.02-.162-.049-.321-.049-.488 0-2.206 1.794-4 4-4s4 1.794 4 4-1.794 4-4 4c-1.313 0-2.469-.644-3.198-1.622l-6.998 4.449c.116.373.196.762.196 1.173 0 .601-.143 1.165-.381 1.677l6.943 4.312c.696-1.184 1.968-1.989 3.438-1.989 2.206 0 4 1.794 4 4z" data-original="#000000" class="active-path" data-old_color="#000000" fill="#FFB229"/></g></g> </svg>
