<svg id="Layer_1" data-name="Layer 1" xmlns="http://www.w3.org/2000/svg" viewBox="0 0 73.51 68"><defs><style>.cls-1{fill:#f4b2b0;}.cls-2{fill:#b3404a;}</style></defs><polygon class="cls-1" points="71.53 34 51.34 45.66 51.34 22.34 71.53 34"/><path class="cls-2" d="M33.53,28.52H48.6V24.34a2,2,0,0,1,1-1.71,2,2,0,0,1,2,0L71.76,34.28a2,2,0,0,1,0,3.44L51.57,49.37a1.94,1.94,0,0,1-1,.27,2,2,0,0,1-2-2V43.48H33.53a2,2,0,0,1-2-2v-11A2,2,0,0,1,33.53,28.52Zm19,15.7L66.81,36,52.56,27.78V44.22Zm-17.05-4.7H48.6v-7H35.51Z" transform="translate(0.75 -2)"/><path class="cls-1" d="M26.31,15.53V56.47a21.62,21.62,0,0,1,0-40.94Z" transform="translate(0.75 -2)"/><path class="cls-2" d="M26.31,58.45a1.92,1.92,0,0,0,1.15-.37,2,2,0,0,0,.83-1.61V15.53a2,2,0,0,0-.83-1.61,2,2,0,0,0-1.79-.27,23.6,23.6,0,0,0,0,44.7A2,2,0,0,0,26.31,58.45Zm-2-39.94v35a19.64,19.64,0,0,1,0-35Z" transform="translate(0.75 -2)"/><path class="cls-2" d="M33.25,70A34,34,0,0,0,61.48,55a2,2,0,1,0-3.29-2.21,30,30,0,1,1,0-33.48,2,2,0,0,0,3.29-2.21A34,34,0,1,0,33.25,70Z" transform="translate(0.75 -2)"/></svg>