<svg id="Layer_1" data-name="Layer 1" xmlns="http://www.w3.org/2000/svg" viewBox="0 0 72 72"><defs><style>.cls-1{fill:#90dfaa;}.cls-2{fill:#e6e9ee;}.cls-3{fill:#ffd05b;}.cls-4{fill:#f1543f;}.cls-5{fill:#ff7058;}.cls-6{fill:#fff;}.cls-7{fill:#f9b54c;}.cls-8{fill:#324a5e;}</style></defs><title>Profile-72×72</title><circle class="cls-1" cx="36" cy="36" r="36"/><path class="cls-2" d="M36.89,52.2c-.06,0-.11.06-.23.06s-.11-.06-.23-.06Z" transform="translate(-1 -1)"/><path class="cls-2" d="M65.69,58A36,36,0,0,1,7.64,58c5.1-5.44,12-8.33,17.8-9.81-.51,4.14,1.64,9.69,1.7,9.52,2.15-5,9.47-5.44,9.47-5.44s7.31.4,9.52,5.44c.06.11,2.21-5.39,1.7-9.52C53.67,49.64,60.59,52.54,65.69,58Z" transform="translate(-1 -1)"/><path class="cls-3" d="M45.62,44.37h0c0,.74-.45,4.65-8.73,7.82h-.45C28.16,49,27.7,45.11,27.7,44.37h0a11.42,11.42,0,0,1,1-4.31c2.27,2.55,5,4.25,7.94,4.25s5.67-1.64,7.94-4.25A10.44,10.44,0,0,1,45.62,44.37Z" transform="translate(-1 -1)"/><path class="cls-4" d="M41.59,53.5l-1.81,3.63H33.54L31.73,53.5a16.93,16.93,0,0,1,4.93-1.25A16.53,16.53,0,0,1,41.59,53.5Z" transform="translate(-1 -1)"/><path class="cls-5" d="M31.62,72.38a37.32,37.32,0,0,0,5.1.34,38.57,38.57,0,0,0,5.1-.34l-2-15.19H33.6Z" transform="translate(-1 -1)"/><path class="cls-6" d="M45.62,44.26s.4,4.54-9,8c0,0,7.31.4,9.52,5.44C46.24,57.92,50.5,46.92,45.62,44.26Z" transform="translate(-1 -1)"/><path class="cls-6" d="M27.7,44.26c-4.82,2.66-.62,13.61-.51,13.44,2.15-5,9.52-5.44,9.52-5.44C27.31,48.79,27.7,44.26,27.7,44.26Z" transform="translate(-1 -1)"/><path class="cls-7" d="M45.05,41.2c-2.38,2.55-5.22,4.2-8.39,4.2s-6-1.64-8.39-4.2a6.76,6.76,0,0,1,.45-1.13c2.27,2.55,5,4.25,7.94,4.25s5.67-1.64,7.94-4.25A6.76,6.76,0,0,1,45.05,41.2Z" transform="translate(-1 -1)"/><path class="cls-3" d="M52.14,32.52c-1.19,2-3,3.17-4.37,2.95-2.72,5-6.69,8.79-11.11,8.79s-8.39-3.8-11.11-8.79c-1.36.17-3.17-1-4.37-2.95-1.42-2.32-1.47-4.88-.11-5.73a1.77,1.77,0,0,1,1.08-.23,13.68,13.68,0,0,0,2.15,3.74c-1.3-7.2,4-8,3.12-14.91,0,0,3.34,7.43,12.93,2.21L39.61,19C53,16,48.51,31.79,48.4,32.18a17.87,17.87,0,0,0,3.06-5.61,1.39,1.39,0,0,1,.68.23C53.61,27.59,53.56,30.2,52.14,32.52Z" transform="translate(-1 -1)"/><path class="cls-8" d="M44.37,7.92a6.62,6.62,0,0,1,2.83.85c-4.82-5.5-12.7-2-12.7-2a7.39,7.39,0,0,1,5-2c-11.28-1.7-13.21,5-13.21,5a4.2,4.2,0,0,1-.45-2.49c-.79,1.36.06,4.08.06,4.08-.79-2-3.57-1.64-3.57-1.64,2.38.4,2.78,1.87,2.78,1.87-6,2.21-4.93,8.39-4.93,8.39l1.42-1.7c-1.76,6.75,2.72,12,2.72,12-1.3-7.2,4-8,3.12-14.91,0,0,3.34,7.43,12.93,2.21L39.67,19c13.55-3.06,8.79,13.21,8.79,13.21a18.3,18.3,0,0,0,4.08-12.42L53.1,22C54.63,11.83,44.37,7.92,44.37,7.92Z" transform="translate(-1 -1)"/></svg>