<?xml version="1.0"?>
<svg xmlns="http://www.w3.org/2000/svg" height="512px" viewBox="0 0 477.60001 477.60001" width="512px" class=""><g><path d="m477.601562 238.800781c0 131.886719-106.914062 238.800781-238.800781 238.800781s-238.800781-106.914062-238.800781-238.800781 106.914062-238.800781 238.800781-238.800781 238.800781 106.914062 238.800781 238.800781zm0 0" fill="#382b73" data-original="#382B73" class=""/><path d="m445.398438 238.800781c0 114.101563-92.496094 206.597657-206.597657 206.597657-114.101562 0-206.597656-92.496094-206.597656-206.597657 0-114.101562 92.496094-206.597656 206.597656-206.597656 114.101563 0 206.597657 92.496094 206.597657 206.597656zm0 0" fill="#473080" data-original="#473080" class=""/><path d="m377.613281 174.4375c-4.042969-4.046875-10.539062-4.230469-14.808593-.425781l-29.0625 25.902343v-77.585937c0-1.949219-1.582032-3.53125-3.53125-3.53125h-182.117188c-1.949219 0-3.53125 1.582031-3.53125 3.53125v235.671875h-.703125v6.117188h.703125v15.152343c0 1.949219 1.582031 3.53125 3.53125 3.53125h182.117188c1.949218 0 3.53125-1.582031 3.53125-3.53125v-141.214843l3.164062-2.660157 29.070312-32.613281 1.289063-1.449219 10.773437-12.085937c3.804688-4.269532 3.617188-10.765625-.425781-14.808594zm0 0" fill="#382b73" data-original="#382B73" class=""/><path d="m330.210938 370.800781h-182.117188c-1.949219 0-3.53125-1.582031-3.53125-3.53125v-253.410156c0-1.953125 1.582031-3.53125 3.53125-3.53125h182.117188c1.949218 0 3.53125 1.578125 3.53125 3.53125v253.410156c0 1.949219-1.582032 3.53125-3.53125 3.53125zm0 0" fill="#bbbdbf" data-original="#BBBDBF" class=""/><path d="m330.210938 367.269531h-182.117188c-1.949219 0-3.53125-1.578125-3.53125-3.53125v-253.410156c0-1.949219 1.582031-3.527344 3.53125-3.527344h182.117188c1.949218 0 3.53125 1.578125 3.53125 3.527344v253.414063c0 1.949218-1.582032 3.527343-3.53125 3.527343zm0 0" fill="#fff" data-original="#FFF" class=""/><path d="m143.859375 346.003906h189.878906v6.117188h-189.878906zm0 0" fill="#f6ca14" data-original="#F6CA14" class=""/><path d="m204.09375 145.152344c0 11.566406-9.375 20.941406-20.941406 20.941406s-20.941406-9.375-20.941406-20.941406 9.375-20.941406 20.941406-20.941406 20.941406 9.375 20.941406 20.941406zm0 0" fill="#106ea0" data-original="#106EA0"/><path d="m204.09375 141.625c0 11.566406-9.375 20.941406-20.941406 20.941406s-20.941406-9.375-20.941406-20.941406 9.375-20.941406 20.941406-20.941406 20.941406 9.375 20.941406 20.941406zm0 0" fill="#1cade3" data-original="#1CADE3"/><g fill="#d0d2d3"><path d="m261.976562 135.507812h-39.058593c-1.949219 0-3.53125-1.582031-3.53125-3.53125 0-1.949218 1.582031-3.53125 3.53125-3.53125h39.058593c1.949219 0 3.53125 1.582032 3.53125 3.53125 0 1.949219-1.582031 3.53125-3.53125 3.53125zm0 0" data-original="#000000" class=""/><path d="m316.09375 154.800781h-93.175781c-1.949219 0-3.53125-1.582031-3.53125-3.53125s1.582031-3.53125 3.53125-3.53125h93.175781c1.949219 0 3.53125 1.582031 3.53125 3.53125s-1.582031 3.53125-3.53125 3.53125zm0 0" data-original="#000000" class=""/><path d="m226.210938 208.800781h-63.527344c-1.953125 0-3.53125-1.582031-3.53125-3.53125s1.578125-3.53125 3.53125-3.53125h63.527344c1.949218 0 3.53125 1.582031 3.53125 3.53125s-1.582032 3.53125-3.53125 3.53125zm0 0" data-original="#000000" class=""/><path d="m317.113281 329.328125h-44.703125c-1.949218 0-3.53125-1.578125-3.53125-3.527344s1.582032-3.53125 3.53125-3.53125h44.703125c1.949219 0 3.53125 1.582031 3.53125 3.53125s-1.582031 3.527344-3.53125 3.527344zm0 0" data-original="#000000" class=""/><path d="m207.386719 329.328125h-44.703125c-1.953125 0-3.53125-1.578125-3.53125-3.527344s1.578125-3.53125 3.53125-3.53125h44.703125c1.953125 0 3.53125 1.582031 3.53125 3.53125s-1.578125 3.527344-3.53125 3.527344zm0 0" data-original="#000000" class=""/><path d="m316.09375 229.507812h-153.410156c-1.953125 0-3.53125-1.582031-3.53125-3.53125 0-1.949218 1.578125-3.53125 3.53125-3.53125h153.410156c1.949219 0 3.53125 1.582032 3.53125 3.53125 0 1.949219-1.582031 3.53125-3.53125 3.53125zm0 0" data-original="#000000" class=""/><path d="m316.09375 250.210938h-153.410156c-1.953125 0-3.53125-1.578126-3.53125-3.527344 0-1.953125 1.578125-3.53125 3.53125-3.53125h153.410156c1.949219 0 3.53125 1.578125 3.53125 3.53125 0 1.949218-1.582031 3.527344-3.53125 3.527344zm0 0" data-original="#000000" class=""/></g><path d="m333.742188 199.914062-17.085938 15.230469-19.53125 22.65625-1.398438 1.621094-18.433593 21.382813-.394531.460937-4.050782 4.699219.273438.273437-20.804688 15.117188c-.4375.316406-.683594.828125-.679687 1.371093.078125 7.558594-2.632813 15.546876-7.277344 23.832032-.414063.738281.394531 1.546875 1.128906 1.132812 8.285157-4.648437 16.273438-7.355468 23.832031-7.28125.542969.003906 1.054688-.238281 1.375-.679687l15.121094-20.804688-.308594-.308593 2.441407-2.054688 2.769531-2.332031 21.21875-17.839844 2.050781-1.726563 19.753907-16.609374zm-63.945313 89.210938c-.328125 1.109375-1.042969 2.132812-2.15625 2.84375-1.597656 1.015625-3.703125 1.015625-5.296875-.003906-.640625-.40625-1.148438-.921875-1.527344-1.492188-1.503906-2.253906-.996094-5.445312 1.527344-7.054687 1.59375-1.015625 3.703125-1.015625 5.296875-.003907 2.050781 1.3125 2.765625 3.664063 2.15625 5.710938zm0 0" fill="#bbbdbf" data-original="#BBBDBF" class=""/><path d="m285.503906 266.621094-12.65625-12.65625 43.808594-50.820313 46.148438-41.132812c4.269531-3.804688 10.765624-3.617188 14.808593.425781s4.230469 10.539062.425781 14.808594l-41.132812 46.148437zm0 0" fill="#e43c90" data-original="#E43C90"/><path d="m283.007812 264.125-7.425781-7.425781 45.261719-49.371094 45.109375-42.167969c4.171875-3.902344 9.285156-5.097656 11.660156-2.722656 2.371094 2.371094 1.175781 7.484375-2.726562 11.660156l-42.167969 45.109375zm0 0" fill="#ee5a9c" data-original="#EE5A9C" class="active-path" style="fill:#FFF" data-old_color="#EE5A9C"/><path d="m285.8125 266.925781-.464844-.46875-12.222656-12.222656-20.808594 15.121094c-.4375.320312-.683594.832031-.679687 1.371093.078125 7.5625-2.632813 15.550782-7.277344 23.835938-.414063.734375.394531 1.542969 1.128906 1.128906 8.285157-4.644531 16.273438-7.355468 23.832031-7.28125.542969.007813 1.054688-.238281 1.375-.675781zm-23.46875 13.042969c-3.164062-2.019531-3.164062-6.53125 0-8.546875 1.59375-1.019531 3.699219-1.019531 5.296875-.003906 3.164063 2.015625 3.167969 6.535156 0 8.550781-1.597656 1.015625-3.703125 1.015625-5.296875 0zm0 0" fill="#f6ca14" data-original="#F6CA14" class=""/><path d="m266.839844 283.875 16.3125-19.613281-7.363282-7.363281-19.613281 16.3125c-.414062.34375-.71875.800781-.824219 1.230468-1.527343 5.957032-5.34375 12.835938-10.753906 20.359375-.480468.667969-.011718 1.136719.65625.65625 7.519532-5.410156 14.398438-9.230469 20.359375-10.753906.425781-.113281.878907-.414063 1.226563-.828125zm.800781-3.90625c-1.597656 1.015625-3.703125 1.015625-5.296875-.003906-3.164062-2.015625-3.164062-6.53125 0-8.546875 1.59375-1.015625 3.699219-1.015625 5.296875 0 3.167969 2.015625 3.167969 6.535156 0 8.550781zm0 0" fill="#fddd3a" data-original="#FDDD3A" class="" style="fill:#FDDD3A"/><path d="m274.929688 251.546875 13.015624 13.015625 2.773438-2.332031-13.425781-13.425781zm0 0" fill="#fddd3a" data-original="#FDDD3A" class="" style="fill:#FDDD3A"/><path d="m294.761719 228.542969 16.453125 16.453125 2.773437-2.332032-16.863281-16.863281zm0 0" fill="#fddd3a" data-original="#FDDD3A" class="" style="fill:#FDDD3A"/><path d="m349.269531 174.074219 16.707031 16.707031 2.441407-2.742188-16.40625-16.410156zm0 0" fill="#fddd3a" data-original="#FDDD3A" class="" style="fill:#FDDD3A"/><path d="m209.835938 314.308594c-1.621094 0-3.195313-.253906-4.65625-.777344-4.542969-1.621094-8.070313-5.878906-8.984376-10.851562-.78125-4.210938.171876-8.402344 2.671876-11.800782 2.648437-3.589844 6.808593-5.964844 11.414062-6.511718 4.554688-.542969 9.378906.21875 14 1.796874-.867188-4.152343-3.054688-7.777343-6.308594-10.222656-7.089844-5.34375-14.960937.890625-17.203125 2.929688-1.589843 1.445312-3.0625 3.019531-4.617187 4.6875-2.363282 2.535156-4.804688 5.15625-7.75 7.328125-5.46875 4.035156-13.523438 6.394531-19.179688 2.558593-5.328125-3.609374-6.332031-10.761718-4.957031-16.246093 1.757813-7.03125 6.296875-12.976563 10.417969-18 1.046875-1.28125 2.9375-1.46875 4.21875-.417969 1.285156 1.050781 1.46875 2.941406.417968 4.222656-3.703124 4.519532-7.777343 9.824219-9.234374 15.648438-.863282 3.457031-.28125 7.941406 2.503906 9.828125 3.039062 2.058593 8.582031.289062 12.253906-2.421875 2.496094-1.839844 4.644531-4.148438 6.921875-6.589844 1.570313-1.683594 3.195313-3.425781 4.96875-5.039062 8.171875-7.417969 17.691406-8.671876 24.851563-3.285157 5.464843 4.121094 8.722656 10.59375 9.078124 17.78125 4.511719 2.363281 8.539063 5.382813 11.511719 8.507813 1.140625 1.199218 1.09375 3.097656-.105469 4.242187-1.199218 1.140625-3.101562 1.09375-4.242187-.105469-2.023437-2.125-4.671875-4.230468-7.652344-6.039062-1.449219 7.285156-5.808593 13.371094-12.058593 16.640625-2.703126 1.417969-5.5625 2.136719-8.28125 2.136719zm3.480468-24.117188c-.785156 0-1.5625.042969-2.324218.132813-2.96875.355469-5.625 1.855469-7.292969 4.117187-1.066407 1.449219-2.210938 3.863282-1.605469 7.152344.527344 2.863281 2.578125 5.390625 5.101562 6.289062 2.335938.835938 5.300782.460938 8.140626-1.023437 5.085937-2.660156 8.492187-7.925781 9.214843-14.183594-3.675781-1.53125-7.558593-2.484375-11.234375-2.484375zm0 0" fill="#ee5a9c" data-original="#EE5A9C" class="active-path" style="fill:#FFF" data-old_color="#EE5A9C"/></g> </svg>
