<?xml version="1.0" encoding="iso-8859-1"?>
<!-- Generator: Adobe Illustrator 19.0.0, SVG Export Plug-In . SVG Version: 6.00 Build 0)  -->
<svg version="1.1" id="Layer_1" xmlns="http://www.w3.org/2000/svg" xmlns:xlink="http://www.w3.org/1999/xlink" x="0px" y="0px"
	 viewBox="0 0 512 512" style="enable-background:new 0 0 512 512;" xml:space="preserve">
<g id="Others">
</g>
<g id="Design">
</g>
<g id="SEO_x2F__Web">
	<g id="eye">
		
			<radialGradient id="SVGID_1_" cx="256" cy="258" r="256" gradientTransform="matrix(1 0 0 -1 0 514)" gradientUnits="userSpaceOnUse">
			<stop  offset="0" style="stop-color:#9C56B8"/>
			<stop  offset="1" style="stop-color:#8F3FAF"/>
		</radialGradient>
		<circle style="fill:url(#SVGID_1_);" cx="256" cy="256" r="256"/>
		<path style="fill:#FFFFFF;" d="M55.197,256c0,0,55.607,122.623,196.153,122.623c1.544,0,2.649-0.033,4.649-0.062V133.439
			C118,136.074,55.197,256,55.197,256z"/>
		<path style="fill:#BDC3C7;" d="M456.574,256c0,0-55.492-122.623-196.038-122.623c-1.545,0-3.536,0.033-4.536,0.062V378.56
			C393,375.924,456.574,256,456.574,256z"/>
		<path style="fill:#1C99D8;" d="M164.557,256c0,50.504,40.443,91.443,91.443,91.443V164.557
			C205,164.557,164.557,205.496,164.557,256z"/>
		<path style="fill:#1380B6;" d="M256,164.557v182.887c50,0,91.443-40.939,91.443-91.443S306,164.557,256,164.557z"/>
		<path style="fill:#32495D;" d="M193.669,256c0,34.424,27.331,62.33,62.331,62.33V193.67C221,193.67,193.669,221.574,193.669,256z"
			/>
		<path style="fill:#2A3E4F;" d="M256,193.67v124.66c34,0,62.331-27.906,62.331-62.33C318.331,221.574,290,193.67,256,193.67z"/>
		<circle style="fill:#FFFFFF;" cx="297.178" cy="217.119" r="24.634"/>
		<path style="fill:#F4C342;" d="M130.547,226.127c0-50.607-24.312-74.918-74.918-74.918c50.605,0,74.918-24.312,74.918-74.919
			c0,50.606,24.312,74.919,74.918,74.919C154.859,151.209,130.547,175.52,130.547,226.127z"/>
		<path style="fill:#F4C342;" d="M74.652,267.063c0-29.682-14.26-43.939-43.939-43.939c29.68,0,43.939-14.259,43.939-43.939
			c0,29.681,14.259,43.939,43.939,43.939C88.911,223.124,74.652,237.382,74.652,267.063z"/>
		<path style="fill:#F4C342;" d="M210.287,150.543c0-29.43-14.139-43.566-43.566-43.566c29.428,0,43.566-14.138,43.566-43.566
			c0,29.429,14.139,43.566,43.566,43.566C224.426,106.977,210.287,121.113,210.287,150.543z"/>
	</g>
</g>
<g id="Finance__x2F__Money">
</g>
<g id="E-Commerce__x2F__Shopping">
</g>
<g id="Strategy">
</g>
<g>
</g>
<g>
</g>
<g>
</g>
<g>
</g>
<g>
</g>
<g>
</g>
<g>
</g>
<g>
</g>
<g>
</g>
<g>
</g>
<g>
</g>
<g>
</g>
<g>
</g>
<g>
</g>
<g>
</g>
</svg>
