<svg id="Layer_1" data-name="Layer 1" xmlns="http://www.w3.org/2000/svg" viewBox="0 0 256 256"><defs><style>.cls-1{fill:#017296;}.cls-2{fill:#6caac9;}.cls-3{fill:#88b9d3;}.cls-4{fill:#024c67;}.cls-5{fill:#fded32;}.cls-6{fill:#fc9302;}.cls-7{fill:#fdbf43;}</style></defs><path class="cls-1" d="M256,128A128,128,0,1,1,128,0,128,128,0,0,1,256,128Z"/><path class="cls-2" d="M135.92,79.5V74a1,1,0,0,1,1-1H197a1,1,0,0,1,1,1v5.5a1,1,0,0,1-1,1H136.92A1,1,0,0,1,135.92,79.5ZM212,183H136.92a1,1,0,0,0-1,1v5.5a1,1,0,0,0,1,1H212a1,1,0,0,0,1-1V184A1,1,0,0,0,212,183Zm-75.08-7.5H197a1,1,0,0,0,1-1V169a1,1,0,0,0-1-1H136.92a1,1,0,0,0-1,1v5.5A1,1,0,0,0,136.92,175.5ZM212,153H136.92a1,1,0,0,0-1,1v5.5a1,1,0,0,0,1,1H212a1,1,0,0,0,1-1V154A1,1,0,0,0,212,153Zm0-65H136.92a1,1,0,0,0-1,1v5.5a1,1,0,0,0,1,1H212a1,1,0,0,0,1-1V89A1,1,0,0,0,212,88Zm0-30H136.92a1,1,0,0,0-1,1v5.5a1,1,0,0,0,1,1H212a1,1,0,0,0,1-1V59A1,1,0,0,0,212,58Z"/><path class="cls-3" d="M75.5,139.25a36.25,36.25,0,1,0,36.25,36.25A36.29,36.29,0,0,0,75.5,139.25Zm0,65a28.75,28.75,0,1,1,28.75-28.75A28.79,28.79,0,0,1,75.5,204.25Zm0-87.5A36.25,36.25,0,1,0,39.25,80.5,36.29,36.29,0,0,0,75.5,116.75Zm0-65A28.75,28.75,0,1,1,46.75,80.5,28.79,28.79,0,0,1,75.5,51.75Z"/><path d="M75.5,59.58A20.93,20.93,0,1,0,96,80.5,20.72,20.72,0,0,0,75.5,59.58Zm0,40A19.1,19.1,0,1,1,94.18,80.5,18.92,18.92,0,0,1,75.5,99.6Z"/><path d="M75.5,79.59A11.7,11.7,0,0,0,63.94,91.41a.89.89,0,1,0,1.78,0,9.78,9.78,0,1,1,19.56,0,.89.89,0,1,0,1.78,0A11.7,11.7,0,0,0,75.5,79.59Z"/><path d="M75.5,65a6.37,6.37,0,1,0,6.23,6.37A6.31,6.31,0,0,0,75.5,65ZM75.5,76A4.55,4.55,0,1,1,80,71.41,4.51,4.51,0,0,1,75.5,76Z"/><path d="M75.5,154.58A20.93,20.93,0,1,0,96,175.5,20.72,20.72,0,0,0,75.5,154.58Zm0,40a19.1,19.1,0,1,1,18.68-19.1A18.92,18.92,0,0,1,75.5,194.6Z"/><path d="M75.5,174.59a11.7,11.7,0,0,0-11.56,11.82.89.89,0,1,0,1.78,0,9.78,9.78,0,1,1,19.56,0,.89.89,0,1,0,1.78,0A11.7,11.7,0,0,0,75.5,174.59Z"/><path d="M75.5,160a6.37,6.37,0,1,0,6.23,6.37A6.31,6.31,0,0,0,75.5,160Zm0,10.91A4.55,4.55,0,1,1,80,166.41,4.51,4.51,0,0,1,75.5,171Z"/><path class="cls-4" d="M250.54,42.36,236.39,56.5a5,5,0,0,1-7.07,0L208.11,35.29a5,5,0,0,1,0-7.07l14.14-14.14a5,5,0,0,1,7.07,0l21.22,21.21A5,5,0,0,1,250.54,42.36Z"/><path class="cls-5" d="M135.1,49.15,84.52,99.73a2.21,2.21,0,0,1-3.12,0L59.34,77.67a1.09,1.09,0,0,1,0-1.55l6.24-6.24a1.1,1.1,0,0,1,1.56,0l15,15a1.09,1.09,0,0,0,1.56,0L127.3,41.35a1.1,1.1,0,0,1,1.56,0l6.24,6.24A1.1,1.1,0,0,1,135.1,49.15Zm-57.78,124a10,10,0,0,0-2.93,7.07v9a1,1,0,0,0,1,1h9a10,10,0,0,0,7.07-2.93l11.21-11.21L88.53,161.94Z"/><path class="cls-6" d="M247,45.9,124.61,168.29A10.06,10.06,0,0,1,119.5,171l-14.3,2.86a7.5,7.5,0,0,1-6.77-2l-5.65-5.65a7.49,7.49,0,0,1-2-6.76l2.86-14.31A10.1,10.1,0,0,1,96.32,140L218.71,17.61Z"/><path class="cls-7" d="M247,45.9,124.61,168.29A10.06,10.06,0,0,1,119.5,171l-14.3,2.86a7.5,7.5,0,0,1-6.77-2l3.65-18.23a9.87,9.87,0,0,1,2.73-5.11L227.2,26.1Z"/><path class="cls-4" d="M124.61,168.29l-7.79,7.79a10,10,0,0,1-14.15,0l-7.07,7.07L81.46,169l7.07-7.07a10,10,0,0,1,0-14.14l7.8-7.8Z"/></svg>