<svg id="Capa_1" data-name="Capa 1" xmlns="http://www.w3.org/2000/svg" xmlns:xlink="http://www.w3.org/1999/xlink" viewBox="0 0 72 72"><defs><style>.cls-1{fill:url(#linear-gradient);}</style><linearGradient id="linear-gradient" x1="36" y1="2" x2="36" y2="74" gradientTransform="matrix(1, 0, 0, -1, 0, 74)" gradientUnits="userSpaceOnUse"><stop offset="0" stop-color="#a93aff"/><stop offset="1" stop-color="#ff81ff"/></linearGradient></defs><path class="cls-1" d="M48.66,31.78a6.34,6.34,0,0,0-6.33,6.33,2.11,2.11,0,0,0,4.22,0,2.11,2.11,0,1,1,2.92,2,4.73,4.73,0,0,0-2.92,4.38,2.11,2.11,0,0,0,4.22,0,.51.51,0,0,1,.32-.49,6.33,6.33,0,0,0-2.43-12.17Zm17-8.44H46.55v-17A6.34,6.34,0,0,0,40.22,0H6.33A6.34,6.34,0,0,0,0,6.33V31.78a6.34,6.34,0,0,0,6.33,6.33H9.38L13,45.38a2.11,2.11,0,0,0,1.89,1.17,2.08,2.08,0,0,0,1.88-1.17l3.64-7.27h5v19a6.34,6.34,0,0,0,6.33,6.33H51.56l3.64,7.4A2.11,2.11,0,0,0,57.08,72h0A2.11,2.11,0,0,0,59,70.85l3.78-7.43h2.92A6.34,6.34,0,0,0,72,57.09V29.67a6.34,6.34,0,0,0-6.33-6.33ZM25.45,29.67v4.22H19.12a2.11,2.11,0,0,0-1.88,1.17l-2.33,4.66-2.34-4.66a2.08,2.08,0,0,0-1.88-1.17H6.33a2.12,2.12,0,0,1-2.11-2.11V6.33A2.12,2.12,0,0,1,6.33,4.22H40.22a2.12,2.12,0,0,1,2.11,2.11v17H31.78A6.34,6.34,0,0,0,25.45,29.67ZM67.78,57.09a2.11,2.11,0,0,1-2.11,2.11H61.45a2.12,2.12,0,0,0-1.88,1.16l-2.45,4.81-2.35-4.79a2.12,2.12,0,0,0-1.89-1.18H31.78a2.11,2.11,0,0,1-2.11-2.11V29.67a2.12,2.12,0,0,1,2.11-2.11H65.67a2.12,2.12,0,0,1,2.11,2.11ZM48.66,50.77a2.11,2.11,0,1,0,2.11,2.1A2.1,2.1,0,0,0,48.66,50.77Z" transform="translate(0 0)"/></svg>