<svg xmlns="http://www.w3.org/2000/svg" xmlns:xlink="http://www.w3.org/1999/xlink" viewBox="0 0 1920 426.4"><defs><style>.cls-1{isolation:isolate;}.cls-2{fill:#f78d1e;}.cls-3{mix-blend-mode:multiply;fill:url(#linear-gradient);}.cls-4{mix-blend-mode:overlay;fill:url(#linear-gradient-2);}</style><linearGradient id="linear-gradient" x1="783.13" y1="447.41" x2="1915.71" y2="164.26" gradientUnits="userSpaceOnUse"><stop offset="0" stop-color="#ee3724"/><stop offset="1" stop-color="#fff"/></linearGradient><linearGradient id="linear-gradient-2" x1="1882.02" y1="-103.86" x2="909.89" y2="985.71" gradientUnits="userSpaceOnUse"><stop offset="0" stop-color="#fff" stop-opacity="0"/><stop offset="1" stop-color="#fff"/></linearGradient></defs><g class="cls-1"><g id="Layer_1" data-name="Layer 1"><path class="cls-2" d="M0,0C755.05,597.44,1505.76,431.42,1920,304.14V67.43C883.82,571,193.27,147.35,0,0Z"/><path class="cls-3" d="M1246.17,350.52c-235.86,36.27-443.31,24.67-619.33-10.35,522.77,167.18,995.08,55.56,1293.16-36v-171a2685.58,2685.58,0,0,1-247.2,105.52C1545.18,295.41,1400.61,333.92,1246.17,350.52Z"/><path class="cls-4" d="M1920,67.43c-267.39,130-511.7,198.05-730.46,225.19-57.7,45.2-116.47,87.64-175.59,125.88,364.67,33.3,683.8-46.07,906.05-114.36Z"/></g></g></svg>