<svg xmlns="http://www.w3.org/2000/svg" viewBox="0 0 162.78 178.35"><defs><style>.cls-1{isolation:isolate;}.cls-10,.cls-2{fill:#c8db29;}.cls-3{fill:#4c4d79;}.cls-4{fill:#bcd531;}.cls-5{fill:#e6e9ee;}.cls-6{fill:#ee3988;}.cls-7{fill:#10b2a7;mix-blend-mode:screen;}.cls-13,.cls-26,.cls-27,.cls-8{fill:none;}.cls-8{stroke:#51f4eb;stroke-width:0.75px;}.cls-10,.cls-11,.cls-12,.cls-13,.cls-14,.cls-8,.cls-9{stroke-miterlimit:10;}.cls-9{fill:#ccc;}.cls-10,.cls-11,.cls-12,.cls-14,.cls-26,.cls-27,.cls-9{stroke:#fff;}.cls-10,.cls-11,.cls-12,.cls-14,.cls-26,.cls-9{stroke-width:0.5px;}.cls-11,.cls-25{fill:#cc66b8;}.cls-12,.cls-17{fill:#11b24b;}.cls-13{stroke:#000;stroke-width:0.25px;}.cls-14,.cls-20{fill:#40a3da;}.cls-15{fill:#fbcdb4;}.cls-16{fill:#f7f7c9;}.cls-18{fill:#99a30f;}.cls-19{fill:#fff;}.cls-21{fill:#51f4eb;}.cls-22{fill:#009ba5;}.cls-23{fill:#189b91;}.cls-24{fill:#bf43bf;}.cls-26{stroke-linecap:round;}.cls-26,.cls-27{stroke-linejoin:round;}.cls-27{stroke-linecap:square;}</style></defs><title>comparative Analytics-1_final</title><g class="cls-1"><g id="Layer_1" data-name="Layer 1"><circle class="cls-2" cx="21.16" cy="44.48" r="10.17"/><path class="cls-3" d="M65.3,54.43l3-.76A7.74,7.74,0,0,0,64,49.14l-1.56,2.7A4.64,4.64,0,0,1,65.3,54.43Z" transform="translate(-39.87 -11.77)"/><path class="cls-4" d="M56.39,56.25A4.61,4.61,0,0,1,57,54l-2.64-1.53A7.66,7.66,0,0,0,60.56,64V60.86A4.63,4.63,0,0,1,56.39,56.25Z" transform="translate(-39.87 -11.77)"/><path class="cls-5" d="M61,51.6a4.55,4.55,0,0,1,.49.05l1.6-2.78a7.48,7.48,0,0,0-8.31,2.86l2.67,1.55A4.6,4.6,0,0,1,61,51.6Z" transform="translate(-39.87 -11.77)"/><path class="cls-6" d="M68.53,54.57l-3,.75a4.69,4.69,0,0,1,.09.93,4.63,4.63,0,0,1-4.18,4.61V64a7.63,7.63,0,0,0,7-9.39Z" transform="translate(-39.87 -11.77)"/><path class="cls-4" d="M57.55,60.9" transform="translate(-39.87 -11.77)"/><path class="cls-3" d="M65.3,54.43l3-.76A7.74,7.74,0,0,0,64,49.14l-1.56,2.7A4.64,4.64,0,0,1,65.3,54.43Z" transform="translate(-39.87 -11.77)"/><path class="cls-4" d="M56.39,56.25A4.61,4.61,0,0,1,57,54l-2.64-1.53A7.66,7.66,0,0,0,60.56,64V60.86A4.63,4.63,0,0,1,56.39,56.25Z" transform="translate(-39.87 -11.77)"/><path class="cls-5" d="M61,51.6a4.55,4.55,0,0,1,.49.05l1.6-2.78a7.48,7.48,0,0,0-8.31,2.86l2.67,1.55A4.6,4.6,0,0,1,61,51.6Z" transform="translate(-39.87 -11.77)"/><path class="cls-6" d="M68.53,54.57l-3,.75a4.69,4.69,0,0,1,.09.93,4.63,4.63,0,0,1-4.18,4.61V64a7.63,7.63,0,0,0,7-9.39Z" transform="translate(-39.87 -11.77)"/><ellipse class="cls-7" cx="21.16" cy="44.48" rx="5.79" ry="5.8"/><circle class="cls-8" cx="81.32" cy="97.6" r="79.63"/><path class="cls-9" d="M120.5,57.86V51.24a57.91,57.91,0,0,0-57.91,57.91h6.62A51.29,51.29,0,0,1,120.5,57.86Z" transform="translate(-39.87 -11.77)"/><path class="cls-9" d="M120.66,64.48V57.86a51.29,51.29,0,0,0-51.29,51.29H76A44.68,44.68,0,0,1,120.66,64.48Z" transform="translate(-39.87 -11.77)"/><path class="cls-10" d="M120.66,76.39V71.1a38.06,38.06,0,0,0-38.06,38.06H87.9A32.76,32.76,0,0,1,120.66,76.39Z" transform="translate(-39.87 -11.77)"/><path class="cls-10" d="M120.66,81.69V76.39A32.76,32.76,0,0,0,87.9,109.15H93.2A27.47,27.47,0,0,1,120.66,81.69Z" transform="translate(-39.87 -11.77)"/><path class="cls-10" d="M120.66,87V81.69A27.47,27.47,0,0,0,93.2,109.15h5.29A22.17,22.17,0,0,1,120.66,87Z" transform="translate(-39.87 -11.77)"/><path class="cls-10" d="M76,109.15h6.62A38.06,38.06,0,0,1,120.66,71.1V64.48A44.68,44.68,0,0,0,76,109.15Z" transform="translate(-39.87 -11.77)"/><path class="cls-10" d="M120.66,92.28V87a22.17,22.17,0,0,0-22.17,22.17h5.29A16.88,16.88,0,0,1,120.66,92.28Z" transform="translate(-39.87 -11.77)"/><path class="cls-10" d="M120.66,97.57V92.28a16.88,16.88,0,0,0-16.88,16.88h5.29A11.58,11.58,0,0,1,120.66,97.57Z" transform="translate(-39.87 -11.77)"/><path class="cls-10" d="M120.66,102.87V97.57a11.58,11.58,0,0,0-11.58,11.58h5.29A6.29,6.29,0,0,1,120.66,102.87Z" transform="translate(-39.87 -11.77)"/><path class="cls-10" d="M120.66,102.87a6.29,6.29,0,0,0-6.29,6.29h6.29Z" transform="translate(-39.87 -11.77)"/><path class="cls-11" d="M69.37,109.15H62.75a57.91,57.91,0,0,0,57.91,57.91v-6.62A51.29,51.29,0,0,1,69.37,109.15Z" transform="translate(-39.87 -11.77)"/><path class="cls-11" d="M82.61,109.3H75.88c0,24.65,20.35,44.63,45.45,44.63v-6.61C99.95,147.31,82.61,130.29,82.61,109.3Z" transform="translate(-39.87 -11.77)"/><path class="cls-11" d="M75.9,109.15H69.2c0,28.3,23.23,51.24,51.89,51.24v-6.61C96.14,153.78,75.9,133.8,75.9,109.15Z" transform="translate(-39.87 -11.77)"/><path class="cls-11" d="M121,147.17v-5.29a32.94,32.94,0,0,1-33.14-32.73H82.53C82.53,130.15,99.76,147.17,121,147.17Z" transform="translate(-39.87 -11.77)"/><path class="cls-11" d="M93.42,109.15H88.06a32.94,32.94,0,0,0,33.14,32.73v-5.29A27.61,27.61,0,0,1,93.42,109.15Z" transform="translate(-39.87 -11.77)"/><path class="cls-11" d="M98.63,109.15H93.27a27.61,27.61,0,0,0,27.79,27.44V131.3A22.29,22.29,0,0,1,98.63,109.15Z" transform="translate(-39.87 -11.77)"/><path class="cls-11" d="M104,109.15H98.65a22.29,22.29,0,0,0,22.43,22.15V126A17,17,0,0,1,104,109.15Z" transform="translate(-39.87 -11.77)"/><path class="cls-11" d="M109.11,109.15h-5.43A17.09,17.09,0,0,0,121,126v-5.29A11.73,11.73,0,0,1,109.11,109.15Z" transform="translate(-39.87 -11.77)"/><path class="cls-11" d="M114.59,109.15h-5.36A11.64,11.64,0,0,0,121,120.72v-5.29A6.32,6.32,0,0,1,114.59,109.15Z" transform="translate(-39.87 -11.77)"/><path class="cls-11" d="M114.29,109.15h0a6.32,6.32,0,0,0,6.36,6.28v-6.28Z" transform="translate(-39.87 -11.77)"/><path class="cls-9" d="M172,109.15h6.62a57.91,57.91,0,0,0-57.91-57.91v6.62A51.29,51.29,0,0,1,172,109.15Z" transform="translate(-39.87 -11.77)"/><path class="cls-9" d="M120.66,57.86v6.62a44.68,44.68,0,0,1,44.68,44.68H172A51.29,51.29,0,0,0,120.66,57.86Z" transform="translate(-39.87 -11.77)"/><path class="cls-9" d="M158.72,109.15h6.62a44.68,44.68,0,0,0-44.68-44.68V71.1A38.06,38.06,0,0,1,158.72,109.15Z" transform="translate(-39.87 -11.77)"/><path class="cls-9" d="M153.43,109.15h5.29A38.06,38.06,0,0,0,120.66,71.1v5.29A32.76,32.76,0,0,1,153.43,109.15Z" transform="translate(-39.87 -11.77)"/><path class="cls-12" d="M148.13,109.15h5.29a32.76,32.76,0,0,0-32.76-32.76v5.29A27.47,27.47,0,0,1,148.13,109.15Z" transform="translate(-39.87 -11.77)"/><path class="cls-12" d="M142.84,109.15h5.29a27.47,27.47,0,0,0-27.47-27.47V87A22.17,22.17,0,0,1,142.84,109.15Z" transform="translate(-39.87 -11.77)"/><path class="cls-12" d="M137.54,109.15h5.29A22.17,22.17,0,0,0,120.66,87v5.29A16.88,16.88,0,0,1,137.54,109.15Z" transform="translate(-39.87 -11.77)"/><path class="cls-12" d="M132.25,109.15h5.29a16.88,16.88,0,0,0-16.88-16.88v5.29A11.58,11.58,0,0,1,132.25,109.15Z" transform="translate(-39.87 -11.77)"/><path class="cls-12" d="M127,109.15h5.29a11.58,11.58,0,0,0-11.58-11.58v5.29A6.29,6.29,0,0,1,127,109.15Z" transform="translate(-39.87 -11.77)"/><path class="cls-12" d="M120.66,102.87v6.29H127A6.29,6.29,0,0,0,120.66,102.87Z" transform="translate(-39.87 -11.77)"/><path class="cls-9" d="M172,109.15h0a51.29,51.29,0,0,1-51.29,51.29v6.62a57.91,57.91,0,0,0,57.91-57.91Z" transform="translate(-39.87 -11.77)"/><polygon class="cls-13" points="125.47 97.38 132.09 97.38 132.09 97.38 125.47 97.38 125.47 97.38"/><polygon class="cls-13" points="118.85 97.38 125.47 97.38 125.47 97.38 118.85 97.38 118.85 97.38"/><polygon class="cls-13" points="113.56 97.38 118.85 97.38 118.85 97.38 113.56 97.38 113.56 97.38"/><rect class="cls-13" x="108.26" y="97.38" width="5.29"/><rect class="cls-13" x="102.97" y="97.38" width="5.29"/><polygon class="cls-13" points="97.67 97.38 102.97 97.38 102.97 97.38 97.67 97.38 97.67 97.38"/><polygon class="cls-13" points="92.38 97.38 97.67 97.38 97.67 97.38 92.38 97.38 92.38 97.38"/><polygon class="cls-13" points="87.08 97.38 87.08 97.38 92.38 97.38 92.38 97.38 87.08 97.38"/><polygon class="cls-13" points="87.08 97.38 87.08 97.38 80.8 97.38 87.08 97.38"/><path class="cls-9" d="M165.34,109.15a44.68,44.68,0,0,1-44.68,44.68v6.62A51.29,51.29,0,0,0,172,109.15Z" transform="translate(-39.87 -11.77)"/><path class="cls-9" d="M158.72,109.15a38.06,38.06,0,0,1-38.06,38.06v6.62a44.68,44.68,0,0,0,44.68-44.68Z" transform="translate(-39.87 -11.77)"/><path class="cls-14" d="M153.43,109.15a32.76,32.76,0,0,1-32.76,32.76v5.29a38.06,38.06,0,0,0,38.06-38.06Z" transform="translate(-39.87 -11.77)"/><polygon class="cls-13" points="108.26 97.38 113.56 97.38 113.56 97.38 108.26 97.38 108.26 97.38"/><polygon class="cls-13" points="102.97 97.38 102.97 97.38 108.26 97.38 108.26 97.38 102.97 97.38"/><rect class="cls-13" x="97.67" y="97.38" width="5.29"/><rect class="cls-13" x="92.38" y="97.38" width="5.29"/><polygon class="cls-13" points="87.08 97.38 92.38 97.38 92.38 97.38 87.08 97.38 87.08 97.38"/><polygon class="cls-13" points="87.08 97.38 87.08 97.38 80.8 97.38 87.08 97.38"/><path class="cls-14" d="M153.43,109.15h-5.29a27.47,27.47,0,0,1-27.47,27.47v5.29A32.76,32.76,0,0,0,153.43,109.15Z" transform="translate(-39.87 -11.77)"/><polygon class="cls-13" points="102.97 97.38 108.26 97.38 108.26 97.38 102.97 97.38 102.97 97.38"/><polygon class="cls-13" points="97.67 97.38 102.97 97.38 102.97 97.38 97.67 97.38 97.67 97.38"/><polygon class="cls-13" points="92.38 97.38 97.67 97.38 97.67 97.38 92.38 97.38 92.38 97.38"/><polygon class="cls-13" points="87.08 97.38 92.38 97.38 92.38 97.38 87.08 97.38 87.08 97.38"/><polygon class="cls-13" points="87.08 97.38 87.08 97.38 80.8 97.38 87.08 97.38"/><path class="cls-14" d="M142.84,109.15a22.17,22.17,0,0,1-22.17,22.17v5.29a27.47,27.47,0,0,0,27.47-27.47Z" transform="translate(-39.87 -11.77)"/><polygon class="cls-13" points="97.67 97.38 102.97 97.38 102.97 97.38 97.67 97.38 97.67 97.38"/><rect class="cls-13" x="92.38" y="97.38" width="5.29"/><rect class="cls-13" x="87.08" y="97.38" width="5.29"/><polygon class="cls-13" points="87.08 97.38 87.08 97.38 80.8 97.38 87.08 97.38"/><path class="cls-14" d="M137.54,109.15A16.88,16.88,0,0,1,120.66,126v5.29a22.17,22.17,0,0,0,22.17-22.17Z" transform="translate(-39.87 -11.77)"/><polygon class="cls-13" points="92.38 97.38 97.67 97.38 97.67 97.38 92.38 97.38 92.38 97.38"/><polygon class="cls-13" points="87.08 97.38 92.38 97.38 92.38 97.38 87.08 97.38 87.08 97.38"/><polygon class="cls-13" points="87.08 97.38 87.08 97.38 80.8 97.38 87.08 97.38"/><path class="cls-14" d="M132.25,109.15a11.58,11.58,0,0,1-11.58,11.58V126a16.88,16.88,0,0,0,16.88-16.88Z" transform="translate(-39.87 -11.77)"/><rect class="cls-13" x="87.08" y="97.38" width="5.29"/><polygon class="cls-13" points="87.08 97.38 87.08 97.38 80.8 97.38 87.08 97.38"/><path class="cls-14" d="M127,109.15a6.29,6.29,0,0,1-6.29,6.29v5.29a11.58,11.58,0,0,0,11.58-11.58Z" transform="translate(-39.87 -11.77)"/><path class="cls-14" d="M120.66,115.44a6.29,6.29,0,0,0,6.29-6.29h-6.29Z" transform="translate(-39.87 -11.77)"/><path class="cls-15" d="M179.95,155.48c0,1.06-.31,1.92-.68,1.92s-.71-.86-.71-1.92.33-1.88.71-1.88S179.95,154.42,179.95,155.48Z" transform="translate(-39.87 -11.77)"/><path class="cls-16" d="M178.42,156.73h.52s0,.66.31.66h-.83Z" transform="translate(-39.87 -11.77)"/><path class="cls-17" d="M156.15,55l-.29.89h-.38l1-2.82h.44l1,2.82h-.39l-.3-.89Zm.92-.28-.28-.81c-.06-.18-.1-.35-.15-.51h0c0,.17-.09.34-.14.51l-.28.81Z" transform="translate(-39.87 -11.77)"/><path class="cls-17" d="M158.62,53.08V55.9h-.36V53.08Z" transform="translate(-39.87 -11.77)"/><path class="cls-17" d="M159.25,53.12a3.8,3.8,0,0,1,.7-.06,1.15,1.15,0,0,1,.82.23.7.7,0,0,1,.22.54.74.74,0,0,1-.53.72h0a.7.7,0,0,1,.41.57,4.45,4.45,0,0,0,.22.77h-.38a3.54,3.54,0,0,1-.19-.67c-.08-.39-.23-.54-.56-.55h-.34V55.9h-.36Zm.36,1.28H160c.39,0,.64-.21.64-.54s-.26-.52-.65-.53a1.5,1.5,0,0,0-.36,0Z" transform="translate(-39.87 -11.77)"/><path class="cls-17" d="M161.25,56.41a5.93,5.93,0,0,0,.25-1l.41,0a5.13,5.13,0,0,1-.4,1Z" transform="translate(-39.87 -11.77)"/><path class="cls-17" d="M163.2,55.46a1.29,1.29,0,0,0,.65.18c.37,0,.59-.2.59-.48s-.15-.41-.53-.56-.74-.4-.74-.8a.81.81,0,0,1,.91-.77,1.28,1.28,0,0,1,.62.14l-.1.3a1.12,1.12,0,0,0-.54-.13c-.38,0-.53.23-.53.42s.17.39.56.54.72.41.72.83-.32.81-1,.81a1.45,1.45,0,0,1-.72-.18Z" transform="translate(-39.87 -11.77)"/><path class="cls-17" d="M165.73,53.3v.58h.53v.28h-.53v1.09c0,.25.07.39.28.39a.83.83,0,0,0,.21,0l0,.28a.9.9,0,0,1-.33.05.51.51,0,0,1-.4-.15.75.75,0,0,1-.14-.53v-1.1h-.31v-.28h.31v-.49Z" transform="translate(-39.87 -11.77)"/><path class="cls-17" d="M167.79,55.9l0-.25h0a.75.75,0,0,1-.62.3.58.58,0,0,1-.62-.58c0-.49.43-.76,1.22-.75v0a.42.42,0,0,0-.46-.47,1,1,0,0,0-.53.15l-.08-.24a1.25,1.25,0,0,1,.66-.18c.62,0,.77.42.77.83v.76a2.92,2.92,0,0,0,0,.48Zm-.05-1c-.4,0-.86.06-.86.46a.33.33,0,0,0,.35.35.5.5,0,0,0,.49-.34.38.38,0,0,0,0-.12Z" transform="translate(-39.87 -11.77)"/><path class="cls-17" d="M169.11,53.3v.58h.53v.28h-.53v1.09c0,.25.07.39.28.39a.83.83,0,0,0,.21,0l0,.28a.9.9,0,0,1-.33.05.51.51,0,0,1-.4-.15.75.75,0,0,1-.14-.53v-1.1h-.31v-.28h.31v-.49Z" transform="translate(-39.87 -11.77)"/><path class="cls-17" d="M170.23,55a.65.65,0,0,0,.69.7,1.33,1.33,0,0,0,.56-.1l.06.26a1.64,1.64,0,0,1-.67.13.94.94,0,0,1-1-1,1,1,0,0,1,.95-1.09.86.86,0,0,1,.84,1,1.44,1.44,0,0,1,0,.17Zm1.08-.26a.52.52,0,0,0-.51-.6.61.61,0,0,0-.56.6Z" transform="translate(-39.87 -11.77)"/><path class="cls-17" d="M171.83,56.41a6,6,0,0,0,.25-1l.41,0a5.13,5.13,0,0,1-.4,1Z" transform="translate(-39.87 -11.77)"/><path class="cls-17" d="M158.22,61.83a1.81,1.81,0,0,1-.74.13,1.32,1.32,0,0,1-1.39-1.43,1.4,1.4,0,0,1,1.47-1.48,1.51,1.51,0,0,1,.67.13l-.09.3a1.33,1.33,0,0,0-.57-.12,1,1,0,0,0-1.1,1.16,1,1,0,0,0,1.08,1.13,1.46,1.46,0,0,0,.59-.12Z" transform="translate(-39.87 -11.77)"/><path class="cls-17" d="M159.06,59.33a.23.23,0,0,1-.46,0,.22.22,0,0,1,.23-.23A.22.22,0,0,1,159.06,59.33Zm-.41,2.59v-2H159v2Z" transform="translate(-39.87 -11.77)"/><path class="cls-17" d="M160.07,59.31v.58h.53v.28h-.53v1.09c0,.25.07.39.28.39a.83.83,0,0,0,.21,0l0,.28a.9.9,0,0,1-.33.05.51.51,0,0,1-.4-.15.75.75,0,0,1-.14-.53v-1.1h-.31v-.28h.31v-.48Z" transform="translate(-39.87 -11.77)"/><path class="cls-17" d="M161.19,59.89l.44,1.2c0,.13.1.29.13.41h0c0-.12.08-.28.13-.42l.4-1.19h.39l-.55,1.44a3.07,3.07,0,0,1-.69,1.27,1,1,0,0,1-.45.24l-.09-.31a1,1,0,0,0,.32-.18,1.12,1.12,0,0,0,.31-.41.27.27,0,0,0,0-.09.33.33,0,0,0,0-.1l-.75-1.86Z" transform="translate(-39.87 -11.77)"/><path class="cls-17" d="M163.92,59.14a3.8,3.8,0,0,1,.7-.06,1.15,1.15,0,0,1,.82.23.7.7,0,0,1,.22.54.74.74,0,0,1-.53.72h0a.7.7,0,0,1,.41.57,4.45,4.45,0,0,0,.22.77h-.38a3.54,3.54,0,0,1-.19-.67c-.08-.39-.23-.54-.56-.55h-.34v1.22h-.36Zm.36,1.28h.37c.39,0,.64-.21.64-.54s-.26-.52-.65-.53a1.5,1.5,0,0,0-.36,0Z" transform="translate(-39.87 -11.77)"/><path class="cls-17" d="M167.32,61.92l0-.25h0a.75.75,0,0,1-.62.3.58.58,0,0,1-.62-.58c0-.49.43-.76,1.22-.75v0a.42.42,0,0,0-.46-.47,1,1,0,0,0-.53.15l-.08-.24a1.25,1.25,0,0,1,.66-.18c.62,0,.77.42.77.83v.76a2.92,2.92,0,0,0,0,.48Zm-.05-1c-.4,0-.86.06-.86.46a.33.33,0,0,0,.35.35.5.5,0,0,0,.49-.34.38.38,0,0,0,0-.12Z" transform="translate(-39.87 -11.77)"/><path class="cls-17" d="M168.22,60.44c0-.21,0-.38,0-.55h.33l0,.33h0a.74.74,0,0,1,.67-.38c.28,0,.71.17.71.86v1.21h-.37V60.75c0-.33-.12-.6-.47-.6a.52.52,0,0,0-.49.38.53.53,0,0,0,0,.17v1.22h-.37Z" transform="translate(-39.87 -11.77)"/><path class="cls-17" d="M170.9,60.82h0l.18-.23.59-.7h.44l-.78.83.89,1.19h-.45l-.7-1-.19.21v.76h-.36v-3h.36Z" transform="translate(-39.87 -11.77)"/><path class="cls-17" d="M172.45,61.54a1,1,0,0,0,.49.15c.27,0,.39-.13.39-.3s-.1-.27-.38-.37-.54-.33-.54-.57a.62.62,0,0,1,.7-.59,1,1,0,0,1,.5.13l-.09.27a.79.79,0,0,0-.41-.12c-.22,0-.34.13-.34.28s.12.24.38.34.53.31.53.61-.28.61-.76.61a1.16,1.16,0,0,1-.57-.14Z" transform="translate(-39.87 -11.77)"/><path class="cls-18" d="M76.69,47.53l-.29.89H76l1-2.82h.44l1,2.82H78l-.3-.89Zm.92-.28-.28-.81c-.06-.18-.1-.35-.15-.51h0c0,.17-.09.34-.14.51l-.28.81Z" transform="translate(-39.87 -11.77)"/><path class="cls-18" d="M78.77,45.45h.37v3h-.37Z" transform="translate(-39.87 -11.77)"/><path class="cls-18" d="M79.75,45.45h.37v3h-.37Z" transform="translate(-39.87 -11.77)"/><path class="cls-18" d="M82,45.6v2.82h-.36V45.6Z" transform="translate(-39.87 -11.77)"/><path class="cls-18" d="M82.67,46.94c0-.21,0-.38,0-.55H83l0,.33h0a.74.74,0,0,1,.67-.38c.28,0,.71.17.71.86v1.21H84V47.25c0-.33-.12-.6-.47-.6a.52.52,0,0,0-.49.38.53.53,0,0,0,0,.17v1.22h-.37Z" transform="translate(-39.87 -11.77)"/><path class="cls-18" d="M86.73,45.45V47.9c0,.18,0,.38,0,.52h-.33l0-.35h0a.75.75,0,0,1-.69.4.92.92,0,0,1-.87-1,1,1,0,0,1,.91-1.09.68.68,0,0,1,.61.31h0V45.45Zm-.37,1.77a.64.64,0,0,0,0-.15.54.54,0,0,0-.53-.43c-.38,0-.61.33-.61.78s.2.75.6.75a.55.55,0,0,0,.54-.44.63.63,0,0,0,0-.16Z" transform="translate(-39.87 -11.77)"/><path class="cls-18" d="M87.75,45.83a.23.23,0,0,1-.46,0,.22.22,0,0,1,.23-.23A.22.22,0,0,1,87.75,45.83Zm-.41,2.59v-2h.37v2Z" transform="translate(-39.87 -11.77)"/><path class="cls-18" d="M89.44,48.42l0-.25h0a.75.75,0,0,1-.62.3.58.58,0,0,1-.62-.58c0-.49.43-.76,1.22-.75v0a.42.42,0,0,0-.46-.47,1,1,0,0,0-.53.15l-.08-.24a1.26,1.26,0,0,1,.67-.18c.62,0,.77.42.77.83v.76a2.82,2.82,0,0,0,0,.48Zm-.05-1c-.4,0-.86.06-.86.46a.33.33,0,0,0,.35.35.5.5,0,0,0,.49-.34.4.4,0,0,0,0-.12Z" transform="translate(-39.87 -11.77)"/><path class="cls-18" d="M75,52.42a1.29,1.29,0,0,0,.65.18c.37,0,.59-.2.59-.48s-.15-.41-.53-.56-.74-.4-.74-.8a.81.81,0,0,1,.91-.77,1.28,1.28,0,0,1,.62.14l-.1.3a1.12,1.12,0,0,0-.54-.13c-.38,0-.53.23-.53.42s.17.39.56.54.72.41.72.83-.32.81-1,.81a1.45,1.45,0,0,1-.72-.18Z" transform="translate(-39.87 -11.77)"/><path class="cls-18" d="M77.06,49.9h.37v3h-.37Z" transform="translate(-39.87 -11.77)"/><path class="cls-18" d="M79.16,52.86l0-.25h0a.75.75,0,0,1-.62.3.58.58,0,0,1-.62-.58c0-.49.43-.76,1.22-.75v0a.42.42,0,0,0-.46-.47,1,1,0,0,0-.53.15L78,51a1.26,1.26,0,0,1,.67-.18c.62,0,.77.42.77.83v.76a2.82,2.82,0,0,0,0,.48Zm-.05-1c-.4,0-.86.06-.86.46a.33.33,0,0,0,.35.35.5.5,0,0,0,.49-.34.4.4,0,0,0,0-.12Z" transform="translate(-39.87 -11.77)"/><path class="cls-18" d="M80,52.86c0-.14,0-.34,0-.52V49.9h.36v1.27h0a.75.75,0,0,1,.69-.37.91.91,0,0,1,.85,1,1,1,0,0,1-.91,1.08.72.72,0,0,1-.68-.38h0l0,.33Zm.38-.81a.7.7,0,0,0,0,.13.57.57,0,0,0,.55.43c.38,0,.61-.31.61-.78s-.21-.75-.6-.75a.59.59,0,0,0-.56.45.72.72,0,0,0,0,.15Z" transform="translate(-39.87 -11.77)"/><path class="cls-18" d="M83.35,51.6v.27h-1V51.6Z" transform="translate(-39.87 -11.77)"/><path class="cls-18" d="M83.91,50.84l.27,1c.06.23.11.44.15.64h0c0-.21.11-.42.18-.64l.33-1h.31l.31,1c.08.24.13.46.18.66h0a6,6,0,0,1,.15-.66l.29-1h.36l-.65,2h-.33l-.31-1a6.84,6.84,0,0,1-.18-.66h0a6,6,0,0,1-.18.67l-.33,1h-.33l-.61-2Z" transform="translate(-39.87 -11.77)"/><path class="cls-18" d="M87.24,50.27a.23.23,0,0,1-.46,0A.22.22,0,0,1,87,50,.22.22,0,0,1,87.24,50.27Zm-.41,2.59v-2h.37v2Z" transform="translate(-39.87 -11.77)"/><path class="cls-18" d="M87.76,52.49a1,1,0,0,0,.49.15c.27,0,.39-.13.39-.3s-.1-.27-.38-.37-.54-.33-.54-.57a.62.62,0,0,1,.7-.59,1,1,0,0,1,.5.13l-.09.27a.79.79,0,0,0-.41-.12c-.22,0-.34.13-.34.28s.12.24.38.34.53.31.53.61-.28.61-.76.61a1.16,1.16,0,0,1-.57-.14Z" transform="translate(-39.87 -11.77)"/><path class="cls-18" d="M89.67,51.92a.65.65,0,0,0,.69.7,1.33,1.33,0,0,0,.56-.1l.06.26a1.64,1.64,0,0,1-.67.13.94.94,0,0,1-1-1,1,1,0,0,1,.95-1.09.86.86,0,0,1,.84,1,1.44,1.44,0,0,1,0,.17Zm1.08-.26a.52.52,0,0,0-.51-.6.61.61,0,0,0-.56.6Z" transform="translate(-39.87 -11.77)"/><path class="cls-18" d="M72.58,54.52a4.21,4.21,0,0,1,.7-.05,1.16,1.16,0,0,1,.79.23.76.76,0,0,1,.25.59.83.83,0,0,1-.22.6,1.17,1.17,0,0,1-.86.31,1.24,1.24,0,0,1-.29,0v1.13h-.36Zm.36,1.36a1.21,1.21,0,0,0,.3,0c.44,0,.71-.21.71-.6s-.26-.55-.66-.55a1.53,1.53,0,0,0-.34,0Z" transform="translate(-39.87 -11.77)"/><path class="cls-18" d="M74.89,56.36a.65.65,0,0,0,.69.7,1.33,1.33,0,0,0,.56-.1l.06.26a1.64,1.64,0,0,1-.67.13.94.94,0,0,1-1-1,1,1,0,0,1,.95-1.09.86.86,0,0,1,.84,1,1.44,1.44,0,0,1,0,.17ZM76,56.1a.52.52,0,0,0-.51-.6.61.61,0,0,0-.56.6Z" transform="translate(-39.87 -11.77)"/><path class="cls-18" d="M76.78,55.92c0-.24,0-.44,0-.63h.32v.4h0a.61.61,0,0,1,.56-.44h.1v.35h-.12a.52.52,0,0,0-.49.47,1,1,0,0,0,0,.17v1.08h-.36Z" transform="translate(-39.87 -11.77)"/><path class="cls-18" d="M78.31,57.31V55.56H78v-.28h.28v-.1a1,1,0,0,1,.23-.71.7.7,0,0,1,.49-.19.85.85,0,0,1,.31.06l-.05.28a.54.54,0,0,0-.23,0c-.31,0-.39.28-.39.59v.11h.49v.28h-.49v1.74Z" transform="translate(-39.87 -11.77)"/><path class="cls-18" d="M81.27,56.28a1,1,0,0,1-1,1.07,1,1,0,0,1-1-1,1,1,0,0,1,1-1.07A1,1,0,0,1,81.27,56.28Zm-1.61,0c0,.44.26.78.61.78s.61-.33.61-.79-.17-.78-.61-.78S79.66,55.92,79.66,56.3Z" transform="translate(-39.87 -11.77)"/><path class="cls-18" d="M81.73,55.92c0-.24,0-.44,0-.63H82v.4h0a.61.61,0,0,1,.56-.44h.1v.35h-.12a.52.52,0,0,0-.49.47,1,1,0,0,0,0,.17v1.08h-.36Z" transform="translate(-39.87 -11.77)"/><path class="cls-18" d="M83.12,55.83c0-.21,0-.38,0-.55h.32l0,.33h0a.7.7,0,0,1,.64-.37.6.6,0,0,1,.57.41h0a.83.83,0,0,1,.23-.26.69.69,0,0,1,.45-.14c.27,0,.67.18.67.88v1.19h-.36V56.16c0-.39-.14-.62-.44-.62a.48.48,0,0,0-.43.33.61.61,0,0,0,0,.18v1.25h-.36V56.1c0-.32-.14-.56-.42-.56a.5.5,0,0,0-.46.37.51.51,0,0,0,0,.18v1.22h-.36Z" transform="translate(-39.87 -11.77)"/><path class="cls-18" d="M87.72,57.31l0-.25h0a.75.75,0,0,1-.62.3.58.58,0,0,1-.62-.58c0-.49.43-.76,1.22-.75v0a.42.42,0,0,0-.46-.47,1,1,0,0,0-.53.15l-.08-.24a1.25,1.25,0,0,1,.67-.18c.62,0,.77.42.77.83v.76a2.82,2.82,0,0,0,0,.48Zm-.05-1c-.4,0-.86.06-.86.46a.33.33,0,0,0,.35.35.5.5,0,0,0,.49-.34.39.39,0,0,0,0-.12Z" transform="translate(-39.87 -11.77)"/><path class="cls-18" d="M88.61,55.83c0-.21,0-.38,0-.55h.33l0,.33h0a.74.74,0,0,1,.67-.38c.28,0,.71.17.71.86v1.21H90V56.14c0-.33-.12-.6-.47-.6a.52.52,0,0,0-.49.38.53.53,0,0,0,0,.17v1.22h-.37Z" transform="translate(-39.87 -11.77)"/><path class="cls-18" d="M92.38,57.23a1.35,1.35,0,0,1-.58.12,1,1,0,0,1-1-1,1,1,0,0,1,1.09-1.07,1.23,1.23,0,0,1,.51.1l-.08.28a.86.86,0,0,0-.43-.1.76.76,0,0,0,0,1.52,1,1,0,0,0,.45-.1Z" transform="translate(-39.87 -11.77)"/><path class="cls-18" d="M93,56.36a.65.65,0,0,0,.69.7,1.33,1.33,0,0,0,.56-.1l.06.26a1.64,1.64,0,0,1-.67.13.94.94,0,0,1-1-1,1,1,0,0,1,.95-1.09.86.86,0,0,1,.84,1,1.44,1.44,0,0,1,0,.17Zm1.08-.26a.52.52,0,0,0-.51-.6.61.61,0,0,0-.56.6Z" transform="translate(-39.87 -11.77)"/><path class="cls-17" d="M184.51,49.8A10.17,10.17,0,1,0,194.67,60,10.17,10.17,0,0,0,184.51,49.8Z" transform="translate(-39.87 -11.77)"/><path class="cls-19" d="M187.36,60.09a3.18,3.18,0,0,1-5.7,0h0a2.06,2.06,0,0,0-1.78,1.84v2.64a2,2,0,0,0,1.65,1.59h6a1.82,1.82,0,0,0,1.56-1.69V61.71A2.06,2.06,0,0,0,187.36,60.09Z" transform="translate(-39.87 -11.77)"/><circle class="cls-19" cx="150.49" cy="45.15" r="1.87"/><path class="cls-19" d="M192.17,58.42a1.29,1.29,0,0,1,1.12,1.14v1.64a1.24,1.24,0,0,1-1,1l-2.7,0A2,2,0,0,0,187.74,60a2.39,2.39,0,0,0,.4-1.37c0-.15.3-.13.49-.16A2.17,2.17,0,0,0,192.17,58.42Z" transform="translate(-39.87 -11.77)"/><circle class="cls-19" cx="138.78" cy="45.03" r="1.87"/><path class="cls-19" d="M176.85,58.3a1.29,1.29,0,0,0-1.12,1.14v1.64a1.24,1.24,0,0,0,1,1l2.7,0a2.16,2.16,0,0,1,1.81-2.26,3.88,3.88,0,0,1-.4-1.37.83.83,0,0,0-.49-.16A2.17,2.17,0,0,1,176.85,58.3Z" transform="translate(-39.87 -11.77)"/><circle class="cls-19" cx="144.69" cy="46.51" r="3.1"/><path class="cls-20" d="M166.87,159v.24l-1.18,2.47h-.38l1.18-2.4h-1.33V159Z" transform="translate(-39.87 -11.77)"/><path class="cls-20" d="M169.05,160.3c0,.92-.34,1.43-.94,1.43s-.89-.5-.9-1.4.39-1.41.95-1.41S169.05,159.43,169.05,160.3Zm-1.48,0c0,.71.22,1.11.55,1.11s.56-.44.56-1.13-.17-1.11-.55-1.11S167.58,159.6,167.58,160.34Z" transform="translate(-39.87 -11.77)"/><path class="cls-20" d="M170.62,159.73c0,.57-.3.86-.65.86s-.63-.27-.64-.82.3-.85.66-.85S170.62,159.21,170.62,159.73Zm-1,0c0,.35.12.61.35.61s.35-.26.35-.62-.1-.61-.35-.61S169.62,159.41,169.62,159.76Zm.32,2,1.6-2.81h.23l-1.6,2.81Zm2.45-.87c0,.57-.3.86-.65.86s-.63-.27-.63-.82.3-.85.66-.85S172.38,160.34,172.38,160.86Zm-1,0c0,.35.13.61.36.61s.35-.26.35-.62-.1-.61-.35-.61S171.39,160.54,171.39,160.88Z" transform="translate(-39.87 -11.77)"/><path class="cls-20" d="M163.31,167.61a1.81,1.81,0,0,1-.74.13,1.32,1.32,0,0,1-1.39-1.43,1.4,1.4,0,0,1,1.47-1.48,1.5,1.5,0,0,1,.67.13l-.09.3a1.31,1.31,0,0,0-.57-.12,1,1,0,0,0-1.1,1.16,1,1,0,0,0,1.08,1.13,1.45,1.45,0,0,0,.59-.12Z" transform="translate(-39.87 -11.77)"/><path class="cls-20" d="M165.54,166.67a1,1,0,0,1-1,1.07,1,1,0,0,1-1-1,1,1,0,0,1,1-1.07A1,1,0,0,1,165.54,166.67Zm-1.61,0c0,.44.25.78.61.78s.61-.33.61-.79-.17-.78-.61-.78S163.93,166.31,163.93,166.69Z" transform="translate(-39.87 -11.77)"/><path class="cls-20" d="M166,166.31c0-.24,0-.44,0-.63h.32v.4h0a.61.61,0,0,1,.56-.44h.1V166h-.13a.52.52,0,0,0-.49.47,1.09,1.09,0,0,0,0,.17v1.08H166Z" transform="translate(-39.87 -11.77)"/><path class="cls-20" d="M167.39,166.22c0-.21,0-.38,0-.55h.33l0,.33h0a.74.74,0,0,1,.67-.38c.28,0,.71.17.71.86v1.21h-.37v-1.17c0-.33-.12-.6-.47-.6a.52.52,0,0,0-.49.38.53.53,0,0,0,0,.17v1.22h-.37Z" transform="translate(-39.87 -11.77)"/><path class="cls-20" d="M169.91,166.75a.65.65,0,0,0,.69.7,1.33,1.33,0,0,0,.56-.1l.06.26a1.64,1.64,0,0,1-.67.13.94.94,0,0,1-1-1,1,1,0,0,1,.95-1.09.86.86,0,0,1,.84,1,1.42,1.42,0,0,1,0,.17Zm1.08-.26a.52.52,0,0,0-.51-.6.61.61,0,0,0-.56.6Z" transform="translate(-39.87 -11.77)"/><path class="cls-20" d="M171.8,166.31c0-.24,0-.44,0-.63h.32v.4h0a.61.61,0,0,1,.56-.44h.1V166h-.13a.52.52,0,0,0-.49.47,1.09,1.09,0,0,0,0,.17v1.08h-.36Z" transform="translate(-39.87 -11.77)"/><path class="cls-20" d="M184.28,147.16a10.17,10.17,0,1,0,10.17,10.17A10.17,10.17,0,0,0,184.28,147.16Z" transform="translate(-39.87 -11.77)"/><path class="cls-21" d="M201,107.07a1.66,1.66,0,1,0,1.66,1.66A1.66,1.66,0,0,0,201,107.07Z" transform="translate(-39.87 -11.77)"/><path class="cls-21" d="M41.53,107.07a1.66,1.66,0,1,0,1.66,1.66A1.66,1.66,0,0,0,41.53,107.07Z" transform="translate(-39.87 -11.77)"/><path class="cls-21" d="M122.92,188.46a1.66,1.66,0,1,0-1.66,1.66A1.66,1.66,0,0,0,122.92,188.46Z" transform="translate(-39.87 -11.77)"/><path class="cls-21" d="M122.92,29.6a1.66,1.66,0,1,0-1.66,1.66A1.66,1.66,0,0,0,122.92,29.6Z" transform="translate(-39.87 -11.77)"/><path class="cls-19" d="M180.79,154.92l-1.67,0a.89.89,0,0,0-.66.18,1.86,1.86,0,0,0-.32.85h-.34l.23-2.27,3.63.08v.47a6.15,6.15,0,0,0-1,1.78,6.86,6.86,0,0,0-.35,2.07c0,.19,0,.43,0,.71s0,.48,0,.58a1.34,1.34,0,0,1-.23.82.84.84,0,0,1-1.21,0,1,1,0,0,1-.19-.68,4.9,4.9,0,0,1,.51-1.76A26,26,0,0,1,180.79,154.92Z" transform="translate(-39.87 -11.77)"/><path class="cls-19" d="M184.22,160.5a1.49,1.49,0,0,1-.76-.23,1.87,1.87,0,0,1-.6-.61,3.82,3.82,0,0,1-.49-1.18,6.09,6.09,0,0,1,.06-2.91,3.93,3.93,0,0,1,.55-1.18,1.93,1.93,0,0,1,.63-.58,1.47,1.47,0,0,1,.76-.2,1.56,1.56,0,0,1,.77.22,1.73,1.73,0,0,1,.59.6,4,4,0,0,1,.49,1.2,5.77,5.77,0,0,1,.14,1.46,4.76,4.76,0,0,1-.64,2.48A1.71,1.71,0,0,1,184.22,160.5Zm.69-3.43v-.46a9.77,9.77,0,0,0-.09-2.12c-.08-.29-.24-.43-.48-.44s-.41.13-.5.42a9.81,9.81,0,0,0-.18,2.11v.91a9.8,9.8,0,0,0,.09,2.11q.12.43.48.44t.5-.42a9.78,9.78,0,0,0,.18-2.11Z" transform="translate(-39.87 -11.77)"/><path class="cls-19" d="M187.18,157.32a1,1,0,0,1,.31-.72,1,1,0,0,1,.76-.29,1.09,1.09,0,0,1,.51.13.8.8,0,0,1,.34.37,1.1,1.1,0,0,1,.11.52,1.19,1.19,0,0,1-.14.52,1,1,0,0,1-.39.4,1.06,1.06,0,0,1-.54.13,1,1,0,0,1-.7-.31A1,1,0,0,1,187.18,157.32Zm.48,0a1.11,1.11,0,0,0,.13.65.47.47,0,0,0,.8,0,1.35,1.35,0,0,0,.16-.67,1.24,1.24,0,0,0-.11-.61.42.42,0,0,0-.39-.23.47.47,0,0,0-.42.23A1.3,1.3,0,0,0,187.66,157.36Zm3.21-1.1-2.48,4.63,0,0h-.22l0,0,2.48-4.63,0,0h.22Zm-1.13,3.52a1,1,0,0,1,.31-.72,1,1,0,0,1,.76-.29,1.09,1.09,0,0,1,.51.13.8.8,0,0,1,.34.37,1.14,1.14,0,0,1,.11.51,1.17,1.17,0,0,1-.14.51,1,1,0,0,1-.38.4,1,1,0,0,1-.55.14.94.94,0,0,1-.7-.31A1,1,0,0,1,189.74,159.78Zm.48,0a1.57,1.57,0,0,0,0,.45.58.58,0,0,0,.17.3.44.44,0,0,0,.29.11.46.46,0,0,0,.42-.24,1.35,1.35,0,0,0,.16-.68,1.28,1.28,0,0,0-.11-.61.42.42,0,0,0-.39-.24.48.48,0,0,0-.42.22A1.21,1.21,0,0,0,190.22,159.81Z" transform="translate(-39.87 -11.77)"/><path class="cls-3" d="M65.3,54.43l3-.76A7.74,7.74,0,0,0,64,49.14l-1.56,2.7A4.64,4.64,0,0,1,65.3,54.43Z" transform="translate(-39.87 -11.77)"/><path class="cls-4" d="M56.39,56.25A4.61,4.61,0,0,1,57,54l-2.64-1.53A7.66,7.66,0,0,0,60.56,64V60.86A4.63,4.63,0,0,1,56.39,56.25Z" transform="translate(-39.87 -11.77)"/><path class="cls-5" d="M61,51.6a4.55,4.55,0,0,1,.49.05l1.6-2.78a7.48,7.48,0,0,0-8.31,2.86l2.67,1.55A4.6,4.6,0,0,1,61,51.6Z" transform="translate(-39.87 -11.77)"/><path class="cls-6" d="M68.53,54.57l-3,.75a4.69,4.69,0,0,1,.09.93,4.63,4.63,0,0,1-4.18,4.61V64a7.63,7.63,0,0,0,7-9.39Z" transform="translate(-39.87 -11.77)"/><path class="cls-4" d="M57.55,60.9" transform="translate(-39.87 -11.77)"/><path class="cls-3" d="M65.3,54.43l3-.76A7.74,7.74,0,0,0,64,49.14l-1.56,2.7A4.64,4.64,0,0,1,65.3,54.43Z" transform="translate(-39.87 -11.77)"/><path class="cls-22" d="M56.39,56.25A4.61,4.61,0,0,1,57,54l-2.64-1.53A7.66,7.66,0,0,0,60.56,64V60.86A4.63,4.63,0,0,1,56.39,56.25Z" transform="translate(-39.87 -11.77)"/><path class="cls-5" d="M61,51.6a4.55,4.55,0,0,1,.49.05l1.6-2.78a7.48,7.48,0,0,0-8.31,2.86l2.67,1.55A4.6,4.6,0,0,1,61,51.6Z" transform="translate(-39.87 -11.77)"/><path class="cls-6" d="M68.53,54.57l-3,.75a4.69,4.69,0,0,1,.09.93,4.63,4.63,0,0,1-4.18,4.61V64a7.63,7.63,0,0,0,7-9.39Z" transform="translate(-39.87 -11.77)"/><path class="cls-23" d="M90.07,18a3.89,3.89,0,0,1-1.6.29,2.84,2.84,0,0,1-3-3.07A3,3,0,0,1,88.64,12a3.26,3.26,0,0,1,1.44.27l-.19.64a2.86,2.86,0,0,0-1.22-.25,2.26,2.26,0,0,0-2.37,2.5,2.21,2.21,0,0,0,2.33,2.44,3.13,3.13,0,0,0,1.28-.25Z" transform="translate(-39.87 -11.77)"/><path class="cls-23" d="M94.87,16a2.13,2.13,0,0,1-2.17,2.31A2.07,2.07,0,0,1,90.61,16a2.13,2.13,0,0,1,2.16-2.31A2.06,2.06,0,0,1,94.87,16Zm-3.46,0c0,1,.55,1.67,1.32,1.67S94.06,17,94.06,16c0-.74-.37-1.67-1.31-1.67S91.41,15.17,91.41,16Z" transform="translate(-39.87 -11.77)"/><path class="cls-23" d="M95.87,15c0-.45,0-.82,0-1.18h.69l0,.7h0a1.5,1.5,0,0,1,1.37-.8,1.29,1.29,0,0,1,1.23.87h0a1.8,1.8,0,0,1,.49-.57,1.49,1.49,0,0,1,1-.31c.58,0,1.43.38,1.43,1.89v2.57h-.77V15.7c0-.84-.31-1.34-.95-1.34a1,1,0,0,0-.94.72,1.3,1.3,0,0,0-.06.4v2.69h-.77V15.56c0-.69-.31-1.2-.91-1.2a1.18,1.18,0,0,0-1,1.18v2.63h-.77Z" transform="translate(-39.87 -11.77)"/><path class="cls-23" d="M103.37,15.23c0-.56,0-1,0-1.42H104l0,.75h0a1.71,1.71,0,0,1,1.55-.85,2,2,0,0,1,1.85,2.21,2.06,2.06,0,0,1-2,2.34,1.53,1.53,0,0,1-1.34-.68h0v2.37h-.78Zm.78,1.16a1.78,1.78,0,0,0,0,.32,1.22,1.22,0,0,0,1.19.93c.84,0,1.32-.68,1.32-1.68s-.46-1.62-1.3-1.62a1.37,1.37,0,0,0-1.25,1.31Z" transform="translate(-39.87 -11.77)"/><path class="cls-23" d="M110.91,18.17l-.06-.55h0a1.62,1.62,0,0,1-1.33.65A1.24,1.24,0,0,1,108.15,17c0-1.05.94-1.63,2.62-1.62V15.3a.9.9,0,0,0-1-1,2.17,2.17,0,0,0-1.13.32l-.18-.52a2.7,2.7,0,0,1,1.43-.39c1.33,0,1.66.91,1.66,1.78v1.63a6.17,6.17,0,0,0,.07,1Zm-.12-2.22c-.86,0-1.85.13-1.85,1a.7.7,0,0,0,.75.76,1.08,1.08,0,0,0,1.05-.73.82.82,0,0,0,0-.25Z" transform="translate(-39.87 -11.77)"/><path class="cls-23" d="M112.83,15.17c0-.51,0-1,0-1.36h.69l0,.86h0a1.31,1.31,0,0,1,1.21-1,.86.86,0,0,1,.23,0v.75a1.19,1.19,0,0,0-.27,0,1.11,1.11,0,0,0-1.06,1,2.22,2.22,0,0,0,0,.37v2.32h-.78Z" transform="translate(-39.87 -11.77)"/><path class="cls-23" d="M118.14,18.17l-.06-.55h0a1.62,1.62,0,0,1-1.33.65A1.24,1.24,0,0,1,115.39,17c0-1.05.94-1.63,2.62-1.62V15.3a.9.9,0,0,0-1-1,2.17,2.17,0,0,0-1.13.32l-.18-.52a2.71,2.71,0,0,1,1.43-.39c1.33,0,1.66.91,1.66,1.78v1.63a6.17,6.17,0,0,0,.07,1ZM118,15.94c-.86,0-1.85.13-1.85,1a.7.7,0,0,0,.75.76A1.08,1.08,0,0,0,118,17a.82.82,0,0,0,0-.25Z" transform="translate(-39.87 -11.77)"/><path class="cls-23" d="M121,12.56v1.25h1.13v.6H121v2.35c0,.54.15.85.59.85a1.75,1.75,0,0,0,.46-.05l0,.59a1.94,1.94,0,0,1-.7.11,1.1,1.1,0,0,1-.85-.33,1.61,1.61,0,0,1-.31-1.13V14.41h-.68v-.6h.68v-1Z" transform="translate(-39.87 -11.77)"/><path class="cls-23" d="M123.89,12.58a.49.49,0,0,1-1,0,.48.48,0,0,1,.5-.5A.47.47,0,0,1,123.89,12.58ZM123,18.17V13.81h.79v4.36Z" transform="translate(-39.87 -11.77)"/><path class="cls-23" d="M125.42,13.81l.85,2.45a11,11,0,0,1,.35,1.12h0c.1-.36.22-.72.37-1.12l.85-2.45h.83L127,18.17h-.76l-1.66-4.36Z" transform="translate(-39.87 -11.77)"/><path class="cls-23" d="M129.8,16.13a1.4,1.4,0,0,0,1.49,1.51,2.86,2.86,0,0,0,1.21-.23l.14.57a3.54,3.54,0,0,1-1.45.27,2,2,0,0,1-2.14-2.2,2.12,2.12,0,0,1,2-2.35,1.85,1.85,0,0,1,1.8,2.05,3,3,0,0,1,0,.37Zm2.32-.57a1.13,1.13,0,0,0-1.1-1.29,1.31,1.31,0,0,0-1.21,1.29Z" transform="translate(-39.87 -11.77)"/><path class="cls-23" d="M136.78,16.26l-.63,1.91h-.81l2.06-6.07h.95l2.07,6.07h-.84l-.65-1.91Zm2-.61-.59-1.75c-.13-.4-.22-.76-.31-1.11h0c-.09.36-.19.73-.31,1.1l-.59,1.76Z" transform="translate(-39.87 -11.77)"/><path class="cls-23" d="M141.25,15c0-.45,0-.82,0-1.18h.7l0,.72h0a1.6,1.6,0,0,1,1.44-.82c.6,0,1.54.36,1.54,1.85v2.6h-.79V15.65c0-.7-.26-1.29-1-1.29A1.16,1.16,0,0,0,142,15.55v2.62h-.79Z" transform="translate(-39.87 -11.77)"/><path class="cls-23" d="M148.66,18.17l-.06-.55h0a1.62,1.62,0,0,1-1.33.65A1.24,1.24,0,0,1,145.91,17c0-1.05.94-1.63,2.62-1.62V15.3a.9.9,0,0,0-1-1,2.17,2.17,0,0,0-1.13.32l-.18-.52a2.71,2.71,0,0,1,1.43-.39c1.33,0,1.66.91,1.66,1.78v1.63a6.16,6.16,0,0,0,.07,1Zm-.12-2.22c-.86,0-1.85.13-1.85,1a.7.7,0,0,0,.75.76A1.08,1.08,0,0,0,148.5,17a.85.85,0,0,0,0-.25Z" transform="translate(-39.87 -11.77)"/><path class="cls-23" d="M150.58,11.77h.79v6.39h-.79Z" transform="translate(-39.87 -11.77)"/><path class="cls-23" d="M153,13.81l1,2.57c.1.29.21.63.28.89h0c.08-.26.17-.59.28-.91l.86-2.56h.84L155,16.91a6.64,6.64,0,0,1-1.5,2.73,2.15,2.15,0,0,1-1,.51l-.2-.67a2.1,2.1,0,0,0,.69-.39,2.41,2.41,0,0,0,.67-.88.56.56,0,0,0,.06-.19.68.68,0,0,0-.05-.21l-1.61-4Z" transform="translate(-39.87 -11.77)"/><path class="cls-23" d="M157.9,12.56v1.25H159v.6H157.9v2.35c0,.54.15.85.59.85a1.75,1.75,0,0,0,.46-.05l0,.59a1.94,1.94,0,0,1-.7.11,1.1,1.1,0,0,1-.86-.33,1.61,1.61,0,0,1-.31-1.13V14.41h-.67v-.6h.67v-1Z" transform="translate(-39.87 -11.77)"/><path class="cls-23" d="M160.81,12.58a.49.49,0,0,1-1,0,.48.48,0,0,1,.5-.5A.47.47,0,0,1,160.81,12.58Zm-.88,5.58V13.81h.79v4.36Z" transform="translate(-39.87 -11.77)"/><path class="cls-23" d="M165.14,18a2.92,2.92,0,0,1-1.25.25A2.07,2.07,0,0,1,161.72,16a2.21,2.21,0,0,1,2.34-2.31,2.65,2.65,0,0,1,1.1.23l-.18.61a1.83,1.83,0,0,0-.92-.21A1.51,1.51,0,0,0,162.52,16,1.49,1.49,0,0,0,164,17.63a2.25,2.25,0,0,0,1-.22Z" transform="translate(-39.87 -11.77)"/><path class="cls-23" d="M166,17.36a2.08,2.08,0,0,0,1,.31c.58,0,.85-.29.85-.65s-.22-.58-.81-.8c-.78-.28-1.15-.71-1.15-1.23a1.34,1.34,0,0,1,1.5-1.28,2.17,2.17,0,0,1,1.07.27l-.2.58a1.69,1.69,0,0,0-.89-.25c-.47,0-.73.27-.73.59s.26.52.83.74c.76.29,1.14.67,1.14,1.31S168,18.26,167,18.26a2.48,2.48,0,0,1-1.22-.3Z" transform="translate(-39.87 -11.77)"/><path class="cls-24" d="M65,160.33l-.29.89h-.38l1-2.82h.44l1,2.82h-.39l-.3-.89ZM66,160l-.28-.81c-.06-.18-.1-.35-.15-.51h0c0,.17-.09.34-.14.51l-.28.82Z" transform="translate(-39.87 -11.77)"/><path class="cls-24" d="M67.19,159.19l.4,1.14a5.33,5.33,0,0,1,.16.52h0c0-.17.1-.33.17-.52l.39-1.14h.38l-.79,2h-.35l-.77-2Z" transform="translate(-39.87 -11.77)"/><path class="cls-24" d="M69.22,160.27a.65.65,0,0,0,.69.7,1.33,1.33,0,0,0,.56-.1l.06.26a1.64,1.64,0,0,1-.67.13.94.94,0,0,1-1-1,1,1,0,0,1,.95-1.09.86.86,0,0,1,.84,1,1.42,1.42,0,0,1,0,.17Zm1.08-.26a.52.52,0,0,0-.51-.6.61.61,0,0,0-.56.6Z" transform="translate(-39.87 -11.77)"/><path class="cls-24" d="M71.1,159.82c0-.24,0-.44,0-.63h.32v.4h0a.61.61,0,0,1,.56-.44h.1v.35H72a.52.52,0,0,0-.49.47,1,1,0,0,0,0,.17v1.08H71.1Z" transform="translate(-39.87 -11.77)"/><path class="cls-24" d="M73.57,161.21l0-.25h0a.75.75,0,0,1-.62.3.58.58,0,0,1-.62-.58c0-.49.43-.76,1.22-.75v0a.42.42,0,0,0-.46-.47,1,1,0,0,0-.53.15l-.08-.24a1.26,1.26,0,0,1,.67-.18c.62,0,.77.42.77.83v.76a2.82,2.82,0,0,0,0,.49Zm-.05-1c-.4,0-.86.06-.86.46A.33.33,0,0,0,73,161a.5.5,0,0,0,.49-.34.39.39,0,0,0,0-.12Z" transform="translate(-39.87 -11.77)"/><path class="cls-24" d="M76.21,159.19c0,.15,0,.31,0,.56v1.17a1.16,1.16,0,0,1-.29.92,1.07,1.07,0,0,1-.74.24,1.31,1.31,0,0,1-.67-.17l.09-.28a1.15,1.15,0,0,0,.59.16c.38,0,.65-.2.65-.71v-.23h0a.72.72,0,0,1-.64.34.9.9,0,0,1-.86-1,1,1,0,0,1,.91-1.07.67.67,0,0,1,.63.35h0l0-.3Zm-.38.8a.54.54,0,0,0-.54-.56c-.35,0-.6.3-.6.77s.2.73.6.73a.54.54,0,0,0,.51-.38.65.65,0,0,0,0-.2Z" transform="translate(-39.87 -11.77)"/><path class="cls-24" d="M77,160.27a.65.65,0,0,0,.69.7,1.33,1.33,0,0,0,.56-.1l.06.26a1.64,1.64,0,0,1-.67.13.94.94,0,0,1-1-1,1,1,0,0,1,.95-1.09.86.86,0,0,1,.84,1,1.42,1.42,0,0,1,0,.17Zm1.08-.26a.52.52,0,0,0-.51-.6.61.61,0,0,0-.56.6Z" transform="translate(-39.87 -11.77)"/><path class="cls-24" d="M81.61,160.18a1,1,0,0,1-1,1.07,1,1,0,0,1-1-1,1,1,0,0,1,1-1.07A1,1,0,0,1,81.61,160.18Zm-1.61,0c0,.44.26.78.61.78s.61-.33.61-.79-.17-.78-.61-.78S80,159.82,80,160.2Z" transform="translate(-39.87 -11.77)"/><path class="cls-24" d="M82.11,161.21v-1.74h-.28v-.28h.28v-.1a1,1,0,0,1,.23-.71.7.7,0,0,1,.49-.19.85.85,0,0,1,.31.06l-.05.28a.56.56,0,0,0-.23,0c-.31,0-.39.28-.39.59v.11H83v.28h-.49v1.74Z" transform="translate(-39.87 -11.77)"/><path class="cls-24" d="M69.7,166.34l-.29.89H69l1-2.82h.44l1,2.82H71l-.3-.89Zm.92-.28-.28-.81c-.06-.18-.1-.35-.15-.51h0c0,.17-.09.34-.14.51l-.28.82Z" transform="translate(-39.87 -11.77)"/><path class="cls-24" d="M71.77,164.26h.37v3h-.37Z" transform="translate(-39.87 -11.77)"/><path class="cls-24" d="M72.76,164.26h.37v3h-.37Z" transform="translate(-39.87 -11.77)"/><path class="cls-24" d="M74.59,166.79a1.29,1.29,0,0,0,.65.18c.37,0,.59-.2.59-.48s-.15-.41-.53-.56-.74-.4-.74-.8a.81.81,0,0,1,.91-.77,1.28,1.28,0,0,1,.62.14l-.1.3a1.11,1.11,0,0,0-.54-.13c-.38,0-.53.23-.53.42s.17.39.56.54.72.41.72.83-.32.81-1,.81a1.46,1.46,0,0,1-.72-.18Z" transform="translate(-39.87 -11.77)"/><path class="cls-24" d="M77.12,164.62v.58h.53v.28h-.53v1.09c0,.25.07.39.28.39a.81.81,0,0,0,.21,0l0,.28a.9.9,0,0,1-.33.05.51.51,0,0,1-.4-.16.75.75,0,0,1-.14-.53v-1.1h-.31v-.28h.31v-.49Z" transform="translate(-39.87 -11.77)"/><path class="cls-24" d="M79.75,166.68c0,.21,0,.39,0,.55h-.33l0-.33h0a.76.76,0,0,1-.67.38c-.32,0-.7-.18-.7-.89v-1.18h.37v1.12c0,.38.12.64.45.64a.52.52,0,0,0,.52-.52v-1.24h.37Z" transform="translate(-39.87 -11.77)"/><path class="cls-24" d="M82.11,164.26v2.45c0,.18,0,.38,0,.52H81.8l0-.35h0a.75.75,0,0,1-.69.4.92.92,0,0,1-.87-1,1,1,0,0,1,.91-1.09.68.68,0,0,1,.61.31h0v-1.21ZM81.74,166a.64.64,0,0,0,0-.15.54.54,0,0,0-.53-.43c-.38,0-.61.33-.61.78s.2.75.6.75a.55.55,0,0,0,.54-.44.64.64,0,0,0,0-.16Z" transform="translate(-39.87 -11.77)"/><path class="cls-24" d="M82.92,166.28a.65.65,0,0,0,.69.7,1.33,1.33,0,0,0,.56-.1l.06.26a1.64,1.64,0,0,1-.67.13.94.94,0,0,1-1-1,1,1,0,0,1,.95-1.09.86.86,0,0,1,.84,1,1.42,1.42,0,0,1,0,.17ZM84,166a.52.52,0,0,0-.51-.6.61.61,0,0,0-.56.6Z" transform="translate(-39.87 -11.77)"/><path class="cls-24" d="M84.81,165.75c0-.21,0-.38,0-.55h.33l0,.33h0a.74.74,0,0,1,.67-.38c.28,0,.71.17.71.86v1.21h-.37v-1.17c0-.33-.12-.6-.47-.6a.52.52,0,0,0-.49.38.53.53,0,0,0,0,.17v1.22h-.37Z" transform="translate(-39.87 -11.77)"/><path class="cls-24" d="M87.56,164.62v.58h.53v.28h-.53v1.09c0,.25.07.39.28.39a.81.81,0,0,0,.21,0l0,.28a.9.9,0,0,1-.33.05.51.51,0,0,1-.4-.16.75.75,0,0,1-.14-.53v-1.1h-.31v-.28h.31v-.49Z" transform="translate(-39.87 -11.77)"/><path class="cls-24" d="M88.45,166.85a1,1,0,0,0,.49.15c.27,0,.39-.13.39-.3s-.1-.27-.38-.37-.54-.33-.54-.57a.62.62,0,0,1,.7-.59,1,1,0,0,1,.5.13l-.09.27a.79.79,0,0,0-.41-.12c-.22,0-.34.13-.34.28s.12.24.38.34.53.31.53.61-.28.61-.76.61a1.16,1.16,0,0,1-.57-.14Z" transform="translate(-39.87 -11.77)"/><path class="cls-25" d="M54.26,144.67a10.17,10.17,0,1,0,10.17,10.17A10.17,10.17,0,0,0,54.26,144.67Z" transform="translate(-39.87 -11.77)"/><path class="cls-26" d="M50.11,161.38s4.73-28.43,9.89,0" transform="translate(-39.87 -11.77)"/><line class="cls-26" x1="8.31" y1="136.5" x2="8.31" y2="149.83"/><line class="cls-26" x1="8.31" y1="149.83" x2="21.21" y2="149.83"/><line class="cls-27" x1="9.6" y1="143.2" x2="24.42" y2="143.2"/><ellipse class="cls-24" cx="49.4" cy="154.93" rx="0.38" ry="0.4" transform="matrix(0, -1, 1, 0, -145.62, 191.85)"/><ellipse class="cls-24" cx="51.01" cy="154.94" rx="0.38" ry="0.4" transform="matrix(0, -1, 1, 0, -144.03, 193.46)"/><ellipse class="cls-24" cx="52.61" cy="154.95" rx="0.38" ry="0.4" transform="matrix(0, -1, 1, 0, -142.45, 195.07)"/><ellipse class="cls-24" cx="54.21" cy="154.95" rx="0.38" ry="0.4" transform="translate(-140.86 196.68) rotate(-89.74)"/><ellipse class="cls-24" cx="55.82" cy="154.96" rx="0.38" ry="0.4" transform="translate(-139.27 198.29) rotate(-89.74)"/><ellipse class="cls-24" cx="57.42" cy="154.97" rx="0.38" ry="0.4" transform="translate(-137.68 199.9) rotate(-89.74)"/><ellipse class="cls-24" cx="59.02" cy="154.98" rx="0.38" ry="0.4" transform="translate(-136.09 201.51) rotate(-89.74)"/><ellipse class="cls-24" cx="60.63" cy="154.98" rx="0.38" ry="0.4" transform="translate(-134.5 203.12) rotate(-89.74)"/><ellipse class="cls-24" cx="62.23" cy="154.99" rx="0.38" ry="0.4" transform="translate(-132.91 204.73) rotate(-89.74)"/><ellipse class="cls-24" cx="63.83" cy="155" rx="0.38" ry="0.4" transform="translate(-131.32 206.35) rotate(-89.74)"/><ellipse class="cls-2" cx="21.16" cy="44.48" rx="5.79" ry="5.8"/></g></g></svg>