<svg id="Layer_1" data-name="Layer 1" xmlns="http://www.w3.org/2000/svg" xmlns:xlink="http://www.w3.org/1999/xlink" viewBox="0 0 92.5 39.67"><defs><style>.cls-1{fill:#fff;}.cls-2{fill:#a3a3a3;}.cls-3{fill:url(#radial-gradient);}.cls-4{fill:#5e57ea;}.cls-5{fill:none;stroke:#5e57ea;}.cls-5,.cls-7{stroke-miterlimit:10;}.cls-6{fill:#666;}.cls-7{fill:gray;stroke:gray;}</style><radialGradient id="radial-gradient" cx="20.19" cy="17.99" fx="28.28373702745327" r="8.35" gradientTransform="translate(-3.03 12.77) rotate(-19.28) scale(1 0.7)" gradientUnits="userSpaceOnUse"><stop offset="0.29" stop-color="#f4f4f4"/><stop offset="0.29" stop-color="#f1f1f4"/><stop offset="0.31" stop-color="#cfcdf2"/><stop offset="0.33" stop-color="#b1aef0"/><stop offset="0.35" stop-color="#9792ee"/><stop offset="0.37" stop-color="#827cec"/><stop offset="0.39" stop-color="#726beb"/><stop offset="0.43" stop-color="#6660eb"/><stop offset="0.47" stop-color="#6059ea"/><stop offset="0.59" stop-color="#5e57ea"/><stop offset="0.65" stop-color="#6d66ea"/><stop offset="0.76" stop-color="#938fe8"/><stop offset="0.91" stop-color="#d1d0e7"/><stop offset="0.96" stop-color="#e6e6e6"/></radialGradient></defs><title>Skyget logo_(with slogan)_WITHOUT dropshadow_svg</title><rect class="cls-1" width="92.5" height="39.67" rx="19.83" ry="19.83"/><path class="cls-2" d="M14.71,19s-1.49,2-1.14,3.41c0,0,.47,1.29,2.39,1A7.16,7.16,0,0,0,19,22.12a23.42,23.42,0,0,1,4.17-2.44.64.64,0,0,0,.38-.33c.35-.71,1.11-2.61-.69-2.92a.53.53,0,0,0-.2,0,8.4,8.4,0,0,0-3.58,2.06,12.62,12.62,0,0,1-3.53,1.93S14.3,20.86,14.71,19Z" transform="translate(-0.89 -1.18)"/><path class="cls-2" d="M24.73,17a2,2,0,0,0-1.94-.53s.8,0,.93,1a5.36,5.36,0,0,1-.3,1.78,13.89,13.89,0,0,1-1,2.22s-2.83,3.73-3.77,4.19l-2.6,2s-.52.91.52.73c0,0,2.71-2,3.47-2.69,0,0,.84-.29.52.37L19.34,27.5s-.16.8.59.46l1.64-1.62s.59-.46.34.25-.3,1.28.55.87c0,0,2.07-2.07,2.41-3.35,0,0,2-4.39-.14-7.15" transform="translate(-0.89 -1.18)"/><rect class="cls-2" x="13.72" y="28.89" width="1.95" height="0.75" rx="0.38" ry="0.38" transform="translate(-16.43 15.5) rotate(-40.74)"/><rect class="cls-2" x="17.38" y="28.54" width="1.95" height="0.75" rx="0.38" ry="0.38" transform="translate(-15.32 17.8) rotate(-40.74)"/><rect class="cls-2" x="15.15" y="29.89" width="1.95" height="0.75" rx="0.38" ry="0.38" transform="translate(-16.74 16.67) rotate(-40.74)"/><rect class="cls-2" x="15.44" y="29" width="1.49" height="0.36" rx="0.18" ry="0.18" transform="translate(-16.02 16.46) rotate(-40.74)"/><rect class="cls-2" x="17.42" y="27.7" width="1.49" height="0.36" rx="0.18" ry="0.18" transform="translate(-14.69 17.43) rotate(-40.74)"/><rect class="cls-2" x="16.4" y="30.28" width="1.49" height="0.36" rx="0.18" ry="0.18" transform="translate(-16.62 17.39) rotate(-40.74)"/><rect class="cls-2" x="18.93" y="28.61" width="1.49" height="0.36" rx="0.18" ry="0.18" transform="translate(-14.91 18.64) rotate(-40.74)"/><rect class="cls-2" x="20.35" y="27.18" width="1.49" height="0.36" rx="0.18" ry="0.18" transform="translate(-14.24 23.39) rotate(-47.73)"/><rect class="cls-2" x="18.87" y="26.36" width="1.49" height="0.36" rx="0.18" ry="0.18" transform="matrix(0.76, -0.65, 0.65, 0.76, -13.46, 18.05)"/><rect class="cls-2" x="20" y="28.37" width="1.95" height="0.75" rx="0.38" ry="0.38" transform="translate(-14.75 20.29) rotate(-42.08)"/><rect class="cls-2" x="17.5" y="30.13" width="1.95" height="0.75" rx="0.38" ry="0.38" transform="translate(-16.58 19.07) rotate(-42.08)"/><path class="cls-2" d="M12.56,18.79s-.11,3.34,1.34,4.07c0,0-.61-3.35,3-6.42l4.3-3.9.56,2.51,3.72-8.18L16,9.11l2.54.74s-2.44,2.29-2.61,2.5a11.36,11.36,0,0,0-1.25,1.4s-.72,1.06-1.06,1.71a11.2,11.2,0,0,0-.87,2.24,7.49,7.49,0,0,0-.16,1.1" transform="translate(-0.89 -1.18)"/><rect class="cls-2" x="21.12" y="23.43" width="1.95" height="0.75" rx="0.38" ry="0.38" transform="translate(-11.23 24.29) rotate(-50.07)"/><rect class="cls-2" x="22.67" y="20.68" width="1.95" height="0.75" rx="0.38" ry="0.38" transform="translate(-4.87 35.35) rotate(-70.95)"/><path class="cls-2" d="M13.29,19.06c.22-2.38,3.71-8.26,8.19-9.68.45.23,1.56,1.2.93,1.37C18.17,11.93,13,18.28,13.29,19.06Z" transform="translate(-0.89 -1.18)"/><polyline class="cls-2" points="21.25 9.65 21.46 11.02 23.24 6.78 18.12 8.07 19.84 8.46"/><rect class="cls-2" x="22.3" y="24.64" width="1.95" height="0.75" rx="0.38" ry="0.38" transform="translate(-11.5 28.29) rotate(-54.55)"/><rect class="cls-2" x="23.49" y="18.05" width="1.95" height="0.7" rx="0.35" ry="0.35" transform="translate(8.17 43.67) rotate(-96.74)"/><rect class="cls-2" x="23.67" y="21.83" width="1.95" height="0.75" rx="0.38" ry="0.38" transform="translate(-5.28 37.08) rotate(-70.95)"/><path class="cls-3" d="M14.62,18.4s-1.49,2-1.14,3.41c0,0,.47,1.29,2.39,1a7.16,7.16,0,0,0,3.08-1.27,23.42,23.42,0,0,1,4.17-2.44.64.64,0,0,0,.38-.33c.35-.71,1.11-2.61-.69-2.92a.53.53,0,0,0-.2,0A8.4,8.4,0,0,0,19,17.88a12.62,12.62,0,0,1-3.53,1.93S14.21,20.24,14.62,18.4Z" transform="translate(-0.89 -1.18)"/><path class="cls-4" d="M24.65,16.33a2,2,0,0,0-1.94-.53s.8,0,.93,1a5.36,5.36,0,0,1-.3,1.78,13.89,13.89,0,0,1-1,2.22S19.46,24.59,18.52,25l-2.6,2s-.52.91.52.73c0,0,2.71-2,3.47-2.69,0,0,.84-.29.52.37l-1.18,1.39s-.16.8.59.46l1.64-1.62s.59-.46.34.25-.3,1.28.55.87c0,0,2.07-2.07,2.41-3.35,0,0,2-4.39-.14-7.15" transform="translate(-0.89 -1.18)"/><rect class="cls-4" x="13.63" y="28.28" width="1.95" height="0.75" rx="0.38" ry="0.38" transform="translate(-16.05 15.3) rotate(-40.74)"/><rect class="cls-4" x="17.29" y="27.93" width="1.95" height="0.75" rx="0.38" ry="0.38" transform="translate(-14.94 17.6) rotate(-40.74)"/><rect class="cls-4" x="15.06" y="29.27" width="1.95" height="0.75" rx="0.38" ry="0.38" transform="translate(-16.36 16.47) rotate(-40.74)"/><rect class="cls-4" x="15.36" y="28.38" width="1.49" height="0.36" rx="0.18" ry="0.18" transform="translate(-15.63 16.25) rotate(-40.74)"/><rect class="cls-4" x="17.34" y="27.08" width="1.49" height="0.36" rx="0.18" ry="0.18" transform="translate(-14.3 17.23) rotate(-40.74)"/><rect class="cls-4" x="16.32" y="29.66" width="1.49" height="0.36" rx="0.18" ry="0.18" transform="translate(-16.23 17.19) rotate(-40.74)"/><rect class="cls-4" x="18.85" y="27.99" width="1.49" height="0.36" rx="0.18" ry="0.18" transform="translate(-14.53 18.43) rotate(-40.74)"/><rect class="cls-4" x="20.26" y="26.57" width="1.49" height="0.36" rx="0.18" ry="0.18" transform="translate(-13.81 23.12) rotate(-47.73)"/><rect class="cls-4" x="18.79" y="25.74" width="1.49" height="0.36" rx="0.18" ry="0.18" transform="translate(-13.08 17.85) rotate(-40.74)"/><rect class="cls-4" x="19.92" y="27.76" width="1.95" height="0.75" rx="0.38" ry="0.38" transform="translate(-14.36 20.08) rotate(-42.08)"/><rect class="cls-4" x="17.41" y="29.52" width="1.95" height="0.75" rx="0.38" ry="0.38" transform="translate(-16.19 18.85) rotate(-42.08)"/><path class="cls-4" d="M12.47,18.18s-.11,3.34,1.34,4.07c0,0-.61-3.35,3-6.42l4.3-3.9.56,2.51,3.72-8.18L15.88,8.49l2.54.74s-2.44,2.29-2.61,2.5a11.36,11.36,0,0,0-1.25,1.4s-.72,1.06-1.06,1.71a11.2,11.2,0,0,0-.87,2.24,7.49,7.49,0,0,0-.16,1.1" transform="translate(-0.89 -1.18)"/><rect class="cls-1" x="21.04" y="22.81" width="1.95" height="0.75" rx="0.38" ry="0.38" transform="translate(-10.79 24.01) rotate(-50.07)"/><rect class="cls-1" x="22.58" y="20.06" width="1.95" height="0.75" rx="0.38" ry="0.38" transform="translate(-4.35 34.85) rotate(-70.95)"/><path class="cls-1" d="M13.21,18.44c.22-2.38,3.71-8.26,8.19-9.68.45.23,1.56,1.2.93,1.37C18.08,11.31,12.94,17.66,13.21,18.44Z" transform="translate(-0.89 -1.18)"/><polyline class="cls-1" points="21.17 9.04 21.38 10.41 23.15 6.16 18.03 7.45 19.76 7.84"/><rect class="cls-1" x="22.22" y="24.02" width="1.95" height="0.75" rx="0.38" ry="0.38" transform="translate(-11.03 27.96) rotate(-54.55)"/><rect class="cls-1" x="23.4" y="17.43" width="1.95" height="0.7" rx="0.35" ry="0.35" transform="translate(8.68 42.89) rotate(-96.74)"/><rect class="cls-1" x="23.59" y="21.21" width="1.95" height="0.75" rx="0.38" ry="0.38" transform="translate(-4.76 36.58) rotate(-70.95)"/><path class="cls-5" d="M27.66,24.91V6.8h.62V23l5.48-7.48h.76L31.21,20l3.3,4.54h-.76l-2.94-4Z" transform="translate(-0.89 -1.18)"/><circle class="cls-5" cx="78.03" cy="7.96" r="2.72"/><path class="cls-4" d="M77.83,10.68V7.6H79.2a1.82,1.82,0,0,1,.63.08.69.69,0,0,1,.34.29.88.88,0,0,1,.13.46.78.78,0,0,1-.21.55,1.07,1.07,0,0,1-.66.29,1,1,0,0,1,.25.15,2.13,2.13,0,0,1,.34.41l.54.84H80L79.63,10c-.12-.19-.22-.33-.29-.42a.93.93,0,0,0-.21-.21.63.63,0,0,0-.19-.08h-.7v1.37ZM78.24,9h.88a1.31,1.31,0,0,0,.44-.06.46.46,0,0,0,.24-.19.5.5,0,0,0,.08-.28.46.46,0,0,0-.16-.36.74.74,0,0,0-.5-.14h-1Z" transform="translate(-0.89 -1.18)"/><path class="cls-6" d="M12.46,35.4V32.58h1.35v.31h-1v.81h1V34h-1v1.08h1v.31Z" transform="translate(-0.89 -1.18)"/><path class="cls-6" d="M14.3,35.4V33.64h.27v.27a.71.71,0,0,1,.25-.25.66.66,0,0,1,.34-.08.59.59,0,0,1,.44.17.64.64,0,0,1,.16.46v1.2h-.28v-1a.64.64,0,0,0-.1-.4.38.38,0,0,0-.32-.13.51.51,0,0,0-.22,0,.46.46,0,0,0-.17.14.44.44,0,0,0-.07.16,1.47,1.47,0,0,0,0,.31v.91Z" transform="translate(-0.89 -1.18)"/><path class="cls-6" d="M17.78,33.64v1.74a1.66,1.66,0,0,1,0,.41.6.6,0,0,1-.12.22.69.69,0,0,1-.27.2,1,1,0,0,1-.37.07.82.82,0,0,1-.57-.18.69.69,0,0,1-.21-.52h.31v0a.38.38,0,0,0,.12.31A.52.52,0,0,0,17,36a.62.62,0,0,0,.28-.06.4.4,0,0,0,.18-.17.5.5,0,0,0,.05-.15,1.54,1.54,0,0,0,0-.25v-.3a.74.74,0,0,1-.24.29.59.59,0,0,1-.34.1.68.68,0,0,1-.56-.26,1.24,1.24,0,0,1,0-1.37.67.67,0,0,1,.55-.25.62.62,0,0,1,.35.1.68.68,0,0,1,.24.29v-.33Zm-.27.89a.73.73,0,0,0-.15-.48.51.51,0,0,0-.77,0,.72.72,0,0,0-.14.47.78.78,0,0,0,.14.5.48.48,0,0,0,.39.17.47.47,0,0,0,.38-.17A.73.73,0,0,0,17.52,34.53Z" transform="translate(-0.89 -1.18)"/><path class="cls-6" d="M19.83,33.64v1.74a1.66,1.66,0,0,1,0,.41.6.6,0,0,1-.12.22.69.69,0,0,1-.27.2,1,1,0,0,1-.37.07.82.82,0,0,1-.57-.18.69.69,0,0,1-.21-.52h.31v0a.38.38,0,0,0,.12.31A.52.52,0,0,0,19,36a.62.62,0,0,0,.28-.06.4.4,0,0,0,.18-.17.5.5,0,0,0,.05-.15,1.54,1.54,0,0,0,0-.25v-.3a.74.74,0,0,1-.24.29.59.59,0,0,1-.34.1.68.68,0,0,1-.56-.26,1.24,1.24,0,0,1,0-1.37.67.67,0,0,1,.55-.25.62.62,0,0,1,.35.1.68.68,0,0,1,.24.29v-.33Zm-.27.89a.73.73,0,0,0-.15-.48.51.51,0,0,0-.77,0,.72.72,0,0,0-.14.47.78.78,0,0,0,.14.5.48.48,0,0,0,.39.17.47.47,0,0,0,.38-.17A.73.73,0,0,0,19.56,34.53Z" transform="translate(-0.89 -1.18)"/><path class="cls-6" d="M20.36,35.21a.23.23,0,0,1,.06-.16.19.19,0,0,1,.15-.07.2.2,0,0,1,.15.07.23.23,0,0,1,.06.16.22.22,0,0,1-.06.16.2.2,0,0,1-.15.07.19.19,0,0,1-.15-.07A.22.22,0,0,1,20.36,35.21Z" transform="translate(-0.89 -1.18)"/><path class="cls-6" d="M24.09,35.4l-.25-.33a1.21,1.21,0,0,1-.36.28.92.92,0,0,1-.42.1.72.72,0,0,1-.55-.22.86.86,0,0,1-.06-1,1.48,1.48,0,0,1,.44-.4l-.1-.13a.83.83,0,0,1-.12-.22.74.74,0,0,1,0-.25.58.58,0,0,1,.16-.43.57.57,0,0,1,.42-.17.57.57,0,0,1,.42.16.59.59,0,0,1,.16.43.67.67,0,0,1-.11.38,1.25,1.25,0,0,1-.35.33l.56.74.15-.19.16-.25.19.23-.16.24-.17.2.41.54Zm-.42-.56L23.06,34l-.08.06a1.18,1.18,0,0,0-.29.29.52.52,0,0,0-.08.28.53.53,0,0,0,.13.37.43.43,0,0,0,.34.15.61.61,0,0,0,.29-.08A1.36,1.36,0,0,0,23.68,34.85Zm-.51-1.17.11-.07a.59.59,0,0,0,.18-.18.43.43,0,0,0,.06-.22.32.32,0,0,0-.08-.23.28.28,0,0,0-.22-.09A.28.28,0,0,0,23,33a.34.34,0,0,0-.08.24.43.43,0,0,0,0,.14.41.41,0,0,0,.07.13Z" transform="translate(-0.89 -1.18)"/><path class="cls-6" d="M27.11,35.51l-.8-2L26,35.4h-.3l.52-2.94.9,2.34.9-2.34.52,2.94h-.3l-.33-1.92Z" transform="translate(-0.89 -1.18)"/><path class="cls-6" d="M30.33,34.57H29.06v0a.69.69,0,0,0,.15.46.5.5,0,0,0,.67.08.82.82,0,0,0,.23-.29l.21.16a.91.91,0,0,1-.31.36.78.78,0,0,1-.43.12.74.74,0,0,1-.59-.27,1,1,0,0,1-.23-.7,1,1,0,0,1,.22-.68.72.72,0,0,1,.58-.26.69.69,0,0,1,.56.25,1,1,0,0,1,.21.69ZM30,34.32a.53.53,0,0,0-.14-.36.47.47,0,0,0-.35-.13.45.45,0,0,0-.33.13.56.56,0,0,0-.15.35Z" transform="translate(-0.89 -1.18)"/><path class="cls-6" d="M32.23,32.41v3H32v-.32a.74.74,0,0,1-.25.29.58.58,0,0,1-.34.1.68.68,0,0,1-.56-.26,1.25,1.25,0,0,1,0-1.39.67.67,0,0,1,.55-.26.6.6,0,0,1,.35.1A.71.71,0,0,1,32,34V32.41ZM32,34.53a.73.73,0,0,0-.15-.48.48.48,0,0,0-.39-.18A.47.47,0,0,0,31,34a.69.69,0,0,0-.14.45A.84.84,0,0,0,31,35a.45.45,0,0,0,.38.18.48.48,0,0,0,.4-.17A.74.74,0,0,0,32,34.53Z" transform="translate(-0.89 -1.18)"/><path class="cls-6" d="M32.74,32.79a.22.22,0,0,1,.06-.16.19.19,0,0,1,.14-.07.18.18,0,0,1,.14.07.23.23,0,0,1,.06.16.22.22,0,0,1-.06.15.18.18,0,0,1-.14.06.18.18,0,0,1-.14-.06A.22.22,0,0,1,32.74,32.79Zm.06,2.62V33.64h.28V35.4Z" transform="translate(-0.89 -1.18)"/><path class="cls-6" d="M33.7,35.21a.23.23,0,0,1,.06-.16A.19.19,0,0,1,33.9,35a.2.2,0,0,1,.15.07.23.23,0,0,1,.06.16.22.22,0,0,1-.06.16.2.2,0,0,1-.15.07.19.19,0,0,1-.15-.07A.22.22,0,0,1,33.7,35.21Z" transform="translate(-0.89 -1.18)"/><path class="cls-6" d="M35.74,34.37h.82v.3h-.82Z" transform="translate(-0.89 -1.18)"/><path class="cls-6" d="M39.73,35.4H38.18V32.8h1.55v.31H38.49v.71h1.24v.31H38.49v1h1.24Z" transform="translate(-0.89 -1.18)"/><path class="cls-6" d="M41.68,35.4h-.3V34.29a2,2,0,0,0,0-.25.49.49,0,0,0-.05-.18.25.25,0,0,0-.11-.11.45.45,0,0,0-.19,0,.58.58,0,0,0-.25.07,1.35,1.35,0,0,0-.25.17V35.4h-.3v-2h.3v.22a1.15,1.15,0,0,1,.29-.2.69.69,0,0,1,.31-.07.52.52,0,0,1,.44.19.87.87,0,0,1,.15.55Z" transform="translate(-0.89 -1.18)"/><path class="cls-6" d="M43.17,35.39l-.18,0-.18,0a.52.52,0,0,1-.41-.16.77.77,0,0,1-.14-.52v-1h-.2v-.28h.2v-.56h.3v.56h.61v.28h-.61v.89c0,.1,0,.18,0,.24a.42.42,0,0,0,0,.16.23.23,0,0,0,.1.1.41.41,0,0,0,.19,0l.15,0,.11,0h0Z" transform="translate(-0.89 -1.18)"/><path class="cls-6" d="M44.64,33.81h0l-.13,0h-.15a.56.56,0,0,0-.27.07,1.28,1.28,0,0,0-.25.17V35.4h-.3v-2h.3v.29a1.42,1.42,0,0,1,.31-.22.62.62,0,0,1,.28-.07h.11l.1,0Z" transform="translate(-0.89 -1.18)"/><path class="cls-6" d="M46.23,35.4h-.3V35.2l-.11.08-.13.08-.17.07a.87.87,0,0,1-.23,0,.54.54,0,0,1-.41-.17.62.62,0,0,1-.17-.45.66.66,0,0,1,.09-.36.58.58,0,0,1,.25-.22,1.22,1.22,0,0,1,.39-.11l.49,0v-.05a.42.42,0,0,0,0-.19.28.28,0,0,0-.1-.12.39.39,0,0,0-.15-.05h-.18a1.16,1.16,0,0,0-.26,0l-.3.1h0V33.5l.25-.06a1.68,1.68,0,0,1,.32,0,1.38,1.38,0,0,1,.33,0,.61.61,0,0,1,.24.12.52.52,0,0,1,.15.21.85.85,0,0,1,.05.32Zm-.3-.48v-.54l-.32,0-.29.05a.47.47,0,0,0-.21.13.33.33,0,0,0-.08.23.33.33,0,0,0,.09.25.41.41,0,0,0,.28.08.63.63,0,0,0,.29-.07A1.33,1.33,0,0,0,45.94,34.92Z" transform="translate(-0.89 -1.18)"/><path class="cls-6" d="M48.29,35.4H48V34.29A2.25,2.25,0,0,0,48,34a.5.5,0,0,0-.05-.18.26.26,0,0,0-.11-.11.46.46,0,0,0-.19,0,.57.57,0,0,0-.25.07,1.32,1.32,0,0,0-.25.17V35.4h-.3v-2h.3v.22a1.14,1.14,0,0,1,.29-.2.7.7,0,0,1,.31-.07.52.52,0,0,1,.44.19.87.87,0,0,1,.15.55Z" transform="translate(-0.89 -1.18)"/><path class="cls-6" d="M50.17,35.28l-.28.12a.91.91,0,0,1-.28,0,1,1,0,0,1-.35-.06A.71.71,0,0,1,49,35.2a.85.85,0,0,1-.18-.32,1.44,1.44,0,0,1-.06-.45,1.11,1.11,0,0,1,.24-.75.8.8,0,0,1,.63-.27,1,1,0,0,1,.3,0,1.49,1.49,0,0,1,.27.12v.36h0a1.14,1.14,0,0,0-.28-.18.7.7,0,0,0-.28-.06.48.48,0,0,0-.4.19,1.1,1.1,0,0,0,0,1.09.48.48,0,0,0,.4.19l.18,0,.17-.07.12-.08.09-.07h0Z" transform="translate(-0.89 -1.18)"/><path class="cls-6" d="M52,34.46h-1.3a.89.89,0,0,0,0,.31.58.58,0,0,0,.13.22.5.5,0,0,0,.2.13.7.7,0,0,0,.25,0,.91.91,0,0,0,.36-.08.9.9,0,0,0,.26-.16h0v.36l-.31.12a1.15,1.15,0,0,1-.33,0,.89.89,0,0,1-.69-.26,1,1,0,0,1-.25-.75,1.15,1.15,0,0,1,.24-.76.77.77,0,0,1,.62-.28.68.68,0,0,1,.55.23,1,1,0,0,1,.19.66Zm-.29-.25a.62.62,0,0,0-.12-.4.43.43,0,0,0-.35-.14.49.49,0,0,0-.38.16.63.63,0,0,0-.16.39Z" transform="translate(-0.89 -1.18)"/><path class="cls-6" d="M55.2,35.4H53.64V32.8H55.2v.31H54v.71H55.2v.31H54v1H55.2Z" transform="translate(-0.89 -1.18)"/><path class="cls-6" d="M57.2,35.4h-.38l-.5-.75-.5.75h-.35l.69-1-.68-1h.38l.5.74.5-.74h.35l-.7,1Z" transform="translate(-0.89 -1.18)"/><path class="cls-6" d="M59,35.4h-.3V35.2l-.11.08-.13.08-.17.07a.87.87,0,0,1-.23,0,.54.54,0,0,1-.41-.17.62.62,0,0,1-.17-.45.66.66,0,0,1,.09-.36.58.58,0,0,1,.25-.22,1.22,1.22,0,0,1,.39-.11l.49,0v-.05a.42.42,0,0,0,0-.19.28.28,0,0,0-.1-.12.39.39,0,0,0-.15-.05h-.18a1.16,1.16,0,0,0-.26,0l-.3.1h0V33.5l.25-.06a1.68,1.68,0,0,1,.32,0,1.38,1.38,0,0,1,.33,0,.61.61,0,0,1,.24.12.52.52,0,0,1,.15.21.85.85,0,0,1,.05.32Zm-.3-.48v-.54l-.32,0-.29.05a.47.47,0,0,0-.21.13.33.33,0,0,0-.08.23.33.33,0,0,0,.09.25.41.41,0,0,0,.28.08.63.63,0,0,0,.29-.07A1.33,1.33,0,0,0,58.67,34.92Z" transform="translate(-0.89 -1.18)"/><path class="cls-6" d="M62.12,35.4h-.3V34.29c0-.08,0-.17,0-.24a.58.58,0,0,0,0-.19.26.26,0,0,0-.1-.11.41.41,0,0,0-.2,0,.52.52,0,0,0-.25.07A1.54,1.54,0,0,0,61,34S61,34,61,34s0,.07,0,.11V35.4h-.3V34.29c0-.09,0-.17,0-.25a.58.58,0,0,0,0-.19.25.25,0,0,0-.1-.11.41.41,0,0,0-.2,0,.51.51,0,0,0-.25.07,1.49,1.49,0,0,0-.24.17V35.4h-.3v-2h.3v.22a1.25,1.25,0,0,1,.28-.2.64.64,0,0,1,.3-.07.54.54,0,0,1,.31.08.5.5,0,0,1,.19.23,1.51,1.51,0,0,1,.33-.24.71.71,0,0,1,.32-.07.49.49,0,0,1,.43.2.93.93,0,0,1,.14.54Z" transform="translate(-0.89 -1.18)"/><path class="cls-6" d="M64,34.84a.55.55,0,0,1-.2.44.82.82,0,0,1-.55.17,1.19,1.19,0,0,1-.36-.05,1.57,1.57,0,0,1-.28-.11v-.37h0a1.15,1.15,0,0,0,.31.19.89.89,0,0,0,.33.07.57.57,0,0,0,.31-.07.24.24,0,0,0,.11-.22.24.24,0,0,0-.06-.17.51.51,0,0,0-.23-.1l-.17,0-.19,0a.61.61,0,0,1-.33-.2.53.53,0,0,1-.1-.32.57.57,0,0,1,0-.23.53.53,0,0,1,.14-.19.62.62,0,0,1,.23-.13.91.91,0,0,1,.31,0,1.26,1.26,0,0,1,.32,0,1.1,1.1,0,0,1,.27.1v.35h0a1,1,0,0,0-.28-.16.88.88,0,0,0-.32-.06.52.52,0,0,0-.28.07.23.23,0,0,0-.11.21.23.23,0,0,0,.07.18.51.51,0,0,0,.22.1l.18,0,.17,0a.62.62,0,0,1,.32.18A.51.51,0,0,1,64,34.84Z" transform="translate(-0.89 -1.18)"/><path class="cls-6" d="M67.1,35.4H65.54V32.8H67.1v.31H65.86v.71H67.1v.31H65.86v1H67.1Z" transform="translate(-0.89 -1.18)"/><path class="cls-6" d="M69.1,35.4h-.38l-.5-.75-.5.75h-.35l.69-1-.68-1h.38l.5.74.5-.74h.35l-.7,1Z" transform="translate(-0.89 -1.18)"/><path class="cls-6" d="M71,34.41a1.44,1.44,0,0,1-.06.43,1,1,0,0,1-.17.33.73.73,0,0,1-.25.2.67.67,0,0,1-.3.07.87.87,0,0,1-.25,0,.94.94,0,0,1-.23-.1v.82h-.3V33.45h.3v.2a1.16,1.16,0,0,1,.27-.18.7.7,0,0,1,.32-.07.56.56,0,0,1,.5.27A1.32,1.32,0,0,1,71,34.41Zm-.31,0a1,1,0,0,0-.11-.53.37.37,0,0,0-.34-.17.6.6,0,0,0-.26.06,1.17,1.17,0,0,0-.25.16V35l.22.09.21,0A.46.46,0,0,0,70.6,35,.9.9,0,0,0,70.74,34.41Z" transform="translate(-0.89 -1.18)"/><path class="cls-6" d="M73,34.46h-1.3a.89.89,0,0,0,0,.31.58.58,0,0,0,.13.22.5.5,0,0,0,.2.13.7.7,0,0,0,.25,0,.91.91,0,0,0,.36-.08.9.9,0,0,0,.26-.16h0v.36l-.31.12a1.15,1.15,0,0,1-.33,0,.89.89,0,0,1-.69-.26,1,1,0,0,1-.25-.75,1.15,1.15,0,0,1,.24-.76.77.77,0,0,1,.62-.28.68.68,0,0,1,.55.23,1,1,0,0,1,.19.66Zm-.29-.25a.62.62,0,0,0-.12-.4.43.43,0,0,0-.35-.14.49.49,0,0,0-.38.16.63.63,0,0,0-.16.39Z" transform="translate(-0.89 -1.18)"/><path class="cls-6" d="M74.54,33.81h0l-.13,0h-.15a.56.56,0,0,0-.27.07,1.24,1.24,0,0,0-.25.17V35.4h-.3v-2h.3v.29a1.42,1.42,0,0,1,.31-.22.62.62,0,0,1,.28-.07h.11l.1,0Z" transform="translate(-0.89 -1.18)"/><path class="cls-6" d="M75.74,35.39l-.18,0-.18,0a.52.52,0,0,1-.41-.16.77.77,0,0,1-.14-.52v-1h-.2v-.28h.2v-.56h.3v.56h.61v.28h-.61v.89c0,.1,0,.18,0,.24a.41.41,0,0,0,0,.16.23.23,0,0,0,.1.1.42.42,0,0,0,.19,0l.15,0,.11,0h0Z" transform="translate(-0.89 -1.18)"/><path class="cls-6" d="M76.59,35.4h-.38v-.5h.38Z" transform="translate(-0.89 -1.18)"/><path class="cls-6" d="M77.77,35.4h-.38v-.5h.38Z" transform="translate(-0.89 -1.18)"/><path class="cls-7" d="M49.46,27.67l.51-.42a5.24,5.24,0,0,0,6.68,0A3.65,3.65,0,0,0,58,24.4v-2.2a5.11,5.11,0,0,1-2,1.73,5.83,5.83,0,0,1-2.74.68,5.67,5.67,0,0,1-3.83-1.37,4.19,4.19,0,0,1,0-6.57,5.71,5.71,0,0,1,3.83-1.36,5.83,5.83,0,0,1,2.75.7,4.89,4.89,0,0,1,2,1.76V15.52h.7V24.4a4.2,4.2,0,0,1-1.59,3.29,5.68,5.68,0,0,1-3.83,1.37A5.59,5.59,0,0,1,49.46,27.67ZM50,22.81a5.26,5.26,0,0,0,6.66,0,3.64,3.64,0,0,0,0-5.72,5.26,5.26,0,0,0-6.66,0,3.64,3.64,0,0,0,0,5.72Z" transform="translate(-0.89 -1.18)"/><path class="cls-7" d="M70.29,22.82l.46.42A5.8,5.8,0,0,1,67,24.61a5.69,5.69,0,0,1-3.83-1.36,4.2,4.2,0,0,1,0-6.57A5.67,5.67,0,0,1,67,15.31a5.79,5.79,0,0,1,3.8,1.38l-7.12,6.12A4.77,4.77,0,0,0,67,24,4.92,4.92,0,0,0,70.29,22.82Zm-7.08-.44,6.55-5.64a5.15,5.15,0,0,0-6.11.36A3.66,3.66,0,0,0,62.27,20,3.54,3.54,0,0,0,63.21,22.38Z" transform="translate(-0.89 -1.18)"/><path class="cls-7" d="M73.49,24.4V11.8h.7v3.71H77v.6h-2.8V24.4Z" transform="translate(-0.89 -1.18)"/><path class="cls-5" d="M39.08,29.65l2.76-5.34-4.51-8.76H38l4.17,8.09,4.18-8.09H47l-7.28,14.1Z" transform="translate(-0.89 -1.18)"/></svg>