<svg id="Layer_1" data-name="Layer 1" xmlns="http://www.w3.org/2000/svg" xmlns:xlink="http://www.w3.org/1999/xlink" viewBox="0 0 125.75 113.59"><defs><style>.cls-1{fill:none;stroke:#5e57ea;stroke-linecap:round;stroke-miterlimit:10;stroke-width:5px;}.cls-2{fill:#5e57ea;}.cls-3{fill:#f2f2f2;}.cls-4{fill:#fff;}.cls-5{fill:#a3a3a3;}.cls-6{fill:url(#radial-gradient);}</style><radialGradient id="radial-gradient" cx="81.53" cy="64.01" fx="101.8949275867457" r="21.02" gradientTransform="translate(-10.22 48.64) rotate(-19.28) scale(1 0.7)" gradientUnits="userSpaceOnUse"><stop offset="0.29" stop-color="#f4f4f4"/><stop offset="0.29" stop-color="#f1f1f4"/><stop offset="0.31" stop-color="#cfcdf2"/><stop offset="0.33" stop-color="#b1aef0"/><stop offset="0.35" stop-color="#9792ee"/><stop offset="0.37" stop-color="#827cec"/><stop offset="0.39" stop-color="#726beb"/><stop offset="0.42" stop-color="#6660eb"/><stop offset="0.47" stop-color="#6059ea"/><stop offset="0.59" stop-color="#5e57ea"/><stop offset="0.65" stop-color="#6d66ea"/><stop offset="0.76" stop-color="#938fe8"/><stop offset="0.91" stop-color="#d1d0e7"/><stop offset="0.96" stop-color="#e6e6e6"/></radialGradient></defs><title>Buy Icon 128 x 128</title><path class="cls-1" d="M4.25,9.46,16.46,11.9s7.32,0,9.76,11L44.53,92.47s3.67,8.54,11,8.54h51.27" transform="translate(-1.75 -6.96)"/><path class="cls-1" d="M88.48,86.36h21.46a.65.65,0,0,0,.64-.5L125,29.43a.35.35,0,0,0-.34-.44H28.87" transform="translate(-1.75 -6.96)"/><line class="cls-1" x1="68.42" y1="78.18" x2="41.03" y2="78.18"/><circle class="cls-2" cx="59.87" cy="107.48" r="6.1"/><circle class="cls-2" cx="91.61" cy="107.48" r="6.1"/><path class="cls-3" d="M67.73,66.58S64,71.67,64.85,75.17c0,0,1.18,3.25,6,2.44a18.06,18.06,0,0,0,7.75-3.21s7-5.05,10.49-6.15a1.6,1.6,0,0,0,1-.82c.88-1.78,2.79-6.57-1.72-7.34a1.45,1.45,0,0,0-.51,0,21.16,21.16,0,0,0-9,5.19s-5.71,4.3-8.89,4.87C69.94,70.16,66.7,71.23,67.73,66.58Z" transform="translate(-1.75 -6.96)"/><path class="cls-4" d="M93,61.39a5,5,0,0,0-4.89-1.33s2,0,2.34,2.62a13.52,13.52,0,0,1-.75,4.49S87.76,72,87,72.76c0,0-7.14,9.4-9.49,10.54L71,88.46s-1.32,2.29,1.32,1.83c0,0,6.83-5.05,8.72-6.77,0,0,2.11-.73,1.31.93l-3,3.5s-.4,2,1.49,1.14L85,85s1.49-1.14.86.63-.75,3.21,1.37,2.18c0,0,5.22-5.21,6.08-8.42,0,0,5-11-.35-18" transform="translate(-1.75 -6.96)"/><rect class="cls-4" x="65.24" y="91.44" width="4.9" height="1.9" rx="0.95" ry="0.95" transform="translate(-45.64 59.6) rotate(-40.74)"/><rect class="cls-4" x="74.45" y="90.56" width="4.9" height="1.9" rx="0.95" ry="0.95" transform="translate(-42.84 65.4) rotate(-40.74)"/><rect class="cls-4" x="68.83" y="93.95" width="4.9" height="1.9" rx="0.95" ry="0.95" transform="translate(-46.41 62.55) rotate(-40.74)"/><rect class="cls-4" x="69.58" y="91.71" width="3.75" height="0.92" rx="0.46" ry="0.46" transform="translate(-44.59 62) rotate(-40.74)"/><rect class="cls-4" x="74.56" y="88.44" width="3.75" height="0.92" rx="0.46" ry="0.46" transform="translate(-41.24 64.46) rotate(-40.74)"/><rect class="cls-4" x="72" y="94.93" width="3.75" height="0.92" rx="0.46" ry="0.46" transform="translate(-46.1 64.36) rotate(-40.74)"/><rect class="cls-4" x="78.36" y="90.72" width="3.75" height="0.92" rx="0.46" ry="0.46" transform="translate(-41.81 67.49) rotate(-40.74)"/><rect class="cls-4" x="81.92" y="87.14" width="3.75" height="0.92" rx="0.46" ry="0.46" transform="translate(-39.14 83.72) rotate(-47.73)"/><rect class="cls-4" x="78.21" y="85.06" width="3.75" height="0.92" rx="0.46" ry="0.46" transform="translate(-38.15 66.02) rotate(-40.74)"/><rect class="cls-4" x="81.06" y="90.13" width="4.9" height="1.9" rx="0.95" ry="0.95" transform="translate(-41.26 72.49) rotate(-42.08)"/><rect class="cls-4" x="74.75" y="94.57" width="4.9" height="1.9" rx="0.95" ry="0.95" transform="translate(-45.86 69.41) rotate(-42.08)"/><path class="cls-3" d="M62.31,66s-.28,8.4,3.37,10.25c0,0-1.55-8.43,7.44-16.16L84,50.3l1.42,6.32L94.74,36,70.89,41.66l6.4,1.85s-6.15,5.76-6.58,6.28a28.61,28.61,0,0,0-3.14,3.52s-1.8,2.67-2.66,4.3a28.39,28.39,0,0,0-2.2,5.63,19.34,19.34,0,0,0-.4,2.78" transform="translate(-1.75 -6.96)"/><rect class="cls-5" x="83.88" y="77.68" width="4.9" height="1.9" rx="0.95" ry="0.95" transform="translate(-31.13 87.41) rotate(-50.07)"/><rect class="cls-5" x="87.76" y="70.77" width="4.9" height="1.9" rx="0.95" ry="0.95" transform="matrix(0.33, -0.95, 0.95, 0.33, -8.78, 126.62)"/><path class="cls-5" d="M64.17,66.69c.55-6,9.33-20.79,20.62-24.38,1.13.57,3.93,3,2.35,3.46C76.43,48.74,63.49,64.74,64.17,66.69Z" transform="translate(-1.75 -6.96)"/><polyline class="cls-5" points="84.7 39.03 85.22 42.48 89.69 31.8 76.81 35.03 81.15 36.03"/><rect class="cls-5" x="86.85" y="80.74" width="4.9" height="1.9" rx="0.95" ry="0.95" transform="translate(-30.79 100.09) rotate(-54.55)"/><rect class="cls-5" x="89.82" y="64.14" width="4.9" height="1.77" rx="0.88" ry="0.88" transform="translate(36.77 157.33) rotate(-96.74)"/><rect class="cls-5" x="90.29" y="73.66" width="4.9" height="1.9" rx="0.95" ry="0.95" transform="translate(-9.81 130.96) rotate(-70.95)"/><path class="cls-6" d="M67.51,65s-3.76,5.09-2.87,8.59c0,0,1.18,3.24,6,2.43a17.9,17.9,0,0,0,7.74-3.21s7-5,10.49-6.14a1.66,1.66,0,0,0,1-.83c.88-1.78,2.78-6.57-1.73-7.33a1.25,1.25,0,0,0-.51,0,21.28,21.28,0,0,0-9,5.19S72.91,68,69.73,68.6C69.73,68.6,66.48,69.67,67.51,65Z" transform="translate(-1.75 -6.96)"/><path class="cls-2" d="M92.75,59.83a5,5,0,0,0-4.9-1.33s2,0,2.34,2.63a13.52,13.52,0,0,1-.75,4.49s-1.89,4.86-2.63,5.58c0,0-7.13,9.4-9.48,10.55L70.8,86.91s-1.32,2.29,1.31,1.83c0,0,6.84-5.06,8.73-6.78,0,0,2.11-.73,1.3.94l-3,3.49s-.4,2,1.49,1.15l4.13-4.07s1.49-1.15.86.63-.75,3.21,1.37,2.18c0,0,5.22-5.22,6.08-8.43,0,0,5-11-.34-18" transform="translate(-1.75 -6.96)"/><rect class="cls-2" x="65.03" y="89.89" width="4.9" height="1.9" rx="0.95" ry="0.95" transform="translate(-44.68 59.08) rotate(-40.74)"/><rect class="cls-2" x="74.23" y="89.01" width="4.9" height="1.9" rx="0.95" ry="0.95" transform="translate(-41.88 64.88) rotate(-40.74)"/><rect class="cls-2" x="68.61" y="92.4" width="4.9" height="1.9" rx="0.95" ry="0.95" transform="translate(-45.45 62.03) rotate(-40.74)"/><rect class="cls-2" x="69.36" y="90.16" width="3.75" height="0.92" rx="0.46" ry="0.46" transform="translate(-43.63 61.48) rotate(-40.74)"/><rect class="cls-2" x="74.35" y="86.88" width="3.75" height="0.92" rx="0.46" ry="0.46" transform="translate(-40.28 63.94) rotate(-40.74)"/><rect class="cls-2" x="71.78" y="93.37" width="3.75" height="0.92" rx="0.46" ry="0.46" transform="translate(-45.14 63.84) rotate(-40.74)"/><rect class="cls-2" x="78.14" y="89.17" width="3.75" height="0.92" rx="0.46" ry="0.46" transform="translate(-40.85 66.97) rotate(-40.74)"/><rect class="cls-2" x="81.7" y="85.59" width="3.75" height="0.92" rx="0.46" ry="0.46" transform="translate(-38.06 83.05) rotate(-47.73)"/><rect class="cls-2" x="78" y="83.5" width="3.75" height="0.92" rx="0.46" ry="0.46" transform="translate(-37.19 65.51) rotate(-40.74)"/><rect class="cls-2" x="80.84" y="88.58" width="4.9" height="1.9" rx="0.95" ry="0.95" transform="translate(-40.28 71.95) rotate(-42.08)"/><rect class="cls-2" x="74.53" y="93.01" width="4.9" height="1.9" rx="0.95" ry="0.95" transform="translate(-44.88 68.86) rotate(-42.08)"/><path class="cls-2" d="M62.09,64.47s-.28,8.4,3.37,10.24c0,0-1.54-8.42,7.44-16.16l10.83-9.81,1.42,6.33,9.37-20.59L70.67,40.1,77.07,42s-6.15,5.76-6.58,6.28a28.82,28.82,0,0,0-3.13,3.52s-1.81,2.67-2.67,4.3a28.31,28.31,0,0,0-2.19,5.63,19,19,0,0,0-.41,2.78" transform="translate(-1.75 -6.96)"/><rect class="cls-4" x="83.66" y="76.13" width="4.9" height="1.9" rx="0.95" ry="0.95" transform="translate(-30.02 86.69) rotate(-50.07)"/><rect class="cls-4" x="87.54" y="69.22" width="4.9" height="1.9" rx="0.95" ry="0.95" transform="translate(-7.46 125.37) rotate(-70.95)"/><path class="cls-4" d="M64,65.13c.55-6,9.34-20.78,20.62-24.37,1.14.57,3.94,3,2.35,3.45C76.21,47.19,63.28,63.18,64,65.13Z" transform="translate(-1.75 -6.96)"/><polyline class="cls-4" points="84.48 37.47 85.01 40.92 89.48 30.25 76.59 33.48 80.94 34.47"/><rect class="cls-4" x="86.63" y="79.18" width="4.9" height="1.9" rx="0.95" ry="0.95" transform="matrix(0.58, -0.81, 0.81, 0.58, -29.61, 99.26)"/><rect class="cls-4" x="89.61" y="62.59" width="4.9" height="1.77" rx="0.88" ry="0.88" transform="translate(38.08 155.38) rotate(-96.74)"/><rect class="cls-4" x="90.08" y="72.11" width="4.9" height="1.9" rx="0.95" ry="0.95" transform="translate(-8.48 129.71) rotate(-70.95)"/></svg>