<svg id="Layer_1" data-name="Layer 1" xmlns="http://www.w3.org/2000/svg" viewBox="0 0 116 118.01"><defs><style>.cls-1,.cls-2,.cls-3,.cls-5,.cls-6,.cls-7{fill:#fff;}.cls-1,.cls-11,.cls-12,.cls-2,.cls-3,.cls-4,.cls-7{stroke:#000;}.cls-1,.cls-3,.cls-5{stroke-linecap:round;stroke-miterlimit:15;}.cls-1,.cls-2,.cls-5,.cls-6{stroke-width:1.75px;}.cls-11,.cls-12,.cls-2,.cls-4,.cls-6,.cls-7{stroke-miterlimit:10;}.cls-3,.cls-4{stroke-width:1.5px;}.cls-5,.cls-6{stroke:#0dcfb3;}.cls-7{stroke-width:2px;}.cls-8{font-size:28.42px;}.cls-10,.cls-8,.cls-9{fill:#0dcfb3;font-family:ArialRoundedMTBold, Arial Rounded MT Bold;}.cls-9{font-size:14.41px;}.cls-10{font-size:11.21px;}.cls-11,.cls-12{fill:none;}.cls-12{stroke-width:0.75px;}</style></defs><title>Ernings 128×128</title><line class="cls-1" x1="49.59" y1="27.45" x2="49.59" y2="45.07"/><line class="cls-1" x1="57.6" y1="17.84" x2="57.6" y2="43.47"/><line class="cls-1" x1="65.61" y1="27.45" x2="65.61" y2="45.07"/><line class="cls-2" x1="51.19" y1="105.92" x2="51.19" y2="98.01"/><line class="cls-2" x1="65.61" y1="105.92" x2="65.61" y2="97.91"/><path class="cls-3" d="M16.91,112h92.88" transform="translate(-5.75 -6.21)"/><line class="cls-1" x1="107.24" y1="105.77" x2="111.25" y2="105.77"/><line class="cls-1" x1="4.75" y1="105.77" x2="8.76" y2="105.77"/><circle class="cls-4" cx="1.55" cy="105.77" r="0.8"/><circle class="cls-4" cx="114.45" cy="105.77" r="0.8"/><line class="cls-5" x1="31.98" y1="112.33" x2="39.98" y2="112.33"/><line class="cls-5" x1="75.22" y1="112.33" x2="81.62" y2="112.33"/><line class="cls-5" x1="43.19" y1="112.33" x2="72.01" y2="112.33"/><polyline class="cls-6" points="60.8 117.93 60.8 112.33 54.4 112.33 54.4 117.93"/><line class="cls-5" x1="47.99" y1="117.13" x2="67.21" y2="117.13"/><path class="cls-2" d="M74.56,52.16h27.89a5.76,5.76,0,0,1,5.74,5.74V98.39a5.76,5.76,0,0,1-5.74,5.74H24.25a5.76,5.76,0,0,1-5.74-5.74V57.9a5.76,5.76,0,0,1,5.74-5.74H52.14" transform="translate(-5.75 -6.21)"/><circle class="cls-7" cx="57.6" cy="72.29" r="19.22"/><text class="cls-8" transform="translate(48.79 81.63) scale(1.06 1)">$</text><text class="cls-9" transform="translate(16.06 44.48) scale(1.06 1)">*</text><text class="cls-9" transform="translate(32.07 30.07) scale(1.06 1)">*</text><text class="cls-9" transform="translate(54.49 12.45) scale(1.06 1)">*</text><text class="cls-9" transform="translate(75.31 39.68) scale(1.06 1)">*</text><text class="cls-10" transform="translate(68.09 23.51) scale(1.06 1)">*</text><text class="cls-10" transform="translate(36.06 42.73) scale(1.06 1)">*</text><text class="cls-10" transform="translate(88.9 21.91) scale(1.06 1)">*</text><circle class="cls-11" cx="9.56" cy="38.66" r="2.4"/><circle class="cls-12" cx="30.38" cy="30.66" r="1.6"/><circle class="cls-11" cx="84.82" cy="24.25" r="2.4"/><circle class="cls-11" cx="94.43" cy="38.66" r="2.4"/><circle class="cls-12" cx="76.82" cy="8.24" r="1.6"/><circle class="cls-12" cx="49.59" cy="16.24" r="1.6"/><circle class="cls-11" cx="28.77" cy="13.04" r="2.4"/></svg>