<svg id="Layer_1" data-name="Layer 1" xmlns="http://www.w3.org/2000/svg" xmlns:xlink="http://www.w3.org/1999/xlink" viewBox="0 0 91.78 126.31"><defs><style>.cls-1{fill:url(#linear-gradient);}.cls-2,.cls-3{fill:none;stroke-miterlimit:10;stroke-width:3px;}.cls-2{stroke:#532192;}.cls-3{stroke:#f9f9f9;}.cls-4{fill:#ce4f86;}</style><linearGradient id="linear-gradient" x1="12.65" y1="84.33" x2="85.59" y2="84.33" gradientUnits="userSpaceOnUse"><stop offset="0" stop-color="#532192"/><stop offset="1" stop-color="#ce4f86"/></linearGradient></defs><title>Features icon_128 x 128</title><path class="cls-1" d="M67,41.41V89.9a18,18,0,0,1-18,18A17.24,17.24,0,0,1,31.81,90.61V41.41H12.65V94.1a33.15,33.15,0,0,0,33.15,33.15h5.25A34.53,34.53,0,0,0,85.59,92.72V41.41Z" transform="translate(-2.56 -0.94)"/><line class="cls-2" x1="1.5" y1="42.52" x2="1.5" y2="79.36"/><line class="cls-2" x1="47.04" y1="55.17" x2="47.04" y2="92"/><line class="cls-2" x1="21.75" y1="11.73" x2="21.75" y2="35.1"/><line class="cls-2" x1="74.81" y1="11.73" x2="74.81" y2="35.1"/><line class="cls-2" x1="90.28" y1="64.24" x2="90.28" y2="79.63"/><line class="cls-3" x1="47.04" y1="107.99" x2="47.04" y2="125.31"/><line class="cls-3" x1="29.45" y1="60.11" x2="20.38" y2="60.11"/><line class="cls-3" x1="83.06" y1="60.11" x2="73.98" y2="60.11"/><path class="cls-4" d="M50.67.94l-1.1,17,12.83.18c4.95-.18,2.93,3.67,2.93,3.67L51,45.47h-.51l1.1-17-12.83-.18c-4.95.18-2.93-3.67-2.93-3.67L50.16.94Z" transform="translate(-2.56 -0.94)"/></svg>