<svg id="Layer_1" data-name="Layer 1" xmlns="http://www.w3.org/2000/svg" viewBox="0 0 123.67 92.46"><defs><style>.cls-1{fill:none;stroke:#1292d8;stroke-miterlimit:10;stroke-width:3px;}</style></defs><title>My Subscription 128×128</title><path class="cls-1" d="M58.17,51.25" transform="translate(-2 -18.27)"/><path class="cls-1" d="M56.85,51.25A29,29,0,0,0,30,38.1C16.61,39.24,4.49,51.57,3.57,64.93a29,29,0,0,0,54,16.58H68.26A1.91,1.91,0,0,0,69.43,81l6.19-6.19a.83.83,0,0,1,1.17,0l4.82,4.82a.83.83,0,0,0,1.17,0l5.46-5.46a.83.83,0,0,1,1.17,0l5.87,5.87a.83.83,0,0,0,1.17,0l6-6a.83.83,0,0,1,1.06-.09l3.75,2.63L110.58,79a.83.83,0,0,0,1.09-.13L124,65a.83.83,0,0,0,0-1.1L113.09,51.53a.83.83,0,0,0-.62-.28H56.85Z" transform="translate(-2 -18.27)"/><circle class="cls-1" cx="21.38" cy="49.13" r="9.94"/><path class="cls-1" d="M107.88,76.93C103,96,86.06,109.23,65.63,109.23A43.57,43.57,0,0,1,34.26,95.93" transform="translate(-2 -18.27)"/><path class="cls-1" d="M30.19,37.92a43.75,43.75,0,0,1,77.37,13" transform="translate(-2 -18.27)"/><line class="cls-1" x1="122.03" y1="46.23" x2="51.62" y2="46.23"/></svg>