<svg id="Layer_1" data-name="Layer 1" xmlns="http://www.w3.org/2000/svg" viewBox="0 0 88.39 91"><defs><style>.cls-1{fill:#7a7c19;}.cls-2{fill:#fff;}</style></defs><title>Refer Icon 96×96</title><circle class="cls-1" cx="67.59" cy="9.61" r="9.61"/><path class="cls-1" d="M4.13,93.5H68.82a.33.33,0,0,0,.33-.33V79s0-17.55-21.48-25.71a2.15,2.15,0,0,1-1.13-1l0,0a4.38,4.38,0,0,1,1.63-5.78C50.51,45,55.2,41.6,56.86,36.4a1.3,1.3,0,0,1,.85-.87c1.16-.36,3.26-1.45,1-4.4a1.26,1.26,0,0,1-.27-.77C58.52,27.31,58,9,37.21,8.54a9.29,9.29,0,0,0-1.83.15c-4.32.75-19.7,4.92-16.65,25.91l.66,2.51a18.71,18.71,0,0,0,8.18,9.56,4.35,4.35,0,0,1,1.57,1.44A3.22,3.22,0,0,1,29,52.17a4,4,0,0,1-1.72,1.09A36.4,36.4,0,0,0,4.4,78.09a17.45,17.45,0,0,0-.6,4.6V93.18A.32.32,0,0,0,4.13,93.5Z" transform="translate(-3.8 -2.5)"/><path class="cls-1" d="M72.31,85.79H92.2V75.2A8,8,0,0,0,92,73.32C91.19,70,87.75,59.85,74.41,53.91c0,0-3.33-1-.88-5.26a17.13,17.13,0,0,0,8-10.1A16.53,16.53,0,0,0,63,18.26a21.41,21.41,0,0,0-4.66,1.31s8.94,13.32-4.55,25.23l3.15,3.33s5.43,3.15-.35,6.13c0,0,7.53,5.25,9.11,8.06l1.93.17v-7L80,67.05,72,75.11Z" transform="translate(-3.8 -2.5)"/><path class="cls-2" d="M72.4,74.67l-4.49,4V71c-1.12-.59-6.57,0-6.57,0s-4.86.65-9.92,5.38-5,12.22-5,12.22-2.1-7.29,1-12.74A23.81,23.81,0,0,1,62.12,63.41s4.6-1.18,5.46-.92v-7L80,67.05Z" transform="translate(-3.8 -2.5)"/><path class="cls-2" d="M66.45,19.15,67,17.22s2.39,1.52,4.48.7a1.58,1.58,0,0,0,1-1.53s0-.89-1.61-1.75c0,0-3.51-.93-4-2.65s0-3.07.39-3.3A4,4,0,0,1,70,7.18V5.11h1.77V7.16a4.22,4.22,0,0,1,2.74.69L74,9.64s-2.37-1.23-4.11-.41c0,0-1.47,1.09-.12,2.18a4.9,4.9,0,0,0,2,1s2.61.86,3.12,2.47a4,4,0,0,1,.11,2.58S73.89,20,71.56,20v1.5H69.91V20.06A8.06,8.06,0,0,1,66.45,19.15Z" transform="translate(-3.8 -2.5)"/></svg>