<svg id="Capa_1" data-name="Capa 1" xmlns="http://www.w3.org/2000/svg" viewBox="0 0 118 116.46"><defs><style>.cls-1{fill:#a03c15;}.cls-2{fill:none;stroke:#79462e;stroke-miterlimit:10;stroke-width:5px;}.cls-3{fill:#79462e;}</style></defs><title>Used Money Icon 128×128</title><path class="cls-1" d="M42.5,45.9a5.55,5.55,0,0,0-.8-.6,11.76,11.76,0,0,0-2-.7V50a3.66,3.66,0,0,0,3-1.6h0a2.46,2.46,0,0,0,.2-1.7A2,2,0,0,0,42.5,45.9Z" transform="translate(-8.2 -5.74)"/><path class="cls-1" d="M42.6,48.4Z" transform="translate(-8.2 -5.74)"/><path class="cls-1" d="M34.3,37.2a3,3,0,0,0-.4,1,4.48,4.48,0,0,0,.1,1.1,1.58,1.58,0,0,0,.7.7,3.13,3.13,0,0,0,1,.5l.9.3V35.9A4.1,4.1,0,0,0,34.3,37.2Z" transform="translate(-8.2 -5.74)"/><path class="cls-1" d="M42.7,48.3Z" transform="translate(-8.2 -5.74)"/><path class="cls-1" d="M42.7,48.3Z" transform="translate(-8.2 -5.74)"/><path class="cls-1" d="M41.5,18.9C46.1,15,49.2,6.3,47.3,6c-2.5-.5-8,1.7-10.6,2.1-3.8.4-7.8-4.1-10.1-1.6-1.9,2,1.3,9.5,6.3,12.7C18,26.5-2.9,63.3,33.6,65.9,84.1,69.6,58.8,26,41.5,18.9Zm4.3,29a5.68,5.68,0,0,1-2,3.6A7.92,7.92,0,0,1,39.6,53v1.6a1.61,1.61,0,0,1-.5,1.1,1.36,1.36,0,0,1-1.6.2,1.57,1.57,0,0,1-.9-1.4V52.8a2.35,2.35,0,0,1-.8-.2,7.08,7.08,0,0,1-3.6-2.2,5.24,5.24,0,0,1-1.1-1.9c-.1-.1-.1-.3-.2-.5s-.1-.3-.1-.5a1.08,1.08,0,0,1,.2-.8,1.72,1.72,0,0,1,1.4-.8,1.7,1.7,0,0,1,1.3,1c.1.2.1.3.2.5s.1.3.2.5a2.7,2.7,0,0,0,.7.8,4.35,4.35,0,0,0,1.9,1V43.8a10.54,10.54,0,0,1-3.9-1.7,5.09,5.09,0,0,1-1.3-1.6,3.32,3.32,0,0,1-.5-2,5.7,5.7,0,0,1,.4-2.2,6.57,6.57,0,0,1,1.2-1.7,7.34,7.34,0,0,1,4-1.8V31.2a1.61,1.61,0,0,1,.5-1.1,1.36,1.36,0,0,1,1.6-.2,1.57,1.57,0,0,1,.9,1.4v1.6c.2,0,.4.1.6.1a8.39,8.39,0,0,1,3.9,1.9,6.57,6.57,0,0,1,1.2,1.7c.1.2.1.4.2.5a1.09,1.09,0,0,1,.1.5,2,2,0,0,1-.1.8,1.69,1.69,0,0,1-1.4.9,1.38,1.38,0,0,1-1.3-1c-.1-.2-.1-.3-.2-.5s-.1-.3-.2-.5a2.34,2.34,0,0,0-.7-.7,5,5,0,0,0-2-.8v5.6a10.43,10.43,0,0,1,2.5.8,6.12,6.12,0,0,1,3.1,2.4h0A5.49,5.49,0,0,1,45.8,47.9Z" transform="translate(-8.2 -5.74)"/><path class="cls-1" d="M42.6,48.4Z" transform="translate(-8.2 -5.74)"/><path class="cls-2" d="M72.9,116.2A51.29,51.29,0,0,1,21.3,78.9" transform="translate(-8.2 -5.74)"/><path class="cls-3" d="M21.8,80.2c-2.7,3.9-9.1,6.7-13.6,7.7,5.3-5.7,9.7-12.6,11.4-20.3C23.8,74.3,30.5,79,37.3,82.8,32.2,83.2,26,83,21.8,80.2Z" transform="translate(-8.2 -5.74)"/><path class="cls-2" d="M61.5,24.5a51.29,51.29,0,0,1,51.6,37.3" transform="translate(-8.2 -5.74)"/><path class="cls-3" d="M112.6,60.5c2.7-3.9,9.1-6.7,13.6-7.7-5.3,5.7-9.7,12.6-11.4,20.3C110.7,66.5,104,61.8,97.2,58,102.2,57.6,108.4,57.7,112.6,60.5Z" transform="translate(-8.2 -5.74)"/><path class="cls-1" d="M108.3,78.2V72.3H85.1c-1.7-.1-3.2-.1-4.4-.1v.1h-.1v5.9h5.8c4.9.6,7.5,2.3,8.5,5.4H80.6v5.9H95.2c-.8,5.3-4.8,7.1-14.6,7.1v5.7h0v.1h0l17.3,19.8h7.7L88.1,101.9c5.7-.9,11.9-3.8,12.8-12.4h7.3V83.6h-7.5a12.13,12.13,0,0,0-2.3-5.4Z" transform="translate(-8.2 -5.74)"/></svg>