<svg id="Layer_1" data-name="Layer 1" xmlns="http://www.w3.org/2000/svg" xmlns:xlink="http://www.w3.org/1999/xlink" viewBox="0 0 123 116.95"><defs><style>.cls-1{fill:url(#linear-gradient);}.cls-2{fill:url(#linear-gradient-2);}.cls-3{fill:url(#linear-gradient-3);}.cls-4{fill:url(#linear-gradient-4);}.cls-5{fill:#fff;}</style><linearGradient id="linear-gradient" x1="2.5" y1="73.12" x2="125.5" y2="73.12" gradientUnits="userSpaceOnUse"><stop offset="0" stop-color="#15bfae"/><stop offset="0.12" stop-color="#12b6b0"/><stop offset="0.31" stop-color="#0b9cb6"/><stop offset="0.54" stop-color="#0075be"/><stop offset="0.99" stop-color="#005b97"/></linearGradient><linearGradient id="linear-gradient-2" x1="48.31" y1="6.74" x2="61.79" y2="6.74" xlink:href="#linear-gradient"/><linearGradient id="linear-gradient-3" x1="64.09" y1="12.04" x2="76.1" y2="12.04" xlink:href="#linear-gradient"/><linearGradient id="linear-gradient-4" x1="11.95" y1="30.84" x2="114.41" y2="30.84" xlink:href="#linear-gradient"/></defs><title>Wallet Icon - 128 x 128</title><path class="cls-1" d="M41.27,23.77H84.14s7.41.4,11.72,4.81c0,0,23.1,19.19,27.78,35.51,0,0,7.56,24.6-7.8,40.8,0,0-19.24,24.32-71.81,15.76,0,0-59.87-11.13-35.84-65.48,0,0,13.78-21.26,24.81-27.56C33,27.61,38.33,23.64,41.27,23.77Z" transform="translate(-2.5 -5.53)"/><circle class="cls-2" cx="55.05" cy="6.74" r="6.74"/><path class="cls-3" d="M69.6,5.53a6.5,6.5,0,0,0-5.51,3.08,6.61,6.61,0,0,1,1,3.57,6.68,6.68,0,0,1-1,3.43A6.5,6.5,0,1,0,69.6,5.53Z" transform="translate(-2.5 -5.53)"/><path class="cls-4" d="M12.05,43.7c-.11.45-.65-4.28,2.51-8.09,0,0,15-14.31,17.57-15.24A18.1,18.1,0,0,1,41.79,18H85.38s7.25.93,10.41,3.26c0,0,15.71,12.54,17.1,15.61,0,0,2,4.28,1.4,6.78,0,0-15.25-17-19.61-18.86,0,0-2.61-2.42-8.28-3.44H42.07a14.29,14.29,0,0,0-10.5,3.34S12.79,40.63,12.05,43.7Z" transform="translate(-2.5 -5.53)"/><path class="cls-5" d="M47.4,44.43H84.32v.08a56.93,56.93,0,0,1-3.68,5.37H70.77a12.88,12.88,0,0,1,2.77,5.79H84.05c.13,0,.19.08.19.16q-3.52,5.3-3.6,5.29H73.81a15.86,15.86,0,0,1-2.61,6.57c-2.1,2.58-4.11,4.26-6,5a23.73,23.73,0,0,1-10.28,2.57v.08c0,.26.8,1.32,2.41,3.19l18.23,22v1c0,.11-.06.16-.19.16h-8Q45.68,76.52,45.67,76.4V71.29l.08-.19a32.7,32.7,0,0,0,4.49.27q12.13,0,15.08-7.87a6.3,6.3,0,0,0,.46-2.38h-22a.13.13,0,0,1-.15-.15q3.65-5.3,3.72-5.3H64.82V55.6c-1-2-2.92-3.6-5.79-4.72a18,18,0,0,0-5.53-1H43.76v-.19Q47.29,44.43,47.4,44.43Z" transform="translate(-2.5 -5.53)"/></svg>