<svg id="Layer_1" data-name="Layer 1" xmlns="http://www.w3.org/2000/svg" viewBox="0 0 120 36"><defs><style>.cls-1,.cls-10,.cls-3,.cls-7,.cls-8,.cls-9{fill:none;}.cls-1{stroke:#4d4d4d;stroke-width:2px;}.cls-1,.cls-3,.cls-6,.cls-7,.cls-8,.cls-9{stroke-miterlimit:10;}.cls-2{fill:#666;}.cls-3{stroke:#999;}.cls-4{isolation:isolate;}.cls-5,.cls-6{fill:#fff;}.cls-6{stroke:#000;}.cls-10,.cls-6,.cls-7{stroke-width:0.5px;}.cls-10,.cls-7,.cls-8,.cls-9{stroke:#fff;}.cls-8{stroke-width:0.25px;}.cls-9{stroke-width:0.75px;}.cls-10{stroke-linecap:round;stroke-miterlimit:20;}</style></defs><title>Comparative Analytics _(with-ICON)</title><path class="cls-1" d="M3.5,26v-.5c0-6.9,6.3-12.5,14-12.5" transform="translate(-2.5 -12)"/><path class="cls-1" d="M17.2,13h90.6c7.6,0,13.7,5.6,13.7,12.5v.4" transform="translate(-2.5 -12)"/><path class="cls-2" d="M105.6,43H19.4A12.93,12.93,0,0,1,6.5,30.1v-.3A12.93,12.93,0,0,1,19.4,16.9h86.3a12.93,12.93,0,0,1,12.9,12.9v.3A13.08,13.08,0,0,1,105.6,43Z" transform="translate(-2.5 -12)"/><circle class="cls-2" cx="1" cy="17.5" r="1"/><circle class="cls-2" cx="119" cy="19" r="1"/><path class="cls-3" d="M3.5,34.5V35c0,6.9,6.3,12.5,14,12.5" transform="translate(-2.5 -12)"/><path class="cls-3" d="M17.2,47.5h90.6c7.6,0,13.7-5.6,13.7-12.5v-.5" transform="translate(-2.5 -12)"/><g class="cls-4"><path class="cls-5" d="M45.25,28.82c0,.07,0,.14,0,.2a.75.75,0,0,1,0,.15.51.51,0,0,1,0,.11l-.1.12a2,2,0,0,1-.29.21,3.58,3.58,0,0,1-.55.28,4.57,4.57,0,0,1-.76.23,4.4,4.4,0,0,1-.94.09,4.11,4.11,0,0,1-1.59-.29A3.2,3.2,0,0,1,39.74,29,3.93,3.93,0,0,1,39,27.63a7.09,7.09,0,0,1,0-3.94,4.34,4.34,0,0,1,.81-1.49,3.46,3.46,0,0,1,1.25-.93A4,4,0,0,1,42.67,21a3.9,3.9,0,0,1,.76.07,4.88,4.88,0,0,1,.68.18,3.16,3.16,0,0,1,.56.26,1.92,1.92,0,0,1,.34.24.82.82,0,0,1,.12.14.48.48,0,0,1,0,.12,1.17,1.17,0,0,1,0,.16,2,2,0,0,1,0,.22,1.72,1.72,0,0,1,0,.24.67.67,0,0,1,0,.16.24.24,0,0,1-.07.1.14.14,0,0,1-.09,0,.52.52,0,0,1-.27-.14,4.42,4.42,0,0,0-.45-.3,3.73,3.73,0,0,0-.67-.3,3,3,0,0,0-.95-.14,2.48,2.48,0,0,0-1.1.24,2.32,2.32,0,0,0-.84.71,3.47,3.47,0,0,0-.54,1.14,6.25,6.25,0,0,0,0,3.05,3.14,3.14,0,0,0,.53,1.1,2.22,2.22,0,0,0,.85.67,2.76,2.76,0,0,0,1.14.23,3,3,0,0,0,.94-.13,3.69,3.69,0,0,0,.69-.3q.28-.16.47-.3a.55.55,0,0,1,.29-.13l.08,0a.15.15,0,0,1,.06.08.73.73,0,0,1,0,.16C45.25,28.62,45.25,28.71,45.25,28.82Z" transform="translate(-2.5 -12)"/><path class="cls-5" d="M52.56,26.71a4.7,4.7,0,0,1-.2,1.41,3.12,3.12,0,0,1-.6,1.11,2.74,2.74,0,0,1-1,.73,3.5,3.5,0,0,1-1.4.26A3.62,3.62,0,0,1,48,30a2.46,2.46,0,0,1-1-.67,2.84,2.84,0,0,1-.57-1.07,5,5,0,0,1-.19-1.42,4.78,4.78,0,0,1,.2-1.41,3.06,3.06,0,0,1,.6-1.11,2.7,2.7,0,0,1,1-.72,3.52,3.52,0,0,1,1.4-.26,3.62,3.62,0,0,1,1.35.23,2.47,2.47,0,0,1,1,.67,2.88,2.88,0,0,1,.58,1.07A4.83,4.83,0,0,1,52.56,26.71Zm-1.19.08a4.71,4.71,0,0,0-.09-1A2.39,2.39,0,0,0,51,25a1.56,1.56,0,0,0-.59-.54,2,2,0,0,0-.93-.2,2,2,0,0,0-.88.18,1.62,1.62,0,0,0-.61.51,2.3,2.3,0,0,0-.35.78,4,4,0,0,0-.12,1,4.7,4.7,0,0,0,.1,1,2.29,2.29,0,0,0,.32.79,1.59,1.59,0,0,0,.59.54,2,2,0,0,0,.93.2,2,2,0,0,0,.88-.18,1.63,1.63,0,0,0,.61-.51,2.21,2.21,0,0,0,.35-.78A4.15,4.15,0,0,0,51.37,26.79Z" transform="translate(-2.5 -12)"/><path class="cls-5" d="M63.57,29.92a.15.15,0,0,1,0,.09.22.22,0,0,1-.09.07l-.17,0h-.56l-.18,0a.22.22,0,0,1-.09-.07.15.15,0,0,1,0-.09V26.1a3.5,3.5,0,0,0-.07-.73,1.68,1.68,0,0,0-.22-.56,1,1,0,0,0-.39-.36,1.17,1.17,0,0,0-.56-.13,1.31,1.31,0,0,0-.8.31,5.55,5.55,0,0,0-.88.9v4.39a.15.15,0,0,1,0,.09.22.22,0,0,1-.09.07l-.18,0h-.55l-.18,0a.19.19,0,0,1-.09-.07.17.17,0,0,1,0-.09V26.1a3.21,3.21,0,0,0-.08-.73,1.79,1.79,0,0,0-.23-.56,1,1,0,0,0-.39-.36,1.15,1.15,0,0,0-.55-.13,1.33,1.33,0,0,0-.8.31,5.28,5.28,0,0,0-.88.9v4.39a.15.15,0,0,1,0,.09.22.22,0,0,1-.09.07l-.17,0h-.56l-.18,0a.19.19,0,0,1-.09-.07.17.17,0,0,1,0-.09V23.64a.2.2,0,0,1,0-.09.19.19,0,0,1,.08-.07.48.48,0,0,1,.16,0H55a.42.42,0,0,1,.16,0,.22.22,0,0,1,.08.07.18.18,0,0,1,0,.09v.83a4.1,4.1,0,0,1,1-.87,2.06,2.06,0,0,1,1-.28,2.49,2.49,0,0,1,.7.09,1.88,1.88,0,0,1,.55.25,1.7,1.7,0,0,1,.4.39,2.27,2.27,0,0,1,.28.5,6.4,6.4,0,0,1,.6-.58,3.57,3.57,0,0,1,.54-.38,2.25,2.25,0,0,1,.51-.21,1.93,1.93,0,0,1,.5-.07,2.2,2.2,0,0,1,1,.21,1.85,1.85,0,0,1,.67.57,2.26,2.26,0,0,1,.36.83,4.54,4.54,0,0,1,.11,1Z" transform="translate(-2.5 -12)"/><path class="cls-5" d="M71.46,26.68a5.63,5.63,0,0,1-.18,1.48,3.22,3.22,0,0,1-.52,1.11,2.34,2.34,0,0,1-.85.7,2.63,2.63,0,0,1-1.16.25,2.26,2.26,0,0,1-.52-.06,2,2,0,0,1-.46-.17,2.7,2.7,0,0,1-.45-.3c-.15-.12-.31-.26-.47-.42v3.14a.17.17,0,0,1,0,.1.2.2,0,0,1-.09.07l-.17,0H66l-.18,0a.18.18,0,0,1-.09-.07.2.2,0,0,1,0-.1V23.64a.21.21,0,0,1,0-.1.17.17,0,0,1,.08-.07l.16,0h.48l.16,0a.2.2,0,0,1,.09.07.19.19,0,0,1,0,.1v.84a6.85,6.85,0,0,1,.55-.51,3.23,3.23,0,0,1,.53-.36,2.48,2.48,0,0,1,.55-.22,2.6,2.6,0,0,1,1.76.19,2.19,2.19,0,0,1,.78.72,3.26,3.26,0,0,1,.44,1.07A5.8,5.8,0,0,1,71.46,26.68Zm-1.19.13a5.78,5.78,0,0,0-.07-.93,2.69,2.69,0,0,0-.25-.8,1.49,1.49,0,0,0-.48-.56,1.29,1.29,0,0,0-.75-.21,1.51,1.51,0,0,0-.44.07,1.81,1.81,0,0,0-.44.21,3.12,3.12,0,0,0-.47.38,5.65,5.65,0,0,0-.52.58V28a5,5,0,0,0,.91.89,1.52,1.52,0,0,0,.9.31,1.31,1.31,0,0,0,.75-.21,1.57,1.57,0,0,0,.5-.56,2.78,2.78,0,0,0,.28-.78A4.22,4.22,0,0,0,70.27,26.82Z" transform="translate(-2.5 -12)"/><path class="cls-5" d="M77.93,29.92a.15.15,0,0,1-.06.13.38.38,0,0,1-.15.06l-.29,0-.29,0A.33.33,0,0,1,77,30a.15.15,0,0,1,0-.12V29.3A3.11,3.11,0,0,1,76,30a2.44,2.44,0,0,1-1.07.24,2.92,2.92,0,0,1-.9-.13,2,2,0,0,1-.68-.37,1.69,1.69,0,0,1-.44-.6,2,2,0,0,1-.16-.81,1.88,1.88,0,0,1,.22-.92,1.81,1.81,0,0,1,.62-.65,3.05,3.05,0,0,1,1-.39,6.16,6.16,0,0,1,1.32-.13h.86v-.49a2.39,2.39,0,0,0-.08-.64,1.1,1.1,0,0,0-.25-.46,1.08,1.08,0,0,0-.44-.28,2.08,2.08,0,0,0-.67-.09,2.66,2.66,0,0,0-.76.1,4.08,4.08,0,0,0-.59.22l-.43.22a.59.59,0,0,1-.25.1.17.17,0,0,1-.1,0,.23.23,0,0,1-.07-.08.43.43,0,0,1,0-.14,1.28,1.28,0,0,1,0-.19,1.21,1.21,0,0,1,0-.28.4.4,0,0,1,.12-.19,1.52,1.52,0,0,1,.32-.21,3.58,3.58,0,0,1,.53-.22,4.93,4.93,0,0,1,.66-.17,3.93,3.93,0,0,1,.72-.07,3.76,3.76,0,0,1,1.15.15,1.85,1.85,0,0,1,.77.45,1.74,1.74,0,0,1,.43.74,3.58,3.58,0,0,1,.13,1Zm-1.14-2.87h-1a3.69,3.69,0,0,0-.82.08,1.7,1.7,0,0,0-.58.24,1,1,0,0,0-.34.38,1.13,1.13,0,0,0-.11.51,1,1,0,0,0,.31.78,1.22,1.22,0,0,0,.87.29,1.62,1.62,0,0,0,.84-.23,3.63,3.63,0,0,0,.81-.7Z" transform="translate(-2.5 -12)"/><path class="cls-5" d="M83.72,24.05c0,.1,0,.19,0,.26a.63.63,0,0,1,0,.16.25.25,0,0,1-.05.09.12.12,0,0,1-.09,0l-.14,0-.18-.06L83,24.45a1.26,1.26,0,0,0-.27,0,.89.89,0,0,0-.34.07,1.36,1.36,0,0,0-.35.23,2.9,2.9,0,0,0-.39.43c-.13.18-.28.39-.45.65v4.13a.15.15,0,0,1,0,.09.22.22,0,0,1-.09.07l-.17,0h-.56l-.18,0a.19.19,0,0,1-.09-.07.17.17,0,0,1,0-.09V23.64a.2.2,0,0,1,0-.09.19.19,0,0,1,.08-.07.48.48,0,0,1,.16,0h.51a.42.42,0,0,1,.16,0,.22.22,0,0,1,.08.07.18.18,0,0,1,0,.09v.91a4.89,4.89,0,0,1,.48-.61,2.65,2.65,0,0,1,.43-.37,1.34,1.34,0,0,1,.4-.19,1.56,1.56,0,0,1,.4-.05H83l.24,0,.23.06.14.07a.18.18,0,0,1,.06.07.37.37,0,0,1,0,.08.86.86,0,0,1,0,.14C83.72,23.86,83.72,23.95,83.72,24.05Z" transform="translate(-2.5 -12)"/><path class="cls-5" d="M89.48,29.92a.15.15,0,0,1-.06.13.38.38,0,0,1-.15.06l-.29,0-.29,0a.34.34,0,0,1-.16-.06.16.16,0,0,1,0-.12V29.3a3.1,3.1,0,0,1-.92.68,2.44,2.44,0,0,1-1.07.24,2.92,2.92,0,0,1-.9-.13,2,2,0,0,1-.68-.37,1.68,1.68,0,0,1-.44-.6,2,2,0,0,1-.16-.81,1.87,1.87,0,0,1,.22-.92,1.8,1.8,0,0,1,.62-.65,3,3,0,0,1,1-.39,6.15,6.15,0,0,1,1.32-.13h.86v-.49a2.44,2.44,0,0,0-.08-.64,1.1,1.1,0,0,0-.25-.46,1.07,1.07,0,0,0-.44-.28,2.07,2.07,0,0,0-.67-.09,2.66,2.66,0,0,0-.76.1,4.12,4.12,0,0,0-.59.22l-.42.22a.59.59,0,0,1-.25.1.17.17,0,0,1-.1,0,.25.25,0,0,1-.07-.08.43.43,0,0,1,0-.14,1.16,1.16,0,0,1,0-.19,1.21,1.21,0,0,1,0-.28.39.39,0,0,1,.12-.19,1.5,1.5,0,0,1,.32-.21,3.61,3.61,0,0,1,.53-.22,5,5,0,0,1,.66-.17,3.94,3.94,0,0,1,.72-.07,3.76,3.76,0,0,1,1.15.15,1.86,1.86,0,0,1,.77.45,1.73,1.73,0,0,1,.42.74,3.54,3.54,0,0,1,.13,1Zm-1.14-2.87h-1a3.7,3.7,0,0,0-.82.08,1.7,1.7,0,0,0-.58.24,1,1,0,0,0-.34.38,1.13,1.13,0,0,0-.11.51,1,1,0,0,0,.31.78,1.22,1.22,0,0,0,.87.29,1.62,1.62,0,0,0,.84-.23,3.6,3.6,0,0,0,.81-.7Z" transform="translate(-2.5 -12)"/><path class="cls-5" d="M94.74,29.46a1.42,1.42,0,0,1,0,.32.35.35,0,0,1-.08.17.53.53,0,0,1-.17.1l-.26.08-.3.05-.32,0a2.42,2.42,0,0,1-.84-.13,1.35,1.35,0,0,1-.57-.39,1.6,1.6,0,0,1-.32-.66,3.89,3.89,0,0,1-.1-.94V24.42h-.88a.19.19,0,0,1-.17-.11.77.77,0,0,1-.06-.36,1.2,1.2,0,0,1,0-.22.63.63,0,0,1,0-.15.17.17,0,0,1,.07-.08l.1,0h.87V22a.18.18,0,0,1,0-.09.2.2,0,0,1,.09-.07.59.59,0,0,1,.18,0h.56a.54.54,0,0,1,.17,0,.22.22,0,0,1,.09.07.16.16,0,0,1,0,.09v1.49h1.61l.1,0a.2.2,0,0,1,.07.08.47.47,0,0,1,0,.15,1.45,1.45,0,0,1,0,.22.76.76,0,0,1-.06.36.19.19,0,0,1-.17.11H92.9v3.5a2,2,0,0,0,.19,1,.73.73,0,0,0,.69.33,1.21,1.21,0,0,0,.29,0l.22-.07.17-.07.13,0,.07,0a.11.11,0,0,1,0,.07.83.83,0,0,1,0,.13A1.26,1.26,0,0,1,94.74,29.46Z" transform="translate(-2.5 -12)"/></g><g class="cls-4"><path class="cls-5" d="M97.38,21.52a.75.75,0,0,1-.15.55.83.83,0,0,1-.56.15.81.81,0,0,1-.55-.14.74.74,0,0,1-.15-.54.76.76,0,0,1,.15-.55,1.16,1.16,0,0,1,1.12,0A.75.75,0,0,1,97.38,21.52Zm-.13,8.39a.15.15,0,0,1,0,.09.22.22,0,0,1-.09.07l-.17,0h-.57l-.18,0a.2.2,0,0,1-.09-.07.18.18,0,0,1,0-.09V23.64a.16.16,0,0,1,.12-.16l.18,0H97l.17,0a.2.2,0,0,1,.09.07.16.16,0,0,1,0,.09Z" transform="translate(-2.5 -12)"/><path class="cls-5" d="M104.53,23.63a.43.43,0,0,1,0,.06v.07l0,.08,0,.09-2.14,6a.36.36,0,0,1-.07.13.3.3,0,0,1-.14.08l-.23,0h-.7l-.23,0a.33.33,0,0,1-.14-.08.35.35,0,0,1-.08-.12l-2.13-6,0-.15a.58.58,0,0,1,0-.09.37.37,0,0,1,0-.05.17.17,0,0,1,0-.1.18.18,0,0,1,.09-.07l.17,0h.59l.19,0a.23.23,0,0,1,.1.07l.06.1,1.77,5.17,0,.08,0-.08,1.75-5.17a.23.23,0,0,1,0-.1.25.25,0,0,1,.1-.07l.18,0h.57a.45.45,0,0,1,.16,0,.19.19,0,0,1,.08.07A.18.18,0,0,1,104.53,23.63Z" transform="translate(-2.5 -12)"/><path class="cls-5" d="M111.07,26.51a.48.48,0,0,1-.14.39.47.47,0,0,1-.31.12h-4.13a3.9,3.9,0,0,0,.1.94,1.83,1.83,0,0,0,.35.72,1.58,1.58,0,0,0,.64.46,2.55,2.55,0,0,0,1,.16,3.92,3.92,0,0,0,.8-.07,4.7,4.7,0,0,0,.61-.16l.42-.16a.7.7,0,0,1,.25-.07l.09,0a.16.16,0,0,1,.06.07.51.51,0,0,1,0,.14,1.84,1.84,0,0,1,0,.21c0,.06,0,.11,0,.16s0,.08,0,.12a.3.3,0,0,1,0,.09l-.06.08a1,1,0,0,1-.23.13A3.24,3.24,0,0,1,110,30a6.77,6.77,0,0,1-.69.15,5.09,5.09,0,0,1-.84.07,3.88,3.88,0,0,1-1.36-.22,2.51,2.51,0,0,1-1-.64,2.75,2.75,0,0,1-.6-1.07,5,5,0,0,1-.2-1.49,4.73,4.73,0,0,1,.21-1.45,3.08,3.08,0,0,1,.6-1.09,2.64,2.64,0,0,1,1-.69,3.13,3.13,0,0,1,1.25-.24,3,3,0,0,1,1.26.24,2.39,2.39,0,0,1,.85.64,2.56,2.56,0,0,1,.49.94,4.13,4.13,0,0,1,.16,1.15Zm-1.16-.34a2.1,2.1,0,0,0-.4-1.42,1.53,1.53,0,0,0-1.26-.52,1.66,1.66,0,0,0-.75.16,1.62,1.62,0,0,0-.54.42,2,2,0,0,0-.34.62,2.56,2.56,0,0,0-.13.74Z" transform="translate(-2.5 -12)"/></g><g class="cls-4"><path class="cls-5" d="M84.79,39.43a.52.52,0,0,1,0,.15.1.1,0,0,1,0,.09.19.19,0,0,1-.11,0h-.42l-.12,0-.06,0,0-.06-.47-1.35h-2.3l-.45,1.33,0,.07-.06,0-.12,0h-.4a.21.21,0,0,1-.11,0,.11.11,0,0,1,0-.09.52.52,0,0,1,0-.15L82,34.29a.22.22,0,0,1,0-.08l.08,0,.14,0h.44l.14,0,.09,0a.24.24,0,0,1,0,.08ZM82.41,34.9h0l-1,2.75h1.92Z" transform="translate(-2.5 -12)"/><path class="cls-5" d="M88.94,39.58a.09.09,0,0,1,0,.06l-.05,0-.11,0h-.35l-.11,0-.06,0a.09.09,0,0,1,0-.06V37.33a2.22,2.22,0,0,0-.05-.53,1.08,1.08,0,0,0-.15-.35.64.64,0,0,0-.25-.22.82.82,0,0,0-.36-.08.91.91,0,0,0-.53.19,2.84,2.84,0,0,0-.56.55v2.69a.1.1,0,0,1,0,.06l-.06,0-.11,0h-.35l-.11,0-.06,0a.1.1,0,0,1,0-.06V35.74a.12.12,0,0,1,0-.06l.05,0,.1,0h.31l.1,0,0,0a.11.11,0,0,1,0,.06v.51a2.38,2.38,0,0,1,.65-.53,1.4,1.4,0,0,1,.65-.17,1.43,1.43,0,0,1,.65.13,1.15,1.15,0,0,1,.42.35,1.37,1.37,0,0,1,.23.51,3.05,3.05,0,0,1,.07.7Z" transform="translate(-2.5 -12)"/><path class="cls-5" d="M93.12,39.59a.09.09,0,0,1,0,.08l-.09,0h-.35l-.1,0a.1.1,0,0,1,0-.08V39.2a1.89,1.89,0,0,1-.56.42,1.5,1.5,0,0,1-.66.15,1.79,1.79,0,0,1-.55-.08,1.18,1.18,0,0,1-.42-.23,1,1,0,0,1-.27-.37,1.21,1.21,0,0,1-.1-.49,1.15,1.15,0,0,1,.13-.56,1.1,1.1,0,0,1,.38-.4,1.88,1.88,0,0,1,.61-.24,3.75,3.75,0,0,1,.81-.08h.53V37a1.48,1.48,0,0,0,0-.39.68.68,0,0,0-.15-.29.63.63,0,0,0-.27-.17,1.24,1.24,0,0,0-.41-.06,1.64,1.64,0,0,0-.47.06,2.33,2.33,0,0,0-.36.14l-.26.14a.36.36,0,0,1-.16.06l-.06,0,0-.05a.25.25,0,0,1,0-.09.75.75,0,0,1,0-.12.77.77,0,0,1,0-.17.25.25,0,0,1,.07-.12,1,1,0,0,1,.2-.13,2.27,2.27,0,0,1,.32-.14l.4-.1a2.36,2.36,0,0,1,.44,0,2.32,2.32,0,0,1,.71.09,1.14,1.14,0,0,1,.47.28,1.08,1.08,0,0,1,.26.45,2.2,2.2,0,0,1,.08.63Zm-.7-1.76h-.6a2.24,2.24,0,0,0-.5,0A1.08,1.08,0,0,0,91,38a.6.6,0,0,0-.21.23.68.68,0,0,0-.07.31.62.62,0,0,0,.19.48.76.76,0,0,0,.53.18,1,1,0,0,0,.51-.14,2.25,2.25,0,0,0,.5-.43Z" transform="translate(-2.5 -12)"/><path class="cls-5" d="M95.12,39.58a.09.09,0,0,1,0,.06l-.06,0-.11,0h-.35l-.11,0-.06,0a.11.11,0,0,1,0-.06V33.88a.12.12,0,0,1,0-.06.11.11,0,0,1,.06,0l.11,0h.35l.11,0,.06,0a.11.11,0,0,1,0,.06Z" transform="translate(-2.5 -12)"/><path class="cls-5" d="M98.17,39.69l-.51,1.41a.2.2,0,0,1-.13.11,1.07,1.07,0,0,1-.32,0H97l-.1,0a.09.09,0,0,1,0-.07.2.2,0,0,1,0-.1l.53-1.34-.07-.05a.22.22,0,0,1,0-.08l-1.37-3.67a.44.44,0,0,1,0-.14.1.1,0,0,1,0-.08.23.23,0,0,1,.11,0h.41l.12,0a.12.12,0,0,1,.06,0l0,.09,1.1,3.08h0l1.06-3.1a.19.19,0,0,1,.06-.1l.11,0h.41a.24.24,0,0,1,.11,0,.1.1,0,0,1,0,.08.43.43,0,0,1,0,.13Z" transform="translate(-2.5 -12)"/><path class="cls-5" d="M103.77,35.63a.22.22,0,0,1,.18.06.27.27,0,0,1,0,.17v3.73a.09.09,0,0,1,0,.06l-.06,0-.11,0h-.34l-.11,0-.06,0a.1.1,0,0,1,0-.06V36.21h-2v2.14a1.22,1.22,0,0,0,.12.6.45.45,0,0,0,.42.2l.18,0,.14,0,.1,0,.08,0h0l0,0a.42.42,0,0,1,0,.08.76.76,0,0,1,0,.13.84.84,0,0,1,0,.2.22.22,0,0,1-.05.11.3.3,0,0,1-.1.07l-.16,0-.19,0h-.2a1.48,1.48,0,0,1-.51-.08.84.84,0,0,1-.35-.24,1,1,0,0,1-.2-.41,2.41,2.41,0,0,1-.06-.58V36.21h-.54a.11.11,0,0,1-.1-.07.48.48,0,0,1,0-.22.74.74,0,0,1,0-.13.45.45,0,0,1,0-.09.11.11,0,0,1,0-.05h.6v-.91a.11.11,0,0,1,0-.06l.06,0,.11,0h.35l.11,0,.06,0a.1.1,0,0,1,0,.06v.91Zm.3-1.19a.46.46,0,0,1-.09.34.71.71,0,0,1-.69,0,.46.46,0,0,1-.09-.33.47.47,0,0,1,.09-.34.51.51,0,0,1,.35-.09.5.5,0,0,1,.34.09A.46.46,0,0,1,104.07,34.44Z" transform="translate(-2.5 -12)"/><path class="cls-5" d="M108.06,39s0,.09,0,.13a.45.45,0,0,1,0,.09l0,.06-.07.08-.18.13a1.76,1.76,0,0,1-.29.14,2.21,2.21,0,0,1-.35.1,2,2,0,0,1-.39,0,1.88,1.88,0,0,1-.73-.14,1.39,1.39,0,0,1-.54-.4,1.79,1.79,0,0,1-.33-.64,3.12,3.12,0,0,1-.11-.88,3,3,0,0,1,.14-1,1.83,1.83,0,0,1,.38-.67,1.49,1.49,0,0,1,.57-.39,2,2,0,0,1,.71-.13,2,2,0,0,1,.67.13,1.39,1.39,0,0,1,.26.13l.16.13L108,36a.23.23,0,0,1,0,.07.43.43,0,0,1,0,.09s0,.08,0,.13a.5.5,0,0,1,0,.23.11.11,0,0,1-.09.07.24.24,0,0,1-.15-.07l-.21-.16a1.6,1.6,0,0,0-.31-.16,1.18,1.18,0,0,0-.43-.07.89.89,0,0,0-.78.39,2,2,0,0,0-.27,1.13,2.67,2.67,0,0,0,.07.65,1.35,1.35,0,0,0,.21.47.85.85,0,0,0,.33.28,1.08,1.08,0,0,0,.46.09,1.11,1.11,0,0,0,.43-.08,1.79,1.79,0,0,0,.32-.17l.23-.17a.28.28,0,0,1,.14-.07l.05,0a.11.11,0,0,1,0,.06.42.42,0,0,1,0,.1S108.06,38.94,108.06,39Z" transform="translate(-2.5 -12)"/><path class="cls-5" d="M111.41,38.54a1.23,1.23,0,0,1-.11.53,1.06,1.06,0,0,1-.31.39,1.37,1.37,0,0,1-.48.24,2.15,2.15,0,0,1-.61.08,2.29,2.29,0,0,1-.39,0l-.33-.08-.25-.1-.15-.1a.25.25,0,0,1-.07-.12.84.84,0,0,1,0-.21.91.91,0,0,1,0-.14.47.47,0,0,1,0-.09.09.09,0,0,1,0,0l.05,0a.3.3,0,0,1,.14.06l.23.13a2.2,2.2,0,0,0,.32.13,1.45,1.45,0,0,0,.42.06,1.19,1.19,0,0,0,.32,0,.8.8,0,0,0,.25-.11.51.51,0,0,0,.17-.19.61.61,0,0,0,.06-.27.44.44,0,0,0-.08-.27.8.8,0,0,0-.22-.2,1.88,1.88,0,0,0-.31-.15l-.35-.14-.35-.16a1.43,1.43,0,0,1-.31-.22,1,1,0,0,1-.22-.32,1.05,1.05,0,0,1-.08-.44,1.12,1.12,0,0,1,.09-.43,1,1,0,0,1,.26-.36,1.32,1.32,0,0,1,.44-.25,1.82,1.82,0,0,1,.61-.09l.31,0,.28.06.21.08.13.08.06.06a.18.18,0,0,1,0,.06V36a.94.94,0,0,1,0,.12,1.14,1.14,0,0,1,0,.13.36.36,0,0,1,0,.09.11.11,0,0,1,0,0l0,0a.23.23,0,0,1-.11,0l-.19-.1-.27-.1a1.24,1.24,0,0,0-.36,0,1.1,1.1,0,0,0-.32,0,.6.6,0,0,0-.22.12.47.47,0,0,0-.13.18.53.53,0,0,0,0,.22.45.45,0,0,0,.08.28.8.8,0,0,0,.22.2,1.82,1.82,0,0,0,.31.15l.36.14.36.16a1.36,1.36,0,0,1,.31.22,1,1,0,0,1,.22.31A1,1,0,0,1,111.41,38.54Z" transform="translate(-2.5 -12)"/></g><path class="cls-6" d="M9.33,26.5" transform="translate(-2.5 -12)"/><path class="cls-6" d="M8.3,26.5" transform="translate(-2.5 -12)"/><path class="cls-7" d="M21,22a7.81,7.81,0,0,1,0,15.6" transform="translate(-2.5 -12)"/><path class="cls-7" d="M21,39a9.56,9.56,0,0,1-9.5-9.5" transform="translate(-2.5 -12)"/><path class="cls-7" d="M10.7,32.7A9.42,9.42,0,0,0,20,40.4" transform="translate(-2.5 -12)"/><circle class="cls-5" cx="18.8" cy="7.6" r="1.4"/><path class="cls-5" d="M23.8,23.5h-5s1-2.5,2-2.5h1S22.8,21,23.8,23.5Z" transform="translate(-2.5 -12)"/><circle class="cls-5" cx="9" cy="18" r="1.4"/><path class="cls-5" d="M14,33.9H9s1-2.5,2-2.5h1S13,31.4,14,33.9Z" transform="translate(-2.5 -12)"/><circle class="cls-5" cx="18.8" cy="25.5" r="1.4"/><path class="cls-5" d="M23.8,41.4h-5s1-2.5,2-2.5h1S22.8,38.9,23.8,41.4Z" transform="translate(-2.5 -12)"/><path class="cls-6" d="M8.3,26.4" transform="translate(-2.5 -12)"/><circle class="cls-5" cx="9.89" cy="27.98" r="0.5" transform="translate(-20.74 25.44) rotate(-89.12)"/><circle class="cls-5" cx="10.96" cy="25.39" r="0.5" transform="translate(-17.1 23.96) rotate(-89.12)"/><circle class="cls-5" cx="11.97" cy="23.44" r="0.5" transform="translate(-14.14 23.05) rotate(-89.12)"/><circle class="cls-5" cx="14.07" cy="21.5" r="0.5" transform="translate(-10.14 23.24) rotate(-89.12)"/><circle class="cls-5" cx="16.06" cy="20.44" r="0.5" transform="translate(-7.13 24.18) rotate(-89.12)"/><circle class="cls-5" cx="18.04" cy="19.49" r="0.5" transform="translate(-4.22 25.23) rotate(-89.12)"/><circle class="cls-8" cx="25.02" cy="21.29" r="0.5" transform="translate(-10.31 8.16) rotate(-38.42)"/><circle class="cls-8" cx="29" cy="25" r="0.5" transform="translate(-11.76 11.43) rotate(-38.42)"/><circle class="cls-8" cx="30" cy="30" r="0.5" transform="translate(-14.65 13.14) rotate(-38.42)"/><circle class="cls-8" cx="28.5" cy="35" r="0.5" transform="translate(-18.08 13.29) rotate(-38.42)"/><circle class="cls-8" cx="25.5" cy="38.5" r="0.5" transform="translate(-20.9 12.18) rotate(-38.42)"/><polyline class="cls-9" points="12.7 22.2 14.2 17.7 18.7 19.2 20.9 14.3"/><polygon class="cls-5" points="21.8 12.3 21.7 15.6 20.8 14.4 19.4 14.6 21.8 12.3"/><polyline class="cls-10" points="14.4 22.5 15.1 20.2 19.6 21.6 21.6 17"/><circle class="cls-8" cx="23.3" cy="31" r="0.8" transform="translate(-17.6 13.56) rotate(-45)"/><circle class="cls-8" cx="17.5" cy="21" r="0.8"/><path class="cls-7" d="M21.5,19.8l2.7.4c.1.1.2,0,.3-.1l.6-.7a.37.37,0,0,1,.3-.1l1.7.9-.9,1L28,23c.1.1.1.1.2.1h1.6a.22.22,0,0,1,.2.2l.8,1.7v.2L29.9,27v1l1.7.9c.1,0,.1.1.1.2v1.6a.35.35,0,0,1-.1.2l-1.6.8c-.1,0-.1.1-.1.2v1.7c0,.1,0,.1.1.2l.7.7a.19.19,0,0,1,0,.3L30,36.5a.22.22,0,0,1-.2.2H28.2c-.1,0-.1,0-.2.1l-.8.8c0,.1-.1.1-.1.2v1.7a.35.35,0,0,1-.1.2l-1.6.8h-.3l-1.5-.8c-.1-.1-.2,0-.3.1l-.8.8" transform="translate(-2.5 -12)"/><path class="cls-7" d="M11.5,30.5A9.56,9.56,0,0,1,21,21" transform="translate(-2.5 -12)"/></svg>