<?xml version="1.0"?>
<svg xmlns="http://www.w3.org/2000/svg" height="512px" viewBox="0 0 192 192" width="512px"><g><circle cx="32" cy="120" r="24" data-original="#000000" class="active-path" data-old_color="#000000" fill="#04458F"/><path d="m40 144h-16a24.027 24.027 0 0 0 -24 24v16a8 8 0 0 0 8 8h48a8 8 0 0 0 8-8v-16a24.027 24.027 0 0 0 -24-24z" data-original="#000000" class="active-path" data-old_color="#000000" fill="#04458F"/><path d="m120 0c-39.7 0-72 28.71-72 64 0 17.366 7.819 33.756 21.647 45.761l-5.236 15.709c-2.2 6.607 4.912 12.814 11.167 9.685l21.161-10.58a79.862 79.862 0 0 0 23.261 3.425c39.7 0 72-28.71 72-64s-32.3-64-72-64zm-32 72a8 8 0 1 1 8-8 8 8 0 0 1 -8 8zm32 0a8 8 0 1 1 8-8 8 8 0 0 1 -8 8zm32 0a8 8 0 1 1 8-8 8 8 0 0 1 -8 8z" data-original="#000000" class="active-path" data-old_color="#000000" fill="#04458F"/></g> </svg>
